<?xml version="1.0" encoding="UTF-8" standalone="no"?><!DOCTYPE svg PUBLIC "-//W3C//DTD SVG 1.1//EN" "http://www.w3.org/Graphics/SVG/1.1/DTD/svg11.dtd"><svg width="100%" height="100%" viewBox="0 0 1246 1063" version="1.1" xmlns="http://www.w3.org/2000/svg" xmlns:xlink="http://www.w3.org/1999/xlink" xml:space="preserve" xmlns:serif="http://www.serif.com/" style="fill-rule:evenodd;clip-rule:evenodd;stroke-miterlimit:10;"><g id="Top"><path d="M14.84,1047.73l0,-921.25l1104.17,0l0,921.25l-448.75,0l0,-35.42l-206.67,0l0,35.42l-448.75,0Z" style="fill:#fff;"/><path d="M50.27,161.91l620,0l0,401.67l-88.75,0l0,8.75l-106.25,0l0,-8.75l-425,0l0,-401.67Z" style="fill:#e0e0e0;fill-opacity:0.25;stroke:#a8a8a8;stroke-width:0.3px;"/><path d="M688.18,770.24l0,-76.67l-9.17,0l0,-106.25l9.17,0l0,-425.42l395.42,0l0,608.33l-395.42,0Z" style="fill:#e0e0e0;fill-opacity:0.25;stroke:#a8a8a8;stroke-width:0.3px;"/><path d="M446.1,581.07l0,218.75l8.75,0l0,106.25l-8.75,0l0,106.25l-395.83,0l0,-431.25l395.83,0Z" style="fill:#e0e0e0;fill-opacity:0.25;stroke:#a8a8a8;stroke-width:0.3px;"/><path d="M463.6,1012.32l2.08,0m2.08,0l3.75,0m1.67,0l3.75,0m2.08,0l3.75,0m1.67,0l3.75,0m2.08,0l3.75,0m1.67,0l3.75,0m2.08,0l3.75,0m1.67,0l3.75,0m2.08,0l3.75,0m1.67,0l3.75,0m2.08,0l3.75,0m1.67,0l3.75,0m2.08,0l3.75,0m1.67,0l3.75,0m2.08,0l3.75,0m1.67,0l3.75,0m2.08,0l3.75,0m1.67,0l3.75,0m2.08,0l3.75,0m1.67,0l3.75,0m2.08,0l3.75,0m1.67,0l3.75,0m2.08,0l3.75,0m1.67,0l3.75,0m2.08,0l3.75,0m1.67,0l3.75,0m2.08,0l3.75,0m1.67,0l3.75,0m2.08,0l3.75,0m1.67,0l3.75,0m2.08,0l3.75,0m1.67,0l3.75,0m2.08,0l3.75,0m1.67,0l3.75,0m2.08,0l3.75,0m1.67,0l5.83,0" style="fill:none;fill-rule:nonzero;stroke:#a8a8a8;stroke-width:0.3px;stroke-linecap:round;"/><path d="M475.27,572.32l106.25,0l0,8.75l88.75,0l0,6.25l8.75,0l0,106.25l-8.75,0l0,117.92l8.75,0l0,94.58l-8.75,0l0,106.25l-206.67,0l0,-106.25l-8.75,0l0,-106.25l8.75,0l0,-218.75l11.67,0l0,-8.75Z" style="fill:#e0e0e0;fill-opacity:0.25;stroke:#a8a8a8;stroke-width:0.3px;"/><path d="M806.1,1000.66l0,-9.58l-117.92,0l0,-85l-9.17,0l0,-94.58l9.17,0l0,-23.75l395.42,0l0,212.92l-277.5,0Z" style="fill:#e0e0e0;fill-opacity:0.25;stroke:#a8a8a8;stroke-width:0.3px;"/><g transform="matrix(1,0,0,1,573.482479,416.690632)"><text x="287.21px" y="184.26px" style="font-family:'ArialMT', 'Arial', sans-serif;font-size:21.14px;fill:#2b2b2b;fill-opacity:0.99;">Ložnice</text><g transform="matrix(21.144211,0,0,21.144211,365.374886,207.87846)"></g><text x="281.93px" y="207.88px" style="font-family:'ArialMT', 'Arial', sans-serif;font-size:21.14px;fill:#2b2b2b;fill-opacity:0.99;">17.32 m²</text></g><g transform="matrix(1,0,0,1,86.374919,593.519832)"><text x="143.38px" y="240.1px" style="font-family:'ArialMT', 'Arial', sans-serif;font-size:21.14px;fill:#2b2b2b;fill-opacity:0.99;">Pokoj</text><g transform="matrix(21.144211,0,0,21.144211,211.547812,263.71926)"></g><text x="128.11px" y="263.72px" style="font-family:'ArialMT', 'Arial', sans-serif;font-size:21.14px;fill:#2b2b2b;fill-opacity:0.99;">12.29 m²</text></g><g transform="matrix(1,0,0,1,300.646392,438.682987)"><text x="225.61px" y="191.2px" style="font-family:'ArialMT', 'Arial', sans-serif;font-size:21.14px;fill:#2b2b2b;fill-opacity:0.99;">Chodba</text><text x="216.22px" y="214.82px" style="font-family:'ArialMT', 'Arial', sans-serif;font-size:21.14px;fill:#2b2b2b;fill-opacity:0.99;">horní část</text><g transform="matrix(21.144211,0,0,21.144211,299.940947,238.445461)"></g><text x="228.26px" y="238.45px" style="font-family:'ArialMT', 'Arial', sans-serif;font-size:21.14px;fill:#2b2b2b;fill-opacity:0.99;">6.65 m²</text></g><g transform="matrix(1,0,0,1,131.091672,217.693023)"><text x="157.5px" y="121.42px" style="font-family:'ArialMT', 'Arial', sans-serif;font-size:21.14px;fill:#2b2b2b;fill-opacity:0.99;">Pokoj</text><g transform="matrix(21.144211,0,0,21.144211,225.668892,145.03711)"></g><text x="142.23px" y="145.04px" style="font-family:'ArialMT', 'Arial', sans-serif;font-size:21.14px;fill:#2b2b2b;fill-opacity:0.99;">17.92 m²</text></g><g transform="matrix(1,0,0,1,552.424079,598.157193)"><text x="275.28px" y="241.56px" style="font-family:'ArialMT', 'Arial', sans-serif;font-size:21.14px;fill:#2b2b2b;fill-opacity:0.99;">Koupelna</text><g transform="matrix(21.144211,0,0,21.144211,355.795092,265.18369)"></g><text x="284.11px" y="265.18px" style="font-family:'ArialMT', 'Arial', sans-serif;font-size:21.14px;fill:#2b2b2b;fill-opacity:0.99;">6.01 m²</text></g><rect x="688.18" y="991.07" width="117.92" height="21.25" style="fill:#ddd;"/><path d="M688.18,991.07l117.92,0l0,9.58" style="fill:none;fill-rule:nonzero;stroke:#2b2b2b;stroke-width:2.95px;stroke-linecap:round;"/><path d="M1083.6,1000.66l-277.5,0l0,11.67l277.5,0l0,-11.67Z" style="fill:#ddd;"/><path d="M806.1,1000.66l277.5,0" style="fill:none;fill-rule:nonzero;stroke:#2b2b2b;stroke-width:2.95px;stroke-linecap:round;"/><rect x="688.18" y="540.24" width="47.08" height="47.08" style="fill:#ddb682;stroke:#000;stroke-width:0.77px;"/><rect x="688.18" y="280.24" width="47.08" height="47.08" style="fill:#ddb682;stroke:#000;stroke-width:0.77px;"/><rect x="696.1" y="346.07" width="59.17" height="70.83" style="fill:#69b2ff;fill-opacity:0.5;"/><path d="M936.1,540.24l-100.83,0l0,-65l-75.83,0l0,-147.92l176.67,0l0,212.92Z" style="fill:#69b2ff;fill-opacity:0.5;"/><path d="M759.43,475.24l75.83,65l-147.08,0l0,-212.92l71.25,0l0,147.92Zm-4.17,-58.33l0,-70.83l-59.17,0l0,70.83l59.17,0Zm0,104.58l0,-70.83l-59.17,0l0,70.83l59.17,0Z" style="fill:#e5fcff;fill-opacity:0.5;"/><rect x="696.1" y="450.66" width="59.17" height="70.83" style="fill:#69b2ff;fill-opacity:0.5;"/><path d="M835.27,540.24l-75.83,-65l75.83,0l0,65Z" style="fill:#e5fcff;fill-opacity:0.5;"/><path d="M735.27,587.32l-47.08,0l0,-307.08l47.08,0l0,47.08l200.83,0l0,212.92l-200.83,0l0,47.08Z" style="fill:none;fill-rule:nonzero;stroke:#000;stroke-width:0.77px;"/><rect x="696.1" y="450.66" width="59.17" height="70.83" style="fill:none;stroke:#000;stroke-width:0.77px;"/><path d="M755.27,346.07l-59.17,0l0,70.83l59.17,0l0,-70.83Z" style="fill:none;stroke:#000;stroke-width:0.77px;"/><path d="M759.43,327.32l0,147.92l75.83,65l0,-65l-75.83,0" style="fill:none;fill-rule:nonzero;stroke:#000;stroke-width:0.77px;"/><path d="M735.27,540.24l-47.08,0" style="fill:none;fill-rule:nonzero;stroke:#000;stroke-width:0.77px;"/><path d="M735.27,327.32l-47.08,0" style="fill:none;fill-rule:nonzero;stroke:#000;stroke-width:0.77px;"/><path d="M264.43,214.82l23.75,12.08l1.25,-2.5c0.42,-0.83 0.83,-1.25 1.67,-1.67c0.83,0 1.67,0 2.5,0.42c14.17,9.17 19.17,27.08 11.67,42.08c-7.5,14.58 -25,21.67 -40.42,15.83c-0.83,-0.42 -1.67,-0.83 -1.67,-1.67c-0.42,-0.83 -0.42,-1.67 0,-2.5l1.25,-2.5l-23.75,-12.08l23.75,-47.5Z" style="fill:#cfd4a2;"/><path d="M264.43,274.41l-23.75,-12.08" style="fill:none;fill-rule:nonzero;stroke:#000;stroke-width:0.77px;"/><path d="M264.85,281.07c-0.83,-0.42 -1.67,-0.83 -1.67,-1.67c-0.42,-0.83 -0.42,-1.67 0,-2.5" style="fill:none;fill-rule:nonzero;stroke:#000;stroke-width:0.77px;"/><path d="M288.18,226.91l1.25,-2.5" style="fill:none;fill-rule:nonzero;stroke:#000;stroke-width:0.77px;"/><path d="M263.18,276.91l1.25,-2.5" style="fill:none;fill-rule:nonzero;stroke:#000;stroke-width:0.77px;"/><path d="M288.18,226.91c12.92,6.67 18.33,22.5 11.67,35.42c-6.25,13.33 -22.5,18.75 -35.42,12.08" style="fill:none;fill-rule:nonzero;stroke:#000;stroke-width:0.77px;"/><path d="M293.6,223.16c14.17,9.17 19.17,27.08 11.67,42.08c-7.5,14.58 -25,21.67 -40.42,15.83" style="fill:none;fill-rule:nonzero;stroke:#000;stroke-width:0.77px;"/><path d="M264.43,214.82l23.75,12.08" style="fill:none;fill-rule:nonzero;stroke:#000;stroke-width:0.77px;"/><path d="M240.68,262.32l23.75,-47.5" style="fill:none;fill-rule:nonzero;stroke:#000;stroke-width:0.77px;"/><path d="M289.43,224.41c0.42,-0.83 0.83,-1.25 1.67,-1.67c0.83,0 1.67,0 2.5,0.42" style="fill:none;fill-rule:nonzero;stroke:#000;stroke-width:0.77px;"/><rect x="203.6" y="161.91" width="142.08" height="70.83" style="fill:#ddb682;stroke:#000;stroke-width:0.77px;"/><path d="M998.18,241.91l12.08,24.17l-2.5,1.25c-0.83,0 -1.67,0.83 -1.67,1.67c-0.42,0.83 0,1.67 0.42,2.5c8.75,14.17 27.08,19.17 41.67,11.67c15,-7.5 22.08,-25 16.25,-40.83c-0.42,-0.42 -1.25,-1.25 -2.08,-1.67c-0.42,0 -1.67,0 -2.08,0.42l-2.5,1.25l-12.08,-24.17l-47.5,23.75Z" style="fill:#cfd4a2;"/><path d="M1057.77,242.32l-12.08,-24.17" style="fill:none;fill-rule:nonzero;stroke:#000;stroke-width:0.77px;"/><path d="M1064.43,242.32c-0.42,-0.42 -1.25,-1.25 -2.08,-1.67c-0.42,0 -1.67,0 -2.08,0.42" style="fill:none;fill-rule:nonzero;stroke:#000;stroke-width:0.77px;"/><path d="M1010.27,266.07l-2.5,1.25" style="fill:none;fill-rule:nonzero;stroke:#000;stroke-width:0.77px;"/><path d="M1060.27,241.07l-2.5,1.25" style="fill:none;fill-rule:nonzero;stroke:#000;stroke-width:0.77px;"/><path d="M1010.27,266.07c6.25,12.92 22.5,18.33 35.42,11.67c13.33,-6.67 18.33,-22.5 12.08,-35.42" style="fill:none;fill-rule:nonzero;stroke:#000;stroke-width:0.77px;"/><path d="M1006.52,271.49c8.75,14.17 27.08,19.17 41.67,11.67c15,-7.5 22.08,-25 16.25,-40.83" style="fill:none;fill-rule:nonzero;stroke:#000;stroke-width:0.77px;"/><path d="M998.18,241.91l12.08,24.17" style="fill:none;fill-rule:nonzero;stroke:#000;stroke-width:0.77px;"/><path d="M1045.68,218.16l-47.5,23.75" style="fill:none;fill-rule:nonzero;stroke:#000;stroke-width:0.77px;"/><path d="M1007.77,267.32c-0.83,0 -1.67,0.83 -1.67,1.67c-0.42,0.83 0,1.67 0.42,2.5" style="fill:none;fill-rule:nonzero;stroke:#000;stroke-width:0.77px;"/><rect x="941.93" y="161.91" width="141.67" height="70.83" style="fill:#ddb682;stroke:#000;stroke-width:0.77px;"/><rect x="304.02" y="581.07" width="142.08" height="70.83" style="fill:#ddb682;stroke:#000;stroke-width:0.77px;"/><path d="M446.1,651.91l-71.25,-70.83l-70.83,70.83" style="fill:none;fill-rule:nonzero;stroke:#000;stroke-width:0.3px;"/><rect x="162.35" y="581.07" width="141.67" height="70.83" style="fill:#ddb682;stroke:#000;stroke-width:0.77px;"/><path d="M304.02,651.91l-70.83,-70.83l-70.83,70.83" style="fill:none;fill-rule:nonzero;stroke:#000;stroke-width:0.3px;"/><rect x="50.27" y="581.07" width="112.08" height="70.83" style="fill:#ddb682;stroke:#000;stroke-width:0.77px;"/><path d="M162.35,651.91l-55.83,-70.83l-56.25,70.83" style="fill:none;fill-rule:nonzero;stroke:#000;stroke-width:0.3px;"/><path d="M599.43,421.91l70.83,0l0,-141.67l-70.83,0l0,141.67Z" style="fill:#ddb682;stroke:#000;stroke-width:0.77px;"/><path d="M599.43,280.24l70.83,70.83l-70.83,70.83" style="fill:none;fill-rule:nonzero;stroke:#000;stroke-width:0.3px;"/><path d="M599.43,563.57l70.83,0l0,-141.67l-70.83,0l0,141.67Z" style="fill:#ddb682;stroke:#000;stroke-width:0.77px;"/><path d="M599.43,421.91l70.83,70.83l-70.83,70.83" style="fill:none;fill-rule:nonzero;stroke:#000;stroke-width:0.3px;"/><path d="M103.18,824.82l12.08,23.75l-2.5,1.25c-0.83,0.42 -1.25,1.25 -1.67,2.08c0,0.83 0,1.67 0.42,2.08c8.75,14.17 27.08,19.17 42.08,11.67c14.58,-7.08 21.67,-25 15.83,-40.42c-0.42,-0.83 -1.25,-1.25 -1.67,-1.67c-0.83,-0.42 -1.67,-0.42 -2.5,0l-2.5,1.25l-12.08,-23.75l-47.5,23.75Z" style="fill:#cfd4a2;"/><path d="M162.77,824.82l-12.08,-23.75" style="fill:none;fill-rule:nonzero;stroke:#000;stroke-width:0.77px;"/><path d="M169.43,825.24c-0.42,-0.83 -1.25,-1.25 -1.67,-1.67c-0.83,-0.42 -1.67,-0.42 -2.5,0" style="fill:none;fill-rule:nonzero;stroke:#000;stroke-width:0.77px;"/><path d="M115.27,848.57l-2.5,1.25" style="fill:none;fill-rule:nonzero;stroke:#000;stroke-width:0.77px;"/><path d="M165.27,823.57l-2.5,1.25" style="fill:none;fill-rule:nonzero;stroke:#000;stroke-width:0.77px;"/><path d="M115.27,848.57c6.25,13.33 22.5,18.33 35.42,12.08c13.33,-6.67 18.75,-22.5 12.08,-35.83" style="fill:none;fill-rule:nonzero;stroke:#000;stroke-width:0.77px;"/><path d="M111.52,853.99c8.75,14.17 27.08,19.17 42.08,11.67c14.58,-7.08 21.67,-25 15.83,-40.42" style="fill:none;fill-rule:nonzero;stroke:#000;stroke-width:0.77px;"/><path d="M103.18,824.82l12.08,23.75" style="fill:none;fill-rule:nonzero;stroke:#000;stroke-width:0.77px;"/><path d="M150.68,801.07l-47.5,23.75" style="fill:none;fill-rule:nonzero;stroke:#000;stroke-width:0.77px;"/><path d="M112.77,849.82c-0.83,0.42 -1.25,1.25 -1.67,2.08c0,0.83 0,1.67 0.42,2.08" style="fill:none;fill-rule:nonzero;stroke:#000;stroke-width:0.77px;"/><path d="M50.27,906.07l70.83,0l0,-141.67l-70.83,0l0,141.67Z" style="fill:#ddb682;stroke:#000;stroke-width:0.77px;"/><rect x="688.18" y="699.41" width="141.67" height="70.83" style="fill:#ddb682;stroke:#000;stroke-width:0.77px;"/><path d="M829.85,699.41l-70.83,70.83l-70.83,-70.83" style="fill:none;fill-rule:nonzero;stroke:#000;stroke-width:0.3px;"/><rect x="971.52" y="699.41" width="112.08" height="70.83" style="fill:#ddb682;stroke:#000;stroke-width:0.77px;"/><path d="M1083.6,699.41l-55.83,70.83l-56.25,-70.83" style="fill:none;fill-rule:nonzero;stroke:#000;stroke-width:0.3px;"/><path d="M599.43,280.66l70.83,0l0,-118.75l-70.83,0l0,118.75Z" style="fill:#ddb682;stroke:#000;stroke-width:0.77px;"/><path d="M599.43,161.91l70.83,59.17l-70.83,59.58" style="fill:none;fill-rule:nonzero;stroke:#000;stroke-width:0.3px;"/><path d="M50.27,457.32l47.08,0l0,-47.5l-47.08,0l0,47.5Z" style="fill:#ddb682;stroke:#000;stroke-width:0.77px;"/><path d="M156.52,208.99l47.08,0l0,-47.08l-47.08,0l0,47.08Z" style="fill:#ddb682;stroke:#000;stroke-width:0.77px;"/><path d="M406.1,214.82l23.75,12.08l1.25,-2.5c0.42,-0.83 1.25,-1.25 2.08,-1.67c0.83,0 1.67,0 2.08,0.42c14.17,9.17 19.17,27.08 11.67,42.08c-7.5,14.58 -25,21.67 -40.42,15.83c-0.83,-0.42 -1.25,-0.83 -1.67,-1.67c-0.42,-0.83 -0.42,-1.67 0,-2.5l1.25,-2.5l-23.75,-12.08l23.75,-47.5Z" style="fill:#cfd4a2;"/><path d="M406.1,274.41l-23.75,-12.08" style="fill:none;fill-rule:nonzero;stroke:#000;stroke-width:0.77px;"/><path d="M406.52,281.07c-0.83,-0.42 -1.25,-0.83 -1.67,-1.67c-0.42,-0.83 -0.42,-1.67 0,-2.5" style="fill:none;fill-rule:nonzero;stroke:#000;stroke-width:0.77px;"/><path d="M429.85,226.91l1.25,-2.5" style="fill:none;fill-rule:nonzero;stroke:#000;stroke-width:0.77px;"/><path d="M404.85,276.91l1.25,-2.5" style="fill:none;fill-rule:nonzero;stroke:#000;stroke-width:0.77px;"/><path d="M429.85,226.91c13.33,6.67 18.33,22.5 12.08,35.42c-6.67,13.33 -22.5,18.75 -35.83,12.08" style="fill:none;fill-rule:nonzero;stroke:#000;stroke-width:0.77px;"/><path d="M435.27,223.16c14.17,9.17 19.17,27.08 11.67,42.08c-7.5,14.58 -25,21.67 -40.42,15.83" style="fill:none;fill-rule:nonzero;stroke:#000;stroke-width:0.77px;"/><path d="M406.1,214.82l23.75,12.08" style="fill:none;fill-rule:nonzero;stroke:#000;stroke-width:0.77px;"/><path d="M382.35,262.32l23.75,-47.5" style="fill:none;fill-rule:nonzero;stroke:#000;stroke-width:0.77px;"/><path d="M431.1,224.41c0.42,-0.83 1.25,-1.25 2.08,-1.67c0.83,0 1.67,0 2.08,0.42" style="fill:none;fill-rule:nonzero;stroke:#000;stroke-width:0.77px;"/><rect x="345.68" y="161.91" width="141.67" height="70.83" style="fill:#ddb682;stroke:#000;stroke-width:0.77px;"/><path d="M726.93,991.07l40.42,0l1.25,-42.08c-0.42,-11.67 -10,-20.42 -21.67,-20.42c-11.25,0 -20.83,8.75 -21.25,20.42l1.25,42.08Z" style="fill:#e0e0e0;stroke:#000;stroke-width:0.3px;"/><path d="M746.93,932.74c3.75,-0.42 7.5,0.83 10.42,2.92c5,3.75 7.5,9.58 7.5,15.83c0,5.83 -3.33,11.67 -8.33,15.42c-2.5,1.67 -5.83,2.5 -9.58,2.5c-3.33,0 -6.67,-0.83 -9.17,-2.5c-5,-3.75 -8.33,-9.58 -8.33,-15.42c0,-6.25 2.5,-12.08 7.5,-15.83c2.92,-2.08 6.67,-3.33 10,-2.92Z" style="fill:#b4b4b4;stroke:#000;stroke-width:0.3px;"/><path d="M746.93,991.07l0,-2.5" style="fill:none;fill-rule:nonzero;stroke:#000;stroke-width:0.3px;"/><path d="M756.93,966.49c0,-1.25 0,-2.92 -0.42,-4.17c-0.42,-1.25 -0.83,-2.92 -1.67,-3.75c-0.42,-1.25 -1.25,-2.5 -2.08,-2.92c-0.83,-0.83 -2.08,-1.25 -2.92,-1.67l-2.92,0" style="fill:none;fill-rule:nonzero;stroke:#000;stroke-width:0.3px;"/><path d="M756.52,961.91c-0.83,0.42 -1.67,0.83 -2.08,1.25c-0.83,0.42 -1.67,0.83 -2.5,0.83c-0.83,0.42 -2.08,0.42 -2.5,0.42l-2.5,-0" style="fill:none;fill-rule:nonzero;stroke:#000;stroke-width:0.3px;"/><path d="M754.85,977.11c0,0.8 0.56,1.46 1.25,1.46c0.69,0 1.25,-0.65 1.25,-1.46c0,-0.8 -0.56,-1.46 -1.25,-1.46c-0.69,0 -1.25,0.65 -1.25,1.46Z" style="fill:none;stroke:#000;stroke-width:0.3px;"/><path d="M737.35,966.49c0,-1.25 0,-2.92 0.42,-4.17c0.42,-1.25 0.83,-2.92 1.67,-3.75c0.42,-1.25 1.25,-2.5 2.08,-2.92c0.83,-0.83 2.08,-1.25 2.92,-1.67l2.5,0" style="fill:none;fill-rule:nonzero;stroke:#000;stroke-width:0.3px;"/><path d="M737.77,961.91c0.83,0.42 1.67,0.83 2.08,1.25c0.83,0.42 1.67,0.83 2.5,0.83c0.83,0.42 1.67,0.42 2.5,0.42l2.08,0" style="fill:none;fill-rule:nonzero;stroke:#000;stroke-width:0.3px;"/><path d="M739.43,977.11c0,-0.8 -0.56,-1.46 -1.25,-1.46c-0.69,0 -1.25,0.65 -1.25,1.46c0,0.8 0.56,1.46 1.25,1.46c0.69,0 1.25,-0.65 1.25,-1.46Z" style="fill:none;stroke:#000;stroke-width:0.3px;"/><rect x="829.85" y="699.41" width="141.67" height="70.83" style="fill:#ddb682;stroke:#000;stroke-width:0.77px;"/><path d="M971.52,699.41l-70.83,70.83l-70.83,-70.83" style="fill:none;fill-rule:nonzero;stroke:#000;stroke-width:0.3px;"/><path d="M50.27,1012.32l88.75,0l0,-74.58l40.83,-31.67l-129.58,0l0,106.25Zm73.33,-18.33l-61.67,0l0,-65.83l61.67,0l0,65.83Z" style="fill:#e5fffe;fill-opacity:0.5;"/><path d="M179.85,937.74l-40.83,0l0,74.58l159.17,0l0,-106.25l-118.33,0l0,31.67Z" style="fill:#bedcff;"/><rect x="61.93" y="928.16" width="61.67" height="65.83" style="fill:#bedcff;"/><path d="M179.85,937.74l0,-31.67l-40.83,31.67l40.83,0Z" style="fill:#e5fffe;fill-opacity:0.5;"/><path d="M298.18,906.07l-247.92,0l0,106.25l247.92,0l0,-106.25Z" style="fill:none;stroke:#000;stroke-width:0.77px;"/><path d="M139.02,1012.32l0,-74.58l40.83,-31.67l0,31.67l-40.83,0" style="fill:none;fill-rule:nonzero;stroke:#000;stroke-width:0.77px;"/><path d="M123.6,928.16l-61.67,0l0,65.83l61.67,0l0,-65.83Z" style="fill:none;stroke:#000;stroke-width:0.77px;"/><path d="M50.27,563.57l88.75,0l0,-74.58l40.83,-31.67l-129.58,0l0,106.25Zm73.33,-18.33l-61.67,0l0,-65.83l61.67,0l0,65.83Z" style="fill:#e5fffe;fill-opacity:0.5;"/><path d="M179.85,488.99l-40.83,0l0,74.58l159.17,0l0,-106.25l-118.33,0l0,31.67Z" style="fill:#bedcff;"/><rect x="61.93" y="479.41" width="61.67" height="65.83" style="fill:#bedcff;"/><path d="M179.85,488.99l0,-31.67l-40.83,31.67l40.83,0Z" style="fill:#e5fffe;fill-opacity:0.5;"/><path d="M298.18,457.32l-247.92,0l0,106.25l247.92,0l0,-106.25Z" style="fill:none;stroke:#000;stroke-width:0.77px;"/><path d="M139.02,563.57l0,-74.58l40.83,-31.67l0,31.67l-40.83,0" style="fill:none;fill-rule:nonzero;stroke:#000;stroke-width:0.77px;"/><path d="M123.6,479.41l-61.67,0l0,65.83l61.67,0l0,-65.83Z" style="fill:none;stroke:#000;stroke-width:0.77px;"/><path d="M439.85,528.16l-70.83,0l0,35.42l70.83,0l0,-35.42Z" style="fill:#ddb682;stroke:#000;stroke-width:0.77px;"/><path d="M369.02,563.57l70.83,-35.42" style="fill:none;fill-rule:nonzero;stroke:#000;stroke-width:0.3px;"/><path d="M369.02,528.16l-70.83,0l0,35.42l70.83,0l0,-35.42Z" style="fill:#ddb682;stroke:#000;stroke-width:0.77px;"/><path d="M298.18,563.57l70.83,-35.42" style="fill:none;fill-rule:nonzero;stroke:#000;stroke-width:0.3px;"/><path d="M50.27,161.91l0,88.75l74.58,0l31.67,40.83l0,-129.58l-106.25,0Zm18.33,73.33l0,-61.67l65.83,0l0,61.67l-65.83,0Z" style="fill:#e5fffe;fill-opacity:0.5;"/><path d="M124.85,291.49l0,-40.83l-74.58,0l0,159.17l106.25,0l0,-118.33l-31.67,0Z" style="fill:#bedcff;"/><path d="M68.6,235.24l65.83,0l0,-61.67l-65.83,0l0,61.67Z" style="fill:#bedcff;"/><path d="M124.85,291.49l31.67,0l-31.67,-40.83l0,40.83Z" style="fill:#e5fffe;fill-opacity:0.5;"/><rect x="50.27" y="161.91" width="106.25" height="247.92" style="fill:none;stroke:#000;stroke-width:0.77px;"/><path d="M50.27,250.66l74.58,0l31.67,40.83l-31.67,0l0,-40.83" style="fill:none;fill-rule:nonzero;stroke:#000;stroke-width:0.77px;"/><rect x="68.6" y="173.57" width="65.83" height="61.67" style="fill:none;stroke:#000;stroke-width:0.77px;"/><path d="M446.1,976.91l-77.08,0l0,35.42l77.08,0l0,-35.42Z" style="fill:#ddb682;stroke:#000;stroke-width:0.77px;"/><path d="M369.02,1012.32l77.08,-35.42" style="fill:none;fill-rule:nonzero;stroke:#000;stroke-width:0.3px;"/><path d="M369.02,976.91l-70.83,0l0,35.42l70.83,0l0,-35.42Z" style="fill:#ddb682;stroke:#000;stroke-width:0.77px;"/><path d="M298.18,1012.32l70.83,-35.42" style="fill:none;fill-rule:nonzero;stroke:#000;stroke-width:0.3px;"/><path d="M988.6,787.74c-3.33,0 -5.42,2.08 -5.42,5.42l0,202.08c0,3.33 2.08,5.42 5.42,5.42l89.58,0c3.75,0 5.42,-2.08 5.42,-5.42l0,-202.08c0,-3.33 -1.67,-5.42 -5.42,-5.42l-89.58,0Z" style="fill:#f7f7f7;stroke:#000;stroke-width:1.48px;"/><path d="M1031.52,978.57c-12.08,-0.42 -20,-5.42 -23.33,-15c0,-0.83 -0.42,-1.67 -0.42,-2.08c-6.67,-45.83 -9.17,-84.17 -7.5,-114.58l0,-0.83c2.08,-17.5 12.92,-26.25 33.33,-27.08c20,0.83 31.25,9.58 32.92,27.08l0,0.83c2.08,30.42 -0.42,68.75 -7.08,114.58c0,0.42 -0.42,1.25 -0.83,2.08c-3.33,9.58 -10.83,14.58 -23.33,15" style="fill:none;fill-rule:nonzero;stroke:#000;stroke-width:0.3px;"/><path d="M1035.68,980.66c0,-2.08 -0.42,-2.92 -2.08,-2.92c-1.67,0 -2.5,0.83 -2.5,2.92c0,3.75 -0.42,7.5 -0.42,11.25c-0.42,0.83 0,2.08 0.42,2.92c0.83,0.42 1.67,0.83 2.5,0.83c0.83,0 1.67,-0.42 2.08,-0.83c0.83,-0.83 0.83,-2.08 0.83,-2.92c0,-3.75 -0.42,-7.5 -0.83,-11.25Z" style="fill:none;fill-rule:nonzero;stroke:#000;stroke-width:0.3px;"/><path d="M1031.52,983.99c-0.42,2.92 -0.42,5.83 -0.83,8.33c0,0.83 0.42,1.67 0.83,2.08c0.42,0.83 1.25,1.25 2.08,1.25c0.83,0 1.25,-0.42 2.08,-1.25c0.42,-0.42 0.42,-1.25 0.42,-2.08c0,-2.5 -0.42,-5.42 -0.42,-8.33c0,-1.25 -0.83,-2.08 -2.08,-2.08c-1.67,0 -2.08,0.83 -2.08,2.08Z" style="fill:none;fill-rule:nonzero;stroke:#000;stroke-width:0.3px;"/><path d="M1033.6,966.07c2.08,0 3.75,-1.67 3.75,-3.75c0,-2.08 -1.67,-3.33 -3.75,-3.33c-2.5,0 -4.17,1.25 -4.17,3.33c0,2.08 1.67,3.75 4.17,3.75" style="fill:none;fill-rule:nonzero;stroke:#000;stroke-width:0.3px;"/><path d="M1030.68,988.99c-17.08,-0.83 -28.33,-7.08 -33.75,-18.75c-0.42,-0.83 -0.83,-2.08 -0.83,-2.92c-6.67,-52.5 -9.17,-97.5 -7.92,-135.42l0,-0.83c3.33,-24.17 18.33,-36.25 45.42,-37.08c27.08,0.83 42.08,12.92 45,37.08c0.42,0.42 0.42,0.42 0.42,0.83c1.25,37.92 -1.25,82.92 -7.92,135.42c0,0.83 -0.42,2.08 -0.83,2.92c-5.42,11.67 -16.67,17.92 -33.75,18.75" style="fill:none;fill-rule:nonzero;stroke:#000;stroke-width:0.3px;"/><path d="M854.02,984.41l-27.92,0c-3.33,0 -5,-1.67 -5,-5l0,-24.58c0,-3.33 1.67,-5 5,-5l57.92,0c3.33,0 5,1.67 5,5l0,24.58c0,3.33 -1.67,5 -5,5l-20.83,0" style="fill:none;fill-rule:nonzero;stroke:#000;stroke-width:0.3px;"/><path d="M807.35,942.74l174.17,0c1.25,0 1.67,0.42 1.67,1.67l0,55.42c0,0.42 0,0.83 -0.42,0.83l-176.25,0c-0.42,0 -0.42,-0.42 -0.42,-0.83l0,-55.42c0,-1.25 0.42,-1.67 1.25,-1.67Z" style="fill:#f7f7f7;stroke:#000;stroke-width:1.48px;"/><path d="M939.85,988.99l-0.42,0" style="fill:none;fill-rule:nonzero;stroke:#000;stroke-width:0.3px;"/><path d="M932.77,984.41l-27.5,0c-3.33,0 -5,-1.67 -5,-5l0,-24.58c0,-3.33 1.67,-5 5,-5l57.92,0c3.33,0 5,1.67 5,5l0,24.58c0,3.33 -1.67,5 -5,5l-20.83,0" style="fill:none;fill-rule:nonzero;stroke:#000;stroke-width:0.3px;"/><path d="M863.18,988.57l0.42,0c0.42,0 0.42,0.42 0.42,0.42l0,4.17c0,0 0,0.42 -0.42,0.42l-2.5,0c-0.42,0 -0.42,-0.42 -0.42,-0.42l0,-4.17c0,0 0,-0.42 0.42,-0.42l1.25,0" style="fill:none;fill-rule:nonzero;stroke:#000;stroke-width:0.3px;"/><path d="M942.35,988.57l0.42,0c0.42,0 0.42,0.42 0.42,0.42l0,4.17c0,0 0,0.42 -0.42,0.42l-2.5,0c-0.42,0 -0.42,-0.42 -0.42,-0.42l0,-4.17c0,0 0,-0.42 0.42,-0.42l1.25,0" style="fill:none;fill-rule:nonzero;stroke:#000;stroke-width:0.3px;"/><path d="M856.1,991.07c0.42,-8.33 0.42,-16.67 0.42,-25c0,-0.83 -0.42,-1.25 -1.25,-1.25c-0.83,0 -1.25,0.42 -1.25,1.25c0,8.33 0,16.67 -0.42,25c0,0.42 0.42,0.42 0.42,0.83c0.42,0.42 0.83,0.42 0.83,0.42c0.42,0 0.83,0 1.25,-0.42l0,-0.83Z" style="fill:none;fill-rule:nonzero;stroke:#000;stroke-width:0.3px;"/><path d="M935.27,991.07c0.42,-8.33 0.42,-16.67 0.42,-25c0,-0.83 -0.42,-1.25 -1.25,-1.25c-0.83,0 -1.25,0.42 -1.25,1.25c0,8.33 -0.42,16.67 -0.42,25c0,0.42 0.42,0.42 0.42,0.83c0.42,0.42 0.83,0.42 0.83,0.42c0.42,0 0.83,0 1.25,-0.42l0,-0.83Z" style="fill:none;fill-rule:nonzero;stroke:#000;stroke-width:0.3px;"/><path d="M939.85,992.74l-0.42,0" style="fill:none;fill-rule:nonzero;stroke:#000;stroke-width:0.3px;"/><path d="M856.52,972.74c0.83,0.42 1.67,1.25 1.67,2.5c0,1.25 -0.83,2.08 -1.67,2.5" style="fill:none;fill-rule:nonzero;stroke:#000;stroke-width:0.3px;"/><path d="M935.68,972.74c0.83,0.42 1.67,1.25 1.67,2.5c0,1.25 -0.83,2.08 -1.67,2.5" style="fill:none;fill-rule:nonzero;stroke:#000;stroke-width:0.3px;"/><path d="M856.1,988.16c1.67,0.42 2.5,2.08 2.08,3.33c-0.42,1.67 -1.67,2.5 -2.92,2.5c-1.67,0 -2.92,-0.83 -3.33,-2.5c-0.42,-1.25 0.42,-2.92 1.67,-3.33" style="fill:none;fill-rule:nonzero;stroke:#000;stroke-width:0.3px;"/><path d="M935.27,988.16c1.67,0.42 2.5,2.08 2.08,3.33c-0.42,1.67 -1.67,2.5 -2.92,2.5c-1.67,0 -2.92,-0.83 -3.33,-2.5c-0.42,-1.25 0.42,-2.92 1.67,-3.33" style="fill:none;fill-rule:nonzero;stroke:#000;stroke-width:0.3px;"/><path d="M854.02,977.74c-1.25,-0.42 -1.67,-1.25 -1.67,-2.5c0,-1.25 0.42,-2.08 1.67,-2.5" style="fill:none;fill-rule:nonzero;stroke:#000;stroke-width:0.3px;"/><path d="M933.18,977.74c-1.25,-0.42 -1.67,-1.25 -1.67,-2.5c0,-1.25 0.42,-2.08 1.67,-2.5" style="fill:none;fill-rule:nonzero;stroke:#000;stroke-width:0.3px;"/><path d="M856.93,993.57l3.75,0l0,-5l-3.33,0" style="fill:none;fill-rule:nonzero;stroke:#000;stroke-width:0.3px;"/><path d="M936.1,993.57l3.33,0l0,-5l-2.92,0" style="fill:none;fill-rule:nonzero;stroke:#000;stroke-width:0.3px;"/><path d="M862.35,989.82l0,-7.08c0,-0.42 0,-0.42 0.42,-0.42c0.42,0 0.42,0 0.42,0.42l0,7.08" style="fill:none;fill-rule:nonzero;stroke:#000;stroke-width:0.3px;"/><path d="M941.52,989.82l0,-7.08c0,-0.42 0,-0.42 0.42,-0.42c0.42,0 0.42,0 0.42,0.42l0,7.08" style="fill:none;fill-rule:nonzero;stroke:#000;stroke-width:0.3px;"/><path d="M862.35,984.41l-5.83,0" style="fill:none;fill-rule:nonzero;stroke:#000;stroke-width:0.3px;"/><path d="M941.52,984.41l-6.25,0" style="fill:none;fill-rule:nonzero;stroke:#000;stroke-width:0.3px;"/><path d="M854.02,984.41l-27.92,0c-3.33,0 -5,-1.67 -5,-5l0,-24.58c0,-3.33 1.67,-5 5,-5l57.92,0c3.33,0 5,1.67 5,5l0,24.58c0,3.33 -1.67,5 -5,5l-20.83,0" style="fill:none;fill-rule:nonzero;stroke:#000;stroke-width:0.3px;"/><path d="M670.27,161.91l17.92,17.92m-17.92,2.92l17.92,17.92m-17.92,2.92l17.92,17.92m-17.92,2.92l17.92,17.92m-17.92,2.92l17.92,17.92m-17.92,3.33l17.92,17.5m-17.92,3.33l17.92,17.5m-17.92,3.33l17.92,17.5m-17.92,3.33l17.92,17.5m-17.92,3.33l17.92,17.92m-17.92,2.92l17.92,17.92m-17.92,2.92l17.92,17.92m-17.92,2.92l17.92,17.92m-17.92,2.92l17.92,17.92m-17.92,3.33l17.92,17.5m-17.92,3.33l17.92,17.5m-17.92,3.33l17.92,17.5m-17.92,3.33l17.92,17.5m-17.92,3.33l17.92,17.92m-17.92,2.92l5,5m-3.33,17.5l5.83,6.25m2.08,106.25l8.33,7.92m-17.92,3.33l17.92,17.5m-17.92,3.33l17.92,17.92m-17.92,2.92l17.92,17.92m-17.92,2.92l2.92,2.92" style="fill:none;fill-rule:nonzero;stroke:#000;stroke-opacity:0.31;stroke-width:1.48px;"/><path d="M688.18,581.07l0,6.25l-17.92,0l0,-6.25m0,-17.5l0,-401.67m17.92,0l0,401.67m-9.17,130l9.17,0l0,76.67m-17.92,0l0,-76.67l8.75,0" style="fill:none;fill-rule:nonzero;stroke:#2b2b2b;stroke-width:2.95px;stroke-linecap:round;"/><path d="M676.52,581.07l11.67,-11.25m-32.5,11.25l17.92,-17.5m-38.75,17.5l17.92,-17.5m-38.75,17.5l17.5,-17.5m-38.33,17.5l17.5,-17.5m-29.17,8.33l8.33,-8.33m-122.08,17.5l7.5,-7.5m-28.33,7.5l17.92,-17.5m-38.75,17.5l17.5,-17.5m-38.33,17.5l17.5,-17.5m-38.33,17.5l17.5,-17.5m-38.33,17.5l17.5,-17.5m-38.75,17.5l17.92,-17.5m-38.75,17.5l17.92,-17.5m-38.75,17.5l17.92,-17.5m-38.75,17.5l17.92,-17.5m-38.75,17.5l17.92,-17.5m-38.75,17.5l17.5,-17.5m-38.33,17.5l17.5,-17.5m-38.33,17.5l17.5,-17.5m-38.33,17.5l17.5,-17.5m-38.75,17.5l17.92,-17.5m-38.75,17.5l17.92,-17.5m-38.75,17.5l17.92,-17.5m-38.75,17.5l17.92,-17.5m-38.75,17.5l17.92,-17.5m-38.75,17.5l17.5,-17.5" style="fill:none;fill-rule:nonzero;stroke:#000;stroke-opacity:0.31;stroke-width:1.48px;"/><path d="M670.27,581.07l-88.75,0l0,-17.5l88.75,0m17.92,0l0,17.5m-637.92,-17.5l425,0l0,17.5l-11.67,0m-17.5,0l-395.83,0" style="fill:none;fill-rule:nonzero;stroke:#2b2b2b;stroke-width:2.95px;stroke-linecap:round;"/><path d="M446.1,581.07l17.5,17.92m-17.5,2.92l17.5,17.92m-17.5,3.33l17.5,17.5m-17.5,3.33l17.5,17.5m-17.5,3.33l17.5,17.5m-17.5,3.33l17.5,17.5m-17.5,3.33l17.5,17.92m-17.5,2.92l17.5,17.92m-17.5,2.92l17.5,17.92m-17.5,2.92l17.5,17.92m-17.5,2.92l9.58,10m1.67,106.25l6.25,6.25m-17.5,2.92l17.5,17.92m-17.5,2.92l17.5,17.92m-17.5,2.92l17.5,17.92m-17.5,2.92l17.5,17.92m-17.5,3.33l13.33,13.33" style="fill:none;fill-rule:nonzero;stroke:#000;stroke-opacity:0.31;stroke-width:1.48px;"/><path d="M446.1,799.82l0,-218.75m17.5,0l0,218.75l-17.5,0m8.75,106.25l8.75,0l0,106.25m-17.5,0l0,-106.25l8.75,0" style="fill:none;fill-rule:nonzero;stroke:#2b2b2b;stroke-width:2.95px;stroke-linecap:round;"/><path d="M670.27,1012.32l17.92,-17.92m-17.92,-2.92l17.92,-17.92m-17.92,-2.92l17.92,-17.92m-17.92,-2.92l17.92,-17.92m-17.92,-2.92l17.92,-17.92m-17.92,-3.33l2.08,-1.67m10.83,-94.58l5,-5m-17.92,-2.92l15.83,-15.83" style="fill:none;fill-rule:nonzero;stroke:#000;stroke-opacity:0.31;stroke-width:1.48px;"/><path d="M670.27,1012.32l0,-106.25l17.92,0l0,85m0,-203.33l0,23.75l-17.92,0l0,-23.75" style="fill:none;fill-rule:nonzero;stroke:#2b2b2b;stroke-width:2.95px;stroke-linecap:round;"/><path d="M1066.93,787.74l16.67,-16.67m-37.5,16.67l17.92,-17.5m-38.75,17.5l17.92,-17.5m-38.75,17.5l17.5,-17.5m-38.33,17.5l17.5,-17.5m-38.33,17.5l17.5,-17.5m-38.33,17.5l17.5,-17.5m-38.75,17.5l17.92,-17.5m-38.75,17.5l17.92,-17.5m-38.75,17.5l17.92,-17.5m-38.75,17.5l17.92,-17.5m-38.75,17.5l17.92,-17.5m-38.75,17.5l17.5,-17.5m-38.33,17.5l17.5,-17.5m-38.33,17.5l17.5,-17.5m-38.33,17.5l17.5,-17.5m-38.75,17.5l17.92,-17.5m-38.75,17.5l17.92,-17.5m-38.75,17.5l17.92,-17.5m-38.75,17.5l17.92,-17.5" style="fill:none;fill-rule:nonzero;stroke:#000;stroke-opacity:0.31;stroke-width:1.48px;"/><path d="M688.18,770.24l395.42,0m0,17.5l-395.42,0m-17.92,0l0,-17.5" style="fill:none;fill-rule:nonzero;stroke:#2b2b2b;stroke-width:2.95px;stroke-linecap:round;"/><rect x="50.27" y="1012.32" width="413.33" height="35.42" style="fill:#fff;fill-opacity:0.1;"/><path d="M446.93,1047.74l16.67,-16.67m-37.5,16.67l35.42,-35.42m-56.25,35.42l35.42,-35.42m-56.25,35.42l35.42,-35.42m-56.25,35.42l35.42,-35.42m-56.67,35.42l35.83,-35.42m-56.67,35.42l35.42,-35.42m-56.25,35.42l35.42,-35.42m-56.25,35.42l35.42,-35.42m-56.25,35.42l35.42,-35.42m-56.25,35.42l35.42,-35.42m-56.25,35.42l35.42,-35.42m-56.25,35.42l35.42,-35.42m-56.25,35.42l35.42,-35.42m-56.67,35.42l35.83,-35.42m-56.67,35.42l35.42,-35.42m-56.25,35.42l35.42,-35.42m-56.25,35.42l35.42,-35.42m-56.25,35.42l35.42,-35.42m-56.25,35.42l35.42,-35.42m-35.42,14.58l14.58,-14.58m398.75,10.42l-10.42,-10.42m10.42,31.25l-31.25,-31.25m14.58,35.42l-35.42,-35.42m14.58,35.42l-35.42,-35.42m14.58,35.42l-35.42,-35.42m14.58,35.42l-35.42,-35.42m14.58,35.42l-35.42,-35.42m14.17,35.42l-35.42,-35.42m14.58,35.42l-35.42,-35.42m14.58,35.42l-35.42,-35.42m14.58,35.42l-35.42,-35.42m14.58,35.42l-35.42,-35.42m14.58,35.42l-35.42,-35.42m14.58,35.42l-35.42,-35.42m14.58,35.42l-35.42,-35.42m14.58,35.42l-35.42,-35.42m14.17,35.42l-35.42,-35.42m14.58,35.42l-35.42,-35.42m14.58,35.42l-35.42,-35.42m14.58,35.42l-35.42,-35.42m14.58,35.42l-20.83,-20.83" style="fill:none;fill-rule:nonzero;stroke:#000;stroke-opacity:0.31;stroke-width:1.48px;"/><path d="M50.27,1012.32l395.83,0m17.5,0l0,35.42l-413.33,0" style="fill:none;fill-rule:nonzero;stroke:#2b2b2b;stroke-width:2.95px;stroke-linecap:round;"/><rect x="14.85" y="161.91" width="35.42" height="885.83" style="fill:#fff;fill-opacity:0.1;"/><path d="M35.68,1047.74l14.58,-14.58m-35.42,14.58l35.42,-35.42m-35.42,14.58l35.42,-35.42m-35.42,14.58l35.42,-35.42m-35.42,14.58l35.42,-35.42m-35.42,14.58l35.42,-35.42m-35.42,14.17l35.42,-35.42m-35.42,14.58l35.42,-35.42m-35.42,14.58l35.42,-35.42m-35.42,14.58l35.42,-35.42m-35.42,14.58l35.42,-35.42m-35.42,14.58l35.42,-35.42m-35.42,14.58l35.42,-35.42m-35.42,14.58l35.42,-35.42m-35.42,14.58l35.42,-35.42m-35.42,14.17l35.42,-35.42m-35.42,14.58l35.42,-35.42m-35.42,14.58l35.42,-35.42m-35.42,14.58l35.42,-35.42m-35.42,14.58l35.42,-35.42m-35.42,14.58l35.42,-35.42m-35.42,14.58l35.42,-35.42m-35.42,14.58l35.42,-35.42m-35.42,14.58l35.42,-35.42m-35.42,14.17l35.42,-35.42m-35.42,14.58l35.42,-35.42m-35.42,14.58l35.42,-35.42m-35.42,14.58l35.42,-35.42m-35.42,14.58l35.42,-35.42m-35.42,14.58l35.42,-35.42m-35.42,14.58l35.42,-35.42m-35.42,14.58l35.42,-35.42m-35.42,14.58l35.42,-35.42m-35.42,14.58l35.42,-35.83m-35.42,14.58l35.42,-35.42m-35.42,14.58l35.42,-35.42m-35.42,14.58l35.42,-35.42m-35.42,14.58l35.42,-35.42m-35.42,14.58l35.42,-35.42m-35.42,14.58l35.42,-35.42m-35.42,14.58l35.42,-35.42m-35.42,14.58l35.42,-35.42m-35.42,14.58l29.58,-30m-29.58,8.75l8.75,-8.75m26.67,2.5l-2.5,-2.5m2.5,23.33l-23.33,-23.33m23.33,44.17l-35.42,-35.42m35.42,56.67l-35.42,-35.42m35.42,56.25l-35.42,-35.42m35.42,56.25l-35.42,-35.42m35.42,56.25l-35.42,-35.42m35.42,56.25l-35.42,-35.42m35.42,56.25l-35.42,-35.42m35.42,56.25l-35.42,-35.42m35.42,56.25l-35.42,-35.42m35.42,56.25l-35.42,-35.42m35.42,56.67l-35.42,-35.42m35.42,56.25l-35.42,-35.42m35.42,56.25l-35.42,-35.42m35.42,56.25l-35.42,-35.42m35.42,56.25l-35.42,-35.42m35.42,56.25l-35.42,-35.42m35.42,56.25l-35.42,-35.42m35.42,56.25l-35.42,-35.42m35.42,56.25l-35.42,-35.42m35.42,56.67l-35.42,-35.83m35.42,56.67l-35.42,-35.42m35.42,56.25l-35.42,-35.42m35.42,56.25l-35.42,-35.42m35.42,56.25l-35.42,-35.42m35.42,56.25l-35.42,-35.42m35.42,56.25l-35.42,-35.42m35.42,56.25l-35.42,-35.42m35.42,56.25l-35.42,-35.42m35.42,56.67l-35.42,-35.83m35.42,56.67l-35.42,-35.42m35.42,56.25l-35.42,-35.42m35.42,56.25l-35.42,-35.42m35.42,56.25l-35.42,-35.42m35.42,56.25l-35.42,-35.42m35.42,56.25l-35.42,-35.42m35.42,56.25l-35.42,-35.42m35.42,56.25l-35.42,-35.42m35.42,56.67l-35.42,-35.83m35.42,56.67l-35.42,-35.42m35.42,56.25l-35.42,-35.42m35.42,56.25l-35.42,-35.42m20.83,41.67l-20.83,-20.83" style="fill:none;fill-rule:nonzero;stroke:#000;stroke-opacity:0.31;stroke-width:1.48px;"/><path d="M14.85,1047.74l-0,-885.83m35.42,0l0,401.67m0,17.5l0,431.25m0,35.42l-35.42,0" style="fill:none;fill-rule:nonzero;stroke:#2b2b2b;stroke-width:2.95px;stroke-linecap:round;"/><rect x="670.27" y="1012.32" width="413.33" height="35.42" style="fill:#fff;fill-opacity:0.1;"/><path d="M1066.93,1047.74l16.67,-16.67m-37.5,16.67l35.42,-35.42m-56.25,35.42l35.42,-35.42m-56.25,35.42l35.42,-35.42m-56.25,35.42l35.42,-35.42m-56.25,35.42l35.42,-35.42m-56.25,35.42l35.42,-35.42m-56.67,35.42l35.83,-35.42m-56.67,35.42l35.42,-35.42m-56.25,35.42l35.42,-35.42m-56.25,35.42l35.42,-35.42m-56.25,35.42l35.42,-35.42m-56.25,35.42l35.42,-35.42m-56.25,35.42l35.42,-35.42m-56.25,35.42l35.42,-35.42m-56.25,35.42l35.42,-35.42m-56.25,35.42l35.42,-35.42m-56.67,35.42l35.42,-35.42m-56.25,35.42l35.42,-35.42m-56.25,35.42l35.42,-35.42m-35.42,14.58l14.58,-14.58m398.75,10.42l-10.42,-10.42m10.42,31.25l-31.25,-31.25m14.58,35.42l-35.42,-35.42m14.58,35.42l-35.42,-35.42m14.58,35.42l-35.42,-35.42m14.58,35.42l-35.42,-35.42m14.58,35.42l-35.42,-35.42m14.58,35.42l-35.42,-35.42m14.58,35.42l-35.42,-35.42m14.17,35.42l-35.42,-35.42m14.58,35.42l-35.42,-35.42m14.58,35.42l-35.42,-35.42m14.58,35.42l-35.42,-35.42m14.58,35.42l-35.42,-35.42m14.58,35.42l-35.42,-35.42m14.58,35.42l-35.42,-35.42m14.58,35.42l-35.42,-35.42m14.58,35.42l-35.42,-35.42m14.17,35.42l-35.42,-35.42m14.58,35.42l-35.42,-35.42m14.58,35.42l-20.83,-20.83" style="fill:none;fill-rule:nonzero;stroke:#000;stroke-opacity:0.31;stroke-width:1.48px;"/><path d="M1083.6,1047.74l-413.33,0l0,-35.42" style="fill:none;fill-rule:nonzero;stroke:#2b2b2b;stroke-width:2.95px;stroke-linecap:round;"/><rect x="1083.6" y="161.91" width="35.42" height="885.83" style="fill:#fff;fill-opacity:0.1;"/><path d="M1104.43,1047.74l14.58,-14.58m-35.42,14.58l35.42,-35.42m-35.42,14.58l35.42,-35.42m-35.42,14.58l35.42,-35.42m-35.42,14.58l35.42,-35.42m-35.42,14.58l35.42,-35.42m-35.42,14.17l35.42,-35.42m-35.42,14.58l35.42,-35.42m-35.42,14.58l35.42,-35.42m-35.42,14.58l35.42,-35.42m-35.42,14.58l35.42,-35.42m-35.42,14.58l35.42,-35.42m-35.42,14.58l35.42,-35.42m-35.42,14.58l35.42,-35.42m-35.42,14.58l35.42,-35.42m-35.42,14.17l35.42,-35.42m-35.42,14.58l35.42,-35.42m-35.42,14.58l35.42,-35.42m-35.42,14.58l35.42,-35.42m-35.42,14.58l35.42,-35.42m-35.42,14.58l35.42,-35.42m-35.42,14.58l35.42,-35.42m-35.42,14.58l35.42,-35.42m-35.42,14.58l35.42,-35.42m-35.42,14.17l35.42,-35.42m-35.42,14.58l35.42,-35.42m-35.42,14.58l35.42,-35.42m-35.42,14.58l35.42,-35.42m-35.42,14.58l35.42,-35.42m-35.42,14.58l35.42,-35.42m-35.42,14.58l35.42,-35.42m-35.42,14.58l35.42,-35.42m-35.42,14.58l35.42,-35.42m-35.42,14.17l35.42,-35.42m-35.42,14.58l35.42,-35.42m-35.42,14.58l35.42,-35.42m-35.42,14.58l35.42,-35.42m-35.42,14.58l35.42,-35.42m-35.42,14.58l35.42,-35.42m-35.42,14.58l35.42,-35.42m-35.42,14.58l35.42,-35.42m-35.42,14.58l35.42,-35.42m-35.42,14.17l30,-29.58m-30,8.75l9.17,-8.75m26.25,2.5l-2.5,-2.5m2.5,23.33l-23.33,-23.33m23.33,44.17l-35.42,-35.42m35.42,56.67l-35.42,-35.42m35.42,56.25l-35.42,-35.42m35.42,56.25l-35.42,-35.42m35.42,56.25l-35.42,-35.42m35.42,56.25l-35.42,-35.42m35.42,56.25l-35.42,-35.42m35.42,56.25l-35.42,-35.42m35.42,56.25l-35.42,-35.42m35.42,56.25l-35.42,-35.42m35.42,56.67l-35.42,-35.42m35.42,56.25l-35.42,-35.42m35.42,56.25l-35.42,-35.42m35.42,56.25l-35.42,-35.42m35.42,56.25l-35.42,-35.42m35.42,56.25l-35.42,-35.42m35.42,56.25l-35.42,-35.42m35.42,56.25l-35.42,-35.42m35.42,56.25l-35.42,-35.42m35.42,56.67l-35.42,-35.42m35.42,56.25l-35.42,-35.42m35.42,56.25l-35.42,-35.42m35.42,56.25l-35.42,-35.42m35.42,56.25l-35.42,-35.42m35.42,56.25l-35.42,-35.42m35.42,56.25l-35.42,-35.42m35.42,56.25l-35.42,-35.42m35.42,56.25l-35.42,-35.42m35.42,56.67l-35.42,-35.83m35.42,56.67l-35.42,-35.42m35.42,56.25l-35.42,-35.42m35.42,56.25l-35.42,-35.42m35.42,56.25l-35.42,-35.42m35.42,56.25l-35.42,-35.42m35.42,56.25l-35.42,-35.42m35.42,56.25l-35.42,-35.42m35.42,56.25l-35.42,-35.42m35.42,56.67l-35.42,-35.83m35.42,56.67l-35.42,-35.42m35.42,56.25l-35.42,-35.42m35.42,56.25l-35.42,-35.42m20.83,41.67l-20.83,-20.83" style="fill:none;fill-rule:nonzero;stroke:#000;stroke-opacity:0.31;stroke-width:1.48px;"/><path d="M1119.02,161.91l0,885.83l-35.42,0m0,-47.08l0,-212.92m0,-17.5l0,-608.33" style="fill:none;fill-rule:nonzero;stroke:#2b2b2b;stroke-width:2.95px;stroke-linecap:round;"/><rect x="14.84" y="126.48" width="1104.17" height="35.42" style="fill:#fff;fill-opacity:0.1;"/><path d="M1100.68,161.91l18.33,-18.75m-39.17,18.75l35.42,-35.42m-56.67,35.42l35.42,-35.42m-56.25,35.42l35.42,-35.42m-56.25,35.42l35.42,-35.42m-56.25,35.42l35.42,-35.42m-56.25,35.42l35.42,-35.42m-56.25,35.42l35.42,-35.42m-56.25,35.42l35.42,-35.42m-56.25,35.42l35.42,-35.42m-56.25,35.42l35.42,-35.42m-56.67,35.42l35.42,-35.42m-56.25,35.42l35.42,-35.42m-56.25,35.42l35.42,-35.42m-56.25,35.42l35.42,-35.42m-56.25,35.42l35.42,-35.42m-56.25,35.42l35.42,-35.42m-56.25,35.42l35.42,-35.42m-56.25,35.42l35.42,-35.42m-56.25,35.42l35.42,-35.42m-56.67,35.42l35.42,-35.42m-56.25,35.42l35.42,-35.42m-56.25,35.42l35.42,-35.42m-56.25,35.42l35.42,-35.42m-56.25,35.42l35.42,-35.42m-56.25,35.42l35.42,-35.42m-56.25,35.42l35.42,-35.42m-56.25,35.42l35.42,-35.42m-56.25,35.42l35.42,-35.42m-56.67,35.42l35.42,-35.42m-56.25,35.42l35.42,-35.42m-56.25,35.42l35.42,-35.42m-56.25,35.42l35.42,-35.42m-56.25,35.42l35.42,-35.42m-56.25,35.42l35.42,-35.42m-56.25,35.42l35.42,-35.42m-56.25,35.42l35.42,-35.42m-56.25,35.42l35.42,-35.42m-56.67,35.42l35.42,-35.42m-56.25,35.42l35.42,-35.42m-56.25,35.42l35.42,-35.42m-56.25,35.42l35.42,-35.42m-56.25,35.42l35.42,-35.42m-56.25,35.42l35.42,-35.42m-56.25,35.42l35.42,-35.42m-56.25,35.42l35.42,-35.42m-56.25,35.42l35.42,-35.42m-56.67,35.42l35.42,-35.42m-56.25,35.42l35.42,-35.42m-56.25,35.42l35.42,-35.42m-56.25,35.42l35.42,-35.42m-56.25,35.42l35.42,-35.42m-56.25,35.42l35.42,-35.42m-35.42,14.58l14.58,-14.58m1089.58,12.5l-12.08,-12.5m12.08,33.33l-32.92,-33.33m14.58,35.42l-35.42,-35.42m14.58,35.42l-35.83,-35.42m14.58,35.42l-35.42,-35.42m14.58,35.42l-35.42,-35.42m14.58,35.42l-35.42,-35.42m14.58,35.42l-35.42,-35.42m14.58,35.42l-35.42,-35.42m14.58,35.42l-35.42,-35.42m14.58,35.42l-35.42,-35.42m14.58,35.42l-35.42,-35.42m14.58,35.42l-35.83,-35.42m14.58,35.42l-35.42,-35.42m14.58,35.42l-35.42,-35.42m14.58,35.42l-35.42,-35.42m14.58,35.42l-35.42,-35.42m14.58,35.42l-35.42,-35.42m14.58,35.42l-35.42,-35.42m14.58,35.42l-35.42,-35.42m14.58,35.42l-35.42,-35.42m14.58,35.42l-35.83,-35.42m14.58,35.42l-35.42,-35.42m14.58,35.42l-35.42,-35.42m14.58,35.42l-35.42,-35.42m14.58,35.42l-35.42,-35.42m14.58,35.42l-35.42,-35.42m14.58,35.42l-35.42,-35.42m14.58,35.42l-35.42,-35.42m14.58,35.42l-35.42,-35.42m14.58,35.42l-35.42,-35.42m14.17,35.42l-35.42,-35.42m14.58,35.42l-35.42,-35.42m14.58,35.42l-35.42,-35.42m14.58,35.42l-35.42,-35.42m14.58,35.42l-35.42,-35.42m14.58,35.42l-35.42,-35.42m14.58,35.42l-35.42,-35.42m14.58,35.42l-35.42,-35.42m14.58,35.42l-35.42,-35.42m14.17,35.42l-35.42,-35.42m14.58,35.42l-35.42,-35.42m14.58,35.42l-35.42,-35.42m14.58,35.42l-35.42,-35.42m14.58,35.42l-35.42,-35.42m14.58,35.42l-35.42,-35.42m14.58,35.42l-35.42,-35.42m14.58,35.42l-35.42,-35.42m14.58,35.42l-35.42,-35.42m14.17,35.42l-35.42,-35.42m14.58,35.42l-35.42,-35.42m14.58,35.42l-35.42,-35.42m14.58,35.42l-35.42,-35.42m14.58,35.42l-20.83,-20.83" style="fill:none;fill-rule:nonzero;stroke:#000;stroke-opacity:0.31;stroke-width:1.48px;"/><path d="M670.25,161.9l-620,0m-35.42,0l0,-35.42l1104.17,0l0,35.42m-35.42,0l-395.42,0" style="fill:none;fill-rule:nonzero;stroke:#2b2b2b;stroke-width:2.95px;stroke-linecap:round;"/><path d="M463.6,805.66l-17.5,0" style="fill:none;fill-rule:nonzero;stroke:#000;stroke-width:0.3px;"/><path d="M463.6,900.24l-112.08,0" style="fill:none;fill-rule:nonzero;stroke:#000;stroke-width:0.3px;"/><path d="M351.52,900.24c-0,-52.08 42.08,-94.58 94.58,-94.58" style="fill:none;fill-rule:nonzero;stroke:#000;stroke-width:0.3px;"/><rect x="446.1" y="799.82" width="17.5" height="106.25" style="fill:none;fill-rule:nonzero;stroke:#000;stroke-width:0.3px;"/><path d="M670.27,593.16l17.92,0" style="fill:none;fill-rule:nonzero;stroke:#000;stroke-width:0.3px;"/><path d="M670.27,687.32l112.5,0" style="fill:none;fill-rule:nonzero;stroke:#000;stroke-width:0.3px;"/><path d="M782.77,687.32c0,-52.08 -42.5,-94.17 -94.58,-94.17" style="fill:none;fill-rule:nonzero;stroke:#000;stroke-width:0.3px;"/><rect x="670.27" y="586.91" width="17.92" height="106.67" style="fill:none;fill-rule:nonzero;stroke:#000;stroke-width:0.3px;"/><path d="M481.52,581.07l0,-17.5" style="fill:none;fill-rule:nonzero;stroke:#000;stroke-width:0.3px;"/><path d="M575.68,581.07l0,-112.08" style="fill:none;fill-rule:nonzero;stroke:#000;stroke-width:0.3px;"/><path d="M575.68,468.99c-52.08,0 -94.17,42.5 -94.17,94.58" style="fill:none;fill-rule:nonzero;stroke:#000;stroke-width:0.3px;"/><rect x="475.27" y="563.57" width="106.25" height="17.5" style="fill:none;fill-rule:nonzero;stroke:#000;stroke-width:0.3px;"/><rect x="670.27" y="811.49" width="17.92" height="94.58" style="fill:none;fill-rule:nonzero;stroke:#000;stroke-width:0.3px;"/><path d="M670.27,817.32l100.42,0" style="fill:none;fill-rule:nonzero;stroke:#000;stroke-width:0.3px;"/><path d="M688.18,900.24c45.42,-0 82.5,-37.08 82.5,-82.92" style="fill:none;fill-rule:nonzero;stroke:#000;stroke-width:0.3px;"/><path d="M688.18,900.24l-17.92,0" style="fill:none;fill-rule:nonzero;stroke:#000;stroke-width:0.3px;"/></g><g id="topR"><path d="M670.25,906.07l-70.83,0l0,106.25l70.83,0l0,-106.25Z" style="fill:#ddb682;stroke:#000;stroke-width:0.77px;"/><path d="M599.42,906.07l70.83,52.92l-70.83,53.33" style="fill:none;fill-rule:nonzero;stroke:#000;stroke-width:0.3px;"/><path d="M670.25,699.4l-70.83,0l0,112.08l70.83,0l0,-112.08Z" style="fill:#ddb682;stroke:#000;stroke-width:0.77px;"/><path d="M599.42,699.4l70.83,55.83l-70.83,56.25" style="fill:none;fill-rule:nonzero;stroke:#000;stroke-width:0.3px;"/></g><g id="topL"><path d="M534.42,906.07l-70.83,0l0,106.25l70.83,0l0,-106.25Z" style="fill:#ddb682;stroke:#000;stroke-width:0.77px;"/><path d="M534.42,906.07l-70.83,52.92l70.83,53.33" style="fill:none;fill-rule:nonzero;stroke:#000;stroke-width:0.3px;"/><path d="M534.42,728.98l-70.83,0l0,70.83l70.83,0l0,-70.83Z" style="fill:#ddb682;stroke:#000;stroke-width:0.77px;"/><path d="M534.42,728.98l-70.83,35.42l70.83,35.42" style="fill:none;fill-rule:nonzero;stroke:#000;stroke-width:0.3px;"/></g><g id="anchorTop"><path d="M1244,126.48l-250,0" style="fill:none;fill-rule:nonzero;stroke:#f00;stroke-width:0.3px;"/><path d="M1119,1.48l0,250" style="fill:none;fill-rule:nonzero;stroke:#f00;stroke-width:0.3px;"/></g></svg>