<?xml version="1.0" encoding="UTF-8" standalone="no"?><!DOCTYPE svg PUBLIC "-//W3C//DTD SVG 1.1//EN" "http://www.w3.org/Graphics/SVG/1.1/DTD/svg11.dtd"><svg width="100%" height="100%" viewBox="0 0 1246 1063" version="1.1" xmlns="http://www.w3.org/2000/svg" xmlns:xlink="http://www.w3.org/1999/xlink" xml:space="preserve" xmlns:serif="http://www.serif.com/" style="fill-rule:evenodd;clip-rule:evenodd;stroke-miterlimit:10;"><g id="top"><path d="M14.837,1048.15l0,-921.25l1104.167,0l0,921.25l-448.75,0l0,-35.417l-206.667,0l0,35.417l-448.75,0Z" style="fill:#fff;"/><path d="M516.921,563.567l-70.833,0l0,23.75l8.75,0l0,94.583l-8.75,0l0,5.833l-395.833,0l0,-525.417l466.667,0l0,401.25Z" style="fill:#e0e0e0;fill-opacity:0.25;stroke:#a8a8a8;stroke-width:0.3px;"/><path d="M688.171,528.15l0,-70.833l-17.917,0l0,106.25l-11.667,0l0,9.167l-106.25,0l0,-9.167l-17.917,0l0,-401.25l549.167,0l0,365.833l-395.417,0Z" style="fill:#e0e0e0;fill-opacity:0.25;stroke:#a8a8a8;stroke-width:0.3px;"/><path d="M688.171,1012.317l0,-247.917l-9.167,0l0,-106.25l9.167,0l0,-112.083l395.417,0l0,466.25l-395.417,0Z" style="fill:#e0e0e0;fill-opacity:0.25;stroke:#a8a8a8;stroke-width:0.3px;"/><path d="M446.087,823.567l8.75,0l0,94.583l-8.75,0l0,72.917l-384.167,0l0,-273.75l384.167,0l0,106.25Z" style="fill:#e0e0e0;fill-opacity:0.25;stroke:#a8a8a8;stroke-width:0.3px;"/><path d="M463.587,1012.317l2.083,0m2.083,0l3.75,0m1.667,0l3.75,0m2.083,0l3.75,0m1.667,0l3.75,0m2.083,0l3.75,0m1.667,0l3.75,0m2.083,0l3.75,0.417m1.667,0l3.75,0m2.083,0l3.75,0m1.667,0l3.75,0m2.083,0l3.75,0m1.667,0l3.75,0m2.083,0l3.75,0m1.667,0l3.75,0m2.083,0l3.75,0m1.667,0l3.75,0m2.083,0l3.75,0m1.667,0l3.75,0m2.083,0l3.75,0m1.667,0l3.75,0m2.083,0l3.75,0m1.667,0l3.75,0m2.083,0l3.75,0m1.667,0l3.75,0m2.083,0l3.75,0m1.667,0l3.75,0m2.083,0l3.75,0m1.667,0l3.75,0m2.083,0l3.75,0m1.667,0l3.75,0m2.083,0l3.75,0m1.667,0l3.75,0m2.083,0l3.75,0m1.667,0l3.75,0m2.083,0l3.75,0m1.667,0l5.833,0" style="fill:none;fill-rule:nonzero;stroke:#a8a8a8;stroke-width:0.3px;stroke-linecap:round;"/><path d="M463.587,681.9l-8.75,0l0,-94.583l8.75,0l0,-5.833l88.75,0l0,-8.75l106.25,0l0,8.75l11.667,0l0,76.667l8.75,0l0,106.25l-8.75,0l0,247.917l-206.667,0l0,-94.167l-8.75,0l0,-94.583l8.75,0l0,-141.667Z" style="fill:#e0e0e0;fill-opacity:0.25;stroke:#a8a8a8;stroke-width:0.3px;"/><g transform="matrix(1,0,0,1,-336.263678,321.544085)"><text x="564.264px" y="155.001px" style="font-family:'ArialMT', 'Arial', sans-serif;font-size:21.144px;fill:#2b2b2b;fill-opacity:0.99;">Ložnice</text><g transform="matrix(21.144211,0,0,21.144211,642.432586,178.6232)"></g><text x="558.991px" y="178.623px" style="font-family:'ArialMT', 'Arial', sans-serif;font-size:21.144px;fill:#2b2b2b;fill-opacity:0.99;">17.01 m²</text></g><g transform="matrix(1,0,0,1,126.852138,219.756936)"><text x="720.505px" y="122.858px" style="font-family:'ArialMT', 'Arial', sans-serif;font-size:21.144px;fill:#2b2b2b;fill-opacity:0.99;">Pokoj</text><g transform="matrix(21.144211,0,0,21.144211,788.676052,146.47989)"></g><text x="705.235px" y="146.48px" style="font-family:'ArialMT', 'Arial', sans-serif;font-size:21.144px;fill:#2b2b2b;fill-opacity:0.99;">14.74 m²</text></g><g transform="matrix(1,0,0,1,156.011122,548.681358)"><text x="729.713px" y="226.729px" style="font-family:'ArialMT', 'Arial', sans-serif;font-size:21.144px;fill:#2b2b2b;fill-opacity:0.99;">Pokoj</text><g transform="matrix(21.144211,0,0,21.144211,797.884152,250.35076)"></g><text x="714.443px" y="250.351px" style="font-family:'ArialMT', 'Arial', sans-serif;font-size:21.144px;fill:#2b2b2b;fill-opacity:0.99;">13.30 m²</text></g><g transform="matrix(1,0,0,1,-369.55697,635.720168)"><text x="548.469px" y="254.215px" style="font-family:'ArialMT', 'Arial', sans-serif;font-size:21.144px;fill:#2b2b2b;fill-opacity:0.99;">Koupelna</text><g transform="matrix(21.144211,0,0,21.144211,628.989142,277.8367)"></g><text x="557.307px" y="277.837px" style="font-family:'ArialMT', 'Arial', sans-serif;font-size:21.144px;fill:#2b2b2b;fill-opacity:0.99;">7.60 m²</text></g><g transform="matrix(1,0,0,1,-116.674809,429.263553)"><text x="657.132px" y="189.018px" style="font-family:'ArialMT', 'Arial', sans-serif;font-size:21.144px;fill:#2b2b2b;fill-opacity:0.99;">Chodba</text><text x="647.742px" y="212.64px" style="font-family:'ArialMT', 'Arial', sans-serif;font-size:21.144px;fill:#2b2b2b;fill-opacity:0.99;">horní část</text><g transform="matrix(21.144211,0,0,21.144211,731.45794,236.261921)"></g><text x="659.776px" y="236.262px" style="font-family:'ArialMT', 'Arial', sans-serif;font-size:21.144px;fill:#2b2b2b;fill-opacity:0.99;">6.64 m²</text></g><path d="M61.921,717.317l-11.667,0l0,273.75l11.667,0l0,-273.75Z" style="fill:#ddd;"/><path d="M61.921,717.317l0,273.75" style="fill:none;fill-rule:nonzero;stroke:#2b2b2b;stroke-width:2.95px;stroke-linecap:round;"/><rect x="50.254" y="991.067" width="395.833" height="21.25" style="fill:#ddd;"/><path d="M61.921,991.067l384.167,0" style="fill:none;fill-rule:nonzero;stroke:#2b2b2b;stroke-width:2.95px;stroke-linecap:round;"/><rect x="50.254" y="705.234" width="395.833" height="12.083" style="fill:#ddd;"/><path d="M446.087,717.317l-384.167,0" style="fill:none;fill-rule:nonzero;stroke:#2b2b2b;stroke-width:2.95px;stroke-linecap:round;"/><path d="M1083.587,162.317l-88.333,0l0,74.583l-41.25,31.667l129.583,0l0,-106.25Zm-73.333,18.333l61.667,0l0,65.833l-61.667,0l0,-65.833Z" style="fill:#e5fffe;fill-opacity:0.5;"/><path d="M954.004,236.9l41.25,0l0,-74.583l-159.583,0l0,106.25l118.333,0l0,-31.667Z" style="fill:#bedcff;"/><rect x="1010.254" y="180.65" width="61.667" height="65.833" style="fill:#bedcff;"/><path d="M954.004,236.9l0,31.667l41.25,-31.667l-41.25,0Z" style="fill:#e5fffe;fill-opacity:0.5;"/><path d="M835.671,268.567l247.917,0l0,-106.25l-247.917,0l0,106.25Z" style="fill:none;stroke:#000;stroke-width:0.77px;"/><path d="M995.254,162.317l0,74.583l-41.25,31.667l0,-31.667l41.25,0" style="fill:none;fill-rule:nonzero;stroke:#000;stroke-width:0.77px;"/><path d="M1010.254,246.484l61.667,0l0,-65.833l-61.667,0l0,65.833Z" style="fill:none;stroke:#000;stroke-width:0.77px;"/><path d="M750.254,242.317l11.667,23.75l-2.5,1.25c-0.417,0.417 -1.25,1.25 -1.25,2.083c-0.417,0.833 -0.417,1.667 0.417,2.083c8.75,14.167 26.667,19.167 41.667,11.667c15,-7.5 21.667,-25 15.833,-40.417c0,-0.833 -0.833,-1.25 -1.667,-1.667c-0.833,-0.417 -1.667,-0.417 -2.5,0l-2.5,1.25l-11.667,-23.75l-47.5,23.75Z" style="fill:#cfd4a2;"/><path d="M809.421,242.317l-11.667,-23.75" style="fill:none;fill-rule:nonzero;stroke:#000;stroke-width:0.77px;"/><path d="M816.087,242.734c0,-0.833 -0.833,-1.25 -1.667,-1.667c-0.833,-0.417 -1.667,-0.417 -2.5,0" style="fill:none;fill-rule:nonzero;stroke:#000;stroke-width:0.77px;"/><path d="M761.921,266.067l-2.5,1.25" style="fill:none;fill-rule:nonzero;stroke:#000;stroke-width:0.77px;"/><path d="M811.921,241.067l-2.5,1.25" style="fill:none;fill-rule:nonzero;stroke:#000;stroke-width:0.77px;"/><path d="M761.921,266.067c6.667,13.333 22.5,18.333 35.833,12.083c12.917,-6.667 18.333,-22.5 11.667,-35.833" style="fill:none;fill-rule:nonzero;stroke:#000;stroke-width:0.77px;"/><path d="M758.587,271.484c8.75,14.167 26.667,19.167 41.667,11.667c15,-7.5 21.667,-25 15.833,-40.417" style="fill:none;fill-rule:nonzero;stroke:#000;stroke-width:0.77px;"/><path d="M750.254,242.317l11.667,23.75" style="fill:none;fill-rule:nonzero;stroke:#000;stroke-width:0.77px;"/><path d="M797.754,218.567l-47.5,23.75" style="fill:none;fill-rule:nonzero;stroke:#000;stroke-width:0.77px;"/><path d="M759.421,267.317c-0.417,0.417 -1.25,1.25 -1.25,2.083c-0.417,0.833 -0.417,1.667 0.417,2.083" style="fill:none;fill-rule:nonzero;stroke:#000;stroke-width:0.77px;"/><rect x="694.004" y="162.317" width="141.667" height="70.833" style="fill:#ddb682;stroke:#000;stroke-width:0.77px;"/><path d="M1083.587,1012.317l-88.333,0l0,-74.583l-41.25,-31.667l129.583,0l0,106.25Zm-73.333,-18.333l61.667,0l0,-65.833l-61.667,0l0,65.833Z" style="fill:#e5fffe;fill-opacity:0.5;"/><path d="M954.004,937.734l41.25,0l0,74.583l-159.583,0l0,-106.25l118.333,0l0,31.667Z" style="fill:#bedcff;"/><rect x="1010.254" y="928.15" width="61.667" height="65.833" style="fill:#bedcff;"/><path d="M954.004,937.734l0,-31.667l41.25,31.667l-41.25,0Z" style="fill:#e5fffe;fill-opacity:0.5;"/><path d="M1083.587,906.067l-247.917,0l0,106.25l247.917,0l0,-106.25Z" style="fill:none;stroke:#000;stroke-width:0.77px;"/><path d="M995.254,1012.317l0,-74.583l-41.25,-31.667l0,31.667l41.25,0" style="fill:none;fill-rule:nonzero;stroke:#000;stroke-width:0.77px;"/><path d="M1071.921,928.15l-61.667,0l0,65.833l61.667,0l0,-65.833Z" style="fill:none;stroke:#000;stroke-width:0.77px;"/><path d="M1002.754,849.817l-24.167,-11.667l-1.25,2.5c-0.417,0.833 -0.833,1.25 -1.667,1.667c-0.833,0 -1.667,0 -2.5,-0.417c-14.167,-9.167 -19.167,-27.083 -11.667,-42.083c7.5,-15 25,-21.667 40.417,-15.833c0.833,0.417 1.667,0.833 2.083,1.667c0,0.833 0,1.667 -0.417,2.5l-1.25,2.5l24.167,11.667l-23.75,47.5Z" style="fill:#cfd4a2;"/><path d="M1002.337,790.65l24.167,11.667" style="fill:none;fill-rule:nonzero;stroke:#000;stroke-width:0.77px;"/><path d="M1001.921,783.984c0.833,0.417 1.667,0.833 2.083,1.667c0,0.833 0,1.667 -0.417,2.5" style="fill:none;fill-rule:nonzero;stroke:#000;stroke-width:0.77px;"/><path d="M978.587,838.15l-1.25,2.5" style="fill:none;fill-rule:nonzero;stroke:#000;stroke-width:0.77px;"/><path d="M1003.587,788.15l-1.25,2.5" style="fill:none;fill-rule:nonzero;stroke:#000;stroke-width:0.77px;"/><path d="M978.587,838.15c-12.917,-6.667 -18.333,-22.5 -11.667,-35.833c6.667,-12.917 22.5,-18.333 35.417,-11.667" style="fill:none;fill-rule:nonzero;stroke:#000;stroke-width:0.77px;"/><path d="M973.171,841.9c-14.167,-9.167 -19.167,-27.083 -11.667,-42.083c7.5,-15 25,-21.667 40.417,-15.833" style="fill:none;fill-rule:nonzero;stroke:#000;stroke-width:0.77px;"/><path d="M1002.754,850.234l-24.167,-12.083" style="fill:none;fill-rule:nonzero;stroke:#000;stroke-width:0.77px;"/><path d="M1026.504,802.317l-23.75,47.917" style="fill:none;fill-rule:nonzero;stroke:#000;stroke-width:0.77px;"/><path d="M977.337,840.65c-0.417,0.833 -0.833,1.25 -1.667,1.667c-0.833,0 -1.667,0 -2.5,-0.417" style="fill:none;fill-rule:nonzero;stroke:#000;stroke-width:0.77px;"/><path d="M1083.587,758.567l-70.833,0l0,147.5l70.833,0l0,-147.5Z" style="fill:#ddb682;stroke:#000;stroke-width:0.77px;"/><path d="M759.004,1012.317l70.833,0l0,-35.417l-70.833,0l0,35.417Z" style="fill:#ddb682;stroke:#000;stroke-width:0.77px;"/><path d="M759.004,976.9l70.833,35.417" style="fill:none;fill-rule:nonzero;stroke:#000;stroke-width:0.3px;"/><path d="M688.171,1012.317l70.833,0l0,-35.417l-70.833,0l0,35.417Z" style="fill:#ddb682;stroke:#000;stroke-width:0.77px;"/><path d="M688.171,976.9l70.833,35.417" style="fill:none;fill-rule:nonzero;stroke:#000;stroke-width:0.3px;"/><rect x="688.171" y="457.317" width="141.667" height="70.833" style="fill:#ddb682;stroke:#000;stroke-width:0.77px;"/><path d="M829.837,457.317l-70.833,70.833l-70.833,-70.833" style="fill:none;fill-rule:nonzero;stroke:#000;stroke-width:0.3px;"/><path d="M516.921,421.9l-70.833,0l0,141.667l70.833,0l0,-141.667Z" style="fill:#ddb682;stroke:#000;stroke-width:0.77px;"/><path d="M446.087,421.9l70.833,70.833l-70.833,70.833" style="fill:none;fill-rule:nonzero;stroke:#000;stroke-width:0.3px;"/><path d="M516.921,280.234l-70.833,0l0,141.667l70.833,0l0,-141.667Z" style="fill:#ddb682;stroke:#000;stroke-width:0.77px;"/><path d="M446.087,280.234l70.833,70.833l-70.833,70.833" style="fill:none;fill-rule:nonzero;stroke:#000;stroke-width:0.3px;"/><path d="M516.921,162.317l-70.833,0l0,117.917l70.833,0l0,-117.917Z" style="fill:#ddb682;stroke:#000;stroke-width:0.77px;"/><path d="M446.087,162.317l70.833,58.75l-70.833,59.167" style="fill:none;fill-rule:nonzero;stroke:#000;stroke-width:0.3px;"/><path d="M139.004,162.317l-47.5,0l0,47.083l47.5,0l0,-47.083Z" style="fill:#ddb682;stroke:#000;stroke-width:0.77px;"/><path d="M398.587,162.317l-47.083,0l0,47.083l47.083,0l0,-47.083Z" style="fill:#ddb682;stroke:#000;stroke-width:0.77px;"/><path d="M332.754,170.234l-70.833,0l0,59.167l70.833,0l0,-59.167Z" style="fill:#69b2ff;fill-opacity:0.5;"/><path d="M139.004,410.234l0,-100.833l64.583,0l0,-75.833l147.917,0l0,176.667l-212.5,0Z" style="fill:#69b2ff;fill-opacity:0.5;"/><path d="M203.587,233.567l-64.583,75.833l0,-147.083l212.5,0l0,71.25l-147.917,0Zm58.333,-4.167l70.833,0l0,-59.167l-70.833,0l0,59.167Zm-104.583,0l70.833,0l0,-59.167l-70.833,0l0,59.167Z" style="fill:#e5fcff;fill-opacity:0.5;"/><path d="M228.171,170.234l-70.833,0l0,59.167l70.833,0l0,-59.167Z" style="fill:#69b2ff;fill-opacity:0.5;"/><path d="M139.004,309.4l64.583,-75.833l0,75.833l-64.583,0Z" style="fill:#e5fcff;fill-opacity:0.5;"/><path d="M91.504,209.4l0,-47.083l307.083,0l0,47.083l-47.083,0l0,200.833l-212.5,0l0,-200.833l-47.5,0Z" style="fill:none;fill-rule:nonzero;stroke:#000;stroke-width:0.77px;"/><path d="M157.337,229.4l70.833,0l0,-59.167l-70.833,0l0,59.167Z" style="fill:none;stroke:#000;stroke-width:0.77px;"/><rect x="261.921" y="170.234" width="70.833" height="59.167" style="fill:none;stroke:#000;stroke-width:0.77px;"/><path d="M351.504,233.567l-147.917,0l-64.583,75.833l64.583,0l0,-75.833" style="fill:none;fill-rule:nonzero;stroke:#000;stroke-width:0.77px;"/><path d="M139.004,209.4l0,-47.083" style="fill:none;fill-rule:nonzero;stroke:#000;stroke-width:0.77px;"/><path d="M351.504,209.4l0,-47.083" style="fill:none;fill-rule:nonzero;stroke:#000;stroke-width:0.77px;"/><path d="M131.504,634.817l-23.75,-12.083l-1.25,2.5c-0.417,0.833 -1.25,1.25 -2.083,1.667c-0.833,0 -1.667,0 -2.5,-0.417c-13.75,-9.167 -18.75,-27.083 -11.667,-42.083c7.5,-15 25,-21.667 40.833,-15.833c0.833,0.417 1.25,0.833 1.667,1.667c0.417,0.833 0.417,1.667 0,2.5l-1.25,2.5l23.75,12.083l-23.75,47.5Z" style="fill:#cfd4a2;"/><path d="M131.504,575.234l23.75,12.083" style="fill:none;fill-rule:nonzero;stroke:#000;stroke-width:0.77px;"/><path d="M131.087,568.567c0.833,0.417 1.25,0.833 1.667,1.667c0.417,0.833 0.417,1.667 0,2.5" style="fill:none;fill-rule:nonzero;stroke:#000;stroke-width:0.77px;"/><path d="M107.754,622.734l-1.25,2.5" style="fill:none;fill-rule:nonzero;stroke:#000;stroke-width:0.77px;"/><path d="M132.754,572.734l-1.25,2.5" style="fill:none;fill-rule:nonzero;stroke:#000;stroke-width:0.77px;"/><path d="M107.754,622.734c-13.333,-6.667 -18.75,-22.5 -12.083,-35.417c6.667,-13.333 22.5,-18.75 35.833,-12.083" style="fill:none;fill-rule:nonzero;stroke:#000;stroke-width:0.77px;"/><path d="M101.921,626.484c-13.75,-9.167 -18.75,-27.083 -11.667,-42.083c7.5,-15 25,-21.667 40.833,-15.833" style="fill:none;fill-rule:nonzero;stroke:#000;stroke-width:0.77px;"/><path d="M131.504,634.817l-23.75,-12.083" style="fill:none;fill-rule:nonzero;stroke:#000;stroke-width:0.77px;"/><path d="M155.254,587.317l-23.75,47.5" style="fill:none;fill-rule:nonzero;stroke:#000;stroke-width:0.77px;"/><path d="M106.504,625.234c-0.417,0.833 -1.25,1.25 -2.083,1.667c-0.833,0 -1.667,0 -2.5,-0.417" style="fill:none;fill-rule:nonzero;stroke:#000;stroke-width:0.77px;"/><rect x="50.254" y="616.9" width="141.667" height="70.833" style="fill:#ddb682;stroke:#000;stroke-width:0.77px;"/><rect x="829.837" y="457.317" width="141.667" height="70.833" style="fill:#ddb682;stroke:#000;stroke-width:0.77px;"/><path d="M971.504,457.317l-70.833,70.833l-70.833,-70.833" style="fill:none;fill-rule:nonzero;stroke:#000;stroke-width:0.3px;"/><rect x="971.504" y="457.317" width="112.083" height="70.833" style="fill:#ddb682;stroke:#000;stroke-width:0.77px;"/><path d="M1083.587,457.317l-55.833,70.833l-56.25,-70.833" style="fill:none;fill-rule:nonzero;stroke:#000;stroke-width:0.3px;"/><rect x="688.171" y="546.067" width="141.667" height="70.833" style="fill:#ddb682;stroke:#000;stroke-width:0.77px;"/><path d="M829.837,616.9l-70.833,-70.833l-70.833,70.833" style="fill:none;fill-rule:nonzero;stroke:#000;stroke-width:0.3px;"/><rect x="829.837" y="546.067" width="141.667" height="70.833" style="fill:#ddb682;stroke:#000;stroke-width:0.77px;"/><path d="M971.504,616.9l-70.833,-70.833l-70.833,70.833" style="fill:none;fill-rule:nonzero;stroke:#000;stroke-width:0.3px;"/><rect x="971.504" y="546.067" width="112.083" height="70.833" style="fill:#ddb682;stroke:#000;stroke-width:0.77px;"/><path d="M1083.587,616.9l-55.833,-70.833l-56.25,70.833" style="fill:none;fill-rule:nonzero;stroke:#000;stroke-width:0.3px;"/><path d="M1036.504,315.65l47.083,0l0,-47.083l-47.083,0l0,47.083Z" style="fill:#ddb682;stroke:#000;stroke-width:0.77px;"/><rect x="61.921" y="817.734" width="57.917" height="173.333" style="fill:#ddb682;stroke:#000;stroke-width:0.77px;"/><path d="M385.671,991.067l-40.417,0l-0.833,-42.083c0.417,-11.25 9.583,-20.417 21.25,-20.417c11.25,0 20.833,9.167 21.25,20.417l-1.25,42.083Z" style="fill:#e0e0e0;stroke:#000;stroke-width:0.3px;"/><path d="M365.671,932.734c-3.75,0 -7.083,0.833 -10,2.917c-5,3.75 -7.917,9.583 -7.917,15.833c0.417,6.25 3.333,11.667 8.333,15.417c2.917,1.667 6.25,2.917 9.583,2.917c3.333,0 6.667,-1.25 9.583,-2.917c5,-3.75 7.917,-9.167 7.917,-15.417c0.417,-6.25 -2.5,-12.083 -7.5,-15.833c-2.917,-2.083 -6.667,-2.917 -10,-2.917Z" style="fill:#b4b4b4;stroke:#000;stroke-width:0.3px;"/><path d="M365.671,991.067l0,-2.5" style="fill:none;fill-rule:nonzero;stroke:#000;stroke-width:0.3px;"/><path d="M355.671,966.9c0.417,-1.667 0.417,-2.917 0.417,-4.583c0.417,-1.25 0.833,-2.5 1.667,-3.75c0.417,-1.25 1.667,-2.083 2.5,-2.917c0.833,-0.833 1.667,-1.25 2.5,-1.25c0.833,-0.417 1.667,-0.417 2.083,-0.417l0.833,0" style="fill:none;fill-rule:nonzero;stroke:#000;stroke-width:0.3px;"/><path d="M356.504,961.9c0.417,0.417 1.25,0.833 2.083,1.25c0.833,0.417 1.667,0.833 2.5,1.25c0.833,0 1.667,0 2.5,0.417l2.083,-0" style="fill:none;fill-rule:nonzero;stroke:#000;stroke-width:0.3px;"/><path d="M358.171,977.317c0,-0.69 -0.653,-1.25 -1.458,-1.25c-0.805,0 -1.458,0.56 -1.458,1.25c0,0.69 0.653,1.25 1.458,1.25c0.805,0 1.458,-0.56 1.458,-1.25Z" style="fill:none;stroke:#000;stroke-width:0.3px;"/><path d="M375.254,966.9c0,-1.667 0,-2.917 -0.417,-4.583c-0.417,-1.25 -0.833,-2.5 -1.25,-3.75c-0.833,-1.25 -1.667,-2.083 -2.5,-2.917c-0.833,-0.833 -2.083,-1.25 -2.917,-1.25c-0.417,-0.417 -1.25,-0.417 -1.667,-0.417l-0.833,0" style="fill:none;fill-rule:nonzero;stroke:#000;stroke-width:0.3px;"/><path d="M374.837,961.9c-0.833,0.417 -1.25,0.833 -2.083,1.25c-0.833,0.417 -1.667,0.833 -2.5,1.25c-0.833,0 -1.667,0 -2.5,0.417l-2.083,0" style="fill:none;fill-rule:nonzero;stroke:#000;stroke-width:0.3px;"/><path d="M373.171,977.317c0,0.69 0.56,1.25 1.25,1.25c0.69,0 1.25,-0.56 1.25,-1.25c0,-0.69 -0.56,-1.25 -1.25,-1.25c-0.69,0 -1.25,0.56 -1.25,1.25Z" style="fill:none;stroke:#000;stroke-width:0.3px;"/><rect x="233.171" y="717.317" width="212.917" height="100.417" style="fill:#f7f7f7;stroke:#000;stroke-width:1.48px;"/><path d="M300.671,737.317l77.917,0c20,0 30,10 30,30c0,20.417 -10,30.417 -30,30.417l-77.917,0c-20,0 -30,-10 -30,-30.417c0,-20 10,-30 30,-30Z" style="fill:none;fill-rule:nonzero;stroke:#000;stroke-width:0.3px;"/><path d="M337.754,730.234c-0.417,-2.917 -0.417,-5.833 -0.833,-8.75c0,-0.833 0.417,-1.667 0.833,-2.5c0.417,-0.417 1.25,-0.833 1.667,-0.833c0.833,0 1.667,0.417 2.083,0.833c0.417,0.833 0.833,1.667 0.417,2.5c0,2.917 0,5.833 -0.417,8.75c0,1.667 -0.417,2.083 -2.083,2.083c-1.25,0 -1.667,-0.417 -1.667,-2.083Z" style="fill:none;fill-rule:nonzero;stroke:#000;stroke-width:0.3px;"/><path d="M342.337,726.067l49.167,0c26.25,0 39.583,13.75 39.583,41.25c0,27.917 -13.333,41.667 -39.583,41.667l-103.75,0c-26.25,0 -39.583,-13.75 -39.583,-41.667c0,-27.5 13.333,-41.25 39.583,-41.25l49.167,0" style="fill:none;fill-rule:nonzero;stroke:#000;stroke-width:0.3px;"/><path d="M342.337,769.4c-1.25,1.25 -2.917,1.667 -4.583,0.833c-1.25,-1.25 -1.667,-2.917 -0.833,-4.583c1.25,-1.25 2.917,-1.667 4.583,-0.833c1.25,1.25 1.667,2.917 0.833,4.583" style="fill:none;fill-rule:nonzero;stroke:#000;stroke-width:0.3px;"/><path d="M341.921,733.984c0,1.667 -0.833,2.917 -2.5,2.917c-1.25,0 -2.083,-1.25 -2.083,-2.917c0,-4.167 -0.417,-7.917 -0.417,-12.083c0,-0.833 0,-2.083 0.417,-2.917c0.833,-0.833 1.25,-1.25 2.083,-1.25c0.833,0 1.667,0.417 2.083,1.25c0.833,0.833 0.833,2.083 0.833,2.917c0,4.167 -0.417,7.917 -0.417,12.083Z" style="fill:none;fill-rule:nonzero;stroke:#000;stroke-width:0.3px;"/><path d="M342.337,723.15l50.833,0c27.083,0 40.833,15 40.833,44.167c0,29.583 -13.75,44.583 -40.833,44.583l-107.083,0c-27.083,0 -40.833,-15 -40.833,-44.583c0,-29.167 13.75,-44.167 40.833,-44.167l50.833,0" style="fill:none;fill-rule:nonzero;stroke:#000;stroke-width:0.3px;"/><path d="M78.171,865.65l0,-26.25c0,-3.333 1.667,-4.583 5,-4.583l24.583,0c3.333,0 5,1.25 5,4.583l0,54.583c0,3.333 -1.667,5 -5,5l-24.583,0c-3.333,0 -5,-1.667 -5,-5l0,-19.583" style="fill:none;fill-rule:nonzero;stroke:#000;stroke-width:0.3px;"/><path d="M119.837,827.317l0,153.333c0,1.25 -0.417,1.667 -1.667,1.667l-55.417,0c-0.417,0 -0.833,0 -0.833,-0.417l0,-155.417c0,-0.417 0.417,-0.417 0.833,-0.417l55.417,0c1.25,0 1.667,0.417 1.667,1.25Z" style="fill:#f7f7f7;stroke:#000;stroke-width:1.48px;"/><path d="M73.587,946.9l0,-0.417" style="fill:none;fill-rule:nonzero;stroke:#000;stroke-width:0.3px;"/><path d="M78.171,940.234l0,-25.833c0,-3.333 1.667,-5 5,-5l24.583,0c3.333,0 5,1.667 5,5l0,54.583c0,3.333 -1.667,5 -5,5l-24.583,0c-3.333,0 -5,-1.667 -5,-5l0,-19.583" style="fill:none;fill-rule:nonzero;stroke:#000;stroke-width:0.3px;"/><path d="M74.004,874.4l0,0.417c0,0.417 -0.417,0.417 -0.417,0.417l-4.167,0c0,0 -0.417,0 -0.417,-0.417l0,-2.5c0,-0.417 0.417,-0.417 0.417,-0.417l4.167,0c0,0 0.417,0 0.417,0.417l0,1.25" style="fill:none;fill-rule:nonzero;stroke:#000;stroke-width:0.3px;"/><path d="M74.004,949.4l0,0.417l-0.417,0.417l-4.167,0l-0.417,-0.417l0,-2.917l5,0l0,1.667" style="fill:none;fill-rule:nonzero;stroke:#000;stroke-width:0.3px;"/><path d="M71.504,867.734c8.333,0 16.667,0.417 25,0.417c0.833,0 1.25,-0.417 1.25,-1.25c0,-0.833 -0.417,-1.25 -1.25,-1.25l-25.833,0c-0.417,0.417 -0.417,0.833 -0.417,0.833c0,0.417 0,0.833 0.417,0.833c0.417,0.417 0.417,0.417 0.833,0.417Z" style="fill:none;fill-rule:nonzero;stroke:#000;stroke-width:0.3px;"/><path d="M71.504,942.734l25,0c0.833,0 1.25,-0.417 1.25,-1.25c0,-0.833 -0.417,-0.833 -1.25,-0.833c-8.333,-0.417 -16.667,-0.417 -25,-0.417c-0.417,0 -0.417,0.417 -0.833,0.417c-0.417,0.417 -0.417,0.417 -0.417,0.833c0,0.417 0,0.833 0.417,0.833c0.417,0.417 0.417,0.417 0.833,0.417Z" style="fill:none;fill-rule:nonzero;stroke:#000;stroke-width:0.3px;"/><path d="M69.837,946.9l0,-0.417" style="fill:none;fill-rule:nonzero;stroke:#000;stroke-width:0.3px;"/><path d="M89.837,868.15c-0.417,0.833 -1.25,1.25 -2.5,1.25c-1.25,0 -2.083,-0.417 -2.5,-1.667" style="fill:none;fill-rule:nonzero;stroke:#000;stroke-width:0.3px;"/><path d="M89.837,942.734c-0.417,0.833 -1.25,1.667 -2.5,1.667c-1.25,0 -2.083,-0.833 -2.5,-1.667" style="fill:none;fill-rule:nonzero;stroke:#000;stroke-width:0.3px;"/><path d="M74.421,867.734c-0.417,1.25 -2.083,2.083 -3.333,1.667c-1.667,-0 -2.5,-1.25 -2.5,-2.5c0,-1.667 0.833,-2.917 2.5,-2.917c1.25,-0.417 2.917,-0 3.333,1.667" style="fill:none;fill-rule:nonzero;stroke:#000;stroke-width:0.3px;"/><path d="M74.421,942.734c-0.417,1.25 -2.083,2.083 -3.333,1.667c-1.667,-0.417 -2.5,-1.25 -2.5,-2.917c0,-1.25 0.833,-2.5 2.5,-2.917c1.25,-0.417 2.917,0.417 3.333,1.667" style="fill:none;fill-rule:nonzero;stroke:#000;stroke-width:0.3px;"/><path d="M84.837,865.65c0.417,-0.833 1.25,-1.667 2.5,-1.667c1.25,0 2.083,0.833 2.5,1.667" style="fill:none;fill-rule:nonzero;stroke:#000;stroke-width:0.3px;"/><path d="M84.837,940.234c0.417,-0.833 1.25,-1.25 2.5,-1.25c1.25,0 2.083,0.417 2.5,1.25" style="fill:none;fill-rule:nonzero;stroke:#000;stroke-width:0.3px;"/><path d="M69.004,868.567l0,3.333l5,0l0,-3.333" style="fill:none;fill-rule:nonzero;stroke:#000;stroke-width:0.3px;"/><path d="M69.004,943.15l0,3.333l5,0l0,-2.917" style="fill:none;fill-rule:nonzero;stroke:#000;stroke-width:0.3px;"/><path d="M72.754,873.567l7.083,0c0,0 0.417,0 0.417,0.417c0,0.417 -0.417,0.417 -0.417,0.417l-7.083,0" style="fill:none;fill-rule:nonzero;stroke:#000;stroke-width:0.3px;"/><path d="M72.754,948.567l7.083,0c0,0 0.417,0 0.417,0.417l-0.417,0.417l-7.083,0" style="fill:none;fill-rule:nonzero;stroke:#000;stroke-width:0.3px;"/><path d="M78.171,873.567l0,-5.833" style="fill:none;fill-rule:nonzero;stroke:#000;stroke-width:0.3px;"/><path d="M78.171,948.567l0,-5.833" style="fill:none;fill-rule:nonzero;stroke:#000;stroke-width:0.3px;"/><path d="M78.171,865.65l0,-26.25c0,-3.333 1.667,-4.583 5,-4.583l24.583,0c3.333,0 5,1.25 5,4.583l0,54.583c0,3.333 -1.667,5 -5,5l-24.583,0c-3.333,0 -5,-1.667 -5,-5l0,-19.583" style="fill:none;fill-rule:nonzero;stroke:#000;stroke-width:0.3px;"/><rect x="65.671" y="814.817" width="68.75" height="2.5" style="fill:#f7f7f7;stroke:#000;stroke-width:0.3px;"/><path d="M216.087,814.817l-0.417,0m-0.417,0l-0.833,0m-0.417,0l-0.417,0m-0.417,0l-0.833,0m-0.417,0l-0.833,0m0,0l-0.833,0m-0.417,0l-0.833,0m-0.417,0l-0.417,0m-0.417,0l-0.833,0m-0.417,0l-0.833,0m-0.417,0l-0.417,0m-0.417,0l-0.833,0m-0.417,0l-0.833,0m0,0l-0.833,0m-0.417,0l-0.833,0m-0.417,0l-0.417,0m-0.417,0l-0.833,0m-0.417,0l-0.833,0m-0.417,0l-0.417,0m-0.417,0l-0.833,0m-0.417,0l-0.833,0m-0.417,0l-0.417,0m-0.417,0l-0.833,0m-0.417,0l-0.833,0m0,0l-0.833,0m-0.417,0l-0.833,0m-0.417,0l-0.417,0m-0.417,0l-0.833,0m-0.417,0l-0.833,0m-0.417,0l-0.417,0m-0.417,0l-0.833,0m-0.417,0l-0.833,0m0,0l-0.833,0m-0.417,0l-0.833,0m-0.417,0l-0.417,0m-0.417,0l-0.833,0m-0.417,0l-0.833,0m-0.417,0l-0.417,0m-0.417,0l-0.833,0m-0.417,0l-0.833,0m-0.417,0l-0.417,0m-0.417,0l-0.833,0m-0.417,0l-0.833,0m0,0l-0.833,0m-0.417,0l-0.833,0m-0.417,0l-0.417,0m-0.417,0l-0.833,0m-0.417,0l-0.833,0m-0.417,0l-0.417,0m-0.417,0l-0.833,0m-0.417,0l-0.833,0m0,0l-0.833,0m-0.417,0l-0.833,0m-0.417,0l-0.833,0m0,0l-0.833,0m-0.417,0l-0.833,0m-0.417,0l-0.417,0m-0.417,0l-0.833,0m-0.417,0l-0.833,0m-0.417,0l-0.417,0m-0.417,0l-0.833,0m-0.417,0l-0.833,0m0,0l-0.833,0m-0.417,0l-0.833,0m-0.417,0l-0.417,0m-0.417,0l-0.833,0m-0.417,0l-0.833,0m-0.417,0l-0.417,0m-0.417,0l-0.833,0m-0.417,0l-0.833,0m-0.417,0l-0.417,0m-0.417,0l-0.833,0m-0.417,0l-0.833,0m0,0l-0.833,0m-0.417,0l-0.833,0" style="fill:none;fill-rule:nonzero;stroke:#bcbcbc;stroke-width:0.3px;"/><rect x="61.921" y="814.4" width="3.75" height="3.333" style="fill:#f7f7f7;stroke:#000;stroke-width:1.48px;"/><path d="M134.421,817.317l0.417,0m0.417,0l0.833,0m0.417,0l0.417,0m0.417,0l0.833,0m0.417,0l0.833,0m0.417,0l0.417,0m0.417,0l0.833,0m0.417,0l0.833,0m0,0l0.833,0m0.417,0l0.833,0m0.417,0l0.417,0m0.417,0l0.833,0m0.417,0l0.833,0m0.417,0l0.417,0m0.417,0l0.833,0m0.417,0l0.833,0m0,0l0.833,0m0.417,0l0.833,0m0.417,0l0.833,0m0,0l0.833,0m0.417,0l0.833,0m0.417,0l0.417,0m0.417,0l0.833,0m0.417,0l0.833,0m0.417,0l0.417,0m0.417,0l0.833,0m0.417,0l0.833,0m0,0l0.833,0m0.417,0l0.833,0m0.417,0l0.417,0m0.417,0l0.833,0m0.417,0l0.833,0m0.417,0l0.417,0m0.417,0l0.833,0m0.417,0l0.833,0m0.417,0l0.417,0m0.417,0l0.833,0m0.417,0l0.833,0m0,0l0.833,0m0.417,0l0.833,0m0.417,0l0.417,0m0.417,0l0.833,0m0.417,0l0.833,0m0.417,0l0.417,0m0.417,0l0.833,0m0.417,0l0.833,0m0,0l0.833,0m0.417,0l0.833,0m0.417,0l0.417,0m0.417,0l0.833,0m0.417,0l0.833,0m0.417,0l0.417,0m0.417,0l0.833,0m0.417,0l0.833,0m0.417,0l0.417,0m0.417,0l0.833,0m0.417,0l0.833,0m0,0l0.833,0m0.417,0l0.833,0m0.417,0l0.417,0m0.417,0l0.833,0m0.417,0l0.833,0m0.417,0l0.417,0m0.417,0l0.833,0m0.417,0l0.833,0m0,0l0.833,0m0.417,0l0.833,0m0.417,0l0.833,0m0,0l0.833,0m0.417,0l0.833,0m0.417,0l0.417,0m0.417,0l0.833,0m0.417,0l0.833,0m0.417,0l0.417,0m0.417,0l0.833,0m0.417,0l0.833,0m0,0l0.833,0m0.417,0l0.417,0" style="fill:none;fill-rule:nonzero;stroke:#bcbcbc;stroke-width:0.3px;"/><path d="M167.754,761.067l-1.667,-1.667l-1.25,1.25l1.667,1.667l1.25,-1.25Z" style="fill:#f7f7f7;"/><path d="M164.837,760.65l1.25,-1.25l1.667,1.667l-1.25,1.25" style="fill:none;fill-rule:nonzero;stroke:#000;stroke-width:0.3px;"/><path d="M160.254,756.067l58.75,58.75l-1.25,1.667l-59.167,-58.75l1.667,-1.667Z" style="fill:#f7f7f7;stroke:#000;stroke-width:0.3px;"/><path d="M163.171,761.9l-1.25,1.25l1.667,1.667l1.25,-0.833l-1.667,-2.083Z" style="fill:#f7f7f7;"/><path d="M163.171,761.9l-1.25,1.25l1.667,1.667l1.25,-0.833" style="fill:none;fill-rule:nonzero;stroke:#000;stroke-width:0.3px;"/><path d="M158.587,757.734c-15.417,15.833 -24.167,37.083 -24.167,59.583" style="fill:none;fill-rule:nonzero;stroke:#000;stroke-width:0.3px;"/><rect x="219.004" y="814.817" width="10.833" height="2.5" style="fill:#f7f7f7;stroke:#000;stroke-width:0.3px;"/><rect x="229.837" y="814.4" width="3.333" height="3.333" style="fill:#f7f7f7;stroke:#000;stroke-width:1.48px;"/><rect x="229.837" y="717.317" width="3.333" height="3.333" style="fill:#f7f7f7;stroke:#000;stroke-width:1.48px;"/><path d="M230.254,814.4l2.5,0l0,-93.75l-2.5,0l0,93.75Z" style="fill:#f7f7f7;stroke:#000;stroke-width:0.3px;"/><path d="M670.254,528.15l17.917,-17.5m-17.917,-3.333l17.917,-17.5m-17.917,-3.333l17.917,-17.5m-17.917,-3.333l8.333,-8.333" style="fill:none;fill-rule:nonzero;stroke:#000;stroke-opacity:0.31;stroke-width:1.48px;"/><path d="M670.254,528.15l0,-70.833l17.917,0l0,70.833" style="fill:none;fill-rule:nonzero;stroke:#2b2b2b;stroke-width:2.95px;stroke-linecap:round;"/><path d="M516.921,563.567l17.5,-17.5m-17.5,-3.333l17.5,-17.5m-17.5,-3.333l17.5,-17.5m-17.5,-3.333l17.5,-17.917m-17.5,-2.917l17.5,-17.917m-17.5,-2.917l17.5,-17.917m-17.5,-2.917l17.5,-17.917m-17.5,-2.917l17.5,-17.917m-17.5,-3.333l17.5,-17.5m-17.5,-3.333l17.5,-17.5m-17.5,-3.333l17.5,-17.5m-17.5,-3.333l17.5,-17.5m-17.5,-3.333l17.5,-17.917m-17.5,-2.917l17.5,-17.917m-17.5,-2.917l17.5,-17.917m-17.5,-2.917l17.5,-17.917m-17.5,-2.917l17.5,-17.917m-17.5,-3.333l17.5,-17.5m-17.5,-3.333l17.5,-17.5m-17.5,-3.333l4.583,-4.583" style="fill:none;fill-rule:nonzero;stroke:#000;stroke-opacity:0.31;stroke-width:1.48px;"/><path d="M534.421,162.317l0,401.25m-17.5,0l0,-401.25" style="fill:none;fill-rule:nonzero;stroke:#2b2b2b;stroke-width:2.95px;stroke-linecap:round;"/><path d="M658.587,574.4l10.833,-10.833m-122.083,17.917l5,-5m-26.25,5l17.917,-17.917m-38.75,17.917l17.917,-17.917m-38.75,17.917l17.917,-17.917m-38.75,17.917l17.917,-17.917" style="fill:none;fill-rule:nonzero;stroke:#000;stroke-opacity:0.31;stroke-width:1.48px;"/><path d="M463.587,563.567l53.333,0m17.5,0l17.917,0l0,17.917l-88.75,0m195,-17.917l11.667,0m0,17.917l-11.667,0l0,-17.917" style="fill:none;fill-rule:nonzero;stroke:#2b2b2b;stroke-width:2.95px;stroke-linecap:round;"/><path d="M670.254,1012.317l17.917,-17.5m-17.917,-3.333l17.917,-17.5m-17.917,-3.333l17.917,-17.5m-17.917,-3.333l17.917,-17.5m-17.917,-3.333l17.917,-17.5m-17.917,-3.333l17.917,-17.917m-17.917,-2.917l17.917,-17.917m-17.917,-2.917l17.917,-17.917m-17.917,-2.917l17.917,-17.917m-17.917,-3.333l17.917,-17.5m-17.917,-3.333l17.917,-17.5m-17.917,-3.333l17.917,-17.5m-17.917,-107.5l17.917,-17.917m-17.917,-2.917l17.917,-17.917m-17.917,-3.333l17.917,-17.5m-17.917,-3.333l17.917,-17.5m-17.917,-3.333l17.917,-17.5m-17.917,-3.333l7.083,-7.083" style="fill:none;fill-rule:nonzero;stroke:#000;stroke-opacity:0.31;stroke-width:1.48px;"/><path d="M679.004,764.4l9.167,0l0,247.917m-17.917,0l0,-247.917l8.75,0m-8.75,-200.833l0,-17.5m17.917,0l0,112.083l-17.917,0l0,-76.667" style="fill:none;fill-rule:nonzero;stroke:#2b2b2b;stroke-width:2.95px;stroke-linecap:round;"/><path d="M426.087,705.234l17.5,-17.5m-38.333,17.5l17.5,-17.5m-38.333,17.5l17.5,-17.5m-38.333,17.5l17.5,-17.5m-38.333,17.5l17.5,-17.5m-38.75,17.5l17.917,-17.5m-38.75,17.5l17.917,-17.5m-38.75,17.5l17.917,-17.5m-38.75,17.5l17.917,-17.5m-38.75,17.5l17.5,-17.5m-38.333,17.5l17.5,-17.5m-38.333,17.5l17.5,-17.5m-38.333,17.5l17.5,-17.5m-38.333,17.5l17.5,-17.5m-38.75,17.5l17.917,-17.5m-38.75,17.5l17.917,-17.5m-38.75,17.5l17.917,-17.5m-38.75,17.5l17.917,-17.5m-38.75,17.5l17.5,-17.5" style="fill:none;fill-rule:nonzero;stroke:#000;stroke-opacity:0.31;stroke-width:1.48px;"/><path d="M50.254,687.734l395.833,0" style="fill:none;fill-rule:nonzero;stroke:#2b2b2b;stroke-width:2.95px;stroke-linecap:round;"/><path d="M1066.921,546.067l16.667,-16.667m-37.5,16.667l17.917,-17.917m-38.75,17.917l17.917,-17.917m-38.75,17.917l17.5,-17.917m-38.333,17.917l17.5,-17.917m-38.333,17.917l17.5,-17.917m-38.333,17.917l17.5,-17.917m-38.75,17.917l17.917,-17.917m-38.75,17.917l17.917,-17.917m-38.75,17.917l17.917,-17.917m-38.75,17.917l17.917,-17.917m-38.75,17.917l17.917,-17.917m-38.75,17.917l17.5,-17.917m-38.333,17.917l17.5,-17.917m-38.333,17.917l17.5,-17.917m-38.333,17.917l17.5,-17.917m-38.75,17.917l17.917,-17.917m-38.75,17.917l17.917,-17.917m-38.75,17.917l17.917,-17.917m-38.75,17.917l17.917,-17.917" style="fill:none;fill-rule:nonzero;stroke:#000;stroke-opacity:0.31;stroke-width:1.48px;"/><path d="M1083.587,546.067l-395.417,0m-17.917,0l0,-17.917m17.917,0l395.417,0" style="fill:none;fill-rule:nonzero;stroke:#2b2b2b;stroke-width:2.95px;stroke-linecap:round;"/><path d="M446.087,1012.317l17.5,-17.5m-17.5,-3.333l17.5,-17.5m-17.5,-3.333l17.5,-17.5m-17.5,-3.333l17.5,-17.5m-17.5,-3.333l10.833,-10.833m-10,-94.583l16.667,-16.667m-17.5,-3.333l17.5,-17.5m-17.5,-3.333l17.5,-17.5m-17.5,-3.333l17.5,-17.5m-17.5,-3.333l17.5,-17.5m-17.5,-3.333l17.5,-17.917m-17.5,-2.917l17.5,-17.5m-10,-94.583l10,-10m-17.5,-3.333l10,-10.417" style="fill:none;fill-rule:nonzero;stroke:#000;stroke-opacity:0.31;stroke-width:1.48px;"/><path d="M463.587,581.484l0,5.833l-17.5,0l0,-23.75l17.5,0m-17.5,260l0,-106.25m0,-29.583l0,-5.833l17.5,0l0,141.667l-17.5,0m0,94.583l17.5,0l0,94.167m-17.5,-21.25l0,-72.917" style="fill:none;fill-rule:nonzero;stroke:#2b2b2b;stroke-width:2.95px;stroke-linecap:round;"/><path d="M463.587,1012.317l-413.333,0l0,35.833l413.333,0l0,-35.833Z" style="fill:#fff;fill-opacity:0.1;"/><path d="M446.921,1048.15l16.667,-17.083m-37.5,17.083l35.417,-35.833m-56.25,35.833l35.417,-35.833m-56.25,35.833l35.417,-35.833m-56.25,35.833l35.417,-35.833m-56.25,35.833l35.417,-35.833m-56.667,35.833l35.417,-35.833m-56.25,35.833l35.417,-35.833m-56.25,35.833l35.417,-35.833m-56.25,35.833l35.417,-35.833m-56.25,35.833l35.417,-35.833m-56.25,35.833l35.417,-35.833m-56.25,35.833l35.417,-35.833m-56.25,35.833l35.417,-35.833m-56.25,35.833l35.417,-35.833m-56.667,35.833l35.417,-35.833m-56.25,35.833l35.417,-35.833m-56.25,35.833l35.417,-35.833m-56.25,35.833l35.417,-35.833m-56.25,35.833l35.417,-35.833m-35.417,14.583l14.583,-14.583m398.75,10.417l-10.417,-10.417m10.417,31.25l-31.25,-31.25m14.583,35.833l-35.417,-35.833m14.583,35.833l-35.417,-35.833m14.583,35.833l-35.417,-35.833m14.583,35.833l-35.417,-35.833m14.583,35.833l-35.417,-35.833m14.583,35.833l-35.833,-35.833m14.583,35.833l-35.417,-35.833m14.583,35.833l-35.417,-35.833m14.583,35.833l-35.417,-35.833m14.583,35.833l-35.417,-35.833m14.583,35.833l-35.417,-35.833m14.583,35.833l-35.417,-35.833m14.583,35.833l-35.417,-35.833m14.583,35.833l-35.417,-35.833m14.583,35.833l-35.833,-35.833m14.583,35.833l-35.417,-35.833m14.583,35.833l-35.417,-35.833m14.583,35.833l-35.417,-35.833m14.583,35.833l-20.833,-21.25" style="fill:none;fill-rule:nonzero;stroke:#000;stroke-opacity:0.31;stroke-width:1.48px;"/><path d="M463.587,1012.317l0,35.833l-413.333,0" style="fill:none;fill-rule:nonzero;stroke:#2b2b2b;stroke-width:2.95px;stroke-linecap:round;"/><rect x="14.837" y="162.317" width="35.417" height="885.833" style="fill:#fff;fill-opacity:0.1;"/><path d="M35.671,1048.15l14.583,-14.583m-35.417,14.583l35.417,-35.833m-35.417,14.583l35.417,-35.417m-35.417,14.583l35.417,-35.417m-35.417,14.583l35.417,-35.417m-35.417,14.583l35.417,-35.417m-35.417,14.583l35.417,-35.417m-35.417,14.583l35.417,-35.417m-35.417,14.583l35.417,-35.417m-35.417,14.583l35.417,-35.417m-35.417,14.583l35.417,-35.417m-35.417,14.167l35.417,-35.417m-35.417,14.583l35.417,-35.417m-35.417,14.583l35.417,-35.417m-35.417,14.583l35.417,-35.417m-35.417,14.583l35.417,-35.417m-35.417,14.583l35.417,-35.417m-35.417,14.583l35.417,-35.417m-35.417,14.583l35.417,-35.417m-35.417,14.583l35.417,-35.417m-35.417,14.167l35.417,-35.417m-35.417,14.583l35.417,-35.417m-35.417,14.583l35.417,-35.417m-35.417,14.583l35.417,-35.417m-35.417,14.583l35.417,-35.417m-35.417,14.583l35.417,-35.417m-35.417,14.583l35.417,-35.417m-35.417,14.583l35.417,-35.417m-35.417,14.583l35.417,-35.417m-35.417,14.167l35.417,-35.417m-35.417,14.583l35.417,-35.417m-35.417,14.583l35.417,-35.417m-35.417,14.583l35.417,-35.417m-35.417,14.583l35.417,-35.417m-35.417,14.583l35.417,-35.417m-35.417,14.583l35.417,-35.417m-35.417,14.583l35.417,-35.417m-35.417,14.583l35.417,-35.417m-35.417,14.167l35.417,-35.417m-35.417,14.583l35.417,-35.417m-35.417,14.583l35.417,-35.417m-35.417,14.583l35.417,-35.417m-35.417,14.583l29.583,-29.583m-29.583,8.75l8.75,-8.75m26.667,2.5l-2.5,-2.5m2.5,23.333l-23.333,-23.333m23.333,44.167l-35.417,-35.417m35.417,56.25l-35.417,-35.417m35.417,56.25l-35.417,-35.417m35.417,56.25l-35.417,-35.417m35.417,56.25l-35.417,-35.417m35.417,56.667l-35.417,-35.833m35.417,56.667l-35.417,-35.417m35.417,56.25l-35.417,-35.417m35.417,56.25l-35.417,-35.417m35.417,56.25l-35.417,-35.417m35.417,56.25l-35.417,-35.417m35.417,56.25l-35.417,-35.417m35.417,56.25l-35.417,-35.417m35.417,56.25l-35.417,-35.417m35.417,56.667l-35.417,-35.833m35.417,56.667l-35.417,-35.417m35.417,56.25l-35.417,-35.417m35.417,56.25l-35.417,-35.417m35.417,56.25l-35.417,-35.417m35.417,56.25l-35.417,-35.417m35.417,56.25l-35.417,-35.417m35.417,56.25l-35.417,-35.417m35.417,56.25l-35.417,-35.417m35.417,56.25l-35.417,-35.417m35.417,56.667l-35.417,-35.417m35.417,56.25l-35.417,-35.417m35.417,56.25l-35.417,-35.417m35.417,56.25l-35.417,-35.417m35.417,56.25l-35.417,-35.417m35.417,56.25l-35.417,-35.417m35.417,56.25l-35.417,-35.417m35.417,56.25l-35.417,-35.417m35.417,56.25l-35.417,-35.417m35.417,56.667l-35.417,-35.417m35.417,56.25l-35.417,-35.417m35.417,56.25l-35.417,-35.417m35.417,56.25l-35.417,-35.417m35.417,56.25l-35.417,-35.417m35.417,56.25l-35.417,-35.417m35.417,56.25l-35.417,-35.417m35.417,56.25l-35.417,-35.417m20.833,42.083l-20.833,-21.25" style="fill:none;fill-rule:nonzero;stroke:#000;stroke-opacity:0.31;stroke-width:1.48px;"/><path d="M50.254,162.317l0,525.417m0,360.417l-35.417,0l0,-885.833" style="fill:none;fill-rule:nonzero;stroke:#2b2b2b;stroke-width:2.95px;stroke-linecap:round;"/><rect x="670.254" y="1012.317" width="413.333" height="35.833" style="fill:#fff;fill-opacity:0.1;"/><path d="M1066.921,1048.15l16.667,-16.667m-37.5,16.667l35.417,-35.833m-56.25,35.833l35.417,-35.833m-56.25,35.833l35.417,-35.833m-56.25,35.833l35.417,-35.833m-56.25,35.833l35.417,-35.833m-56.25,35.833l35.417,-35.833m-56.25,35.833l35.417,-35.833m-56.667,35.833l35.417,-35.833m-56.25,35.833l35.417,-35.833m-56.25,35.833l35.417,-35.833m-56.25,35.833l35.417,-35.833m-56.25,35.833l35.417,-35.833m-56.25,35.833l35.417,-35.833m-56.25,35.833l35.417,-35.833m-56.25,35.833l35.417,-35.833m-56.25,35.833l35.417,-35.833m-56.667,35.833l35.417,-35.833m-56.25,35.833l35.417,-35.833m-56.25,35.833l35.417,-35.833m-35.417,14.583l14.583,-14.583m398.75,10.417l-10.417,-10.417m10.417,31.25l-31.25,-31.25m14.583,35.833l-35.417,-35.833m14.583,35.833l-35.417,-35.833m14.583,35.833l-35.417,-35.833m14.583,35.833l-35.417,-35.833m14.583,35.833l-35.417,-35.833m14.583,35.833l-35.417,-35.833m14.583,35.833l-35.417,-35.833m14.583,35.833l-35.833,-35.833m14.583,35.833l-35.417,-35.833m14.583,35.833l-35.417,-35.833m14.583,35.833l-35.417,-35.833m14.583,35.833l-35.417,-35.833m14.583,35.833l-35.417,-35.833m14.583,35.833l-35.417,-35.833m14.583,35.833l-35.417,-35.833m14.583,35.833l-35.417,-35.833m14.583,35.833l-35.833,-35.833m14.583,35.833l-35.417,-35.833m14.583,35.833l-20.833,-21.25" style="fill:none;fill-rule:nonzero;stroke:#000;stroke-opacity:0.31;stroke-width:1.48px;"/><path d="M688.171,1012.317l395.417,0m0,35.833l-413.333,0l0,-35.833" style="fill:none;fill-rule:nonzero;stroke:#2b2b2b;stroke-width:2.95px;stroke-linecap:round;"/><rect x="1083.587" y="162.317" width="35.417" height="885.833" style="fill:#fff;fill-opacity:0.1;"/><path d="M1104.421,1048.15l14.583,-14.583m-35.417,14.167l35.417,-35.417m-35.417,14.583l35.417,-35.417m-35.417,14.583l35.417,-35.417m-35.417,14.583l35.417,-35.417m-35.417,14.583l35.417,-35.417m-35.417,14.583l35.417,-35.417m-35.417,14.583l35.417,-35.417m-35.417,14.583l35.417,-35.417m-35.417,14.583l35.417,-35.417m-35.417,14.167l35.417,-35.417m-35.417,14.583l35.417,-35.417m-35.417,14.583l35.417,-35.417m-35.417,14.583l35.417,-35.417m-35.417,14.583l35.417,-35.417m-35.417,14.583l35.417,-35.417m-35.417,14.583l35.417,-35.417m-35.417,14.583l35.417,-35.417m-35.417,14.583l35.417,-35.417m-35.417,14.583l35.417,-35.833m-35.417,14.583l35.417,-35.417m-35.417,14.583l35.417,-35.417m-35.417,14.583l35.417,-35.417m-35.417,14.583l35.417,-35.417m-35.417,14.583l35.417,-35.417m-35.417,14.583l35.417,-35.417m-35.417,14.583l35.417,-35.417m-35.417,14.583l35.417,-35.417m-35.417,14.583l35.417,-35.833m-35.417,14.583l35.417,-35.417m-35.417,14.583l35.417,-35.417m-35.417,14.583l35.417,-35.417m-35.417,14.583l35.417,-35.417m-35.417,14.583l35.417,-35.417m-35.417,14.583l35.417,-35.417m-35.417,14.583l35.417,-35.417m-35.417,14.583l35.417,-35.417m-35.417,14.583l35.417,-35.833m-35.417,14.583l35.417,-35.417m-35.417,14.583l35.417,-35.417m-35.417,14.583l35.417,-35.417m-35.417,14.583l35.417,-35.417m-35.417,14.583l30,-29.583m-30,8.75l9.167,-8.75m26.25,2.5l-2.5,-2.5m2.5,23.333l-23.333,-23.333m23.333,44.167l-35.417,-35.417m35.417,56.25l-35.417,-35.417m35.417,56.25l-35.417,-35.417m35.417,56.25l-35.417,-35.417m35.417,56.25l-35.417,-35.417m35.417,56.667l-35.417,-35.417m35.417,56.25l-35.417,-35.417m35.417,56.25l-35.417,-35.417m35.417,56.25l-35.417,-35.417m35.417,56.25l-35.417,-35.417m35.417,56.25l-35.417,-35.417m35.417,56.25l-35.417,-35.417m35.417,56.25l-35.417,-35.417m35.417,56.25l-35.417,-35.417m35.417,56.667l-35.417,-35.833m35.417,56.667l-35.417,-35.417m35.417,56.25l-35.417,-35.417m35.417,56.25l-35.417,-35.417m35.417,56.25l-35.417,-35.417m35.417,56.25l-35.417,-35.417m35.417,56.25l-35.417,-35.417m35.417,56.25l-35.417,-35.417m35.417,56.25l-35.417,-35.417m35.417,56.667l-35.417,-35.833m35.417,56.667l-35.417,-35.417m35.417,56.25l-35.417,-35.417m35.417,56.25l-35.417,-35.417m35.417,56.25l-35.417,-35.417m35.417,56.25l-35.417,-35.417m35.417,56.25l-35.417,-35.417m35.417,56.25l-35.417,-35.417m35.417,56.25l-35.417,-35.417m35.417,56.667l-35.417,-35.833m35.417,56.667l-35.417,-35.417m35.417,56.25l-35.417,-35.417m35.417,56.25l-35.417,-35.417m35.417,56.25l-35.417,-35.417m35.417,56.25l-35.417,-35.417m35.417,56.25l-35.417,-35.417m35.417,56.25l-35.417,-35.417m35.417,56.25l-35.417,-35.417m20.833,42.083l-20.833,-20.833" style="fill:none;fill-rule:nonzero;stroke:#000;stroke-opacity:0.31;stroke-width:1.48px;"/><path d="M1119.004,162.317l0,885.833l-35.417,0m0,-35.833l0,-466.25m0,-17.917l0,-365.833" style="fill:none;fill-rule:nonzero;stroke:#2b2b2b;stroke-width:2.95px;stroke-linecap:round;"/><rect x="14.837" y="126.9" width="1104.167" height="35.417" style="fill:#fff;fill-opacity:0.1;"/><path d="M1100.671,162.317l18.333,-18.75m-39.167,18.75l35.417,-35.417m-56.667,35.417l35.417,-35.417m-56.25,35.417l35.417,-35.417m-56.25,35.417l35.417,-35.417m-56.25,35.417l35.417,-35.417m-56.25,35.417l35.417,-35.417m-56.25,35.417l35.417,-35.417m-56.25,35.417l35.417,-35.417m-56.25,35.417l35.417,-35.417m-56.25,35.417l35.417,-35.417m-56.667,35.417l35.417,-35.417m-56.25,35.417l35.417,-35.417m-56.25,35.417l35.417,-35.417m-56.25,35.417l35.417,-35.417m-56.25,35.417l35.417,-35.417m-56.25,35.417l35.417,-35.417m-56.25,35.417l35.417,-35.417m-56.25,35.417l35.417,-35.417m-56.25,35.417l35.417,-35.417m-56.667,35.417l35.417,-35.417m-56.25,35.417l35.417,-35.417m-56.25,35.417l35.417,-35.417m-56.25,35.417l35.417,-35.417m-56.25,35.417l35.417,-35.417m-56.25,35.417l35.417,-35.417m-56.25,35.417l35.417,-35.417m-56.25,35.417l35.417,-35.417m-56.25,35.417l35.417,-35.417m-56.667,35.417l35.417,-35.417m-56.25,35.417l35.417,-35.417m-56.25,35.417l35.417,-35.417m-56.25,35.417l35.417,-35.417m-56.25,35.417l35.417,-35.417m-56.25,35.417l35.417,-35.417m-56.25,35.417l35.417,-35.417m-56.25,35.417l35.417,-35.417m-56.25,35.417l35.417,-35.417m-56.667,35.417l35.833,-35.417m-56.667,35.417l35.417,-35.417m-56.25,35.417l35.417,-35.417m-56.25,35.417l35.417,-35.417m-56.25,35.417l35.417,-35.417m-56.25,35.417l35.417,-35.417m-56.25,35.417l35.417,-35.417m-56.25,35.417l35.417,-35.417m-56.25,35.417l35.417,-35.417m-56.667,35.417l35.833,-35.417m-56.667,35.417l35.417,-35.417m-56.25,35.417l35.417,-35.417m-56.25,35.417l35.417,-35.417m-56.25,35.417l35.417,-35.417m-56.25,35.417l35.417,-35.417m-35.417,14.167l14.583,-14.167m1089.583,12.083l-12.083,-12.083m12.083,32.917l-32.917,-32.917m14.583,35.417l-35.417,-35.417m14.583,35.417l-35.833,-35.417m14.583,35.417l-35.417,-35.417m14.583,35.417l-35.417,-35.417m14.583,35.417l-35.417,-35.417m14.583,35.417l-35.417,-35.417m14.583,35.417l-35.417,-35.417m14.583,35.417l-35.417,-35.417m14.583,35.417l-35.417,-35.417m14.583,35.417l-35.417,-35.417m14.583,35.417l-35.417,-35.417m14.167,35.417l-35.417,-35.417m14.583,35.417l-35.417,-35.417m14.583,35.417l-35.417,-35.417m14.583,35.417l-35.417,-35.417m14.583,35.417l-35.417,-35.417m14.583,35.417l-35.417,-35.417m14.583,35.417l-35.417,-35.417m14.583,35.417l-35.417,-35.417m14.583,35.417l-35.417,-35.417m14.167,35.417l-35.417,-35.417m14.583,35.417l-35.417,-35.417m14.583,35.417l-35.417,-35.417m14.583,35.417l-35.417,-35.417m14.583,35.417l-35.417,-35.417m14.583,35.417l-35.417,-35.417m14.583,35.417l-35.417,-35.417m14.583,35.417l-35.417,-35.417m14.583,35.417l-35.417,-35.417m14.167,35.417l-35.417,-35.417m14.583,35.417l-35.417,-35.417m14.583,35.417l-35.417,-35.417m14.583,35.417l-35.417,-35.417m14.583,35.417l-35.417,-35.417m14.583,35.417l-35.417,-35.417m14.583,35.417l-35.417,-35.417m14.583,35.417l-35.417,-35.417m14.583,35.417l-35.417,-35.417m14.167,35.417l-35.417,-35.417m14.583,35.417l-35.417,-35.417m14.583,35.417l-35.417,-35.417m14.583,35.417l-35.417,-35.417m14.583,35.417l-35.417,-35.417m14.583,35.417l-35.417,-35.417m14.583,35.417l-35.417,-35.417m14.583,35.417l-35.417,-35.417m14.583,35.417l-35.417,-35.417m14.167,35.417l-35.417,-35.417m14.583,35.417l-35.417,-35.417m14.583,35.417l-35.417,-35.417m14.583,35.417l-35.417,-35.417m14.583,35.417l-20.833,-21.25" style="fill:none;fill-rule:nonzero;stroke:#000;stroke-opacity:0.31;stroke-width:1.48px;"/><path d="M1119.004,126.9l0,35.417m-35.417,0l-549.167,0m-17.5,0l-466.667,0m-35.417,0l0,-35.417l1104.167,0" style="fill:none;fill-rule:nonzero;stroke:#2b2b2b;stroke-width:2.95px;stroke-linecap:round;"/><path d="M670.254,758.567l17.917,0" style="fill:none;fill-rule:nonzero;stroke:#000;stroke-width:0.3px;"/><path d="M670.254,663.984l112.083,0" style="fill:none;fill-rule:nonzero;stroke:#000;stroke-width:0.3px;"/><path d="M782.337,663.984c-0,52.5 -42.083,94.583 -94.167,94.583" style="fill:none;fill-rule:nonzero;stroke:#000;stroke-width:0.3px;"/><rect x="670.254" y="658.15" width="17.917" height="106.25" style="fill:none;fill-rule:nonzero;stroke:#000;stroke-width:0.3px;"/><path d="M652.754,581.484l0,-17.917" style="fill:none;fill-rule:nonzero;stroke:#000;stroke-width:0.3px;"/><path d="M558.171,581.484l0,-112.083" style="fill:none;fill-rule:nonzero;stroke:#000;stroke-width:0.3px;"/><path d="M558.171,469.4c52.083,-0 94.583,42.083 94.583,94.167" style="fill:none;fill-rule:nonzero;stroke:#000;stroke-width:0.3px;"/><rect x="552.337" y="563.567" width="106.25" height="17.917" style="fill:none;fill-rule:nonzero;stroke:#000;stroke-width:0.3px;"/><rect x="446.087" y="587.317" width="17.5" height="94.583" style="fill:none;fill-rule:nonzero;stroke:#000;stroke-width:0.3px;"/><path d="M463.587,676.067l-100.417,0" style="fill:none;fill-rule:nonzero;stroke:#000;stroke-width:0.3px;"/><path d="M446.087,593.15c-45.833,0 -82.917,37.083 -82.917,82.917" style="fill:none;fill-rule:nonzero;stroke:#000;stroke-width:0.3px;"/><path d="M446.087,593.15l17.5,0" style="fill:none;fill-rule:nonzero;stroke:#000;stroke-width:0.3px;"/><rect x="446.087" y="823.567" width="17.5" height="94.583" style="fill:none;fill-rule:nonzero;stroke:#000;stroke-width:0.3px;"/><path d="M463.587,829.4l-100.417,0" style="fill:none;fill-rule:nonzero;stroke:#000;stroke-width:0.3px;"/><path d="M446.087,912.317c-45.833,0 -82.917,-37.083 -82.917,-82.917" style="fill:none;fill-rule:nonzero;stroke:#000;stroke-width:0.3px;"/><path d="M446.087,912.317l17.5,0" style="fill:none;fill-rule:nonzero;stroke:#000;stroke-width:0.3px;"/></g><g id="topR"><path d="M670.254,870.65l-70.833,0l0,141.667l70.833,0l0,-141.667Z" style="fill:#ddb682;stroke:#000;stroke-width:0.77px;"/><path d="M599.421,870.65l70.833,70.833l-70.833,70.833" style="fill:none;fill-rule:nonzero;stroke:#000;stroke-width:0.3px;"/><path d="M670.254,764.4l-70.833,0l0,106.25l70.833,0l0,-106.25Z" style="fill:#ddb682;stroke:#000;stroke-width:0.77px;"/><path d="M599.421,764.4l70.833,53.333l-70.833,52.917" style="fill:none;fill-rule:nonzero;stroke:#000;stroke-width:0.3px;"/></g><g id="topL"><path d="M534.421,918.15l-70.833,0l0,94.583l70.833,0l0,-94.583Z" style="fill:#ddb682;stroke:#000;stroke-width:0.77px;"/><path d="M534.421,918.15l-70.833,47.083l70.833,47.5" style="fill:none;fill-rule:nonzero;stroke:#000;stroke-width:0.3px;"/><path d="M534.421,687.734l-70.833,0l0,135.833l70.833,0l0,-135.833Z" style="fill:#ddb682;stroke:#000;stroke-width:0.77px;"/><path d="M534.421,687.734l-70.833,67.917l70.833,67.917" style="fill:none;fill-rule:nonzero;stroke:#000;stroke-width:0.3px;"/></g><g id="topKoupelna2"><clipPath id="_clip1"><rect x="62.052" y="717.321" width="383.858" height="273.943" clip-rule="nonzero"/></clipPath><g clip-path="url(#_clip1)"><path d="M14.837,1048.15l0,-921.25l1104.167,0l0,921.25l-448.75,0l0,-35.417l-206.667,0l0,35.417l-448.75,0Z" style="fill:#fff;"/><path d="M446.087,823.567l8.75,0l0,94.583l-8.75,0l0,73.333l-384.167,0l0,-274.167l384.167,0l0,106.25Z" style="fill:#e0e0e0;fill-opacity:0.25;stroke:#a8a8a8;stroke-width:0.3px;"/><g transform="matrix(1,0,0,1,-369.55697,635.779005)"><text x="548.469px" y="254.233px" style="font-family:'ArialMT', 'Arial', sans-serif;font-size:21.144px;fill:#2b2b2b;fill-opacity:0.99;">Koupelna</text><g transform="matrix(21.144211,0,0,21.144211,628.989142,277.85528)"></g><text x="557.307px" y="277.855px" style="font-family:'ArialMT', 'Arial', sans-serif;font-size:21.144px;fill:#2b2b2b;fill-opacity:0.99;">7.60 m²</text></g><path d="M61.921,717.317l0,274.167" style="fill:none;fill-rule:nonzero;stroke:#2b2b2b;stroke-width:2.95px;stroke-linecap:round;"/><path d="M446.087,717.317l-384.167,0" style="fill:none;fill-rule:nonzero;stroke:#2b2b2b;stroke-width:2.95px;stroke-linecap:round;"/><path d="M255.671,991.067l-40,0l-1.25,-42.083c0.417,-11.25 9.583,-20.417 21.25,-20.417c11.667,0 20.833,9.167 21.25,20.417l-1.25,42.083Z" style="fill:#e0e0e0;stroke:#000;stroke-width:0.3px;"/><path d="M235.671,932.734c-3.75,0 -7.083,1.25 -10,2.917c-5,3.75 -7.917,9.583 -7.917,15.833c0.417,6.25 3.333,12.083 8.333,15.417c2.917,2.083 6.25,2.917 9.583,2.917c3.333,0 6.667,-0.833 9.583,-2.917c5,-3.333 7.917,-9.167 8.333,-15.417c0,-6.25 -2.917,-12.083 -7.917,-15.833c-2.917,-1.667 -6.25,-2.917 -10,-2.917Z" style="fill:#b4b4b4;stroke:#000;stroke-width:0.3px;"/><path d="M235.671,991.067l0,-2.5" style="fill:none;fill-rule:nonzero;stroke:#000;stroke-width:0.3px;"/><path d="M226.087,966.9c0,-1.667 0,-2.917 0.417,-4.583c0,-1.25 0.417,-2.5 1.25,-3.75c0.833,-1.25 1.667,-2.083 2.5,-2.917c0.833,-0.417 1.667,-1.25 2.5,-1.25c0.833,-0.417 1.667,-0.417 2.083,-0.417l0.833,0" style="fill:none;fill-rule:nonzero;stroke:#000;stroke-width:0.3px;"/><path d="M226.504,961.9c0.833,0.417 1.25,1.25 2.083,1.667c0.833,0.417 1.667,0.417 2.5,0.833c0.833,0 1.667,0.417 2.5,0.417l2.083,-0" style="fill:none;fill-rule:nonzero;stroke:#000;stroke-width:0.3px;"/><path d="M228.171,977.317c0,-0.69 -0.653,-1.25 -1.458,-1.25c-0.805,0 -1.458,0.56 -1.458,1.25c0,0.69 0.653,1.25 1.458,1.25c0.805,0 1.458,-0.56 1.458,-1.25Z" style="fill:none;stroke:#000;stroke-width:0.3px;"/><path d="M245.254,966.9c0,-1.667 0,-2.917 -0.417,-4.583c0,-1.25 -0.417,-2.5 -1.25,-3.75c-0.833,-1.25 -1.667,-2.083 -2.5,-2.917c-0.833,-0.417 -1.667,-1.25 -2.5,-1.25c-0.833,-0.417 -1.667,-0.417 -2.083,-0.417l-0.833,0" style="fill:none;fill-rule:nonzero;stroke:#000;stroke-width:0.3px;"/><path d="M244.837,961.9c-0.833,0.417 -1.25,1.25 -2.083,1.667c-0.833,0.417 -1.667,0.417 -2.5,0.833c-0.833,0 -1.667,0.417 -2.5,0.417l-2.083,-0" style="fill:none;fill-rule:nonzero;stroke:#000;stroke-width:0.3px;"/><path d="M243.171,977.317c0,0.69 0.653,1.25 1.458,1.25c0.805,0 1.458,-0.56 1.458,-1.25c0,-0.69 -0.653,-1.25 -1.458,-1.25c-0.805,0 -1.458,0.56 -1.458,1.25Z" style="fill:none;stroke:#000;stroke-width:0.3px;"/><rect x="61.921" y="717.317" width="212.917" height="100.417" style="fill:#f7f7f7;stroke:#000;stroke-width:1.48px;"/><path d="M129.421,737.317l77.917,0c20,0 30,10 30,30c0,20.417 -10,30.417 -30,30.417l-77.917,0c-20,0 -30,-10 -30,-30.417c0,-20 10,-30 30,-30Z" style="fill:none;fill-rule:nonzero;stroke:#000;stroke-width:0.3px;"/><path d="M166.504,730.234c-0.417,-2.917 -0.417,-5.833 -0.833,-8.75c0,-0.833 0.417,-1.667 0.833,-2.5c0.417,-0.417 1.25,-0.833 1.667,-0.833c0.833,0 1.667,0.417 2.083,0.833c0.417,0.833 0.833,1.667 0.417,2.5c0,2.917 0,5.833 -0.417,8.75c0,1.667 -0.417,2.083 -2.083,2.083c-1.25,0 -1.667,-0.417 -1.667,-2.083Z" style="fill:none;fill-rule:nonzero;stroke:#000;stroke-width:0.3px;"/><path d="M171.087,726.067l49.167,0c26.25,0 39.583,13.75 39.583,41.25c0,27.917 -13.333,41.667 -39.583,41.667l-103.75,0c-26.25,0 -39.583,-13.75 -39.583,-41.667c0,-27.5 13.333,-41.25 39.583,-41.25l49.167,0" style="fill:none;fill-rule:nonzero;stroke:#000;stroke-width:0.3px;"/><path d="M170.671,769.4c-0.833,1.25 -2.5,1.667 -4.167,0.833c-1.25,-1.25 -1.667,-2.917 -0.833,-4.583c1.25,-1.25 2.917,-1.667 4.583,-0.833c1.25,1.25 1.667,2.917 0.417,4.583" style="fill:none;fill-rule:nonzero;stroke:#000;stroke-width:0.3px;"/><path d="M170.671,733.984c0,1.667 -0.833,2.917 -2.5,2.917c-1.25,0 -2.083,-1.25 -2.083,-2.917c0,-4.167 -0.417,-7.917 -0.417,-12.083c-0.417,-0.833 0,-2.083 0.417,-2.917c0.833,-0.833 1.25,-1.25 2.083,-1.25c0.833,0 1.667,0.417 2.083,1.25c0.833,0.833 0.833,2.083 0.833,2.917c0,4.167 -0.417,7.917 -0.417,12.083Z" style="fill:none;fill-rule:nonzero;stroke:#000;stroke-width:0.3px;"/><path d="M171.087,723.15l50.833,0c27.083,0 40.833,15 40.833,44.167c0,29.583 -13.75,44.583 -40.833,44.583l-107.083,0c-27.083,0 -40.833,-15 -40.833,-44.583c0,-29.167 13.75,-44.167 40.833,-44.167l50.833,0" style="fill:none;fill-rule:nonzero;stroke:#000;stroke-width:0.3px;"/><rect x="61.921" y="817.734" width="57.917" height="173.333" style="fill:#ddb682;stroke:#000;stroke-width:0.77px;"/><path d="M78.171,865.65l0,-26.25c0,-2.917 1.667,-4.583 5,-4.583l24.583,0c3.333,0 5,1.667 5,4.583l0,55c0,2.917 -1.667,4.583 -5,4.583l-24.583,0c-3.333,0 -5,-1.667 -5,-4.583l0,-20" style="fill:none;fill-rule:nonzero;stroke:#000;stroke-width:0.3px;"/><path d="M119.837,827.317l0,153.333c0,1.25 -0.417,1.667 -1.667,1.667l-55.417,0c-0.417,0 -0.833,0 -0.833,-0.417l0,-155.417c0,-0.417 0.417,-0.417 0.833,-0.417l55.417,0c1.25,0 1.667,0.417 1.667,1.25Z" style="fill:#f7f7f7;stroke:#000;stroke-width:1.48px;"/><path d="M78.171,940.65l0,-26.25c0,-3.333 1.667,-5 5,-5l24.583,0c3.333,0 5,1.667 5,5l0,54.583c0,3.333 -1.667,5 -5,5l-24.583,0c-3.333,0 -5,-1.667 -5,-5l0,-19.583" style="fill:none;fill-rule:nonzero;stroke:#000;stroke-width:0.3px;"/><path d="M74.004,874.4l0,0.417c0,0.417 -0.417,0.417 -0.417,0.417l-4.167,0c0,0 -0.417,0 -0.417,-0.417l0,-2.5l0.417,-0.417l4.167,0l0.417,0.417l0,1.25" style="fill:none;fill-rule:nonzero;stroke:#000;stroke-width:0.3px;"/><path d="M74.004,949.4l0,0.417c0,0.417 -0.417,0.417 -0.417,0.417l-4.167,0c0,0 -0.417,0 -0.417,-0.417l0,-2.5c0,-0.417 0.417,-0.417 0.417,-0.417l4.167,0c0,0 0.417,0 0.417,0.417l0,1.25" style="fill:none;fill-rule:nonzero;stroke:#000;stroke-width:0.3px;"/><path d="M71.504,867.734c8.333,0.417 16.667,0.417 25,0.417c0.833,0 1.25,-0.417 1.25,-1.25c0,-0.833 -0.417,-1.25 -1.25,-1.25l-25,0c-0.417,0 -0.417,0 -0.833,0.417c-0.417,0 -0.417,0.417 -0.417,0.833c0,0 0,0.417 0.417,0.833l0.833,0Z" style="fill:none;fill-rule:nonzero;stroke:#000;stroke-width:0.3px;"/><path d="M71.504,942.734l25,0c0.833,0 1.25,-0.417 1.25,-0.833c0,-0.833 -0.417,-1.25 -1.25,-1.25c-8.333,0 -16.667,0 -25,-0.417c-0.417,0 -0.417,0.417 -0.833,0.417c-0.417,0.417 -0.417,0.417 -0.417,0.833c0,0.417 0,0.833 0.417,0.833c0.417,0.417 0.417,0.417 0.833,0.417Z" style="fill:none;fill-rule:nonzero;stroke:#000;stroke-width:0.3px;"/><path d="M89.837,868.15c-0.417,0.833 -1.25,1.25 -2.5,1.25c-1.25,0 -2.083,-0.417 -2.5,-1.25" style="fill:none;fill-rule:nonzero;stroke:#000;stroke-width:0.3px;"/><path d="M89.837,942.734c-0.417,1.25 -1.25,1.667 -2.5,1.667c-1.25,0 -2.083,-0.417 -2.5,-1.667" style="fill:none;fill-rule:nonzero;stroke:#000;stroke-width:0.3px;"/><path d="M74.421,867.734c-0.417,1.667 -2.083,2.083 -3.333,2.083c-1.667,-0.417 -2.5,-1.667 -2.5,-2.917c0,-1.667 0.833,-2.5 2.5,-2.917c1.25,-0.417 2.917,0.417 3.333,1.667" style="fill:none;fill-rule:nonzero;stroke:#000;stroke-width:0.3px;"/><path d="M74.421,942.734c-0.417,1.25 -2.083,2.083 -3.333,1.667c-1.667,0 -2.5,-1.25 -2.5,-2.917c0,-1.25 0.833,-2.5 2.5,-2.917c1.25,-0 2.917,0.417 3.333,1.667" style="fill:none;fill-rule:nonzero;stroke:#000;stroke-width:0.3px;"/><path d="M84.837,865.65c0.417,-0.833 1.25,-1.667 2.5,-1.667c1.25,0 2.083,0.833 2.5,1.667" style="fill:none;fill-rule:nonzero;stroke:#000;stroke-width:0.3px;"/><path d="M84.837,940.65c0.417,-1.25 1.25,-1.667 2.5,-1.667c1.25,0 2.083,0.417 2.5,1.667" style="fill:none;fill-rule:nonzero;stroke:#000;stroke-width:0.3px;"/><path d="M69.004,868.567l0,3.333l5,0l0,-3.333" style="fill:none;fill-rule:nonzero;stroke:#000;stroke-width:0.3px;"/><path d="M69.004,943.15l0,3.75l5,0l0,-3.333" style="fill:none;fill-rule:nonzero;stroke:#000;stroke-width:0.3px;"/><path d="M72.754,873.567l7.083,0l0.417,0.417c0,0.417 -0.417,0.417 -0.417,0.417l-7.083,0" style="fill:none;fill-rule:nonzero;stroke:#000;stroke-width:0.3px;"/><path d="M72.754,948.567l7.083,0c0,0 0.417,0 0.417,0.417c0,0.417 -0.417,0.417 -0.417,0.417l-7.083,0" style="fill:none;fill-rule:nonzero;stroke:#000;stroke-width:0.3px;"/><path d="M78.171,873.567l0,-5.417" style="fill:none;fill-rule:nonzero;stroke:#000;stroke-width:0.3px;"/><path d="M78.171,948.567l0,-5.833" style="fill:none;fill-rule:nonzero;stroke:#000;stroke-width:0.3px;"/><path d="M78.171,865.65l0,-26.25c0,-2.917 1.667,-4.583 5,-4.583l24.583,0c3.333,0 5,1.667 5,4.583l0,55c0,2.917 -1.667,4.583 -5,4.583l-24.583,0c-3.333,0 -5,-1.667 -5,-4.583l0,-20" style="fill:none;fill-rule:nonzero;stroke:#000;stroke-width:0.3px;"/><path d="M302.754,921.9c16.667,-2.083 33.75,-2.083 50.417,0l0,3.75l10,0.833l0,64.583l-70.833,0l0,-64.583l4.583,-0.417l0,-1.667l2.917,0l0,1.25l2.917,-0.417l0,-3.333Z" style="fill:#f7f7f7;stroke:#000;stroke-width:1.48px;"/><path d="M333.171,924.4l0,-2.083l-10.417,0l0,2.083" style="fill:none;fill-rule:nonzero;stroke:#18181b;stroke-width:0.3px;"/><path d="M299.837,925.65l-2.917,0.417" style="fill:none;fill-rule:nonzero;stroke:#18181b;stroke-width:0.3px;"/><path d="M363.171,928.567l-18.333,0l0,-3.75" style="fill:none;fill-rule:nonzero;stroke:#18181b;stroke-width:0.3px;"/><path d="M363.171,930.65l-70.833,0" style="fill:none;fill-rule:nonzero;stroke:#18181b;stroke-width:0.3px;"/><path d="M353.171,925.65c-16.667,-1.667 -33.333,-1.667 -49.583,-0.417" style="fill:none;fill-rule:nonzero;stroke:#18181b;stroke-width:0.3px;"/><path d="M314.004,960.65c0,6.209 6.068,11.25 13.542,11.25c7.474,0 13.542,-5.041 13.542,-11.25c0,-6.209 -6.068,-11.25 -13.542,-11.25c-7.474,0 -13.542,5.041 -13.542,11.25Z" style="fill:none;stroke:#bcbcbc;stroke-width:0.3px;"/><path d="M314.004,960.65c0.833,-0.833 1.25,-0.833 2.083,-0.833c0.833,0 1.667,0 2.083,0.833c0.417,0.417 1.25,0.833 2.083,0.833c0.833,0 1.667,-0.417 2.083,-0.833c0.417,-0.833 1.25,-1.25 2.083,-1.25c0.833,0 1.25,0.417 1.667,1.25c0.833,0.417 1.25,0.833 2.083,0.833c0.833,0 1.667,-0.417 2.083,-0.833c0.417,-0.833 1.25,-1.25 2.083,-1.25c0.833,0 1.25,0.417 1.667,1.25c0.417,0.417 1.25,0.833 2.083,0.833c0.833,0 1.667,-0.417 2.083,-0.833c0.417,-0.417 0.833,-0.833 1.25,-0.833c0.833,0 1.25,0.417 1.667,0.833" style="fill:none;fill-rule:nonzero;stroke:#bcbcbc;stroke-width:0.3px;"/><path d="M379.421,921.9c16.667,-2.083 33.75,-2.083 50.417,0l0,3.75l10,0.833l0,64.583l-70.833,0l0,-64.583l4.583,-0.417l0,-1.667l2.917,0l0.417,1.25l2.5,-0.417l0,-3.333Z" style="fill:#f7f7f7;stroke:#000;stroke-width:1.48px;"/><path d="M410.254,924.4l0,-2.083l-10.833,0l0,2.083" style="fill:none;fill-rule:nonzero;stroke:#18181b;stroke-width:0.3px;"/><path d="M376.921,925.65l-3.333,0.417" style="fill:none;fill-rule:nonzero;stroke:#18181b;stroke-width:0.3px;"/><path d="M439.837,928.567l-18.333,0l0,-3.75" style="fill:none;fill-rule:nonzero;stroke:#18181b;stroke-width:0.3px;"/><path d="M439.837,930.65l-70.833,0" style="fill:none;fill-rule:nonzero;stroke:#18181b;stroke-width:0.3px;"/><path d="M429.837,925.65c-16.25,-1.667 -32.917,-1.667 -49.583,-0.417" style="fill:none;fill-rule:nonzero;stroke:#18181b;stroke-width:0.3px;"/><path d="M390.671,960.65c0,6.209 6.161,11.25 13.75,11.25c7.589,0 13.75,-5.041 13.75,-11.25c0,-6.209 -6.161,-11.25 -13.75,-11.25c-7.589,0 -13.75,5.041 -13.75,11.25Z" style="fill:none;stroke:#bcbcbc;stroke-width:0.3px;"/><path d="M391.087,960.65c0.417,-0.833 1.25,-0.833 2.083,-0.833c0.417,0 1.25,0 1.667,0.833c0.417,0.417 1.25,0.833 2.083,0.833c0.833,0 1.667,-0.417 2.083,-0.833c0.417,-0.833 1.25,-1.25 2.083,-1.25c0.833,0 1.667,0.417 2.083,1.25c0.417,0.417 1.25,0.833 1.667,0.833c0.833,0 1.667,-0.417 2.083,-0.833c0.417,-0.833 1.25,-1.25 2.083,-1.25c0.833,0 1.667,0.417 2.083,1.25c0.417,0.417 1.25,0.833 1.667,0.833c0.833,0 1.667,-0.417 2.083,-0.833c0.417,-0.417 0.833,-0.833 1.667,-0.833c0.417,0 0.833,0.417 1.25,0.833" style="fill:none;fill-rule:nonzero;stroke:#bcbcbc;stroke-width:0.3px;"/><rect x="373.587" y="814.817" width="68.75" height="2.5" style="fill:#f7f7f7;stroke:#000;stroke-width:0.3px;"/><path d="M291.921,814.817l0.417,0m0.417,0l0.833,0m0,0l0.833,0m0.417,0l0.833,0m0.417,0l0.417,0m0.417,0l0.833,0m0.417,0l0.833,0m0.417,0l0.417,0m0.417,0l0.833,0m0.417,0l0.833,0m0,0l0.833,0m0.417,0l0.833,0m0.417,0l0.417,0m0.417,0l0.833,0m0.417,0l0.833,0m0.417,0l0.417,0m0.417,0l0.833,0m0.417,0l0.833,0m0.417,0l0.417,0m0.417,0l0.833,0m0.417,0l0.833,0m0,0l0.833,0m0.417,0l0.833,0m0.417,0l0.417,0m0.417,0l0.833,0m0.417,0l0.833,0m0.417,0l0.417,0m0.417,0l0.833,0m0.417,0l0.833,0m0,0l0.833,0m0.417,0l0.833,0m0.417,0l0.417,0m0.417,0l0.833,0m0.417,0l0.833,0m0.417,0l0.417,0m0.417,0l0.833,0m0.417,0l0.833,0m0.417,0l0.417,0m0.417,0l0.833,0m0.417,0l0.833,0m0,0l0.833,0m0.417,0l0.833,0m0.417,0l0.417,0m0.417,0l0.833,0m0.417,0l0.833,0m0.417,0l0.417,0m0.417,0l0.833,0m0.417,0l0.833,0m0,0l0.833,0m0.417,0l0.833,0m0.417,0l0.833,0m0,0l0.833,0m0.417,0l0.833,0m0.417,0l0.417,0m0.417,0l0.833,0m0.417,0l0.833,0m0.417,0l0.417,0m0.417,0l0.833,0m0.417,0l0.833,0m0,0l0.833,0m0.417,0l0.833,0m0.417,0l0.417,0m0.417,0l0.833,0m0.417,0l0.833,0m0.417,0l0.417,0m0.417,0l0.833,0m0.417,0l0.833,0m0.417,0l0.417,0m0.417,0l0.833,0m0.417,0l0.833,0m0,0l0.833,0m0.417,0l0.833,0m0.417,0l0.417,0m0.417,0l0.833,0m0.417,0l0.833,0" style="fill:none;fill-rule:nonzero;stroke:#bcbcbc;stroke-width:0.3px;"/><rect x="442.337" y="814.4" width="3.75" height="3.333" style="fill:#f7f7f7;stroke:#000;stroke-width:1.48px;"/><path d="M373.587,817.317l-0.417,0m-0.417,0l-0.833,0m-0.417,0l-0.833,0m0,0l-0.833,0m-0.417,0l-0.833,0m-0.417,0l-0.417,0m-0.417,0l-0.833,0m-0.417,0l-0.833,0m-0.417,0l-0.417,0m-0.417,0l-0.833,0m-0.417,0l-0.833,0m0,0l-0.833,0m-0.417,0l-0.833,0m-0.417,0l-0.417,0m-0.417,0l-0.833,0m-0.417,0l-0.833,0m-0.417,0l-0.417,0m-0.417,0l-0.833,0m-0.417,0l-0.833,0m-0.417,0l-0.417,0m-0.417,0l-0.833,0m-0.417,0l-0.833,0m0,0l-0.833,0m-0.417,0l-0.833,0m-0.417,0l-0.417,0m-0.417,0l-0.833,0m-0.417,0l-0.833,0m-0.417,0l-0.417,0m-0.417,0l-0.833,0m-0.417,0l-0.833,0m0,0l-0.833,0m-0.417,0l-0.833,0m-0.417,0l-0.417,0m-0.417,0l-0.833,0m-0.417,0l-0.833,0m-0.417,0l-0.417,0m-0.417,0l-0.833,0m-0.417,0l-0.833,0m-0.417,0l-0.417,0m-0.417,0l-0.833,0m-0.417,0l-0.833,0m0,0l-0.833,0m-0.417,0l-0.833,0m-0.417,0l-0.417,0m-0.417,0l-0.833,0m-0.417,0l-0.833,0m-0.417,0l-0.417,0m-0.417,0l-0.833,0m-0.417,0l-0.833,0m0,0l-0.833,0m-0.417,0l-0.833,0m-0.417,0l-0.833,0m0,0l-0.833,0m-0.417,0l-0.833,0m-0.417,0l-0.417,0m-0.417,0l-0.833,0m-0.417,0l-0.833,0m-0.417,0l-0.417,0m-0.417,0l-0.833,0m-0.417,0l-0.833,0m0,0l-0.833,0m-0.417,0l-0.833,0m-0.417,0l-0.417,0m-0.417,0l-0.833,0m-0.417,0l-0.833,0m-0.417,0l-0.417,0m-0.417,0l-0.833,0m-0.417,0l-0.833,0m0,0l-0.833,0m-0.417,0l-0.833,0m-0.417,0l-0.833,0m0,0l-0.833,0m-0.417,0l-0.833,0m-0.417,0l-0.417,0m-0.417,0l-0.833,0m-0.417,0l-0.833,0m-0.417,0l-0.417,0m-0.417,0l-0.417,0" style="fill:none;fill-rule:nonzero;stroke:#bcbcbc;stroke-width:0.3px;"/><path d="M341.921,759.4l-1.667,1.667l1.25,1.25l1.667,-1.667l-1.25,-1.25Z" style="fill:#f7f7f7;"/><path d="M343.171,760.65l-1.25,-1.25l-1.667,1.667l1.25,1.25" style="fill:none;fill-rule:nonzero;stroke:#000;stroke-width:0.3px;"/><path d="M347.754,756.067l-58.75,58.75l1.25,1.667l58.75,-58.75l-1.25,-1.667Z" style="fill:#f7f7f7;stroke:#000;stroke-width:0.3px;"/><path d="M344.837,761.9l1.25,1.25l-1.667,1.667l-1.25,-0.833l1.667,-2.083Z" style="fill:#f7f7f7;"/><path d="M344.837,761.9l1.25,1.25l-1.667,1.667l-1.25,-0.833" style="fill:none;fill-rule:nonzero;stroke:#000;stroke-width:0.3px;"/><path d="M349.004,757.734c15.833,15.833 24.583,37.083 24.583,59.583" style="fill:none;fill-rule:nonzero;stroke:#000;stroke-width:0.3px;"/><rect x="278.171" y="814.817" width="10.833" height="2.5" style="fill:#f7f7f7;stroke:#000;stroke-width:0.3px;"/><rect x="274.837" y="814.4" width="3.333" height="3.333" style="fill:#f7f7f7;stroke:#000;stroke-width:1.48px;"/><rect x="274.837" y="717.317" width="3.333" height="3.333" style="fill:#f7f7f7;stroke:#000;stroke-width:1.48px;"/><path d="M275.254,814.4l2.083,0l0,-93.75l-2.083,0l0,93.75Z" style="fill:#f7f7f7;stroke:#000;stroke-width:0.3px;"/><path d="M446.087,1012.734l17.5,-17.917m-17.5,-2.917l17.5,-17.917m-17.5,-3.333l17.5,-17.5m-17.5,-3.333l17.5,-17.5m-17.5,-3.333l10.833,-10.833m-10,-94.583l16.667,-16.667m-17.5,-2.917l17.5,-17.917m-17.5,-3.333l17.5,-17.5m-17.5,-3.333l17.5,-17.5m-17.5,-3.333l17.5,-17.5m-17.5,-3.333l17.5,-17.5m-17.5,-3.333l17.5,-17.5m-10,-94.583l10,-10m-17.5,-3.333l10,-10" style="fill:none;fill-rule:nonzero;stroke:#000;stroke-opacity:0.31;stroke-width:1.48px;"/><path d="M463.587,581.484l0,5.833l-17.5,0l0,-23.333l17.5,0m-17.5,259.583l0,-106.25m0,-29.583l0,-5.833l17.5,0l0,141.667l-17.5,0m0,94.583l17.5,0l0,94.583m-17.5,-21.25l0,-73.333" style="fill:none;fill-rule:nonzero;stroke:#2b2b2b;stroke-width:2.95px;stroke-linecap:round;"/><rect x="446.087" y="823.567" width="17.5" height="94.583" style="fill:none;fill-rule:nonzero;stroke:#000;stroke-width:0.3px;"/><path d="M463.587,829.4l-100.417,0" style="fill:none;fill-rule:nonzero;stroke:#000;stroke-width:0.3px;"/><path d="M446.087,912.317c-45.833,0 -82.917,-37.083 -82.917,-82.917" style="fill:none;fill-rule:nonzero;stroke:#000;stroke-width:0.3px;"/><path d="M446.087,912.317l17.5,0" style="fill:none;fill-rule:nonzero;stroke:#000;stroke-width:0.3px;"/></g></g><g id="anchorTop"><path d="M1244.004,126.9l-250,0" style="fill:none;fill-rule:nonzero;stroke:#f00;stroke-width:0.3px;"/><path d="M1119.004,1.484l0,250.417" style="fill:none;fill-rule:nonzero;stroke:#f00;stroke-width:0.3px;"/></g></svg>