<?xml version="1.0" encoding="UTF-8" standalone="no"?><!DOCTYPE svg PUBLIC "-//W3C//DTD SVG 1.1//EN" "http://www.w3.org/Graphics/SVG/1.1/DTD/svg11.dtd"><svg width="100%" height="100%" viewBox="0 0 1246 1063" version="1.1" xmlns="http://www.w3.org/2000/svg" xmlns:xlink="http://www.w3.org/1999/xlink" xml:space="preserve" xmlns:serif="http://www.serif.com/" style="fill-rule:evenodd;clip-rule:evenodd;stroke-miterlimit:10;"><g id="top"><path d="M14.837,1048.15l0,-921.25l1104.167,0l0,921.25l-519.583,0l0,-35.417l-135.833,0l0,35.417l-448.75,0Z" style="fill:#fff;"/><path d="M446.087,427.734l0,22.5l8.75,0l0,106.25l-8.75,0l0,7.083l-395.833,0l0,-401.25l472.5,0l0,265.417l-76.667,0Z" style="fill:#e0e0e0;fill-opacity:0.25;stroke:#a8a8a8;stroke-width:0.3px;"/><path d="M540.254,162.317l543.333,0l0,401.25l-466.25,0l0,-5.833l-9.167,0l0,-106.25l9.167,0l0,-23.75l-77.083,0l0,-265.417Z" style="fill:#e0e0e0;fill-opacity:0.25;stroke:#a8a8a8;stroke-width:0.3px;"/><path d="M50.254,581.484l395.833,0l0,75.417l8.75,0l0,94.583l-8.75,0l0,260.833l-395.833,0l0,-430.833Z" style="fill:#e0e0e0;fill-opacity:0.25;stroke:#a8a8a8;stroke-width:0.3px;"/><path d="M463.587,1012.317l2.083,0m1.667,0l3.75,0m2.083,0l3.75,0m1.667,0l3.75,0m2.083,0l3.75,0m1.667,0l3.75,0m2.083,0l3.75,0m1.667,0l3.75,0m2.083,0l3.75,0m1.667,0.417l3.75,0m2.083,0l3.75,0m1.667,0l3.75,0m2.083,0l3.75,0m1.667,0l3.75,0m2.083,0l3.75,0m1.667,0l3.75,0m2.083,0l3.75,0m1.667,0l3.75,0m2.083,0l3.75,0m1.667,0l3.75,0m2.083,0l3.75,0m1.667,0l3.75,0m2.083,0l3.75,0m1.667,0l3.75,0m2.083,0l2.5,0" style="fill:none;fill-rule:nonzero;stroke:#a8a8a8;stroke-width:0.3px;stroke-linecap:round;"/><path d="M599.421,451.484l8.75,0l0,106.25l-8.75,0l0,29.583l8.75,0l0,106.25l-8.75,0l0,206.667l8.75,0l0,94.583l-8.75,0l0,17.917l-135.833,-0.417l0,-260.833l-8.75,0l0,-94.583l8.75,0l0,-100.417l-8.75,0l0,-106.25l8.75,0l0,-4.583l135.833,0l0,5.833Z" style="fill:#e0e0e0;fill-opacity:0.25;stroke:#a8a8a8;stroke-width:0.3px;"/><path d="M608.171,994.817l0,-94.583l9.167,0l0,-59.167l466.25,0l0,171.25l-466.25,0.417l0,-17.917l-9.167,0Z" style="fill:#e0e0e0;fill-opacity:0.25;stroke:#a8a8a8;stroke-width:0.3px;"/><path d="M1071.921,784.4l-454.583,0l0,-90.833l-9.167,0l0,-106.25l9.167,0l0,-5.833l454.583,0l0,202.917Z" style="fill:#e0e0e0;fill-opacity:0.25;stroke:#a8a8a8;stroke-width:0.3px;"/><g transform="matrix(1,0,0,1,-352.096378,311.623108)"><text x="569.258px" y="151.868px" style="font-family:'ArialMT', 'Arial', sans-serif;font-size:21.144px;fill:#2b2b2b;fill-opacity:0.99;">Pokoj</text><g transform="matrix(21.144211,0,0,21.144211,637.429152,175.49026)"></g><text x="553.988px" y="175.49px" style="font-family:'ArialMT', 'Arial', sans-serif;font-size:21.144px;fill:#2b2b2b;fill-opacity:0.99;">12.92 m²</text></g><g transform="matrix(1,0,0,1,109.098095,339.496741)"><text x="704.905px" y="160.67px" style="font-family:'ArialMT', 'Arial', sans-serif;font-size:21.144px;fill:#2b2b2b;fill-opacity:0.99;">Ložnice</text><g transform="matrix(21.144211,0,0,21.144211,783.073146,184.29246)"></g><text x="699.632px" y="184.292px" style="font-family:'ArialMT', 'Arial', sans-serif;font-size:21.144px;fill:#2b2b2b;fill-opacity:0.99;">14.96 m²</text></g><g transform="matrix(1,0,0,1,-341.963362,518.578075)"><text x="572.458px" y="217.222px" style="font-family:'ArialMT', 'Arial', sans-serif;font-size:21.144px;fill:#2b2b2b;fill-opacity:0.99;">Pokoj</text><g transform="matrix(21.144211,0,0,21.144211,640.629052,240.84446)"></g><text x="557.188px" y="240.844px" style="font-family:'ArialMT', 'Arial', sans-serif;font-size:21.144px;fill:#2b2b2b;fill-opacity:0.99;">12.29 m²</text></g><g transform="matrix(1,0,0,1,-141.13431,451.667941)"><text x="639.953px" y="196.093px" style="font-family:'ArialMT', 'Arial', sans-serif;font-size:21.144px;fill:#2b2b2b;fill-opacity:0.99;">Chodba</text><text x="630.563px" y="219.715px" style="font-family:'ArialMT', 'Arial', sans-serif;font-size:21.144px;fill:#2b2b2b;fill-opacity:0.99;">horní část</text><g transform="matrix(21.144211,0,0,21.144211,714.278858,243.336991)"></g><text x="642.597px" y="243.337px" style="font-family:'ArialMT', 'Arial', sans-serif;font-size:21.144px;fill:#2b2b2b;fill-opacity:0.99;">5.84 m²</text></g><g transform="matrix(1,0,0,1,89.823225,460.834953)"><text x="705.315px" y="198.988px" style="font-family:'ArialMT', 'Arial', sans-serif;font-size:21.144px;fill:#2b2b2b;fill-opacity:0.99;">Koupelna</text><g transform="matrix(21.144211,0,0,21.144211,785.834114,222.60979)"></g><text x="714.152px" y="222.61px" style="font-family:'ArialMT', 'Arial', sans-serif;font-size:21.144px;fill:#2b2b2b;fill-opacity:0.99;">6.69 m²</text></g><g transform="matrix(1,0,0,1,90.887464,751.36282)"><text x="705.315px" y="198.988px" style="font-family:'ArialMT', 'Arial', sans-serif;font-size:21.144px;fill:#2b2b2b;fill-opacity:0.99;">Koupelna</text><g transform="matrix(21.144211,0,0,21.144211,785.834114,222.60979)"></g><text x="714.152px" y="222.61px" style="font-family:'ArialMT', 'Arial', sans-serif;font-size:21.144px;fill:#2b2b2b;fill-opacity:0.99;">5.79 m²</text></g><path d="M1083.587,581.484l-11.667,0l0,202.917l11.667,0l0,-202.917Z" style="fill:#ddd;"/><path d="M1071.921,784.4l0,-202.917" style="fill:none;fill-rule:nonzero;stroke:#2b2b2b;stroke-width:2.95px;stroke-linecap:round;"/><rect x="617.337" y="784.4" width="466.25" height="21.25" style="fill:#ddd;"/><path d="M617.337,784.4l454.583,0" style="fill:none;fill-rule:nonzero;stroke:#2b2b2b;stroke-width:2.95px;stroke-linecap:round;"/><path d="M773.587,162.317l-47.083,0l0,47.083l47.083,0l0,-47.083Z" style="fill:#ddb682;stroke:#000;stroke-width:0.77px;"/><path d="M1033.587,162.317l-47.5,0l0,47.083l47.5,0l0,-47.083Z" style="fill:#ddb682;stroke:#000;stroke-width:0.77px;"/><path d="M967.754,170.234l-70.833,0l0,59.167l70.833,0l0,-59.167Z" style="fill:#69b2ff;fill-opacity:0.5;"/><path d="M773.587,410.234l0,-100.833l65,0l0,-75.833l147.5,0l0,176.667l-212.5,0Z" style="fill:#69b2ff;fill-opacity:0.5;"/><path d="M838.587,233.567l-65,75.833l0,-147.083l212.5,0l0,71.25l-147.5,0Zm58.333,-4.167l70.833,0l0,-59.167l-70.833,0l0,59.167Zm-105,0l71.25,0l0,-59.167l-71.25,0l0,59.167Z" style="fill:#e5fcff;fill-opacity:0.5;"/><path d="M863.171,170.234l-71.25,0l0,59.167l71.25,0l0,-59.167Z" style="fill:#69b2ff;fill-opacity:0.5;"/><path d="M773.587,309.4l65,-75.833l0,75.833l-65,0Z" style="fill:#e5fcff;fill-opacity:0.5;"/><path d="M726.504,209.4l0,-47.083l307.083,0l0,47.083l-47.5,0l0,200.833l-212.5,0l0,-200.833l-47.083,0Z" style="fill:none;fill-rule:nonzero;stroke:#000;stroke-width:0.77px;"/><path d="M791.921,229.4l71.25,0l0,-59.167l-71.25,0l0,59.167Z" style="fill:none;stroke:#000;stroke-width:0.77px;"/><rect x="896.921" y="170.234" width="70.833" height="59.167" style="fill:none;stroke:#000;stroke-width:0.77px;"/><path d="M986.087,233.567l-147.5,0l-65,75.833l65,0l0,-75.833" style="fill:none;fill-rule:nonzero;stroke:#000;stroke-width:0.77px;"/><path d="M773.587,209.4l0,-47.083" style="fill:none;fill-rule:nonzero;stroke:#000;stroke-width:0.77px;"/><path d="M986.087,209.4l0,-47.083" style="fill:none;fill-rule:nonzero;stroke:#000;stroke-width:0.77px;"/><path d="M103.171,349.817l12.083,-24.167l-2.5,-1.25c-0.833,0 -1.25,-0.833 -1.667,-1.667c0,-0.833 0,-1.667 0.417,-2.5c8.75,-14.167 27.083,-19.167 42.083,-11.667c14.583,7.5 21.667,25 15.833,40.417c-0.417,0.833 -0.833,1.667 -1.667,2.083c-0.833,0 -1.667,0 -2.5,-0.417l-2.5,-1.25l-12.083,24.167l-47.5,-23.75Z" style="fill:#cfd4a2;"/><path d="M162.754,349.4l-12.083,24.167" style="fill:none;fill-rule:nonzero;stroke:#000;stroke-width:0.77px;"/><path d="M169.421,348.984c-0.417,0.833 -0.833,1.667 -1.667,2.083c-0.833,0 -1.667,0 -2.5,-0.417" style="fill:none;fill-rule:nonzero;stroke:#000;stroke-width:0.77px;"/><path d="M115.254,325.65l-2.5,-1.25" style="fill:none;fill-rule:nonzero;stroke:#000;stroke-width:0.77px;"/><path d="M165.254,350.65l-2.5,-1.25" style="fill:none;fill-rule:nonzero;stroke:#000;stroke-width:0.77px;"/><path d="M115.254,325.65c6.667,-12.917 22.5,-18.333 35.417,-11.667c13.333,6.667 18.75,22.5 12.083,35.417" style="fill:none;fill-rule:nonzero;stroke:#000;stroke-width:0.77px;"/><path d="M111.504,320.234c8.75,-14.167 27.083,-19.167 42.083,-11.667c14.583,7.5 21.667,25 15.833,40.417" style="fill:none;fill-rule:nonzero;stroke:#000;stroke-width:0.77px;"/><path d="M103.171,349.817l12.083,-24.167" style="fill:none;fill-rule:nonzero;stroke:#000;stroke-width:0.77px;"/><path d="M150.671,373.567l-47.5,-23.75" style="fill:none;fill-rule:nonzero;stroke:#000;stroke-width:0.77px;"/><path d="M112.754,324.4c-0.833,0 -1.25,-0.833 -1.667,-1.667c0,-0.833 0,-1.667 0.417,-2.5" style="fill:none;fill-rule:nonzero;stroke:#000;stroke-width:0.77px;"/><path d="M50.254,410.234l70.833,0l0,-141.667l-70.833,0l0,141.667Z" style="fill:#ddb682;stroke:#000;stroke-width:0.77px;"/><rect x="321.921" y="581.484" width="124.167" height="70.833" style="fill:#ddb682;stroke:#000;stroke-width:0.77px;"/><path d="M446.087,652.317l-62.083,-70.833l-62.083,70.833" style="fill:none;fill-rule:nonzero;stroke:#000;stroke-width:0.3px;"/><rect x="180.254" y="581.484" width="141.667" height="70.833" style="fill:#ddb682;stroke:#000;stroke-width:0.77px;"/><path d="M321.921,652.317l-70.833,-70.833l-70.833,70.833" style="fill:none;fill-rule:nonzero;stroke:#000;stroke-width:0.3px;"/><rect x="50.254" y="581.484" width="130" height="70.833" style="fill:#ddb682;stroke:#000;stroke-width:0.77px;"/><path d="M180.254,652.317l-65,-70.833l-65,70.833" style="fill:none;fill-rule:nonzero;stroke:#000;stroke-width:0.3px;"/><path d="M50.254,1012.317l88.75,0l0,-74.583l40.833,-31.667l-129.583,0l0,106.25Zm73.333,-18.333l-61.667,0l0,-65.833l61.667,0l0,65.833Z" style="fill:#e5fffe;fill-opacity:0.5;"/><path d="M179.837,937.734l-40.833,0l0,74.583l159.167,0l0,-106.25l-118.333,0l0,31.667Z" style="fill:#bedcff;"/><rect x="61.921" y="928.15" width="61.667" height="65.833" style="fill:#bedcff;"/><path d="M179.837,937.734l0,-31.667l-40.833,31.667l40.833,0Z" style="fill:#e5fffe;fill-opacity:0.5;"/><path d="M298.171,906.067l-247.917,0l0,106.25l247.917,0l0,-106.25Z" style="fill:none;stroke:#000;stroke-width:0.77px;"/><path d="M139.004,1012.317l0,-74.583l40.833,-31.667l0,31.667l-40.833,0" style="fill:none;fill-rule:nonzero;stroke:#000;stroke-width:0.77px;"/><path d="M123.587,928.15l-61.667,0l0,65.833l61.667,0l0,-65.833Z" style="fill:none;stroke:#000;stroke-width:0.77px;"/><path d="M131.504,850.234l23.75,-12.083l1.25,2.5c0.417,0.833 0.833,1.25 1.667,1.667c0.833,0 1.667,0 2.5,-0.417c14.167,-9.167 19.167,-27.083 11.667,-42.083c-7.5,-15 -25,-21.667 -40.417,-15.833c-0.833,0.417 -1.667,0.833 -1.667,1.667c-0.417,0.833 -0.417,1.667 0,2.5l1.25,2.5l-23.75,11.667l23.75,47.917Z" style="fill:#cfd4a2;"/><path d="M131.504,790.65l-23.75,11.667" style="fill:none;fill-rule:nonzero;stroke:#000;stroke-width:0.77px;"/><path d="M131.921,783.984c-0.833,0.417 -1.667,0.833 -1.667,1.667c-0.417,0.833 -0.417,1.667 0,2.5" style="fill:none;fill-rule:nonzero;stroke:#000;stroke-width:0.77px;"/><path d="M155.254,838.15l1.25,2.5" style="fill:none;fill-rule:nonzero;stroke:#000;stroke-width:0.77px;"/><path d="M130.254,788.15l1.25,2.5" style="fill:none;fill-rule:nonzero;stroke:#000;stroke-width:0.77px;"/><path d="M155.254,838.15c12.917,-6.667 18.333,-22.5 11.667,-35.833c-6.25,-12.917 -22.5,-18.333 -35.417,-11.667" style="fill:none;fill-rule:nonzero;stroke:#000;stroke-width:0.77px;"/><path d="M160.671,841.9c14.167,-9.167 19.167,-27.083 11.667,-42.083c-7.5,-15 -25,-21.667 -40.417,-15.833" style="fill:none;fill-rule:nonzero;stroke:#000;stroke-width:0.77px;"/><path d="M131.504,850.234l23.75,-12.083" style="fill:none;fill-rule:nonzero;stroke:#000;stroke-width:0.77px;"/><path d="M107.754,802.317l23.75,47.917" style="fill:none;fill-rule:nonzero;stroke:#000;stroke-width:0.77px;"/><path d="M156.504,840.65c0.417,0.833 0.833,1.25 1.667,1.667c0.833,0 1.667,0 2.5,-0.417" style="fill:none;fill-rule:nonzero;stroke:#000;stroke-width:0.77px;"/><path d="M121.087,758.567l-70.833,0l0,147.5l70.833,0l0,-147.5Z" style="fill:#ddb682;stroke:#000;stroke-width:0.77px;"/><path d="M304.004,1012.734l71.25,0l0,-35.833l-71.25,0l0,35.833Z" style="fill:#ddb682;stroke:#000;stroke-width:0.77px;"/><path d="M375.254,976.9l-71.25,35.833" style="fill:none;fill-rule:nonzero;stroke:#000;stroke-width:0.3px;"/><path d="M375.254,1012.734l70.833,0l0,-35.833l-70.833,0l0,35.833Z" style="fill:#ddb682;stroke:#000;stroke-width:0.77px;"/><path d="M446.087,976.9l-70.833,35.833" style="fill:none;fill-rule:nonzero;stroke:#000;stroke-width:0.3px;"/><path d="M50.254,268.567l88.75,0l0,-75l40.833,-31.25l-129.583,0l0,106.25Zm73.333,-18.75l-61.667,0l0,-65.417l61.667,0l0,65.417Z" style="fill:#e5fffe;fill-opacity:0.5;"/><path d="M179.837,193.567l-40.833,0l0,75l159.167,0l0,-106.25l-118.333,0l0,31.25Z" style="fill:#bedcff;"/><rect x="61.921" y="184.4" width="61.667" height="65.417" style="fill:#bedcff;"/><path d="M179.837,193.567l0,-31.25l-40.833,31.25l40.833,0Z" style="fill:#e5fffe;fill-opacity:0.5;"/><path d="M298.171,162.317l-247.917,0l0,106.25l247.917,0l0,-106.25Z" style="fill:none;stroke:#000;stroke-width:0.77px;"/><path d="M139.004,268.567l0,-75l40.833,-31.25l0,31.25l-40.833,0" style="fill:none;fill-rule:nonzero;stroke:#000;stroke-width:0.77px;"/><path d="M123.587,184.4l-61.667,0l0,65.417l61.667,0l0,-65.417Z" style="fill:none;stroke:#000;stroke-width:0.77px;"/><path d="M1071.921,581.484l-100.417,0l0,202.917l100.417,0l0,-202.917Z" style="fill:#f7f7f7;stroke:#000;stroke-width:1.48px;"/><path d="M1051.921,720.234l0,-74.583c0,-19.167 -10,-28.75 -30,-28.75c-20,0 -30,9.583 -30,28.75l0,74.583c0,19.167 10,28.75 30,28.75c20,0 30,-9.583 30,-28.75Z" style="fill:none;fill-rule:nonzero;stroke:#000;stroke-width:0.3px;"/><path d="M1059.004,684.817c2.917,0.417 5.833,0.417 8.75,0.417c1.25,0 1.667,0 2.5,-0.417c0.417,-0.417 0.833,-1.25 0.833,-1.667c0,-0.833 -0.417,-1.667 -0.833,-2.083c-0.833,-0.417 -1.25,-0.417 -2.5,-0.417c-2.917,0 -5.833,0.417 -8.75,0.417c-1.25,0 -2.083,0.833 -2.083,2.083c0,1.25 0.833,1.667 2.083,1.667Z" style="fill:none;fill-rule:nonzero;stroke:#000;stroke-width:0.3px;"/><path d="M1063.171,680.65l0,-47.083c0,-25.417 -13.75,-37.917 -41.25,-37.917c-27.917,0 -41.667,12.5 -41.667,37.917l0,98.75c0,25.417 13.75,37.917 41.667,37.917c27.5,0 41.25,-12.5 41.25,-37.917l0,-46.667" style="fill:none;fill-rule:nonzero;stroke:#000;stroke-width:0.3px;"/><path d="M1020.254,680.65c-1.667,0.833 -2.083,2.5 -0.833,4.167c0.833,1.25 2.5,1.667 4.167,0.417c1.25,-0.833 1.667,-2.5 0.833,-3.75c-1.25,-1.667 -2.917,-2.083 -4.167,-0.833" style="fill:none;fill-rule:nonzero;stroke:#000;stroke-width:0.3px;"/><path d="M1055.671,681.067c-2.083,0 -3.333,0.417 -3.333,2.083c0,1.25 1.25,2.083 3.333,2.083c3.75,0 7.5,0.417 11.667,0.417c1.25,0 2.083,0 2.917,-0.833c0.833,-0.417 1.25,-1.25 1.25,-1.667c0,-0.833 -0.417,-1.667 -1.25,-2.083c-0.833,-0.417 -1.667,-0.833 -2.917,-0.833c-4.167,0.417 -7.917,0.417 -11.667,0.833Z" style="fill:none;fill-rule:nonzero;stroke:#000;stroke-width:0.3px;"/><path d="M1066.087,680.234l0,-48.333c0,-26.25 -14.583,-39.167 -44.167,-39.167c-29.583,0 -44.583,12.917 -44.583,39.167l0,102.083c0,26.25 15,39.167 44.583,39.167c29.583,0 44.167,-12.917 44.167,-39.167l0,-48.333" style="fill:none;fill-rule:nonzero;stroke:#000;stroke-width:0.3px;"/><path d="M723.587,784.4l40,0l1.25,-42.083c-0.417,-11.25 -9.583,-20.417 -21.25,-20.417c-11.667,0 -20.833,9.167 -21.25,20.417l1.25,42.083Z" style="fill:#e0e0e0;stroke:#000;stroke-width:0.3px;"/><path d="M743.587,726.067c3.75,0 7.083,0.833 10,2.917c5,3.75 7.917,9.583 7.917,15.833c-0.417,6.25 -3.333,12.083 -8.333,15.417c-2.917,2.083 -6.25,2.917 -9.583,2.917c-3.333,0 -6.667,-0.833 -9.583,-2.917c-5,-3.333 -7.917,-9.167 -8.333,-15.417c0,-6.25 2.917,-12.083 7.917,-15.833c2.917,-2.083 6.25,-2.917 10,-2.917Z" style="fill:#b4b4b4;stroke:#000;stroke-width:0.3px;"/><path d="M743.587,784.4l0,-2.5" style="fill:none;fill-rule:nonzero;stroke:#000;stroke-width:0.3px;"/><path d="M753.171,760.234c0,-1.667 0,-2.917 -0.417,-4.583c0,-1.25 -0.417,-2.5 -1.25,-3.75c-0.833,-1.25 -1.667,-2.083 -2.5,-2.917c-0.833,-0.417 -1.667,-1.25 -2.5,-1.25c-0.833,-0.417 -1.667,-0.417 -2.083,-0.417l-0.833,0" style="fill:none;fill-rule:nonzero;stroke:#000;stroke-width:0.3px;"/><path d="M752.754,755.234c-0.833,0.417 -1.25,1.25 -2.083,1.667c-0.833,0.417 -1.667,0.417 -2.5,0.833c-0.833,-0 -1.667,0.417 -2.5,0.417l-2.083,0" style="fill:none;fill-rule:nonzero;stroke:#000;stroke-width:0.3px;"/><path d="M751.087,770.65c0,0.69 0.653,1.25 1.458,1.25c0.805,0 1.458,-0.56 1.458,-1.25c0,-0.69 -0.653,-1.25 -1.458,-1.25c-0.805,0 -1.458,0.56 -1.458,1.25Z" style="fill:none;stroke:#000;stroke-width:0.3px;"/><path d="M734.004,760.234c0,-1.667 0,-2.917 0.417,-4.583c0,-1.25 0.417,-2.5 1.25,-3.75c0.833,-1.25 1.667,-2.083 2.5,-2.917c0.833,-0.417 1.667,-1.25 2.5,-1.25c0.833,-0.417 1.667,-0.417 2.083,-0.417l0.833,0" style="fill:none;fill-rule:nonzero;stroke:#000;stroke-width:0.3px;"/><path d="M734.421,755.234c0.833,0.417 1.25,1.25 2.083,1.667c0.833,0.417 1.667,0.417 2.5,0.833c0.833,0 1.667,0.417 2.5,0.417l2.083,0" style="fill:none;fill-rule:nonzero;stroke:#000;stroke-width:0.3px;"/><path d="M736.087,770.65c0,-0.69 -0.653,-1.25 -1.458,-1.25c-0.805,0 -1.458,0.56 -1.458,1.25c0,0.69 0.653,1.25 1.458,1.25c0.805,0 1.458,-0.56 1.458,-1.25Z" style="fill:none;stroke:#000;stroke-width:0.3px;"/><path d="M929.837,768.567l27.917,0c3.333,0 5,-1.667 5,-5l0,-24.583c0,-3.333 -1.667,-5.417 -5,-5.417l-57.917,0c-3.333,0 -5,2.083 -5,5.417l0,24.583c0,3.333 1.667,5 5,5l20.833,0" style="fill:none;fill-rule:nonzero;stroke:#000;stroke-width:0.3px;"/><path d="M970.671,726.484l-162.5,0c-1.25,0 -1.667,0.833 -1.667,2.083l0,55.417c0,0.417 0,0.417 0.417,0.417l164.583,0c0,0 0.417,0 0.417,-0.417l0,-55.417c0,-1.25 -0.417,-2.083 -1.25,-2.083Z" style="fill:#f7f7f7;stroke:#000;stroke-width:1.48px;"/><path d="M850.671,768.567l27.917,0c3.333,0 5,-1.667 5,-5l0,-24.583c0,-3.333 -1.667,-5.417 -5,-5.417l-57.917,0c-3.333,0 -5,2.083 -5,5.417l0,24.583c0,3.333 1.667,5 5,5l20.833,0" style="fill:none;fill-rule:nonzero;stroke:#000;stroke-width:0.3px;"/><path d="M920.671,772.734l-0.833,0l0,4.583l3.333,0l0,-4.167c0,-0.417 0,-0.417 -0.417,-0.417l-1.25,0" style="fill:none;fill-rule:nonzero;stroke:#000;stroke-width:0.3px;"/><path d="M841.504,772.734l-0.417,0c-0.417,0 -0.417,0 -0.417,0.417l0,4.167l3.333,0l0,-4.167c0,-0.417 0,-0.417 -0.417,-0.417l-1.25,0" style="fill:none;fill-rule:nonzero;stroke:#000;stroke-width:0.3px;"/><path d="M927.337,775.234l0,-25.417c0,-0.833 0.417,-1.25 1.25,-1.25c0.833,0 1.25,0.417 1.25,1.25l0,26.25c-0.417,0 -0.833,0.417 -1.25,0.417c0,0 -0.417,-0.417 -0.833,-0.417c0,-0.417 -0.417,-0.833 -0.417,-0.833Z" style="fill:none;fill-rule:nonzero;stroke:#000;stroke-width:0.3px;"/><path d="M848.587,775.234c-0.417,-8.333 -0.417,-17.083 -0.417,-25.417c0,-0.833 0.417,-1.25 1.25,-1.25c0.833,0 1.25,0.417 1.25,1.25c0,8.333 0,17.083 0.417,25.417c0,0 -0.417,0.417 -0.417,0.833c-0.417,0 -0.833,0.417 -0.833,0.417c-0.417,0 -0.833,-0.417 -1.25,-0.417l0,-0.833Z" style="fill:none;fill-rule:nonzero;stroke:#000;stroke-width:0.3px;"/><path d="M927.337,756.9c-0.833,0.417 -1.667,1.25 -1.667,2.5c0,1.25 0.833,2.083 1.667,2.5" style="fill:none;fill-rule:nonzero;stroke:#000;stroke-width:0.3px;"/><path d="M848.171,756.9c-0.833,0.417 -1.667,1.25 -1.667,2.5c0,1.25 0.833,2.083 1.667,2.5" style="fill:none;fill-rule:nonzero;stroke:#000;stroke-width:0.3px;"/><path d="M927.337,771.9c-1.25,0.833 -2.083,2.083 -1.667,3.75c0.417,1.25 1.667,2.5 2.917,2.5c1.667,0 2.917,-0.833 3.333,-2.5c0.417,-1.667 -0.417,-2.917 -2.083,-3.333" style="fill:none;fill-rule:nonzero;stroke:#000;stroke-width:0.3px;"/><path d="M848.587,771.9c-1.667,0.833 -2.5,2.083 -2.083,3.75c0.417,1.25 1.667,2.5 2.917,2.5c1.667,0 2.917,-0.833 3.333,-2.5c0.417,-1.667 -0.417,-2.917 -1.667,-3.333" style="fill:none;fill-rule:nonzero;stroke:#000;stroke-width:0.3px;"/><path d="M929.837,761.9c1.25,-0.417 1.667,-1.667 1.667,-2.5c0,-1.25 -0.417,-2.083 -1.667,-2.5" style="fill:none;fill-rule:nonzero;stroke:#000;stroke-width:0.3px;"/><path d="M850.671,761.9c1.25,-0.417 1.667,-1.667 1.667,-2.5c0,-1.25 -0.417,-2.083 -1.667,-2.5" style="fill:none;fill-rule:nonzero;stroke:#000;stroke-width:0.3px;"/><path d="M926.921,777.734l-3.75,0l0,-5l3.333,0" style="fill:none;fill-rule:nonzero;stroke:#000;stroke-width:0.3px;"/><path d="M847.754,777.734l-3.75,0l0,-5l3.333,0" style="fill:none;fill-rule:nonzero;stroke:#000;stroke-width:0.3px;"/><path d="M921.504,773.984l0,-7.083c0,-0.417 0,-0.417 -0.417,-0.417c-0.417,0 -0.417,0 -0.417,0.417l0,7.083" style="fill:none;fill-rule:nonzero;stroke:#000;stroke-width:0.3px;"/><path d="M842.337,773.984l0,-7.083c0,-0.417 0,-0.417 -0.417,-0.417c-0.417,0 -0.417,0 -0.417,0.417l0,7.083" style="fill:none;fill-rule:nonzero;stroke:#000;stroke-width:0.3px;"/><path d="M921.504,768.567l5.833,0" style="fill:none;fill-rule:nonzero;stroke:#000;stroke-width:0.3px;"/><path d="M842.337,768.567l5.833,0" style="fill:none;fill-rule:nonzero;stroke:#000;stroke-width:0.3px;"/><path d="M929.837,768.567l27.917,0c3.333,0 5,-1.667 5,-5l0,-24.583c0,-3.333 -1.667,-5.417 -5,-5.417l-57.917,0c-3.333,0 -5,2.083 -5,5.417l0,24.583c0,3.333 1.667,5 5,5l20.833,0" style="fill:none;fill-rule:nonzero;stroke:#000;stroke-width:0.3px;"/><path d="M522.754,286.067l-76.667,0l0,141.667l76.667,0l0,-141.667Z" style="fill:#ddb682;stroke:#000;stroke-width:0.77px;"/><path d="M446.087,286.067l76.667,70.833l-76.667,70.833" style="fill:none;fill-rule:nonzero;stroke:#000;stroke-width:0.3px;"/><path d="M522.754,162.317l-76.667,0l0,123.75l76.667,0l0,-123.75Z" style="fill:#ddb682;stroke:#000;stroke-width:0.77px;"/><path d="M446.087,162.317l76.667,61.667l-76.667,62.083" style="fill:none;fill-rule:nonzero;stroke:#000;stroke-width:0.3px;"/><path d="M617.337,286.067l-77.083,0l0,141.667l77.083,0l0,-141.667Z" style="fill:#ddb682;stroke:#000;stroke-width:0.77px;"/><path d="M617.337,286.067l-77.083,70.833l77.083,70.833" style="fill:none;fill-rule:nonzero;stroke:#000;stroke-width:0.3px;"/><path d="M617.337,162.317l-77.083,0l0,123.75l77.083,0l0,-123.75Z" style="fill:#ddb682;stroke:#000;stroke-width:0.77px;"/><path d="M617.337,162.317l-77.083,61.667l77.083,62.083" style="fill:none;fill-rule:nonzero;stroke:#000;stroke-width:0.3px;"/><path d="M974.421,913.567l2.5,0l0,-68.75l-2.5,0l0,68.75Z" style="fill:#f7f7f7;stroke:#000;stroke-width:0.3px;"/><path d="M974.421,995.234l0,-0.417m0,-0.417l0,-0.833m0,-0.417l0,-0.417m0,-0.417l0,-0.833m0,-0.417l0,-0.833m0,-0.417l0,-0.417m0,-0.417l0,-0.833m0,-0.417l0,-0.833m0,0l0,-0.833m0,-0.417l0,-0.833m0,-0.417l0,-0.417m0,-0.417l0,-0.833m0,-0.417l0,-0.833m0,-0.417l0,-0.417m0,-0.417l0,-0.833m0,-0.417l0,-0.833m0,0l0,-0.833m0,-0.417l0,-0.833m0,-0.417l0,-0.417m0,-0.417l0,-0.833m0,-0.417l0,-0.833m0,-0.417l0,-0.417m0,-0.417l0,-0.833m0,-0.417l0,-0.833m0,-0.417l0,-0.417m0,-0.417l0,-0.833m0,-0.417l0,-0.833m0,0l0,-0.833m0,-0.417l0,-0.833m0,-0.417l0,-0.417m0,-0.417l0,-0.833m0,-0.417l0,-0.833m0,-0.417l0,-0.417m0,-0.417l0,-0.833m0,-0.417l0,-0.833m0,0l0,-0.833m0,-0.417l0,-0.833m0,-0.417l0,-0.417m0,-0.417l0,-0.833m0,-0.417l0,-0.833m0,-0.417l0,-0.417m0,-0.417l0,-0.833m0,-0.417l0,-0.833m0,-0.417l0,-0.417m0,-0.417l0,-0.833m0,-0.417l0,-0.833m0,0l0,-0.833m0,-0.417l0,-0.833m0,-0.417l0,-0.417m0,-0.417l0,-0.833m0,-0.417l0,-0.833m0,-0.417l0,-0.417m0,-0.417l0,-0.833m0,-0.417l0,-0.833m0,0l0,-0.833m0,-0.417l0,-0.833m0,-0.417l0,-0.833m0,0l0,-0.833m0,-0.417l0,-0.833m0,-0.417l0,-0.417m0,-0.417l0,-0.833m0,-0.417l0,-0.833m0,-0.417l0,-0.417m0,-0.417l0,-0.833m0,-0.417l0,-0.833m0,0l0,-0.833m0,-0.417l0,-0.833m0,-0.417l0,-0.417m0,-0.417l0,-0.833m0,-0.417l0,-0.833m0,-0.417l0,-0.417m0,-0.417l0,-0.833m0,-0.417l0,-0.833m0,-0.417l0,-0.417m0,-0.417l0,-0.833" style="fill:none;fill-rule:nonzero;stroke:#bcbcbc;stroke-width:0.3px;"/><path d="M977.337,841.484l-3.333,0l0,3.333l3.333,0l0,-3.333Z" style="fill:#f7f7f7;stroke:#000;stroke-width:1.48px;"/><path d="M976.921,913.567l0,0.417m0,0.417l0,0.833m0,0.417l0,0.417m0,0.417l0,0.833m0,0.417l0,0.833m0,0l0,0.833m0,0.417l0,0.833m0,0.417l0,0.417m0,0.417l0,0.833m0,0.417l0,0.833m0,0.417l0,0.417m0,0.417l0,0.833m0,0.417l0,0.833m0,0l0,0.833m0,0.417l0,0.833m0,0.417l0,0.833m0,0l0,0.833m0,0.417l0,0.833m0,0.417l0,0.417m0,0.417l0,0.833m0,0.417l0,0.833m0,0.417l0,0.417m0,0.417l0,0.833m0,0.417l0,0.833m0,0l0,0.833m0,0.417l0,0.833m0,0.417l0,0.417m0,0.417l0,0.833m0,0.417l0,0.833m0,0.417l0,0.417m0,0.417l0,0.833m0,0.417l0,0.833m0,0.417l0,0.417m0,0.417l0,0.833m0,0.417l0,0.833m0,0l0,0.833m0,0.417l0,0.833m0,0.417l0,0.417m0,0.417l0,0.833m0,0.417l0,0.833m0,0.417l0,0.417m0,0.417l0,0.833m0,0.417l0,0.833m0,0l0,0.833m0,0.417l0,0.833m0,0.417l0,0.417m0,0.417l0,0.833m0,0.417l0,0.833m0,0.417l0,0.417m0,0.417l0,0.833m0,0.417l0,0.833m0,0.417l0,0.417m0,0.417l0,0.833m0,0.417l0,0.833m0,0l0,0.833m0,0.417l0,0.833m0,0.417l0,0.417m0,0.417l0,0.833m0,0.417l0,0.833m0,0.417l0,0.417m0,0.417l0,0.833m0,0.417l0,0.833m0,0l0,0.833m0,0.417l0,0.833m0,0.417l0,0.833m0,0l0,0.833m0,0.417l0,0.833m0,0.417l0,0.417m0,0.417l0,0.833m0,0.417l0,0.833m0,0.417l0,0.417m0,0.417l0,0.833m0,0.417l0,0.833m0,0l0,0.833m0,0.417l0,0.833m0,0.417l0,0.417m0,0.417l0,0.833m0,0.417l0,0.417" style="fill:none;fill-rule:nonzero;stroke:#bcbcbc;stroke-width:0.3px;"/><path d="M919.004,945.234l1.667,1.667l1.25,-1.25l-1.667,-1.667l-1.25,1.25Z" style="fill:#f7f7f7;"/><path d="M920.254,943.984l-1.25,1.25l1.667,1.667l1.25,-1.25" style="fill:none;fill-rule:nonzero;stroke:#000;stroke-width:0.3px;"/><path d="M974.421,998.15l1.667,-1.667l-58.75,-58.75l-1.667,1.667l58.75,58.75Z" style="fill:#f7f7f7;stroke:#000;stroke-width:0.3px;"/><path d="M924.421,942.734l-1.667,-1.667l-1.25,1.25l1.667,1.667l1.25,-1.25Z" style="fill:#f7f7f7;"/><path d="M921.504,942.317l1.25,-1.25l1.667,1.667l-1.25,1.25" style="fill:none;fill-rule:nonzero;stroke:#000;stroke-width:0.3px;"/><path d="M917.337,937.734c15.833,-15.417 37.083,-24.167 59.583,-24.167" style="fill:none;fill-rule:nonzero;stroke:#000;stroke-width:0.3px;"/><path d="M974.421,1008.984l2.5,0l0,-10.833l-2.5,0l0,10.833Z" style="fill:#f7f7f7;stroke:#000;stroke-width:0.3px;"/><path d="M977.337,1008.984l-3.333,0l0,3.75l3.333,0l0,-3.75Z" style="fill:#f7f7f7;stroke:#000;stroke-width:1.48px;"/><path d="M763.587,841.067l-40,0l-1.25,42.083c0.417,11.667 9.583,20.417 21.25,20.417c11.667,0 20.833,-8.75 21.25,-20.417l-1.25,-42.083Z" style="fill:#e0e0e0;stroke:#000;stroke-width:0.3px;"/><path d="M743.587,899.4c-3.75,0.417 -7.083,-0.833 -10,-2.917c-5,-3.75 -7.917,-9.583 -7.917,-15.833c0.417,-5.833 3.333,-11.667 8.333,-15.417c2.917,-1.667 6.25,-2.5 9.583,-2.5c3.333,0 6.667,0.833 9.583,2.5c5,3.75 7.917,9.583 8.333,15.417c0,6.25 -2.917,12.083 -7.917,15.833c-2.917,2.083 -6.25,3.333 -10,2.917Z" style="fill:#b4b4b4;stroke:#000;stroke-width:0.3px;"/><path d="M743.587,841.067l0,2.5" style="fill:none;fill-rule:nonzero;stroke:#000;stroke-width:0.3px;"/><path d="M734.004,865.65c0,1.25 0,2.917 0.417,4.167c0,1.25 0.417,2.917 1.25,4.167c0.833,0.833 1.667,2.083 2.5,2.5c0.833,0.833 1.667,1.25 2.5,1.667l2.917,0" style="fill:none;fill-rule:nonzero;stroke:#000;stroke-width:0.3px;"/><path d="M734.421,870.234c0.833,-0.417 1.25,-0.833 2.083,-1.25c0.833,-0.417 1.667,-0.833 2.5,-0.833c0.833,-0.417 1.667,-0.417 2.5,-0.417l2.083,-0" style="fill:none;fill-rule:nonzero;stroke:#000;stroke-width:0.3px;"/><path d="M736.087,855.025c0,-0.805 -0.653,-1.458 -1.458,-1.458c-0.805,0 -1.458,0.653 -1.458,1.458c0,0.805 0.653,1.458 1.458,1.458c0.805,0 1.458,-0.653 1.458,-1.458Z" style="fill:none;stroke:#000;stroke-width:0.3px;"/><path d="M753.171,865.65c0,1.25 0,2.917 -0.417,4.167c0,1.25 -0.417,2.917 -1.25,4.167c-0.833,0.833 -1.667,2.083 -2.5,2.5c-0.833,0.833 -1.667,1.25 -2.5,1.667l-2.917,0" style="fill:none;fill-rule:nonzero;stroke:#000;stroke-width:0.3px;"/><path d="M752.754,870.234c-0.833,-0.417 -1.25,-0.833 -2.083,-1.25c-0.833,-0.417 -1.667,-0.833 -2.5,-0.833c-0.833,-0.417 -1.667,-0.417 -2.5,-0.417l-2.083,0" style="fill:none;fill-rule:nonzero;stroke:#000;stroke-width:0.3px;"/><path d="M751.087,855.025c0,0.805 0.653,1.458 1.458,1.458c0.805,0 1.458,-0.653 1.458,-1.458c0,-0.805 -0.653,-1.458 -1.458,-1.458c-0.805,0 -1.458,0.653 -1.458,1.458Z" style="fill:none;stroke:#000;stroke-width:0.3px;"/><path d="M851.504,857.317l-26.25,0c-2.917,0 -4.583,1.667 -4.583,5l0,24.583c0,3.333 1.667,5 4.583,5l55,0c2.917,0 4.583,-1.667 4.583,-5l0,-24.583c0,-3.333 -1.667,-5 -4.583,-5l-20,0" style="fill:none;fill-rule:nonzero;stroke:#000;stroke-width:0.3px;"/><path d="M807.754,898.984l164.583,0c0.833,0 1.667,-0.417 1.667,-1.667l0,-55.417c0,-0.417 -0.417,-0.833 -0.833,-0.833l-166.25,0c-0.417,0 -0.417,0.417 -0.417,0.833l0,55.417c0,1.25 0.417,1.667 1.25,1.667Z" style="fill:#f7f7f7;stroke:#000;stroke-width:1.48px;"/><path d="M858.171,852.734l-0.417,0" style="fill:none;fill-rule:nonzero;stroke:#000;stroke-width:0.3px;"/><path d="M926.504,857.317l-26.25,0c-3.333,0 -5,1.667 -5,5l0,24.583c0,3.333 1.667,5 5,5l54.583,0c3.333,0 5,-1.667 5,-5l0,-24.583c0,-3.333 -1.667,-5 -5,-5l-19.583,0" style="fill:none;fill-rule:nonzero;stroke:#000;stroke-width:0.3px;"/><path d="M860.254,853.15l0.833,0l0,-5l-2.917,0l0,5l1.25,0" style="fill:none;fill-rule:nonzero;stroke:#000;stroke-width:0.3px;"/><path d="M935.254,853.15l0.417,0c0.417,0 0.417,-0.417 0.417,-0.417l0,-4.167c0,0 0,-0.417 -0.417,-0.417l-2.5,0c-0.417,0 -0.417,0.417 -0.417,0.417l0,4.167c0,0 0,0.417 0.417,0.417l1.25,0" style="fill:none;fill-rule:nonzero;stroke:#000;stroke-width:0.3px;"/><path d="M854.004,850.65l0,25c0,0.833 -0.417,1.25 -1.25,1.25c-0.833,0 -1.25,-0.417 -1.25,-1.25l0,-25c0,-0.417 0,-0.833 0.417,-0.833c0,-0.417 0.417,-0.417 0.833,-0.417c0.417,0 0.417,0 0.833,0.417c0,0 0.417,0.417 0.417,0.833Z" style="fill:none;fill-rule:nonzero;stroke:#000;stroke-width:0.3px;"/><path d="M928.587,850.65c0,8.333 0,16.667 0.417,25c0,0.833 -0.417,1.25 -1.25,1.25c-0.833,0 -1.25,-0.417 -1.25,-1.25l0,-25.833c0.417,-0.417 0.833,-0.417 0.833,-0.417c0.417,0 0.833,0 0.833,0.417c0.417,0 0.417,0.417 0.417,0.833Z" style="fill:none;fill-rule:nonzero;stroke:#000;stroke-width:0.3px;"/><path d="M858.171,848.984l-0.417,0" style="fill:none;fill-rule:nonzero;stroke:#000;stroke-width:0.3px;"/><path d="M854.004,868.984c0.833,-0.417 1.667,-1.25 1.667,-2.5c0,-1.25 -0.833,-2.083 -1.667,-2.5" style="fill:none;fill-rule:nonzero;stroke:#000;stroke-width:0.3px;"/><path d="M928.587,868.984c1.25,-0.417 1.667,-1.25 1.667,-2.5c0,-1.25 -0.417,-2.083 -1.667,-2.5" style="fill:none;fill-rule:nonzero;stroke:#000;stroke-width:0.3px;"/><path d="M854.004,853.567c1.25,-0.417 1.667,-2.083 1.667,-3.333c-0.417,-1.667 -1.667,-2.5 -2.917,-2.5c-1.667,0 -2.5,0.833 -2.917,2.5c-0.417,1.25 0.417,2.917 1.667,3.333" style="fill:none;fill-rule:nonzero;stroke:#000;stroke-width:0.3px;"/><path d="M928.587,853.567c1.25,-0.417 2.083,-2.083 1.667,-3.333c-0,-1.667 -1.25,-2.5 -2.917,-2.5c-1.25,-0 -2.5,0.833 -2.917,2.5c-0,1.25 0.417,2.917 2.083,3.333" style="fill:none;fill-rule:nonzero;stroke:#000;stroke-width:0.3px;"/><path d="M851.504,863.984c-0.833,0.417 -1.25,1.25 -1.25,2.5c0,1.25 0.417,2.083 1.25,2.5" style="fill:none;fill-rule:nonzero;stroke:#000;stroke-width:0.3px;"/><path d="M926.504,863.984c-1.25,0.417 -1.667,1.25 -1.667,2.5c0,1.25 0.833,2.083 1.667,2.5" style="fill:none;fill-rule:nonzero;stroke:#000;stroke-width:0.3px;"/><path d="M854.421,848.15l3.333,0l0,5l-2.917,0" style="fill:none;fill-rule:nonzero;stroke:#000;stroke-width:0.3px;"/><path d="M929.004,848.15l3.75,0l0,5l-3.333,0" style="fill:none;fill-rule:nonzero;stroke:#000;stroke-width:0.3px;"/><path d="M859.421,851.9l0,7.083l0.417,0.417l0.417,0l0,-7.5" style="fill:none;fill-rule:nonzero;stroke:#000;stroke-width:0.3px;"/><path d="M934.421,851.9l0,7.083c0,0 0,0.417 0.417,0.417c0.417,0 0.417,-0.417 0.417,-0.417l0,-7.083" style="fill:none;fill-rule:nonzero;stroke:#000;stroke-width:0.3px;"/><path d="M859.421,857.317l-5.417,0" style="fill:none;fill-rule:nonzero;stroke:#000;stroke-width:0.3px;"/><path d="M934.421,857.317l-5.833,0" style="fill:none;fill-rule:nonzero;stroke:#000;stroke-width:0.3px;"/><path d="M851.504,857.317l-26.25,0c-2.917,0 -4.583,1.667 -4.583,5l0,24.583c0,3.333 1.667,5 4.583,5l55,0c2.917,0 4.583,-1.667 4.583,-5l0,-24.583c0,-3.333 -1.667,-5 -4.583,-5l-20,0" style="fill:none;fill-rule:nonzero;stroke:#000;stroke-width:0.3px;"/><path d="M617.337,841.067l466.25,0l0,-17.5l-466.25,0l0,17.5Z" style="fill:#ddd;"/><path d="M1083.587,841.067l-466.25,0" style="fill:none;fill-rule:nonzero;stroke:#2b2b2b;stroke-width:2.95px;stroke-linecap:round;"/><path d="M426.087,581.484l17.5,-17.917m-38.333,17.917l17.5,-17.917m-38.333,17.917l17.5,-17.917m-38.333,17.917l17.5,-17.917m-38.333,17.917l17.5,-17.917m-38.75,17.917l17.917,-17.917m-38.75,17.917l17.917,-17.917m-38.75,17.917l17.917,-17.917m-38.75,17.917l17.917,-17.917m-38.75,17.917l17.5,-17.917m-38.333,17.917l17.5,-17.917m-38.333,17.917l17.5,-17.917m-38.333,17.917l17.5,-17.917m-38.333,17.917l17.5,-17.917m-38.75,17.917l17.917,-17.917m-38.75,17.917l17.917,-17.917m-38.75,17.917l17.917,-17.917m-38.75,17.917l17.917,-17.917m-38.75,17.917l17.917,-17.917" style="fill:none;fill-rule:nonzero;stroke:#000;stroke-opacity:0.31;stroke-width:1.48px;"/><path d="M50.254,563.567l395.833,0m0,17.917l-395.833,0" style="fill:none;fill-rule:nonzero;stroke:#2b2b2b;stroke-width:2.95px;stroke-linecap:round;"/><path d="M609.837,445.65l7.5,-7.5m-28.333,7.5l17.5,-17.917m-38.333,17.917l17.5,-17.917m-38.333,17.917l17.5,-17.917m-38.75,17.917l17.917,-17.917m-38.75,17.917l17.917,-17.917m-38.75,17.917l17.917,-17.917m-38.75,17.917l17.917,-17.917" style="fill:none;fill-rule:nonzero;stroke:#000;stroke-opacity:0.31;stroke-width:1.48px;"/><path d="M540.254,427.734l77.083,0l0,17.917m-17.917,0l-135.833,0m0,-17.917l59.167,0" style="fill:none;fill-rule:nonzero;stroke:#2b2b2b;stroke-width:2.95px;stroke-linecap:round;"/><path d="M446.087,1012.734l17.5,-17.917m-17.5,-3.333l17.5,-17.5m-17.5,-3.333l17.5,-17.5m-17.5,-3.333l17.5,-17.5m-17.5,-3.333l17.5,-17.5m-17.5,-3.333l17.5,-17.917m-17.5,-2.917l17.5,-17.917m-17.5,-2.917l17.5,-17.917m-17.5,-2.917l17.5,-17.917m-17.5,-2.917l17.5,-17.917m-17.5,-3.333l17.5,-17.5m-17.5,-3.333l17.5,-17.5m-17.5,-3.333l10.417,-10.417m-10,-94.583l17.083,-17.083m-17.5,-2.917l17.5,-17.917m-17.5,-3.333l17.5,-17.5m-17.5,-3.333l17.5,-17.5m-17.5,-3.333l17.5,-17.5m-17.5,-107.5l17.5,-17.917" style="fill:none;fill-rule:nonzero;stroke:#000;stroke-opacity:0.31;stroke-width:1.48px;"/><path d="M446.087,656.9l0,-75.417m0,-17.917l0,-7.083l17.5,0l0,100.417l-17.5,0m0,-206.667l0,-22.5l17.5,0m0,17.917l0,4.583l-17.5,0m0,562.083l0,-260.833l17.5,0l0,260.833" style="fill:none;fill-rule:nonzero;stroke:#2b2b2b;stroke-width:2.95px;stroke-linecap:round;"/><path d="M1076.504,823.567l7.083,-7.083m-27.917,7.083l17.5,-17.917m-38.333,17.917l17.5,-17.917m-38.333,17.917l17.5,-17.917m-38.333,17.917l17.5,-17.917m-38.333,17.917l17.5,-17.917m-38.75,17.917l17.917,-17.917m-38.75,17.917l17.917,-17.917m-38.75,17.917l17.917,-17.917m-38.75,17.917l17.917,-17.917m-38.75,17.917l17.5,-17.917m-38.333,17.917l17.5,-17.917m-38.333,17.917l17.5,-17.917m-38.333,17.917l17.5,-17.917m-38.333,17.917l17.5,-17.917m-38.75,17.917l17.917,-17.917m-38.75,17.917l17.917,-17.917m-38.75,17.917l17.917,-17.917m-38.75,17.917l17.917,-17.917m-38.75,17.917l17.5,-17.917m-38.333,17.917l17.5,-17.917m-38.333,17.917l17.5,-17.917m-38.333,17.917l17.5,-17.917" style="fill:none;fill-rule:nonzero;stroke:#000;stroke-opacity:0.31;stroke-width:1.48px;"/><path d="M522.754,427.734l17.5,-17.5m-17.5,-3.333l17.5,-17.5m-17.5,-3.333l17.5,-17.5m-17.5,-3.333l17.5,-17.917m-17.5,-2.917l17.5,-17.917m-17.5,-2.917l17.5,-17.917m-17.5,-2.917l17.5,-17.917m-17.5,-2.917l17.5,-17.917m-17.5,-3.333l17.5,-17.5m-17.5,-3.333l17.5,-17.5m-17.5,-3.333l17.5,-17.5m-17.5,-3.333l17.5,-17.5m-17.5,-3.333l15,-15" style="fill:none;fill-rule:nonzero;stroke:#000;stroke-opacity:0.31;stroke-width:1.48px;"/><path d="M522.754,427.734l0,-265.417m17.5,0l0,265.417" style="fill:none;fill-rule:nonzero;stroke:#2b2b2b;stroke-width:2.95px;stroke-linecap:round;"/><path d="M599.421,563.567l5.833,-5.833m2.083,-106.25l5.833,-5.833" style="fill:none;fill-rule:nonzero;stroke:#000;stroke-opacity:0.31;stroke-width:1.48px;"/><path d="M599.421,451.484l0,-5.833m17.917,0l0,5.833l-17.917,0m0,112.083l0,-5.833l17.917,0l0,5.833" style="fill:none;fill-rule:nonzero;stroke:#2b2b2b;stroke-width:2.95px;stroke-linecap:round;"/><path d="M1076.504,581.484l7.083,-7.083m-27.917,7.083l17.5,-17.917m-38.333,17.917l17.5,-17.917m-38.333,17.917l17.5,-17.917m-38.333,17.917l17.5,-17.917m-38.75,17.917l17.917,-17.917m-38.75,17.917l17.917,-17.917m-38.75,17.917l17.917,-17.917m-38.75,17.917l17.917,-17.917m-38.75,17.917l17.917,-17.917m-38.75,17.917l17.5,-17.917m-38.333,17.917l17.5,-17.917m-38.333,17.917l17.5,-17.917m-38.333,17.917l17.5,-17.917m-38.75,17.917l17.917,-17.917m-38.75,17.917l17.917,-17.917m-38.75,17.917l17.917,-17.917m-38.75,17.917l17.917,-17.917m-38.75,17.917l17.917,-17.917m-38.75,17.917l17.5,-17.917m-38.333,17.917l17.5,-17.917m-38.333,17.917l17.5,-17.917m-38.333,17.917l17.5,-17.917" style="fill:none;fill-rule:nonzero;stroke:#000;stroke-opacity:0.31;stroke-width:1.48px;"/><path d="M617.337,563.567l466.25,0m-11.667,17.917l-454.583,0" style="fill:none;fill-rule:nonzero;stroke:#2b2b2b;stroke-width:2.95px;stroke-linecap:round;"/><path d="M599.421,1012.317l17.917,-17.5m-10,-94.583l10,-10m-17.917,-2.917l17.917,-17.917m-17.917,-2.917l17.917,-17.917m-17.917,-2.917l17.917,-17.917m-17.917,-2.917l17.917,-17.917m-17.917,-3.333l17.917,-17.5m-17.917,-3.333l17.917,-17.5m-17.917,-3.333l17.917,-17.5m-17.917,-3.333l17.917,-17.5m-17.917,-3.333l17.917,-17.917m-17.917,-2.917l5.833,-5.833m1.667,-106.25l10.417,-10m-17.917,-3.333l10.417,-10.417" style="fill:none;fill-rule:nonzero;stroke:#000;stroke-opacity:0.31;stroke-width:1.48px;"/><path d="M617.337,994.817l0,17.917m-17.917,0l0,-17.917l17.917,0m0,-153.75l0,59.167l-17.917,0l0,-206.667l17.917,0l0,90.833m0,-202.917l0,5.833l-17.917,0l0,-23.75" style="fill:none;fill-rule:nonzero;stroke:#2b2b2b;stroke-width:2.95px;stroke-linecap:round;"/><rect x="50.254" y="1012.317" width="413.333" height="35.833" style="fill:#fff;fill-opacity:0.1;"/><path d="M446.921,1048.15l16.667,-17.083m-37.5,17.083l35.417,-35.833m-56.25,35.833l35.417,-35.833m-56.25,35.833l35.417,-35.833m-56.25,35.833l35.417,-35.833m-56.25,35.833l35.417,-35.833m-56.667,35.833l35.417,-35.833m-56.25,35.833l35.417,-35.833m-56.25,35.833l35.417,-35.833m-56.25,35.833l35.417,-35.833m-56.25,35.833l35.417,-35.833m-56.25,35.833l35.417,-35.833m-56.25,35.833l35.417,-35.833m-56.25,35.833l35.417,-35.833m-56.25,35.833l35.417,-35.833m-56.667,35.833l35.417,-35.833m-56.25,35.833l35.417,-35.833m-56.25,35.833l35.417,-35.833m-56.25,35.833l35.417,-35.833m-56.25,35.833l35.417,-35.833m-35.417,14.583l14.583,-14.583m398.75,10.417l-10.417,-10.417m10.417,31.25l-31.25,-31.25m14.583,35.833l-35.417,-35.833m14.583,35.833l-35.417,-35.833m14.583,35.833l-35.417,-35.833m14.583,35.833l-35.417,-35.833m14.583,35.833l-35.417,-35.833m14.583,35.833l-35.833,-35.833m14.583,35.833l-35.417,-35.833m14.583,35.833l-35.417,-35.833m14.583,35.833l-35.417,-35.833m14.583,35.833l-35.417,-35.833m14.583,35.833l-35.417,-35.833m14.583,35.833l-35.417,-35.833m14.583,35.833l-35.417,-35.833m14.583,35.833l-35.417,-35.833m14.583,35.833l-35.833,-35.833m14.583,35.833l-35.417,-35.833m14.583,35.833l-35.417,-35.833m14.583,35.833l-35.417,-35.833m14.583,35.833l-20.833,-21.25" style="fill:none;fill-rule:nonzero;stroke:#000;stroke-opacity:0.31;stroke-width:1.48px;"/><path d="M50.254,1012.317l395.833,0m17.5,0l0,35.833l-413.333,0" style="fill:none;fill-rule:nonzero;stroke:#2b2b2b;stroke-width:2.95px;stroke-linecap:round;"/><rect x="14.837" y="162.317" width="35.417" height="885.833" style="fill:#fff;fill-opacity:0.1;"/><path d="M35.671,1048.15l14.583,-14.583m-35.417,14.583l35.417,-35.833m-35.417,14.583l35.417,-35.417m-35.417,14.583l35.417,-35.417m-35.417,14.583l35.417,-35.417m-35.417,14.583l35.417,-35.417m-35.417,14.583l35.417,-35.417m-35.417,14.583l35.417,-35.417m-35.417,14.583l35.417,-35.417m-35.417,14.583l35.417,-35.417m-35.417,14.583l35.417,-35.417m-35.417,14.167l35.417,-35.417m-35.417,14.583l35.417,-35.417m-35.417,14.583l35.417,-35.417m-35.417,14.583l35.417,-35.417m-35.417,14.583l35.417,-35.417m-35.417,14.583l35.417,-35.417m-35.417,14.583l35.417,-35.417m-35.417,14.583l35.417,-35.417m-35.417,14.583l35.417,-35.417m-35.417,14.167l35.417,-35.417m-35.417,14.583l35.417,-35.417m-35.417,14.583l35.417,-35.417m-35.417,14.583l35.417,-35.417m-35.417,14.583l35.417,-35.417m-35.417,14.583l35.417,-35.417m-35.417,14.583l35.417,-35.417m-35.417,14.583l35.417,-35.417m-35.417,14.583l35.417,-35.417m-35.417,14.167l35.417,-35.417m-35.417,14.583l35.417,-35.417m-35.417,14.583l35.417,-35.417m-35.417,14.583l35.417,-35.417m-35.417,14.583l35.417,-35.417m-35.417,14.583l35.417,-35.417m-35.417,14.583l35.417,-35.417m-35.417,14.583l35.417,-35.417m-35.417,14.583l35.417,-35.417m-35.417,14.167l35.417,-35.417m-35.417,14.583l35.417,-35.417m-35.417,14.583l35.417,-35.417m-35.417,14.583l35.417,-35.417m-35.417,14.583l29.583,-29.583m-29.583,8.75l8.75,-8.75m26.667,2.5l-2.5,-2.5m2.5,23.333l-23.333,-23.333m23.333,44.167l-35.417,-35.417m35.417,56.25l-35.417,-35.417m35.417,56.25l-35.417,-35.417m35.417,56.25l-35.417,-35.417m35.417,56.25l-35.417,-35.417m35.417,56.667l-35.417,-35.833m35.417,56.667l-35.417,-35.417m35.417,56.25l-35.417,-35.417m35.417,56.25l-35.417,-35.417m35.417,56.25l-35.417,-35.417m35.417,56.25l-35.417,-35.417m35.417,56.25l-35.417,-35.417m35.417,56.25l-35.417,-35.417m35.417,56.25l-35.417,-35.417m35.417,56.25l-35.417,-35.417m35.417,56.667l-35.417,-35.417m35.417,56.25l-35.417,-35.417m35.417,56.25l-35.417,-35.417m35.417,56.25l-35.417,-35.417m35.417,56.25l-35.417,-35.417m35.417,56.25l-35.417,-35.417m35.417,56.25l-35.417,-35.417m35.417,56.25l-35.417,-35.417m35.417,56.25l-35.417,-35.417m35.417,56.667l-35.417,-35.417m35.417,56.25l-35.417,-35.417m35.417,56.25l-35.417,-35.417m35.417,56.25l-35.417,-35.417m35.417,56.25l-35.417,-35.417m35.417,56.25l-35.417,-35.417m35.417,56.25l-35.417,-35.417m35.417,56.25l-35.417,-35.417m35.417,56.25l-35.417,-35.417m35.417,56.667l-35.417,-35.417m35.417,56.25l-35.417,-35.417m35.417,56.25l-35.417,-35.417m35.417,56.25l-35.417,-35.417m35.417,56.25l-35.417,-35.417m35.417,56.25l-35.417,-35.417m35.417,56.25l-35.417,-35.417m35.417,56.25l-35.417,-35.417m20.833,42.083l-20.833,-21.25" style="fill:none;fill-rule:nonzero;stroke:#000;stroke-opacity:0.31;stroke-width:1.48px;"/><path d="M14.837,1048.15l0,-885.833m35.417,0l0,401.25m0,17.917l0,430.833m0,35.833l-35.417,0" style="fill:none;fill-rule:nonzero;stroke:#2b2b2b;stroke-width:2.95px;stroke-linecap:round;"/><path d="M599.421,1048.15l0,-35.417l17.917,0l466.25,-0.417l0,35.833l-484.167,0Z" style="fill:#fff;fill-opacity:0.1;"/><path d="M1079.837,1048.15l3.75,-4.167m-24.583,4.167l24.583,-25m-45.833,25l35.417,-35.833m-56.25,35.833l35.417,-35.833m-56.25,35.833l35.417,-35.833m-56.25,35.833l35.417,-35.833m-56.25,35.833l35.417,-35.833m-56.25,35.833l35.417,-35.833m-56.25,35.833l35.417,-35.833m-56.25,35.833l35.417,-35.833m-56.25,35.833l35.417,-35.833m-56.667,35.833l35.417,-35.833m-56.25,35.833l35.417,-35.833m-56.25,35.833l35.417,-35.833m-56.25,35.833l35.417,-35.833m-56.25,35.833l35.417,-35.833m-56.25,35.833l35.417,-35.833m-56.25,35.833l35.417,-35.833m-56.25,35.833l35.417,-35.833m-56.25,35.833l35.417,-35.833m-56.667,35.833l35.417,-35.833m-56.25,35.833l35.417,-35.833m-56.25,35.833l35.417,-35.833m-56.25,35.833l35.417,-35.833m-35.417,14.583l14.583,-14.583m469.583,18.75l-18.333,-18.75m14.583,35.833l-35.417,-35.833m14.583,35.833l-35.833,-35.833m14.583,35.833l-35.417,-35.833m14.583,35.833l-35.417,-35.833m14.583,35.833l-35.417,-35.833m14.583,35.833l-35.417,-35.833m14.583,35.833l-35.417,-35.833m14.583,35.833l-35.417,-35.833m14.583,35.833l-35.417,-35.833m14.583,35.833l-35.417,-35.833m14.583,35.833l-35.833,-35.833m14.583,35.833l-35.417,-35.833m14.583,35.833l-35.417,-35.833m14.583,35.833l-35.417,-35.833m14.583,35.833l-35.417,-35.833m14.583,35.833l-35.417,-35.833m14.583,35.833l-35.417,-35.833m14.583,35.833l-35.417,-35.833m14.583,35.833l-35.417,-35.833m14.583,35.833l-35.417,-35.833m14.167,35.833l-35.417,-35.833m14.583,35.833l-35.417,-35.833m14.583,35.833l-20.833,-21.25" style="fill:none;fill-rule:nonzero;stroke:#000;stroke-opacity:0.31;stroke-width:1.48px;"/><path d="M599.421,1048.15l0,-35.417m17.917,0l466.25,-0.417m0,35.833l-484.167,0" style="fill:none;fill-rule:nonzero;stroke:#2b2b2b;stroke-width:2.95px;stroke-linecap:round;"/><rect x="1083.587" y="162.317" width="35.417" height="885.833" style="fill:#fff;fill-opacity:0.1;"/><path d="M1104.421,1048.15l14.583,-14.583m-35.417,14.583l35.417,-35.833m-35.417,14.583l35.417,-35.417m-35.417,14.583l35.417,-35.417m-35.417,14.583l35.417,-35.417m-35.417,14.583l35.417,-35.417m-35.417,14.583l35.417,-35.417m-35.417,14.583l35.417,-35.417m-35.417,14.583l35.417,-35.417m-35.417,14.583l35.417,-35.417m-35.417,14.583l35.417,-35.833m-35.417,14.583l35.417,-35.417m-35.417,14.583l35.417,-35.417m-35.417,14.583l35.417,-35.417m-35.417,14.583l35.417,-35.417m-35.417,14.583l35.417,-35.417m-35.417,14.583l35.417,-35.417m-35.417,14.583l35.417,-35.417m-35.417,14.583l35.417,-35.417m-35.417,14.583l35.417,-35.417m-35.417,14.167l35.417,-35.417m-35.417,14.583l35.417,-35.417m-35.417,14.583l35.417,-35.417m-35.417,14.583l35.417,-35.417m-35.417,14.583l35.417,-35.417m-35.417,14.583l35.417,-35.417m-35.417,14.583l35.417,-35.417m-35.417,14.583l35.417,-35.417m-35.417,14.583l35.417,-35.417m-35.417,14.167l35.417,-35.417m-35.417,14.583l35.417,-35.417m-35.417,14.583l35.417,-35.417m-35.417,14.583l35.417,-35.417m-35.417,14.583l35.417,-35.417m-35.417,14.583l35.417,-35.417m-35.417,14.583l35.417,-35.417m-35.417,14.583l35.417,-35.417m-35.417,14.583l35.417,-35.417m-35.417,14.167l35.417,-35.417m-35.417,14.583l35.417,-35.417m-35.417,14.583l35.417,-35.417m-35.417,14.583l35.417,-35.417m-35.417,14.583l30,-29.583m-30,8.75l9.167,-8.75m26.25,2.5l-2.5,-2.5m2.5,23.333l-23.333,-23.333m23.333,44.167l-35.417,-35.417m35.417,56.25l-35.417,-35.417m35.417,56.25l-35.417,-35.417m35.417,56.25l-35.417,-35.417m35.417,56.25l-35.417,-35.417m35.417,56.667l-35.417,-35.833m35.417,56.667l-35.417,-35.417m35.417,56.25l-35.417,-35.417m35.417,56.25l-35.417,-35.417m35.417,56.25l-35.417,-35.417m35.417,56.25l-35.417,-35.417m35.417,56.25l-35.417,-35.417m35.417,56.25l-35.417,-35.417m35.417,56.25l-35.417,-35.417m35.417,56.667l-35.417,-35.833m35.417,56.667l-35.417,-35.417m35.417,56.25l-35.417,-35.417m35.417,56.25l-35.417,-35.417m35.417,56.25l-35.417,-35.417m35.417,56.25l-35.417,-35.417m35.417,56.25l-35.417,-35.417m35.417,56.25l-35.417,-35.417m35.417,56.25l-35.417,-35.417m35.417,56.667l-35.417,-35.833m35.417,56.667l-35.417,-35.417m35.417,56.25l-35.417,-35.417m35.417,56.25l-35.417,-35.417m35.417,56.25l-35.417,-35.417m35.417,56.25l-35.417,-35.417m35.417,56.25l-35.417,-35.417m35.417,56.25l-35.417,-35.417m35.417,56.25l-35.417,-35.417m35.417,56.25l-35.417,-35.417m35.417,56.667l-35.417,-35.417m35.417,56.25l-35.417,-35.417m35.417,56.25l-35.417,-35.417m35.417,56.25l-35.417,-35.417m35.417,56.25l-35.417,-35.417m35.417,56.25l-35.417,-35.417m35.417,56.25l-35.417,-35.417m35.417,56.25l-35.417,-35.417m20.833,42.083l-20.833,-21.25" style="fill:none;fill-rule:nonzero;stroke:#000;stroke-opacity:0.31;stroke-width:1.48px;"/><path d="M1083.587,563.567l0,-401.25m35.417,0l0,885.833l-35.417,0m0,-35.833l0,-171.25" style="fill:none;fill-rule:nonzero;stroke:#2b2b2b;stroke-width:2.95px;stroke-linecap:round;"/><rect x="14.837" y="126.9" width="1104.167" height="35.417" style="fill:#fff;fill-opacity:0.1;"/><path d="M1100.671,162.317l18.333,-18.75m-39.167,18.75l35.417,-35.417m-56.667,35.417l35.417,-35.417m-56.25,35.417l35.417,-35.417m-56.25,35.417l35.417,-35.417m-56.25,35.417l35.417,-35.417m-56.25,35.417l35.417,-35.417m-56.25,35.417l35.417,-35.417m-56.25,35.417l35.417,-35.417m-56.25,35.417l35.417,-35.417m-56.25,35.417l35.417,-35.417m-56.667,35.417l35.417,-35.417m-56.25,35.417l35.417,-35.417m-56.25,35.417l35.417,-35.417m-56.25,35.417l35.417,-35.417m-56.25,35.417l35.417,-35.417m-56.25,35.417l35.417,-35.417m-56.25,35.417l35.417,-35.417m-56.25,35.417l35.417,-35.417m-56.25,35.417l35.417,-35.417m-56.667,35.417l35.833,-35.417m-56.667,35.417l35.417,-35.417m-56.25,35.417l35.417,-35.417m-56.25,35.417l35.417,-35.417m-56.25,35.417l35.417,-35.417m-56.25,35.417l35.417,-35.417m-56.25,35.417l35.417,-35.417m-56.25,35.417l35.417,-35.417m-56.25,35.417l35.417,-35.417m-56.667,35.417l35.833,-35.417m-56.667,35.417l35.417,-35.417m-56.25,35.417l35.417,-35.417m-56.25,35.417l35.417,-35.417m-56.25,35.417l35.417,-35.417m-56.25,35.417l35.417,-35.417m-56.25,35.417l35.417,-35.417m-56.25,35.417l35.417,-35.417m-56.25,35.417l35.417,-35.417m-56.667,35.417l35.833,-35.417m-56.667,35.417l35.417,-35.417m-56.25,35.417l35.417,-35.417m-56.25,35.417l35.417,-35.417m-56.25,35.417l35.417,-35.417m-56.25,35.417l35.417,-35.417m-56.25,35.417l35.417,-35.417m-56.25,35.417l35.417,-35.417m-56.25,35.417l35.417,-35.417m-56.667,35.417l35.833,-35.417m-56.667,35.417l35.417,-35.417m-56.25,35.417l35.417,-35.417m-56.25,35.417l35.417,-35.417m-56.25,35.417l35.417,-35.417m-56.25,35.417l35.417,-35.417m-35.417,14.167l14.583,-14.167m1089.583,12.083l-12.083,-12.083m12.083,32.917l-32.917,-32.917m14.583,35.417l-35.417,-35.417m14.583,35.417l-35.417,-35.417m14.167,35.417l-35.417,-35.417m14.583,35.417l-35.417,-35.417m14.583,35.417l-35.417,-35.417m14.583,35.417l-35.417,-35.417m14.583,35.417l-35.417,-35.417m14.583,35.417l-35.417,-35.417m14.583,35.417l-35.417,-35.417m14.583,35.417l-35.417,-35.417m14.583,35.417l-35.417,-35.417m14.167,35.417l-35.417,-35.417m14.583,35.417l-35.417,-35.417m14.583,35.417l-35.417,-35.417m14.583,35.417l-35.417,-35.417m14.583,35.417l-35.417,-35.417m14.583,35.417l-35.417,-35.417m14.583,35.417l-35.417,-35.417m14.583,35.417l-35.417,-35.417m14.583,35.417l-35.417,-35.417m14.167,35.417l-35.417,-35.417m14.583,35.417l-35.417,-35.417m14.583,35.417l-35.417,-35.417m14.583,35.417l-35.417,-35.417m14.583,35.417l-35.417,-35.417m14.583,35.417l-35.417,-35.417m14.583,35.417l-35.417,-35.417m14.583,35.417l-35.417,-35.417m14.583,35.417l-35.417,-35.417m14.167,35.417l-35.417,-35.417m14.583,35.417l-35.417,-35.417m14.583,35.417l-35.417,-35.417m14.583,35.417l-35.417,-35.417m14.583,35.417l-35.417,-35.417m14.583,35.417l-35.417,-35.417m14.583,35.417l-35.417,-35.417m14.583,35.417l-35.417,-35.417m14.583,35.417l-35.417,-35.417m14.167,35.417l-35.417,-35.417m14.583,35.417l-35.417,-35.417m14.583,35.417l-35.417,-35.417m14.583,35.417l-35.417,-35.417m14.583,35.417l-35.417,-35.417m14.583,35.417l-35.417,-35.417m14.583,35.417l-35.417,-35.417m14.583,35.417l-35.417,-35.417m14.583,35.417l-35.417,-35.417m14.167,35.417l-35.417,-35.417m14.583,35.417l-35.417,-35.417m14.583,35.417l-35.417,-35.417m14.583,35.417l-35.417,-35.417m14.583,35.417l-20.833,-21.25" style="fill:none;fill-rule:nonzero;stroke:#000;stroke-opacity:0.31;stroke-width:1.48px;"/><path d="M1119.004,126.9l0,35.417m-35.417,0l-543.333,0m-17.5,0l-472.5,0m-35.417,0l0,-35.417l1104.167,0" style="fill:none;fill-rule:nonzero;stroke:#2b2b2b;stroke-width:2.95px;stroke-linecap:round;"/><path d="M463.587,456.067l-17.5,0" style="fill:none;fill-rule:nonzero;stroke:#000;stroke-width:0.3px;"/><path d="M463.587,550.65l-112.083,0" style="fill:none;fill-rule:nonzero;stroke:#000;stroke-width:0.3px;"/><path d="M351.504,550.65c0,-52.083 42.083,-94.583 94.583,-94.583" style="fill:none;fill-rule:nonzero;stroke:#000;stroke-width:0.3px;"/><rect x="446.087" y="450.234" width="17.5" height="106.25" style="fill:none;fill-rule:nonzero;stroke:#000;stroke-width:0.3px;"/><rect x="446.087" y="656.9" width="17.5" height="94.583" style="fill:none;fill-rule:nonzero;stroke:#000;stroke-width:0.3px;"/><path d="M463.587,662.734l-100.417,0" style="fill:none;fill-rule:nonzero;stroke:#000;stroke-width:0.3px;"/><path d="M446.087,745.65c-45.833,0 -82.917,-37.083 -82.917,-82.917" style="fill:none;fill-rule:nonzero;stroke:#000;stroke-width:0.3px;"/><path d="M446.087,745.65l17.5,0" style="fill:none;fill-rule:nonzero;stroke:#000;stroke-width:0.3px;"/><rect x="599.421" y="900.234" width="17.917" height="94.583" style="fill:none;fill-rule:nonzero;stroke:#000;stroke-width:0.3px;"/><path d="M599.421,988.984l100.417,0" style="fill:none;fill-rule:nonzero;stroke:#000;stroke-width:0.3px;"/><path d="M617.337,906.067c45.417,-0 82.5,37.083 82.5,82.917" style="fill:none;fill-rule:nonzero;stroke:#000;stroke-width:0.3px;"/><path d="M617.337,906.067l-17.917,0" style="fill:none;fill-rule:nonzero;stroke:#000;stroke-width:0.3px;"/><path d="M599.421,457.317l17.917,0" style="fill:none;fill-rule:nonzero;stroke:#000;stroke-width:0.3px;"/><path d="M599.421,551.9l112.083,0" style="fill:none;fill-rule:nonzero;stroke:#000;stroke-width:0.3px;"/><path d="M711.504,551.9c0,-52.083 -42.083,-94.583 -94.167,-94.583" style="fill:none;fill-rule:nonzero;stroke:#000;stroke-width:0.3px;"/><rect x="599.421" y="451.484" width="17.917" height="106.25" style="fill:none;fill-rule:nonzero;stroke:#000;stroke-width:0.3px;"/><path d="M599.421,687.734l17.917,0" style="fill:none;fill-rule:nonzero;stroke:#000;stroke-width:0.3px;"/><path d="M599.421,593.15l112.083,0" style="fill:none;fill-rule:nonzero;stroke:#000;stroke-width:0.3px;"/><path d="M711.504,593.15c-0,52.083 -42.083,94.583 -94.167,94.583" style="fill:none;fill-rule:nonzero;stroke:#000;stroke-width:0.3px;"/><rect x="599.421" y="587.317" width="17.917" height="106.25" style="fill:none;fill-rule:nonzero;stroke:#000;stroke-width:0.3px;"/></g><g id="topKoupelna2"><rect x="616.921" y="835.234" width="466.667" height="177.5" style="fill:#fff;"/><path d="M1083.587,1012.734l-466.667,0l0,-112.5l0.417,-65l466.25,0l0,177.5Z" style="fill:#e0e0e0;fill-opacity:0.25;stroke:#a8a8a8;stroke-width:0.3px;"/><g transform="matrix(1,0,0,1,110.524193,683.38135)"><text x="685.655px" y="266.969px" style="font-family:'ArialMT', 'Arial', sans-serif;font-size:21.144px;fill:#2b2b2b;fill-opacity:0.99;">Koupelna</text><g transform="matrix(21.144211,0,0,21.144211,766.174812,290.59126)"></g><text x="694.493px" y="290.591px" style="font-family:'ArialMT', 'Arial', sans-serif;font-size:21.144px;fill:#2b2b2b;fill-opacity:0.99;">5.99 m²</text></g><path d="M841.504,910.65c16.667,2.083 33.75,2.083 50.417,0l0,-3.75l10,-0.833l0,-64.583l-70.833,0l0,64.583l4.583,0.417l0,1.667l2.917,0l0,-1.25l2.917,0.417l0,3.333Z" style="fill:#f7f7f7;stroke:#000;stroke-width:1.48px;"/><path d="M871.921,908.15l0,2.083l-10.417,0l0,-2.083" style="fill:none;fill-rule:nonzero;stroke:#18181b;stroke-width:0.3px;"/><path d="M838.587,906.9l-2.917,-0.417" style="fill:none;fill-rule:nonzero;stroke:#18181b;stroke-width:0.3px;"/><path d="M901.921,903.984l-18.333,0l0,3.75" style="fill:none;fill-rule:nonzero;stroke:#18181b;stroke-width:0.3px;"/><path d="M901.921,901.9l-70.833,0" style="fill:none;fill-rule:nonzero;stroke:#18181b;stroke-width:0.3px;"/><path d="M891.921,906.9c-16.667,1.667 -33.333,1.667 -49.583,0.417" style="fill:none;fill-rule:nonzero;stroke:#18181b;stroke-width:0.3px;"/><path d="M852.754,871.9c0,6.209 6.068,11.25 13.542,11.25c7.474,0 13.542,-5.041 13.542,-11.25c0,-6.209 -6.068,-11.25 -13.542,-11.25c-7.474,0 -13.542,5.041 -13.542,11.25Z" style="fill:none;stroke:#bcbcbc;stroke-width:0.3px;"/><path d="M852.754,871.9c0.833,0.833 1.25,0.833 2.083,0.833c0.833,0 1.667,0 2.083,-0.833c0.417,-0.417 1.25,-0.833 2.083,-0.833c0.833,0 1.667,0.417 2.083,0.833c0.417,0.833 1.25,1.25 2.083,1.25c0.833,0 1.25,-0.417 1.667,-1.25c0.833,-0.417 1.25,-0.833 2.083,-0.833c0.833,0 1.667,0.417 2.083,0.833c0.417,0.833 1.25,1.25 2.083,1.25c0.833,0 1.667,-0.417 2.083,-1.25c0,-0.417 0.833,-0.833 1.667,-0.833c0.833,0 1.667,0.417 2.083,0.833c0.417,0.417 0.833,0.833 1.25,0.833c0.833,0 1.25,-0.417 1.667,-0.833" style="fill:none;fill-rule:nonzero;stroke:#bcbcbc;stroke-width:0.3px;"/><path d="M918.587,910.65c16.667,2.083 33.333,2.083 50.417,0l0,-3.75l10,-0.833l0,-64.583l-70.833,0l0,64.583l4.583,0.417l0,1.667l2.917,0l0,-1.25l2.917,0.417l0,3.333Z" style="fill:#f7f7f7;stroke:#000;stroke-width:1.48px;"/><path d="M949.004,908.15l0,2.083l-10.417,0l0,-2.083" style="fill:none;fill-rule:nonzero;stroke:#18181b;stroke-width:0.3px;"/><path d="M915.671,906.9l-2.917,-0.417" style="fill:none;fill-rule:nonzero;stroke:#18181b;stroke-width:0.3px;"/><path d="M979.004,903.984l-18.75,0l0,3.75" style="fill:none;fill-rule:nonzero;stroke:#18181b;stroke-width:0.3px;"/><path d="M979.004,901.9l-70.833,0" style="fill:none;fill-rule:nonzero;stroke:#18181b;stroke-width:0.3px;"/><path d="M969.004,906.9c-16.667,1.667 -33.333,1.667 -50,0.417" style="fill:none;fill-rule:nonzero;stroke:#18181b;stroke-width:0.3px;"/><path d="M929.837,871.9c0,6.209 6.068,11.25 13.542,11.25c7.474,0 13.542,-5.041 13.542,-11.25c0,-6.209 -6.068,-11.25 -13.542,-11.25c-7.474,0 -13.542,5.041 -13.542,11.25Z" style="fill:none;stroke:#bcbcbc;stroke-width:0.3px;"/><path d="M929.837,871.9c0.417,0.833 1.25,0.833 2.083,0.833c0.833,0 1.667,0 2.083,-0.833c0.417,-0.417 1.25,-0.833 2.083,-0.833c0.833,0 1.667,0.417 2.083,0.833c0.417,0.833 0.833,1.25 1.667,1.25c0.833,0 1.667,-0.417 2.083,-1.25c0.417,-0.417 1.25,-0.833 2.083,-0.833c0.833,0 1.667,0.417 2.083,0.833c0.417,0.833 1.25,1.25 2.083,1.25c0.417,0 1.25,-0.417 1.667,-1.25c0.417,-0.417 1.25,-0.833 2.083,-0.833c0.833,0 1.667,0.417 2.083,0.833c0.417,0.417 0.833,0.833 1.25,0.833c0.833,0 1.25,-0.417 1.667,-0.833" style="fill:none;fill-rule:nonzero;stroke:#bcbcbc;stroke-width:0.3px;"/><path d="M986.504,913.567l2.083,0l0,-74.583l-2.083,0l0,74.583Z" style="fill:#f7f7f7;stroke:#000;stroke-width:0.3px;"/><path d="M986.504,995.234l0,-0.417m0,-0.417l0,-0.833m0,-0.417l0,-0.417m0,-0.417l0,-0.833m0,-0.417l0,-0.833m0,0l0,-0.833m0,-0.417l0,-0.833m0,-0.417l0,-0.833m0,0l0,-0.833m0,-0.417l0,-0.833m0,-0.417l0,-0.417m0,-0.417l0,-0.833m0,-0.417l0,-0.833m0,-0.417l0,-0.417m0,-0.417l0,-0.833m0,-0.417l0,-0.833m0,0l0,-0.833m0,-0.417l0,-0.833m0,-0.417l0,-0.417m0,-0.417l0,-0.833m0,-0.417l0,-0.833m0,-0.417l0,-0.417m0,-0.417l0,-0.833m0,-0.417l0,-0.833m0,-0.417l0,-0.417m0,-0.417l0,-0.833m0,-0.417l0,-0.833m0,0l0,-0.833m0,-0.417l0,-0.833m0,-0.417l0,-0.417m0,-0.417l0,-0.833m0,-0.417l0,-0.833m0,-0.417l0,-0.417m0,-0.417l0,-0.833m0,-0.417l0,-0.833m0,0l0,-0.833m0,-0.417l0,-0.833m0,-0.417l0,-0.417m0,-0.417l0,-0.833m0,-0.417l0,-0.833m0,-0.417l0,-0.417m0,-0.417l0,-0.833m0,-0.417l0,-0.833m0,-0.417l0,-0.417m0,-0.417l0,-0.833m0,-0.417l0,-0.833m0,0l0,-0.833m0,-0.417l0,-0.833m0,-0.417l0,-0.417m0,-0.417l0,-0.833m0,-0.417l0,-0.833m0,-0.417l0,-0.417m0,-0.417l0,-0.833m0,-0.417l0,-0.833m0,0l0,-0.833m0,-0.417l0,-0.833m0,-0.417l0,-0.833m0,0l0,-0.833m0,-0.417l0,-0.833m0,-0.417l0,-0.417m0,-0.417l0,-0.833m0,-0.417l0,-0.833m0,-0.417l0,-0.417m0,-0.417l0,-0.833m0,-0.417l0,-0.833m0,0l0,-0.833m0,-0.417l0,-0.833m0,-0.417l0,-0.417m0,-0.417l0,-0.833m0,-0.417l0,-0.833m0,-0.417l0,-0.417m0,-0.417l0,-0.833m0,-0.417l0,-0.833m0,-0.417l0,-0.417m0,-0.417l0,-0.833" style="fill:none;fill-rule:nonzero;stroke:#bcbcbc;stroke-width:0.3px;"/><path d="M989.004,835.234l-3.333,0l0,3.75l3.333,0l0,-3.75Z" style="fill:#f7f7f7;stroke:#000;stroke-width:1.48px;"/><path d="M988.587,913.567l0,0.417m0,0.417l0,0.833m0,0.417l0,0.417m0,0.417l0,0.833m0,0.417l0,0.833m0,0l0,0.833m0,0.417l0,0.833m0,0.417l0,0.417m0,0.417l0,0.833m0,0.417l0,0.833m0,0.417l0,0.417m0,0.417l0,0.833m0,0.417l0,0.833m0,0l0,0.833m0,0.417l0,0.833m0,0.417l0,0.833m0,0l0,0.833m0,0.417l0,0.833m0,0.417l0,0.417m0,0.417l0,0.833m0,0.417l0,0.833m0,0.417l0,0.417m0,0.417l0,0.833m0,0.417l0,0.833m0,0l0,0.833m0,0.417l0,0.833m0,0.417l0,0.417m0,0.417l0,0.833m0,0.417l0,0.833m0,0.417l0,0.417m0,0.417l0,0.833m0,0.417l0,0.833m0,0.417l0,0.417m0,0.417l0,0.833m0,0.417l0,0.833m0,0l0,0.833m0,0.417l0,0.833m0,0.417l0,0.417m0,0.417l0,0.833m0,0.417l0,0.833m0,0.417l0,0.417m0,0.417l0,0.833m0,0.417l0,0.833m0,0l0,0.833m0,0.417l0,0.833m0,0.417l0,0.417m0,0.417l0,0.833m0,0.417l0,0.833m0,0.417l0,0.417m0,0.417l0,0.833m0,0.417l0,0.833m0,0.417l0,0.417m0,0.417l0,0.833m0,0.417l0,0.833m0,0l0,0.833m0,0.417l0,0.833m0,0.417l0,0.417m0,0.417l0,0.833m0,0.417l0,0.833m0,0.417l0,0.417m0,0.417l0,0.833m0,0.417l0,0.833m0,0l0,0.833m0,0.417l0,0.833m0,0.417l0,0.833m0,0l0,0.833m0,0.417l0,0.833m0,0.417l0,0.417m0,0.417l0,0.833m0,0.417l0,0.833m0,0.417l0,0.417m0,0.417l0,0.833m0,0.417l0,0.833m0,0l0,0.833m0,0.417l0,0.833m0,0.417l0,0.417m0,0.417l0,0.833m0,0.417l0,0.417" style="fill:none;fill-rule:nonzero;stroke:#bcbcbc;stroke-width:0.3px;"/><path d="M930.671,945.234l1.667,1.667l1.25,-1.25l-1.667,-1.667l-1.25,1.25Z" style="fill:#f7f7f7;"/><path d="M931.921,943.984l-1.25,1.25l1.667,1.667l1.25,-1.25" style="fill:none;fill-rule:nonzero;stroke:#000;stroke-width:0.3px;"/><path d="M927.754,939.4l58.75,58.75l1.25,-1.667l-58.75,-58.75l-1.25,1.667Z" style="fill:#f7f7f7;stroke:#000;stroke-width:0.3px;"/><path d="M936.504,942.734l-1.667,-1.667l-1.25,1.25l1.667,1.667l1.25,-1.25Z" style="fill:#f7f7f7;"/><path d="M933.587,942.317l1.25,-1.25l1.667,1.667l-1.25,1.25" style="fill:none;fill-rule:nonzero;stroke:#000;stroke-width:0.3px;"/><path d="M929.004,937.734c15.833,-15.417 37.5,-24.167 59.583,-24.167" style="fill:none;fill-rule:nonzero;stroke:#000;stroke-width:0.3px;"/><path d="M986.504,1008.984l2.083,0l0,-10.833l-2.083,0l0,10.833Z" style="fill:#f7f7f7;stroke:#000;stroke-width:0.3px;"/><path d="M989.004,1008.984l-3.333,0l0,3.75l3.333,0l0,-3.75Z" style="fill:#f7f7f7;stroke:#000;stroke-width:1.48px;"/><rect x="617.337" y="835.234" width="203.75" height="57.917" style="fill:#ddb682;stroke:#000;stroke-width:0.77px;"/><path d="M680.254,893.15l139.167,0c0.833,0 1.667,-0.417 1.667,-1.667l0,-55.417c0,-0.417 -0.417,-0.833 -0.833,-0.833l-140.833,0c0,0 -0.417,0.417 -0.417,0.833l0,55.417c0,1.25 0.417,1.667 1.25,1.667Z" style="fill:#f7f7f7;stroke:#000;stroke-width:1.48px;"/><path d="M782.337,851.484l-24.167,0c-2.917,0 -4.583,1.667 -4.583,5l0,24.583c0,3.333 1.667,5 4.583,5l51.25,0c2.917,0 4.583,-1.667 4.583,-5l0,-24.583c0,-3.333 -1.667,-5 -4.583,-5l-18.75,0" style="fill:none;fill-rule:nonzero;stroke:#000;stroke-width:0.3px;"/><path d="M791.921,847.317l0.417,0l0.417,-0.417l0,-4.167l-0.417,-0.417l-2.917,0l-0.417,0.417l0,4.167l0.417,0.417l1.667,0" style="fill:none;fill-rule:nonzero;stroke:#000;stroke-width:0.3px;"/><path d="M784.837,844.817l0,25c0,0.833 -0.417,1.25 -1.25,1.25c-0.833,0 -1.25,-0.417 -1.25,-1.25l0,-25c0,-0.417 0,-0.417 0.417,-0.833c0,-0.417 0.417,-0.417 0.833,-0.417c0.417,0 0.833,0 0.833,0.417c0.417,0.417 0.417,0.417 0.417,0.833Z" style="fill:none;fill-rule:nonzero;stroke:#000;stroke-width:0.3px;"/><path d="M784.837,863.15c1.25,-0.417 1.667,-1.25 1.667,-2.5c0,-1.25 -0.417,-2.083 -1.667,-2.5" style="fill:none;fill-rule:nonzero;stroke:#000;stroke-width:0.3px;"/><path d="M784.837,847.734c1.25,-0.417 2.083,-2.083 1.667,-3.333c0,-1.667 -1.25,-2.5 -2.917,-2.5c-1.667,0 -2.917,0.833 -2.917,2.5c-0.417,1.25 0.417,2.917 1.667,3.333" style="fill:none;fill-rule:nonzero;stroke:#000;stroke-width:0.3px;"/><path d="M782.337,858.15c-0.833,0.417 -1.667,1.25 -1.667,2.5c0,1.25 0.833,2.083 1.667,2.5" style="fill:none;fill-rule:nonzero;stroke:#000;stroke-width:0.3px;"/><path d="M785.254,842.317l3.75,0l0,5l-3.333,0" style="fill:none;fill-rule:nonzero;stroke:#000;stroke-width:0.3px;"/><path d="M791.087,846.067l0,7.5l0.417,0l0.417,-0.417l0,-7.083" style="fill:none;fill-rule:nonzero;stroke:#000;stroke-width:0.3px;"/><path d="M791.087,851.484l-6.25,0" style="fill:none;fill-rule:nonzero;stroke:#000;stroke-width:0.3px;"/><path d="M715.254,851.484l-24.583,0c-2.917,0 -4.583,1.667 -4.583,5l0,24.583c0,3.333 1.667,5 4.583,5l51.25,0c2.917,0 4.583,-1.667 4.583,-5l0,-24.583c0,-3.333 -1.667,-5 -4.583,-5l-18.333,0" style="fill:none;fill-rule:nonzero;stroke:#000;stroke-width:0.3px;"/><path d="M721.921,846.9l-0.417,0" style="fill:none;fill-rule:nonzero;stroke:#000;stroke-width:0.3px;"/><path d="M724.421,847.317l0.417,0c0.417,0 0.417,-0.417 0.417,-0.417l0,-4.167c0,0 0,-0.417 -0.417,-0.417l-2.5,0c-0.417,0 -0.417,0.417 -0.417,0.417l0,4.167c0,0 0,0.417 0.417,0.417l1.25,0" style="fill:none;fill-rule:nonzero;stroke:#000;stroke-width:0.3px;"/><path d="M717.337,844.817c0.417,8.333 0.417,16.667 0.417,25c0,0.833 -0.417,1.25 -1.25,1.25c-0.833,0 -1.25,-0.417 -1.25,-1.25c0,-8.333 0,-16.667 -0.417,-25c0,-0.417 0.417,-0.417 0.417,-0.833c0.417,-0.417 0.833,-0.417 0.833,-0.417c0.417,0 0.833,0 1.25,0.417l0,0.833Z" style="fill:none;fill-rule:nonzero;stroke:#000;stroke-width:0.3px;"/><path d="M721.921,843.15l-0.417,0" style="fill:none;fill-rule:nonzero;stroke:#000;stroke-width:0.3px;"/><path d="M717.754,863.15c0.833,-0.417 1.667,-1.25 1.667,-2.5c0,-1.25 -0.833,-2.083 -1.667,-2.5" style="fill:none;fill-rule:nonzero;stroke:#000;stroke-width:0.3px;"/><path d="M717.337,847.734c1.667,-0.417 2.5,-2.083 2.083,-3.333c-0.417,-1.667 -1.667,-2.5 -2.917,-2.5c-1.667,0 -2.917,0.833 -3.333,2.5c-0.417,1.25 0.417,2.917 1.667,3.333" style="fill:none;fill-rule:nonzero;stroke:#000;stroke-width:0.3px;"/><path d="M715.254,858.15c-1.25,0.417 -1.667,1.25 -1.667,2.5c0,1.25 0.417,2.083 1.667,2.5" style="fill:none;fill-rule:nonzero;stroke:#000;stroke-width:0.3px;"/><path d="M718.171,842.317l3.333,0l0,5l-2.917,0" style="fill:none;fill-rule:nonzero;stroke:#000;stroke-width:0.3px;"/><path d="M723.587,846.067l0,7.083c0,0 0,0.417 0.417,0.417c0.417,0 0.417,-0.417 0.417,-0.417l0,-7.083" style="fill:none;fill-rule:nonzero;stroke:#000;stroke-width:0.3px;"/><path d="M723.587,851.484l-6.25,0" style="fill:none;fill-rule:nonzero;stroke:#000;stroke-width:0.3px;"/><rect x="617.337" y="823.567" width="466.25" height="11.667" style="fill:#ddd;"/><path d="M1083.587,835.234l-466.25,0" style="fill:none;fill-rule:nonzero;stroke:#2b2b2b;stroke-width:2.95px;stroke-linecap:round;"/><path d="M617.337,835.234l-0.417,65l-17.5,0l0,-94.583m17.5,189.167l0,17.917m-17.5,0l0,-17.917l17.5,0" style="fill:none;fill-rule:nonzero;stroke:#2b2b2b;stroke-width:2.95px;stroke-linecap:round;"/><path d="M616.921,1012.734l466.667,0l0,-177.5" style="fill:none;stroke:#2b2b2b;stroke-width:2.92px;stroke-linecap:round;stroke-linejoin:round;stroke-miterlimit:1.5;"/><path d="M599.421,988.984l100.417,0" style="fill:none;fill-rule:nonzero;stroke:#000;stroke-width:0.3px;"/><path d="M616.921,906.067c45.833,0 82.917,37.083 82.917,82.917" style="fill:none;fill-rule:nonzero;stroke:#000;stroke-width:0.3px;"/></g><g id="topKoupelna3"><rect x="617.337" y="834.702" width="466.25" height="178.032" style="fill:#fff;"/><path d="M1083.587,1012.734l-466.667,0l0,-112.5l0.417,-65l466.25,0l0,177.5Z" style="fill:#e0e0e0;fill-opacity:0.25;stroke:#a8a8a8;stroke-width:0.3px;"/><g transform="matrix(1,0,0,1,110.524193,683.38135)"><text x="685.655px" y="266.969px" style="font-family:'ArialMT', 'Arial', sans-serif;font-size:21.144px;fill:#2b2b2b;fill-opacity:0.99;">Koupelna</text><g transform="matrix(21.144211,0,0,21.144211,766.174812,290.59126)"></g><text x="694.493px" y="290.591px" style="font-family:'ArialMT', 'Arial', sans-serif;font-size:21.144px;fill:#2b2b2b;fill-opacity:0.99;">5.99 m²</text></g><rect x="883.587" y="835.234" width="87.917" height="57.917" style="fill:#ddb682;stroke:#000;stroke-width:0.77px;"/><path d="M974.421,913.567l2.083,0l0,-74.583l-2.083,0l0,74.583Z" style="fill:#f7f7f7;stroke:#000;stroke-width:0.3px;"/><path d="M974.421,995.234l0,-0.417m0,-0.417l0,-0.833m0,-0.417l0,-0.417m0,-0.417l0,-0.833m0,-0.417l0,-0.833m0,-0.417l0,-0.417m0,-0.417l0,-0.833m0,-0.417l0,-0.833m0,0l0,-0.833m0,-0.417l0,-0.833m0,-0.417l0,-0.417m0,-0.417l0,-0.833m0,-0.417l0,-0.833m0,-0.417l0,-0.417m0,-0.417l0,-0.833m0,-0.417l0,-0.833m0,0l0,-0.833m0,-0.417l0,-0.833m0,-0.417l0,-0.417m0,-0.417l0,-0.833m0,-0.417l0,-0.833m0,-0.417l0,-0.417m0,-0.417l0,-0.833m0,-0.417l0,-0.833m0,-0.417l0,-0.417m0,-0.417l0,-0.833m0,-0.417l0,-0.833m0,0l0,-0.833m0,-0.417l0,-0.833m0,-0.417l0,-0.417m0,-0.417l0,-0.833m0,-0.417l0,-0.833m0,-0.417l0,-0.417m0,-0.417l0,-0.833m0,-0.417l0,-0.833m0,0l0,-0.833m0,-0.417l0,-0.833m0,-0.417l0,-0.417m0,-0.417l0,-0.833m0,-0.417l0,-0.833m0,-0.417l0,-0.417m0,-0.417l0,-0.833m0,-0.417l0,-0.833m0,-0.417l0,-0.417m0,-0.417l0,-0.833m0,-0.417l0,-0.833m0,0l0,-0.833m0,-0.417l0,-0.833m0,-0.417l0,-0.417m0,-0.417l0,-0.833m0,-0.417l0,-0.833m0,-0.417l0,-0.417m0,-0.417l0,-0.833m0,-0.417l0,-0.833m0,0l0,-0.833m0,-0.417l0,-0.833m0,-0.417l0,-0.833m0,0l0,-0.833m0,-0.417l0,-0.833m0,-0.417l0,-0.417m0,-0.417l0,-0.833m0,-0.417l0,-0.833m0,-0.417l0,-0.417m0,-0.417l0,-0.833m0,-0.417l0,-0.833m0,0l0,-0.833m0,-0.417l0,-0.833m0,-0.417l0,-0.417m0,-0.417l0,-0.833m0,-0.417l0,-0.833m0,-0.417l0,-0.417m0,-0.417l0,-0.833m0,-0.417l0,-0.833m0,-0.417l0,-0.417m0,-0.417l0,-0.833" style="fill:none;fill-rule:nonzero;stroke:#bcbcbc;stroke-width:0.3px;"/><path d="M976.921,835.234l-3.333,0l0,3.75l3.333,0l0,-3.75Z" style="fill:#f7f7f7;stroke:#000;stroke-width:1.48px;"/><path d="M976.504,913.567l0,0.417m0,0.417l0,0.833m0,0.417l0,0.417m0,0.417l0,0.833m0,0.417l0,0.833m0,0l0,0.833m0,0.417l0,0.833m0,0.417l0,0.417m0,0.417l0,0.833m0,0.417l0,0.833m0,0.417l0,0.417m0,0.417l0,0.833m0,0.417l0,0.833m0,0l0,0.833m0,0.417l0,0.833m0,0.417l0,0.833m0,0l0,0.833m0,0.417l0,0.833m0,0.417l0,0.417m0,0.417l0,0.833m0,0.417l0,0.833m0,0.417l0,0.417m0,0.417l0,0.833m0,0.417l0,0.833m0,0l0,0.833m0,0.417l0,0.833m0,0.417l0,0.417m0,0.417l0,0.833m0,0.417l0,0.833m0,0.417l0,0.417m0,0.417l0,0.833m0,0.417l0,0.833m0,0.417l0,0.417m0,0.417l0,0.833m0,0.417l0,0.833m0,0l0,0.833m0,0.417l0,0.833m0,0.417l0,0.417m0,0.417l0,0.833m0,0.417l0,0.833m0,0.417l0,0.417m0,0.417l0,0.833m0,0.417l0,0.833m0,0l0,0.833m0,0.417l0,0.833m0,0.417l0,0.417m0,0.417l0,0.833m0,0.417l0,0.833m0,0.417l0,0.417m0,0.417l0,0.833m0,0.417l0,0.833m0,0.417l0,0.417m0,0.417l0,0.833m0,0.417l0,0.833m0,0l0,0.833m0,0.417l0,0.833m0,0.417l0,0.417m0,0.417l0,0.833m0,0.417l0,0.833m0,0.417l0,0.417m0,0.417l0,0.833m0,0.417l0,0.833m0,0l0,0.833m0,0.417l0,0.833m0,0.417l0,0.833m0,0l0,0.833m0,0.417l0,0.833m0,0.417l0,0.417m0,0.417l0,0.833m0,0.417l0,0.833m0,0.417l0,0.417m0,0.417l0,0.833m0,0.417l0,0.833m0,0l0,0.833m0,0.417l0,0.833m0,0.417l0,0.417m0,0.417l0,0.833m0,0.417l0,0.417" style="fill:none;fill-rule:nonzero;stroke:#bcbcbc;stroke-width:0.3px;"/><path d="M918.587,945.234l1.667,1.667l1.25,-1.25l-1.667,-1.667l-1.25,1.25Z" style="fill:#f7f7f7;"/><path d="M919.837,943.984l-1.25,1.25l1.667,1.667l1.25,-1.25" style="fill:none;fill-rule:nonzero;stroke:#000;stroke-width:0.3px;"/><path d="M915.671,939.4l58.75,58.75l1.25,-1.667l-58.75,-58.75l-1.25,1.667Z" style="fill:#f7f7f7;stroke:#000;stroke-width:0.3px;"/><path d="M924.421,942.734l-1.667,-1.667l-1.25,1.25l1.667,1.667l1.25,-1.25Z" style="fill:#f7f7f7;"/><path d="M921.504,942.317l1.25,-1.25l1.667,1.667l-1.25,1.25" style="fill:none;fill-rule:nonzero;stroke:#000;stroke-width:0.3px;"/><path d="M916.921,937.734c15.833,-15.417 37.5,-24.167 59.583,-24.167" style="fill:none;fill-rule:nonzero;stroke:#000;stroke-width:0.3px;"/><path d="M974.421,1008.984l2.083,0l0,-10.833l-2.083,0l0,10.833Z" style="fill:#f7f7f7;stroke:#000;stroke-width:0.3px;"/><path d="M976.921,1008.984l-3.333,0l0,3.75l3.333,0l0,-3.75Z" style="fill:#f7f7f7;stroke:#000;stroke-width:1.48px;"/><path d="M617.337,835.234l466.25,0l0,-11.667l-466.25,0l0,11.667Z" style="fill:#ddd;"/><path d="M1083.587,835.234l-466.25,0" style="fill:none;fill-rule:nonzero;stroke:#2b2b2b;stroke-width:2.95px;stroke-linecap:round;"/><rect x="617.337" y="835.234" width="100.417" height="57.917" style="fill:#ddb682;stroke:#000;stroke-width:0.77px;"/><path d="M759.421,851.484l-27.5,0c-3.75,0 -5.417,1.667 -5.417,5l0,24.583c0,3.333 1.667,5 5.417,5l57.5,0c3.75,0 5.417,-1.667 5.417,-5l0,-24.583c0,-3.333 -1.667,-5 -5.417,-5l-20.833,0" style="fill:none;fill-rule:nonzero;stroke:#000;stroke-width:0.3px;"/><path d="M719.004,893.15l162.083,0c1.25,0 1.667,-0.417 1.667,-1.667l0,-55.417c0,-0.417 0,-0.833 -0.417,-0.833l-164.167,0c-0.417,0 -0.417,0.417 -0.417,0.833l0,55.417c0,1.25 0.417,1.667 1.25,1.667Z" style="fill:#f7f7f7;stroke:#000;stroke-width:1.48px;"/><path d="M838.587,851.484l-27.917,0c-3.333,0 -5,1.667 -5,5l0,24.583c0,3.333 1.667,5 5,5l57.917,0c3.333,0 5.417,-1.667 5.417,-5l0,-24.583c0,-3.333 -2.083,-5 -5.417,-5l-20.833,0" style="fill:none;fill-rule:nonzero;stroke:#000;stroke-width:0.3px;"/><path d="M768.587,847.317l0.833,0l0,-5l-2.917,0c-0.417,0 -0.417,0.417 -0.417,0.417l0,4.167c0,0 0,0.417 0.417,0.417l1.25,0" style="fill:none;fill-rule:nonzero;stroke:#000;stroke-width:0.3px;"/><path d="M847.754,847.317l0.833,0l0,-5l-2.917,0c-0.417,0 -0.417,0.417 -0.417,0.417l0,4.167c0,0 0,0.417 0.417,0.417l1.25,0" style="fill:none;fill-rule:nonzero;stroke:#000;stroke-width:0.3px;"/><path d="M761.921,844.817l0,25c0,0.833 -0.417,1.25 -1.25,1.25c-0.833,0 -1.25,-0.417 -1.25,-1.25l0,-25c0,-0.417 0,-0.417 0.417,-0.833c0,-0.417 0.417,-0.417 0.833,-0.417c0.417,0 0.417,0 0.833,0.417c0,0.417 0.417,0.417 0.417,0.833Z" style="fill:none;fill-rule:nonzero;stroke:#000;stroke-width:0.3px;"/><path d="M841.087,844.817l0,25c0,0.833 -0.417,1.25 -1.25,1.25c-0.833,0 -1.25,-0.417 -1.25,-1.25l0,-25c0,-0.417 0,-0.417 0.417,-0.833c0,-0.417 0.417,-0.417 0.833,-0.417c0,0 0.417,0 0.833,0.417c0,0.417 0.417,0.417 0.417,0.833Z" style="fill:none;fill-rule:nonzero;stroke:#000;stroke-width:0.3px;"/><path d="M761.921,863.15c0.833,-0.417 1.667,-1.25 1.667,-2.5c0,-1.25 -0.833,-2.083 -1.667,-2.5" style="fill:none;fill-rule:nonzero;stroke:#000;stroke-width:0.3px;"/><path d="M841.087,863.15c0.833,-0.417 1.667,-1.25 1.667,-2.5c0,-1.25 -0.833,-2.083 -1.667,-2.5" style="fill:none;fill-rule:nonzero;stroke:#000;stroke-width:0.3px;"/><path d="M761.921,847.734c1.25,-0.417 2.083,-2.083 1.667,-3.333c-0.417,-1.667 -1.25,-2.5 -2.917,-2.5c-1.667,0 -2.917,0.833 -3.333,2.5c0,1.25 0.417,2.917 2.083,3.333" style="fill:none;fill-rule:nonzero;stroke:#000;stroke-width:0.3px;"/><path d="M841.087,847.734c1.25,-0.417 2.083,-2.083 1.667,-3.333c-0.417,-1.667 -1.667,-2.5 -2.917,-2.5c-1.667,0 -2.917,0.833 -3.333,2.5c0,1.25 0.417,2.917 2.083,3.333" style="fill:none;fill-rule:nonzero;stroke:#000;stroke-width:0.3px;"/><path d="M759.421,858.15c-0.833,0.417 -1.667,1.25 -1.667,2.5c0,1.25 0.833,2.083 1.667,2.5" style="fill:none;fill-rule:nonzero;stroke:#000;stroke-width:0.3px;"/><path d="M838.587,858.15c-1.25,0.417 -1.667,1.25 -1.667,2.5c0,1.25 0.833,2.083 1.667,2.5" style="fill:none;fill-rule:nonzero;stroke:#000;stroke-width:0.3px;"/><path d="M762.337,842.317l3.75,0l0,5l-3.333,0" style="fill:none;fill-rule:nonzero;stroke:#000;stroke-width:0.3px;"/><path d="M841.504,842.317l3.75,0l0,5l-3.333,0" style="fill:none;fill-rule:nonzero;stroke:#000;stroke-width:0.3px;"/><path d="M767.754,846.067l0,7.083l0.417,0.417c0.417,0 0.417,-0.417 0.417,-0.417l0,-7.083" style="fill:none;fill-rule:nonzero;stroke:#000;stroke-width:0.3px;"/><path d="M846.921,846.067l0,7.083l0.417,0.417c0.417,0 0.417,-0.417 0.417,-0.417l0,-7.083" style="fill:none;fill-rule:nonzero;stroke:#000;stroke-width:0.3px;"/><path d="M767.754,851.484l-5.833,0" style="fill:none;fill-rule:nonzero;stroke:#000;stroke-width:0.3px;"/><path d="M846.921,851.484l-5.833,0" style="fill:none;fill-rule:nonzero;stroke:#000;stroke-width:0.3px;"/><path d="M759.421,851.484l-27.5,0c-3.75,0 -5.417,1.667 -5.417,5l0,24.583c0,3.333 1.667,5 5.417,5l57.5,0c3.75,0 5.417,-1.667 5.417,-5l0,-24.583c0,-3.333 -1.667,-5 -5.417,-5l-20.833,0" style="fill:none;fill-rule:nonzero;stroke:#000;stroke-width:0.3px;"/><path d="M599.421,900.234l0,-94.583m17.917,29.583l-0.417,65l-17.5,0m17.5,94.583l0,17.917m-17.5,0l0,-17.917l17.5,0" style="fill:none;fill-rule:nonzero;stroke:#2b2b2b;stroke-width:2.95px;stroke-linecap:round;"/><path d="M616.921,1012.734l466.667,0l0,-177.5" style="fill:none;stroke:#2b2b2b;stroke-width:2.92px;stroke-linecap:round;stroke-linejoin:round;stroke-miterlimit:1.5;"/><path d="M599.421,988.984l100.417,0" style="fill:none;fill-rule:nonzero;stroke:#000;stroke-width:0.3px;"/><path d="M616.921,906.067c45.833,0 82.917,37.083 82.917,82.917" style="fill:none;fill-rule:nonzero;stroke:#000;stroke-width:0.3px;"/></g><g id="anchorTop"><path d="M1244.004,126.9l-250,0" style="fill:none;fill-rule:nonzero;stroke:#f00;stroke-width:0.3px;"/><path d="M1119.004,1.484l0,250.417" style="fill:none;fill-rule:nonzero;stroke:#f00;stroke-width:0.3px;"/></g></svg>