<?xml version="1.0" encoding="UTF-8" standalone="no"?>
<!DOCTYPE svg PUBLIC "-//W3C//DTD SVG 1.1//EN" "http://www.w3.org/Graphics/SVG/1.1/DTD/svg11.dtd">
<svg width="100%" height="100%" viewBox="0 0 1246 1063" version="1.1" xmlns="http://www.w3.org/2000/svg" xmlns:xlink="http://www.w3.org/1999/xlink" xml:space="preserve" xmlns:serif="http://www.serif.com/" style="fill-rule:evenodd;clip-rule:evenodd;stroke-miterlimit:10;">
    <g id="top">
        <path d="M14.84,1048.15l0,-921.25l1104.17,0l0,921.25l-448.75,0l0,-35.42l-206.67,0l0,35.42l-448.75,0Z" style="fill:#fff;"/>
        <path d="M446.09,563.57l0,23.75l8.75,0l0,94.58l-8.75,0l0,5.83l-395.83,0l0,-525.42l466.67,0l0,401.25l-70.83,0Z" style="fill:#e0e0e0;fill-opacity:0.25;stroke:#a8a8a8;stroke-width:0.3px;"/>
        <path d="M876.92,492.73l0,70.83l-188.75,0l0,-70.83l-17.92,0l0,70.83l-11.67,0l0,9.17l-106.25,0l0,-9.17l-17.92,0l0,-401.25l549.17,0l0,330.42l-206.67,0Z" style="fill:#e0e0e0;fill-opacity:0.25;stroke:#a8a8a8;stroke-width:0.3px;"/>
        <path d="M688.17,1012.73l0,-248.33l-9.17,0l0,-106.25l9.17,0l0,-76.67l206.67,0l0,-70.83l188.75,0l0,502.08l-395.42,0Z" style="fill:#e0e0e0;fill-opacity:0.25;stroke:#a8a8a8;stroke-width:0.3px;"/>
        <path d="M454.84,823.57l0,94.58l-8.75,0l0,72.92l-384.17,0l0,-273.75l384.17,0l0,106.25l8.75,0Z" style="fill:#e0e0e0;fill-opacity:0.25;stroke:#a8a8a8;stroke-width:0.3px;"/>
        <path d="M454.84,1012.73l1.67,0m2.08,0l3.75,0m1.67,0l3.75,0m2.08,0l3.75,0m1.67,0l3.75,0m2.08,0l3.75,0m1.67,0l3.75,0m2.08,0l3.75,0m1.67,0l3.75,0m2.08,0l3.75,0m1.67,0l3.75,0m2.08,0l3.75,0m1.67,0l3.75,0m2.08,0l3.75,0m1.67,0l3.75,0m2.08,0l3.75,0m1.67,0l3.75,0m2.08,0l3.75,0m1.67,0l3.75,0m2.08,0l3.75,0m1.67,0l3.75,0m2.08,0l3.75,0m1.67,0l3.75,0m2.08,0l3.75,0m1.67,0l3.75,0m2.08,0l3.75,0m1.67,0l3.75,0m2.08,0l3.75,0m1.67,0l3.75,0m2.08,0l3.75,0m1.67,0l3.75,0m2.08,0l3.75,0m1.67,0l3.75,0m2.08,0l3.75,0m1.67,0l3.75,0m2.08,0l3.75,0m1.67,0l3.75,0m2.08,0l3.75,0m1.67,0l3.75,0" style="fill:none;fill-rule:nonzero;stroke:#a8a8a8;stroke-width:0.3px;stroke-linecap:round;"/>
        <path d="M679,658.15l0,106.25l-8.75,0l0,248.33l-206.67,0l0,-94.58l-8.75,0l0,-94.58l8.75,0l0,-141.67l-8.75,0l0,-94.58l8.75,0l0,-5.83l88.75,0l0,-8.75l106.25,0l0,8.75l11.67,0l0,76.67l8.75,0Z" style="fill:#e0e0e0;fill-opacity:0.25;stroke:#a8a8a8;stroke-width:0.3px;"/>
        <g transform="matrix(1,0,0,1,-336.257345,321.545003)">
            <text x="564.27px" y="155px" style="font-family:'ArialMT', 'Arial', sans-serif;font-size:21.14px;fill:#2b2b2b;fill-opacity:0.99;">Ložnice</text>
            <g transform="matrix(21.144211,0,0,21.144211,642.434586,178.62349)">
            </g>
            <text x="558.99px" y="178.62px" style="font-family:'ArialMT', 'Arial', sans-serif;font-size:21.14px;fill:#2b2b2b;fill-opacity:0.99;">17.01 m²</text>
        </g>
        <g transform="matrix(1,0,0,1,86.790638,186.902136)">
            <text x="707.85px" y="112.48px" style="font-family:'ArialMT', 'Arial', sans-serif;font-size:21.14px;fill:#2b2b2b;fill-opacity:0.99;">Pokoj</text>
            <g transform="matrix(21.144211,0,0,21.144211,776.025052,136.10469)">
            </g>
            <text x="692.58px" y="136.1px" style="font-family:'ArialMT', 'Arial', sans-serif;font-size:21.14px;fill:#2b2b2b;fill-opacity:0.99;">14.74 m²</text>
        </g>
        <g transform="matrix(1,0,0,1,156.01736,548.682118)">
            <text x="729.72px" y="226.73px" style="font-family:'ArialMT', 'Arial', sans-serif;font-size:21.14px;fill:#2b2b2b;fill-opacity:0.99;">Pokoj</text>
            <g transform="matrix(21.144211,0,0,21.144211,797.886122,250.351)">
            </g>
            <text x="714.44px" y="250.35px" style="font-family:'ArialMT', 'Arial', sans-serif;font-size:21.14px;fill:#2b2b2b;fill-opacity:0.99;">13.25 m²</text>
        </g>
        <g transform="matrix(1,0,0,1,-369.55697,635.779005)">
            <text x="548.47px" y="254.23px" style="font-family:'ArialMT', 'Arial', sans-serif;font-size:21.14px;fill:#2b2b2b;fill-opacity:0.99;">Koupelna</text>
            <g transform="matrix(21.144211,0,0,21.144211,628.989142,277.85528)">
            </g>
            <text x="557.31px" y="277.86px" style="font-family:'ArialMT', 'Arial', sans-serif;font-size:21.14px;fill:#2b2b2b;fill-opacity:0.99;">7.60 m²</text>
        </g>
        <g transform="matrix(1,0,0,1,-128.139303,429.263996)">
            <text x="656.64px" y="189.02px" style="font-family:'ArialMT', 'Arial', sans-serif;font-size:21.14px;fill:#2b2b2b;fill-opacity:0.99;">Chodba</text>
            <text x="647.25px" y="212.64px" style="font-family:'ArialMT', 'Arial', sans-serif;font-size:21.14px;fill:#2b2b2b;fill-opacity:0.99;">horní část</text>
            <g transform="matrix(21.144211,0,0,21.144211,730.967601,236.262061)">
            </g>
            <text x="659.29px" y="236.26px" style="font-family:'ArialMT', 'Arial', sans-serif;font-size:21.14px;fill:#2b2b2b;fill-opacity:0.99;">6.64 m²</text>
        </g>
        <path d="M61.92,717.32l-11.67,0l0,273.75l11.67,0l0,-273.75Z" style="fill:#ddd;"/>
        <path d="M61.92,717.32l0,273.75" style="fill:none;fill-rule:nonzero;stroke:#2b2b2b;stroke-width:2.95px;stroke-linecap:round;"/>
        <rect x="50.25" y="991.07" width="395.83" height="21.67" style="fill:#ddd;"/>
        <path d="M61.92,991.07l384.17,0" style="fill:none;fill-rule:nonzero;stroke:#2b2b2b;stroke-width:2.95px;stroke-linecap:round;"/>
        <rect x="50.25" y="705.23" width="395.83" height="12.08" style="fill:#ddd;"/>
        <path d="M446.09,717.32l-384.17,0" style="fill:none;fill-rule:nonzero;stroke:#2b2b2b;stroke-width:2.95px;stroke-linecap:round;"/>
        <path d="M1083.59,386.48l-88.33,0l0,74.58l-41.25,31.67l129.58,0l0,-106.25Zm-73.33,18.33l61.67,0l0,65.83l-61.67,0l0,-65.83Z" style="fill:#e5fffe;fill-opacity:0.5;"/>
        <path d="M954,461.07l41.25,0l0,-74.58l-159.58,0l0,106.25l118.33,0l0,-31.67Z" style="fill:#bedcff;"/>
        <rect x="1010.25" y="404.82" width="61.67" height="65.83" style="fill:#bedcff;"/>
        <path d="M954,461.07l0,31.67l41.25,-31.67l-41.25,0Z" style="fill:#e5fffe;fill-opacity:0.5;"/>
        <path d="M835.67,492.73l247.92,0l0,-106.25l-247.92,0l0,106.25Z" style="fill:none;stroke:#000;stroke-width:0.77px;"/>
        <path d="M995.25,386.48l0,74.58l-41.25,31.67l0,-31.67l41.25,0" style="fill:none;fill-rule:nonzero;stroke:#000;stroke-width:0.77px;"/>
        <path d="M1010.25,470.65l61.67,0l0,-65.83l-61.67,0l0,65.83Z" style="fill:none;stroke:#000;stroke-width:0.77px;"/>
        <path d="M998.17,242.32l12.08,23.75l-2.5,1.25c-0.83,0.42 -1.67,1.25 -1.67,2.08c-0.42,0.83 0,1.67 0.42,2.08c8.75,14.17 27.08,19.17 41.67,11.67c15,-7.5 22.08,-25 15.83,-40.42c0,-0.83 -0.83,-1.25 -1.67,-1.67c-0.83,-0.42 -1.67,-0.42 -2.5,0l-2.08,1.25l-12.08,-23.75l-47.5,23.75Z" style="fill:#cfd4a2;"/>
        <path d="M1057.75,242.32l-12.08,-23.75" style="fill:none;fill-rule:nonzero;stroke:#000;stroke-width:0.77px;"/>
        <path d="M1064,242.73c0,-0.83 -0.83,-1.25 -1.67,-1.67c-0.83,-0.42 -1.67,-0.42 -2.5,0" style="fill:none;fill-rule:nonzero;stroke:#000;stroke-width:0.77px;"/>
        <path d="M1010.25,266.07l-2.5,1.25" style="fill:none;fill-rule:nonzero;stroke:#000;stroke-width:0.77px;"/>
        <path d="M1059.84,241.07l-2.08,1.25" style="fill:none;fill-rule:nonzero;stroke:#000;stroke-width:0.77px;"/>
        <path d="M1010.25,266.07c6.25,13.33 22.5,18.33 35.42,12.08c13.33,-6.67 18.33,-22.5 12.08,-35.83" style="fill:none;fill-rule:nonzero;stroke:#000;stroke-width:0.77px;"/>
        <path d="M1006.5,271.48c8.75,14.17 27.08,19.17 41.67,11.67c15,-7.5 22.08,-25 15.83,-40.42" style="fill:none;fill-rule:nonzero;stroke:#000;stroke-width:0.77px;"/>
        <path d="M998.17,242.32l12.08,23.75" style="fill:none;fill-rule:nonzero;stroke:#000;stroke-width:0.77px;"/>
        <path d="M1045.67,218.57l-47.5,23.75" style="fill:none;fill-rule:nonzero;stroke:#000;stroke-width:0.77px;"/>
        <path d="M1007.75,267.32c-0.83,0.42 -1.67,1.25 -1.67,2.08c-0.42,0.83 0,1.67 0.42,2.08" style="fill:none;fill-rule:nonzero;stroke:#000;stroke-width:0.77px;"/>
        <rect x="941.92" y="162.32" width="141.67" height="70.83" style="fill:#ddb682;stroke:#000;stroke-width:0.77px;"/>
        <path d="M1083.59,1012.73l-88.33,0l0,-75l-41.25,-31.67l129.58,0l0,106.67Zm-73.33,-18.75l61.67,0l0,-65.83l-61.67,0l0,65.83Z" style="fill:#e5fffe;fill-opacity:0.5;"/>
        <path d="M954,937.73l41.25,0l0,75l-159.58,0l0,-106.67l118.33,0l0,31.67Z" style="fill:#bedcff;"/>
        <rect x="1010.25" y="928.15" width="61.67" height="65.83" style="fill:#bedcff;"/>
        <path d="M954,937.73l0,-31.67l41.25,31.67l-41.25,0Z" style="fill:#e5fffe;fill-opacity:0.5;"/>
        <path d="M1083.59,906.07l-247.92,0l0,106.67l247.92,0l0,-106.67Z" style="fill:none;stroke:#000;stroke-width:0.77px;"/>
        <path d="M995.25,1012.73l0,-75l-41.25,-31.67l0,31.67l41.25,0" style="fill:none;fill-rule:nonzero;stroke:#000;stroke-width:0.77px;"/>
        <path d="M1071.92,928.15l-61.67,0l0,65.83l61.67,0l0,-65.83Z" style="fill:none;stroke:#000;stroke-width:0.77px;"/>
        <path d="M1002.75,850.23l-24.17,-12.08l-1.25,2.5c-0.42,0.83 -0.83,1.25 -1.67,1.67c-0.83,0 -1.67,0 -2.5,-0.42c-14.17,-9.17 -19.17,-27.08 -11.67,-42.08c7.5,-15 25,-21.67 40.42,-15.83c0.83,0.42 1.67,0.83 2.08,1.67c0,0.83 0,1.67 -0.42,2.5l-1.25,2.5l24.17,11.67l-23.75,47.92Z" style="fill:#cfd4a2;"/>
        <path d="M1002.34,790.65l24.17,11.67" style="fill:none;fill-rule:nonzero;stroke:#000;stroke-width:0.77px;"/>
        <path d="M1001.92,783.98c0.83,0.42 1.67,0.83 2.08,1.67c0,0.83 0,1.67 -0.42,2.5" style="fill:none;fill-rule:nonzero;stroke:#000;stroke-width:0.77px;"/>
        <path d="M978.59,838.15l-1.25,2.5" style="fill:none;fill-rule:nonzero;stroke:#000;stroke-width:0.77px;"/>
        <path d="M1003.59,788.15l-1.25,2.5" style="fill:none;fill-rule:nonzero;stroke:#000;stroke-width:0.77px;"/>
        <path d="M978.59,838.15c-12.92,-6.67 -18.33,-22.5 -11.67,-35.83c6.67,-12.92 22.5,-18.33 35.42,-11.67" style="fill:none;fill-rule:nonzero;stroke:#000;stroke-width:0.77px;"/>
        <path d="M973.17,841.9c-14.17,-9.17 -19.17,-27.08 -11.67,-42.08c7.5,-15 25,-21.67 40.42,-15.83" style="fill:none;fill-rule:nonzero;stroke:#000;stroke-width:0.77px;"/>
        <path d="M1002.75,850.23l-24.17,-12.08" style="fill:none;fill-rule:nonzero;stroke:#000;stroke-width:0.77px;"/>
        <path d="M1026.5,802.32l-23.75,47.92" style="fill:none;fill-rule:nonzero;stroke:#000;stroke-width:0.77px;"/>
        <path d="M977.34,840.65c-0.42,0.83 -0.83,1.25 -1.67,1.67c-0.83,0 -1.67,0 -2.5,-0.42" style="fill:none;fill-rule:nonzero;stroke:#000;stroke-width:0.77px;"/>
        <path d="M1083.59,758.57l-70.83,0l0,147.5l70.83,0l0,-147.5Z" style="fill:#ddb682;stroke:#000;stroke-width:0.77px;"/>
        <rect x="941.92" y="510.65" width="141.67" height="70.83" style="fill:#ddb682;stroke:#000;stroke-width:0.77px;"/>
        <path d="M941.92,581.48l70.83,-70.83l70.83,70.83" style="fill:none;fill-rule:nonzero;stroke:#000;stroke-width:0.3px;"/>
        <rect x="894.84" y="510.65" width="47.08" height="70.83" style="fill:#ddb682;stroke:#000;stroke-width:0.77px;"/>
        <path d="M894.84,581.48l23.33,-70.83l23.75,70.83" style="fill:none;fill-rule:nonzero;stroke:#000;stroke-width:0.3px;"/>
        <rect x="688.17" y="492.73" width="141.67" height="70.83" style="fill:#ddb682;stroke:#000;stroke-width:0.77px;"/>
        <path d="M829.84,492.73l-70.83,70.83l-70.83,-70.83" style="fill:none;fill-rule:nonzero;stroke:#000;stroke-width:0.3px;"/>
        <rect x="829.84" y="492.73" width="47.08" height="70.83" style="fill:#ddb682;stroke:#000;stroke-width:0.77px;"/>
        <path d="M876.92,492.73l-23.33,70.83l-23.75,-70.83" style="fill:none;fill-rule:nonzero;stroke:#000;stroke-width:0.3px;"/>
        <path d="M516.92,421.9l-70.83,0l0,141.67l70.83,0l0,-141.67Z" style="fill:#ddb682;stroke:#000;stroke-width:0.77px;"/>
        <path d="M446.09,421.9l70.83,70.83l-70.83,70.83" style="fill:none;fill-rule:nonzero;stroke:#000;stroke-width:0.3px;"/>
        <path d="M516.92,280.23l-70.83,0l0,141.67l70.83,0l0,-141.67Z" style="fill:#ddb682;stroke:#000;stroke-width:0.77px;"/>
        <path d="M446.09,280.23l70.83,70.83l-70.83,70.83" style="fill:none;fill-rule:nonzero;stroke:#000;stroke-width:0.3px;"/>
        <path d="M516.92,162.32l-70.83,0l0,117.92l70.83,0l0,-117.92Z" style="fill:#ddb682;stroke:#000;stroke-width:0.77px;"/>
        <path d="M446.09,162.32l70.83,58.75l-70.83,59.17" style="fill:none;fill-rule:nonzero;stroke:#000;stroke-width:0.3px;"/>
        <path d="M139,162.32l-47.5,0l0,47.08l47.5,0l0,-47.08Z" style="fill:#ddb682;stroke:#000;stroke-width:0.77px;"/>
        <path d="M398.59,162.32l-47.08,0l0,47.08l47.08,0l0,-47.08Z" style="fill:#ddb682;stroke:#000;stroke-width:0.77px;"/>
        <path d="M332.75,170.23l-70.83,0l0,59.17l70.83,0l0,-59.17Z" style="fill:#69b2ff;fill-opacity:0.5;"/>
        <path d="M139,410.23l0,-100.83l64.58,0l0,-75.83l147.92,0l0,176.67l-212.5,0Z" style="fill:#69b2ff;fill-opacity:0.5;"/>
        <path d="M203.59,233.57l-64.58,75.83l0,-147.08l212.5,0l0,71.25l-147.92,0Zm58.33,-4.17l70.83,0l0,-59.17l-70.83,0l0,59.17Zm-104.58,0l70.83,0l0,-59.17l-70.83,0l0,59.17Z" style="fill:#e5fcff;fill-opacity:0.5;"/>
        <path d="M228.17,170.23l-70.83,0l0,59.17l70.83,0l0,-59.17Z" style="fill:#69b2ff;fill-opacity:0.5;"/>
        <path d="M139,309.4l64.58,-75.83l0,75.83l-64.58,0Z" style="fill:#e5fcff;fill-opacity:0.5;"/>
        <path d="M91.5,209.4l0,-47.08l307.08,0l0,47.08l-47.08,0l0,200.83l-212.5,0l0,-200.83l-47.5,0Z" style="fill:none;fill-rule:nonzero;stroke:#000;stroke-width:0.77px;"/>
        <path d="M157.34,229.4l70.83,0l0,-59.17l-70.83,0l0,59.17Z" style="fill:none;stroke:#000;stroke-width:0.77px;"/>
        <rect x="261.92" y="170.23" width="70.83" height="59.17" style="fill:none;stroke:#000;stroke-width:0.77px;"/>
        <path d="M351.5,233.57l-147.92,0l-64.58,75.83l64.58,0l0,-75.83" style="fill:none;fill-rule:nonzero;stroke:#000;stroke-width:0.77px;"/>
        <path d="M139,209.4l0,-47.08" style="fill:none;fill-rule:nonzero;stroke:#000;stroke-width:0.77px;"/>
        <path d="M351.5,209.4l0,-47.08" style="fill:none;fill-rule:nonzero;stroke:#000;stroke-width:0.77px;"/>
        <path d="M131.5,634.82l-23.75,-12.08l-1.25,2.5c-0.42,0.83 -1.25,1.25 -2.08,1.67c-0.83,0 -1.67,0 -2.5,-0.42c-13.75,-9.17 -18.75,-27.08 -11.67,-42.08c7.5,-15 25,-21.67 40.83,-15.83c0.83,0.42 1.25,0.83 1.67,1.67c0.42,0.83 0.42,1.67 0,2.5l-1.25,2.5l23.75,12.08l-23.75,47.5Z" style="fill:#cfd4a2;"/>
        <path d="M131.5,575.23l23.75,12.08" style="fill:none;fill-rule:nonzero;stroke:#000;stroke-width:0.77px;"/>
        <path d="M131.09,568.57c0.83,0.42 1.25,0.83 1.67,1.67c0.42,0.83 0.42,1.67 0,2.5" style="fill:none;fill-rule:nonzero;stroke:#000;stroke-width:0.77px;"/>
        <path d="M107.75,622.73l-1.25,2.5" style="fill:none;fill-rule:nonzero;stroke:#000;stroke-width:0.77px;"/>
        <path d="M132.75,572.73l-1.25,2.5" style="fill:none;fill-rule:nonzero;stroke:#000;stroke-width:0.77px;"/>
        <path d="M107.75,622.73c-13.33,-6.67 -18.75,-22.5 -12.08,-35.42c6.67,-13.33 22.5,-18.75 35.83,-12.08" style="fill:none;fill-rule:nonzero;stroke:#000;stroke-width:0.77px;"/>
        <path d="M101.92,626.48c-13.75,-9.17 -18.75,-27.08 -11.67,-42.08c7.5,-15 25,-21.67 40.83,-15.83" style="fill:none;fill-rule:nonzero;stroke:#000;stroke-width:0.77px;"/>
        <path d="M131.5,634.82l-23.75,-12.08" style="fill:none;fill-rule:nonzero;stroke:#000;stroke-width:0.77px;"/>
        <path d="M155.25,587.32l-23.75,47.5" style="fill:none;fill-rule:nonzero;stroke:#000;stroke-width:0.77px;"/>
        <path d="M106.5,625.23c-0.42,0.83 -1.25,1.25 -2.08,1.67c-0.83,0 -1.67,0 -2.5,-0.42" style="fill:none;fill-rule:nonzero;stroke:#000;stroke-width:0.77px;"/>
        <rect x="50.25" y="616.9" width="141.67" height="70.83" style="fill:#ddb682;stroke:#000;stroke-width:0.77px;"/>
        <path d="M759,976.9l-70.83,0l0,35.83l70.83,0l0,-35.83Z" style="fill:#ddb682;stroke:#000;stroke-width:0.77px;"/>
        <path d="M759,1012.73l-70.83,-35.83" style="fill:none;fill-rule:nonzero;stroke:#000;stroke-width:0.3px;"/>
        <path d="M829.84,976.9l-70.83,0l0,35.83l70.83,0l0,-35.83Z" style="fill:#ddb682;stroke:#000;stroke-width:0.77px;"/>
        <path d="M829.84,1012.73l-70.83,-35.83" style="fill:none;fill-rule:nonzero;stroke:#000;stroke-width:0.3px;"/>
        <rect x="61.92" y="817.73" width="57.92" height="173.33" style="fill:#ddb682;stroke:#000;stroke-width:0.77px;"/>
        <path d="M385.67,991.07l-40.42,0l-0.83,-42.08c0.42,-11.67 9.58,-20.42 21.25,-20.42c11.25,0 20.83,8.75 21.25,20.42l-1.25,42.08Z" style="fill:#e0e0e0;stroke:#000;stroke-width:0.3px;"/>
        <path d="M365.67,932.73c-3.75,0 -7.08,0.83 -10,2.92c-5,3.75 -7.92,9.58 -7.92,15.83c0.42,6.25 3.33,11.67 8.33,15.42c2.92,1.67 6.25,2.92 9.58,2.5c3.33,0.42 6.67,-0.83 9.58,-2.5c5,-3.75 7.92,-9.17 7.92,-15.42c0.42,-6.25 -2.5,-12.08 -7.5,-15.83c-2.92,-2.08 -6.25,-2.92 -10,-2.92Z" style="fill:#b4b4b4;stroke:#000;stroke-width:0.3px;"/>
        <path d="M365.67,991.07l0,-2.5" style="fill:none;fill-rule:nonzero;stroke:#000;stroke-width:0.3px;"/>
        <path d="M355.67,966.48c0.42,-1.25 0.42,-2.92 0.83,-4.17c0,-1.25 0.42,-2.92 1.25,-3.75c0.42,-1.25 1.67,-2.08 2.5,-2.92c0.83,-0.83 1.67,-1.25 2.5,-1.67l2.92,0" style="fill:none;fill-rule:nonzero;stroke:#000;stroke-width:0.3px;"/>
        <path d="M356.5,961.9c0.42,0.42 1.25,0.83 2.08,1.25c0.83,0.42 1.67,0.83 2.5,1.25l2.5,0c0.42,0.42 1.25,0 2.08,0" style="fill:none;fill-rule:nonzero;stroke:#000;stroke-width:0.3px;"/>
        <path d="M358.17,977.32c0,-0.69 -0.65,-1.25 -1.46,-1.25c-0.8,0 -1.46,0.56 -1.46,1.25c0,0.69 0.65,1.25 1.46,1.25c0.8,0 1.46,-0.56 1.46,-1.25Z" style="fill:none;stroke:#000;stroke-width:0.3px;"/>
        <path d="M375.25,966.48c0,-1.25 0,-2.92 -0.42,-4.17c-0.42,-1.25 -0.83,-2.92 -1.25,-3.75c-0.83,-1.25 -1.67,-2.08 -2.5,-2.92c-0.83,-0.83 -2.08,-1.25 -2.92,-1.67l-2.5,0" style="fill:none;fill-rule:nonzero;stroke:#000;stroke-width:0.3px;"/>
        <path d="M374.84,961.9c-0.83,0.42 -1.25,0.83 -2.08,1.25c-0.83,0.42 -1.67,0.83 -2.5,1.25l-2.5,0c-0.83,0.42 -1.25,-0 -2.08,-0" style="fill:none;fill-rule:nonzero;stroke:#000;stroke-width:0.3px;"/>
        <path d="M373.17,977.32c0,0.69 0.56,1.25 1.25,1.25c0.69,0 1.25,-0.56 1.25,-1.25c0,-0.69 -0.56,-1.25 -1.25,-1.25c-0.69,0 -1.25,0.56 -1.25,1.25Z" style="fill:none;stroke:#000;stroke-width:0.3px;"/>
        <rect x="233.17" y="717.32" width="212.92" height="100.42" style="fill:#f7f7f7;stroke:#000;stroke-width:1.48px;"/>
        <path d="M300.67,737.32l77.92,0c20,0 30,10 30,30c0,20 -10,30 -30,30l-77.92,0c-20,0 -30,-10 -30,-30c0,-20 10,-30 30,-30Z" style="fill:none;fill-rule:nonzero;stroke:#000;stroke-width:0.3px;"/>
        <path d="M337.75,730.23c-0.42,-2.92 -0.42,-5.83 -0.83,-8.75c0,-1.25 0.42,-1.67 0.83,-2.5c0.42,-0.42 1.25,-0.83 1.67,-0.83c0.83,0 1.67,0.42 2.08,0.83c0.42,0.83 0.83,1.25 0.83,2.5c-0.42,2.92 -0.42,5.83 -0.83,8.75c0,1.25 -0.42,2.08 -2.08,2.08c-1.25,0 -1.67,-0.83 -1.67,-2.08Z" style="fill:none;fill-rule:nonzero;stroke:#000;stroke-width:0.3px;"/>
        <path d="M342.34,726.07l49.17,0c26.25,0 39.58,13.75 39.58,41.25c0,27.92 -13.33,41.67 -39.58,41.67l-103.75,0c-26.25,0 -39.58,-13.75 -39.58,-41.67c0,-27.5 13.33,-41.25 39.58,-41.25l49.17,0" style="fill:none;fill-rule:nonzero;stroke:#000;stroke-width:0.3px;"/>
        <path d="M342.34,768.98c-1.25,1.67 -2.92,2.08 -4.58,0.83c-1.25,-0.83 -1.67,-2.5 -0.83,-4.17c1.25,-1.25 2.92,-1.67 4.58,-0.83c1.25,1.25 1.67,2.92 0.83,4.17" style="fill:none;fill-rule:nonzero;stroke:#000;stroke-width:0.3px;"/>
        <path d="M341.92,733.57c0,2.08 -0.83,3.33 -2.5,3.33c-1.25,0 -2.08,-1.25 -2.08,-3.33c0,-3.75 -0.42,-7.5 -0.42,-11.67c0,-1.25 0,-2.08 0.42,-2.92c0.83,-0.83 1.25,-1.25 2.08,-1.25c0.83,0 1.67,0.42 2.08,1.25c0.83,0.83 0.83,1.67 0.83,2.92c0,4.17 -0.42,7.92 -0.42,11.67Z" style="fill:none;fill-rule:nonzero;stroke:#000;stroke-width:0.3px;"/>
        <path d="M342.34,723.15l50.83,0c27.08,0 40.83,14.58 40.83,44.17c0,29.58 -13.75,44.58 -40.83,44.58l-107.08,0c-27.08,0 -40.83,-15 -40.83,-44.58c0,-29.58 13.75,-44.17 40.83,-44.17l50.83,0" style="fill:none;fill-rule:nonzero;stroke:#000;stroke-width:0.3px;"/>
        <path d="M78.17,865.65l0,-26.25c0,-3.33 1.67,-5 5,-5l24.58,0c3.33,0 5,1.67 5,5l0,54.58c0,3.33 -1.67,5 -5,5l-24.58,0c-3.33,0 -5,-1.67 -5,-5l0,-19.58" style="fill:none;fill-rule:nonzero;stroke:#000;stroke-width:0.3px;"/>
        <path d="M119.84,827.32l0,153.33c0,1.25 -0.42,1.67 -1.67,1.67l-55.42,0c-0.42,0 -0.83,0 -0.83,-0.42l0,-155.42c0,-0.42 0.42,-0.42 0.83,-0.42l55.42,0c1.25,0 1.67,0.42 1.67,1.25Z" style="fill:#f7f7f7;stroke:#000;stroke-width:1.48px;"/>
        <path d="M73.59,946.9l0,-0.42" style="fill:none;fill-rule:nonzero;stroke:#000;stroke-width:0.3px;"/>
        <path d="M78.17,940.23l0,-26.25c0,-2.92 1.67,-4.58 5,-4.58l24.58,0c3.33,0 5,1.67 5,4.58l0,55c0,3.33 -1.67,4.58 -5,4.58l-24.58,0c-3.33,0 -5,-1.25 -5,-4.58l0,-20" style="fill:none;fill-rule:nonzero;stroke:#000;stroke-width:0.3px;"/>
        <path d="M74,874.4l0,0.42c0,0.42 -0.42,0.42 -0.42,0.42l-4.17,0c0,0 -0.42,0 -0.42,-0.42l0,-2.5c0,-0.42 0.42,-0.42 0.42,-0.42l4.17,0c0,0 0.42,0 0.42,0.42l0,1.25" style="fill:none;fill-rule:nonzero;stroke:#000;stroke-width:0.3px;"/>
        <path d="M74,948.98l0,0.83l-5,0l0,-2.92l5,0l0,1.67" style="fill:none;fill-rule:nonzero;stroke:#000;stroke-width:0.3px;"/>
        <path d="M71.5,867.73l25,0c0.83,0 1.25,-0.42 1.25,-0.83c0,-0.83 -0.42,-1.25 -1.25,-1.25c-8.33,0 -16.67,0 -25,-0.42c-0.42,0 -0.42,0.42 -0.83,0.42c-0.42,0.42 -0.42,0.42 -0.42,0.83c0,0.42 0,0.83 0.42,0.83c0.42,0.42 0.42,0.42 0.83,0.42Z" style="fill:none;fill-rule:nonzero;stroke:#000;stroke-width:0.3px;"/>
        <path d="M71.5,942.73l25,0c0.83,0 1.25,-0.42 1.25,-1.25c0,-0.83 -0.42,-1.25 -1.25,-1.25l-25,0c-0.42,0 -0.42,0 -0.83,0.42c-0.42,0 -0.42,0.42 -0.42,0.83c0,0.42 0,0.42 0.42,0.83c0.42,0 0.42,0.42 0.83,0.42Z" style="fill:none;fill-rule:nonzero;stroke:#000;stroke-width:0.3px;"/>
        <path d="M69.84,946.9l0,-0.42" style="fill:none;fill-rule:nonzero;stroke:#000;stroke-width:0.3px;"/>
        <path d="M89.84,867.73c-0.42,1.25 -1.25,1.67 -2.5,1.67c-1.25,0 -2.08,-0.42 -2.5,-1.67" style="fill:none;fill-rule:nonzero;stroke:#000;stroke-width:0.3px;"/>
        <path d="M89.84,942.73c-0.42,0.83 -1.25,1.67 -2.5,1.67c-1.25,0 -2.08,-0.83 -2.5,-1.67" style="fill:none;fill-rule:nonzero;stroke:#000;stroke-width:0.3px;"/>
        <path d="M74.42,867.73c-0.42,1.25 -2.08,2.08 -3.33,1.67c-1.67,0 -2.5,-1.25 -2.5,-2.92c-0,-1.25 0.83,-2.5 2.5,-2.92c1.25,0 2.92,0.42 3.33,1.67" style="fill:none;fill-rule:nonzero;stroke:#000;stroke-width:0.3px;"/>
        <path d="M74.42,942.73c-0.42,1.25 -2.08,2.08 -3.33,1.67c-1.67,-0.42 -2.5,-1.67 -2.5,-2.92c0,-1.25 0.83,-2.5 2.5,-2.92c1.25,-0.42 2.92,0.42 3.33,1.67" style="fill:none;fill-rule:nonzero;stroke:#000;stroke-width:0.3px;"/>
        <path d="M84.84,865.65c0.42,-1.25 1.25,-1.67 2.5,-1.67c1.25,0 2.08,0.42 2.5,1.67" style="fill:none;fill-rule:nonzero;stroke:#000;stroke-width:0.3px;"/>
        <path d="M84.84,940.23c0.42,-0.83 1.25,-1.25 2.5,-1.25c1.25,0 2.08,0.42 2.5,1.25" style="fill:none;fill-rule:nonzero;stroke:#000;stroke-width:0.3px;"/>
        <path d="M69,868.15l0,3.75l5,0l0,-3.33" style="fill:none;fill-rule:nonzero;stroke:#000;stroke-width:0.3px;"/>
        <path d="M69,943.15l0,3.33l5,0l0,-2.92" style="fill:none;fill-rule:nonzero;stroke:#000;stroke-width:0.3px;"/>
        <path d="M72.75,873.57l7.08,0c0,0 0.42,0 0.42,0.42c0,0.42 -0.42,0.42 -0.42,0.42l-7.08,0" style="fill:none;fill-rule:nonzero;stroke:#000;stroke-width:0.3px;"/>
        <path d="M72.75,948.57l7.5,0l0,0.42l-7.5,0" style="fill:none;fill-rule:nonzero;stroke:#000;stroke-width:0.3px;"/>
        <path d="M78.17,873.57l0,-5.83" style="fill:none;fill-rule:nonzero;stroke:#000;stroke-width:0.3px;"/>
        <path d="M78.17,948.57l0,-5.83" style="fill:none;fill-rule:nonzero;stroke:#000;stroke-width:0.3px;"/>
        <path d="M78.17,865.65l0,-26.25c0,-3.33 1.67,-5 5,-5l24.58,0c3.33,0 5,1.67 5,5l0,54.58c0,3.33 -1.67,5 -5,5l-24.58,0c-3.33,0 -5,-1.67 -5,-5l0,-19.58" style="fill:none;fill-rule:nonzero;stroke:#000;stroke-width:0.3px;"/>
        <rect x="65.67" y="814.82" width="68.75" height="2.08" style="fill:#f7f7f7;stroke:#000;stroke-width:0.3px;"/>
        <path d="M216.09,814.82l-0.42,0m-0.42,0l-0.83,0m0,0l-0.83,0m-0.42,0l-0.83,0m-0.42,0l-0.83,0m0,0l-0.83,0m-0.42,0l-0.83,0m-0.42,0l-0.42,0m-0.42,0l-0.83,0m-0.42,0l-0.83,0m-0.42,0l-0.42,0m-0.42,0l-0.83,0m-0.42,0l-0.83,0m0,0l-0.83,0m-0.42,0l-0.83,0m-0.42,0l-0.42,0m-0.42,0l-0.83,0m-0.42,0l-0.83,0m-0.42,0l-0.42,0m-0.42,0l-0.83,0m-0.42,0l-0.83,0m-0.42,0l-0.42,0m-0.42,0l-0.83,0m-0.42,0l-0.83,0m0,0l-0.83,0m-0.42,0l-0.83,0m-0.42,0l-0.42,0m-0.42,0l-0.83,0m-0.42,0l-0.83,0m-0.42,0l-0.42,0m-0.42,0l-0.83,0m-0.42,0l-0.83,0m0,0l-0.83,0m-0.42,0l-0.83,0m-0.42,0l-0.42,0m-0.42,0l-0.83,0m-0.42,0l-0.83,0m-0.42,0l-0.42,0m-0.42,0l-0.83,0m-0.42,0l-0.83,0m-0.42,0l-0.42,0m-0.42,0l-0.83,0m-0.42,0l-0.83,0m0,0l-0.83,0m-0.42,0l-0.83,0m-0.42,0l-0.42,0m-0.42,0l-0.83,0m-0.42,0l-0.83,0m-0.42,0l-0.42,0m-0.42,0l-0.83,0m-0.42,0l-0.83,0m0,0l-0.83,0m-0.42,0l-0.83,0m-0.42,0l-0.42,0m-0.42,0l-0.83,0m-0.42,0l-0.83,0m-0.42,0l-0.42,0m-0.42,0l-0.83,0m-0.42,0l-0.83,0m-0.42,0l-0.42,0m-0.42,0l-0.83,0m-0.42,0l-0.83,0m0,0l-0.83,0m-0.42,0l-0.83,0m-0.42,0l-0.42,0m-0.42,0l-0.83,0m-0.42,0l-0.83,0m-0.42,0l-0.42,0m-0.42,0l-0.83,0m-0.42,0l-0.83,0m0,0l-0.83,0m-0.42,0l-0.83,0m-0.42,0l-0.83,0m0,0l-0.83,0m-0.42,0l-0.83,0" style="fill:none;fill-rule:nonzero;stroke:#bcbcbc;stroke-width:0.3px;"/>
        <rect x="61.92" y="814.4" width="3.75" height="3.33" style="fill:#f7f7f7;stroke:#000;stroke-width:1.48px;"/>
        <path d="M134.42,816.9l0.42,0m0.42,0l0.83,0m0.42,0l0.42,0m0.42,0l0.83,0m0.42,0l0.83,0m0.42,0l0.42,0m0.42,0l0.83,0m0.42,0l0.83,0m0,0l0.83,0m0.42,0l0.83,0m0.42,0l0.42,0m0.42,0l0.83,0m0.42,0l0.83,0m0.42,0l0.42,0m0.42,0l0.83,0m0.42,0l0.83,0m0.42,0l0.42,0m0.42,0l0.83,0m0.42,0l0.83,0m0,0l0.83,0m0.42,0l0.83,0m0.42,0l0.42,0m0.42,0l0.83,0m0.42,0l0.83,0m0.42,0l0.42,0m0.42,0l0.83,0m0.42,0l0.83,0m0,0l0.83,0m0.42,0l0.83,0m0.42,0l0.42,0m0.42,0l0.83,0m0.42,0l0.83,0m0.42,0l0.42,0m0.42,0l0.83,0m0.42,0l0.83,0m0.42,0l0.42,0m0.42,0l0.83,0m0.42,0l0.83,0m0,0l0.83,0m0.42,0l0.83,0m0.42,0l0.42,0m0.42,0l0.83,0m0.42,0l0.83,0m0.42,0l0.42,0m0.42,0l0.83,0m0.42,0l0.83,0m0,0l0.83,0m0.42,0l0.83,0m0.42,0l0.83,0m0,0l0.83,0m0.42,0l0.83,0m0.42,0l0.42,0m0.42,0l0.83,0m0.42,0l0.83,0m0.42,0l0.42,0m0.42,0l0.83,0m0.42,0l0.83,0m0,0l0.83,0m0.42,0l0.83,0m0.42,0l0.42,0m0.42,0l0.83,0m0.42,0l0.83,0m0.42,0l0.42,0m0.42,0l0.83,0m0.42,0l0.83,0m0.42,0l0.42,0m0.42,0l0.83,0m0.42,0l0.83,0m0,0l0.83,0m0.42,0l0.83,0m0.42,0l0.42,0m0.42,0l0.83,0m0.42,0l0.83,0m0.42,0l0.42,0m0.42,0l0.83,0m0.42,0l0.83,0m0,0l0.83,0m0.42,0l0.42,0" style="fill:none;fill-rule:nonzero;stroke:#bcbcbc;stroke-width:0.3px;"/>
        <path d="M164.84,760.23l1.25,-0.83l1.67,1.67l-1.25,1.25l-1.67,-2.08Z" style="fill:#f7f7f7;"/>
        <path d="M164.84,760.23l1.25,-0.83l1.67,1.67l-1.25,1.25" style="fill:none;fill-rule:nonzero;stroke:#000;stroke-width:0.3px;"/>
        <path d="M160.25,756.07l58.75,58.75l-1.25,1.67l-59.17,-58.75l1.67,-1.67Z" style="fill:#f7f7f7;stroke:#000;stroke-width:0.3px;"/>
        <path d="M161.92,763.15l1.67,1.67l1.25,-1.25l-1.67,-1.67l-1.25,1.25Z" style="fill:#f7f7f7;"/>
        <path d="M163.17,761.9l-1.25,1.25l1.67,1.67l1.25,-1.25" style="fill:none;fill-rule:nonzero;stroke:#000;stroke-width:0.3px;"/>
        <path d="M158.59,757.73c-15.42,15.83 -24.17,37.08 -24.17,59.17" style="fill:none;fill-rule:nonzero;stroke:#000;stroke-width:0.3px;"/>
        <rect x="219" y="814.82" width="10.83" height="2.08" style="fill:#f7f7f7;stroke:#000;stroke-width:0.3px;"/>
        <rect x="229.84" y="814.4" width="3.33" height="3.33" style="fill:#f7f7f7;stroke:#000;stroke-width:1.48px;"/>
        <rect x="229.84" y="717.32" width="3.33" height="3.33" style="fill:#f7f7f7;stroke:#000;stroke-width:1.48px;"/>
        <path d="M230.25,814.4l2.5,0l0,-93.75l-2.5,0l0,93.75Z" style="fill:#f7f7f7;stroke:#000;stroke-width:0.3px;"/>
        <path d="M670.25,563.57l17.92,-17.5m-17.92,-3.33l17.92,-17.5m-17.92,-3.33l17.92,-17.5m-17.92,-3.33l8.33,-8.33" style="fill:none;fill-rule:nonzero;stroke:#000;stroke-opacity:0.31;stroke-width:1.48px;"/>
        <path d="M670.25,563.57l0,-70.83l17.92,0l0,70.83" style="fill:none;fill-rule:nonzero;stroke:#2b2b2b;stroke-width:2.95px;stroke-linecap:round;"/>
        <path d="M516.92,563.57l17.5,-17.5m-17.5,-3.33l17.5,-17.5m-17.5,-3.33l17.5,-17.5m-17.5,-3.33l17.5,-17.92m-17.5,-2.92l17.5,-17.92m-17.5,-2.92l17.5,-17.92m-17.5,-2.92l17.5,-17.92m-17.5,-2.92l17.5,-17.92m-17.5,-3.33l17.5,-17.5m-17.5,-3.33l17.5,-17.5m-17.5,-3.33l17.5,-17.5m-17.5,-3.33l17.5,-17.5m-17.5,-3.33l17.5,-17.92m-17.5,-2.92l17.5,-17.92m-17.5,-2.92l17.5,-17.92m-17.5,-2.92l17.5,-17.92m-17.5,-2.92l17.5,-17.92m-17.5,-3.33l17.5,-17.5m-17.5,-3.33l17.5,-17.5m-17.5,-3.33l4.58,-4.58" style="fill:none;fill-rule:nonzero;stroke:#000;stroke-opacity:0.31;stroke-width:1.48px;"/>
        <path d="M534.42,162.32l0,401.25m-17.5,0l0,-401.25" style="fill:none;fill-rule:nonzero;stroke:#2b2b2b;stroke-width:2.95px;stroke-linecap:round;"/>
        <path d="M658.59,574.4l10.83,-10.83m-122.08,17.92l5,-5m-26.25,5l17.92,-17.92m-38.75,17.92l17.92,-17.92m-38.75,17.92l17.92,-17.92m-38.75,17.92l17.92,-17.92" style="fill:none;fill-rule:nonzero;stroke:#000;stroke-opacity:0.31;stroke-width:1.48px;"/>
        <path d="M658.59,563.57l11.67,0m0,17.92l-11.67,0l0,-17.92m-195,0l53.33,0m17.5,0l17.92,0l0,17.92l-88.75,0" style="fill:none;fill-rule:nonzero;stroke:#2b2b2b;stroke-width:2.95px;stroke-linecap:round;"/>
        <path d="M446.09,1012.73l17.5,-17.92m-17.5,-3.33l17.5,-17.5m-17.5,-3.33l17.5,-17.5m-17.5,-3.33l17.5,-17.5m-17.5,-3.33l10.83,-10.83m-10,-94.58l16.67,-16.67m-17.5,-3.33l17.5,-17.5m-17.5,-3.33l17.5,-17.5m-17.5,-3.33l17.5,-17.5m-17.5,-3.33l17.5,-17.5m-17.5,-3.33l14.58,-15m-3.33,-17.5l6.25,-5.83m-10,-94.58l10,-10m-17.5,-3.33l10,-10.42" style="fill:none;fill-rule:nonzero;stroke:#000;stroke-opacity:0.31;stroke-width:1.48px;"/>
        <path d="M446.09,918.15l17.5,0l0,94.58m-17.5,-21.67l0,-72.92m8.75,-330.83l-8.75,0l0,-23.75l17.5,0m0,17.92l0,5.83l-8.75,0m-8.75,236.25l0,-106.25m17.5,-12.08l0,118.33l-17.5,0m0,-135.83l0,-5.83l17.5,0l0,5.83" style="fill:none;fill-rule:nonzero;stroke:#2b2b2b;stroke-width:2.95px;stroke-linecap:round;"/>
        <path d="M670.25,1012.32l17.92,-17.5m-17.92,-3.33l17.92,-17.5m-17.92,-3.33l17.92,-17.5m-17.92,-3.33l17.92,-17.5m-17.92,-3.33l17.92,-17.5m-17.92,-3.33l17.92,-17.92m-17.92,-2.92l17.92,-17.92m-17.92,-2.92l17.92,-17.92m-17.92,-2.92l17.92,-17.92m-17.92,-3.33l17.92,-17.5m-17.92,-3.33l17.92,-17.5m-17.92,-3.33l17.92,-17.5m-17.92,-107.5l17.92,-17.92m-17.92,-2.92l17.92,-17.92m-17.92,-3.33l17.92,-17.5m-17.92,-3.33l13.75,-13.33" style="fill:none;fill-rule:nonzero;stroke:#000;stroke-opacity:0.31;stroke-width:1.48px;"/>
        <path d="M670.25,764.4l17.92,0l0,248.33m-17.92,0l0,-248.33m0,-106.25l0,-76.67m17.92,0l0,76.67l-17.92,0" style="fill:none;fill-rule:nonzero;stroke:#2b2b2b;stroke-width:2.95px;stroke-linecap:round;"/>
        <path d="M446.92,705.23l16.67,-16.67m-37.5,16.67l17.5,-17.5m-38.33,17.5l17.5,-17.5m-38.33,17.5l17.5,-17.5m-38.33,17.5l17.5,-17.5m-38.33,17.5l17.5,-17.5m-38.75,17.5l17.92,-17.5m-38.75,17.5l17.92,-17.5m-38.75,17.5l17.92,-17.5m-38.75,17.5l17.92,-17.5m-38.75,17.5l17.92,-17.5m-38.75,17.5l17.5,-17.5m-38.33,17.5l17.5,-17.5m-38.33,17.5l17.5,-17.5m-38.33,17.5l17.5,-17.5m-38.75,17.5l17.92,-17.5m-38.75,17.5l17.92,-17.5m-38.75,17.5l17.92,-17.5m-38.75,17.5l17.92,-17.5m-38.75,17.5l17.92,-17.5" style="fill:none;fill-rule:nonzero;stroke:#000;stroke-opacity:0.31;stroke-width:1.48px;"/>
        <path d="M463.59,687.73l0,17.5m-413.33,-17.5l395.83,0" style="fill:none;fill-rule:nonzero;stroke:#2b2b2b;stroke-width:2.95px;stroke-linecap:round;"/>
        <path d="M858.17,581.48l17.92,-17.92m-38.75,17.92l17.92,-17.92m-38.75,17.92l17.5,-17.92m-38.33,17.92l17.5,-17.92m-38.33,17.92l17.5,-17.92m-38.33,17.92l17.5,-17.92m-38.33,17.92l17.5,-17.92m-38.75,17.92l17.92,-17.92m-38.75,17.92l17.92,-17.92m-38.75,17.92l17.92,-17.92" style="fill:none;fill-rule:nonzero;stroke:#000;stroke-opacity:0.31;stroke-width:1.48px;"/>
        <path d="M688.17,563.57l188.75,0m0,17.92l-188.75,0" style="fill:none;fill-rule:nonzero;stroke:#2b2b2b;stroke-width:2.95px;stroke-linecap:round;"/>
        <path d="M876.92,581.48l17.92,-17.92m-17.92,-2.92l17.92,-17.92m-17.92,-2.92l17.92,-17.92m-17.92,-2.92l8.33,-8.33" style="fill:none;fill-rule:nonzero;stroke:#000;stroke-opacity:0.31;stroke-width:1.48px;"/>
        <path d="M876.92,563.57l0,-52.92m17.92,0l0,70.83l-17.92,0" style="fill:none;fill-rule:nonzero;stroke:#2b2b2b;stroke-width:2.95px;stroke-linecap:round;"/>
        <path d="M1064.84,510.65l17.92,-17.92m-38.75,17.92l17.92,-17.92m-38.75,17.92l17.92,-17.92m-38.75,17.92l17.5,-17.92m-38.33,17.92l17.5,-17.92m-38.33,17.92l17.5,-17.92m-38.33,17.92l17.5,-17.92m-38.75,17.92l17.92,-17.92m-38.75,17.92l17.92,-17.92m-38.75,17.92l17.92,-17.92" style="fill:none;fill-rule:nonzero;stroke:#000;stroke-opacity:0.31;stroke-width:1.48px;"/>
        <path d="M876.92,510.65l0,-17.92l206.67,0m0,17.92l-188.75,0" style="fill:none;fill-rule:nonzero;stroke:#2b2b2b;stroke-width:2.95px;stroke-linecap:round;"/>
        <rect x="50.25" y="1012.73" width="413.33" height="35.42" style="fill:#fff;fill-opacity:0.1;"/>
        <path d="M446.92,1048.15l16.67,-16.67m-37.5,16.67l35.42,-35.42m-56.25,35.42l35.42,-35.42m-56.25,35.42l35.42,-35.42m-56.25,35.42l35.42,-35.42m-56.25,35.42l35.42,-35.42m-56.67,35.42l35.42,-35.42m-56.25,35.42l35.42,-35.42m-56.25,35.42l35.42,-35.42m-56.25,35.42l35.42,-35.42m-56.25,35.42l35.42,-35.42m-56.25,35.42l35.42,-35.42m-56.25,35.42l35.42,-35.42m-56.25,35.42l35.42,-35.42m-56.25,35.42l35.42,-35.42m-56.67,35.42l35.42,-35.42m-56.25,35.42l35.42,-35.42m-56.25,35.42l35.42,-35.42m-56.25,35.42l35.42,-35.42m-56.25,35.42l35.42,-35.42m-35.42,14.17l14.58,-14.17m398.75,10l-10.42,-10m10.42,30.83l-31.25,-30.83m14.58,35.42l-35.42,-35.42m14.58,35.42l-35.42,-35.42m14.58,35.42l-35.42,-35.42m14.58,35.42l-35.42,-35.42m14.58,35.42l-35.42,-35.42m14.58,35.42l-35.83,-35.42m14.58,35.42l-35.42,-35.42m14.58,35.42l-35.42,-35.42m14.58,35.42l-35.42,-35.42m14.58,35.42l-35.42,-35.42m14.58,35.42l-35.42,-35.42m14.58,35.42l-35.42,-35.42m14.58,35.42l-35.42,-35.42m14.58,35.42l-35.42,-35.42m14.58,35.42l-35.83,-35.42m14.58,35.42l-35.42,-35.42m14.58,35.42l-35.42,-35.42m14.58,35.42l-35.42,-35.42m14.58,35.42l-20.83,-21.25" style="fill:none;fill-rule:nonzero;stroke:#000;stroke-opacity:0.31;stroke-width:1.48px;"/>
        <path d="M463.59,1012.73l0,35.42l-413.33,0" style="fill:none;fill-rule:nonzero;stroke:#2b2b2b;stroke-width:2.95px;stroke-linecap:round;"/>
        <rect x="14.84" y="162.32" width="35.42" height="885.83" style="fill:#fff;fill-opacity:0.1;"/>
        <path d="M35.67,1048.15l14.58,-14.58m-35.42,14.58l35.42,-35.83m-35.42,14.58l35.42,-35.42m-35.42,14.58l35.42,-35.42m-35.42,14.58l35.42,-35.42m-35.42,14.58l35.42,-35.42m-35.42,14.58l35.42,-35.42m-35.42,14.58l35.42,-35.42m-35.42,14.58l35.42,-35.42m-35.42,14.58l35.42,-35.42m-35.42,14.58l35.42,-35.42m-35.42,14.17l35.42,-35.42m-35.42,14.58l35.42,-35.42m-35.42,14.58l35.42,-35.42m-35.42,14.58l35.42,-35.42m-35.42,14.58l35.42,-35.42m-35.42,14.58l35.42,-35.42m-35.42,14.58l35.42,-35.42m-35.42,14.58l35.42,-35.42m-35.42,14.58l35.42,-35.42m-35.42,14.17l35.42,-35.42m-35.42,14.58l35.42,-35.42m-35.42,14.58l35.42,-35.42m-35.42,14.58l35.42,-35.42m-35.42,14.58l35.42,-35.42m-35.42,14.58l35.42,-35.42m-35.42,14.58l35.42,-35.42m-35.42,14.58l35.42,-35.42m-35.42,14.58l35.42,-35.42m-35.42,14.17l35.42,-35.42m-35.42,14.58l35.42,-35.42m-35.42,14.58l35.42,-35.42m-35.42,14.58l35.42,-35.42m-35.42,14.58l35.42,-35.42m-35.42,14.58l35.42,-35.42m-35.42,14.58l35.42,-35.42m-35.42,14.58l35.42,-35.42m-35.42,14.58l35.42,-35.42m-35.42,14.17l35.42,-35.42m-35.42,14.58l35.42,-35.42m-35.42,14.58l35.42,-35.42m-35.42,14.58l35.42,-35.42m-35.42,14.58l29.58,-29.58m-29.58,8.75l8.75,-8.75m26.67,2.5l-2.5,-2.5m2.5,23.33l-23.33,-23.33m23.33,44.17l-35.42,-35.42m35.42,56.25l-35.42,-35.42m35.42,56.25l-35.42,-35.42m35.42,56.25l-35.42,-35.42m35.42,56.25l-35.42,-35.42m35.42,56.67l-35.42,-35.83m35.42,56.67l-35.42,-35.42m35.42,56.25l-35.42,-35.42m35.42,56.25l-35.42,-35.42m35.42,56.25l-35.42,-35.42m35.42,56.25l-35.42,-35.42m35.42,56.25l-35.42,-35.42m35.42,56.25l-35.42,-35.42m35.42,56.25l-35.42,-35.42m35.42,56.67l-35.42,-35.83m35.42,56.67l-35.42,-35.42m35.42,56.25l-35.42,-35.42m35.42,56.25l-35.42,-35.42m35.42,56.25l-35.42,-35.42m35.42,56.25l-35.42,-35.42m35.42,56.25l-35.42,-35.42m35.42,56.25l-35.42,-35.42m35.42,56.25l-35.42,-35.42m35.42,56.25l-35.42,-35.42m35.42,56.67l-35.42,-35.42m35.42,56.25l-35.42,-35.42m35.42,56.25l-35.42,-35.42m35.42,56.25l-35.42,-35.42m35.42,56.25l-35.42,-35.42m35.42,56.25l-35.42,-35.42m35.42,56.25l-35.42,-35.42m35.42,56.25l-35.42,-35.42m35.42,56.25l-35.42,-35.42m35.42,56.67l-35.42,-35.42m35.42,56.25l-35.42,-35.42m35.42,56.25l-35.42,-35.42m35.42,56.25l-35.42,-35.42m35.42,56.25l-35.42,-35.42m35.42,56.25l-35.42,-35.42m35.42,56.25l-35.42,-35.42m35.42,56.25l-35.42,-35.42m20.83,42.08l-20.83,-21.25" style="fill:none;fill-rule:nonzero;stroke:#000;stroke-opacity:0.31;stroke-width:1.48px;"/>
        <path d="M50.25,1048.15l-35.42,0l0,-885.83m35.42,0l0,525.42" style="fill:none;fill-rule:nonzero;stroke:#2b2b2b;stroke-width:2.95px;stroke-linecap:round;"/>
        <rect x="670.25" y="1012.73" width="413.33" height="35.42" style="fill:#fff;fill-opacity:0.1;"/>
        <path d="M1066.92,1048.15l16.67,-16.67m-37.5,16.67l35.42,-35.42m-56.25,35.42l35.42,-35.42m-56.25,35.42l35.42,-35.42m-56.25,35.42l35.42,-35.42m-56.25,35.42l35.42,-35.42m-56.25,35.42l35.42,-35.42m-56.25,35.42l35.42,-35.42m-56.67,35.42l35.42,-35.42m-56.25,35.42l35.42,-35.42m-56.25,35.42l35.42,-35.42m-56.25,35.42l35.42,-35.42m-56.25,35.42l35.42,-35.42m-56.25,35.42l35.42,-35.42m-56.25,35.42l35.42,-35.42m-56.25,35.42l35.42,-35.42m-56.25,35.42l35.42,-35.42m-56.67,35.42l35.42,-35.42m-56.25,35.42l35.42,-35.42m-56.25,35.42l35.42,-35.42m-35.42,14.17l14.58,-14.17m398.75,10l-10.42,-10m10.42,30.83l-31.25,-30.83m14.58,35.42l-35.42,-35.42m14.58,35.42l-35.42,-35.42m14.58,35.42l-35.42,-35.42m14.58,35.42l-35.42,-35.42m14.58,35.42l-35.42,-35.42m14.58,35.42l-35.42,-35.42m14.58,35.42l-35.42,-35.42m14.58,35.42l-35.83,-35.42m14.58,35.42l-35.42,-35.42m14.58,35.42l-35.42,-35.42m14.58,35.42l-35.42,-35.42m14.58,35.42l-35.42,-35.42m14.58,35.42l-35.42,-35.42m14.58,35.42l-35.42,-35.42m14.58,35.42l-35.42,-35.42m14.58,35.42l-35.42,-35.42m14.58,35.42l-35.83,-35.42m14.58,35.42l-35.42,-35.42m14.58,35.42l-20.83,-21.25" style="fill:none;fill-rule:nonzero;stroke:#000;stroke-opacity:0.31;stroke-width:1.48px;"/>
        <path d="M1083.59,1048.15l-413.33,0l0,-35.42m17.92,0l395.42,0" style="fill:none;fill-rule:nonzero;stroke:#2b2b2b;stroke-width:2.95px;stroke-linecap:round;"/>
        <rect x="1083.59" y="162.32" width="35.42" height="885.83" style="fill:#fff;fill-opacity:0.1;"/>
        <path d="M1104.42,1048.15l14.58,-14.58m-35.42,14.17l35.42,-35.42m-35.42,14.58l35.42,-35.42m-35.42,14.58l35.42,-35.42m-35.42,14.58l35.42,-35.42m-35.42,14.58l35.42,-35.42m-35.42,14.58l35.42,-35.42m-35.42,14.58l35.42,-35.42m-35.42,14.58l35.42,-35.42m-35.42,14.58l35.42,-35.42m-35.42,14.17l35.42,-35.42m-35.42,14.58l35.42,-35.42m-35.42,14.58l35.42,-35.42m-35.42,14.58l35.42,-35.42m-35.42,14.58l35.42,-35.42m-35.42,14.58l35.42,-35.42m-35.42,14.58l35.42,-35.42m-35.42,14.58l35.42,-35.42m-35.42,14.58l35.42,-35.42m-35.42,14.58l35.42,-35.83m-35.42,14.58l35.42,-35.42m-35.42,14.58l35.42,-35.42m-35.42,14.58l35.42,-35.42m-35.42,14.58l35.42,-35.42m-35.42,14.58l35.42,-35.42m-35.42,14.58l35.42,-35.42m-35.42,14.58l35.42,-35.42m-35.42,14.58l35.42,-35.42m-35.42,14.58l35.42,-35.83m-35.42,14.58l35.42,-35.42m-35.42,14.58l35.42,-35.42m-35.42,14.58l35.42,-35.42m-35.42,14.58l35.42,-35.42m-35.42,14.58l35.42,-35.42m-35.42,14.58l35.42,-35.42m-35.42,14.58l35.42,-35.42m-35.42,14.58l35.42,-35.42m-35.42,14.58l35.42,-35.83m-35.42,14.58l35.42,-35.42m-35.42,14.58l35.42,-35.42m-35.42,14.58l35.42,-35.42m-35.42,14.58l35.42,-35.42m-35.42,14.58l30,-29.58m-30,8.75l9.17,-8.75m26.25,2.5l-2.5,-2.5m2.5,23.33l-23.33,-23.33m23.33,44.17l-35.42,-35.42m35.42,56.25l-35.42,-35.42m35.42,56.25l-35.42,-35.42m35.42,56.25l-35.42,-35.42m35.42,56.25l-35.42,-35.42m35.42,56.67l-35.42,-35.42m35.42,56.25l-35.42,-35.42m35.42,56.25l-35.42,-35.42m35.42,56.25l-35.42,-35.42m35.42,56.25l-35.42,-35.42m35.42,56.25l-35.42,-35.42m35.42,56.25l-35.42,-35.42m35.42,56.25l-35.42,-35.42m35.42,56.25l-35.42,-35.42m35.42,56.67l-35.42,-35.83m35.42,56.67l-35.42,-35.42m35.42,56.25l-35.42,-35.42m35.42,56.25l-35.42,-35.42m35.42,56.25l-35.42,-35.42m35.42,56.25l-35.42,-35.42m35.42,56.25l-35.42,-35.42m35.42,56.25l-35.42,-35.42m35.42,56.25l-35.42,-35.42m35.42,56.67l-35.42,-35.83m35.42,56.67l-35.42,-35.42m35.42,56.25l-35.42,-35.42m35.42,56.25l-35.42,-35.42m35.42,56.25l-35.42,-35.42m35.42,56.25l-35.42,-35.42m35.42,56.25l-35.42,-35.42m35.42,56.25l-35.42,-35.42m35.42,56.25l-35.42,-35.42m35.42,56.67l-35.42,-35.83m35.42,56.67l-35.42,-35.42m35.42,56.25l-35.42,-35.42m35.42,56.25l-35.42,-35.42m35.42,56.25l-35.42,-35.42m35.42,56.25l-35.42,-35.42m35.42,56.25l-35.42,-35.42m35.42,56.25l-35.42,-35.42m35.42,56.25l-35.42,-35.42m20.83,42.08l-20.83,-20.83" style="fill:none;fill-rule:nonzero;stroke:#000;stroke-opacity:0.31;stroke-width:1.48px;"/>
        <path d="M1119,162.32l0,885.83l-35.42,0m0,-35.42l0,-502.08m0,-17.92l0,-330.42" style="fill:none;fill-rule:nonzero;stroke:#2b2b2b;stroke-width:2.95px;stroke-linecap:round;"/>
        <rect x="14.84" y="126.9" width="1104.17" height="35.42" style="fill:#fff;fill-opacity:0.1;"/>
        <path d="M1100.67,162.32l18.33,-18.75m-39.17,18.75l35.42,-35.42m-56.67,35.42l35.42,-35.42m-56.25,35.42l35.42,-35.42m-56.25,35.42l35.42,-35.42m-56.25,35.42l35.42,-35.42m-56.25,35.42l35.42,-35.42m-56.25,35.42l35.42,-35.42m-56.25,35.42l35.42,-35.42m-56.25,35.42l35.42,-35.42m-56.25,35.42l35.42,-35.42m-56.67,35.42l35.42,-35.42m-56.25,35.42l35.42,-35.42m-56.25,35.42l35.42,-35.42m-56.25,35.42l35.42,-35.42m-56.25,35.42l35.42,-35.42m-56.25,35.42l35.42,-35.42m-56.25,35.42l35.42,-35.42m-56.25,35.42l35.42,-35.42m-56.25,35.42l35.42,-35.42m-56.67,35.42l35.83,-35.42m-56.67,35.42l35.42,-35.42m-56.25,35.42l35.42,-35.42m-56.25,35.42l35.42,-35.42m-56.25,35.42l35.42,-35.42m-56.25,35.42l35.42,-35.42m-56.25,35.42l35.42,-35.42m-56.25,35.42l35.42,-35.42m-56.25,35.42l35.42,-35.42m-56.67,35.42l35.83,-35.42m-56.67,35.42l35.42,-35.42m-56.25,35.42l35.42,-35.42m-56.25,35.42l35.42,-35.42m-56.25,35.42l35.42,-35.42m-56.25,35.42l35.42,-35.42m-56.25,35.42l35.42,-35.42m-56.25,35.42l35.42,-35.42m-56.25,35.42l35.42,-35.42m-56.67,35.42l35.83,-35.42m-56.67,35.42l35.42,-35.42m-56.25,35.42l35.42,-35.42m-56.25,35.42l35.42,-35.42m-56.25,35.42l35.42,-35.42m-56.25,35.42l35.42,-35.42m-56.25,35.42l35.42,-35.42m-56.25,35.42l35.42,-35.42m-56.25,35.42l35.42,-35.42m-56.67,35.42l35.83,-35.42m-56.67,35.42l35.42,-35.42m-56.25,35.42l35.42,-35.42m-56.25,35.42l35.42,-35.42m-56.25,35.42l35.42,-35.42m-56.25,35.42l35.42,-35.42m-35.42,14.17l14.58,-14.17m1089.58,12.08l-12.08,-12.08m12.08,32.92l-32.92,-32.92m14.58,35.42l-35.42,-35.42m14.58,35.42l-35.42,-35.42m14.17,35.42l-35.42,-35.42m14.58,35.42l-35.42,-35.42m14.58,35.42l-35.42,-35.42m14.58,35.42l-35.42,-35.42m14.58,35.42l-35.42,-35.42m14.58,35.42l-35.42,-35.42m14.58,35.42l-35.42,-35.42m14.58,35.42l-35.42,-35.42m14.58,35.42l-35.42,-35.42m14.17,35.42l-35.42,-35.42m14.58,35.42l-35.42,-35.42m14.58,35.42l-35.42,-35.42m14.58,35.42l-35.42,-35.42m14.58,35.42l-35.42,-35.42m14.58,35.42l-35.42,-35.42m14.58,35.42l-35.42,-35.42m14.58,35.42l-35.42,-35.42m14.58,35.42l-35.42,-35.42m14.17,35.42l-35.42,-35.42m14.58,35.42l-35.42,-35.42m14.58,35.42l-35.42,-35.42m14.58,35.42l-35.42,-35.42m14.58,35.42l-35.42,-35.42m14.58,35.42l-35.42,-35.42m14.58,35.42l-35.42,-35.42m14.58,35.42l-35.42,-35.42m14.58,35.42l-35.42,-35.42m14.17,35.42l-35.42,-35.42m14.58,35.42l-35.42,-35.42m14.58,35.42l-35.42,-35.42m14.58,35.42l-35.42,-35.42m14.58,35.42l-35.42,-35.42m14.58,35.42l-35.42,-35.42m14.58,35.42l-35.42,-35.42m14.58,35.42l-35.42,-35.42m14.58,35.42l-35.42,-35.42m14.17,35.42l-35.42,-35.42m14.58,35.42l-35.42,-35.42m14.58,35.42l-35.42,-35.42m14.58,35.42l-35.42,-35.42m14.58,35.42l-35.42,-35.42m14.58,35.42l-35.42,-35.42m14.58,35.42l-35.42,-35.42m14.58,35.42l-35.42,-35.42m14.58,35.42l-35.42,-35.42m14.17,35.42l-35.42,-35.42m14.58,35.42l-35.42,-35.42m14.58,35.42l-35.42,-35.42m14.58,35.42l-35.42,-35.42m14.58,35.42l-20.83,-21.25" style="fill:none;fill-rule:nonzero;stroke:#000;stroke-opacity:0.31;stroke-width:1.48px;"/>
        <path d="M50.25,126.9l1068.75,0l0,35.42m-35.42,0l-549.17,0m-17.5,0l-466.67,0m-35.42,0l0,-35.42l35.42,0" style="fill:none;fill-rule:nonzero;stroke:#2b2b2b;stroke-width:2.95px;stroke-linecap:round;"/>
        <path d="M670.25,758.57l17.92,0" style="fill:none;fill-rule:nonzero;stroke:#000;stroke-width:0.3px;"/>
        <path d="M670.25,663.98l112.08,0" style="fill:none;fill-rule:nonzero;stroke:#000;stroke-width:0.3px;"/>
        <path d="M782.34,663.98c-0,52.5 -42.08,94.58 -94.17,94.58" style="fill:none;fill-rule:nonzero;stroke:#000;stroke-width:0.3px;"/>
        <rect x="670.25" y="658.15" width="17.92" height="106.25" style="fill:none;fill-rule:nonzero;stroke:#000;stroke-width:0.3px;"/>
        <path d="M652.75,581.48l0,-17.92" style="fill:none;fill-rule:nonzero;stroke:#000;stroke-width:0.3px;"/>
        <path d="M558.17,581.48l0,-112.08" style="fill:none;fill-rule:nonzero;stroke:#000;stroke-width:0.3px;"/>
        <path d="M558.17,469.4c52.08,-0 94.58,42.08 94.58,94.17" style="fill:none;fill-rule:nonzero;stroke:#000;stroke-width:0.3px;"/>
        <rect x="552.34" y="563.57" width="106.25" height="17.92" style="fill:none;fill-rule:nonzero;stroke:#000;stroke-width:0.3px;"/>
        <rect x="446.09" y="587.32" width="17.5" height="94.58" style="fill:none;fill-rule:nonzero;stroke:#000;stroke-width:0.3px;"/>
        <path d="M463.59,676.07l-100.42,0" style="fill:none;fill-rule:nonzero;stroke:#000;stroke-width:0.3px;"/>
        <path d="M446.09,593.15c-45.83,0 -82.92,37.08 -82.92,82.92" style="fill:none;fill-rule:nonzero;stroke:#000;stroke-width:0.3px;"/>
        <path d="M446.09,593.15l17.5,0" style="fill:none;fill-rule:nonzero;stroke:#000;stroke-width:0.3px;"/>
        <rect x="446.09" y="823.57" width="17.5" height="94.58" style="fill:none;fill-rule:nonzero;stroke:#000;stroke-width:0.3px;"/>
        <path d="M463.59,829.4l-100.42,0" style="fill:none;fill-rule:nonzero;stroke:#000;stroke-width:0.3px;"/>
        <path d="M446.09,912.32c-45.83,0 -82.92,-37.08 -82.92,-82.92" style="fill:none;fill-rule:nonzero;stroke:#000;stroke-width:0.3px;"/>
        <path d="M446.09,912.32l17.5,0" style="fill:none;fill-rule:nonzero;stroke:#000;stroke-width:0.3px;"/>
    </g>
    <g id="topR">
        <path d="M670.25,870.65l-70.83,0l0,141.67l70.83,0l0,-141.67Z" style="fill:#ddb682;stroke:#000;stroke-width:0.77px;"/>
        <path d="M599.42,870.65l70.83,70.83l-70.83,70.83" style="fill:none;fill-rule:nonzero;stroke:#000;stroke-width:0.3px;"/>
        <path d="M670.25,764.4l-70.83,0l0,106.25l70.83,0l0,-106.25Z" style="fill:#ddb682;stroke:#000;stroke-width:0.77px;"/>
        <path d="M599.42,764.4l70.83,53.33l-70.83,52.92" style="fill:none;fill-rule:nonzero;stroke:#000;stroke-width:0.3px;"/>
    </g>
    <g id="topL">
        <path d="M534.42,918.15l-70.83,0l0,94.58l70.83,0l0,-94.58Z" style="fill:#ddb682;stroke:#000;stroke-width:0.77px;"/>
        <path d="M534.42,918.15l-70.83,47.08l70.83,47.5" style="fill:none;fill-rule:nonzero;stroke:#000;stroke-width:0.3px;"/>
        <path d="M534.42,687.73l-70.83,0l0,135.83l70.83,0l0,-135.83Z" style="fill:#ddb682;stroke:#000;stroke-width:0.77px;"/>
        <path d="M534.42,687.73l-70.83,67.92l70.83,67.92" style="fill:none;fill-rule:nonzero;stroke:#000;stroke-width:0.3px;"/>
    </g>
    <g id="topKoupelna2">
        <clipPath id="_clip1">
            <rect x="62.05" y="717.32" width="383.86" height="273.94" clip-rule="nonzero"/>
        </clipPath>
        <g clip-path="url(#_clip1)">
            <path d="M14.84,1048.15l0,-921.25l1104.17,0l0,921.25l-448.75,0l0,-35.42l-206.67,0l0,35.42l-448.75,0Z" style="fill:#fff;"/>
            <path d="M446.09,823.57l8.75,0l0,94.58l-8.75,0l0,73.33l-384.17,0l0,-274.17l384.17,0l0,106.25Z" style="fill:#e0e0e0;fill-opacity:0.25;stroke:#a8a8a8;stroke-width:0.3px;"/>
            <g transform="matrix(1,0,0,1,-369.55697,635.779005)">
                <text x="548.47px" y="254.23px" style="font-family:'ArialMT', 'Arial', sans-serif;font-size:21.14px;fill:#2b2b2b;fill-opacity:0.99;">Koupelna</text>
                <g transform="matrix(21.144211,0,0,21.144211,628.989142,277.85528)">
                </g>
                <text x="557.31px" y="277.86px" style="font-family:'ArialMT', 'Arial', sans-serif;font-size:21.14px;fill:#2b2b2b;fill-opacity:0.99;">7.60 m²</text>
            </g>
            <path d="M61.92,717.32l0,274.17" style="fill:none;fill-rule:nonzero;stroke:#2b2b2b;stroke-width:2.95px;stroke-linecap:round;"/>
            <path d="M446.09,717.32l-384.17,0" style="fill:none;fill-rule:nonzero;stroke:#2b2b2b;stroke-width:2.95px;stroke-linecap:round;"/>
            <path d="M255.67,991.07l-40,0l-1.25,-42.08c0.42,-11.25 9.58,-20.42 21.25,-20.42c11.67,0 20.83,9.17 21.25,20.42l-1.25,42.08Z" style="fill:#e0e0e0;stroke:#000;stroke-width:0.3px;"/>
            <path d="M235.67,932.73c-3.75,0 -7.08,1.25 -10,2.92c-5,3.75 -7.92,9.58 -7.92,15.83c0.42,6.25 3.33,12.08 8.33,15.42c2.92,2.08 6.25,2.92 9.58,2.92c3.33,0 6.67,-0.83 9.58,-2.92c5,-3.33 7.92,-9.17 8.33,-15.42c0,-6.25 -2.92,-12.08 -7.92,-15.83c-2.92,-1.67 -6.25,-2.92 -10,-2.92Z" style="fill:#b4b4b4;stroke:#000;stroke-width:0.3px;"/>
            <path d="M235.67,991.07l0,-2.5" style="fill:none;fill-rule:nonzero;stroke:#000;stroke-width:0.3px;"/>
            <path d="M226.09,966.9c0,-1.67 0,-2.92 0.42,-4.58c0,-1.25 0.42,-2.5 1.25,-3.75c0.83,-1.25 1.67,-2.08 2.5,-2.92c0.83,-0.42 1.67,-1.25 2.5,-1.25c0.83,-0.42 1.67,-0.42 2.08,-0.42l0.83,0" style="fill:none;fill-rule:nonzero;stroke:#000;stroke-width:0.3px;"/>
            <path d="M226.5,961.9c0.83,0.42 1.25,1.25 2.08,1.67c0.83,0.42 1.67,0.42 2.5,0.83c0.83,0 1.67,0.42 2.5,0.42l2.08,-0" style="fill:none;fill-rule:nonzero;stroke:#000;stroke-width:0.3px;"/>
            <path d="M228.17,977.32c0,-0.69 -0.65,-1.25 -1.46,-1.25c-0.8,0 -1.46,0.56 -1.46,1.25c0,0.69 0.65,1.25 1.46,1.25c0.8,0 1.46,-0.56 1.46,-1.25Z" style="fill:none;stroke:#000;stroke-width:0.3px;"/>
            <path d="M245.25,966.9c0,-1.67 0,-2.92 -0.42,-4.58c0,-1.25 -0.42,-2.5 -1.25,-3.75c-0.83,-1.25 -1.67,-2.08 -2.5,-2.92c-0.83,-0.42 -1.67,-1.25 -2.5,-1.25c-0.83,-0.42 -1.67,-0.42 -2.08,-0.42l-0.83,0" style="fill:none;fill-rule:nonzero;stroke:#000;stroke-width:0.3px;"/>
            <path d="M244.84,961.9c-0.83,0.42 -1.25,1.25 -2.08,1.67c-0.83,0.42 -1.67,0.42 -2.5,0.83c-0.83,0 -1.67,0.42 -2.5,0.42l-2.08,-0" style="fill:none;fill-rule:nonzero;stroke:#000;stroke-width:0.3px;"/>
            <path d="M243.17,977.32c0,0.69 0.65,1.25 1.46,1.25c0.8,0 1.46,-0.56 1.46,-1.25c0,-0.69 -0.65,-1.25 -1.46,-1.25c-0.8,0 -1.46,0.56 -1.46,1.25Z" style="fill:none;stroke:#000;stroke-width:0.3px;"/>
            <rect x="61.92" y="717.32" width="212.92" height="100.42" style="fill:#f7f7f7;stroke:#000;stroke-width:1.48px;"/>
            <path d="M129.42,737.32l77.92,0c20,0 30,10 30,30c0,20.42 -10,30.42 -30,30.42l-77.92,0c-20,0 -30,-10 -30,-30.42c0,-20 10,-30 30,-30Z" style="fill:none;fill-rule:nonzero;stroke:#000;stroke-width:0.3px;"/>
            <path d="M166.5,730.23c-0.42,-2.92 -0.42,-5.83 -0.83,-8.75c0,-0.83 0.42,-1.67 0.83,-2.5c0.42,-0.42 1.25,-0.83 1.67,-0.83c0.83,0 1.67,0.42 2.08,0.83c0.42,0.83 0.83,1.67 0.42,2.5c0,2.92 0,5.83 -0.42,8.75c0,1.67 -0.42,2.08 -2.08,2.08c-1.25,0 -1.67,-0.42 -1.67,-2.08Z" style="fill:none;fill-rule:nonzero;stroke:#000;stroke-width:0.3px;"/>
            <path d="M171.09,726.07l49.17,0c26.25,0 39.58,13.75 39.58,41.25c0,27.92 -13.33,41.67 -39.58,41.67l-103.75,0c-26.25,0 -39.58,-13.75 -39.58,-41.67c0,-27.5 13.33,-41.25 39.58,-41.25l49.17,0" style="fill:none;fill-rule:nonzero;stroke:#000;stroke-width:0.3px;"/>
            <path d="M170.67,769.4c-0.83,1.25 -2.5,1.67 -4.17,0.83c-1.25,-1.25 -1.67,-2.92 -0.83,-4.58c1.25,-1.25 2.92,-1.67 4.58,-0.83c1.25,1.25 1.67,2.92 0.42,4.58" style="fill:none;fill-rule:nonzero;stroke:#000;stroke-width:0.3px;"/>
            <path d="M170.67,733.98c0,1.67 -0.83,2.92 -2.5,2.92c-1.25,0 -2.08,-1.25 -2.08,-2.92c0,-4.17 -0.42,-7.92 -0.42,-12.08c-0.42,-0.83 0,-2.08 0.42,-2.92c0.83,-0.83 1.25,-1.25 2.08,-1.25c0.83,0 1.67,0.42 2.08,1.25c0.83,0.83 0.83,2.08 0.83,2.92c0,4.17 -0.42,7.92 -0.42,12.08Z" style="fill:none;fill-rule:nonzero;stroke:#000;stroke-width:0.3px;"/>
            <path d="M171.09,723.15l50.83,0c27.08,0 40.83,15 40.83,44.17c0,29.58 -13.75,44.58 -40.83,44.58l-107.08,0c-27.08,0 -40.83,-15 -40.83,-44.58c0,-29.17 13.75,-44.17 40.83,-44.17l50.83,0" style="fill:none;fill-rule:nonzero;stroke:#000;stroke-width:0.3px;"/>
            <rect x="61.92" y="817.73" width="57.92" height="173.33" style="fill:#ddb682;stroke:#000;stroke-width:0.77px;"/>
            <path d="M78.17,865.65l0,-26.25c0,-2.92 1.67,-4.58 5,-4.58l24.58,0c3.33,0 5,1.67 5,4.58l0,55c0,2.92 -1.67,4.58 -5,4.58l-24.58,0c-3.33,0 -5,-1.67 -5,-4.58l0,-20" style="fill:none;fill-rule:nonzero;stroke:#000;stroke-width:0.3px;"/>
            <path d="M119.84,827.32l0,153.33c0,1.25 -0.42,1.67 -1.67,1.67l-55.42,0c-0.42,0 -0.83,0 -0.83,-0.42l0,-155.42c0,-0.42 0.42,-0.42 0.83,-0.42l55.42,0c1.25,0 1.67,0.42 1.67,1.25Z" style="fill:#f7f7f7;stroke:#000;stroke-width:1.48px;"/>
            <path d="M78.17,940.65l0,-26.25c0,-3.33 1.67,-5 5,-5l24.58,0c3.33,0 5,1.67 5,5l0,54.58c0,3.33 -1.67,5 -5,5l-24.58,0c-3.33,0 -5,-1.67 -5,-5l0,-19.58" style="fill:none;fill-rule:nonzero;stroke:#000;stroke-width:0.3px;"/>
            <path d="M74,874.4l0,0.42c0,0.42 -0.42,0.42 -0.42,0.42l-4.17,0c0,0 -0.42,0 -0.42,-0.42l0,-2.5l0.42,-0.42l4.17,0l0.42,0.42l0,1.25" style="fill:none;fill-rule:nonzero;stroke:#000;stroke-width:0.3px;"/>
            <path d="M74,949.4l0,0.42c0,0.42 -0.42,0.42 -0.42,0.42l-4.17,0c0,0 -0.42,0 -0.42,-0.42l0,-2.5c0,-0.42 0.42,-0.42 0.42,-0.42l4.17,0c0,0 0.42,0 0.42,0.42l0,1.25" style="fill:none;fill-rule:nonzero;stroke:#000;stroke-width:0.3px;"/>
            <path d="M71.5,867.73c8.33,0.42 16.67,0.42 25,0.42c0.83,0 1.25,-0.42 1.25,-1.25c0,-0.83 -0.42,-1.25 -1.25,-1.25l-25,0c-0.42,0 -0.42,0 -0.83,0.42c-0.42,0 -0.42,0.42 -0.42,0.83c0,0 0,0.42 0.42,0.83l0.83,0Z" style="fill:none;fill-rule:nonzero;stroke:#000;stroke-width:0.3px;"/>
            <path d="M71.5,942.73l25,0c0.83,0 1.25,-0.42 1.25,-0.83c0,-0.83 -0.42,-1.25 -1.25,-1.25c-8.33,0 -16.67,0 -25,-0.42c-0.42,0 -0.42,0.42 -0.83,0.42c-0.42,0.42 -0.42,0.42 -0.42,0.83c0,0.42 0,0.83 0.42,0.83c0.42,0.42 0.42,0.42 0.83,0.42Z" style="fill:none;fill-rule:nonzero;stroke:#000;stroke-width:0.3px;"/>
            <path d="M89.84,868.15c-0.42,0.83 -1.25,1.25 -2.5,1.25c-1.25,0 -2.08,-0.42 -2.5,-1.25" style="fill:none;fill-rule:nonzero;stroke:#000;stroke-width:0.3px;"/>
            <path d="M89.84,942.73c-0.42,1.25 -1.25,1.67 -2.5,1.67c-1.25,0 -2.08,-0.42 -2.5,-1.67" style="fill:none;fill-rule:nonzero;stroke:#000;stroke-width:0.3px;"/>
            <path d="M74.42,867.73c-0.42,1.67 -2.08,2.08 -3.33,2.08c-1.67,-0.42 -2.5,-1.67 -2.5,-2.92c0,-1.67 0.83,-2.5 2.5,-2.92c1.25,-0.42 2.92,0.42 3.33,1.67" style="fill:none;fill-rule:nonzero;stroke:#000;stroke-width:0.3px;"/>
            <path d="M74.42,942.73c-0.42,1.25 -2.08,2.08 -3.33,1.67c-1.67,0 -2.5,-1.25 -2.5,-2.92c0,-1.25 0.83,-2.5 2.5,-2.92c1.25,-0 2.92,0.42 3.33,1.67" style="fill:none;fill-rule:nonzero;stroke:#000;stroke-width:0.3px;"/>
            <path d="M84.84,865.65c0.42,-0.83 1.25,-1.67 2.5,-1.67c1.25,0 2.08,0.83 2.5,1.67" style="fill:none;fill-rule:nonzero;stroke:#000;stroke-width:0.3px;"/>
            <path d="M84.84,940.65c0.42,-1.25 1.25,-1.67 2.5,-1.67c1.25,0 2.08,0.42 2.5,1.67" style="fill:none;fill-rule:nonzero;stroke:#000;stroke-width:0.3px;"/>
            <path d="M69,868.57l0,3.33l5,0l0,-3.33" style="fill:none;fill-rule:nonzero;stroke:#000;stroke-width:0.3px;"/>
            <path d="M69,943.15l0,3.75l5,0l0,-3.33" style="fill:none;fill-rule:nonzero;stroke:#000;stroke-width:0.3px;"/>
            <path d="M72.75,873.57l7.08,0l0.42,0.42c0,0.42 -0.42,0.42 -0.42,0.42l-7.08,0" style="fill:none;fill-rule:nonzero;stroke:#000;stroke-width:0.3px;"/>
            <path d="M72.75,948.57l7.08,0c0,0 0.42,0 0.42,0.42c0,0.42 -0.42,0.42 -0.42,0.42l-7.08,0" style="fill:none;fill-rule:nonzero;stroke:#000;stroke-width:0.3px;"/>
            <path d="M78.17,873.57l0,-5.42" style="fill:none;fill-rule:nonzero;stroke:#000;stroke-width:0.3px;"/>
            <path d="M78.17,948.57l0,-5.83" style="fill:none;fill-rule:nonzero;stroke:#000;stroke-width:0.3px;"/>
            <path d="M78.17,865.65l0,-26.25c0,-2.92 1.67,-4.58 5,-4.58l24.58,0c3.33,0 5,1.67 5,4.58l0,55c0,2.92 -1.67,4.58 -5,4.58l-24.58,0c-3.33,0 -5,-1.67 -5,-4.58l0,-20" style="fill:none;fill-rule:nonzero;stroke:#000;stroke-width:0.3px;"/>
            <path d="M302.75,921.9c16.67,-2.08 33.75,-2.08 50.42,0l0,3.75l10,0.83l0,64.58l-70.83,0l0,-64.58l4.58,-0.42l0,-1.67l2.92,0l0,1.25l2.92,-0.42l0,-3.33Z" style="fill:#f7f7f7;stroke:#000;stroke-width:1.48px;"/>
            <path d="M333.17,924.4l0,-2.08l-10.42,0l0,2.08" style="fill:none;fill-rule:nonzero;stroke:#18181b;stroke-width:0.3px;"/>
            <path d="M299.84,925.65l-2.92,0.42" style="fill:none;fill-rule:nonzero;stroke:#18181b;stroke-width:0.3px;"/>
            <path d="M363.17,928.57l-18.33,0l0,-3.75" style="fill:none;fill-rule:nonzero;stroke:#18181b;stroke-width:0.3px;"/>
            <path d="M363.17,930.65l-70.83,0" style="fill:none;fill-rule:nonzero;stroke:#18181b;stroke-width:0.3px;"/>
            <path d="M353.17,925.65c-16.67,-1.67 -33.33,-1.67 -49.58,-0.42" style="fill:none;fill-rule:nonzero;stroke:#18181b;stroke-width:0.3px;"/>
            <path d="M314,960.65c0,6.21 6.07,11.25 13.54,11.25c7.47,0 13.54,-5.04 13.54,-11.25c0,-6.21 -6.07,-11.25 -13.54,-11.25c-7.47,0 -13.54,5.04 -13.54,11.25Z" style="fill:none;stroke:#bcbcbc;stroke-width:0.3px;"/>
            <path d="M314,960.65c0.83,-0.83 1.25,-0.83 2.08,-0.83c0.83,0 1.67,0 2.08,0.83c0.42,0.42 1.25,0.83 2.08,0.83c0.83,0 1.67,-0.42 2.08,-0.83c0.42,-0.83 1.25,-1.25 2.08,-1.25c0.83,0 1.25,0.42 1.67,1.25c0.83,0.42 1.25,0.83 2.08,0.83c0.83,0 1.67,-0.42 2.08,-0.83c0.42,-0.83 1.25,-1.25 2.08,-1.25c0.83,0 1.25,0.42 1.67,1.25c0.42,0.42 1.25,0.83 2.08,0.83c0.83,0 1.67,-0.42 2.08,-0.83c0.42,-0.42 0.83,-0.83 1.25,-0.83c0.83,0 1.25,0.42 1.67,0.83" style="fill:none;fill-rule:nonzero;stroke:#bcbcbc;stroke-width:0.3px;"/>
            <path d="M379.42,921.9c16.67,-2.08 33.75,-2.08 50.42,0l0,3.75l10,0.83l0,64.58l-70.83,0l0,-64.58l4.58,-0.42l0,-1.67l2.92,0l0.42,1.25l2.5,-0.42l0,-3.33Z" style="fill:#f7f7f7;stroke:#000;stroke-width:1.48px;"/>
            <path d="M410.25,924.4l0,-2.08l-10.83,0l0,2.08" style="fill:none;fill-rule:nonzero;stroke:#18181b;stroke-width:0.3px;"/>
            <path d="M376.92,925.65l-3.33,0.42" style="fill:none;fill-rule:nonzero;stroke:#18181b;stroke-width:0.3px;"/>
            <path d="M439.84,928.57l-18.33,0l0,-3.75" style="fill:none;fill-rule:nonzero;stroke:#18181b;stroke-width:0.3px;"/>
            <path d="M439.84,930.65l-70.83,0" style="fill:none;fill-rule:nonzero;stroke:#18181b;stroke-width:0.3px;"/>
            <path d="M429.84,925.65c-16.25,-1.67 -32.92,-1.67 -49.58,-0.42" style="fill:none;fill-rule:nonzero;stroke:#18181b;stroke-width:0.3px;"/>
            <path d="M390.67,960.65c0,6.21 6.16,11.25 13.75,11.25c7.59,0 13.75,-5.04 13.75,-11.25c0,-6.21 -6.16,-11.25 -13.75,-11.25c-7.59,0 -13.75,5.04 -13.75,11.25Z" style="fill:none;stroke:#bcbcbc;stroke-width:0.3px;"/>
            <path d="M391.09,960.65c0.42,-0.83 1.25,-0.83 2.08,-0.83c0.42,0 1.25,0 1.67,0.83c0.42,0.42 1.25,0.83 2.08,0.83c0.83,0 1.67,-0.42 2.08,-0.83c0.42,-0.83 1.25,-1.25 2.08,-1.25c0.83,0 1.67,0.42 2.08,1.25c0.42,0.42 1.25,0.83 1.67,0.83c0.83,0 1.67,-0.42 2.08,-0.83c0.42,-0.83 1.25,-1.25 2.08,-1.25c0.83,0 1.67,0.42 2.08,1.25c0.42,0.42 1.25,0.83 1.67,0.83c0.83,0 1.67,-0.42 2.08,-0.83c0.42,-0.42 0.83,-0.83 1.67,-0.83c0.42,0 0.83,0.42 1.25,0.83" style="fill:none;fill-rule:nonzero;stroke:#bcbcbc;stroke-width:0.3px;"/>
            <rect x="373.59" y="814.82" width="68.75" height="2.5" style="fill:#f7f7f7;stroke:#000;stroke-width:0.3px;"/>
            <path d="M291.92,814.82l0.42,0m0.42,0l0.83,0m0,0l0.83,0m0.42,0l0.83,0m0.42,0l0.42,0m0.42,0l0.83,0m0.42,0l0.83,0m0.42,0l0.42,0m0.42,0l0.83,0m0.42,0l0.83,0m0,0l0.83,0m0.42,0l0.83,0m0.42,0l0.42,0m0.42,0l0.83,0m0.42,0l0.83,0m0.42,0l0.42,0m0.42,0l0.83,0m0.42,0l0.83,0m0.42,0l0.42,0m0.42,0l0.83,0m0.42,0l0.83,0m0,0l0.83,0m0.42,0l0.83,0m0.42,0l0.42,0m0.42,0l0.83,0m0.42,0l0.83,0m0.42,0l0.42,0m0.42,0l0.83,0m0.42,0l0.83,0m0,0l0.83,0m0.42,0l0.83,0m0.42,0l0.42,0m0.42,0l0.83,0m0.42,0l0.83,0m0.42,0l0.42,0m0.42,0l0.83,0m0.42,0l0.83,0m0.42,0l0.42,0m0.42,0l0.83,0m0.42,0l0.83,0m0,0l0.83,0m0.42,0l0.83,0m0.42,0l0.42,0m0.42,0l0.83,0m0.42,0l0.83,0m0.42,0l0.42,0m0.42,0l0.83,0m0.42,0l0.83,0m0,0l0.83,0m0.42,0l0.83,0m0.42,0l0.83,0m0,0l0.83,0m0.42,0l0.83,0m0.42,0l0.42,0m0.42,0l0.83,0m0.42,0l0.83,0m0.42,0l0.42,0m0.42,0l0.83,0m0.42,0l0.83,0m0,0l0.83,0m0.42,0l0.83,0m0.42,0l0.42,0m0.42,0l0.83,0m0.42,0l0.83,0m0.42,0l0.42,0m0.42,0l0.83,0m0.42,0l0.83,0m0.42,0l0.42,0m0.42,0l0.83,0m0.42,0l0.83,0m0,0l0.83,0m0.42,0l0.83,0m0.42,0l0.42,0m0.42,0l0.83,0m0.42,0l0.83,0" style="fill:none;fill-rule:nonzero;stroke:#bcbcbc;stroke-width:0.3px;"/>
            <rect x="442.34" y="814.4" width="3.75" height="3.33" style="fill:#f7f7f7;stroke:#000;stroke-width:1.48px;"/>
            <path d="M373.59,817.32l-0.42,0m-0.42,0l-0.83,0m-0.42,0l-0.83,0m0,0l-0.83,0m-0.42,0l-0.83,0m-0.42,0l-0.42,0m-0.42,0l-0.83,0m-0.42,0l-0.83,0m-0.42,0l-0.42,0m-0.42,0l-0.83,0m-0.42,0l-0.83,0m0,0l-0.83,0m-0.42,0l-0.83,0m-0.42,0l-0.42,0m-0.42,0l-0.83,0m-0.42,0l-0.83,0m-0.42,0l-0.42,0m-0.42,0l-0.83,0m-0.42,0l-0.83,0m-0.42,0l-0.42,0m-0.42,0l-0.83,0m-0.42,0l-0.83,0m0,0l-0.83,0m-0.42,0l-0.83,0m-0.42,0l-0.42,0m-0.42,0l-0.83,0m-0.42,0l-0.83,0m-0.42,0l-0.42,0m-0.42,0l-0.83,0m-0.42,0l-0.83,0m0,0l-0.83,0m-0.42,0l-0.83,0m-0.42,0l-0.42,0m-0.42,0l-0.83,0m-0.42,0l-0.83,0m-0.42,0l-0.42,0m-0.42,0l-0.83,0m-0.42,0l-0.83,0m-0.42,0l-0.42,0m-0.42,0l-0.83,0m-0.42,0l-0.83,0m0,0l-0.83,0m-0.42,0l-0.83,0m-0.42,0l-0.42,0m-0.42,0l-0.83,0m-0.42,0l-0.83,0m-0.42,0l-0.42,0m-0.42,0l-0.83,0m-0.42,0l-0.83,0m0,0l-0.83,0m-0.42,0l-0.83,0m-0.42,0l-0.83,0m0,0l-0.83,0m-0.42,0l-0.83,0m-0.42,0l-0.42,0m-0.42,0l-0.83,0m-0.42,0l-0.83,0m-0.42,0l-0.42,0m-0.42,0l-0.83,0m-0.42,0l-0.83,0m0,0l-0.83,0m-0.42,0l-0.83,0m-0.42,0l-0.42,0m-0.42,0l-0.83,0m-0.42,0l-0.83,0m-0.42,0l-0.42,0m-0.42,0l-0.83,0m-0.42,0l-0.83,0m0,0l-0.83,0m-0.42,0l-0.83,0m-0.42,0l-0.83,0m0,0l-0.83,0m-0.42,0l-0.83,0m-0.42,0l-0.42,0m-0.42,0l-0.83,0m-0.42,0l-0.83,0m-0.42,0l-0.42,0m-0.42,0l-0.42,0" style="fill:none;fill-rule:nonzero;stroke:#bcbcbc;stroke-width:0.3px;"/>
            <path d="M341.92,759.4l-1.67,1.67l1.25,1.25l1.67,-1.67l-1.25,-1.25Z" style="fill:#f7f7f7;"/>
            <path d="M343.17,760.65l-1.25,-1.25l-1.67,1.67l1.25,1.25" style="fill:none;fill-rule:nonzero;stroke:#000;stroke-width:0.3px;"/>
            <path d="M347.75,756.07l-58.75,58.75l1.25,1.67l58.75,-58.75l-1.25,-1.67Z" style="fill:#f7f7f7;stroke:#000;stroke-width:0.3px;"/>
            <path d="M344.84,761.9l1.25,1.25l-1.67,1.67l-1.25,-0.83l1.67,-2.08Z" style="fill:#f7f7f7;"/>
            <path d="M344.84,761.9l1.25,1.25l-1.67,1.67l-1.25,-0.83" style="fill:none;fill-rule:nonzero;stroke:#000;stroke-width:0.3px;"/>
            <path d="M349,757.73c15.83,15.83 24.58,37.08 24.58,59.58" style="fill:none;fill-rule:nonzero;stroke:#000;stroke-width:0.3px;"/>
            <rect x="278.17" y="814.82" width="10.83" height="2.5" style="fill:#f7f7f7;stroke:#000;stroke-width:0.3px;"/>
            <rect x="274.84" y="814.4" width="3.33" height="3.33" style="fill:#f7f7f7;stroke:#000;stroke-width:1.48px;"/>
            <rect x="274.84" y="717.32" width="3.33" height="3.33" style="fill:#f7f7f7;stroke:#000;stroke-width:1.48px;"/>
            <path d="M275.25,814.4l2.08,0l0,-93.75l-2.08,0l0,93.75Z" style="fill:#f7f7f7;stroke:#000;stroke-width:0.3px;"/>
            <path d="M446.09,1012.73l17.5,-17.92m-17.5,-2.92l17.5,-17.92m-17.5,-3.33l17.5,-17.5m-17.5,-3.33l17.5,-17.5m-17.5,-3.33l10.83,-10.83m-10,-94.58l16.67,-16.67m-17.5,-2.92l17.5,-17.92m-17.5,-3.33l17.5,-17.5m-17.5,-3.33l17.5,-17.5m-17.5,-3.33l17.5,-17.5m-17.5,-3.33l17.5,-17.5m-17.5,-3.33l17.5,-17.5m-10,-94.58l10,-10m-17.5,-3.33l10,-10" style="fill:none;fill-rule:nonzero;stroke:#000;stroke-opacity:0.31;stroke-width:1.48px;"/>
            <path d="M463.59,581.48l0,5.83l-17.5,0l0,-23.33l17.5,0m-17.5,259.58l0,-106.25m0,-29.58l0,-5.83l17.5,0l0,141.67l-17.5,0m0,94.58l17.5,0l0,94.58m-17.5,-21.25l0,-73.33" style="fill:none;fill-rule:nonzero;stroke:#2b2b2b;stroke-width:2.95px;stroke-linecap:round;"/>
            <rect x="446.09" y="823.57" width="17.5" height="94.58" style="fill:none;fill-rule:nonzero;stroke:#000;stroke-width:0.3px;"/>
            <path d="M463.59,829.4l-100.42,0" style="fill:none;fill-rule:nonzero;stroke:#000;stroke-width:0.3px;"/>
            <path d="M446.09,912.32c-45.83,0 -82.92,-37.08 -82.92,-82.92" style="fill:none;fill-rule:nonzero;stroke:#000;stroke-width:0.3px;"/>
            <path d="M446.09,912.32l17.5,0" style="fill:none;fill-rule:nonzero;stroke:#000;stroke-width:0.3px;"/>
        </g>
    </g>
    <g id="anchorTop">
        <path d="M1244,126.9l-250,0" style="fill:none;fill-rule:nonzero;stroke:#f00;stroke-width:0.3px;"/>
        <path d="M1119,1.48l0,250.42" style="fill:none;fill-rule:nonzero;stroke:#f00;stroke-width:0.3px;"/>
    </g>
</svg>
