<?xml version="1.0" encoding="UTF-8" standalone="no"?><!DOCTYPE svg PUBLIC "-//W3C//DTD SVG 1.1//EN" "http://www.w3.org/Graphics/SVG/1.1/DTD/svg11.dtd"><svg width="100%" height="100%" viewBox="0 0 1246 1063" version="1.1" xmlns="http://www.w3.org/2000/svg" xmlns:xlink="http://www.w3.org/1999/xlink" xml:space="preserve" xmlns:serif="http://www.serif.com/" style="fill-rule:evenodd;clip-rule:evenodd;stroke-miterlimit:10;"><g id="top"><path d="M14.837,1048.15l0,-921.25l1104.167,0l0,921.25l-448.75,0l0,-35.417l-206.667,0l0,35.417l-448.75,0Z" style="fill:#fff;"/><path d="M458.587,1010.65l0,-97.5l-7.5,0l0.417,97.5l7.083,0Z" style="fill:#fff;stroke:#000;stroke-width:0.3px;"/><path d="M459.421,909.817l-9.167,0l0,3.333l9.167,0l0,-3.333Z" style="fill:#f7f7f7;stroke:#000;stroke-width:1.48px;"/><path d="M457.337,970.65l-0.417,-118.333l-4.583,0l0,118.333l5,0Z" style="fill:#f7f7f7;stroke:#000;stroke-width:1.48px;"/><path d="M450.254,909.817l0,-82.5" style="fill:none;fill-rule:nonzero;stroke:#bcbcbc;stroke-width:0.3px;"/><path d="M459.421,823.567l-9.167,0l0,3.75l9.167,0l0,-3.75Z" style="fill:#f7f7f7;stroke:#000;stroke-width:1.48px;"/><path d="M459.421,909.817l0,-82.5" style="fill:none;fill-rule:nonzero;stroke:#bcbcbc;stroke-width:0.3px;"/><path d="M516.921,162.317l0,401.25l-70.833,0l0,23.75l8.75,0l0,94.583l-8.75,0l0,5.833l-220,0l0,8.75l-90.417,0l0,-8.75l-85.417,0l0,-525.417l466.667,0Z" style="fill:#e0e0e0;fill-opacity:0.25;stroke:#a8a8a8;stroke-width:0.3px;"/><path d="M658.587,563.567l0,9.167l-106.25,0l0,-9.167l-17.917,0l0,-401.25l549.167,0l0,348.333l-206.667,0l0,35.417l-188.75,0l0,-70.833l-17.917,0l0,88.333l-11.667,0Z" style="fill:#e0e0e0;fill-opacity:0.25;stroke:#a8a8a8;stroke-width:0.3px;"/><path d="M688.171,563.567l206.667,0l0,-35.417l188.75,0l0,484.583l-395.417,0l0,-248.333l-9.167,0l0,-106.25l9.167,0l0,-94.583Z" style="fill:#e0e0e0;fill-opacity:0.25;stroke:#a8a8a8;stroke-width:0.3px;"/><path d="M446.087,823.567l8.75,0l0,89.583l-8.75,0l0,87.5l-132.5,0l0,-283.333l132.5,0l0,106.25Z" style="fill:#e0e0e0;fill-opacity:0.25;stroke:#a8a8a8;stroke-width:0.3px;"/><path d="M284.004,1000.65l-212.5,0l0,-295.417l64.167,0l0,-8.75l90.417,0l0,8.75l57.917,0l0,295.417Z" style="fill:#e0e0e0;fill-opacity:0.25;stroke:#a8a8a8;stroke-width:0.3px;"/><path d="M463.587,1012.734l2.083,0m2.083,0l3.75,0m1.667,0l3.75,0m2.083,0l3.75,0m1.667,0l3.75,0m2.083,0l3.75,0m1.667,0l3.75,0m2.083,0l3.75,0m1.667,0l3.75,0m2.083,0l3.75,0m1.667,0l3.75,0m2.083,0l3.75,0m1.667,0l3.75,0m2.083,0l3.75,0m1.667,0l3.75,0m2.083,0l3.75,0m1.667,0l3.75,0m2.083,0l3.75,0m1.667,0l3.75,0m2.083,0l3.75,0m1.667,0l3.75,0m2.083,0l3.75,0m1.667,0l3.75,0m2.083,0l3.75,0m1.667,0l3.75,0m2.083,0l3.75,0m1.667,0l3.75,0m2.083,0l3.75,0m1.667,0l3.75,0m2.083,0l3.75,0m1.667,0l3.75,0m2.083,0l3.75,0m1.667,0l3.75,0m2.083,0l3.75,0m1.667,0l3.75,0m2.083,0l3.75,0m1.667,0l5.833,0" style="fill:none;fill-rule:nonzero;stroke:#a8a8a8;stroke-width:0.3px;stroke-linecap:round;"/><path d="M463.587,681.9l-8.75,0l0,-94.583l8.75,0l0,-5.833l88.75,0l0,-8.75l106.25,0l0,8.75l11.667,0l0,76.667l8.75,0l0,106.25l-8.75,0l0,248.333l-206.667,0l0,-99.583l-8.75,0l0,-89.583l8.75,0l0,-141.667Z" style="fill:#e0e0e0;fill-opacity:0.25;stroke:#a8a8a8;stroke-width:0.3px;"/><g transform="matrix(1,0,0,1,-310.092635,374.380551)"><text x="572.529px" y="171.686px" style="font-family:'ArialMT', 'Arial', sans-serif;font-size:21.144px;fill:#2b2b2b;fill-opacity:0.99;">Ložnice</text><g transform="matrix(21.144211,0,0,21.144211,650.697126,195.3084)"></g><text x="567.256px" y="195.308px" style="font-family:'ArialMT', 'Arial', sans-serif;font-size:21.144px;fill:#2b2b2b;fill-opacity:0.99;">17.06 m²</text></g><g transform="matrix(1,0,0,1,65.928955,241.206131)"><text x="701.266px" y="129.631px" style="font-family:'ArialMT', 'Arial', sans-serif;font-size:21.144px;fill:#2b2b2b;fill-opacity:0.99;">Pokoj</text><g transform="matrix(21.144211,0,0,21.144211,769.437152,153.25332)"></g><text x="685.996px" y="153.253px" style="font-family:'ArialMT', 'Arial', sans-serif;font-size:21.144px;fill:#2b2b2b;fill-opacity:0.99;">14.74 m²</text></g><g transform="matrix(1,0,0,1,156.01736,548.682118)"><text x="729.715px" y="226.729px" style="font-family:'ArialMT', 'Arial', sans-serif;font-size:21.144px;fill:#2b2b2b;fill-opacity:0.99;">Pokoj</text><g transform="matrix(21.144211,0,0,21.144211,797.886122,250.351)"></g><text x="714.445px" y="250.351px" style="font-family:'ArialMT', 'Arial', sans-serif;font-size:21.144px;fill:#2b2b2b;fill-opacity:0.99;">13.28 m²</text></g><g transform="matrix(1,0,0,1,-259.218365,649.459891)"><text x="583.313px" y="258.554px" style="font-family:'ArialMT', 'Arial', sans-serif;font-size:21.144px;fill:#2b2b2b;fill-opacity:0.99;">Koupelna</text><g transform="matrix(21.144211,0,0,21.144211,663.832912,282.17556)"></g><text x="592.151px" y="282.176px" style="font-family:'ArialMT', 'Arial', sans-serif;font-size:21.144px;fill:#2b2b2b;fill-opacity:0.99;">2.75 m²</text></g><g transform="matrix(1,0,0,1,-434.627632,594.782578)"><text x="527.921px" y="241.287px" style="font-family:'ArialMT', 'Arial', sans-serif;font-size:21.144px;fill:#2b2b2b;fill-opacity:0.99;">Koupelna</text><g transform="matrix(21.144211,0,0,21.144211,608.440512,264.90904)"></g><text x="536.759px" y="264.909px" style="font-family:'ArialMT', 'Arial', sans-serif;font-size:21.144px;fill:#2b2b2b;fill-opacity:0.99;">4.56 m²</text></g><g transform="matrix(1,0,0,1,-114.018324,428.219629)"><text x="653.797px" y="188.688px" style="font-family:'ArialMT', 'Arial', sans-serif;font-size:21.144px;fill:#2b2b2b;fill-opacity:0.99;">Chodba</text><text x="644.407px" y="212.31px" style="font-family:'ArialMT', 'Arial', sans-serif;font-size:21.144px;fill:#2b2b2b;fill-opacity:0.99;">horní část</text><g transform="matrix(21.144211,0,0,21.144211,728.123539,235.932261)"></g><text x="656.442px" y="235.932px" style="font-family:'ArialMT', 'Arial', sans-serif;font-size:21.144px;fill:#2b2b2b;fill-opacity:0.99;">6.64 m²</text></g><path d="M284.004,1000.65l12.083,0l0,-295.417l-12.083,0l0,295.417Z" style="fill:#ddd;"/><path d="M284.004,1000.65l0,-295.417" style="fill:none;fill-rule:nonzero;stroke:#2b2b2b;stroke-width:2.95px;stroke-linecap:round;"/><rect x="313.587" y="1000.65" width="132.5" height="12.083" style="fill:#ddd;"/><path d="M313.587,1000.65l132.5,0" style="fill:none;fill-rule:nonzero;stroke:#2b2b2b;stroke-width:2.95px;stroke-linecap:round;"/><path d="M313.587,717.317l132.5,0l0,-12.083l-132.5,0l0,12.083Z" style="fill:#ddd;"/><path d="M446.087,717.317l-132.5,0" style="fill:none;fill-rule:nonzero;stroke:#2b2b2b;stroke-width:2.95px;stroke-linecap:round;"/><rect x="50.254" y="705.234" width="21.25" height="295.417" style="fill:#ddd;"/><path d="M71.504,705.234l0,295.417" style="fill:none;fill-rule:nonzero;stroke:#2b2b2b;stroke-width:2.95px;stroke-linecap:round;"/><rect x="50.254" y="1000.65" width="245.833" height="12.083" style="fill:#ddd;"/><path d="M71.504,1000.65l212.5,0" style="fill:none;fill-rule:nonzero;stroke:#2b2b2b;stroke-width:2.95px;stroke-linecap:round;"/><path d="M782.337,162.317l-88.333,0l0,74.583l-41.25,31.667l129.583,0l0,-106.25Zm-73.333,18.333l61.667,0l0,65.833l-61.667,0l0,-65.833Z" style="fill:#e5fffe;fill-opacity:0.5;"/><path d="M652.754,236.9l41.25,0l0,-74.583l-159.583,0l0,106.25l118.333,0l0,-31.667Z" style="fill:#bedcff;"/><rect x="709.004" y="180.65" width="61.667" height="65.833" style="fill:#bedcff;"/><path d="M652.754,236.9l0,31.667l41.25,-31.667l-41.25,0Z" style="fill:#e5fffe;fill-opacity:0.5;"/><path d="M534.421,268.567l247.917,0l0,-106.25l-247.917,0l0,106.25Z" style="fill:none;stroke:#000;stroke-width:0.77px;"/><path d="M694.004,162.317l0,74.583l-41.25,31.667l0,-31.667l41.25,0" style="fill:none;fill-rule:nonzero;stroke:#000;stroke-width:0.77px;"/><path d="M709.004,246.484l61.667,0l0,-65.833l-61.667,0l0,65.833Z" style="fill:none;stroke:#000;stroke-width:0.77px;"/><path d="M838.587,242.317l12.083,23.75l-2.5,1.25c-0.833,0.417 -1.25,1.25 -1.667,2.083c0,0.833 0,1.667 0.417,2.083c9.167,14.167 27.083,19.167 42.083,11.667c15,-7.5 21.667,-25 15.833,-40.417c-0.417,-0.833 -0.833,-1.25 -1.667,-1.667c-0.833,-0.417 -1.667,-0.417 -2.5,0l-2.5,1.25l-12.083,-23.75l-47.5,23.75Z" style="fill:#cfd4a2;"/><path d="M898.171,242.317l-12.083,-23.75" style="fill:none;fill-rule:nonzero;stroke:#000;stroke-width:0.77px;"/><path d="M904.837,242.734c-0.417,-0.833 -0.833,-1.25 -1.667,-1.667c-0.833,-0.417 -1.667,-0.417 -2.5,0" style="fill:none;fill-rule:nonzero;stroke:#000;stroke-width:0.77px;"/><path d="M850.671,266.067l-2.5,1.25" style="fill:none;fill-rule:nonzero;stroke:#000;stroke-width:0.77px;"/><path d="M900.671,241.067l-2.5,1.25" style="fill:none;fill-rule:nonzero;stroke:#000;stroke-width:0.77px;"/><path d="M850.671,266.067c6.667,13.333 22.5,18.333 35.417,12.083c13.333,-6.667 18.75,-22.5 12.083,-35.833" style="fill:none;fill-rule:nonzero;stroke:#000;stroke-width:0.77px;"/><path d="M846.921,271.484c9.167,14.167 27.083,19.167 42.083,11.667c15,-7.5 21.667,-25 15.833,-40.417" style="fill:none;fill-rule:nonzero;stroke:#000;stroke-width:0.77px;"/><path d="M838.587,242.317l12.083,23.75" style="fill:none;fill-rule:nonzero;stroke:#000;stroke-width:0.77px;"/><path d="M886.087,218.567l-47.5,23.75" style="fill:none;fill-rule:nonzero;stroke:#000;stroke-width:0.77px;"/><path d="M848.171,267.317c-0.833,0.417 -1.25,1.25 -1.667,2.083c0,0.833 0,1.667 0.417,2.083" style="fill:none;fill-rule:nonzero;stroke:#000;stroke-width:0.77px;"/><rect x="782.337" y="162.317" width="142.083" height="70.833" style="fill:#ddb682;stroke:#000;stroke-width:0.77px;"/><path d="M936.087,1012.734l-88.75,0l0,-75l-40.833,-31.667l129.583,0l0,106.667Zm-73.333,-18.75l61.667,0l0,-65.833l-61.667,0l0,65.833Z" style="fill:#e5fffe;fill-opacity:0.5;"/><path d="M806.504,937.734l40.833,0l0,75l-159.167,0l0,-106.667l118.333,0l0,31.667Z" style="fill:#bedcff;"/><rect x="862.754" y="928.15" width="61.667" height="65.833" style="fill:#bedcff;"/><path d="M806.504,937.734l0,-31.667l40.833,31.667l-40.833,0Z" style="fill:#e5fffe;fill-opacity:0.5;"/><path d="M936.087,906.067l-247.917,0l0,106.667l247.917,0l0,-106.667Z" style="fill:none;stroke:#000;stroke-width:0.77px;"/><path d="M847.337,1012.734l0,-75l-40.833,-31.667l0,31.667l40.833,0" style="fill:none;fill-rule:nonzero;stroke:#000;stroke-width:0.77px;"/><path d="M924.421,928.15l-61.667,0l0,65.833l61.667,0l0,-65.833Z" style="fill:none;stroke:#000;stroke-width:0.77px;"/><path d="M992.337,931.484l11.667,-23.75l-2.083,-1.25c-0.833,-0.417 -1.667,-1.25 -1.667,-2.083c-0.417,-0.833 0,-1.667 0.417,-2.5c8.75,-13.75 27.083,-19.167 41.667,-11.667c15,7.5 22.083,25 15.833,40.833c0,0.833 -0.833,1.25 -1.667,1.667c-0.833,0.417 -1.667,0 -2.5,0l-2.083,-1.25l-12.083,23.75l-47.5,-23.75Z" style="fill:#cfd4a2;"/><path d="M1051.921,931.484l-12.083,23.75" style="fill:none;fill-rule:nonzero;stroke:#000;stroke-width:0.77px;"/><path d="M1058.171,931.067c0,0.833 -0.833,1.25 -1.667,1.667c-0.833,0.417 -1.667,0 -2.5,0" style="fill:none;fill-rule:nonzero;stroke:#000;stroke-width:0.77px;"/><path d="M1004.004,907.734l-2.083,-1.25" style="fill:none;fill-rule:nonzero;stroke:#000;stroke-width:0.77px;"/><path d="M1054.004,932.734l-2.083,-1.25" style="fill:none;fill-rule:nonzero;stroke:#000;stroke-width:0.77px;"/><path d="M1004.004,907.734c6.667,-13.333 22.917,-18.75 35.833,-12.083c13.333,6.667 18.333,22.5 12.083,35.833" style="fill:none;fill-rule:nonzero;stroke:#000;stroke-width:0.77px;"/><path d="M1000.671,901.9c8.75,-13.75 27.083,-19.167 41.667,-11.667c15,7.5 22.083,25 15.833,40.833" style="fill:none;fill-rule:nonzero;stroke:#000;stroke-width:0.77px;"/><path d="M992.337,931.484l11.667,-23.75" style="fill:none;fill-rule:nonzero;stroke:#000;stroke-width:0.77px;"/><path d="M1039.837,955.234l-47.5,-23.75" style="fill:none;fill-rule:nonzero;stroke:#000;stroke-width:0.77px;"/><path d="M1001.921,906.484c-0.833,-0.417 -1.667,-1.25 -1.667,-2.083c-0.417,-0.833 0,-1.667 0.417,-2.5" style="fill:none;fill-rule:nonzero;stroke:#000;stroke-width:0.77px;"/><rect x="936.087" y="941.484" width="147.5" height="71.25" style="fill:#ddb682;stroke:#000;stroke-width:0.77px;"/><path d="M426.921,942.734l-94.583,0c-0.833,0 -1.667,0.833 -1.667,2.083l0,55.417c0,0.417 0.417,0.417 0.833,0.417l96.667,0c0.417,0 0.417,0 0.417,-0.417l0,-55.417c0,-1.25 -0.417,-2.083 -1.667,-2.083Z" style="fill:#f7f7f7;stroke:#000;stroke-width:1.48px;"/><path d="M381.087,984.817l27.5,0c3.333,0 5,-1.667 5,-5.417l0,-24.583c0,-3.333 -1.667,-5 -5,-5l-57.917,0c-3.333,0 -5,1.667 -5,5l0,24.583c0,3.75 1.667,5.417 5,5.417l21.25,0" style="fill:none;fill-rule:nonzero;stroke:#000;stroke-width:0.3px;"/><path d="M371.921,988.984l-0.833,0c0,0 -0.417,0 -0.417,0.417l0,3.75c0,0.417 0.417,0.417 0.417,0.417l2.917,0c0,0 0.417,0 0.417,-0.417l0,-3.75c0,-0.417 -0.417,-0.417 -0.417,-0.417l-1.25,0" style="fill:none;fill-rule:nonzero;stroke:#000;stroke-width:0.3px;"/><path d="M378.587,991.067l0,-25c0,-0.833 0.417,-1.25 1.25,-1.25c0.833,0 1.25,0.417 1.25,1.25l0,25c0,0.417 0,0.833 -0.417,1.25l-1.667,0c-0.417,-0.417 -0.417,-0.833 -0.417,-1.25Z" style="fill:none;fill-rule:nonzero;stroke:#000;stroke-width:0.3px;"/><path d="M378.587,972.734c-1.25,0.417 -1.667,1.667 -1.667,2.917c0,0.833 0.417,2.083 1.667,2.5" style="fill:none;fill-rule:nonzero;stroke:#000;stroke-width:0.3px;"/><path d="M378.587,988.15c-1.25,0.833 -2.083,2.083 -1.667,3.75c0,1.25 1.25,2.5 2.917,2.5c1.667,-0 2.917,-1.25 2.917,-2.5c0.417,-1.667 -0.417,-2.917 -1.667,-3.75" style="fill:none;fill-rule:nonzero;stroke:#000;stroke-width:0.3px;"/><path d="M381.087,978.15c0.833,-0.833 1.667,-1.667 1.667,-2.917c0,-0.833 -0.833,-1.667 -1.667,-2.5" style="fill:none;fill-rule:nonzero;stroke:#000;stroke-width:0.3px;"/><path d="M378.171,993.567l-3.75,0l0,-4.583l3.333,0" style="fill:none;fill-rule:nonzero;stroke:#000;stroke-width:0.3px;"/><path d="M372.754,990.234l0,-7.083c0,-0.417 -0.417,-0.417 -0.417,-0.417l-0.417,0l0,7.5" style="fill:none;fill-rule:nonzero;stroke:#000;stroke-width:0.3px;"/><path d="M372.754,984.817l5.833,0" style="fill:none;fill-rule:nonzero;stroke:#000;stroke-width:0.3px;"/><path d="M759.004,563.567l-70.833,0l0,35.417l70.833,0l0,-35.417Z" style="fill:#ddb682;stroke:#000;stroke-width:0.77px;"/><path d="M759.004,598.984l-70.833,-35.417" style="fill:none;fill-rule:nonzero;stroke:#000;stroke-width:0.3px;"/><path d="M829.837,563.567l-70.833,0l0,35.417l70.833,0l0,-35.417Z" style="fill:#ddb682;stroke:#000;stroke-width:0.77px;"/><path d="M829.837,598.984l-70.833,-35.417" style="fill:none;fill-rule:nonzero;stroke:#000;stroke-width:0.3px;"/><path d="M894.837,563.567l-65,0l0,35.417l65,0l0,-35.417Z" style="fill:#ddb682;stroke:#000;stroke-width:0.77px;"/><path d="M894.837,598.984l-65,-35.417" style="fill:none;fill-rule:nonzero;stroke:#000;stroke-width:0.3px;"/><rect x="941.921" y="528.15" width="141.667" height="70.833" style="fill:#ddb682;stroke:#000;stroke-width:0.77px;"/><path d="M941.921,598.984l70.833,-70.833l70.833,70.833" style="fill:none;fill-rule:nonzero;stroke:#000;stroke-width:0.3px;"/><rect x="894.837" y="528.15" width="47.083" height="70.833" style="fill:#ddb682;stroke:#000;stroke-width:0.77px;"/><path d="M894.837,598.984l23.333,-70.833l23.75,70.833" style="fill:none;fill-rule:nonzero;stroke:#000;stroke-width:0.3px;"/><path d="M1012.754,510.65l70.833,0l0,-35.417l-70.833,0l0,35.417Z" style="fill:#ddb682;stroke:#000;stroke-width:0.77px;"/><path d="M1012.754,475.234l70.833,35.417" style="fill:none;fill-rule:nonzero;stroke:#000;stroke-width:0.3px;"/><path d="M941.921,510.65l70.833,0l0,-35.417l-70.833,0l0,35.417Z" style="fill:#ddb682;stroke:#000;stroke-width:0.77px;"/><path d="M941.921,475.234l70.833,35.417" style="fill:none;fill-rule:nonzero;stroke:#000;stroke-width:0.3px;"/><path d="M876.921,510.65l65,0l0,-35.417l-65,0l0,35.417Z" style="fill:#ddb682;stroke:#000;stroke-width:0.77px;"/><path d="M876.921,475.234l65,35.417" style="fill:none;fill-rule:nonzero;stroke:#000;stroke-width:0.3px;"/><rect x="688.171" y="475.234" width="141.667" height="70.833" style="fill:#ddb682;stroke:#000;stroke-width:0.77px;"/><path d="M829.837,475.234l-70.833,70.833l-70.833,-70.833" style="fill:none;fill-rule:nonzero;stroke:#000;stroke-width:0.3px;"/><rect x="829.837" y="475.234" width="47.083" height="70.833" style="fill:#ddb682;stroke:#000;stroke-width:0.77px;"/><path d="M876.921,475.234l-23.333,70.833l-23.75,-70.833" style="fill:none;fill-rule:nonzero;stroke:#000;stroke-width:0.3px;"/><path d="M516.921,421.9l-70.833,0l0,141.667l70.833,0l0,-141.667Z" style="fill:#ddb682;stroke:#000;stroke-width:0.77px;"/><path d="M446.087,421.9l70.833,70.833l-70.833,70.833" style="fill:none;fill-rule:nonzero;stroke:#000;stroke-width:0.3px;"/><path d="M516.921,280.234l-70.833,0l0,141.667l70.833,0l0,-141.667Z" style="fill:#ddb682;stroke:#000;stroke-width:0.77px;"/><path d="M446.087,280.234l70.833,70.833l-70.833,70.833" style="fill:none;fill-rule:nonzero;stroke:#000;stroke-width:0.3px;"/><path d="M516.921,162.317l-70.833,0l0,117.917l70.833,0l0,-117.917Z" style="fill:#ddb682;stroke:#000;stroke-width:0.77px;"/><path d="M446.087,162.317l70.833,58.75l-70.833,59.167" style="fill:none;fill-rule:nonzero;stroke:#000;stroke-width:0.3px;"/><rect x="71.504" y="900.234" width="212.5" height="100.417" style="fill:#f7f7f7;stroke:#000;stroke-width:1.48px;"/><path d="M138.587,920.65l78.333,0c20,0 30,10 30,30c0,20 -10,30 -30,30l-78.333,0c-20,0 -30,-10 -30,-30c0,-20 10,-30 30,-30Z" style="fill:none;fill-rule:nonzero;stroke:#000;stroke-width:0.3px;"/><path d="M175.671,913.15c0,-2.917 0,-5.833 -0.417,-8.75c0,-0.833 0,-1.667 0.833,-2.083c0.417,-0.833 0.833,-1.25 1.667,-1.25c0.833,0 1.25,0.417 2.083,1.25c0.417,0.417 0.417,1.25 0.417,2.083c0,2.917 -0.417,5.833 -0.417,8.75c0,1.667 -0.833,2.5 -2.083,2.5c-1.25,0 -2.083,-0.833 -2.083,-2.5Z" style="fill:none;fill-rule:nonzero;stroke:#000;stroke-width:0.3px;"/><path d="M180.254,908.984l49.167,0c26.667,0 40,13.75 40,41.667c0,27.5 -13.333,41.25 -40,41.25l-103.333,0c-26.667,0 -39.583,-13.75 -39.583,-41.25c0,-27.917 12.917,-41.667 39.583,-41.667l49.167,0" style="fill:none;fill-rule:nonzero;stroke:#000;stroke-width:0.3px;"/><path d="M180.254,952.317c-0.833,1.25 -2.917,1.667 -4.167,0.833c-1.667,-1.25 -1.667,-2.917 -0.833,-4.167c0.833,-1.667 2.917,-2.083 4.167,-0.833c1.667,0.833 2.083,2.5 0.833,4.167" style="fill:none;fill-rule:nonzero;stroke:#000;stroke-width:0.3px;"/><path d="M179.837,916.9c0,2.083 -0.417,2.917 -2.083,2.917c-1.25,0 -2.083,-0.833 -2.083,-2.917c-0.417,-4.167 -0.417,-7.917 -0.833,-11.667c0,-1.25 0.417,-2.083 0.833,-2.917c0.417,-0.833 1.25,-1.25 2.083,-1.25c0.833,0 1.667,0.417 2.083,1.25c0.417,0.833 0.833,1.667 0.833,2.917c-0.417,3.75 -0.417,7.5 -0.833,11.667Z" style="fill:none;fill-rule:nonzero;stroke:#000;stroke-width:0.3px;"/><path d="M180.671,906.067l50.417,0c27.5,0 41.25,15 41.25,44.583c0,29.583 -13.75,44.167 -41.25,44.167l-106.667,0c-27.5,0 -41.25,-14.583 -41.25,-44.167c0,-29.583 13.75,-44.583 41.25,-44.583l50.417,0" style="fill:none;fill-rule:nonzero;stroke:#000;stroke-width:0.3px;"/><path d="M268.171,855.65l0,25.833c0,3.333 -1.667,5 -5.417,5l-24.583,0c-3.333,0 -5,-1.667 -5,-5l0,-53.75c0,-3.333 1.667,-5 5,-5l24.583,0c3.75,0 5.417,1.667 5.417,5l0,19.167" style="fill:none;fill-rule:nonzero;stroke:#000;stroke-width:0.3px;"/><path d="M226.087,898.984l0,-162.083c0,-1.25 0.833,-2.083 2.083,-2.083l55.417,0c0.417,0 0.417,0.417 0.417,0.833l0,164.167c0,0.417 0,0.417 -0.417,0.417l-55.417,0c-1.25,0 -2.083,-0.417 -2.083,-1.25Z" style="fill:#f7f7f7;stroke:#000;stroke-width:1.48px;"/><path d="M268.171,781.9l0,25.833c0,3.333 -1.667,4.583 -5.417,4.583l-24.583,0c-3.333,0 -5,-1.25 -5,-4.583l0,-54.167c0,-2.917 1.667,-4.583 5,-4.583l24.583,0c3.75,0 5.417,1.667 5.417,4.583l0,19.583" style="fill:none;fill-rule:nonzero;stroke:#000;stroke-width:0.3px;"/><path d="M272.337,846.9l0,-0.417c0,0 0,-0.417 0.417,-0.417l4.167,0l0,3.333l-4.167,0c-0.417,0 -0.417,0 -0.417,-0.417l0,-1.25" style="fill:none;fill-rule:nonzero;stroke:#000;stroke-width:0.3px;"/><path d="M272.337,773.15l0,-0.417c0,-0.417 0,-0.417 0.417,-0.417l4.167,0l0,3.333l-4.167,0c-0.417,0 -0.417,0 -0.417,-0.417l0,-1.25" style="fill:none;fill-rule:nonzero;stroke:#000;stroke-width:0.3px;"/><path d="M274.421,853.567l-25,0c-0.833,0 -1.25,0.417 -1.25,0.833c0,0.833 0.417,1.25 1.25,1.25c8.333,0 16.667,0 25,0.417c0.417,0 0.833,-0.417 1.25,-0.417l0,-1.667c-0.417,-0.417 -0.833,-0.417 -1.25,-0.417Z" style="fill:none;fill-rule:nonzero;stroke:#000;stroke-width:0.3px;"/><path d="M274.421,779.817c-8.333,0 -16.667,-0.417 -25,-0.417c-0.833,0 -1.25,0.417 -1.25,1.25c0,0.833 0.417,1.25 1.25,1.25l25,0c0.417,0 0.833,0 1.25,-0.417l0,-1.667l-1.25,0Z" style="fill:none;fill-rule:nonzero;stroke:#000;stroke-width:0.3px;"/><path d="M256.087,853.567c0.833,-1.25 1.667,-1.667 2.917,-1.667c0.833,0 2.083,0.417 2.5,1.667" style="fill:none;fill-rule:nonzero;stroke:#000;stroke-width:0.3px;"/><path d="M256.087,779.4c0.833,-0.833 1.667,-1.25 2.917,-1.25c0.833,0 2.083,0.417 2.5,1.25" style="fill:none;fill-rule:nonzero;stroke:#000;stroke-width:0.3px;"/><path d="M271.504,853.567c0.833,-1.25 2.083,-2.083 3.75,-1.667c1.25,0 2.5,1.25 2.5,2.917c0,1.25 -1.25,2.5 -2.5,2.5c-1.667,0.417 -2.917,0 -3.75,-1.25" style="fill:none;fill-rule:nonzero;stroke:#000;stroke-width:0.3px;"/><path d="M271.504,779.817c0.833,-1.667 2.083,-2.083 3.75,-1.667c1.25,-0 2.5,1.25 2.5,2.5c0,1.667 -1.25,2.5 -2.5,2.917c-1.667,0.417 -2.917,-0.417 -3.75,-1.667" style="fill:none;fill-rule:nonzero;stroke:#000;stroke-width:0.3px;"/><path d="M261.504,855.65c-0.417,1.25 -1.667,1.667 -2.5,1.667c-1.25,0 -2.083,-0.833 -2.917,-1.667" style="fill:none;fill-rule:nonzero;stroke:#000;stroke-width:0.3px;"/><path d="M261.504,781.9c-0.417,0.833 -1.667,1.667 -2.5,1.667c-1.25,0 -2.083,-0.833 -2.917,-1.667" style="fill:none;fill-rule:nonzero;stroke:#000;stroke-width:0.3px;"/><path d="M276.921,853.15l0,-3.75l-4.583,0l0,3.333" style="fill:none;fill-rule:nonzero;stroke:#000;stroke-width:0.3px;"/><path d="M276.921,778.984l0,-3.333l-4.583,0l0,3.333" style="fill:none;fill-rule:nonzero;stroke:#000;stroke-width:0.3px;"/><path d="M273.587,847.734l-7.083,0c-0.417,0 -0.417,0 -0.417,-0.417c0,0 0,-0.417 0.417,-0.417l7.083,0" style="fill:none;fill-rule:nonzero;stroke:#000;stroke-width:0.3px;"/><path d="M273.587,773.984l-7.083,0c-0.417,0 -0.417,0 -0.417,-0.417c0,-0.417 0,-0.417 0.417,-0.417l7.083,0" style="fill:none;fill-rule:nonzero;stroke:#000;stroke-width:0.3px;"/><path d="M268.171,847.734l0,5.833" style="fill:none;fill-rule:nonzero;stroke:#000;stroke-width:0.3px;"/><path d="M268.171,773.984l0,5.833" style="fill:none;fill-rule:nonzero;stroke:#000;stroke-width:0.3px;"/><path d="M268.171,855.65l0,25.833c0,3.333 -1.667,5 -5.417,5l-24.583,0c-3.333,0 -5,-1.667 -5,-5l0,-53.75c0,-3.333 1.667,-5 5,-5l24.583,0c3.75,0 5.417,1.667 5.417,5l0,19.167" style="fill:none;fill-rule:nonzero;stroke:#000;stroke-width:0.3px;"/><path d="M71.504,757.317l0,40l42.083,1.25c11.667,-0.417 20.417,-9.583 20.417,-21.25c0,-11.667 -8.75,-20.833 -20.417,-21.25l-42.083,1.25Z" style="fill:#e0e0e0;stroke:#000;stroke-width:0.3px;"/><path d="M129.837,777.317c0.417,3.75 -0.833,7.083 -2.917,10c-3.75,5 -9.583,7.917 -15.833,7.917c-5.833,-0.417 -11.667,-3.333 -15.417,-8.333c-1.667,-2.917 -2.5,-6.25 -2.5,-9.583c0,-3.333 0.833,-6.667 2.5,-9.583c3.75,-5 9.583,-7.917 15.417,-8.333c6.25,0 12.083,2.917 15.833,7.917c2.083,2.917 3.333,6.25 2.917,10Z" style="fill:#b4b4b4;stroke:#000;stroke-width:0.3px;"/><path d="M71.504,777.317l2.5,0" style="fill:none;fill-rule:nonzero;stroke:#000;stroke-width:0.3px;"/><path d="M96.087,786.9c1.25,0 2.917,0 4.167,-0.417c1.25,0 2.917,-0.417 3.75,-1.25c1.25,-0.833 2.5,-1.667 2.917,-2.5c0.833,-0.833 1.25,-1.667 1.667,-2.5l0,-2.917" style="fill:none;fill-rule:nonzero;stroke:#000;stroke-width:0.3px;"/><path d="M100.671,786.484c-0.417,-0.833 -0.833,-1.25 -1.25,-2.083c-0.417,-0.833 -0.833,-1.667 -0.833,-2.5c-0.417,-0.833 -0.417,-1.667 -0.417,-2.5l-0,-2.083" style="fill:none;fill-rule:nonzero;stroke:#000;stroke-width:0.3px;"/><circle cx="85.462" cy="786.275" r="1.458" style="fill:none;stroke:#000;stroke-width:0.3px;"/><path d="M96.087,767.734c1.25,0 2.917,0 4.167,0.417c1.25,0 2.917,0.417 3.75,1.25c1.25,0.833 2.5,1.667 2.917,2.5c0.833,0.833 1.25,1.667 1.667,2.5l0,2.917" style="fill:none;fill-rule:nonzero;stroke:#000;stroke-width:0.3px;"/><path d="M100.671,768.15c-0.417,0.833 -0.833,1.25 -1.25,2.083c-0.417,0.833 -0.833,1.667 -0.833,2.5c-0.417,0.833 -0.417,1.667 -0.417,2.5l0,2.083" style="fill:none;fill-rule:nonzero;stroke:#000;stroke-width:0.3px;"/><path d="M85.254,769.817c-0.417,0 -1.25,-0.417 -1.25,-1.25c0,-0.833 0.833,-1.667 1.25,-1.667c0.833,0 1.667,0.833 1.667,1.667c0,0.833 -0.833,1.25 -1.667,1.25Z" style="fill:none;fill-rule:nonzero;stroke:#000;stroke-width:0.3px;"/><rect x="50.254" y="469.4" width="47.083" height="47.083" style="fill:#ddb682;stroke:#000;stroke-width:0.77px;"/><rect x="50.254" y="209.4" width="47.083" height="47.083" style="fill:#ddb682;stroke:#000;stroke-width:0.77px;"/><rect x="58.171" y="275.234" width="59.167" height="70.833" style="fill:#69b2ff;fill-opacity:0.5;"/><path d="M298.171,469.4l-100.417,0l0,-65l-76.25,0l0,-147.917l176.667,0l0,212.917Z" style="fill:#69b2ff;fill-opacity:0.5;"/><path d="M121.504,404.4l76.25,65l-147.5,0l0,-212.917l71.25,0l0,147.917Zm-4.167,-58.333l0,-70.833l-59.167,0l0,70.833l59.167,0Zm0,104.583l0,-70.833l-59.167,0l0,70.833l59.167,0Z" style="fill:#e5fcff;fill-opacity:0.5;"/><rect x="58.171" y="379.817" width="59.167" height="70.833" style="fill:#69b2ff;fill-opacity:0.5;"/><path d="M197.754,469.4l-76.25,-65l76.25,0l0,65Z" style="fill:#e5fcff;fill-opacity:0.5;"/><path d="M97.337,516.484l-47.083,0l0,-307.083l47.083,0l0,47.083l200.833,0l0,212.917l-200.833,0l0,47.083Z" style="fill:none;fill-rule:nonzero;stroke:#000;stroke-width:0.77px;"/><rect x="58.171" y="379.817" width="59.167" height="70.833" style="fill:none;stroke:#000;stroke-width:0.77px;"/><path d="M117.337,275.234l-59.167,0l0,70.833l59.167,0l0,-70.833Z" style="fill:none;stroke:#000;stroke-width:0.77px;"/><path d="M121.504,256.484l0,147.917l76.25,65l0,-65l-76.25,0" style="fill:none;fill-rule:nonzero;stroke:#000;stroke-width:0.77px;"/><path d="M97.337,469.4l-47.083,0" style="fill:none;fill-rule:nonzero;stroke:#000;stroke-width:0.77px;"/><path d="M97.337,256.484l-47.083,0" style="fill:none;fill-rule:nonzero;stroke:#000;stroke-width:0.77px;"/><path d="M103.171,597.734l12.083,-23.75l-2.5,-1.25c-0.833,-0.417 -1.25,-1.25 -1.667,-2.083c0,-0.833 0,-1.667 0.417,-2.5c8.75,-13.75 27.083,-18.75 42.083,-11.667c14.583,7.5 21.667,25 15.833,40.833c-0.417,0.833 -0.833,1.25 -1.667,1.667c-0.833,0.417 -1.667,0.417 -2.5,0l-2.5,-1.25l-12.083,23.75l-47.5,-23.75Z" style="fill:#cfd4a2;"/><path d="M162.754,597.734l-12.083,23.75" style="fill:none;fill-rule:nonzero;stroke:#000;stroke-width:0.77px;"/><path d="M169.421,597.317c-0.417,0.833 -0.833,1.25 -1.667,1.667c-0.833,0.417 -1.667,0.417 -2.5,0" style="fill:none;fill-rule:nonzero;stroke:#000;stroke-width:0.77px;"/><path d="M115.254,573.984l-2.5,-1.25" style="fill:none;fill-rule:nonzero;stroke:#000;stroke-width:0.77px;"/><path d="M165.254,598.984l-2.5,-1.25" style="fill:none;fill-rule:nonzero;stroke:#000;stroke-width:0.77px;"/><path d="M115.254,573.984c6.667,-13.333 22.5,-18.75 35.417,-12.083c13.333,6.667 18.75,22.5 12.083,35.833" style="fill:none;fill-rule:nonzero;stroke:#000;stroke-width:0.77px;"/><path d="M111.504,568.15c8.75,-13.75 27.083,-18.75 42.083,-11.667c14.583,7.5 21.667,25 15.833,40.833" style="fill:none;fill-rule:nonzero;stroke:#000;stroke-width:0.77px;"/><path d="M103.171,597.734l12.083,-23.75" style="fill:none;fill-rule:nonzero;stroke:#000;stroke-width:0.77px;"/><path d="M150.671,621.484l-47.5,-23.75" style="fill:none;fill-rule:nonzero;stroke:#000;stroke-width:0.77px;"/><path d="M112.754,572.734c-0.833,-0.417 -1.25,-1.25 -1.667,-2.083c0,-0.833 0,-1.667 0.417,-2.5" style="fill:none;fill-rule:nonzero;stroke:#000;stroke-width:0.77px;"/><path d="M50.254,658.15l70.833,0l0,-141.667l-70.833,0l0,141.667Z" style="fill:#ddb682;stroke:#000;stroke-width:0.77px;"/><rect x="226.087" y="705.234" width="57.917" height="29.583" style="fill:#ddb682;stroke:#000;stroke-width:0.77px;"/><path d="M670.254,546.067l17.917,-17.917m-17.917,-2.917l17.917,-17.917m-17.917,-2.917l17.917,-17.917m-17.917,-3.333l8.333,-7.917" style="fill:none;fill-rule:nonzero;stroke:#000;stroke-opacity:0.31;stroke-width:1.48px;"/><path d="M670.254,546.067l0,-70.833l17.917,0l0,70.833" style="fill:none;fill-rule:nonzero;stroke:#2b2b2b;stroke-width:2.95px;stroke-linecap:round;"/><path d="M516.921,563.567l17.5,-17.5m-17.5,-3.333l17.5,-17.5m-17.5,-3.333l17.5,-17.5m-17.5,-3.333l17.5,-17.917m-17.5,-2.917l17.5,-17.917m-17.5,-2.917l17.5,-17.917m-17.5,-2.917l17.5,-17.917m-17.5,-2.917l17.5,-17.917m-17.5,-3.333l17.5,-17.5m-17.5,-3.333l17.5,-17.5m-17.5,-3.333l17.5,-17.5m-17.5,-3.333l17.5,-17.5m-17.5,-3.333l17.5,-17.917m-17.5,-2.917l17.5,-17.917m-17.5,-2.917l17.5,-17.917m-17.5,-2.917l17.5,-17.917m-17.5,-2.917l17.5,-17.917m-17.5,-3.333l17.5,-17.5m-17.5,-3.333l17.5,-17.5m-17.5,-3.333l4.583,-4.583" style="fill:none;fill-rule:nonzero;stroke:#000;stroke-opacity:0.31;stroke-width:1.48px;"/><path d="M534.421,162.317l0,401.25m-17.5,0l0,-401.25" style="fill:none;fill-rule:nonzero;stroke:#2b2b2b;stroke-width:2.95px;stroke-linecap:round;"/><path d="M658.587,574.4l10.833,-10.833m-122.083,17.917l5,-5m-26.25,5l17.917,-17.917m-38.75,17.917l17.917,-17.917m-38.75,17.917l17.917,-17.917m-38.75,17.917l17.917,-17.917" style="fill:none;fill-rule:nonzero;stroke:#000;stroke-opacity:0.31;stroke-width:1.48px;"/><path d="M552.337,563.567l0,17.917l-88.75,0m0,-17.917l53.333,0m17.5,0l17.917,0m117.917,17.917l-11.667,0l0,-17.917l11.667,0" style="fill:none;fill-rule:nonzero;stroke:#2b2b2b;stroke-width:2.95px;stroke-linecap:round;"/><path d="M446.087,1012.734l17.5,-17.917m-17.5,-3.333l17.5,-17.5m-17.5,-3.333l17.5,-17.5m-17.5,-3.333l17.5,-17.5m-17.5,-3.333l15.417,-15.833m-14.583,-89.583l16.667,-16.667m-17.5,-3.333l17.5,-17.5m-17.5,-3.333l17.5,-17.5m-17.5,-3.333l17.5,-17.5m-17.5,-3.333l17.5,-17.5m-17.5,-3.333l14.583,-15m-3.333,-17.5l6.25,-5.833m-10,-94.583l10,-10m-17.5,-3.333l10,-10.417" style="fill:none;fill-rule:nonzero;stroke:#000;stroke-opacity:0.31;stroke-width:1.48px;"/><path d="M463.587,823.567l-17.5,0l0,-106.25m17.5,-12.083l0,118.333m-17.5,89.583l17.5,0l0,99.583m-17.5,-12.083l0,-87.5m0,-349.583l17.5,0m0,17.917l0,5.833l-17.5,0l0,-23.75m0,124.167l0,-5.833l17.5,0l0,5.833" style="fill:none;fill-rule:nonzero;stroke:#2b2b2b;stroke-width:2.95px;stroke-linecap:round;"/><path d="M670.254,1012.317l17.917,-17.5m-17.917,-3.333l17.917,-17.5m-17.917,-3.333l17.917,-17.5m-17.917,-3.333l17.917,-17.5m-17.917,-3.333l17.917,-17.5m-17.917,-3.333l17.917,-17.917m-17.917,-2.917l17.917,-17.917m-17.917,-2.917l17.917,-17.917m-17.917,-2.917l17.917,-17.917m-17.917,-3.333l17.917,-17.5m-17.917,-3.333l17.917,-17.5m-17.917,-3.333l17.917,-17.5m-17.917,-107.5l17.917,-17.917m-17.917,-2.917l17.917,-17.917m-17.917,-3.333l17.917,-17.5m-17.917,-3.333l17.917,-17.5m-17.917,-3.333l10.417,-10.417" style="fill:none;fill-rule:nonzero;stroke:#000;stroke-opacity:0.31;stroke-width:1.48px;"/><path d="M679.004,658.15l-8.75,0l0,-76.667m17.917,-17.917l0,94.583l-9.167,0m-8.75,354.583l0,-248.333l17.917,0l0,248.333" style="fill:none;fill-rule:nonzero;stroke:#2b2b2b;stroke-width:2.95px;stroke-linecap:round;"/><path d="M313.587,705.65l-17.5,17.5m17.5,3.333l-17.5,17.5m17.5,3.333l-17.5,17.5m17.5,3.333l-17.5,17.5m17.5,3.333l-17.5,17.5m17.5,3.333l-17.5,17.917m17.5,2.917l-17.5,17.917m17.5,2.917l-17.5,17.917m17.5,2.917l-17.5,17.917m17.5,2.917l-17.5,17.917m17.5,3.333l-17.5,17.5m17.5,3.333l-17.5,17.5m17.5,3.333l-17.5,17.5m17.5,3.333l-17.5,17.5m17.5,3.333l-14.583,15" style="fill:none;fill-rule:nonzero;stroke:#000;stroke-opacity:0.5;stroke-width:1.48px;"/><path d="M313.587,717.317l0,283.333" style="fill:none;fill-rule:nonzero;stroke:#2b2b2b;stroke-width:1.48px;stroke-linecap:round;"/><path d="M446.921,705.234l16.667,-16.667m-37.5,16.667l17.5,-17.5m-38.333,17.5l17.5,-17.5m-38.333,17.5l17.5,-17.5m-38.333,17.5l17.5,-17.5m-38.333,17.5l17.5,-17.5m-38.75,17.5l17.917,-17.5m-38.75,17.5l17.917,-17.5m-38.75,17.5l17.917,-17.5m-38.75,17.5l17.917,-17.5m-38.75,17.5l17.5,-17.5m-29.583,9.167l8.75,-9.167m-101.25,17.5l2.083,-2.083m-22.917,2.083l17.917,-17.5m-38.75,17.5l17.917,-17.5m-38.75,17.5l17.917,-17.5m-38.75,17.5l17.917,-17.5" style="fill:none;fill-rule:nonzero;stroke:#000;stroke-opacity:0.31;stroke-width:1.48px;"/><path d="M50.254,687.734l85.417,0l0,17.5l-64.167,0m392.083,-17.5l0,17.5m-179.583,0l-57.917,0l0,-17.5l220,0" style="fill:none;fill-rule:nonzero;stroke:#2b2b2b;stroke-width:2.95px;stroke-linecap:round;"/><path d="M858.171,563.567l17.917,-17.5m-38.75,17.5l17.917,-17.5m-38.75,17.5l17.5,-17.5m-38.333,17.5l17.5,-17.5m-38.333,17.5l17.5,-17.5m-38.333,17.5l17.5,-17.5m-38.333,17.5l17.5,-17.5m-38.75,17.5l17.917,-17.5m-38.75,17.5l17.917,-17.5m-38.75,17.5l17.917,-17.5" style="fill:none;fill-rule:nonzero;stroke:#000;stroke-opacity:0.31;stroke-width:1.48px;"/><path d="M688.171,546.067l188.75,0m0,17.5l-188.75,0m-17.917,0l0,-17.5" style="fill:none;fill-rule:nonzero;stroke:#2b2b2b;stroke-width:2.95px;stroke-linecap:round;"/><path d="M876.921,563.567l17.917,-17.5m-17.917,-3.333l14.583,-14.583" style="fill:none;fill-rule:nonzero;stroke:#000;stroke-opacity:0.31;stroke-width:1.48px;"/><path d="M876.921,546.067l0,-17.917m17.917,0l0,35.417l-17.917,0" style="fill:none;fill-rule:nonzero;stroke:#2b2b2b;stroke-width:2.95px;stroke-linecap:round;"/><path d="M1064.837,528.15l17.917,-17.5m-38.75,17.5l17.917,-17.5m-38.75,17.5l17.917,-17.5m-38.75,17.5l17.5,-17.5m-38.333,17.5l17.5,-17.5m-38.333,17.5l17.5,-17.5m-38.333,17.5l17.5,-17.5m-38.75,17.5l17.917,-17.5m-38.75,17.5l17.917,-17.5m-38.75,17.5l17.917,-17.5" style="fill:none;fill-rule:nonzero;stroke:#000;stroke-opacity:0.31;stroke-width:1.48px;"/><path d="M1083.587,528.15l-188.75,0m-17.917,0l0,-17.5l206.667,0" style="fill:none;fill-rule:nonzero;stroke:#2b2b2b;stroke-width:2.95px;stroke-linecap:round;"/><rect x="50.254" y="1012.734" width="413.333" height="35.417" style="fill:#fff;fill-opacity:0.1;"/><path d="M446.921,1048.15l16.667,-17.083m-37.5,17.083l35.417,-35.417m-56.25,35.417l35.417,-35.417m-56.25,35.417l35.417,-35.417m-56.25,35.417l35.417,-35.417m-56.25,35.417l35.417,-35.417m-56.667,35.417l35.417,-35.417m-56.25,35.417l35.417,-35.417m-56.25,35.417l35.417,-35.417m-56.25,35.417l35.417,-35.417m-56.25,35.417l35.417,-35.417m-56.25,35.417l35.417,-35.417m-56.25,35.417l35.417,-35.417m-56.25,35.417l35.417,-35.417m-56.25,35.417l35.417,-35.417m-56.667,35.417l35.417,-35.417m-56.25,35.417l35.417,-35.417m-56.25,35.417l35.417,-35.417m-56.25,35.417l35.417,-35.417m-56.25,35.417l35.417,-35.417m-35.417,14.167l14.583,-14.167m398.75,10l-10.417,-10m10.417,30.833l-31.25,-30.833m14.583,35.417l-35.417,-35.417m14.583,35.417l-35.417,-35.417m14.583,35.417l-35.417,-35.417m14.583,35.417l-35.417,-35.417m14.583,35.417l-35.417,-35.417m14.583,35.417l-35.833,-35.417m14.583,35.417l-35.417,-35.417m14.583,35.417l-35.417,-35.417m14.583,35.417l-35.417,-35.417m14.583,35.417l-35.417,-35.417m14.583,35.417l-35.417,-35.417m14.583,35.417l-35.417,-35.417m14.583,35.417l-35.417,-35.417m14.583,35.417l-35.417,-35.417m14.583,35.417l-35.833,-35.417m14.583,35.417l-35.417,-35.417m14.583,35.417l-35.417,-35.417m14.583,35.417l-35.417,-35.417m14.583,35.417l-20.833,-21.25" style="fill:none;fill-rule:nonzero;stroke:#000;stroke-opacity:0.31;stroke-width:1.48px;"/><path d="M463.587,1012.734l0,35.417l-413.333,0" style="fill:none;fill-rule:nonzero;stroke:#2b2b2b;stroke-width:2.95px;stroke-linecap:round;"/><rect x="14.837" y="162.317" width="35.417" height="885.833" style="fill:#fff;fill-opacity:0.1;"/><path d="M35.671,1048.15l14.583,-14.583m-35.417,14.583l35.417,-35.833m-35.417,14.583l35.417,-35.417m-35.417,14.583l35.417,-35.417m-35.417,14.583l35.417,-35.417m-35.417,14.583l35.417,-35.417m-35.417,14.583l35.417,-35.417m-35.417,14.583l35.417,-35.417m-35.417,14.583l35.417,-35.417m-35.417,14.583l35.417,-35.417m-35.417,14.583l35.417,-35.417m-35.417,14.167l35.417,-35.417m-35.417,14.583l35.417,-35.417m-35.417,14.583l35.417,-35.417m-35.417,14.583l35.417,-35.417m-35.417,14.583l35.417,-35.417m-35.417,14.583l35.417,-35.417m-35.417,14.583l35.417,-35.417m-35.417,14.583l35.417,-35.417m-35.417,14.583l35.417,-35.417m-35.417,14.167l35.417,-35.417m-35.417,14.583l35.417,-35.417m-35.417,14.583l35.417,-35.417m-35.417,14.583l35.417,-35.417m-35.417,14.583l35.417,-35.417m-35.417,14.583l35.417,-35.417m-35.417,14.583l35.417,-35.417m-35.417,14.583l35.417,-35.417m-35.417,14.583l35.417,-35.417m-35.417,14.167l35.417,-35.417m-35.417,14.583l35.417,-35.417m-35.417,14.583l35.417,-35.417m-35.417,14.583l35.417,-35.417m-35.417,14.583l35.417,-35.417m-35.417,14.583l35.417,-35.417m-35.417,14.583l35.417,-35.417m-35.417,14.583l35.417,-35.417m-35.417,14.583l35.417,-35.417m-35.417,14.167l35.417,-35.417m-35.417,14.583l35.417,-35.417m-35.417,14.583l35.417,-35.417m-35.417,14.583l35.417,-35.417m-35.417,14.583l29.583,-29.583m-29.583,8.75l8.75,-8.75m26.667,2.5l-2.5,-2.5m2.5,23.333l-23.333,-23.333m23.333,44.167l-35.417,-35.417m35.417,56.25l-35.417,-35.417m35.417,56.25l-35.417,-35.417m35.417,56.25l-35.417,-35.417m35.417,56.25l-35.417,-35.417m35.417,56.667l-35.417,-35.833m35.417,56.667l-35.417,-35.417m35.417,56.25l-35.417,-35.417m35.417,56.25l-35.417,-35.417m35.417,56.25l-35.417,-35.417m35.417,56.25l-35.417,-35.417m35.417,56.25l-35.417,-35.417m35.417,56.25l-35.417,-35.417m35.417,56.25l-35.417,-35.417m35.417,56.667l-35.417,-35.833m35.417,56.667l-35.417,-35.417m35.417,56.25l-35.417,-35.417m35.417,56.25l-35.417,-35.417m35.417,56.25l-35.417,-35.417m35.417,56.25l-35.417,-35.417m35.417,56.25l-35.417,-35.417m35.417,56.25l-35.417,-35.417m35.417,56.25l-35.417,-35.417m35.417,56.25l-35.417,-35.417m35.417,56.667l-35.417,-35.417m35.417,56.25l-35.417,-35.417m35.417,56.25l-35.417,-35.417m35.417,56.25l-35.417,-35.417m35.417,56.25l-35.417,-35.417m35.417,56.25l-35.417,-35.417m35.417,56.25l-35.417,-35.417m35.417,56.25l-35.417,-35.417m35.417,56.25l-35.417,-35.417m35.417,56.667l-35.417,-35.417m35.417,56.25l-35.417,-35.417m35.417,56.25l-35.417,-35.417m35.417,56.25l-35.417,-35.417m35.417,56.25l-35.417,-35.417m35.417,56.25l-35.417,-35.417m35.417,56.25l-35.417,-35.417m35.417,56.25l-35.417,-35.417m20.833,42.083l-20.833,-21.25" style="fill:none;fill-rule:nonzero;stroke:#000;stroke-opacity:0.31;stroke-width:1.48px;"/><path d="M50.254,162.317l0,525.417m0,360.417l-35.417,0l0,-885.833" style="fill:none;fill-rule:nonzero;stroke:#2b2b2b;stroke-width:2.95px;stroke-linecap:round;"/><rect x="670.254" y="1012.734" width="413.333" height="35.417" style="fill:#fff;fill-opacity:0.1;"/><path d="M1066.921,1048.15l16.667,-16.667m-37.5,16.667l35.417,-35.417m-56.25,35.417l35.417,-35.417m-56.25,35.417l35.417,-35.417m-56.25,35.417l35.417,-35.417m-56.25,35.417l35.417,-35.417m-56.25,35.417l35.417,-35.417m-56.25,35.417l35.417,-35.417m-56.667,35.417l35.417,-35.417m-56.25,35.417l35.417,-35.417m-56.25,35.417l35.417,-35.417m-56.25,35.417l35.417,-35.417m-56.25,35.417l35.417,-35.417m-56.25,35.417l35.417,-35.417m-56.25,35.417l35.417,-35.417m-56.25,35.417l35.417,-35.417m-56.25,35.417l35.417,-35.417m-56.667,35.417l35.417,-35.417m-56.25,35.417l35.417,-35.417m-56.25,35.417l35.417,-35.417m-35.417,14.167l14.583,-14.167m398.75,10l-10.417,-10m10.417,30.833l-31.25,-30.833m14.583,35.417l-35.417,-35.417m14.583,35.417l-35.417,-35.417m14.583,35.417l-35.417,-35.417m14.583,35.417l-35.417,-35.417m14.583,35.417l-35.417,-35.417m14.583,35.417l-35.417,-35.417m14.583,35.417l-35.417,-35.417m14.583,35.417l-35.833,-35.417m14.583,35.417l-35.417,-35.417m14.583,35.417l-35.417,-35.417m14.583,35.417l-35.417,-35.417m14.583,35.417l-35.417,-35.417m14.583,35.417l-35.417,-35.417m14.583,35.417l-35.417,-35.417m14.583,35.417l-35.417,-35.417m14.583,35.417l-35.417,-35.417m14.583,35.417l-35.833,-35.417m14.583,35.417l-35.417,-35.417m14.583,35.417l-20.833,-21.25" style="fill:none;fill-rule:nonzero;stroke:#000;stroke-opacity:0.31;stroke-width:1.48px;"/><path d="M688.171,1048.15l-17.917,0l0,-35.417m17.917,0l395.417,0m0,35.417l-395.417,0" style="fill:none;fill-rule:nonzero;stroke:#2b2b2b;stroke-width:2.95px;stroke-linecap:round;"/><rect x="1083.587" y="162.317" width="35.417" height="885.833" style="fill:#fff;fill-opacity:0.1;"/><path d="M1104.421,1048.15l14.583,-14.583m-35.417,14.167l35.417,-35.417m-35.417,14.583l35.417,-35.417m-35.417,14.583l35.417,-35.417m-35.417,14.583l35.417,-35.417m-35.417,14.583l35.417,-35.417m-35.417,14.583l35.417,-35.417m-35.417,14.583l35.417,-35.417m-35.417,14.583l35.417,-35.417m-35.417,14.583l35.417,-35.417m-35.417,14.167l35.417,-35.417m-35.417,14.583l35.417,-35.417m-35.417,14.583l35.417,-35.417m-35.417,14.583l35.417,-35.417m-35.417,14.583l35.417,-35.417m-35.417,14.583l35.417,-35.417m-35.417,14.583l35.417,-35.417m-35.417,14.583l35.417,-35.417m-35.417,14.583l35.417,-35.417m-35.417,14.583l35.417,-35.833m-35.417,14.583l35.417,-35.417m-35.417,14.583l35.417,-35.417m-35.417,14.583l35.417,-35.417m-35.417,14.583l35.417,-35.417m-35.417,14.583l35.417,-35.417m-35.417,14.583l35.417,-35.417m-35.417,14.583l35.417,-35.417m-35.417,14.583l35.417,-35.417m-35.417,14.583l35.417,-35.833m-35.417,14.583l35.417,-35.417m-35.417,14.583l35.417,-35.417m-35.417,14.583l35.417,-35.417m-35.417,14.583l35.417,-35.417m-35.417,14.583l35.417,-35.417m-35.417,14.583l35.417,-35.417m-35.417,14.583l35.417,-35.417m-35.417,14.583l35.417,-35.417m-35.417,14.583l35.417,-35.833m-35.417,14.583l35.417,-35.417m-35.417,14.583l35.417,-35.417m-35.417,14.583l35.417,-35.417m-35.417,14.583l35.417,-35.417m-35.417,14.583l30,-29.583m-30,8.75l9.167,-8.75m26.25,2.5l-2.5,-2.5m2.5,23.333l-23.333,-23.333m23.333,44.167l-35.417,-35.417m35.417,56.25l-35.417,-35.417m35.417,56.25l-35.417,-35.417m35.417,56.25l-35.417,-35.417m35.417,56.25l-35.417,-35.417m35.417,56.667l-35.417,-35.417m35.417,56.25l-35.417,-35.417m35.417,56.25l-35.417,-35.417m35.417,56.25l-35.417,-35.417m35.417,56.25l-35.417,-35.417m35.417,56.25l-35.417,-35.417m35.417,56.25l-35.417,-35.417m35.417,56.25l-35.417,-35.417m35.417,56.25l-35.417,-35.417m35.417,56.667l-35.417,-35.833m35.417,56.667l-35.417,-35.417m35.417,56.25l-35.417,-35.417m35.417,56.25l-35.417,-35.417m35.417,56.25l-35.417,-35.417m35.417,56.25l-35.417,-35.417m35.417,56.25l-35.417,-35.417m35.417,56.25l-35.417,-35.417m35.417,56.25l-35.417,-35.417m35.417,56.667l-35.417,-35.833m35.417,56.667l-35.417,-35.417m35.417,56.25l-35.417,-35.417m35.417,56.25l-35.417,-35.417m35.417,56.25l-35.417,-35.417m35.417,56.25l-35.417,-35.417m35.417,56.25l-35.417,-35.417m35.417,56.25l-35.417,-35.417m35.417,56.25l-35.417,-35.417m35.417,56.667l-35.417,-35.833m35.417,56.667l-35.417,-35.417m35.417,56.25l-35.417,-35.417m35.417,56.25l-35.417,-35.417m35.417,56.25l-35.417,-35.417m35.417,56.25l-35.417,-35.417m35.417,56.25l-35.417,-35.417m35.417,56.25l-35.417,-35.417m35.417,56.25l-35.417,-35.417m20.833,42.083l-20.833,-20.833" style="fill:none;fill-rule:nonzero;stroke:#000;stroke-opacity:0.31;stroke-width:1.48px;"/><path d="M1083.587,510.65l0,-348.333m35.417,0l0,885.833l-35.417,0m0,-35.417l0,-484.583" style="fill:none;fill-rule:nonzero;stroke:#2b2b2b;stroke-width:2.95px;stroke-linecap:round;"/><rect x="14.837" y="126.9" width="1104.167" height="35.417" style="fill:#fff;fill-opacity:0.1;"/><path d="M1100.671,162.317l18.333,-18.75m-39.167,18.75l35.417,-35.417m-56.667,35.417l35.417,-35.417m-56.25,35.417l35.417,-35.417m-56.25,35.417l35.417,-35.417m-56.25,35.417l35.417,-35.417m-56.25,35.417l35.417,-35.417m-56.25,35.417l35.417,-35.417m-56.25,35.417l35.417,-35.417m-56.25,35.417l35.417,-35.417m-56.25,35.417l35.417,-35.417m-56.667,35.417l35.417,-35.417m-56.25,35.417l35.417,-35.417m-56.25,35.417l35.417,-35.417m-56.25,35.417l35.417,-35.417m-56.25,35.417l35.417,-35.417m-56.25,35.417l35.417,-35.417m-56.25,35.417l35.417,-35.417m-56.25,35.417l35.417,-35.417m-56.25,35.417l35.417,-35.417m-56.667,35.417l35.833,-35.417m-56.667,35.417l35.417,-35.417m-56.25,35.417l35.417,-35.417m-56.25,35.417l35.417,-35.417m-56.25,35.417l35.417,-35.417m-56.25,35.417l35.417,-35.417m-56.25,35.417l35.417,-35.417m-56.25,35.417l35.417,-35.417m-56.25,35.417l35.417,-35.417m-56.667,35.417l35.833,-35.417m-56.667,35.417l35.417,-35.417m-56.25,35.417l35.417,-35.417m-56.25,35.417l35.417,-35.417m-56.25,35.417l35.417,-35.417m-56.25,35.417l35.417,-35.417m-56.25,35.417l35.417,-35.417m-56.25,35.417l35.417,-35.417m-56.25,35.417l35.417,-35.417m-56.667,35.417l35.833,-35.417m-56.667,35.417l35.417,-35.417m-56.25,35.417l35.417,-35.417m-56.25,35.417l35.417,-35.417m-56.25,35.417l35.417,-35.417m-56.25,35.417l35.417,-35.417m-56.25,35.417l35.417,-35.417m-56.25,35.417l35.417,-35.417m-56.25,35.417l35.417,-35.417m-56.667,35.417l35.833,-35.417m-56.667,35.417l35.417,-35.417m-56.25,35.417l35.417,-35.417m-56.25,35.417l35.417,-35.417m-56.25,35.417l35.417,-35.417m-56.25,35.417l35.417,-35.417m-35.417,14.167l14.583,-14.167m1089.583,12.083l-12.083,-12.083m12.083,32.917l-32.917,-32.917m14.583,35.417l-35.417,-35.417m14.583,35.417l-35.417,-35.417m14.167,35.417l-35.417,-35.417m14.583,35.417l-35.417,-35.417m14.583,35.417l-35.417,-35.417m14.583,35.417l-35.417,-35.417m14.583,35.417l-35.417,-35.417m14.583,35.417l-35.417,-35.417m14.583,35.417l-35.417,-35.417m14.583,35.417l-35.417,-35.417m14.583,35.417l-35.417,-35.417m14.167,35.417l-35.417,-35.417m14.583,35.417l-35.417,-35.417m14.583,35.417l-35.417,-35.417m14.583,35.417l-35.417,-35.417m14.583,35.417l-35.417,-35.417m14.583,35.417l-35.417,-35.417m14.583,35.417l-35.417,-35.417m14.583,35.417l-35.417,-35.417m14.583,35.417l-35.417,-35.417m14.167,35.417l-35.417,-35.417m14.583,35.417l-35.417,-35.417m14.583,35.417l-35.417,-35.417m14.583,35.417l-35.417,-35.417m14.583,35.417l-35.417,-35.417m14.583,35.417l-35.417,-35.417m14.583,35.417l-35.417,-35.417m14.583,35.417l-35.417,-35.417m14.583,35.417l-35.417,-35.417m14.167,35.417l-35.417,-35.417m14.583,35.417l-35.417,-35.417m14.583,35.417l-35.417,-35.417m14.583,35.417l-35.417,-35.417m14.583,35.417l-35.417,-35.417m14.583,35.417l-35.417,-35.417m14.583,35.417l-35.417,-35.417m14.583,35.417l-35.417,-35.417m14.583,35.417l-35.417,-35.417m14.167,35.417l-35.417,-35.417m14.583,35.417l-35.417,-35.417m14.583,35.417l-35.417,-35.417m14.583,35.417l-35.417,-35.417m14.583,35.417l-35.417,-35.417m14.583,35.417l-35.417,-35.417m14.583,35.417l-35.417,-35.417m14.583,35.417l-35.417,-35.417m14.583,35.417l-35.417,-35.417m14.167,35.417l-35.417,-35.417m14.583,35.417l-35.417,-35.417m14.583,35.417l-35.417,-35.417m14.583,35.417l-35.417,-35.417m14.583,35.417l-20.833,-21.25" style="fill:none;fill-rule:nonzero;stroke:#000;stroke-opacity:0.31;stroke-width:1.48px;"/><path d="M14.837,162.317l0,-35.417l1104.167,0l0,35.417m-35.417,0l-549.167,0m-17.5,0l-466.667,0" style="fill:none;fill-rule:nonzero;stroke:#2b2b2b;stroke-width:2.95px;stroke-linecap:round;"/><path d="M66.087,700.234l70,0l-0.417,-7.5l-69.583,0l0,7.5Z" style="fill:#fff;stroke:#000;stroke-width:0.3px;"/><path d="M136.087,701.484l3.333,0l0,-9.583l-3.75,0l0.417,9.583Z" style="fill:#f7f7f7;stroke:#000;stroke-width:1.48px;"/><rect x="98.171" y="694.4" width="82.917" height="4.583" style="fill:#f7f7f7;stroke:#000;stroke-width:1.48px;"/><path d="M139.421,691.9l82.917,0" style="fill:none;fill-rule:nonzero;stroke:#bcbcbc;stroke-width:0.3px;"/><rect x="222.337" y="691.9" width="3.75" height="9.583" style="fill:#f7f7f7;stroke:#000;stroke-width:1.48px;"/><path d="M139.421,701.484l82.917,0" style="fill:none;fill-rule:nonzero;stroke:#bcbcbc;stroke-width:0.3px;"/><path d="M670.254,758.567l17.917,0" style="fill:none;fill-rule:nonzero;stroke:#000;stroke-width:0.3px;"/><path d="M670.254,663.984l112.083,0" style="fill:none;fill-rule:nonzero;stroke:#000;stroke-width:0.3px;"/><path d="M782.337,663.984c-0,52.5 -42.083,94.583 -94.167,94.583" style="fill:none;fill-rule:nonzero;stroke:#000;stroke-width:0.3px;"/><rect x="670.254" y="658.15" width="17.917" height="106.25" style="fill:none;fill-rule:nonzero;stroke:#000;stroke-width:0.3px;"/><path d="M652.754,581.484l0,-17.917" style="fill:none;fill-rule:nonzero;stroke:#000;stroke-width:0.3px;"/><path d="M558.171,581.484l0,-112.083" style="fill:none;fill-rule:nonzero;stroke:#000;stroke-width:0.3px;"/><path d="M558.171,469.4c52.083,-0 94.583,42.083 94.583,94.167" style="fill:none;fill-rule:nonzero;stroke:#000;stroke-width:0.3px;"/><rect x="552.337" y="563.567" width="106.25" height="17.917" style="fill:none;fill-rule:nonzero;stroke:#000;stroke-width:0.3px;"/><rect x="446.087" y="587.317" width="17.5" height="94.583" style="fill:none;fill-rule:nonzero;stroke:#000;stroke-width:0.3px;"/><path d="M463.587,676.067l-100.417,0" style="fill:none;fill-rule:nonzero;stroke:#000;stroke-width:0.3px;"/><path d="M446.087,593.15c-45.833,0 -82.917,37.083 -82.917,82.917" style="fill:none;fill-rule:nonzero;stroke:#000;stroke-width:0.3px;"/><path d="M446.087,593.15l17.5,0" style="fill:none;fill-rule:nonzero;stroke:#000;stroke-width:0.3px;"/><rect x="412.754" y="820.65" width="29.583" height="2.5" style="fill:#f7f7f7;stroke:#000;stroke-width:0.3px;"/><path d="M331.504,820.65l0.417,0m0.417,0l0.417,0m0.417,0l0.833,0m0.417,0l0.833,0m0,0l0.833,0m0.417,0l0.833,0m0.417,0l0.417,0m0.417,0l0.833,0m0.417,0l0.833,0m0.417,0l0.417,0m0.417,0l0.833,0m0.417,0l0.833,0m0,0l0.833,0m0.417,0l0.833,0m0.417,0l0.417,0m0.417,0l0.833,0m0.417,0l0.833,0m0.417,0l0.417,0m0.417,0l0.833,0m0.417,0l0.833,0m0.417,0l0.417,0m0.417,0l0.833,0m0.417,0l0.833,0m0,0l0.833,0m0.417,0l0.833,0m0.417,0l0.417,0m0.417,0l0.833,0m0.417,0l0.833,0m0.417,0l0.417,0m0.417,0l0.833,0m0.417,0l0.833,0m0,0l0.833,0m0.417,0l0.833,0m0.417,0l0.833,0m0,0l0.833,0m0.417,0l0.833,0m0.417,0l0.417,0m0.417,0l0.833,0m0.417,0l0.833,0m0.417,0l0.417,0m0.417,0l0.833,0m0.417,0l0.833,0m0,0l0.833,0m0.417,0l0.833,0m0.417,0l0.417,0m0.417,0l0.833,0m0.417,0l0.833,0m0.417,0l0.417,0m0.417,0l0.833,0m0.417,0l0.833,0m0.417,0l0.417,0m0.417,0l0.833,0m0.417,0l0.833,0m0,0l0.833,0m0.417,0l0.833,0m0.417,0l0.417,0m0.417,0l0.833,0m0.417,0l0.833,0m0.417,0l0.417,0m0.417,0l0.833,0m0.417,0l0.833,0m0,0l0.833,0m0.417,0l0.833,0m0.417,0l0.417,0m0.417,0l0.833,0m0.417,0l0.833,0m0.417,0l0.417,0m0.417,0l0.833,0m0.417,0l0.833,0m0.417,0l0.417,0m0.417,0l0.833,0m0.417,0l0.833,0m0,0l0.833,0m0.417,0l0.833,0m0.417,0l0.417,0" style="fill:none;fill-rule:nonzero;stroke:#bcbcbc;stroke-width:0.3px;"/><rect x="442.337" y="820.234" width="3.75" height="3.333" style="fill:#f7f7f7;stroke:#000;stroke-width:1.48px;"/><path d="M411.921,823.15l-0.833,0m-0.417,0l-0.833,0m-0.417,0l-0.417,0m-0.417,0l-0.833,0m-0.417,0l-0.833,0m0,0l-0.833,0m-0.417,0l-0.833,0m-0.417,0l-0.417,0m-0.417,0l-0.833,0m-0.417,0l-0.833,0m-0.417,0l-0.417,0m-0.417,0l-0.833,0m-0.417,0l-0.833,0m-0.417,0l-0.417,0m-0.417,0l-0.833,0m-0.417,0l-0.833,0m0,0l-0.833,0m-0.417,0l-0.833,0m-0.417,0l-0.417,0m-0.417,0l-0.833,0m-0.417,0l-0.833,0m-0.417,0l-0.417,0m-0.417,0l-0.833,0m-0.417,0l-0.833,0m0,0l-0.833,0m-0.417,0l-0.833,0m-0.417,0l-0.417,0m-0.417,0l-0.833,0m-0.417,0l-0.833,0m-0.417,0l-0.417,0m-0.417,0l-0.833,0m-0.417,0l-0.833,0m-0.417,0l-0.417,0m-0.417,0l-0.833,0m-0.417,0l-0.833,0m0,0l-0.833,0m-0.417,0l-0.833,0m-0.417,0l-0.417,0m-0.417,0l-0.833,0m-0.417,0l-0.833,0m-0.417,0l-0.417,0m-0.417,0l-0.833,0m-0.417,0l-0.833,0m0,0l-0.833,0m-0.417,0l-0.833,0m-0.417,0l-0.833,0m0,0l-0.833,0m-0.417,0l-0.833,0m-0.417,0l-0.417,0m-0.417,0l-0.833,0m-0.417,0l-0.833,0m-0.417,0l-0.417,0m-0.417,0l-0.833,0m-0.417,0l-0.833,0m0,0l-0.833,0m-0.417,0l-0.833,0m-0.417,0l-0.417,0m-0.417,0l-0.833,0m-0.417,0l-0.833,0m-0.417,0l-0.417,0m-0.417,0l-0.833,0m-0.417,0l-0.833,0m-0.417,0l-0.417,0m-0.417,0l-0.833,0m-0.417,0l-0.833,0m0,0l-0.833,0m-0.417,0l-0.833,0m-0.417,0l-0.417,0m-0.417,0l-0.833,0m-0.417,0l-0.833,0m-0.417,0l-0.417,0m-0.417,0l-0.833,0m-0.417,0l-0.833,0m0,0l-0.833,0m-0.417,0l-0.833,0m-0.417,0l-0.417,0m-0.417,0l-0.833,0" style="fill:none;fill-rule:nonzero;stroke:#bcbcbc;stroke-width:0.3px;"/><path d="M381.504,765.234l-1.667,1.667l1.25,1.25l1.667,-1.667l-1.25,-1.25Z" style="fill:#f7f7f7;"/><path d="M382.754,766.484l-1.25,-1.25l-1.667,1.667l1.25,1.25" style="fill:none;fill-rule:nonzero;stroke:#000;stroke-width:0.3px;"/><path d="M328.171,820.65l1.667,1.667l58.75,-58.75l-1.667,-1.667l-58.75,58.75Z" style="fill:#f7f7f7;stroke:#000;stroke-width:0.3px;"/><path d="M384.421,767.734l0.833,1.25l-1.667,1.667l-1.25,-0.833l2.083,-2.083Z" style="fill:#f7f7f7;"/><path d="M384.421,767.734l0.833,1.25l-1.667,1.667l-1.25,-0.833" style="fill:none;fill-rule:nonzero;stroke:#000;stroke-width:0.3px;"/><path d="M388.587,763.567c15.833,15.833 24.583,37.083 24.167,59.583" style="fill:none;fill-rule:nonzero;stroke:#000;stroke-width:0.3px;"/><rect x="317.337" y="820.65" width="10.833" height="2.5" style="fill:#f7f7f7;stroke:#000;stroke-width:0.3px;"/><rect x="313.587" y="820.234" width="3.75" height="3.333" style="fill:#f7f7f7;stroke:#000;stroke-width:1.48px;"/></g><g id="topR"><path d="M670.254,870.65l-70.833,0l0,141.667l70.833,0l0,-141.667Z" style="fill:#ddb682;stroke:#000;stroke-width:0.77px;"/><path d="M599.421,870.65l70.833,70.833l-70.833,70.833" style="fill:none;fill-rule:nonzero;stroke:#000;stroke-width:0.3px;"/><path d="M670.254,764.4l-70.833,0l0,106.25l70.833,0l0,-106.25Z" style="fill:#ddb682;stroke:#000;stroke-width:0.77px;"/><path d="M599.421,764.4l70.833,53.333l-70.833,52.917" style="fill:none;fill-rule:nonzero;stroke:#000;stroke-width:0.3px;"/></g><g id="topL"><path d="M534.421,918.15l-70.833,0l0,94.583l70.833,0l0,-94.583Z" style="fill:#ddb682;stroke:#000;stroke-width:0.77px;"/><path d="M534.421,918.15l-70.833,47.083l70.833,47.5" style="fill:none;fill-rule:nonzero;stroke:#000;stroke-width:0.3px;"/><path d="M534.421,687.734l-70.833,0l0,135.833l70.833,0l0,-135.833Z" style="fill:#ddb682;stroke:#000;stroke-width:0.77px;"/><path d="M534.421,687.734l-70.833,67.917l70.833,67.917" style="fill:none;fill-rule:nonzero;stroke:#000;stroke-width:0.3px;"/></g><g id="anchorTop"><path d="M1244.004,126.9l-250,0" style="fill:none;fill-rule:nonzero;stroke:#f00;stroke-width:0.3px;"/><path d="M1119.004,1.484l0,250.417" style="fill:none;fill-rule:nonzero;stroke:#f00;stroke-width:0.3px;"/></g></svg>