<?xml version="1.0" encoding="UTF-8" standalone="no"?><!DOCTYPE svg PUBLIC "-//W3C//DTD SVG 1.1//EN" "http://www.w3.org/Graphics/SVG/1.1/DTD/svg11.dtd"><svg width="100%" height="100%" viewBox="0 0 1246 1063" version="1.1" xmlns="http://www.w3.org/2000/svg" xmlns:xlink="http://www.w3.org/1999/xlink" xml:space="preserve" xmlns:serif="http://www.serif.com/" style="fill-rule:evenodd;clip-rule:evenodd;stroke-miterlimit:10;"><g id="top"><path d="M14.837,1048.15l0,-921.25l1104.167,0l0,921.25l-519.583,0l0,-35.417l-135.833,0l0,35.417l-448.75,0Z" style="fill:#fff;"/><path d="M1083.587,784.4l-383.75,0l0,-202.917l118.333,0l0,-8.75l106.25,0l0,8.75l159.167,0l0,202.917Z" style="fill:#e0e0e0;fill-opacity:0.25;stroke:#a8a8a8;stroke-width:0.3px;"/><path d="M522.754,427.734l-76.667,0l0,22.5l8.75,0l0,106.25l-8.75,0l0,7.083l-395.833,0l0,-401.25l472.5,0l0,265.417Z" style="fill:#e0e0e0;fill-opacity:0.25;stroke:#a8a8a8;stroke-width:0.3px;"/><path d="M1083.587,563.567l-159.167,0l0,9.167l-106.25,0l0,-9.167l-200.833,0l0,-5.833l-9.167,0l0,-106.25l9.167,0l0,-23.75l-77.083,0l0,-265.417l543.333,0l0,401.25Z" style="fill:#e0e0e0;fill-opacity:0.25;stroke:#a8a8a8;stroke-width:0.3px;"/><path d="M446.087,581.484l0,75.417l8.75,0l0,94.583l-8.75,0l0,261.25l-395.833,0l0,-431.25l395.833,0Z" style="fill:#e0e0e0;fill-opacity:0.25;stroke:#a8a8a8;stroke-width:0.3px;"/><path d="M463.587,1012.734l2.083,0m1.667,0l3.75,0m2.083,0l3.75,0m1.667,0l3.75,0m2.083,0l3.75,0m1.667,0l3.75,0m2.083,0l3.75,0m1.667,0l3.75,0m2.083,0l3.75,0m1.667,0l3.75,0m2.083,0l3.75,0m1.667,0l3.75,0m2.083,0l3.75,0m1.667,0l3.75,0m2.083,0l3.75,0m1.667,0l3.75,0m2.083,0l3.75,0m1.667,0l3.75,0m2.083,0l3.75,0m1.667,0l3.75,0m2.083,0l3.75,0m1.667,0l3.75,0m2.083,0l3.75,0m1.667,0l3.75,0m2.083,0l2.5,0" style="fill:none;fill-rule:nonzero;stroke:#a8a8a8;stroke-width:0.3px;stroke-linecap:round;"/><path d="M670.254,805.65l-70.833,0l0,94.583l8.75,0l0,94.583l-8.75,0l0,17.917l-135.833,0l0,-261.25l-8.75,0l0,-94.583l8.75,0l0,-100.417l-8.75,0l0,-106.25l8.75,0l0,-4.583l135.833,0l0,5.833l8.75,0l0,106.25l-8.75,0l0,23.75l70.833,0l0,224.167Z" style="fill:#e0e0e0;fill-opacity:0.25;stroke:#a8a8a8;stroke-width:0.3px;"/><path d="M608.171,994.817l0,-94.583l8.75,0l0.417,-59.167l466.25,0l0,171.667l-466.667,0l0,-17.917l-8.75,0Z" style="fill:#e0e0e0;fill-opacity:0.25;stroke:#a8a8a8;stroke-width:0.3px;"/><g transform="matrix(1,0,0,1,-352.097012,311.623425)"><text x="569.258px" y="151.868px" style="font-family:'ArialMT', 'Arial', sans-serif;font-size:21.144px;fill:#2b2b2b;fill-opacity:0.99;">Pokoj</text><g transform="matrix(21.144211,0,0,21.144211,637.428952,175.49036)"></g><text x="553.988px" y="175.49px" style="font-family:'ArialMT', 'Arial', sans-serif;font-size:21.144px;fill:#2b2b2b;fill-opacity:0.99;">12.92 m²</text></g><g transform="matrix(1,0,0,1,106.80413,327.113713)"><text x="704.18px" y="156.76px" style="font-family:'ArialMT', 'Arial', sans-serif;font-size:21.144px;fill:#2b2b2b;fill-opacity:0.99;">Ložnice</text><g transform="matrix(21.144211,0,0,21.144211,782.348736,180.38203)"></g><text x="698.908px" y="180.382px" style="font-family:'ArialMT', 'Arial', sans-serif;font-size:21.144px;fill:#2b2b2b;fill-opacity:0.99;">15.03 m²</text></g><g transform="matrix(1,0,0,1,-341.964185,518.57855)"><text x="572.458px" y="217.223px" style="font-family:'ArialMT', 'Arial', sans-serif;font-size:21.144px;fill:#2b2b2b;fill-opacity:0.99;">Pokoj</text><g transform="matrix(21.144211,0,0,21.144211,640.628792,240.84461)"></g><text x="557.188px" y="240.845px" style="font-family:'ArialMT', 'Arial', sans-serif;font-size:21.144px;fill:#2b2b2b;fill-opacity:0.99;">12.29 m²</text></g><g transform="matrix(1,0,0,1,-145.080512,474.120589)"><text x="638.146px" y="203.183px" style="font-family:'ArialMT', 'Arial', sans-serif;font-size:21.144px;fill:#2b2b2b;fill-opacity:0.99;">Chodba</text><text x="628.756px" y="226.805px" style="font-family:'ArialMT', 'Arial', sans-serif;font-size:21.144px;fill:#2b2b2b;fill-opacity:0.99;">horní část</text><g transform="matrix(21.144211,0,0,21.144211,712.471852,250.427301)"></g><text x="640.79px" y="250.427px" style="font-family:'ArialMT', 'Arial', sans-serif;font-size:21.144px;fill:#2b2b2b;fill-opacity:0.99;">6.91 m²</text></g><g transform="matrix(1,0,0,1,198.851052,457.088375)"><text x="727.967px" y="197.805px" style="font-family:'ArialMT', 'Arial', sans-serif;font-size:21.144px;fill:#2b2b2b;fill-opacity:0.99;">Koupelna</text><g transform="matrix(21.144211,0,0,21.144211,808.486412,221.42666)"></g><text x="736.805px" y="221.427px" style="font-family:'ArialMT', 'Arial', sans-serif;font-size:21.144px;fill:#2b2b2b;fill-opacity:0.99;">5.66 m²</text></g><g transform="matrix(1,0,0,1,64.864318,676.109165)"><text x="685.655px" y="266.969px" style="font-family:'ArialMT', 'Arial', sans-serif;font-size:21.144px;fill:#2b2b2b;fill-opacity:0.99;">Koupelna</text><g transform="matrix(21.144211,0,0,21.144211,766.174812,290.59112)"></g><text x="694.493px" y="290.591px" style="font-family:'ArialMT', 'Arial', sans-serif;font-size:21.144px;fill:#2b2b2b;fill-opacity:0.99;">5.79 m²</text></g><rect x="688.171" y="581.484" width="11.667" height="202.917" style="fill:#ddd;"/><path d="M699.837,581.484l0,202.917" style="fill:none;fill-rule:nonzero;stroke:#2b2b2b;stroke-width:2.95px;stroke-linecap:round;"/><rect x="688.171" y="784.4" width="395.417" height="21.25" style="fill:#ddd;"/><path d="M699.837,784.4l383.75,0" style="fill:none;fill-rule:nonzero;stroke:#2b2b2b;stroke-width:2.95px;stroke-linecap:round;"/><path d="M739.837,162.317l-47.5,0l0,47.083l47.5,0l0,-47.083Z" style="fill:#ddb682;stroke:#000;stroke-width:0.77px;"/><path d="M999.421,162.317l-47.083,0l0,47.083l47.083,0l0,-47.083Z" style="fill:#ddb682;stroke:#000;stroke-width:0.77px;"/><path d="M933.587,170.234l-70.833,0l0,59.167l70.833,0l0,-59.167Z" style="fill:#69b2ff;fill-opacity:0.5;"/><path d="M739.837,410.234l0,-100.833l64.583,0l0,-75.833l147.917,0l0,176.667l-212.5,0Z" style="fill:#69b2ff;fill-opacity:0.5;"/><path d="M804.421,233.567l-64.583,75.833l0,-147.083l212.5,0l0,71.25l-147.917,0Zm58.333,-4.167l70.833,0l0,-59.167l-70.833,0l0,59.167Zm-104.583,0l70.833,0l0,-59.167l-70.833,0l0,59.167Z" style="fill:#e5fcff;fill-opacity:0.5;"/><path d="M829.004,170.234l-70.833,0l0,59.167l70.833,0l0,-59.167Z" style="fill:#69b2ff;fill-opacity:0.5;"/><path d="M739.837,309.4l64.583,-75.833l0,75.833l-64.583,0Z" style="fill:#e5fcff;fill-opacity:0.5;"/><path d="M692.337,209.4l0,-47.083l307.083,0l0,47.083l-47.083,0l0,200.833l-212.5,0l0,-200.833l-47.5,0Z" style="fill:none;fill-rule:nonzero;stroke:#000;stroke-width:0.77px;"/><path d="M758.171,229.4l70.833,0l0,-59.167l-70.833,0l0,59.167Z" style="fill:none;stroke:#000;stroke-width:0.77px;"/><rect x="862.754" y="170.234" width="70.833" height="59.167" style="fill:none;stroke:#000;stroke-width:0.77px;"/><path d="M952.337,233.567l-147.917,0l-64.583,75.833l64.583,0l0,-75.833" style="fill:none;fill-rule:nonzero;stroke:#000;stroke-width:0.77px;"/><path d="M739.837,209.4l0,-47.083" style="fill:none;fill-rule:nonzero;stroke:#000;stroke-width:0.77px;"/><path d="M952.337,209.4l0,-47.083" style="fill:none;fill-rule:nonzero;stroke:#000;stroke-width:0.77px;"/><path d="M103.171,349.817l12.083,-24.167l-2.5,-1.25c-0.833,0 -1.25,-0.833 -1.667,-1.667c0,-0.833 0,-1.667 0.417,-2.5c8.75,-14.167 27.083,-19.167 42.083,-11.667c14.583,7.5 21.667,25 15.833,40.417c-0.417,0.833 -0.833,1.667 -1.667,2.083c-0.833,0 -1.667,0 -2.5,-0.417l-2.5,-1.25l-12.083,24.167l-47.5,-23.75Z" style="fill:#cfd4a2;"/><path d="M162.754,349.4l-12.083,24.167" style="fill:none;fill-rule:nonzero;stroke:#000;stroke-width:0.77px;"/><path d="M169.421,348.984c-0.417,0.833 -0.833,1.667 -1.667,2.083c-0.833,0 -1.667,0 -2.5,-0.417" style="fill:none;fill-rule:nonzero;stroke:#000;stroke-width:0.77px;"/><path d="M115.254,325.65l-2.5,-1.25" style="fill:none;fill-rule:nonzero;stroke:#000;stroke-width:0.77px;"/><path d="M165.254,350.65l-2.5,-1.25" style="fill:none;fill-rule:nonzero;stroke:#000;stroke-width:0.77px;"/><path d="M115.254,325.65c6.667,-12.917 22.5,-18.333 35.417,-11.667c13.333,6.667 18.75,22.5 12.083,35.417" style="fill:none;fill-rule:nonzero;stroke:#000;stroke-width:0.77px;"/><path d="M111.504,320.234c8.75,-14.167 27.083,-19.167 42.083,-11.667c14.583,7.5 21.667,25 15.833,40.417" style="fill:none;fill-rule:nonzero;stroke:#000;stroke-width:0.77px;"/><path d="M103.171,349.817l12.083,-24.167" style="fill:none;fill-rule:nonzero;stroke:#000;stroke-width:0.77px;"/><path d="M150.671,373.567l-47.5,-23.75" style="fill:none;fill-rule:nonzero;stroke:#000;stroke-width:0.77px;"/><path d="M112.754,324.4c-0.833,0 -1.25,-0.833 -1.667,-1.667c0,-0.833 0,-1.667 0.417,-2.5" style="fill:none;fill-rule:nonzero;stroke:#000;stroke-width:0.77px;"/><path d="M50.254,410.234l70.833,0l0,-141.667l-70.833,0l0,141.667Z" style="fill:#ddb682;stroke:#000;stroke-width:0.77px;"/><rect x="304.004" y="581.484" width="142.083" height="70.833" style="fill:#ddb682;stroke:#000;stroke-width:0.77px;"/><path d="M446.087,652.317l-70.833,-70.833l-71.25,70.833" style="fill:none;fill-rule:nonzero;stroke:#000;stroke-width:0.3px;"/><rect x="162.337" y="581.484" width="141.667" height="70.833" style="fill:#ddb682;stroke:#000;stroke-width:0.77px;"/><path d="M304.004,652.317l-70.833,-70.833l-70.833,70.833" style="fill:none;fill-rule:nonzero;stroke:#000;stroke-width:0.3px;"/><path d="M522.754,286.067l-76.667,0l0,141.667l76.667,0l0,-141.667Z" style="fill:#ddb682;stroke:#000;stroke-width:0.77px;"/><path d="M446.087,286.067l76.667,70.833l-76.667,70.833" style="fill:none;fill-rule:nonzero;stroke:#000;stroke-width:0.3px;"/><path d="M522.754,162.317l-76.667,0l0,123.75l76.667,0l0,-123.75Z" style="fill:#ddb682;stroke:#000;stroke-width:0.77px;"/><path d="M446.087,162.317l76.667,61.667l-76.667,62.083" style="fill:none;fill-rule:nonzero;stroke:#000;stroke-width:0.3px;"/><path d="M617.337,286.067l-77.083,0l0,141.667l77.083,0l0,-141.667Z" style="fill:#ddb682;stroke:#000;stroke-width:0.77px;"/><path d="M617.337,286.067l-77.083,70.833l77.083,70.833" style="fill:none;fill-rule:nonzero;stroke:#000;stroke-width:0.3px;"/><path d="M617.337,162.317l-77.083,0l0,123.75l77.083,0l0,-123.75Z" style="fill:#ddb682;stroke:#000;stroke-width:0.77px;"/><path d="M617.337,162.317l-77.083,61.667l77.083,62.083" style="fill:none;fill-rule:nonzero;stroke:#000;stroke-width:0.3px;"/><path d="M50.254,1012.734l88.75,0l0,-75l40.833,-31.667l-129.583,0l0,106.667Zm73.333,-18.75l-61.667,0l0,-65.833l61.667,0l0,65.833Z" style="fill:#e5fffe;fill-opacity:0.5;"/><path d="M179.837,937.734l-40.833,0l0,75l159.167,0l0,-106.667l-118.333,0l0,31.667Z" style="fill:#bedcff;"/><rect x="61.921" y="928.15" width="61.667" height="65.833" style="fill:#bedcff;"/><path d="M179.837,937.734l0,-31.667l-40.833,31.667l40.833,0Z" style="fill:#e5fffe;fill-opacity:0.5;"/><path d="M298.171,906.067l-247.917,0l0,106.667l247.917,0l0,-106.667Z" style="fill:none;stroke:#000;stroke-width:0.77px;"/><path d="M139.004,1012.734l0,-75l40.833,-31.667l0,31.667l-40.833,0" style="fill:none;fill-rule:nonzero;stroke:#000;stroke-width:0.77px;"/><path d="M123.587,928.15l-61.667,0l0,65.833l61.667,0l0,-65.833Z" style="fill:none;stroke:#000;stroke-width:0.77px;"/><path d="M131.504,850.234l23.75,-12.083l1.25,2.5c0.417,0.833 0.833,1.25 1.667,1.667c0.833,0 1.667,0 2.5,-0.417c14.167,-9.167 19.167,-27.083 11.667,-42.083c-7.5,-15 -25,-21.667 -40.417,-15.833c-0.833,0.417 -1.667,0.833 -1.667,1.667c-0.417,0.833 -0.417,1.667 0,2.5l1.25,2.5l-23.75,11.667l23.75,47.917Z" style="fill:#cfd4a2;"/><path d="M131.504,790.65l-23.75,11.667" style="fill:none;fill-rule:nonzero;stroke:#000;stroke-width:0.77px;"/><path d="M131.921,783.984c-0.833,0.417 -1.667,0.833 -1.667,1.667c-0.417,0.833 -0.417,1.667 0,2.5" style="fill:none;fill-rule:nonzero;stroke:#000;stroke-width:0.77px;"/><path d="M155.254,838.15l1.25,2.5" style="fill:none;fill-rule:nonzero;stroke:#000;stroke-width:0.77px;"/><path d="M130.254,788.15l1.25,2.5" style="fill:none;fill-rule:nonzero;stroke:#000;stroke-width:0.77px;"/><path d="M155.254,838.15c12.917,-6.667 18.333,-22.5 11.667,-35.833c-6.25,-12.917 -22.5,-18.333 -35.417,-11.667" style="fill:none;fill-rule:nonzero;stroke:#000;stroke-width:0.77px;"/><path d="M160.671,841.9c14.167,-9.167 19.167,-27.083 11.667,-42.083c-7.5,-15 -25,-21.667 -40.417,-15.833" style="fill:none;fill-rule:nonzero;stroke:#000;stroke-width:0.77px;"/><path d="M131.504,850.234l23.75,-12.083" style="fill:none;fill-rule:nonzero;stroke:#000;stroke-width:0.77px;"/><path d="M107.754,802.317l23.75,47.917" style="fill:none;fill-rule:nonzero;stroke:#000;stroke-width:0.77px;"/><path d="M156.504,840.65c0.417,0.833 0.833,1.25 1.667,1.667c0.833,0 1.667,0 2.5,-0.417" style="fill:none;fill-rule:nonzero;stroke:#000;stroke-width:0.77px;"/><path d="M121.087,758.567l-70.833,0l0,147.5l70.833,0l0,-147.5Z" style="fill:#ddb682;stroke:#000;stroke-width:0.77px;"/><rect x="410.671" y="941.484" width="35.417" height="71.25" style="fill:#ddb682;stroke:#000;stroke-width:0.77px;"/><path d="M410.671,941.484l35.417,71.25" style="fill:none;fill-rule:nonzero;stroke:#000;stroke-width:0.3px;"/><rect x="410.671" y="870.65" width="35.417" height="70.833" style="fill:#ddb682;stroke:#000;stroke-width:0.77px;"/><path d="M410.671,870.65l35.417,70.833" style="fill:none;fill-rule:nonzero;stroke:#000;stroke-width:0.3px;"/><path d="M1048.587,784.4l-40.417,0l-1.25,-42.083c0.417,-11.25 10,-20.417 21.25,-20.417c11.667,0 20.833,9.167 21.25,20.417l-0.833,42.083Z" style="fill:#e0e0e0;stroke:#000;stroke-width:0.3px;"/><path d="M1028.171,726.067c-3.333,0 -7.083,0.833 -10,2.917c-5,3.75 -7.917,9.583 -7.5,15.833c0,6.25 2.917,12.083 7.917,15.417c2.917,2.083 6.25,2.917 9.583,2.917c3.333,0 6.667,-0.833 9.583,-2.917c5,-3.333 8.333,-9.167 8.333,-15.417c0,-6.25 -2.917,-12.083 -7.5,-15.833c-3.333,-2.083 -6.667,-2.917 -10.417,-2.917Z" style="fill:#b4b4b4;stroke:#000;stroke-width:0.3px;"/><path d="M1028.171,784.4l0,-2.5" style="fill:none;fill-rule:nonzero;stroke:#000;stroke-width:0.3px;"/><path d="M1018.587,760.234c0,-1.667 0,-2.917 0.417,-4.583c0.417,-1.25 0.833,-2.5 1.25,-3.75c0.833,-1.25 1.667,-2.083 2.5,-2.917c0.833,-0.417 2.083,-1.25 2.917,-1.25c0.417,-0.417 1.25,-0.417 1.667,-0.417l0.833,0" style="fill:none;fill-rule:nonzero;stroke:#000;stroke-width:0.3px;"/><path d="M1019.004,755.234c0.833,0.417 1.25,1.25 2.083,1.667c0.833,0.417 1.667,0.417 2.5,0.833c0.833,-0 1.667,0.417 2.5,0.417l2.083,-0" style="fill:none;fill-rule:nonzero;stroke:#000;stroke-width:0.3px;"/><path d="M1020.671,770.65c0,-0.69 -0.56,-1.25 -1.25,-1.25c-0.69,0 -1.25,0.56 -1.25,1.25c0,0.69 0.56,1.25 1.25,1.25c0.69,0 1.25,-0.56 1.25,-1.25Z" style="fill:none;stroke:#000;stroke-width:0.3px;"/><path d="M1038.171,760.234c-0.417,-1.667 -0.417,-2.917 -0.417,-4.583c-0.417,-1.25 -0.833,-2.5 -1.667,-3.75c-0.417,-1.25 -1.25,-2.083 -2.5,-2.917c-0.833,-0.417 -1.667,-1.25 -2.5,-1.25c-0.833,-0.417 -1.25,-0.417 -2.083,-0.417l-0.833,0" style="fill:none;fill-rule:nonzero;stroke:#000;stroke-width:0.3px;"/><path d="M1037.337,755.234c-0.417,0.417 -1.25,1.25 -2.083,1.667c-0.417,0.417 -1.667,0.417 -2.5,0.833c-0.833,-0 -1.667,0.417 -2.5,0.417l-2.083,-0" style="fill:none;fill-rule:nonzero;stroke:#000;stroke-width:0.3px;"/><path d="M1035.671,770.65c0,0.69 0.653,1.25 1.458,1.25c0.805,0 1.458,-0.56 1.458,-1.25c0,-0.69 -0.653,-1.25 -1.458,-1.25c-0.805,0 -1.458,0.56 -1.458,1.25Z" style="fill:none;stroke:#000;stroke-width:0.3px;"/><path d="M800.254,581.484l-100.417,0l0,202.917l100.417,0l0,-202.917Z" style="fill:#f7f7f7;stroke:#000;stroke-width:1.48px;"/><path d="M719.837,720.234l0,-74.583c0,-19.167 10,-28.75 30.417,-28.75c20,0 30,9.583 30,28.75l0,74.583c0,19.167 -10,28.75 -30,28.75c-20.417,0 -30.417,-9.583 -30.417,-28.75Z" style="fill:none;fill-rule:nonzero;stroke:#000;stroke-width:0.3px;"/><path d="M712.754,684.817c-2.917,0.417 -5.833,0.417 -8.75,0.417c-0.833,0.417 -1.667,0 -2.5,-0.417c-0.417,-0.417 -0.833,-1.25 -0.833,-1.667c0,-0.833 0.417,-1.25 0.833,-2.083c0.833,-0.417 1.667,-0.417 2.5,-0.417c2.917,0 5.833,0.417 8.75,0.417c1.667,0 2.5,0.833 2.5,2.083c0,1.25 -0.833,1.667 -2.5,1.667Z" style="fill:none;fill-rule:nonzero;stroke:#000;stroke-width:0.3px;"/><path d="M708.587,680.65l0,-47.083c0,-25.417 13.75,-37.917 41.667,-37.917c27.5,0 41.25,12.5 41.25,37.917l0,98.75c0,25.417 -13.75,37.917 -41.25,37.917c-27.917,0 -41.667,-12.5 -41.667,-37.917l0,-46.667" style="fill:none;fill-rule:nonzero;stroke:#000;stroke-width:0.3px;"/><path d="M751.921,680.65c1.25,0.833 1.667,2.5 0.833,4.167c-1.25,1.25 -2.917,1.667 -4.583,0.417c-1.25,-0.833 -1.667,-2.5 -0.833,-3.75c1.25,-1.667 2.917,-1.667 4.583,-0.833" style="fill:none;fill-rule:nonzero;stroke:#000;stroke-width:0.3px;"/><path d="M716.504,681.067c1.667,0 2.917,0.417 2.917,2.083c0,1.25 -1.25,2.083 -2.917,2.083c-4.167,0 -7.917,0.417 -12.083,0.417c-0.833,0 -2.083,0 -2.917,-0.833c-0.833,-0.417 -1.25,-0.833 -1.25,-1.667c0,-0.833 0.417,-1.667 1.25,-2.083c0.833,-0.417 2.083,-0.833 2.917,-0.833c4.167,0.417 7.917,0.417 12.083,0.833Z" style="fill:none;fill-rule:nonzero;stroke:#000;stroke-width:0.3px;"/><path d="M705.671,680.234l0,-48.333c0,-26.25 15,-39.167 44.583,-39.167c29.167,0 44.167,12.917 44.167,39.167l0,102.083c0,26.25 -15,39.167 -44.167,39.167c-29.583,0 -44.583,-12.917 -44.583,-39.167l0,-48.333" style="fill:none;fill-rule:nonzero;stroke:#000;stroke-width:0.3px;"/><rect x="410.671" y="799.817" width="35.417" height="70.833" style="fill:#ddb682;stroke:#000;stroke-width:0.77px;"/><path d="M410.671,799.817l35.417,70.833" style="fill:none;fill-rule:nonzero;stroke:#000;stroke-width:0.3px;"/><path d="M50.254,268.567l88.75,0l0,-75l40.833,-31.25l-129.583,0l0,106.25Zm73.333,-18.75l-61.667,0l0,-65.417l61.667,0l0,65.417Z" style="fill:#e5fffe;fill-opacity:0.5;"/><path d="M179.837,193.567l-40.833,0l0,75l159.167,0l0,-106.25l-118.333,0l0,31.25Z" style="fill:#bedcff;"/><rect x="61.921" y="184.4" width="61.667" height="65.417" style="fill:#bedcff;"/><path d="M179.837,193.567l0,-31.25l-40.833,31.25l40.833,0Z" style="fill:#e5fffe;fill-opacity:0.5;"/><path d="M298.171,162.317l-247.917,0l0,106.25l247.917,0l0,-106.25Z" style="fill:none;stroke:#000;stroke-width:0.77px;"/><path d="M139.004,268.567l0,-75l40.833,-31.25l0,31.25l-40.833,0" style="fill:none;fill-rule:nonzero;stroke:#000;stroke-width:0.77px;"/><path d="M123.587,184.4l-61.667,0l0,65.417l61.667,0l0,-65.417Z" style="fill:none;stroke:#000;stroke-width:0.77px;"/><path d="M670.254,581.484l-70.833,0l0,141.667l70.833,0l0,-141.667Z" style="fill:#ddb682;stroke:#000;stroke-width:0.77px;"/><path d="M599.421,723.15l70.833,-70.833l-70.833,-70.833" style="fill:none;fill-rule:nonzero;stroke:#000;stroke-width:0.3px;"/><path d="M670.254,723.15l-70.833,0l0,82.5l70.833,0l0,-82.5Z" style="fill:#ddb682;stroke:#000;stroke-width:0.77px;"/><path d="M599.421,805.65l70.833,-41.25l-70.833,-41.25" style="fill:none;fill-rule:nonzero;stroke:#000;stroke-width:0.3px;"/><rect x="50.254" y="581.484" width="112.083" height="70.833" style="fill:#ddb682;stroke:#000;stroke-width:0.77px;"/><path d="M162.337,652.317l-55.833,-70.833l-56.25,70.833" style="fill:none;fill-rule:nonzero;stroke:#000;stroke-width:0.3px;"/><path d="M986.504,913.567l2.083,0l0,-68.75l-2.083,0l0,68.75Z" style="fill:#f7f7f7;stroke:#000;stroke-width:0.3px;"/><path d="M986.504,995.234l0,-0.417m0,-0.417l0,-0.833m0,-0.417l0,-0.417m0,-0.417l0,-0.833m0,-0.417l0,-0.833m0,-0.417l0,-0.417m0,-0.417l0,-0.833m0,-0.417l0,-0.833m0,0l0,-0.833m0,-0.417l0,-0.833m0,-0.417l0,-0.417m0,-0.417l0,-0.833m0,-0.417l0,-0.833m0,-0.417l0,-0.417m0,-0.417l0,-0.833m0,-0.417l0,-0.833m0,0l0,-0.833m0,-0.417l0,-0.833m0,-0.417l0,-0.417m0,-0.417l0,-0.833m0,-0.417l0,-0.833m0,-0.417l0,-0.417m0,-0.417l0,-0.833m0,-0.417l0,-0.833m0,-0.417l0,-0.417m0,-0.417l0,-0.833m0,-0.417l0,-0.833m0,0l0,-0.833m0,-0.417l0,-0.833m0,-0.417l0,-0.417m0,-0.417l0,-0.833m0,-0.417l0,-0.833m0,-0.417l0,-0.417m0,-0.417l0,-0.833m0,-0.417l0,-0.833m0,0l0,-0.833m0,-0.417l0,-0.833m0,-0.417l0,-0.417m0,-0.417l0,-0.833m0,-0.417l0,-0.833m0,-0.417l0,-0.417m0,-0.417l0,-0.833m0,-0.417l0,-0.833m0,-0.417l0,-0.417m0,-0.417l0,-0.833m0,-0.417l0,-0.833m0,0l0,-0.833m0,-0.417l0,-0.833m0,-0.417l0,-0.417m0,-0.417l0,-0.833m0,-0.417l0,-0.833m0,-0.417l0,-0.417m0,-0.417l0,-0.833m0,-0.417l0,-0.833m0,0l0,-0.833m0,-0.417l0,-0.833m0,-0.417l0,-0.833m0,0l0,-0.833m0,-0.417l0,-0.833m0,-0.417l0,-0.417m0,-0.417l0,-0.833m0,-0.417l0,-0.833m0,-0.417l0,-0.417m0,-0.417l0,-0.833m0,-0.417l0,-0.833m0,0l0,-0.833m0,-0.417l0,-0.833m0,-0.417l0,-0.417m0,-0.417l0,-0.833m0,-0.417l0,-0.833m0,-0.417l0,-0.417m0,-0.417l0,-0.833m0,-0.417l0,-0.833m0,-0.417l0,-0.417m0,-0.417l0,-0.833" style="fill:none;fill-rule:nonzero;stroke:#bcbcbc;stroke-width:0.3px;"/><path d="M989.004,841.484l-3.333,0l0,3.333l3.333,0l0,-3.333Z" style="fill:#f7f7f7;stroke:#000;stroke-width:1.48px;"/><path d="M988.587,913.567l0,0.417m0,0.417l0,0.833m0,0.417l0,0.417m0,0.417l0,0.833m0,0.417l0,0.833m0,0l0,0.833m0,0.417l0,0.833m0,0.417l0,0.417m0,0.417l0,0.833m0,0.417l0,0.833m0,0.417l0,0.417m0,0.417l0,0.833m0,0.417l0,0.833m0,0l0,0.833m0,0.417l0,0.833m0,0.417l0,0.833m0,0l0,0.833m0,0.417l0,0.833m0,0.417l0,0.417m0,0.417l0,0.833m0,0.417l0,0.833m0,0.417l0,0.417m0,0.417l0,0.833m0,0.417l0,0.833m0,0l0,0.833m0,0.417l0,0.833m0,0.417l0,0.417m0,0.417l0,0.833m0,0.417l0,0.833m0,0.417l0,0.417m0,0.417l0,0.833m0,0.417l0,0.833m0,0.417l0,0.417m0,0.417l0,0.833m0,0.417l0,0.833m0,0l0,0.833m0,0.417l0,0.833m0,0.417l0,0.417m0,0.417l0,0.833m0,0.417l0,0.833m0,0.417l0,0.417m0,0.417l0,0.833m0,0.417l0,0.833m0,0l0,0.833m0,0.417l0,0.833m0,0.417l0,0.417m0,0.417l0,0.833m0,0.417l0,0.833m0,0.417l0,0.417m0,0.417l0,0.833m0,0.417l0,0.833m0,0.417l0,0.417m0,0.417l0,0.833m0,0.417l0,0.833m0,0l0,0.833m0,0.417l0,0.833m0,0.417l0,0.417m0,0.417l0,0.833m0,0.417l0,0.833m0,0.417l0,0.417m0,0.417l0,0.833m0,0.417l0,0.833m0,0l0,0.833m0,0.417l0,0.833m0,0.417l0,0.833m0,0l0,0.833m0,0.417l0,0.833m0,0.417l0,0.417m0,0.417l0,0.833m0,0.417l0,0.833m0,0.417l0,0.417m0,0.417l0,0.833m0,0.417l0,0.833m0,0l0,0.833m0,0.417l0,0.833m0,0.417l0,0.417m0,0.417l0,0.833m0,0.417l0,0.417" style="fill:none;fill-rule:nonzero;stroke:#bcbcbc;stroke-width:0.3px;"/><path d="M930.671,945.234l1.667,1.667l1.25,-1.25l-1.667,-1.667l-1.25,1.25Z" style="fill:#f7f7f7;"/><path d="M931.921,943.984l-1.25,1.25l1.667,1.667l1.25,-1.25" style="fill:none;fill-rule:nonzero;stroke:#000;stroke-width:0.3px;"/><path d="M927.754,939.4l58.75,58.75l1.25,-1.667l-58.75,-58.75l-1.25,1.667Z" style="fill:#f7f7f7;stroke:#000;stroke-width:0.3px;"/><path d="M936.504,942.734l-1.667,-1.667l-1.25,1.25l1.667,1.667l1.25,-1.25Z" style="fill:#f7f7f7;"/><path d="M933.587,942.317l1.25,-1.25l1.667,1.667l-1.25,1.25" style="fill:none;fill-rule:nonzero;stroke:#000;stroke-width:0.3px;"/><path d="M929.004,937.734c15.833,-15.417 37.5,-24.167 59.583,-24.167" style="fill:none;fill-rule:nonzero;stroke:#000;stroke-width:0.3px;"/><path d="M986.504,1008.984l2.083,0l0,-10.833l-2.083,0l0,10.833Z" style="fill:#f7f7f7;stroke:#000;stroke-width:0.3px;"/><path d="M989.004,1008.984l-3.333,0l0,3.75l3.333,0l0,-3.75Z" style="fill:#f7f7f7;stroke:#000;stroke-width:1.48px;"/><path d="M767.754,841.067l-40.417,0l-0.833,42.5c0.417,11.25 9.583,20.417 21.25,20c11.25,0.417 20.833,-8.75 21.25,-20l-1.25,-42.5Z" style="fill:#e0e0e0;stroke:#000;stroke-width:0.3px;"/><path d="M747.754,899.817c-3.75,0 -7.083,-1.25 -10,-3.333c-5,-3.75 -7.917,-9.583 -7.917,-15.417c0.417,-6.25 3.333,-12.083 8.333,-15.417c2.917,-2.083 6.25,-2.917 9.583,-2.917c3.333,0 6.667,0.833 9.583,2.917c5,3.333 7.917,9.167 7.917,15.417c0.417,5.833 -2.5,11.667 -7.5,15.417c-2.917,2.083 -6.25,3.333 -10,3.333Z" style="fill:#b4b4b4;stroke:#000;stroke-width:0.3px;"/><path d="M747.754,841.067l0,2.917" style="fill:none;fill-rule:nonzero;stroke:#000;stroke-width:0.3px;"/><path d="M737.754,865.65c0.417,1.25 0.417,2.917 0.833,4.167c0,1.667 0.417,2.917 1.25,4.167c0.417,0.833 1.667,2.083 2.5,2.5c0.833,0.833 1.667,1.25 2.5,1.667c0.833,0 1.667,0.417 2.083,0.417l0.833,0" style="fill:none;fill-rule:nonzero;stroke:#000;stroke-width:0.3px;"/><path d="M738.587,870.65c0.417,-0.833 1.25,-1.25 2.083,-1.667c0.833,-0.417 1.667,-0.833 2.5,-0.833c0.833,-0.417 1.667,-0.417 2.5,-0.417l2.083,0" style="fill:none;fill-rule:nonzero;stroke:#000;stroke-width:0.3px;"/><path d="M740.254,855.025c0,-0.805 -0.653,-1.458 -1.458,-1.458c-0.805,0 -1.458,0.653 -1.458,1.458c0,0.805 0.653,1.458 1.458,1.458c0.805,0 1.458,-0.653 1.458,-1.458Z" style="fill:none;stroke:#000;stroke-width:0.3px;"/><path d="M757.337,865.65c0,1.25 0,2.917 -0.417,4.167c-0.417,1.667 -0.833,2.917 -1.25,4.167c-0.833,0.833 -1.667,2.083 -2.5,2.5c-0.833,0.833 -1.667,1.25 -2.5,1.667c-0.833,0 -1.667,0.417 -2.083,0.417l-0.833,0" style="fill:none;fill-rule:nonzero;stroke:#000;stroke-width:0.3px;"/><path d="M756.921,870.65c-0.833,-0.833 -1.25,-1.25 -2.083,-1.667c-0.833,-0.417 -1.667,-0.833 -2.5,-0.833c-0.833,-0.417 -1.667,-0.417 -2.5,-0.417l-2.083,0" style="fill:none;fill-rule:nonzero;stroke:#000;stroke-width:0.3px;"/><path d="M755.254,855.025c0,0.805 0.56,1.458 1.25,1.458c0.69,0 1.25,-0.653 1.25,-1.458c0,-0.805 -0.56,-1.458 -1.25,-1.458c-0.69,0 -1.25,0.653 -1.25,1.458Z" style="fill:none;stroke:#000;stroke-width:0.3px;"/><path d="M860.671,857.317l-25.833,0c-3.333,0 -5,1.667 -5,5l0,24.583c0,3.333 1.667,5 5,5l54.583,0c3.333,0 5,-1.667 5,-5l0,-24.583c0,-3.333 -1.667,-5 -5,-5l-19.583,0" style="fill:none;fill-rule:nonzero;stroke:#000;stroke-width:0.3px;"/><path d="M816.921,898.984l164.583,0c1.25,0 1.667,-0.417 1.667,-1.667l0,-55.833c0,0 0,-0.417 -0.417,-0.417l-166.667,0l-0.417,0.417l0,55.833c0,1.25 0.417,1.667 1.25,1.667Z" style="fill:#f7f7f7;stroke:#000;stroke-width:1.48px;"/><path d="M942.337,852.317l-0.417,0" style="fill:none;fill-rule:nonzero;stroke:#000;stroke-width:0.3px;"/><path d="M935.671,857.317l-26.25,0c-2.917,0 -4.583,1.667 -4.583,5l0,24.583c0,3.333 1.667,5 4.583,5l55,0c2.917,0 4.583,-1.667 4.583,-5l0,-24.583c0,-3.333 -1.667,-5 -4.583,-5l-20,0" style="fill:none;fill-rule:nonzero;stroke:#000;stroke-width:0.3px;"/><path d="M869.837,852.734l0.833,0l0,-4.167c0,-0.417 -0.417,-0.417 -0.417,-0.417l-2.5,0c-0.417,0 -0.417,0 -0.417,0.417l0,4.167l1.667,0" style="fill:none;fill-rule:nonzero;stroke:#000;stroke-width:0.3px;"/><path d="M944.421,852.734l0.833,0l0,-4.583l-2.917,0l0,4.583l1.25,0" style="fill:none;fill-rule:nonzero;stroke:#000;stroke-width:0.3px;"/><path d="M863.171,850.65l0,25c0,0.833 -0.417,1.25 -1.25,1.25c-0.417,0 -0.833,-0.417 -0.833,-1.25c0,-8.333 -0.417,-16.667 -0.417,-25c0,-0.417 0.417,-0.833 0.417,-0.833c0.417,-0.417 0.417,-0.417 0.833,-0.417c0.417,0 0.833,0 0.833,0.417c0.417,0 0.417,0.417 0.417,0.833Z" style="fill:none;fill-rule:nonzero;stroke:#000;stroke-width:0.3px;"/><path d="M938.171,850.65l0,25c0,0.833 -0.417,1.25 -1.25,1.25c-0.833,0 -1.25,-0.417 -1.25,-1.25l0,-25c0,-0.417 0,-0.833 0.417,-0.833c0,-0.417 0.417,-0.417 0.833,-0.417c0.417,0 0.417,0 0.833,0.417c0,0 0.417,0.417 0.417,0.833Z" style="fill:none;fill-rule:nonzero;stroke:#000;stroke-width:0.3px;"/><path d="M942.337,848.567l-0.417,0" style="fill:none;fill-rule:nonzero;stroke:#000;stroke-width:0.3px;"/><path d="M863.171,868.984c1.25,-0.417 1.667,-1.667 1.667,-2.5c0,-1.25 -0.417,-2.083 -1.667,-2.917" style="fill:none;fill-rule:nonzero;stroke:#000;stroke-width:0.3px;"/><path d="M938.171,868.984c0.833,-0.417 1.667,-1.667 1.667,-2.5c0,-1.25 -0.833,-2.083 -1.667,-2.917" style="fill:none;fill-rule:nonzero;stroke:#000;stroke-width:0.3px;"/><path d="M863.171,853.567c1.25,-0.417 2.083,-2.083 1.667,-3.333c-0.417,-1.667 -1.25,-2.5 -2.917,-2.5c-1.25,-0 -2.5,0.833 -2.917,2.083c0,1.667 0.417,2.917 1.667,3.75" style="fill:none;fill-rule:nonzero;stroke:#000;stroke-width:0.3px;"/><path d="M938.171,853.567c1.25,-0.417 1.667,-2.083 1.667,-3.333c-0.417,-1.667 -1.667,-2.5 -2.917,-2.5c-1.667,0 -2.5,0.833 -2.917,2.083c-0.417,1.667 0.417,2.917 1.667,3.75" style="fill:none;fill-rule:nonzero;stroke:#000;stroke-width:0.3px;"/><path d="M860.671,863.984c-0.833,0.417 -1.25,1.25 -1.25,2.5c0,0.833 0.417,2.083 1.667,2.5" style="fill:none;fill-rule:nonzero;stroke:#000;stroke-width:0.3px;"/><path d="M935.671,863.984c-0.833,0.417 -1.25,1.25 -1.25,2.5c0,0.833 0.417,2.083 1.25,2.5" style="fill:none;fill-rule:nonzero;stroke:#000;stroke-width:0.3px;"/><path d="M863.587,848.15l3.75,0l0,5l-3.333,0" style="fill:none;fill-rule:nonzero;stroke:#000;stroke-width:0.3px;"/><path d="M938.587,848.15l3.333,0l0,5l-2.917,0" style="fill:none;fill-rule:nonzero;stroke:#000;stroke-width:0.3px;"/><path d="M869.004,851.9l0,7.083c0,0 0,0.417 0.417,0.417l0.417,-0.417l0,-7.083" style="fill:none;fill-rule:nonzero;stroke:#000;stroke-width:0.3px;"/><path d="M943.587,851.9l0,7.083l0.417,0.417l0.417,0l0,-7.5" style="fill:none;fill-rule:nonzero;stroke:#000;stroke-width:0.3px;"/><path d="M869.004,857.317l-5.833,0" style="fill:none;fill-rule:nonzero;stroke:#000;stroke-width:0.3px;"/><path d="M943.587,857.317l-5.417,0" style="fill:none;fill-rule:nonzero;stroke:#000;stroke-width:0.3px;"/><path d="M860.671,857.317l-25.833,0c-3.333,0 -5,1.667 -5,5l0,24.583c0,3.333 1.667,5 5,5l54.583,0c3.333,0 5,-1.667 5,-5l0,-24.583c0,-3.333 -1.667,-5 -5,-5l-19.583,0" style="fill:none;fill-rule:nonzero;stroke:#000;stroke-width:0.3px;"/><rect x="617.337" y="823.567" width="466.25" height="17.5" style="fill:#ddd;"/><path d="M1083.587,841.067l-466.25,0" style="fill:none;fill-rule:nonzero;stroke:#2b2b2b;stroke-width:2.95px;stroke-linecap:round;"/><path d="M426.087,563.567l17.5,17.917m-38.333,-17.917l17.5,17.917m-38.333,-17.917l17.5,17.917m-38.333,-17.917l17.5,17.917m-38.333,-17.917l17.5,17.917m-38.75,-17.917l17.917,17.917m-38.75,-17.917l17.917,17.917m-38.75,-17.917l17.917,17.917m-38.75,-17.917l17.917,17.917m-38.75,-17.917l17.5,17.917m-38.333,-17.917l17.5,17.917m-38.333,-17.917l17.5,17.917m-38.333,-17.917l17.5,17.917m-38.333,-17.917l17.5,17.917m-38.75,-17.917l17.917,17.917m-38.75,-17.917l17.917,17.917m-38.75,-17.917l17.917,17.917m-38.75,-17.917l17.917,17.917m-38.75,-17.917l17.917,17.917" style="fill:none;fill-rule:nonzero;stroke:#000;stroke-opacity:0.31;stroke-width:1.48px;"/><path d="M446.087,581.484l-395.833,0m0,-17.917l395.833,0" style="fill:none;fill-rule:nonzero;stroke:#2b2b2b;stroke-width:2.95px;stroke-linecap:round;"/><path d="M670.254,805.65l17.917,-17.5m-17.917,-3.333l17.917,-17.5m-17.917,-3.333l17.917,-17.5m-17.917,-3.333l17.917,-17.917m-17.917,-2.917l17.917,-17.917m-17.917,-2.917l17.917,-17.917m-17.917,-2.917l17.917,-17.917m-17.917,-2.917l17.917,-17.917m-17.917,-2.917l17.917,-17.917m-17.917,-3.333l17.917,-17.5m-17.917,-3.333l15.833,-15.417" style="fill:none;fill-rule:nonzero;stroke:#000;stroke-opacity:0.31;stroke-width:1.48px;"/><path d="M670.254,805.65l0,-224.167" style="fill:none;fill-rule:nonzero;stroke:#2b2b2b;stroke-width:2.95px;stroke-linecap:round;"/><path d="M609.837,445.65l7.5,-7.5m-28.333,7.5l17.5,-17.917m-38.333,17.917l17.5,-17.917m-38.333,17.917l17.5,-17.917m-38.75,17.917l17.917,-17.917m-38.75,17.917l17.917,-17.917m-38.75,17.917l17.917,-17.917m-38.75,17.917l17.917,-17.917" style="fill:none;fill-rule:nonzero;stroke:#000;stroke-opacity:0.31;stroke-width:1.48px;"/><path d="M463.587,427.734l59.167,0m17.5,0l77.083,0l0,17.917m-17.917,0l-135.833,0" style="fill:none;fill-rule:nonzero;stroke:#2b2b2b;stroke-width:2.95px;stroke-linecap:round;"/><path d="M446.087,1012.734l17.5,-17.917m-17.5,-3.333l17.5,-17.5m-17.5,-3.333l17.5,-17.5m-17.5,-3.333l17.5,-17.5m-17.5,-3.333l17.5,-17.5m-17.5,-3.333l17.5,-17.917m-17.5,-2.917l17.5,-17.917m-17.5,-2.917l17.5,-17.917m-17.5,-2.917l17.5,-17.917m-17.5,-2.917l17.5,-17.917m-17.5,-3.333l17.5,-17.5m-17.5,-3.333l17.5,-17.5m-17.5,-3.333l10.417,-10.417m-10,-94.583l17.083,-17.083m-17.5,-2.917l17.5,-17.917m-17.5,-3.333l17.5,-17.5m-17.5,-3.333l17.5,-17.5m-17.5,-3.333l17.5,-17.5m-17.5,-107.5l17.5,-17.917" style="fill:none;fill-rule:nonzero;stroke:#000;stroke-opacity:0.31;stroke-width:1.48px;"/><path d="M446.087,1012.734l0,-261.25l17.5,0l0,261.25m0,-567.083l0,4.583l-17.5,0l0,-22.5l17.5,0m-17.5,135.833l0,-7.083l17.5,0l0,100.417l-17.5,0l0,-75.417" style="fill:none;fill-rule:nonzero;stroke:#2b2b2b;stroke-width:2.95px;stroke-linecap:round;"/><path d="M1076.504,823.567l7.083,-7.083m-27.917,7.083l17.5,-17.917m-38.333,17.917l17.5,-17.917m-38.333,17.917l17.5,-17.917m-38.333,17.917l17.5,-17.917m-38.75,17.917l17.917,-17.917m-38.75,17.917l17.917,-17.917m-38.75,17.917l17.917,-17.917m-38.75,17.917l17.917,-17.917m-38.75,17.917l17.917,-17.917m-38.75,17.917l17.5,-17.917m-38.333,17.917l17.5,-17.917m-38.333,17.917l17.5,-17.917m-38.333,17.917l17.5,-17.917m-38.75,17.917l17.917,-17.917m-38.75,17.917l17.917,-17.917m-38.75,17.917l17.917,-17.917m-38.75,17.917l17.917,-17.917m-38.75,17.917l17.917,-17.917m-38.75,17.917l17.5,-17.917m-38.333,17.917l17.5,-17.917m-38.333,17.917l17.5,-17.917m-38.333,17.917l17.5,-17.917" style="fill:none;fill-rule:nonzero;stroke:#000;stroke-opacity:0.31;stroke-width:1.48px;"/><path d="M617.337,805.65l52.917,0" style="fill:none;fill-rule:nonzero;stroke:#2b2b2b;stroke-width:2.95px;stroke-linecap:round;"/><path d="M522.754,427.734l17.5,-17.5m-17.5,-3.333l17.5,-17.5m-17.5,-3.333l17.5,-17.5m-17.5,-3.333l17.5,-17.917m-17.5,-2.917l17.5,-17.917m-17.5,-2.917l17.5,-17.917m-17.5,-2.917l17.5,-17.917m-17.5,-2.917l17.5,-17.917m-17.5,-3.333l17.5,-17.5m-17.5,-3.333l17.5,-17.5m-17.5,-3.333l17.5,-17.5m-17.5,-3.333l17.5,-17.5m-17.5,-3.333l15,-15" style="fill:none;fill-rule:nonzero;stroke:#000;stroke-opacity:0.31;stroke-width:1.48px;"/><path d="M540.254,162.317l0,265.417m-17.5,0l0,-265.417" style="fill:none;fill-rule:nonzero;stroke:#2b2b2b;stroke-width:2.95px;stroke-linecap:round;"/><path d="M599.421,563.567l5.833,-5.833m2.083,-106.25l5.833,-5.833" style="fill:none;fill-rule:nonzero;stroke:#000;stroke-opacity:0.31;stroke-width:1.48px;"/><path d="M617.337,557.734l0,5.833m-17.917,0l0,-5.833l17.917,0m-9.167,-106.25l-8.75,0l0,-5.833m17.917,0l0,5.833l-9.167,0" style="fill:none;fill-rule:nonzero;stroke:#2b2b2b;stroke-width:2.95px;stroke-linecap:round;"/><path d="M1079.837,581.484l3.75,-4.167m-24.583,4.167l17.5,-17.917m-38.333,17.917l17.5,-17.917m-38.75,17.917l17.917,-17.917m-38.75,17.917l17.917,-17.917m-38.75,17.917l17.917,-17.917m-38.75,17.917l17.917,-17.917m-38.75,17.917l17.5,-17.917m-26.667,6.25l5.833,-6.25m-122.083,17.917l10,-10m-30.833,10l17.917,-17.917m-38.75,17.917l17.917,-17.917m-38.75,17.917l17.5,-17.917m-38.333,17.917l17.5,-17.917m-38.333,17.917l17.5,-17.917m-38.333,17.917l17.5,-17.917m-38.75,17.917l17.917,-17.917m-38.75,17.917l17.917,-17.917m-38.75,17.917l17.917,-17.917m-38.75,17.917l17.917,-17.917" style="fill:none;fill-rule:nonzero;stroke:#000;stroke-opacity:0.31;stroke-width:1.48px;"/><path d="M1083.587,581.484l-159.167,0l0,-17.917l159.167,0m-484.167,17.917l0,-17.917m17.917,0l200.833,0l0,17.917l-118.333,0m-29.583,0l-70.833,0" style="fill:none;fill-rule:nonzero;stroke:#2b2b2b;stroke-width:2.95px;stroke-linecap:round;"/><path d="M599.421,1012.734l17.5,-17.917m-9.583,-94.583l10,-10m-17.917,-2.917l17.917,-17.917m-17.917,-3.333l17.917,-17.5m-17.917,-3.333l17.917,-17.5m-17.917,-3.333l17.917,-17.5" style="fill:none;fill-rule:nonzero;stroke:#000;stroke-opacity:0.31;stroke-width:1.48px;"/><path d="M599.421,994.817l17.5,0l0,17.917m-17.5,0l0,-17.917m17.917,-153.75l-0.417,59.167l-17.5,0l0,-94.583l17.917,0" style="fill:none;fill-rule:nonzero;stroke:#2b2b2b;stroke-width:2.95px;stroke-linecap:round;"/><rect x="50.254" y="1012.734" width="413.333" height="35.417" style="fill:#fff;fill-opacity:0.1;"/><path d="M446.921,1048.15l16.667,-16.667m-37.5,16.667l35.417,-35.417m-56.25,35.417l35.417,-35.417m-56.25,35.417l35.417,-35.417m-56.25,35.417l35.417,-35.417m-56.25,35.417l35.417,-35.417m-56.667,35.417l35.417,-35.417m-56.25,35.417l35.417,-35.417m-56.25,35.417l35.417,-35.417m-56.25,35.417l35.417,-35.417m-56.25,35.417l35.417,-35.417m-56.25,35.417l35.417,-35.417m-56.25,35.417l35.417,-35.417m-56.25,35.417l35.417,-35.417m-56.25,35.417l35.417,-35.417m-56.667,35.417l35.417,-35.417m-56.25,35.417l35.417,-35.417m-56.25,35.417l35.417,-35.417m-56.25,35.417l35.417,-35.417m-56.25,35.417l35.417,-35.417m-35.417,14.167l14.583,-14.167m398.75,10l-10.417,-10m10.417,30.833l-31.25,-30.833m14.583,35.417l-35.417,-35.417m14.583,35.417l-35.417,-35.417m14.583,35.417l-35.417,-35.417m14.583,35.417l-35.417,-35.417m14.583,35.417l-35.417,-35.417m14.583,35.417l-35.833,-35.417m14.583,35.417l-35.417,-35.417m14.583,35.417l-35.417,-35.417m14.583,35.417l-35.417,-35.417m14.583,35.417l-35.417,-35.417m14.583,35.417l-35.417,-35.417m14.583,35.417l-35.417,-35.417m14.583,35.417l-35.417,-35.417m14.583,35.417l-35.417,-35.417m14.583,35.417l-35.833,-35.417m14.583,35.417l-35.417,-35.417m14.583,35.417l-35.417,-35.417m14.583,35.417l-35.417,-35.417m14.583,35.417l-20.833,-21.25" style="fill:none;fill-rule:nonzero;stroke:#000;stroke-opacity:0.31;stroke-width:1.48px;"/><path d="M463.587,1048.15l-413.333,0m0,-35.417l395.833,0m17.5,0l0,35.417" style="fill:none;fill-rule:nonzero;stroke:#2b2b2b;stroke-width:2.95px;stroke-linecap:round;"/><rect x="14.837" y="162.317" width="35.417" height="885.833" style="fill:#fff;fill-opacity:0.1;"/><path d="M35.671,1048.15l14.583,-14.583m-35.417,14.583l35.417,-35.417m-35.417,14.167l35.417,-35.417m-35.417,14.583l35.417,-35.417m-35.417,14.583l35.417,-35.417m-35.417,14.583l35.417,-35.417m-35.417,14.583l35.417,-35.417m-35.417,14.583l35.417,-35.417m-35.417,14.583l35.417,-35.417m-35.417,14.583l35.417,-35.417m-35.417,14.583l35.417,-35.417m-35.417,14.167l35.417,-35.417m-35.417,14.583l35.417,-35.417m-35.417,14.583l35.417,-35.417m-35.417,14.583l35.417,-35.417m-35.417,14.583l35.417,-35.417m-35.417,14.583l35.417,-35.417m-35.417,14.583l35.417,-35.417m-35.417,14.583l35.417,-35.417m-35.417,14.583l35.417,-35.417m-35.417,14.167l35.417,-35.417m-35.417,14.583l35.417,-35.417m-35.417,14.583l35.417,-35.417m-35.417,14.583l35.417,-35.417m-35.417,14.583l35.417,-35.417m-35.417,14.583l35.417,-35.417m-35.417,14.583l35.417,-35.417m-35.417,14.583l35.417,-35.417m-35.417,14.583l35.417,-35.417m-35.417,14.167l35.417,-35.417m-35.417,14.583l35.417,-35.417m-35.417,14.583l35.417,-35.417m-35.417,14.583l35.417,-35.417m-35.417,14.583l35.417,-35.417m-35.417,14.583l35.417,-35.417m-35.417,14.583l35.417,-35.417m-35.417,14.583l35.417,-35.417m-35.417,14.583l35.417,-35.417m-35.417,14.167l35.417,-35.417m-35.417,14.583l35.417,-35.417m-35.417,14.583l35.417,-35.417m-35.417,14.583l35.417,-35.417m-35.417,14.583l29.583,-29.583m-29.583,8.75l8.75,-8.75m26.667,2.5l-2.5,-2.5m2.5,23.333l-23.333,-23.333m23.333,44.167l-35.417,-35.417m35.417,56.25l-35.417,-35.417m35.417,56.25l-35.417,-35.417m35.417,56.25l-35.417,-35.417m35.417,56.25l-35.417,-35.417m35.417,56.667l-35.417,-35.833m35.417,56.667l-35.417,-35.417m35.417,56.25l-35.417,-35.417m35.417,56.25l-35.417,-35.417m35.417,56.25l-35.417,-35.417m35.417,56.25l-35.417,-35.417m35.417,56.25l-35.417,-35.417m35.417,56.25l-35.417,-35.417m35.417,56.25l-35.417,-35.417m35.417,56.667l-35.417,-35.833m35.417,56.667l-35.417,-35.417m35.417,56.25l-35.417,-35.417m35.417,56.25l-35.417,-35.417m35.417,56.25l-35.417,-35.417m35.417,56.25l-35.417,-35.417m35.417,56.25l-35.417,-35.417m35.417,56.25l-35.417,-35.417m35.417,56.25l-35.417,-35.417m35.417,56.25l-35.417,-35.417m35.417,56.667l-35.417,-35.417m35.417,56.25l-35.417,-35.417m35.417,56.25l-35.417,-35.417m35.417,56.25l-35.417,-35.417m35.417,56.25l-35.417,-35.417m35.417,56.25l-35.417,-35.417m35.417,56.25l-35.417,-35.417m35.417,56.25l-35.417,-35.417m35.417,56.25l-35.417,-35.417m35.417,56.667l-35.417,-35.417m35.417,56.25l-35.417,-35.417m35.417,56.25l-35.417,-35.417m35.417,56.25l-35.417,-35.417m35.417,56.25l-35.417,-35.417m35.417,56.25l-35.417,-35.417m35.417,56.25l-35.417,-35.417m35.417,56.25l-35.417,-35.417m20.833,42.083l-20.833,-21.25" style="fill:none;fill-rule:nonzero;stroke:#000;stroke-opacity:0.31;stroke-width:1.48px;"/><path d="M50.254,1048.15l-35.417,0l0,-885.833m35.417,0l0,401.25m0,17.917l0,431.25" style="fill:none;fill-rule:nonzero;stroke:#2b2b2b;stroke-width:2.95px;stroke-linecap:round;"/><rect x="599.421" y="1012.734" width="484.167" height="35.417" style="fill:#fff;fill-opacity:0.1;"/><path d="M1079.421,1048.15l4.167,-4.583m-25,4.583l25,-25.417m-45.833,25.417l35.417,-35.417m-56.25,35.417l35.417,-35.417m-56.25,35.417l35.417,-35.417m-56.25,35.417l35.417,-35.417m-56.25,35.417l35.417,-35.417m-56.667,35.417l35.833,-35.417m-56.667,35.417l35.417,-35.417m-56.25,35.417l35.417,-35.417m-56.25,35.417l35.417,-35.417m-56.25,35.417l35.417,-35.417m-56.25,35.417l35.417,-35.417m-56.25,35.417l35.417,-35.417m-56.25,35.417l35.417,-35.417m-56.25,35.417l35.417,-35.417m-56.667,35.417l35.833,-35.417m-56.667,35.417l35.417,-35.417m-56.25,35.417l35.417,-35.417m-56.25,35.417l35.417,-35.417m-56.25,35.417l35.417,-35.417m-56.25,35.417l35.417,-35.417m-56.25,35.417l35.417,-35.417m-56.25,35.417l35.417,-35.417m-35.417,14.167l14.583,-14.167m469.583,18.333l-18.75,-18.333m14.583,35.417l-35.417,-35.417m14.583,35.417l-35.417,-35.417m14.583,35.417l-35.417,-35.417m14.583,35.417l-35.417,-35.417m14.583,35.417l-35.417,-35.417m14.583,35.417l-35.417,-35.417m14.583,35.417l-35.417,-35.417m14.167,35.417l-35.417,-35.417m14.583,35.417l-35.417,-35.417m14.583,35.417l-35.417,-35.417m14.583,35.417l-35.417,-35.417m14.583,35.417l-35.417,-35.417m14.583,35.417l-35.417,-35.417m14.583,35.417l-35.417,-35.417m14.583,35.417l-35.417,-35.417m14.583,35.417l-35.417,-35.417m14.167,35.417l-35.417,-35.417m14.583,35.417l-35.417,-35.417m14.583,35.417l-35.417,-35.417m14.583,35.417l-35.417,-35.417m14.583,35.417l-35.417,-35.417m14.583,35.417l-35.417,-35.417m14.583,35.417l-20.833,-21.25" style="fill:none;fill-rule:nonzero;stroke:#000;stroke-opacity:0.31;stroke-width:1.48px;"/><path d="M1083.587,1048.15l-484.167,0l0,-35.417m17.5,0l466.667,0" style="fill:none;fill-rule:nonzero;stroke:#2b2b2b;stroke-width:2.95px;stroke-linecap:round;"/><rect x="1083.587" y="162.317" width="35.417" height="885.833" style="fill:#fff;fill-opacity:0.1;"/><path d="M1104.421,1048.15l14.583,-14.583m-35.417,14.583l35.417,-35.833m-35.417,14.583l35.417,-35.417m-35.417,14.583l35.417,-35.417m-35.417,14.583l35.417,-35.417m-35.417,14.583l35.417,-35.417m-35.417,14.583l35.417,-35.417m-35.417,14.583l35.417,-35.417m-35.417,14.583l35.417,-35.417m-35.417,14.583l35.417,-35.417m-35.417,14.583l35.417,-35.833m-35.417,14.583l35.417,-35.417m-35.417,14.583l35.417,-35.417m-35.417,14.583l35.417,-35.417m-35.417,14.583l35.417,-35.417m-35.417,14.583l35.417,-35.417m-35.417,14.583l35.417,-35.417m-35.417,14.583l35.417,-35.417m-35.417,14.583l35.417,-35.417m-35.417,14.583l35.417,-35.833m-35.417,14.583l35.417,-35.417m-35.417,14.583l35.417,-35.417m-35.417,14.583l35.417,-35.417m-35.417,14.583l35.417,-35.417m-35.417,14.583l35.417,-35.417m-35.417,14.583l35.417,-35.417m-35.417,14.583l35.417,-35.417m-35.417,14.583l35.417,-35.417m-35.417,14.583l35.417,-35.417m-35.417,14.167l35.417,-35.417m-35.417,14.583l35.417,-35.417m-35.417,14.583l35.417,-35.417m-35.417,14.583l35.417,-35.417m-35.417,14.583l35.417,-35.417m-35.417,14.583l35.417,-35.417m-35.417,14.583l35.417,-35.417m-35.417,14.583l35.417,-35.417m-35.417,14.583l35.417,-35.417m-35.417,14.167l35.417,-35.417m-35.417,14.583l35.417,-35.417m-35.417,14.583l35.417,-35.417m-35.417,14.583l35.417,-35.417m-35.417,14.583l30,-29.583m-30,8.75l9.167,-8.75m26.25,2.5l-2.5,-2.5m2.5,23.333l-23.333,-23.333m23.333,44.167l-35.417,-35.417m35.417,56.25l-35.417,-35.417m35.417,56.25l-35.417,-35.417m35.417,56.25l-35.417,-35.417m35.417,56.25l-35.417,-35.417m35.417,56.667l-35.417,-35.417m35.417,56.25l-35.417,-35.417m35.417,56.25l-35.417,-35.417m35.417,56.25l-35.417,-35.417m35.417,56.25l-35.417,-35.417m35.417,56.25l-35.417,-35.417m35.417,56.25l-35.417,-35.417m35.417,56.25l-35.417,-35.417m35.417,56.25l-35.417,-35.417m35.417,56.667l-35.417,-35.417m35.417,56.25l-35.417,-35.417m35.417,56.25l-35.417,-35.417m35.417,56.25l-35.417,-35.417m35.417,56.25l-35.417,-35.417m35.417,56.25l-35.417,-35.417m35.417,56.25l-35.417,-35.417m35.417,56.25l-35.417,-35.417m35.417,56.25l-35.417,-35.417m35.417,56.667l-35.417,-35.417m35.417,56.25l-35.417,-35.417m35.417,56.25l-35.417,-35.417m35.417,56.25l-35.417,-35.417m35.417,56.25l-35.417,-35.417m35.417,56.25l-35.417,-35.417m35.417,56.25l-35.417,-35.417m35.417,56.25l-35.417,-35.417m35.417,56.25l-35.417,-35.417m35.417,56.667l-35.417,-35.833m35.417,56.667l-35.417,-35.417m35.417,56.25l-35.417,-35.417m35.417,56.25l-35.417,-35.417m35.417,56.25l-35.417,-35.417m35.417,56.25l-35.417,-35.417m35.417,56.25l-35.417,-35.417m35.417,56.25l-35.417,-35.417m35.417,56.25l-35.417,-35.417m20.833,42.083l-20.833,-21.25" style="fill:none;fill-rule:nonzero;stroke:#000;stroke-opacity:0.31;stroke-width:1.48px;"/><path d="M1083.587,1012.734l0,-171.667m0,-56.667l0,-202.917m0,-17.917l0,-401.25m35.417,0l0,885.833l-35.417,0" style="fill:none;fill-rule:nonzero;stroke:#2b2b2b;stroke-width:2.95px;stroke-linecap:round;"/><rect x="14.837" y="126.9" width="1104.167" height="35.417" style="fill:#fff;fill-opacity:0.1;"/><path d="M1100.671,162.317l18.333,-18.75m-39.167,18.75l35.417,-35.417m-56.667,35.417l35.417,-35.417m-56.25,35.417l35.417,-35.417m-56.25,35.417l35.417,-35.417m-56.25,35.417l35.417,-35.417m-56.25,35.417l35.417,-35.417m-56.25,35.417l35.417,-35.417m-56.25,35.417l35.417,-35.417m-56.25,35.417l35.417,-35.417m-56.25,35.417l35.417,-35.417m-56.667,35.417l35.417,-35.417m-56.25,35.417l35.417,-35.417m-56.25,35.417l35.417,-35.417m-56.25,35.417l35.417,-35.417m-56.25,35.417l35.417,-35.417m-56.25,35.417l35.417,-35.417m-56.25,35.417l35.417,-35.417m-56.25,35.417l35.417,-35.417m-56.25,35.417l35.417,-35.417m-56.667,35.417l35.833,-35.417m-56.667,35.417l35.417,-35.417m-56.25,35.417l35.417,-35.417m-56.25,35.417l35.417,-35.417m-56.25,35.417l35.417,-35.417m-56.25,35.417l35.417,-35.417m-56.25,35.417l35.417,-35.417m-56.25,35.417l35.417,-35.417m-56.25,35.417l35.417,-35.417m-56.667,35.417l35.833,-35.417m-56.667,35.417l35.417,-35.417m-56.25,35.417l35.417,-35.417m-56.25,35.417l35.417,-35.417m-56.25,35.417l35.417,-35.417m-56.25,35.417l35.417,-35.417m-56.25,35.417l35.417,-35.417m-56.25,35.417l35.417,-35.417m-56.25,35.417l35.417,-35.417m-56.667,35.417l35.833,-35.417m-56.667,35.417l35.417,-35.417m-56.25,35.417l35.417,-35.417m-56.25,35.417l35.417,-35.417m-56.25,35.417l35.417,-35.417m-56.25,35.417l35.417,-35.417m-56.25,35.417l35.417,-35.417m-56.25,35.417l35.417,-35.417m-56.25,35.417l35.417,-35.417m-56.667,35.417l35.833,-35.417m-56.667,35.417l35.417,-35.417m-56.25,35.417l35.417,-35.417m-56.25,35.417l35.417,-35.417m-56.25,35.417l35.417,-35.417m-56.25,35.417l35.417,-35.417m-35.417,14.167l14.583,-14.167m1089.583,12.083l-12.083,-12.083m12.083,32.917l-32.917,-32.917m14.583,35.417l-35.417,-35.417m14.583,35.417l-35.417,-35.417m14.167,35.417l-35.417,-35.417m14.583,35.417l-35.417,-35.417m14.583,35.417l-35.417,-35.417m14.583,35.417l-35.417,-35.417m14.583,35.417l-35.417,-35.417m14.583,35.417l-35.417,-35.417m14.583,35.417l-35.417,-35.417m14.583,35.417l-35.417,-35.417m14.583,35.417l-35.417,-35.417m14.167,35.417l-35.417,-35.417m14.583,35.417l-35.417,-35.417m14.583,35.417l-35.417,-35.417m14.583,35.417l-35.417,-35.417m14.583,35.417l-35.417,-35.417m14.583,35.417l-35.417,-35.417m14.583,35.417l-35.417,-35.417m14.583,35.417l-35.417,-35.417m14.583,35.417l-35.417,-35.417m14.167,35.417l-35.417,-35.417m14.583,35.417l-35.417,-35.417m14.583,35.417l-35.417,-35.417m14.583,35.417l-35.417,-35.417m14.583,35.417l-35.417,-35.417m14.583,35.417l-35.417,-35.417m14.583,35.417l-35.417,-35.417m14.583,35.417l-35.417,-35.417m14.583,35.417l-35.417,-35.417m14.167,35.417l-35.417,-35.417m14.583,35.417l-35.417,-35.417m14.583,35.417l-35.417,-35.417m14.583,35.417l-35.417,-35.417m14.583,35.417l-35.417,-35.417m14.583,35.417l-35.417,-35.417m14.583,35.417l-35.417,-35.417m14.583,35.417l-35.417,-35.417m14.583,35.417l-35.417,-35.417m14.167,35.417l-35.417,-35.417m14.583,35.417l-35.417,-35.417m14.583,35.417l-35.417,-35.417m14.583,35.417l-35.417,-35.417m14.583,35.417l-35.417,-35.417m14.583,35.417l-35.417,-35.417m14.583,35.417l-35.417,-35.417m14.583,35.417l-35.417,-35.417m14.583,35.417l-35.417,-35.417m14.167,35.417l-35.417,-35.417m14.583,35.417l-35.417,-35.417m14.583,35.417l-35.417,-35.417m14.583,35.417l-35.417,-35.417m14.583,35.417l-20.833,-21.25" style="fill:none;fill-rule:nonzero;stroke:#000;stroke-opacity:0.31;stroke-width:1.48px;"/><path d="M14.837,162.317l0,-35.417l1104.167,0l0,35.417m-35.417,0l-543.333,0m-17.5,0l-472.5,0" style="fill:none;fill-rule:nonzero;stroke:#2b2b2b;stroke-width:2.95px;stroke-linecap:round;"/><path d="M463.587,456.067l-17.5,0" style="fill:none;fill-rule:nonzero;stroke:#000;stroke-width:0.3px;"/><path d="M463.587,550.65l-112.083,0" style="fill:none;fill-rule:nonzero;stroke:#000;stroke-width:0.3px;"/><path d="M351.504,550.65c0,-52.083 42.083,-94.583 94.583,-94.583" style="fill:none;fill-rule:nonzero;stroke:#000;stroke-width:0.3px;"/><rect x="446.087" y="450.234" width="17.5" height="106.25" style="fill:none;fill-rule:nonzero;stroke:#000;stroke-width:0.3px;"/><rect x="446.087" y="656.9" width="17.5" height="94.583" style="fill:none;fill-rule:nonzero;stroke:#000;stroke-width:0.3px;"/><path d="M463.587,662.734l-100.417,0" style="fill:none;fill-rule:nonzero;stroke:#000;stroke-width:0.3px;"/><path d="M446.087,745.65c-45.833,0 -82.917,-37.083 -82.917,-82.917" style="fill:none;fill-rule:nonzero;stroke:#000;stroke-width:0.3px;"/><path d="M446.087,745.65l17.5,0" style="fill:none;fill-rule:nonzero;stroke:#000;stroke-width:0.3px;"/><rect x="599.421" y="900.234" width="17.5" height="94.583" style="fill:none;fill-rule:nonzero;stroke:#000;stroke-width:0.3px;"/><path d="M599.421,988.984l100.417,0" style="fill:none;fill-rule:nonzero;stroke:#000;stroke-width:0.3px;"/><path d="M616.921,906.067c45.833,0 82.917,37.083 82.917,82.917" style="fill:none;fill-rule:nonzero;stroke:#000;stroke-width:0.3px;"/><path d="M616.921,906.067l-17.5,0" style="fill:none;fill-rule:nonzero;stroke:#000;stroke-width:0.3px;"/><path d="M599.421,457.317l17.917,0" style="fill:none;fill-rule:nonzero;stroke:#000;stroke-width:0.3px;"/><path d="M599.421,551.9l112.083,0" style="fill:none;fill-rule:nonzero;stroke:#000;stroke-width:0.3px;"/><path d="M711.504,551.9c0,-52.083 -42.083,-94.583 -94.167,-94.583" style="fill:none;fill-rule:nonzero;stroke:#000;stroke-width:0.3px;"/><rect x="599.421" y="451.484" width="17.917" height="106.25" style="fill:none;fill-rule:nonzero;stroke:#000;stroke-width:0.3px;"/><path d="M918.171,563.567l0,17.917" style="fill:none;fill-rule:nonzero;stroke:#000;stroke-width:0.3px;"/><path d="M824.004,563.567l0,112.5" style="fill:none;fill-rule:nonzero;stroke:#000;stroke-width:0.3px;"/><path d="M824.004,676.067c52.083,0 94.167,-42.5 94.167,-94.583" style="fill:none;fill-rule:nonzero;stroke:#000;stroke-width:0.3px;"/><rect x="818.171" y="563.567" width="106.25" height="17.917" style="fill:none;fill-rule:nonzero;stroke:#000;stroke-width:0.3px;"/><path d="M841.921,768.567l-27.5,0c-3.333,0 -5,-1.667 -5,-5l0,-24.583c0,-3.333 1.667,-5.417 5,-5.417l57.917,0c3.333,0 5,2.083 5,5.417l0,24.583c0,3.333 -1.667,5 -5,5l-20.833,0" style="fill:none;fill-rule:nonzero;stroke:#000;stroke-width:0.3px;"/><path d="M801.504,726.484l162.5,0c0.833,0 1.667,0.833 1.667,2.083l0,55.417c0,0.417 -0.417,0.417 -0.833,0.417l-164.167,0c-0.417,0 -0.417,0 -0.417,-0.417l0,-55.417c0,-1.25 0.417,-2.083 1.25,-2.083Z" style="fill:#f7f7f7;stroke:#000;stroke-width:1.48px;"/><path d="M928.171,773.15l-0.417,0" style="fill:none;fill-rule:nonzero;stroke:#000;stroke-width:0.3px;"/><path d="M849.004,773.15l-0.417,0" style="fill:none;fill-rule:nonzero;stroke:#000;stroke-width:0.3px;"/><path d="M921.087,768.567l-27.5,0c-3.333,0 -5,-1.667 -5,-5l0,-24.583c0,-3.333 1.667,-5.417 5,-5.417l57.917,0c3.333,0 5,2.083 5,5.417l0,24.583c0,3.333 -1.667,5 -5,5l-20.833,0" style="fill:none;fill-rule:nonzero;stroke:#000;stroke-width:0.3px;"/><path d="M851.504,772.734l0.417,0c0.417,0 0.417,0 0.417,0.417l0,4.167l-3.333,0l0,-4.583l1.667,0" style="fill:none;fill-rule:nonzero;stroke:#000;stroke-width:0.3px;"/><path d="M930.671,772.734l0.417,0c0.417,0 0.417,0 0.417,0.417l0,4.167l-3.333,0l0,-4.583l1.667,0" style="fill:none;fill-rule:nonzero;stroke:#000;stroke-width:0.3px;"/><path d="M844.421,775.234l0,-25.417c0,-0.833 -0.417,-1.25 -1.25,-1.25c-0.833,0 -1.25,0.417 -1.25,1.25l0,25.417c0,0 0,0.417 0.417,0.833c0.417,0 0.417,0.417 0.833,0.417c0.417,0 0.833,-0.417 0.833,-0.417c0.417,-0.417 0.417,-0.833 0.417,-0.833Z" style="fill:none;fill-rule:nonzero;stroke:#000;stroke-width:0.3px;"/><path d="M923.587,775.234l0,-25.417c0,-0.833 -0.417,-1.25 -1.25,-1.25c-0.833,0 -1.25,0.417 -1.25,1.25l0,25.417c0,0 0,0.417 0.417,0.833c0.417,0 0.417,0.417 0.833,0.417c0.417,0 0.833,-0.417 0.833,-0.417c0.417,-0.417 0.417,-0.833 0.417,-0.833Z" style="fill:none;fill-rule:nonzero;stroke:#000;stroke-width:0.3px;"/><path d="M849.004,776.9l-0.417,0" style="fill:none;fill-rule:nonzero;stroke:#000;stroke-width:0.3px;"/><path d="M928.171,776.9l-0.417,0" style="fill:none;fill-rule:nonzero;stroke:#000;stroke-width:0.3px;"/><path d="M844.421,756.9c1.25,0.417 1.667,1.25 1.667,2.5c0,1.25 -0.417,2.083 -1.667,2.5" style="fill:none;fill-rule:nonzero;stroke:#000;stroke-width:0.3px;"/><path d="M923.587,756.9c1.25,0.417 1.667,1.25 1.667,2.5c0,1.25 -0.417,2.083 -1.667,2.5" style="fill:none;fill-rule:nonzero;stroke:#000;stroke-width:0.3px;"/><path d="M844.421,771.9c1.667,0.833 2.083,2.083 2.083,3.75c-0.417,1.25 -1.667,2.5 -3.333,2.5c-1.25,-0 -2.5,-0.833 -2.917,-2.5c-0.417,-1.667 0.417,-2.917 1.667,-3.333" style="fill:none;fill-rule:nonzero;stroke:#000;stroke-width:0.3px;"/><path d="M923.587,771.9c1.25,0.833 2.083,2.083 1.667,3.75c0,1.25 -1.25,2.5 -2.917,2.5c-1.25,0 -2.5,-0.833 -2.917,-2.5c-0.417,-1.667 0.417,-2.917 1.667,-3.333" style="fill:none;fill-rule:nonzero;stroke:#000;stroke-width:0.3px;"/><path d="M841.921,761.9c-0.833,-0.417 -1.25,-1.667 -1.25,-2.5c0,-1.25 0.417,-2.083 1.25,-2.5" style="fill:none;fill-rule:nonzero;stroke:#000;stroke-width:0.3px;"/><path d="M921.087,761.9c-0.833,-0.417 -1.667,-1.667 -1.25,-2.5c0,-1.25 0.417,-2.083 1.25,-2.5" style="fill:none;fill-rule:nonzero;stroke:#000;stroke-width:0.3px;"/><path d="M844.837,777.734l3.75,0l0,-5l-3.333,0" style="fill:none;fill-rule:nonzero;stroke:#000;stroke-width:0.3px;"/><path d="M924.004,777.734l3.75,0l0,-5l-3.333,0" style="fill:none;fill-rule:nonzero;stroke:#000;stroke-width:0.3px;"/><path d="M850.671,773.984l0,-7.083c0,-0.417 0,-0.417 0.417,-0.417c0,0 0.417,0 0.417,0.417l0,7.083" style="fill:none;fill-rule:nonzero;stroke:#000;stroke-width:0.3px;"/><path d="M929.837,773.984l0,-7.083c0,-0.417 0,-0.417 0.417,-0.417c0,0 0.417,0 0.417,0.417l0,7.083" style="fill:none;fill-rule:nonzero;stroke:#000;stroke-width:0.3px;"/><path d="M850.671,768.567l-6.25,0" style="fill:none;fill-rule:nonzero;stroke:#000;stroke-width:0.3px;"/><path d="M929.837,768.567l-6.25,0" style="fill:none;fill-rule:nonzero;stroke:#000;stroke-width:0.3px;"/><path d="M841.921,768.567l-27.5,0c-3.333,0 -5,-1.667 -5,-5l0,-24.583c0,-3.333 1.667,-5.417 5,-5.417l57.917,0c3.333,0 5,2.083 5,5.417l0,24.583c0,3.333 -1.667,5 -5,5l-20.833,0" style="fill:none;fill-rule:nonzero;stroke:#000;stroke-width:0.3px;"/></g><g id="topKoupelna2"><rect x="616.921" y="835.234" width="466.667" height="177.5" style="fill:#fff;"/><path d="M1083.587,1012.734l-466.667,0l0,-112.5l0.417,-65l466.25,0l0,177.5Z" style="fill:#e0e0e0;fill-opacity:0.25;stroke:#a8a8a8;stroke-width:0.3px;"/><g transform="matrix(1,0,0,1,110.524193,683.38135)"><text x="685.655px" y="266.969px" style="font-family:'ArialMT', 'Arial', sans-serif;font-size:21.144px;fill:#2b2b2b;fill-opacity:0.99;">Koupelna</text><g transform="matrix(21.144211,0,0,21.144211,766.174812,290.59126)"></g><text x="694.493px" y="290.591px" style="font-family:'ArialMT', 'Arial', sans-serif;font-size:21.144px;fill:#2b2b2b;fill-opacity:0.99;">5.99 m²</text></g><path d="M841.504,910.65c16.667,2.083 33.75,2.083 50.417,0l0,-3.75l10,-0.833l0,-64.583l-70.833,0l0,64.583l4.583,0.417l0,1.667l2.917,0l0,-1.25l2.917,0.417l0,3.333Z" style="fill:#f7f7f7;stroke:#000;stroke-width:1.48px;"/><path d="M871.921,908.15l0,2.083l-10.417,0l0,-2.083" style="fill:none;fill-rule:nonzero;stroke:#18181b;stroke-width:0.3px;"/><path d="M838.587,906.9l-2.917,-0.417" style="fill:none;fill-rule:nonzero;stroke:#18181b;stroke-width:0.3px;"/><path d="M901.921,903.984l-18.333,0l0,3.75" style="fill:none;fill-rule:nonzero;stroke:#18181b;stroke-width:0.3px;"/><path d="M901.921,901.9l-70.833,0" style="fill:none;fill-rule:nonzero;stroke:#18181b;stroke-width:0.3px;"/><path d="M891.921,906.9c-16.667,1.667 -33.333,1.667 -49.583,0.417" style="fill:none;fill-rule:nonzero;stroke:#18181b;stroke-width:0.3px;"/><path d="M852.754,871.9c0,6.209 6.068,11.25 13.542,11.25c7.474,0 13.542,-5.041 13.542,-11.25c0,-6.209 -6.068,-11.25 -13.542,-11.25c-7.474,0 -13.542,5.041 -13.542,11.25Z" style="fill:none;stroke:#bcbcbc;stroke-width:0.3px;"/><path d="M852.754,871.9c0.833,0.833 1.25,0.833 2.083,0.833c0.833,0 1.667,0 2.083,-0.833c0.417,-0.417 1.25,-0.833 2.083,-0.833c0.833,0 1.667,0.417 2.083,0.833c0.417,0.833 1.25,1.25 2.083,1.25c0.833,0 1.25,-0.417 1.667,-1.25c0.833,-0.417 1.25,-0.833 2.083,-0.833c0.833,0 1.667,0.417 2.083,0.833c0.417,0.833 1.25,1.25 2.083,1.25c0.833,0 1.667,-0.417 2.083,-1.25c0,-0.417 0.833,-0.833 1.667,-0.833c0.833,0 1.667,0.417 2.083,0.833c0.417,0.417 0.833,0.833 1.25,0.833c0.833,0 1.25,-0.417 1.667,-0.833" style="fill:none;fill-rule:nonzero;stroke:#bcbcbc;stroke-width:0.3px;"/><path d="M918.587,910.65c16.667,2.083 33.333,2.083 50.417,0l0,-3.75l10,-0.833l0,-64.583l-70.833,0l0,64.583l4.583,0.417l0,1.667l2.917,0l0,-1.25l2.917,0.417l0,3.333Z" style="fill:#f7f7f7;stroke:#000;stroke-width:1.48px;"/><path d="M949.004,908.15l0,2.083l-10.417,0l0,-2.083" style="fill:none;fill-rule:nonzero;stroke:#18181b;stroke-width:0.3px;"/><path d="M915.671,906.9l-2.917,-0.417" style="fill:none;fill-rule:nonzero;stroke:#18181b;stroke-width:0.3px;"/><path d="M979.004,903.984l-18.75,0l0,3.75" style="fill:none;fill-rule:nonzero;stroke:#18181b;stroke-width:0.3px;"/><path d="M979.004,901.9l-70.833,0" style="fill:none;fill-rule:nonzero;stroke:#18181b;stroke-width:0.3px;"/><path d="M969.004,906.9c-16.667,1.667 -33.333,1.667 -50,0.417" style="fill:none;fill-rule:nonzero;stroke:#18181b;stroke-width:0.3px;"/><path d="M929.837,871.9c0,6.209 6.068,11.25 13.542,11.25c7.474,0 13.542,-5.041 13.542,-11.25c0,-6.209 -6.068,-11.25 -13.542,-11.25c-7.474,0 -13.542,5.041 -13.542,11.25Z" style="fill:none;stroke:#bcbcbc;stroke-width:0.3px;"/><path d="M929.837,871.9c0.417,0.833 1.25,0.833 2.083,0.833c0.833,0 1.667,0 2.083,-0.833c0.417,-0.417 1.25,-0.833 2.083,-0.833c0.833,0 1.667,0.417 2.083,0.833c0.417,0.833 0.833,1.25 1.667,1.25c0.833,0 1.667,-0.417 2.083,-1.25c0.417,-0.417 1.25,-0.833 2.083,-0.833c0.833,0 1.667,0.417 2.083,0.833c0.417,0.833 1.25,1.25 2.083,1.25c0.417,0 1.25,-0.417 1.667,-1.25c0.417,-0.417 1.25,-0.833 2.083,-0.833c0.833,0 1.667,0.417 2.083,0.833c0.417,0.417 0.833,0.833 1.25,0.833c0.833,0 1.25,-0.417 1.667,-0.833" style="fill:none;fill-rule:nonzero;stroke:#bcbcbc;stroke-width:0.3px;"/><path d="M986.504,913.567l2.083,0l0,-74.583l-2.083,0l0,74.583Z" style="fill:#f7f7f7;stroke:#000;stroke-width:0.3px;"/><path d="M986.504,995.234l0,-0.417m0,-0.417l0,-0.833m0,-0.417l0,-0.417m0,-0.417l0,-0.833m0,-0.417l0,-0.833m0,0l0,-0.833m0,-0.417l0,-0.833m0,-0.417l0,-0.833m0,0l0,-0.833m0,-0.417l0,-0.833m0,-0.417l0,-0.417m0,-0.417l0,-0.833m0,-0.417l0,-0.833m0,-0.417l0,-0.417m0,-0.417l0,-0.833m0,-0.417l0,-0.833m0,0l0,-0.833m0,-0.417l0,-0.833m0,-0.417l0,-0.417m0,-0.417l0,-0.833m0,-0.417l0,-0.833m0,-0.417l0,-0.417m0,-0.417l0,-0.833m0,-0.417l0,-0.833m0,-0.417l0,-0.417m0,-0.417l0,-0.833m0,-0.417l0,-0.833m0,0l0,-0.833m0,-0.417l0,-0.833m0,-0.417l0,-0.417m0,-0.417l0,-0.833m0,-0.417l0,-0.833m0,-0.417l0,-0.417m0,-0.417l0,-0.833m0,-0.417l0,-0.833m0,0l0,-0.833m0,-0.417l0,-0.833m0,-0.417l0,-0.417m0,-0.417l0,-0.833m0,-0.417l0,-0.833m0,-0.417l0,-0.417m0,-0.417l0,-0.833m0,-0.417l0,-0.833m0,-0.417l0,-0.417m0,-0.417l0,-0.833m0,-0.417l0,-0.833m0,0l0,-0.833m0,-0.417l0,-0.833m0,-0.417l0,-0.417m0,-0.417l0,-0.833m0,-0.417l0,-0.833m0,-0.417l0,-0.417m0,-0.417l0,-0.833m0,-0.417l0,-0.833m0,0l0,-0.833m0,-0.417l0,-0.833m0,-0.417l0,-0.833m0,0l0,-0.833m0,-0.417l0,-0.833m0,-0.417l0,-0.417m0,-0.417l0,-0.833m0,-0.417l0,-0.833m0,-0.417l0,-0.417m0,-0.417l0,-0.833m0,-0.417l0,-0.833m0,0l0,-0.833m0,-0.417l0,-0.833m0,-0.417l0,-0.417m0,-0.417l0,-0.833m0,-0.417l0,-0.833m0,-0.417l0,-0.417m0,-0.417l0,-0.833m0,-0.417l0,-0.833m0,-0.417l0,-0.417m0,-0.417l0,-0.833" style="fill:none;fill-rule:nonzero;stroke:#bcbcbc;stroke-width:0.3px;"/><path d="M989.004,835.234l-3.333,0l0,3.75l3.333,0l0,-3.75Z" style="fill:#f7f7f7;stroke:#000;stroke-width:1.48px;"/><path d="M988.587,913.567l0,0.417m0,0.417l0,0.833m0,0.417l0,0.417m0,0.417l0,0.833m0,0.417l0,0.833m0,0l0,0.833m0,0.417l0,0.833m0,0.417l0,0.417m0,0.417l0,0.833m0,0.417l0,0.833m0,0.417l0,0.417m0,0.417l0,0.833m0,0.417l0,0.833m0,0l0,0.833m0,0.417l0,0.833m0,0.417l0,0.833m0,0l0,0.833m0,0.417l0,0.833m0,0.417l0,0.417m0,0.417l0,0.833m0,0.417l0,0.833m0,0.417l0,0.417m0,0.417l0,0.833m0,0.417l0,0.833m0,0l0,0.833m0,0.417l0,0.833m0,0.417l0,0.417m0,0.417l0,0.833m0,0.417l0,0.833m0,0.417l0,0.417m0,0.417l0,0.833m0,0.417l0,0.833m0,0.417l0,0.417m0,0.417l0,0.833m0,0.417l0,0.833m0,0l0,0.833m0,0.417l0,0.833m0,0.417l0,0.417m0,0.417l0,0.833m0,0.417l0,0.833m0,0.417l0,0.417m0,0.417l0,0.833m0,0.417l0,0.833m0,0l0,0.833m0,0.417l0,0.833m0,0.417l0,0.417m0,0.417l0,0.833m0,0.417l0,0.833m0,0.417l0,0.417m0,0.417l0,0.833m0,0.417l0,0.833m0,0.417l0,0.417m0,0.417l0,0.833m0,0.417l0,0.833m0,0l0,0.833m0,0.417l0,0.833m0,0.417l0,0.417m0,0.417l0,0.833m0,0.417l0,0.833m0,0.417l0,0.417m0,0.417l0,0.833m0,0.417l0,0.833m0,0l0,0.833m0,0.417l0,0.833m0,0.417l0,0.833m0,0l0,0.833m0,0.417l0,0.833m0,0.417l0,0.417m0,0.417l0,0.833m0,0.417l0,0.833m0,0.417l0,0.417m0,0.417l0,0.833m0,0.417l0,0.833m0,0l0,0.833m0,0.417l0,0.833m0,0.417l0,0.417m0,0.417l0,0.833m0,0.417l0,0.417" style="fill:none;fill-rule:nonzero;stroke:#bcbcbc;stroke-width:0.3px;"/><path d="M930.671,945.234l1.667,1.667l1.25,-1.25l-1.667,-1.667l-1.25,1.25Z" style="fill:#f7f7f7;"/><path d="M931.921,943.984l-1.25,1.25l1.667,1.667l1.25,-1.25" style="fill:none;fill-rule:nonzero;stroke:#000;stroke-width:0.3px;"/><path d="M927.754,939.4l58.75,58.75l1.25,-1.667l-58.75,-58.75l-1.25,1.667Z" style="fill:#f7f7f7;stroke:#000;stroke-width:0.3px;"/><path d="M936.504,942.734l-1.667,-1.667l-1.25,1.25l1.667,1.667l1.25,-1.25Z" style="fill:#f7f7f7;"/><path d="M933.587,942.317l1.25,-1.25l1.667,1.667l-1.25,1.25" style="fill:none;fill-rule:nonzero;stroke:#000;stroke-width:0.3px;"/><path d="M929.004,937.734c15.833,-15.417 37.5,-24.167 59.583,-24.167" style="fill:none;fill-rule:nonzero;stroke:#000;stroke-width:0.3px;"/><path d="M986.504,1008.984l2.083,0l0,-10.833l-2.083,0l0,10.833Z" style="fill:#f7f7f7;stroke:#000;stroke-width:0.3px;"/><path d="M989.004,1008.984l-3.333,0l0,3.75l3.333,0l0,-3.75Z" style="fill:#f7f7f7;stroke:#000;stroke-width:1.48px;"/><rect x="617.337" y="835.234" width="203.75" height="57.917" style="fill:#ddb682;stroke:#000;stroke-width:0.77px;"/><path d="M680.254,893.15l139.167,0c0.833,0 1.667,-0.417 1.667,-1.667l0,-55.417c0,-0.417 -0.417,-0.833 -0.833,-0.833l-140.833,0c0,0 -0.417,0.417 -0.417,0.833l0,55.417c0,1.25 0.417,1.667 1.25,1.667Z" style="fill:#f7f7f7;stroke:#000;stroke-width:1.48px;"/><path d="M782.337,851.484l-24.167,0c-2.917,0 -4.583,1.667 -4.583,5l0,24.583c0,3.333 1.667,5 4.583,5l51.25,0c2.917,0 4.583,-1.667 4.583,-5l0,-24.583c0,-3.333 -1.667,-5 -4.583,-5l-18.75,0" style="fill:none;fill-rule:nonzero;stroke:#000;stroke-width:0.3px;"/><path d="M791.921,847.317l0.417,0l0.417,-0.417l0,-4.167l-0.417,-0.417l-2.917,0l-0.417,0.417l0,4.167l0.417,0.417l1.667,0" style="fill:none;fill-rule:nonzero;stroke:#000;stroke-width:0.3px;"/><path d="M784.837,844.817l0,25c0,0.833 -0.417,1.25 -1.25,1.25c-0.833,0 -1.25,-0.417 -1.25,-1.25l0,-25c0,-0.417 0,-0.417 0.417,-0.833c0,-0.417 0.417,-0.417 0.833,-0.417c0.417,0 0.833,0 0.833,0.417c0.417,0.417 0.417,0.417 0.417,0.833Z" style="fill:none;fill-rule:nonzero;stroke:#000;stroke-width:0.3px;"/><path d="M784.837,863.15c1.25,-0.417 1.667,-1.25 1.667,-2.5c0,-1.25 -0.417,-2.083 -1.667,-2.5" style="fill:none;fill-rule:nonzero;stroke:#000;stroke-width:0.3px;"/><path d="M784.837,847.734c1.25,-0.417 2.083,-2.083 1.667,-3.333c0,-1.667 -1.25,-2.5 -2.917,-2.5c-1.667,0 -2.917,0.833 -2.917,2.5c-0.417,1.25 0.417,2.917 1.667,3.333" style="fill:none;fill-rule:nonzero;stroke:#000;stroke-width:0.3px;"/><path d="M782.337,858.15c-0.833,0.417 -1.667,1.25 -1.667,2.5c0,1.25 0.833,2.083 1.667,2.5" style="fill:none;fill-rule:nonzero;stroke:#000;stroke-width:0.3px;"/><path d="M785.254,842.317l3.75,0l0,5l-3.333,0" style="fill:none;fill-rule:nonzero;stroke:#000;stroke-width:0.3px;"/><path d="M791.087,846.067l0,7.5l0.417,0l0.417,-0.417l0,-7.083" style="fill:none;fill-rule:nonzero;stroke:#000;stroke-width:0.3px;"/><path d="M791.087,851.484l-6.25,0" style="fill:none;fill-rule:nonzero;stroke:#000;stroke-width:0.3px;"/><path d="M715.254,851.484l-24.583,0c-2.917,0 -4.583,1.667 -4.583,5l0,24.583c0,3.333 1.667,5 4.583,5l51.25,0c2.917,0 4.583,-1.667 4.583,-5l0,-24.583c0,-3.333 -1.667,-5 -4.583,-5l-18.333,0" style="fill:none;fill-rule:nonzero;stroke:#000;stroke-width:0.3px;"/><path d="M721.921,846.9l-0.417,0" style="fill:none;fill-rule:nonzero;stroke:#000;stroke-width:0.3px;"/><path d="M724.421,847.317l0.417,0c0.417,0 0.417,-0.417 0.417,-0.417l0,-4.167c0,0 0,-0.417 -0.417,-0.417l-2.5,0c-0.417,0 -0.417,0.417 -0.417,0.417l0,4.167c0,0 0,0.417 0.417,0.417l1.25,0" style="fill:none;fill-rule:nonzero;stroke:#000;stroke-width:0.3px;"/><path d="M717.337,844.817c0.417,8.333 0.417,16.667 0.417,25c0,0.833 -0.417,1.25 -1.25,1.25c-0.833,0 -1.25,-0.417 -1.25,-1.25c0,-8.333 0,-16.667 -0.417,-25c0,-0.417 0.417,-0.417 0.417,-0.833c0.417,-0.417 0.833,-0.417 0.833,-0.417c0.417,0 0.833,0 1.25,0.417l0,0.833Z" style="fill:none;fill-rule:nonzero;stroke:#000;stroke-width:0.3px;"/><path d="M721.921,843.15l-0.417,0" style="fill:none;fill-rule:nonzero;stroke:#000;stroke-width:0.3px;"/><path d="M717.754,863.15c0.833,-0.417 1.667,-1.25 1.667,-2.5c0,-1.25 -0.833,-2.083 -1.667,-2.5" style="fill:none;fill-rule:nonzero;stroke:#000;stroke-width:0.3px;"/><path d="M717.337,847.734c1.667,-0.417 2.5,-2.083 2.083,-3.333c-0.417,-1.667 -1.667,-2.5 -2.917,-2.5c-1.667,0 -2.917,0.833 -3.333,2.5c-0.417,1.25 0.417,2.917 1.667,3.333" style="fill:none;fill-rule:nonzero;stroke:#000;stroke-width:0.3px;"/><path d="M715.254,858.15c-1.25,0.417 -1.667,1.25 -1.667,2.5c0,1.25 0.417,2.083 1.667,2.5" style="fill:none;fill-rule:nonzero;stroke:#000;stroke-width:0.3px;"/><path d="M718.171,842.317l3.333,0l0,5l-2.917,0" style="fill:none;fill-rule:nonzero;stroke:#000;stroke-width:0.3px;"/><path d="M723.587,846.067l0,7.083c0,0 0,0.417 0.417,0.417c0.417,0 0.417,-0.417 0.417,-0.417l0,-7.083" style="fill:none;fill-rule:nonzero;stroke:#000;stroke-width:0.3px;"/><path d="M723.587,851.484l-6.25,0" style="fill:none;fill-rule:nonzero;stroke:#000;stroke-width:0.3px;"/><rect x="617.337" y="823.567" width="466.25" height="11.667" style="fill:#ddd;"/><path d="M1083.587,835.234l-466.25,0" style="fill:none;fill-rule:nonzero;stroke:#2b2b2b;stroke-width:2.95px;stroke-linecap:round;"/><path d="M617.337,835.234l-0.417,65l-17.5,0l0,-94.583m17.5,189.167l0,17.917m-17.5,0l0,-17.917l17.5,0" style="fill:none;fill-rule:nonzero;stroke:#2b2b2b;stroke-width:2.95px;stroke-linecap:round;"/><path d="M616.921,1012.734l466.667,0l0,-177.5" style="fill:none;stroke:#2b2b2b;stroke-width:2.92px;stroke-linecap:round;stroke-linejoin:round;stroke-miterlimit:1.5;"/><path d="M599.421,988.984l100.417,0" style="fill:none;fill-rule:nonzero;stroke:#000;stroke-width:0.3px;"/><path d="M616.921,906.067c45.833,0 82.917,37.083 82.917,82.917" style="fill:none;fill-rule:nonzero;stroke:#000;stroke-width:0.3px;"/></g><g id="topKoupelna3"><rect x="617.337" y="834.702" width="466.25" height="178.032" style="fill:#fff;"/><path d="M1083.587,1012.734l-466.667,0l0,-112.5l0.417,-65l466.25,0l0,177.5Z" style="fill:#e0e0e0;fill-opacity:0.25;stroke:#a8a8a8;stroke-width:0.3px;"/><g transform="matrix(1,0,0,1,110.524193,683.38135)"><text x="685.655px" y="266.969px" style="font-family:'ArialMT', 'Arial', sans-serif;font-size:21.144px;fill:#2b2b2b;fill-opacity:0.99;">Koupelna</text><g transform="matrix(21.144211,0,0,21.144211,766.174812,290.59126)"></g><text x="694.493px" y="290.591px" style="font-family:'ArialMT', 'Arial', sans-serif;font-size:21.144px;fill:#2b2b2b;fill-opacity:0.99;">5.99 m²</text></g><rect x="883.587" y="835.234" width="87.917" height="57.917" style="fill:#ddb682;stroke:#000;stroke-width:0.77px;"/><path d="M974.421,913.567l2.083,0l0,-74.583l-2.083,0l0,74.583Z" style="fill:#f7f7f7;stroke:#000;stroke-width:0.3px;"/><path d="M974.421,995.234l0,-0.417m0,-0.417l0,-0.833m0,-0.417l0,-0.417m0,-0.417l0,-0.833m0,-0.417l0,-0.833m0,-0.417l0,-0.417m0,-0.417l0,-0.833m0,-0.417l0,-0.833m0,0l0,-0.833m0,-0.417l0,-0.833m0,-0.417l0,-0.417m0,-0.417l0,-0.833m0,-0.417l0,-0.833m0,-0.417l0,-0.417m0,-0.417l0,-0.833m0,-0.417l0,-0.833m0,0l0,-0.833m0,-0.417l0,-0.833m0,-0.417l0,-0.417m0,-0.417l0,-0.833m0,-0.417l0,-0.833m0,-0.417l0,-0.417m0,-0.417l0,-0.833m0,-0.417l0,-0.833m0,-0.417l0,-0.417m0,-0.417l0,-0.833m0,-0.417l0,-0.833m0,0l0,-0.833m0,-0.417l0,-0.833m0,-0.417l0,-0.417m0,-0.417l0,-0.833m0,-0.417l0,-0.833m0,-0.417l0,-0.417m0,-0.417l0,-0.833m0,-0.417l0,-0.833m0,0l0,-0.833m0,-0.417l0,-0.833m0,-0.417l0,-0.417m0,-0.417l0,-0.833m0,-0.417l0,-0.833m0,-0.417l0,-0.417m0,-0.417l0,-0.833m0,-0.417l0,-0.833m0,-0.417l0,-0.417m0,-0.417l0,-0.833m0,-0.417l0,-0.833m0,0l0,-0.833m0,-0.417l0,-0.833m0,-0.417l0,-0.417m0,-0.417l0,-0.833m0,-0.417l0,-0.833m0,-0.417l0,-0.417m0,-0.417l0,-0.833m0,-0.417l0,-0.833m0,0l0,-0.833m0,-0.417l0,-0.833m0,-0.417l0,-0.833m0,0l0,-0.833m0,-0.417l0,-0.833m0,-0.417l0,-0.417m0,-0.417l0,-0.833m0,-0.417l0,-0.833m0,-0.417l0,-0.417m0,-0.417l0,-0.833m0,-0.417l0,-0.833m0,0l0,-0.833m0,-0.417l0,-0.833m0,-0.417l0,-0.417m0,-0.417l0,-0.833m0,-0.417l0,-0.833m0,-0.417l0,-0.417m0,-0.417l0,-0.833m0,-0.417l0,-0.833m0,-0.417l0,-0.417m0,-0.417l0,-0.833" style="fill:none;fill-rule:nonzero;stroke:#bcbcbc;stroke-width:0.3px;"/><path d="M976.921,835.234l-3.333,0l0,3.75l3.333,0l0,-3.75Z" style="fill:#f7f7f7;stroke:#000;stroke-width:1.48px;"/><path d="M976.504,913.567l0,0.417m0,0.417l0,0.833m0,0.417l0,0.417m0,0.417l0,0.833m0,0.417l0,0.833m0,0l0,0.833m0,0.417l0,0.833m0,0.417l0,0.417m0,0.417l0,0.833m0,0.417l0,0.833m0,0.417l0,0.417m0,0.417l0,0.833m0,0.417l0,0.833m0,0l0,0.833m0,0.417l0,0.833m0,0.417l0,0.833m0,0l0,0.833m0,0.417l0,0.833m0,0.417l0,0.417m0,0.417l0,0.833m0,0.417l0,0.833m0,0.417l0,0.417m0,0.417l0,0.833m0,0.417l0,0.833m0,0l0,0.833m0,0.417l0,0.833m0,0.417l0,0.417m0,0.417l0,0.833m0,0.417l0,0.833m0,0.417l0,0.417m0,0.417l0,0.833m0,0.417l0,0.833m0,0.417l0,0.417m0,0.417l0,0.833m0,0.417l0,0.833m0,0l0,0.833m0,0.417l0,0.833m0,0.417l0,0.417m0,0.417l0,0.833m0,0.417l0,0.833m0,0.417l0,0.417m0,0.417l0,0.833m0,0.417l0,0.833m0,0l0,0.833m0,0.417l0,0.833m0,0.417l0,0.417m0,0.417l0,0.833m0,0.417l0,0.833m0,0.417l0,0.417m0,0.417l0,0.833m0,0.417l0,0.833m0,0.417l0,0.417m0,0.417l0,0.833m0,0.417l0,0.833m0,0l0,0.833m0,0.417l0,0.833m0,0.417l0,0.417m0,0.417l0,0.833m0,0.417l0,0.833m0,0.417l0,0.417m0,0.417l0,0.833m0,0.417l0,0.833m0,0l0,0.833m0,0.417l0,0.833m0,0.417l0,0.833m0,0l0,0.833m0,0.417l0,0.833m0,0.417l0,0.417m0,0.417l0,0.833m0,0.417l0,0.833m0,0.417l0,0.417m0,0.417l0,0.833m0,0.417l0,0.833m0,0l0,0.833m0,0.417l0,0.833m0,0.417l0,0.417m0,0.417l0,0.833m0,0.417l0,0.417" style="fill:none;fill-rule:nonzero;stroke:#bcbcbc;stroke-width:0.3px;"/><path d="M918.587,945.234l1.667,1.667l1.25,-1.25l-1.667,-1.667l-1.25,1.25Z" style="fill:#f7f7f7;"/><path d="M919.837,943.984l-1.25,1.25l1.667,1.667l1.25,-1.25" style="fill:none;fill-rule:nonzero;stroke:#000;stroke-width:0.3px;"/><path d="M915.671,939.4l58.75,58.75l1.25,-1.667l-58.75,-58.75l-1.25,1.667Z" style="fill:#f7f7f7;stroke:#000;stroke-width:0.3px;"/><path d="M924.421,942.734l-1.667,-1.667l-1.25,1.25l1.667,1.667l1.25,-1.25Z" style="fill:#f7f7f7;"/><path d="M921.504,942.317l1.25,-1.25l1.667,1.667l-1.25,1.25" style="fill:none;fill-rule:nonzero;stroke:#000;stroke-width:0.3px;"/><path d="M916.921,937.734c15.833,-15.417 37.5,-24.167 59.583,-24.167" style="fill:none;fill-rule:nonzero;stroke:#000;stroke-width:0.3px;"/><path d="M974.421,1008.984l2.083,0l0,-10.833l-2.083,0l0,10.833Z" style="fill:#f7f7f7;stroke:#000;stroke-width:0.3px;"/><path d="M976.921,1008.984l-3.333,0l0,3.75l3.333,0l0,-3.75Z" style="fill:#f7f7f7;stroke:#000;stroke-width:1.48px;"/><path d="M617.337,835.234l466.25,0l0,-11.667l-466.25,0l0,11.667Z" style="fill:#ddd;"/><path d="M1083.587,835.234l-466.25,0" style="fill:none;fill-rule:nonzero;stroke:#2b2b2b;stroke-width:2.95px;stroke-linecap:round;"/><rect x="617.337" y="835.234" width="100.417" height="57.917" style="fill:#ddb682;stroke:#000;stroke-width:0.77px;"/><path d="M759.421,851.484l-27.5,0c-3.75,0 -5.417,1.667 -5.417,5l0,24.583c0,3.333 1.667,5 5.417,5l57.5,0c3.75,0 5.417,-1.667 5.417,-5l0,-24.583c0,-3.333 -1.667,-5 -5.417,-5l-20.833,0" style="fill:none;fill-rule:nonzero;stroke:#000;stroke-width:0.3px;"/><path d="M719.004,893.15l162.083,0c1.25,0 1.667,-0.417 1.667,-1.667l0,-55.417c0,-0.417 0,-0.833 -0.417,-0.833l-164.167,0c-0.417,0 -0.417,0.417 -0.417,0.833l0,55.417c0,1.25 0.417,1.667 1.25,1.667Z" style="fill:#f7f7f7;stroke:#000;stroke-width:1.48px;"/><path d="M838.587,851.484l-27.917,0c-3.333,0 -5,1.667 -5,5l0,24.583c0,3.333 1.667,5 5,5l57.917,0c3.333,0 5.417,-1.667 5.417,-5l0,-24.583c0,-3.333 -2.083,-5 -5.417,-5l-20.833,0" style="fill:none;fill-rule:nonzero;stroke:#000;stroke-width:0.3px;"/><path d="M768.587,847.317l0.833,0l0,-5l-2.917,0c-0.417,0 -0.417,0.417 -0.417,0.417l0,4.167c0,0 0,0.417 0.417,0.417l1.25,0" style="fill:none;fill-rule:nonzero;stroke:#000;stroke-width:0.3px;"/><path d="M847.754,847.317l0.833,0l0,-5l-2.917,0c-0.417,0 -0.417,0.417 -0.417,0.417l0,4.167c0,0 0,0.417 0.417,0.417l1.25,0" style="fill:none;fill-rule:nonzero;stroke:#000;stroke-width:0.3px;"/><path d="M761.921,844.817l0,25c0,0.833 -0.417,1.25 -1.25,1.25c-0.833,0 -1.25,-0.417 -1.25,-1.25l0,-25c0,-0.417 0,-0.417 0.417,-0.833c0,-0.417 0.417,-0.417 0.833,-0.417c0.417,0 0.417,0 0.833,0.417c0,0.417 0.417,0.417 0.417,0.833Z" style="fill:none;fill-rule:nonzero;stroke:#000;stroke-width:0.3px;"/><path d="M841.087,844.817l0,25c0,0.833 -0.417,1.25 -1.25,1.25c-0.833,0 -1.25,-0.417 -1.25,-1.25l0,-25c0,-0.417 0,-0.417 0.417,-0.833c0,-0.417 0.417,-0.417 0.833,-0.417c0,0 0.417,0 0.833,0.417c0,0.417 0.417,0.417 0.417,0.833Z" style="fill:none;fill-rule:nonzero;stroke:#000;stroke-width:0.3px;"/><path d="M761.921,863.15c0.833,-0.417 1.667,-1.25 1.667,-2.5c0,-1.25 -0.833,-2.083 -1.667,-2.5" style="fill:none;fill-rule:nonzero;stroke:#000;stroke-width:0.3px;"/><path d="M841.087,863.15c0.833,-0.417 1.667,-1.25 1.667,-2.5c0,-1.25 -0.833,-2.083 -1.667,-2.5" style="fill:none;fill-rule:nonzero;stroke:#000;stroke-width:0.3px;"/><path d="M761.921,847.734c1.25,-0.417 2.083,-2.083 1.667,-3.333c-0.417,-1.667 -1.25,-2.5 -2.917,-2.5c-1.667,0 -2.917,0.833 -3.333,2.5c0,1.25 0.417,2.917 2.083,3.333" style="fill:none;fill-rule:nonzero;stroke:#000;stroke-width:0.3px;"/><path d="M841.087,847.734c1.25,-0.417 2.083,-2.083 1.667,-3.333c-0.417,-1.667 -1.667,-2.5 -2.917,-2.5c-1.667,0 -2.917,0.833 -3.333,2.5c0,1.25 0.417,2.917 2.083,3.333" style="fill:none;fill-rule:nonzero;stroke:#000;stroke-width:0.3px;"/><path d="M759.421,858.15c-0.833,0.417 -1.667,1.25 -1.667,2.5c0,1.25 0.833,2.083 1.667,2.5" style="fill:none;fill-rule:nonzero;stroke:#000;stroke-width:0.3px;"/><path d="M838.587,858.15c-1.25,0.417 -1.667,1.25 -1.667,2.5c0,1.25 0.833,2.083 1.667,2.5" style="fill:none;fill-rule:nonzero;stroke:#000;stroke-width:0.3px;"/><path d="M762.337,842.317l3.75,0l0,5l-3.333,0" style="fill:none;fill-rule:nonzero;stroke:#000;stroke-width:0.3px;"/><path d="M841.504,842.317l3.75,0l0,5l-3.333,0" style="fill:none;fill-rule:nonzero;stroke:#000;stroke-width:0.3px;"/><path d="M767.754,846.067l0,7.083l0.417,0.417c0.417,0 0.417,-0.417 0.417,-0.417l0,-7.083" style="fill:none;fill-rule:nonzero;stroke:#000;stroke-width:0.3px;"/><path d="M846.921,846.067l0,7.083l0.417,0.417c0.417,0 0.417,-0.417 0.417,-0.417l0,-7.083" style="fill:none;fill-rule:nonzero;stroke:#000;stroke-width:0.3px;"/><path d="M767.754,851.484l-5.833,0" style="fill:none;fill-rule:nonzero;stroke:#000;stroke-width:0.3px;"/><path d="M846.921,851.484l-5.833,0" style="fill:none;fill-rule:nonzero;stroke:#000;stroke-width:0.3px;"/><path d="M759.421,851.484l-27.5,0c-3.75,0 -5.417,1.667 -5.417,5l0,24.583c0,3.333 1.667,5 5.417,5l57.5,0c3.75,0 5.417,-1.667 5.417,-5l0,-24.583c0,-3.333 -1.667,-5 -5.417,-5l-20.833,0" style="fill:none;fill-rule:nonzero;stroke:#000;stroke-width:0.3px;"/><path d="M599.421,900.234l0,-94.583m17.917,29.583l-0.417,65l-17.5,0m17.5,94.583l0,17.917m-17.5,0l0,-17.917l17.5,0" style="fill:none;fill-rule:nonzero;stroke:#2b2b2b;stroke-width:2.95px;stroke-linecap:round;"/><path d="M616.921,1012.734l466.667,0l0,-177.5" style="fill:none;stroke:#2b2b2b;stroke-width:2.92px;stroke-linecap:round;stroke-linejoin:round;stroke-miterlimit:1.5;"/><path d="M599.421,988.984l100.417,0" style="fill:none;fill-rule:nonzero;stroke:#000;stroke-width:0.3px;"/><path d="M616.921,906.067c45.833,0 82.917,37.083 82.917,82.917" style="fill:none;fill-rule:nonzero;stroke:#000;stroke-width:0.3px;"/></g><g id="anchorTop"><path d="M1244.004,126.9l-250,0" style="fill:none;fill-rule:nonzero;stroke:#f00;stroke-width:0.3px;"/><path d="M1119.004,1.484l0,250.417" style="fill:none;fill-rule:nonzero;stroke:#f00;stroke-width:0.3px;"/></g></svg>