<?xml version="1.0" encoding="UTF-8" standalone="no"?><!DOCTYPE svg PUBLIC "-//W3C//DTD SVG 1.1//EN" "http://www.w3.org/Graphics/SVG/1.1/DTD/svg11.dtd"><svg width="100%" height="100%" viewBox="0 0 1246 1063" version="1.1" xmlns="http://www.w3.org/2000/svg" xmlns:xlink="http://www.w3.org/1999/xlink" xml:space="preserve" xmlns:serif="http://www.serif.com/" style="fill-rule:evenodd;clip-rule:evenodd;stroke-miterlimit:10;"><g id="topAll-R"><path d="M14.837,1048.15l0,-921.25l1104.167,0l0,921.25l-448.75,0l0,-35.417l-206.667,0l0,35.417l-448.75,0Z" style="fill:#fff;"/><path d="M658.587,410.234l-70.833,0l0,8.75l-106.25,0l0,-8.75l-17.917,0l0,-247.917l195,0l0,247.917Z" style="fill:#e0e0e0;fill-opacity:0.25;stroke:#a8a8a8;stroke-width:0.3px;"/><path d="M446.087,433.984l8.75,0l0,106.25l-8.75,0l0,5.833l-206.667,0l0,70.833l-189.167,0l0,-454.583l395.833,0l0,271.667Z" style="fill:#e0e0e0;fill-opacity:0.25;stroke:#a8a8a8;stroke-width:0.3px;"/><path d="M688.171,676.067l-9.167,0l0,-106.25l9.167,0l0,-407.5l395.417,0l0,598.75l-395.417,0l0,-85Z" style="fill:#e0e0e0;fill-opacity:0.25;stroke:#a8a8a8;stroke-width:0.3px;"/><path d="M256.921,634.4l0,-70.833l189.167,0l0,77.083l8.75,0l0,94.167l-8.75,0l0,277.917l-395.833,0l0,-378.333l206.667,0Z" style="fill:#e0e0e0;fill-opacity:0.25;stroke:#a8a8a8;stroke-width:0.3px;"/><path d="M463.587,1012.734l2.083,0m2.083,0l3.75,0m1.667,0l3.75,0m2.083,0l3.75,0m1.667,0l3.75,0m2.083,0l3.75,0m1.667,0l3.75,0m2.083,0l3.75,0m1.667,0l3.75,0m2.083,0l3.75,0m1.667,0l3.75,0m2.083,0l3.75,0m1.667,0l3.75,0m2.083,0l3.75,0m1.667,0l3.75,0m2.083,0l3.75,0m1.667,0l3.75,0m2.083,0l3.75,0m1.667,0l3.75,0m2.083,0l3.75,0m1.667,0l3.75,0m2.083,0l3.75,0m1.667,0l3.75,0m2.083,0l3.75,0m1.667,0l3.75,0m2.083,0l3.75,0m1.667,0l3.75,0m2.083,0l3.75,0m1.667,0l3.75,0m2.083,0l3.75,0m1.667,0l3.75,0m2.083,0l3.75,0m1.667,0l3.75,0m2.083,0l3.75,0m1.667,0l3.75,0m2.083,0l3.75,0m1.667,0l5.833,0" style="fill:none;fill-rule:nonzero;stroke:#a8a8a8;stroke-width:0.3px;stroke-linecap:round;"/><path d="M679.004,906.067l-8.75,0l0,106.667l-206.667,0l0,-277.917l-8.75,0l0,-94.167l8.75,0l0,-100.417l-8.75,0l0,-106.25l8.75,0l0,-6.25l17.917,0l0,-8.75l106.25,0l0,8.75l82.5,0l0,142.083l8.75,0l0,106.25l-8.75,0l0,135.833l8.75,0l0,94.167Z" style="fill:#e0e0e0;fill-opacity:0.25;stroke:#a8a8a8;stroke-width:0.3px;"/><path d="M1083.587,778.567l0,212.5l-395.417,0l0,-85l-9.167,0l0,-94.167l9.167,0l0,-33.333l395.417,0Z" style="fill:#e0e0e0;fill-opacity:0.25;stroke:#a8a8a8;stroke-width:0.3px;"/><path d="M688.171,1012.734l395.417,0l0,-21.667l-395.417,0l0,21.667Z" style="fill:#ddd;"/><path d="M688.171,991.067l395.417,0" style="fill:none;fill-rule:nonzero;stroke:#2b2b2b;stroke-width:2.95px;stroke-linecap:round;"/><g transform="matrix(1,0,0,1,-350.472019,301.336191)"><text x="569.383px" y="148.62px" style="font-family:'ArialMT', 'Arial', sans-serif;font-size:21.144px;fill:#2b2b2b;fill-opacity:0.99;">Pokoj</text><g transform="matrix(21.144211,0,0,21.144211,637.153103,172.24176)"></g><text x="555.281px" y="172.242px" style="font-family:'ArialMT', 'Arial', sans-serif;font-size:21.144px;fill:#2b2b2b;fill-opacity:0.99;">11.92 m²</text></g><g transform="matrix(1,0,0,1,144.582622,416.24797)"><text x="716.111px" y="184.908px" style="font-family:'ArialMT', 'Arial', sans-serif;font-size:21.144px;fill:#2b2b2b;fill-opacity:0.99;">Ložnice</text><g transform="matrix(21.144211,0,0,21.144211,794.278786,208.52969)"></g><text x="710.838px" y="208.53px" style="font-family:'ArialMT', 'Arial', sans-serif;font-size:21.144px;fill:#2b2b2b;fill-opacity:0.99;">17.05 m²</text></g><g transform="matrix(1,0,0,1,-341.367853,518.57855)"><text x="572.258px" y="217.223px" style="font-family:'ArialMT', 'Arial', sans-serif;font-size:21.144px;fill:#2b2b2b;fill-opacity:0.99;">Pokoj</text><g transform="matrix(21.144211,0,0,21.144211,640.028103,240.84461)"></g><text x="558.156px" y="240.845px" style="font-family:'ArialMT', 'Arial', sans-serif;font-size:21.144px;fill:#2b2b2b;fill-opacity:0.99;">11.74 m²</text></g><g transform="matrix(1,0,0,1,-108.536877,424.775784)"><text x="669.52px" y="187.601px" style="font-family:'ArialMT', 'Arial', sans-serif;font-size:21.144px;fill:#2b2b2b;fill-opacity:0.99;">Chodba</text><text x="660.13px" y="211.223px" style="font-family:'ArialMT', 'Arial', sans-serif;font-size:21.144px;fill:#2b2b2b;fill-opacity:0.99;">horní část</text><g transform="matrix(21.144211,0,0,21.144211,743.8463,234.844731)"></g><text x="672.165px" y="234.845px" style="font-family:'ArialMT', 'Arial', sans-serif;font-size:21.144px;fill:#2b2b2b;fill-opacity:0.99;">8.99 m²</text></g><g transform="matrix(1,0,0,1,123.524095,597.714531)"><text x="704.179px" y="242.213px" style="font-family:'ArialMT', 'Arial', sans-serif;font-size:21.144px;fill:#2b2b2b;fill-opacity:0.99;">Koupelna</text><g transform="matrix(21.144211,0,0,21.144211,784.698952,265.83492)"></g><text x="713.017px" y="265.835px" style="font-family:'ArialMT', 'Arial', sans-serif;font-size:21.144px;fill:#2b2b2b;fill-opacity:0.99;">6.09 m²</text></g><g transform="matrix(1,0,0,1,-133.219815,136.356975)"><text x="623.101px" y="96.521px" style="font-family:'ArialMT', 'Arial', sans-serif;font-size:21.144px;fill:#2b2b2b;fill-opacity:0.99;">Prádelna</text><g transform="matrix(21.144211,0,0,21.144211,701.262821,120.14306)"></g><text x="629.581px" y="120.143px" style="font-family:'ArialMT', 'Arial', sans-serif;font-size:21.144px;fill:#2b2b2b;fill-opacity:0.99;">3.53 m²</text></g><path d="M50.254,1012.734l88.75,0l0,-75l40.833,-31.667l-129.583,0l0,106.667Zm73.333,-18.75l-61.667,0l0,-65.833l61.667,0l0,65.833Z" style="fill:#e5fffe;fill-opacity:0.5;"/><path d="M179.837,937.734l-40.833,0l0,75l159.167,0l0,-106.667l-118.333,0l0,31.667Z" style="fill:#bedcff;"/><rect x="61.921" y="928.15" width="61.667" height="65.833" style="fill:#bedcff;"/><path d="M179.837,937.734l0,-31.667l-40.833,31.667l40.833,0Z" style="fill:#e5fffe;fill-opacity:0.5;"/><path d="M298.171,906.067l-247.917,0l0,106.667l247.917,0l0,-106.667Z" style="fill:none;stroke:#000;stroke-width:0.77px;"/><path d="M139.004,1012.734l0,-75l40.833,-31.667l0,31.667l-40.833,0" style="fill:none;fill-rule:nonzero;stroke:#000;stroke-width:0.77px;"/><path d="M123.587,928.15l-61.667,0l0,65.833l61.667,0l0,-65.833Z" style="fill:none;stroke:#000;stroke-width:0.77px;"/><path d="M131.504,850.234l23.75,-12.083l1.25,2.5c0.417,0.833 0.833,1.25 1.667,1.667c0.833,0 1.667,0 2.5,-0.417c14.167,-9.167 19.167,-27.083 11.667,-42.083c-7.5,-15 -25,-21.667 -40.417,-15.833c-0.833,0.417 -1.667,0.833 -1.667,1.667c-0.417,0.833 -0.417,1.667 0,2.5l1.25,2.5l-23.75,11.667l23.75,47.917Z" style="fill:#cfd4a2;"/><path d="M131.504,790.65l-23.75,11.667" style="fill:none;fill-rule:nonzero;stroke:#000;stroke-width:0.77px;"/><path d="M131.921,783.984c-0.833,0.417 -1.667,0.833 -1.667,1.667c-0.417,0.833 -0.417,1.667 0,2.5" style="fill:none;fill-rule:nonzero;stroke:#000;stroke-width:0.77px;"/><path d="M155.254,838.15l1.25,2.5" style="fill:none;fill-rule:nonzero;stroke:#000;stroke-width:0.77px;"/><path d="M130.254,788.15l1.25,2.5" style="fill:none;fill-rule:nonzero;stroke:#000;stroke-width:0.77px;"/><path d="M155.254,838.15c12.917,-6.667 18.333,-22.5 11.667,-35.833c-6.25,-12.917 -22.5,-18.333 -35.417,-11.667" style="fill:none;fill-rule:nonzero;stroke:#000;stroke-width:0.77px;"/><path d="M160.671,841.9c14.167,-9.167 19.167,-27.083 11.667,-42.083c-7.5,-15 -25,-21.667 -40.417,-15.833" style="fill:none;fill-rule:nonzero;stroke:#000;stroke-width:0.77px;"/><path d="M131.504,850.234l23.75,-12.083" style="fill:none;fill-rule:nonzero;stroke:#000;stroke-width:0.77px;"/><path d="M107.754,802.317l23.75,47.917" style="fill:none;fill-rule:nonzero;stroke:#000;stroke-width:0.77px;"/><path d="M156.504,840.65c0.417,0.833 0.833,1.25 1.667,1.667c0.833,0 1.667,0 2.5,-0.417" style="fill:none;fill-rule:nonzero;stroke:#000;stroke-width:0.77px;"/><path d="M121.087,758.567l-70.833,0l0,147.5l70.833,0l0,-147.5Z" style="fill:#ddb682;stroke:#000;stroke-width:0.77px;"/><path d="M304.004,1012.734l71.25,0l0,-35.833l-71.25,0l0,35.833Z" style="fill:#ddb682;stroke:#000;stroke-width:0.77px;"/><path d="M375.254,976.9l-71.25,35.833" style="fill:none;fill-rule:nonzero;stroke:#000;stroke-width:0.3px;"/><path d="M375.254,1012.734l70.833,0l0,-35.833l-70.833,0l0,35.833Z" style="fill:#ddb682;stroke:#000;stroke-width:0.77px;"/><path d="M446.087,976.9l-70.833,35.833" style="fill:none;fill-rule:nonzero;stroke:#000;stroke-width:0.3px;"/><path d="M50.254,268.567l88.75,0l0,-75l40.833,-31.25l-129.583,0l0,106.25Zm73.333,-18.75l-61.667,0l0,-65.417l61.667,0l0,65.417Z" style="fill:#e5fffe;fill-opacity:0.5;"/><path d="M179.837,193.567l-40.833,0l0,75l159.167,0l0,-106.25l-118.333,0l0,31.25Z" style="fill:#bedcff;"/><rect x="61.921" y="184.4" width="61.667" height="65.417" style="fill:#bedcff;"/><path d="M179.837,193.567l0,-31.25l-40.833,31.25l40.833,0Z" style="fill:#e5fffe;fill-opacity:0.5;"/><path d="M298.171,162.317l-247.917,0l0,106.25l247.917,0l0,-106.25Z" style="fill:none;stroke:#000;stroke-width:0.77px;"/><path d="M139.004,268.567l0,-75l40.833,-31.25l0,31.25l-40.833,0" style="fill:none;fill-rule:nonzero;stroke:#000;stroke-width:0.77px;"/><path d="M123.587,184.4l-61.667,0l0,65.417l61.667,0l0,-65.417Z" style="fill:none;stroke:#000;stroke-width:0.77px;"/><rect x="688.171" y="690.234" width="141.667" height="70.833" style="fill:#ddb682;stroke:#000;stroke-width:0.77px;"/><path d="M829.837,690.234l-70.833,70.833l-70.833,-70.833" style="fill:none;fill-rule:nonzero;stroke:#000;stroke-width:0.3px;"/><rect x="688.171" y="520.65" width="47.083" height="47.5" style="fill:#ddb682;stroke:#000;stroke-width:0.77px;"/><rect x="688.171" y="261.067" width="47.083" height="47.083" style="fill:#ddb682;stroke:#000;stroke-width:0.77px;"/><rect x="696.087" y="326.9" width="59.167" height="70.833" style="fill:#69b2ff;fill-opacity:0.5;"/><path d="M936.087,520.65l-100.833,0l0,-64.583l-75.833,0l0,-147.917l176.667,0l0,212.5Z" style="fill:#69b2ff;fill-opacity:0.5;"/><path d="M759.421,456.067l75.833,64.583l-147.083,0l0,-212.5l71.25,0l0,147.917Zm-4.167,-58.333l0,-70.833l-59.167,0l0,70.833l59.167,0Zm0,104.583l0,-70.833l-59.167,0l0,70.833l59.167,0Z" style="fill:#e5fcff;fill-opacity:0.5;"/><rect x="696.087" y="431.484" width="59.167" height="70.833" style="fill:#69b2ff;fill-opacity:0.5;"/><path d="M835.254,520.65l-75.833,-64.583l75.833,0l0,64.583Z" style="fill:#e5fcff;fill-opacity:0.5;"/><path d="M735.254,568.15l-47.083,0l0,-307.083l47.083,0l0,47.083l200.833,0l0,212.5l-200.833,0l0,47.5Z" style="fill:none;fill-rule:nonzero;stroke:#000;stroke-width:0.77px;"/><rect x="696.087" y="431.484" width="59.167" height="70.833" style="fill:none;stroke:#000;stroke-width:0.77px;"/><path d="M755.254,326.9l-59.167,0l0,70.833l59.167,0l0,-70.833Z" style="fill:none;stroke:#000;stroke-width:0.77px;"/><path d="M759.421,308.15l0,147.917l75.833,64.583l0,-64.583l-75.833,0" style="fill:none;fill-rule:nonzero;stroke:#000;stroke-width:0.77px;"/><path d="M735.254,520.65l-47.083,0" style="fill:none;fill-rule:nonzero;stroke:#000;stroke-width:0.77px;"/><path d="M735.254,308.15l-47.083,0" style="fill:none;fill-rule:nonzero;stroke:#000;stroke-width:0.77px;"/><path d="M103.171,349.817l12.083,-24.167l-2.5,-1.25c-0.833,0 -1.25,-0.833 -1.667,-1.667c0,-0.833 0,-1.667 0.417,-2.5c8.75,-14.167 27.083,-19.167 42.083,-11.667c14.583,7.5 21.667,25 15.833,40.417c-0.417,0.833 -0.833,1.667 -1.667,2.083c-0.833,0 -1.667,0 -2.5,-0.417l-2.5,-1.25l-12.083,24.167l-47.5,-23.75Z" style="fill:#cfd4a2;"/><path d="M162.754,349.4l-12.083,24.167" style="fill:none;fill-rule:nonzero;stroke:#000;stroke-width:0.77px;"/><path d="M169.421,348.984c-0.417,0.833 -0.833,1.667 -1.667,2.083c-0.833,0 -1.667,0 -2.5,-0.417" style="fill:none;fill-rule:nonzero;stroke:#000;stroke-width:0.77px;"/><path d="M115.254,325.65l-2.5,-1.25" style="fill:none;fill-rule:nonzero;stroke:#000;stroke-width:0.77px;"/><path d="M165.254,350.65l-2.5,-1.25" style="fill:none;fill-rule:nonzero;stroke:#000;stroke-width:0.77px;"/><path d="M115.254,325.65c6.667,-12.917 22.5,-18.333 35.417,-11.667c13.333,6.667 18.75,22.5 12.083,35.417" style="fill:none;fill-rule:nonzero;stroke:#000;stroke-width:0.77px;"/><path d="M111.504,320.234c8.75,-14.167 27.083,-19.167 42.083,-11.667c14.583,7.5 21.667,25 15.833,40.417" style="fill:none;fill-rule:nonzero;stroke:#000;stroke-width:0.77px;"/><path d="M103.171,349.817l12.083,-24.167" style="fill:none;fill-rule:nonzero;stroke:#000;stroke-width:0.77px;"/><path d="M150.671,373.567l-47.5,-23.75" style="fill:none;fill-rule:nonzero;stroke:#000;stroke-width:0.77px;"/><path d="M112.754,324.4c-0.833,0 -1.25,-0.833 -1.667,-1.667c0,-0.833 0,-1.667 0.417,-2.5" style="fill:none;fill-rule:nonzero;stroke:#000;stroke-width:0.77px;"/><path d="M50.254,410.234l70.833,0l0,-141.667l-70.833,0l0,141.667Z" style="fill:#ddb682;stroke:#000;stroke-width:0.77px;"/><rect x="829.837" y="690.234" width="141.667" height="70.833" style="fill:#ddb682;stroke:#000;stroke-width:0.77px;"/><path d="M971.504,690.234l-70.833,70.833l-70.833,-70.833" style="fill:none;fill-rule:nonzero;stroke:#000;stroke-width:0.3px;"/><rect x="971.504" y="690.234" width="112.083" height="70.833" style="fill:#ddb682;stroke:#000;stroke-width:0.77px;"/><path d="M1083.587,690.234l-55.833,70.833l-56.25,-70.833" style="fill:none;fill-rule:nonzero;stroke:#000;stroke-width:0.3px;"/><path d="M998.171,242.317l12.083,23.75l-2.5,1.25c-0.833,0.417 -1.25,1.25 -1.667,2.083c-0.417,0.833 0,1.667 0.417,2.083c8.75,14.167 27.083,19.167 42.083,11.667c14.583,-7.5 21.667,-25 15.833,-40.417c-0.417,-0.833 -1.25,-1.25 -2.083,-1.667c-0.417,-0.417 -1.667,-0.417 -2.083,0l-2.5,1.25l-12.083,-23.75l-47.5,23.75Z" style="fill:#cfd4a2;"/><path d="M1057.754,242.317l-12.083,-23.75" style="fill:none;fill-rule:nonzero;stroke:#000;stroke-width:0.77px;"/><path d="M1064.421,242.734c-0.417,-0.833 -1.25,-1.25 -2.083,-1.667c-0.417,-0.417 -1.667,-0.417 -2.083,0" style="fill:none;fill-rule:nonzero;stroke:#000;stroke-width:0.77px;"/><path d="M1010.254,266.067l-2.5,1.25" style="fill:none;fill-rule:nonzero;stroke:#000;stroke-width:0.77px;"/><path d="M1060.254,241.067l-2.5,1.25" style="fill:none;fill-rule:nonzero;stroke:#000;stroke-width:0.77px;"/><path d="M1010.254,266.067c6.25,13.333 22.5,18.333 35.417,12.083c13.333,-6.667 18.333,-22.5 12.083,-35.833" style="fill:none;fill-rule:nonzero;stroke:#000;stroke-width:0.77px;"/><path d="M1006.504,271.484c8.75,14.167 27.083,19.167 42.083,11.667c14.583,-7.5 21.667,-25 15.833,-40.417" style="fill:none;fill-rule:nonzero;stroke:#000;stroke-width:0.77px;"/><path d="M998.171,242.317l12.083,23.75" style="fill:none;fill-rule:nonzero;stroke:#000;stroke-width:0.77px;"/><path d="M1045.671,218.567l-47.5,23.75" style="fill:none;fill-rule:nonzero;stroke:#000;stroke-width:0.77px;"/><path d="M1007.754,267.317c-0.833,0.417 -1.25,1.25 -1.667,2.083c-0.417,0.833 0,1.667 0.417,2.083" style="fill:none;fill-rule:nonzero;stroke:#000;stroke-width:0.77px;"/><rect x="941.921" y="162.317" width="141.667" height="70.833" style="fill:#ddb682;stroke:#000;stroke-width:0.77px;"/><path d="M767.754,991.067l-40.417,0l-0.833,-42.083c0.417,-11.25 9.583,-20.417 21.25,-20.417c11.25,0 20.833,9.167 21.25,20.417l-1.25,42.083Z" style="fill:#e0e0e0;stroke:#000;stroke-width:0.3px;"/><path d="M747.754,932.734c-3.75,0 -7.083,0.833 -10,2.917c-5,3.75 -7.917,9.583 -7.917,15.833c0.417,6.25 3.333,11.667 8.333,15.417c2.917,1.667 6.25,2.917 9.583,2.917c3.333,0 6.667,-1.25 9.583,-2.917c5,-3.75 7.917,-9.167 7.917,-15.417c0.417,-6.25 -2.5,-12.083 -7.5,-15.833c-2.917,-2.083 -6.25,-2.917 -10,-2.917Z" style="fill:#b4b4b4;stroke:#000;stroke-width:0.3px;"/><path d="M747.754,991.067l0,-2.5" style="fill:none;fill-rule:nonzero;stroke:#000;stroke-width:0.3px;"/><path d="M737.754,966.9c0.417,-1.667 0.417,-2.917 0.833,-4.583c0,-1.25 0.417,-2.5 1.25,-3.75c0.417,-1.25 1.667,-2.083 2.5,-2.917c0.833,-0.833 1.667,-1.25 2.5,-1.25c0.833,-0.417 1.667,-0.417 2.083,-0.417l0.833,0" style="fill:none;fill-rule:nonzero;stroke:#000;stroke-width:0.3px;"/><path d="M738.587,961.9c0.417,0.417 1.25,0.833 2.083,1.25c0.833,0.417 1.667,0.833 2.5,1.25c0.833,-0 1.667,-0 2.5,0.417l2.083,0" style="fill:none;fill-rule:nonzero;stroke:#000;stroke-width:0.3px;"/><path d="M740.254,977.317c0,-0.69 -0.653,-1.25 -1.458,-1.25c-0.805,0 -1.458,0.56 -1.458,1.25c0,0.69 0.653,1.25 1.458,1.25c0.805,0 1.458,-0.56 1.458,-1.25Z" style="fill:none;stroke:#000;stroke-width:0.3px;"/><path d="M757.337,966.9c0,-1.667 0,-2.917 -0.417,-4.583c-0.417,-1.25 -0.833,-2.5 -1.25,-3.75c-0.833,-1.25 -1.667,-2.083 -2.5,-2.917c-0.833,-0.833 -1.667,-1.25 -2.917,-1.25c-0.417,-0.417 -1.25,-0.417 -1.667,-0.417l-0.833,0" style="fill:none;fill-rule:nonzero;stroke:#000;stroke-width:0.3px;"/><path d="M756.921,961.9c-0.833,0.417 -1.25,0.833 -2.083,1.25c-0.833,0.417 -1.667,0.833 -2.5,1.25c-0.833,-0 -1.667,-0 -2.5,0.417l-2.083,0" style="fill:none;fill-rule:nonzero;stroke:#000;stroke-width:0.3px;"/><path d="M755.254,977.317c0,0.69 0.56,1.25 1.25,1.25c0.69,0 1.25,-0.56 1.25,-1.25c0,-0.69 -0.56,-1.25 -1.25,-1.25c-0.69,0 -1.25,0.56 -1.25,1.25Z" style="fill:none;stroke:#000;stroke-width:0.3px;"/><path d="M860.671,975.234l-25.833,0c-3.333,0 -5,-1.667 -5,-5l0,-24.583c0,-3.333 1.667,-5 5,-5l54.583,0c3.333,0 5,1.667 5,5l0,24.583c0,3.333 -1.667,5 -5,5l-19.583,0" style="fill:none;fill-rule:nonzero;stroke:#000;stroke-width:0.3px;"/><path d="M816.921,933.567l164.583,0c1.25,0 1.667,0.417 1.667,1.667l0,55.417c0,0.417 0,0.417 -0.417,0.417l-166.667,0c0,0 -0.417,0 -0.417,-0.417l0,-55.417c0,-1.25 0.417,-1.667 1.25,-1.667Z" style="fill:#f7f7f7;stroke:#000;stroke-width:1.48px;"/><path d="M942.337,979.817l-0.417,0" style="fill:none;fill-rule:nonzero;stroke:#000;stroke-width:0.3px;"/><path d="M935.671,975.234l-26.25,0c-2.917,0 -4.583,-1.667 -4.583,-5l0,-24.583c0,-3.333 1.667,-5 4.583,-5l55,0c2.917,0 4.583,1.667 4.583,5l0,24.583c0,3.333 -1.667,5 -4.583,5l-20,0" style="fill:none;fill-rule:nonzero;stroke:#000;stroke-width:0.3px;"/><path d="M869.837,979.4l0.417,0c0,0 0.417,0 0.417,0.417l0,4.167l-3.333,0l0,-4.167c0,-0.417 0,-0.417 0.417,-0.417l1.25,0" style="fill:none;fill-rule:nonzero;stroke:#000;stroke-width:0.3px;"/><path d="M944.421,979.4l0.833,0l0,4.583l-2.917,0l0,-4.583l1.25,0" style="fill:none;fill-rule:nonzero;stroke:#000;stroke-width:0.3px;"/><path d="M863.171,981.9l0,-25.417c0,-0.833 -0.417,-1.25 -1.25,-1.25c-0.417,0 -0.833,0.417 -0.833,1.25c0,8.75 -0.417,17.083 -0.417,25.417c0,0.417 0.417,0.417 0.417,0.833c0.417,0 0.417,0.417 0.833,0.417c0.417,0 0.833,-0.417 0.833,-0.417c0.417,-0.417 0.417,-0.417 0.417,-0.833Z" style="fill:none;fill-rule:nonzero;stroke:#000;stroke-width:0.3px;"/><path d="M938.171,981.9l0,-25.417c0,-0.833 -0.417,-1.25 -1.25,-1.25c-0.833,0 -1.25,0.417 -1.25,1.25l0,25.417c0,0.417 0,0.417 0.417,0.833c0,0 0.417,0.417 0.833,0.417c0.417,0 0.417,-0.417 0.833,-0.417c0,-0.417 0.417,-0.417 0.417,-0.833Z" style="fill:none;fill-rule:nonzero;stroke:#000;stroke-width:0.3px;"/><path d="M942.337,983.567l-0.417,0" style="fill:none;fill-rule:nonzero;stroke:#000;stroke-width:0.3px;"/><path d="M863.171,963.567c1.25,0.417 1.667,1.25 1.667,2.5c0,1.25 -0.833,2.083 -1.667,2.5" style="fill:none;fill-rule:nonzero;stroke:#000;stroke-width:0.3px;"/><path d="M938.171,963.567c0.833,0.417 1.667,1.25 1.667,2.5c0,1.25 -0.833,2.083 -1.667,2.5" style="fill:none;fill-rule:nonzero;stroke:#000;stroke-width:0.3px;"/><path d="M863.171,978.984c1.25,0.417 2.083,1.667 1.667,3.333c-0.417,1.667 -1.25,2.5 -2.917,2.5c-1.25,0 -2.5,-0.833 -2.917,-2.5c0,-1.667 0.417,-2.917 1.667,-3.333" style="fill:none;fill-rule:nonzero;stroke:#000;stroke-width:0.3px;"/><path d="M938.171,978.984c1.25,0.417 1.667,1.667 1.667,3.333c-0.417,1.667 -1.667,2.5 -2.917,2.5c-1.667,0 -2.5,-0.833 -2.917,-2.5c-0.417,-1.667 0.417,-2.917 1.667,-3.333" style="fill:none;fill-rule:nonzero;stroke:#000;stroke-width:0.3px;"/><path d="M860.671,968.567c-0.833,-0.417 -1.25,-1.667 -1.25,-2.5c0,-1.25 0.417,-2.083 1.667,-2.5" style="fill:none;fill-rule:nonzero;stroke:#000;stroke-width:0.3px;"/><path d="M935.671,968.567c-0.833,-0.417 -1.25,-1.667 -1.25,-2.5c0,-1.25 0.417,-2.083 1.25,-2.5" style="fill:none;fill-rule:nonzero;stroke:#000;stroke-width:0.3px;"/><path d="M863.587,984.4l3.75,0l0,-5l-3.333,0" style="fill:none;fill-rule:nonzero;stroke:#000;stroke-width:0.3px;"/><path d="M938.587,984.4l3.333,0l0,-5l-2.917,0" style="fill:none;fill-rule:nonzero;stroke:#000;stroke-width:0.3px;"/><path d="M869.004,980.65l0,-7.083c0,-0.417 0,-0.417 0.417,-0.417c0,0 0.417,0 0.417,0.417l0,7.083" style="fill:none;fill-rule:nonzero;stroke:#000;stroke-width:0.3px;"/><path d="M943.587,980.65l0,-7.083c0,-0.417 0.417,-0.417 0.417,-0.417l0.417,0l0,7.5" style="fill:none;fill-rule:nonzero;stroke:#000;stroke-width:0.3px;"/><path d="M869.004,975.234l-5.833,0" style="fill:none;fill-rule:nonzero;stroke:#000;stroke-width:0.3px;"/><path d="M943.587,975.234l-5.417,0" style="fill:none;fill-rule:nonzero;stroke:#000;stroke-width:0.3px;"/><path d="M860.671,975.234l-25.833,0c-3.333,0 -5,-1.667 -5,-5l0,-24.583c0,-3.333 1.667,-5 5,-5l54.583,0c3.333,0 5,1.667 5,5l0,24.583c0,3.333 -1.667,5 -5,5l-19.583,0" style="fill:none;fill-rule:nonzero;stroke:#000;stroke-width:0.3px;"/><path d="M988.587,778.567c-3.333,0 -5.417,1.667 -5.417,5.417l0,201.667c0,3.75 2.083,5.417 5.417,5.417l89.583,0c3.75,0 5.417,-1.667 5.417,-5.417l0,-201.667c0,-3.75 -1.667,-5.417 -5.417,-5.417l-89.583,0Z" style="fill:#f7f7f7;stroke:#000;stroke-width:1.48px;"/><path d="M1031.504,969.4c-12.083,-0.417 -20,-5.833 -23.333,-15.417c0,-0.417 -0.417,-1.25 -0.417,-2.083c-6.667,-45.417 -9.167,-83.75 -7.5,-114.583l0,-0.417c2.083,-17.5 12.917,-26.667 33.333,-27.083c20,0.417 31.25,9.583 32.917,27.083l0,0.417c2.083,30.833 -0.417,69.167 -7.083,114.583c-0.417,0.833 -0.417,1.667 -0.833,2.083c-3.333,9.583 -10.833,15 -23.333,15.417" style="fill:none;fill-rule:nonzero;stroke:#000;stroke-width:0.3px;"/><path d="M1035.671,971.484c0,-2.083 -0.417,-2.917 -2.083,-2.917c-1.667,0 -2.5,0.833 -2.5,2.917c0,3.75 -0.417,7.083 -0.417,10.833c-0.417,1.25 0,2.083 0.417,2.917c0.833,0.833 1.667,1.25 2.5,1.25c0.833,0 1.667,-0.417 2.083,-1.25c0.833,-0.833 0.833,-1.667 0.833,-2.917c0,-3.75 -0.417,-7.083 -0.833,-10.833Z" style="fill:none;fill-rule:nonzero;stroke:#000;stroke-width:0.3px;"/><path d="M1031.504,974.817c-0.417,2.917 -0.417,5.417 -0.833,8.333c0,0.833 0.417,1.667 0.833,2.083c0.417,0.833 1.25,0.833 2.083,0.833c0.833,0 1.25,0 2.083,-0.833c0.417,-0.417 0.417,-1.25 0.417,-2.083c0,-2.917 -0.417,-5.417 -0.417,-8.333c0,-1.667 -0.833,-2.083 -2.083,-2.083c-1.667,0 -2.083,0.417 -2.083,2.083Z" style="fill:none;fill-rule:nonzero;stroke:#000;stroke-width:0.3px;"/><path d="M1033.587,956.484c2.083,0 3.75,-1.25 3.75,-3.333c0,-2.083 -1.667,-3.75 -3.75,-3.75c-2.5,0 -4.167,1.667 -4.167,3.75c0,2.083 1.667,3.333 4.167,3.333" style="fill:none;fill-rule:nonzero;stroke:#000;stroke-width:0.3px;"/><path d="M1030.671,979.4c-17.083,-0.833 -28.333,-7.083 -33.75,-18.75c-0.417,-0.833 -0.833,-1.667 -1.25,-2.5c-6.25,-52.5 -8.75,-97.917 -7.5,-135.417l0,-1.25c3.333,-23.75 18.333,-35.833 45.417,-36.667c27.083,0.833 42.083,12.917 45,36.667c0.417,0.417 0.417,0.833 0.417,1.25c1.25,37.5 -1.25,82.917 -7.917,135.417c0,0.833 -0.417,1.667 -0.833,2.5c-5.417,11.667 -16.667,17.917 -33.75,18.75" style="fill:none;fill-rule:nonzero;stroke:#000;stroke-width:0.3px;"/><rect x="50.254" y="546.067" width="141.667" height="70.833" style="fill:#ddb682;stroke:#000;stroke-width:0.77px;"/><path d="M50.254,546.067l70.833,70.833l70.833,-70.833" style="fill:none;fill-rule:nonzero;stroke:#000;stroke-width:0.3px;"/><rect x="191.921" y="546.067" width="47.5" height="70.833" style="fill:#ddb682;stroke:#000;stroke-width:0.77px;"/><path d="M191.921,546.067l23.75,70.833l23.75,-70.833" style="fill:none;fill-rule:nonzero;stroke:#000;stroke-width:0.3px;"/><rect x="304.004" y="563.984" width="142.083" height="70.833" style="fill:#ddb682;stroke:#000;stroke-width:0.77px;"/><path d="M446.087,634.817l-70.833,-70.833l-71.25,70.833" style="fill:none;fill-rule:nonzero;stroke:#000;stroke-width:0.3px;"/><rect x="256.921" y="563.567" width="47.083" height="70.833" style="fill:#ddb682;stroke:#000;stroke-width:0.77px;"/><path d="M304.004,634.4l-23.333,-70.833l-23.75,70.833" style="fill:none;fill-rule:nonzero;stroke:#000;stroke-width:0.3px;"/><rect x="410.671" y="162.317" width="35.417" height="70.833" style="fill:#ddb682;stroke:#000;stroke-width:0.77px;"/><path d="M410.671,233.15l35.417,-70.833" style="fill:none;fill-rule:nonzero;stroke:#000;stroke-width:0.3px;"/><rect x="410.671" y="233.15" width="35.417" height="70.833" style="fill:#ddb682;stroke:#000;stroke-width:0.77px;"/><path d="M410.671,303.984l35.417,-70.833" style="fill:none;fill-rule:nonzero;stroke:#000;stroke-width:0.3px;"/><rect x="410.671" y="303.984" width="35.417" height="65" style="fill:#ddb682;stroke:#000;stroke-width:0.77px;"/><path d="M410.671,368.984l35.417,-65" style="fill:none;fill-rule:nonzero;stroke:#000;stroke-width:0.3px;"/><path d="M444.837,563.567l1.25,-0.833m-22.083,0.833l17.5,-17.5m-38.333,17.5l17.5,-17.5m-38.333,17.5l17.5,-17.5m-38.333,17.5l17.5,-17.5m-38.75,17.5l17.917,-17.5m-38.75,17.5l17.917,-17.5m-38.75,17.5l17.917,-17.5m-38.75,17.5l17.917,-17.5m-38.75,17.5l17.917,-17.5" style="fill:none;fill-rule:nonzero;stroke:#000;stroke-opacity:0.31;stroke-width:1.48px;"/><path d="M256.921,546.067l189.167,0m0,17.5l-189.167,0" style="fill:none;fill-rule:nonzero;stroke:#2b2b2b;stroke-width:2.95px;stroke-linecap:round;"/><path d="M248.171,625.65l8.75,-8.75m-17.5,-3.333l17.5,-17.5m-17.5,-3.333l17.5,-17.5m-17.5,-3.333l17.5,-17.5m-17.5,-3.333l5,-5" style="fill:none;fill-rule:nonzero;stroke:#000;stroke-opacity:0.31;stroke-width:1.48px;"/><path d="M256.921,634.4l-8.75,0m-8.75,-17.5l0,-70.833l17.5,0m0,17.5l0,70.833" style="fill:none;fill-rule:nonzero;stroke:#2b2b2b;stroke-width:2.95px;stroke-linecap:round;"/><path d="M670.254,761.067l17.917,-17.917m-17.917,-2.917l17.917,-17.917m-17.917,-3.333l17.917,-17.5m-17.917,-3.333l17.917,-17.5m-17.917,-3.333l1.667,-1.25m1.667,-106.25l14.583,-14.583m-17.917,-2.917l17.917,-17.917m-17.917,-2.917l17.917,-17.917m-17.917,-3.333l17.917,-17.5m-17.917,-3.333l17.917,-17.5m-17.917,-3.333l17.917,-17.5m-17.917,-3.333l17.917,-17.5m-17.917,-3.333l17.917,-17.917m-17.917,-2.917l17.917,-17.917m-17.917,-2.917l17.917,-17.917m-17.917,-2.917l17.917,-17.917m-17.917,-2.917l17.917,-17.917m-17.917,-3.333l17.917,-17.5m-17.917,-3.333l17.917,-17.5m-17.917,-3.333l17.917,-17.5m-17.917,-3.333l17.917,-17.5m-17.917,-3.333l17.917,-17.917m-17.917,-2.917l17.917,-17.917m-17.917,-2.917l17.917,-17.917m-17.917,-2.917l14.167,-14.167" style="fill:none;fill-rule:nonzero;stroke:#000;stroke-opacity:0.31;stroke-width:1.48px;"/><path d="M688.171,162.317l0,407.5l-17.917,0l0,-142.083m0,248.333l17.917,0l0,85m-17.917,0l0,-85" style="fill:none;fill-rule:nonzero;stroke:#2b2b2b;stroke-width:2.95px;stroke-linecap:round;"/><path d="M651.504,427.734l17.917,-17.5m-38.75,17.5l17.917,-17.5m-38.75,17.5l17.5,-17.5m-38.333,17.5l17.5,-17.5m-142.917,17.5l17.917,-17.5" style="fill:none;fill-rule:nonzero;stroke:#000;stroke-opacity:0.31;stroke-width:1.48px;"/><path d="M670.254,427.734l-82.5,0l0,-17.5l70.833,0m-195,0l17.917,0l0,17.5l-17.917,0" style="fill:none;fill-rule:nonzero;stroke:#2b2b2b;stroke-width:2.95px;stroke-linecap:round;"/><path d="M446.087,1012.317l17.5,-17.5m-17.5,-3.333l17.5,-17.5m-17.5,-3.333l17.5,-17.5m-17.5,-3.333l17.5,-17.5m-17.5,-3.333l17.5,-17.5m-17.5,-3.333l17.5,-17.917m-17.5,-2.917l17.5,-17.917m-17.5,-2.917l17.5,-17.917m-17.5,-2.917l17.5,-17.917m-17.5,-2.917l17.5,-17.917m-17.5,-3.333l17.5,-17.5m-17.5,-3.333l17.5,-17.5m-17.5,-3.333l17.5,-17.5m-17.5,-3.333l5.833,-6.25m11.25,-94.167l0.417,-0.833m-17.5,-2.917l17.5,-17.917m-17.5,-3.333l17.5,-17.5m-17.5,-3.333l17.5,-17.5m-17.5,-3.333l17.5,-17.5m-17.5,-3.333l12.917,-12.917m2.083,-106.25l2.5,-2.917m-17.5,-3.333l17.5,-17.5m-17.5,-3.333l17.5,-17.5m-17.5,-3.333l17.5,-17.5m-17.5,-3.333l17.5,-17.5m-17.5,-3.333l17.5,-17.917m-17.5,-2.917l17.5,-17.917m-17.5,-2.917l17.5,-17.917m-17.5,-2.917l17.5,-17.917m-17.5,-2.917l17.5,-17.917m-17.5,-3.333l17.5,-17.5m-17.5,-3.333l17.5,-17.5m-17.5,-3.333l17.5,-17.5m-17.5,-3.333l15,-15" style="fill:none;fill-rule:nonzero;stroke:#000;stroke-opacity:0.31;stroke-width:1.48px;"/><path d="M463.587,433.984l-17.5,0l0,-271.667m17.5,0l0,247.917m0,17.5l0,6.25m-17.5,300.833l17.5,0l0,277.917m-17.5,0l0,-277.917m17.5,-94.167l-17.5,0l0,-77.083m0,-17.5l0,-5.833l17.5,0l0,100.417" style="fill:none;fill-rule:nonzero;stroke:#2b2b2b;stroke-width:2.95px;stroke-linecap:round;"/><path d="M670.254,1012.317l17.917,-17.5m-17.917,-3.333l17.917,-17.5m-17.917,-3.333l17.917,-17.5m-17.917,-3.333l17.917,-17.5m-17.917,-3.333l17.917,-17.5m-17.917,-3.333l2.083,-2.083m10.833,-94.167l5,-5m-17.917,-3.333l17.917,-17.5m-17.917,-3.333l4.167,-4.167" style="fill:none;fill-rule:nonzero;stroke:#000;stroke-opacity:0.31;stroke-width:1.48px;"/><path d="M670.254,1012.734l0,-106.667l17.917,0l0,85m0,-212.5l0,33.333l-17.917,0l0,-33.333" style="fill:none;fill-rule:nonzero;stroke:#2b2b2b;stroke-width:2.95px;stroke-linecap:round;"/><path d="M238.171,634.4l10,-9.583m-30.833,9.583l17.5,-17.5m-38.333,17.5l17.5,-17.5m-38.333,17.5l17.5,-17.5m-38.333,17.5l17.5,-17.5m-38.75,17.5l17.917,-17.5m-38.75,17.5l17.917,-17.5m-38.75,17.5l17.917,-17.5m-38.75,17.5l17.917,-17.5m-38.75,17.5l17.917,-17.5" style="fill:none;fill-rule:nonzero;stroke:#000;stroke-opacity:0.31;stroke-width:1.48px;"/><path d="M239.421,634.4l-189.167,0m0,-17.5l189.167,0m8.75,17.5l-8.75,0" style="fill:none;fill-rule:nonzero;stroke:#2b2b2b;stroke-width:2.95px;stroke-linecap:round;"/><path d="M1066.921,778.567l16.667,-16.667m-37.5,16.667l17.917,-17.5m-38.75,17.5l17.917,-17.5m-38.75,17.5l17.5,-17.5m-38.333,17.5l17.5,-17.5m-38.333,17.5l17.5,-17.5m-38.333,17.5l17.5,-17.5m-38.333,17.5l17.5,-17.5m-38.75,17.5l17.917,-17.5m-38.75,17.5l17.917,-17.5m-38.75,17.5l17.917,-17.5m-38.75,17.5l17.917,-17.5m-38.75,17.5l17.5,-17.5m-38.333,17.5l17.5,-17.5m-38.333,17.5l17.5,-17.5m-38.333,17.5l17.5,-17.5m-38.333,17.5l17.5,-17.5m-38.75,17.5l17.917,-17.5m-38.75,17.5l17.917,-17.5m-38.75,17.5l17.917,-17.5" style="fill:none;fill-rule:nonzero;stroke:#000;stroke-opacity:0.31;stroke-width:1.48px;"/><path d="M670.254,778.567l0,-17.5m17.917,0l395.417,0m0,17.5l-395.417,0" style="fill:none;fill-rule:nonzero;stroke:#2b2b2b;stroke-width:2.95px;stroke-linecap:round;"/><rect x="50.254" y="1012.734" width="413.333" height="35.417" style="fill:#fff;fill-opacity:0.1;"/><path d="M446.921,1048.15l16.667,-16.667m-37.5,16.667l35.417,-35.417m-56.25,35.417l35.417,-35.417m-56.25,35.417l35.417,-35.417m-56.25,35.417l35.417,-35.417m-56.25,35.417l35.417,-35.417m-56.667,35.417l35.417,-35.417m-56.25,35.417l35.417,-35.417m-56.25,35.417l35.417,-35.417m-56.25,35.417l35.417,-35.417m-56.25,35.417l35.417,-35.417m-56.25,35.417l35.417,-35.417m-56.25,35.417l35.417,-35.417m-56.25,35.417l35.417,-35.417m-56.25,35.417l35.417,-35.417m-56.667,35.417l35.417,-35.417m-56.25,35.417l35.417,-35.417m-56.25,35.417l35.417,-35.417m-56.25,35.417l35.417,-35.417m-56.25,35.417l35.417,-35.417m-35.417,14.167l14.583,-14.167m398.75,10l-10.417,-10m10.417,30.833l-31.25,-30.833m14.583,35.417l-35.417,-35.417m14.583,35.417l-35.417,-35.417m14.583,35.417l-35.417,-35.417m14.583,35.417l-35.417,-35.417m14.583,35.417l-35.417,-35.417m14.583,35.417l-35.833,-35.417m14.583,35.417l-35.417,-35.417m14.583,35.417l-35.417,-35.417m14.583,35.417l-35.417,-35.417m14.583,35.417l-35.417,-35.417m14.583,35.417l-35.417,-35.417m14.583,35.417l-35.417,-35.417m14.583,35.417l-35.417,-35.417m14.583,35.417l-35.417,-35.417m14.583,35.417l-35.833,-35.417m14.583,35.417l-35.417,-35.417m14.583,35.417l-35.417,-35.417m14.583,35.417l-35.417,-35.417m14.583,35.417l-20.833,-21.25" style="fill:none;fill-rule:nonzero;stroke:#000;stroke-opacity:0.31;stroke-width:1.48px;"/><path d="M50.254,1012.734l395.833,0m17.5,0l0,35.417l-413.333,0" style="fill:none;fill-rule:nonzero;stroke:#2b2b2b;stroke-width:2.95px;stroke-linecap:round;"/><rect x="14.837" y="162.317" width="35.417" height="885.833" style="fill:#fff;fill-opacity:0.1;"/><path d="M35.671,1048.15l14.583,-14.583m-35.417,14.583l35.417,-35.417m-35.417,14.167l35.417,-35.417m-35.417,14.583l35.417,-35.417m-35.417,14.583l35.417,-35.417m-35.417,14.583l35.417,-35.417m-35.417,14.583l35.417,-35.417m-35.417,14.583l35.417,-35.417m-35.417,14.583l35.417,-35.417m-35.417,14.583l35.417,-35.417m-35.417,14.583l35.417,-35.417m-35.417,14.167l35.417,-35.417m-35.417,14.583l35.417,-35.417m-35.417,14.583l35.417,-35.417m-35.417,14.583l35.417,-35.417m-35.417,14.583l35.417,-35.417m-35.417,14.583l35.417,-35.417m-35.417,14.583l35.417,-35.417m-35.417,14.583l35.417,-35.417m-35.417,14.583l35.417,-35.417m-35.417,14.167l35.417,-35.417m-35.417,14.583l35.417,-35.417m-35.417,14.583l35.417,-35.417m-35.417,14.583l35.417,-35.417m-35.417,14.583l35.417,-35.417m-35.417,14.583l35.417,-35.417m-35.417,14.583l35.417,-35.417m-35.417,14.583l35.417,-35.417m-35.417,14.583l35.417,-35.417m-35.417,14.167l35.417,-35.417m-35.417,14.583l35.417,-35.417m-35.417,14.583l35.417,-35.417m-35.417,14.583l35.417,-35.417m-35.417,14.583l35.417,-35.417m-35.417,14.583l35.417,-35.417m-35.417,14.583l35.417,-35.417m-35.417,14.583l35.417,-35.417m-35.417,14.583l35.417,-35.417m-35.417,14.167l35.417,-35.417m-35.417,14.583l35.417,-35.417m-35.417,14.583l35.417,-35.417m-35.417,14.583l35.417,-35.417m-35.417,14.583l29.583,-29.583m-29.583,8.75l8.75,-8.75m26.667,2.5l-2.5,-2.5m2.5,23.333l-23.333,-23.333m23.333,44.167l-35.417,-35.417m35.417,56.25l-35.417,-35.417m35.417,56.25l-35.417,-35.417m35.417,56.25l-35.417,-35.417m35.417,56.25l-35.417,-35.417m35.417,56.667l-35.417,-35.833m35.417,56.667l-35.417,-35.417m35.417,56.25l-35.417,-35.417m35.417,56.25l-35.417,-35.417m35.417,56.25l-35.417,-35.417m35.417,56.25l-35.417,-35.417m35.417,56.25l-35.417,-35.417m35.417,56.25l-35.417,-35.417m35.417,56.25l-35.417,-35.417m35.417,56.667l-35.417,-35.833m35.417,56.667l-35.417,-35.417m35.417,56.25l-35.417,-35.417m35.417,56.25l-35.417,-35.417m35.417,56.25l-35.417,-35.417m35.417,56.25l-35.417,-35.417m35.417,56.25l-35.417,-35.417m35.417,56.25l-35.417,-35.417m35.417,56.25l-35.417,-35.417m35.417,56.25l-35.417,-35.417m35.417,56.667l-35.417,-35.417m35.417,56.25l-35.417,-35.417m35.417,56.25l-35.417,-35.417m35.417,56.25l-35.417,-35.417m35.417,56.25l-35.417,-35.417m35.417,56.25l-35.417,-35.417m35.417,56.25l-35.417,-35.417m35.417,56.25l-35.417,-35.417m35.417,56.25l-35.417,-35.417m35.417,56.667l-35.417,-35.417m35.417,56.25l-35.417,-35.417m35.417,56.25l-35.417,-35.417m35.417,56.25l-35.417,-35.417m35.417,56.25l-35.417,-35.417m35.417,56.25l-35.417,-35.417m35.417,56.25l-35.417,-35.417m35.417,56.25l-35.417,-35.417m20.833,42.083l-20.833,-21.25" style="fill:none;fill-rule:nonzero;stroke:#000;stroke-opacity:0.31;stroke-width:1.48px;"/><path d="M50.254,1048.15l-35.417,0l0,-885.833m35.417,0l0,454.583m0,17.5l0,378.333" style="fill:none;fill-rule:nonzero;stroke:#2b2b2b;stroke-width:2.95px;stroke-linecap:round;"/><rect x="670.254" y="1012.734" width="413.333" height="35.417" style="fill:#fff;fill-opacity:0.1;"/><path d="M1066.921,1048.15l16.667,-16.667m-37.5,16.667l35.417,-35.417m-56.25,35.417l35.417,-35.417m-56.25,35.417l35.417,-35.417m-56.25,35.417l35.417,-35.417m-56.25,35.417l35.417,-35.417m-56.25,35.417l35.417,-35.417m-56.25,35.417l35.417,-35.417m-56.667,35.417l35.417,-35.417m-56.25,35.417l35.417,-35.417m-56.25,35.417l35.417,-35.417m-56.25,35.417l35.417,-35.417m-56.25,35.417l35.417,-35.417m-56.25,35.417l35.417,-35.417m-56.25,35.417l35.417,-35.417m-56.25,35.417l35.417,-35.417m-56.25,35.417l35.417,-35.417m-56.667,35.417l35.417,-35.417m-56.25,35.417l35.417,-35.417m-56.25,35.417l35.417,-35.417m-35.417,14.167l14.583,-14.167m398.75,10l-10.417,-10m10.417,30.833l-31.25,-30.833m14.583,35.417l-35.417,-35.417m14.583,35.417l-35.417,-35.417m14.583,35.417l-35.417,-35.417m14.583,35.417l-35.417,-35.417m14.583,35.417l-35.417,-35.417m14.583,35.417l-35.417,-35.417m14.583,35.417l-35.417,-35.417m14.583,35.417l-35.833,-35.417m14.583,35.417l-35.417,-35.417m14.583,35.417l-35.417,-35.417m14.583,35.417l-35.417,-35.417m14.583,35.417l-35.417,-35.417m14.583,35.417l-35.417,-35.417m14.583,35.417l-35.417,-35.417m14.583,35.417l-35.417,-35.417m14.583,35.417l-35.417,-35.417m14.583,35.417l-35.833,-35.417m14.583,35.417l-35.417,-35.417m14.583,35.417l-20.833,-21.25" style="fill:none;fill-rule:nonzero;stroke:#000;stroke-opacity:0.31;stroke-width:1.48px;"/><path d="M1083.587,1048.15l-413.333,0l0,-35.417" style="fill:none;fill-rule:nonzero;stroke:#2b2b2b;stroke-width:2.95px;stroke-linecap:round;"/><rect x="1083.587" y="162.317" width="35.417" height="885.833" style="fill:#fff;fill-opacity:0.1;"/><path d="M1104.421,1048.15l14.583,-14.583m-35.417,14.167l35.417,-35.417m-35.417,14.583l35.417,-35.417m-35.417,14.583l35.417,-35.417m-35.417,14.583l35.417,-35.417m-35.417,14.583l35.417,-35.417m-35.417,14.583l35.417,-35.417m-35.417,14.583l35.417,-35.417m-35.417,14.583l35.417,-35.417m-35.417,14.583l35.417,-35.417m-35.417,14.583l35.417,-35.833m-35.417,14.583l35.417,-35.417m-35.417,14.583l35.417,-35.417m-35.417,14.583l35.417,-35.417m-35.417,14.583l35.417,-35.417m-35.417,14.583l35.417,-35.417m-35.417,14.583l35.417,-35.417m-35.417,14.583l35.417,-35.417m-35.417,14.583l35.417,-35.417m-35.417,14.583l35.417,-35.833m-35.417,14.583l35.417,-35.417m-35.417,14.583l35.417,-35.417m-35.417,14.583l35.417,-35.417m-35.417,14.583l35.417,-35.417m-35.417,14.583l35.417,-35.417m-35.417,14.583l35.417,-35.417m-35.417,14.583l35.417,-35.417m-35.417,14.583l35.417,-35.417m-35.417,14.583l35.417,-35.833m-35.417,14.583l35.417,-35.417m-35.417,14.583l35.417,-35.417m-35.417,14.583l35.417,-35.417m-35.417,14.583l35.417,-35.417m-35.417,14.583l35.417,-35.417m-35.417,14.583l35.417,-35.417m-35.417,14.583l35.417,-35.417m-35.417,14.583l35.417,-35.417m-35.417,14.583l35.417,-35.417m-35.417,14.167l35.417,-35.417m-35.417,14.583l35.417,-35.417m-35.417,14.583l35.417,-35.417m-35.417,14.583l35.417,-35.417m-35.417,14.583l30,-29.583m-30,8.75l9.167,-8.75m26.25,2.5l-2.5,-2.5m2.5,23.333l-23.333,-23.333m23.333,44.167l-35.417,-35.417m35.417,56.25l-35.417,-35.417m35.417,56.25l-35.417,-35.417m35.417,56.25l-35.417,-35.417m35.417,56.25l-35.417,-35.417m35.417,56.667l-35.417,-35.417m35.417,56.25l-35.417,-35.417m35.417,56.25l-35.417,-35.417m35.417,56.25l-35.417,-35.417m35.417,56.25l-35.417,-35.417m35.417,56.25l-35.417,-35.417m35.417,56.25l-35.417,-35.417m35.417,56.25l-35.417,-35.417m35.417,56.25l-35.417,-35.417m35.417,56.667l-35.417,-35.833m35.417,56.667l-35.417,-35.417m35.417,56.25l-35.417,-35.417m35.417,56.25l-35.417,-35.417m35.417,56.25l-35.417,-35.417m35.417,56.25l-35.417,-35.417m35.417,56.25l-35.417,-35.417m35.417,56.25l-35.417,-35.417m35.417,56.25l-35.417,-35.417m35.417,56.667l-35.417,-35.833m35.417,56.667l-35.417,-35.417m35.417,56.25l-35.417,-35.417m35.417,56.25l-35.417,-35.417m35.417,56.25l-35.417,-35.417m35.417,56.25l-35.417,-35.417m35.417,56.25l-35.417,-35.417m35.417,56.25l-35.417,-35.417m35.417,56.25l-35.417,-35.417m35.417,56.667l-35.417,-35.833m35.417,56.667l-35.417,-35.417m35.417,56.25l-35.417,-35.417m35.417,56.25l-35.417,-35.417m35.417,56.25l-35.417,-35.417m35.417,56.25l-35.417,-35.417m35.417,56.25l-35.417,-35.417m35.417,56.25l-35.417,-35.417m35.417,56.25l-35.417,-35.417m20.833,42.083l-20.833,-21.25" style="fill:none;fill-rule:nonzero;stroke:#000;stroke-opacity:0.31;stroke-width:1.48px;"/><path d="M1083.587,991.067l0,-212.5m0,-17.5l0,-598.75m35.417,0l0,885.833l-35.417,0" style="fill:none;fill-rule:nonzero;stroke:#2b2b2b;stroke-width:2.95px;stroke-linecap:round;"/><rect x="14.837" y="126.9" width="1104.167" height="35.417" style="fill:#fff;fill-opacity:0.1;"/><path d="M1100.671,162.317l18.333,-18.75m-39.167,18.75l35.417,-35.417m-56.667,35.417l35.417,-35.417m-56.25,35.417l35.417,-35.417m-56.25,35.417l35.417,-35.417m-56.25,35.417l35.417,-35.417m-56.25,35.417l35.417,-35.417m-56.25,35.417l35.417,-35.417m-56.25,35.417l35.417,-35.417m-56.25,35.417l35.417,-35.417m-56.25,35.417l35.417,-35.417m-56.667,35.417l35.417,-35.417m-56.25,35.417l35.417,-35.417m-56.25,35.417l35.417,-35.417m-56.25,35.417l35.417,-35.417m-56.25,35.417l35.417,-35.417m-56.25,35.417l35.417,-35.417m-56.25,35.417l35.417,-35.417m-56.25,35.417l35.417,-35.417m-56.25,35.417l35.417,-35.417m-56.667,35.417l35.833,-35.417m-56.667,35.417l35.417,-35.417m-56.25,35.417l35.417,-35.417m-56.25,35.417l35.417,-35.417m-56.25,35.417l35.417,-35.417m-56.25,35.417l35.417,-35.417m-56.25,35.417l35.417,-35.417m-56.25,35.417l35.417,-35.417m-56.25,35.417l35.417,-35.417m-56.667,35.417l35.833,-35.417m-56.667,35.417l35.417,-35.417m-56.25,35.417l35.417,-35.417m-56.25,35.417l35.417,-35.417m-56.25,35.417l35.417,-35.417m-56.25,35.417l35.417,-35.417m-56.25,35.417l35.417,-35.417m-56.25,35.417l35.417,-35.417m-56.25,35.417l35.417,-35.417m-56.667,35.417l35.833,-35.417m-56.667,35.417l35.417,-35.417m-56.25,35.417l35.417,-35.417m-56.25,35.417l35.417,-35.417m-56.25,35.417l35.417,-35.417m-56.25,35.417l35.417,-35.417m-56.25,35.417l35.417,-35.417m-56.25,35.417l35.417,-35.417m-56.25,35.417l35.417,-35.417m-56.667,35.417l35.833,-35.417m-56.667,35.417l35.417,-35.417m-56.25,35.417l35.417,-35.417m-56.25,35.417l35.417,-35.417m-56.25,35.417l35.417,-35.417m-56.25,35.417l35.417,-35.417m-35.417,14.167l14.583,-14.167m1089.583,12.083l-12.083,-12.083m12.083,32.917l-32.917,-32.917m14.583,35.417l-35.417,-35.417m14.583,35.417l-35.417,-35.417m14.167,35.417l-35.417,-35.417m14.583,35.417l-35.417,-35.417m14.583,35.417l-35.417,-35.417m14.583,35.417l-35.417,-35.417m14.583,35.417l-35.417,-35.417m14.583,35.417l-35.417,-35.417m14.583,35.417l-35.417,-35.417m14.583,35.417l-35.417,-35.417m14.583,35.417l-35.417,-35.417m14.167,35.417l-35.417,-35.417m14.583,35.417l-35.417,-35.417m14.583,35.417l-35.417,-35.417m14.583,35.417l-35.417,-35.417m14.583,35.417l-35.417,-35.417m14.583,35.417l-35.417,-35.417m14.583,35.417l-35.417,-35.417m14.583,35.417l-35.417,-35.417m14.583,35.417l-35.417,-35.417m14.167,35.417l-35.417,-35.417m14.583,35.417l-35.417,-35.417m14.583,35.417l-35.417,-35.417m14.583,35.417l-35.417,-35.417m14.583,35.417l-35.417,-35.417m14.583,35.417l-35.417,-35.417m14.583,35.417l-35.417,-35.417m14.583,35.417l-35.417,-35.417m14.583,35.417l-35.417,-35.417m14.167,35.417l-35.417,-35.417m14.583,35.417l-35.417,-35.417m14.583,35.417l-35.417,-35.417m14.583,35.417l-35.417,-35.417m14.583,35.417l-35.417,-35.417m14.583,35.417l-35.417,-35.417m14.583,35.417l-35.417,-35.417m14.583,35.417l-35.417,-35.417m14.583,35.417l-35.417,-35.417m14.167,35.417l-35.417,-35.417m14.583,35.417l-35.417,-35.417m14.583,35.417l-35.417,-35.417m14.583,35.417l-35.417,-35.417m14.583,35.417l-35.417,-35.417m14.583,35.417l-35.417,-35.417m14.583,35.417l-35.417,-35.417m14.583,35.417l-35.417,-35.417m14.583,35.417l-35.417,-35.417m14.167,35.417l-35.417,-35.417m14.583,35.417l-35.417,-35.417m14.583,35.417l-35.417,-35.417m14.583,35.417l-35.417,-35.417m14.583,35.417l-20.833,-21.25" style="fill:none;fill-rule:nonzero;stroke:#000;stroke-opacity:0.31;stroke-width:1.48px;"/><path d="M446.087,162.317l-395.833,0m-35.417,0l0,-35.417l1104.167,0l0,35.417m-35.417,0l-395.417,0m-29.583,0l-195,0" style="fill:none;fill-rule:nonzero;stroke:#2b2b2b;stroke-width:2.95px;stroke-linecap:round;"/><path d="M670.254,906.067l-70.833,0l0,106.667l70.833,0l0,-106.667Z" style="fill:#ddb682;stroke:#000;stroke-width:0.77px;"/><path d="M599.421,906.067l70.833,53.333l-70.833,53.333" style="fill:none;fill-rule:nonzero;stroke:#000;stroke-width:0.3px;"/><path d="M670.254,690.234l-70.833,0l0,121.667l70.833,0l0,-121.667Z" style="fill:#ddb682;stroke:#000;stroke-width:0.77px;"/><path d="M599.421,690.234l70.833,60.833l-70.833,60.833" style="fill:none;fill-rule:nonzero;stroke:#000;stroke-width:0.3px;"/><path d="M670.254,427.734l-70.833,0l0,142.083l70.833,0l0,-142.083Z" style="fill:#ddb682;stroke:#000;stroke-width:0.77px;"/><path d="M599.421,427.734l70.833,70.833l-70.833,71.25" style="fill:none;fill-rule:nonzero;stroke:#000;stroke-width:0.3px;"/><rect x="658.587" y="162.317" width="11.667" height="247.917" style="fill:#ddd;"/><path d="M658.587,410.234l0,-247.917" style="fill:none;fill-rule:nonzero;stroke:#2b2b2b;stroke-width:2.95px;stroke-linecap:round;"/><path d="M581.504,427.734l0,-17.5" style="fill:none;fill-rule:nonzero;stroke:#000;stroke-width:0.3px;"/><path d="M487.337,427.734l0,-112.083" style="fill:none;fill-rule:nonzero;stroke:#000;stroke-width:0.3px;"/><path d="M487.337,315.65c52.083,0 94.167,42.5 94.167,94.583" style="fill:none;fill-rule:nonzero;stroke:#000;stroke-width:0.3px;"/><rect x="481.504" y="410.234" width="106.25" height="17.5" style="fill:none;fill-rule:nonzero;stroke:#000;stroke-width:0.3px;"/><path d="M589.421,172.317c-2.5,16.667 -2.5,33.75 0,50.417l3.333,0.417l0.833,10l65,0l0,-70.833l-65,0l-0.417,4.583l-1.25,0l0,2.917l1.25,0l-0.417,2.5l-3.333,0Z" style="fill:#f7f7f7;stroke:#000;stroke-width:1.48px;"/><path d="M591.504,203.15l-2.083,0l0,-10.833l2.083,0" style="fill:none;fill-rule:nonzero;stroke:#18181b;stroke-width:0.3px;"/><path d="M593.171,169.817l0,-2.917" style="fill:none;fill-rule:nonzero;stroke:#18181b;stroke-width:0.3px;"/><path d="M595.671,233.15l0,-18.75l-3.75,0" style="fill:none;fill-rule:nonzero;stroke:#18181b;stroke-width:0.3px;"/><path d="M597.754,233.15l0,-70.833" style="fill:none;fill-rule:nonzero;stroke:#18181b;stroke-width:0.3px;"/><path d="M592.754,223.15c-1.25,-16.667 -1.25,-33.333 0,-50" style="fill:none;fill-rule:nonzero;stroke:#18181b;stroke-width:0.3px;"/><ellipse cx="627.754" cy="197.317" rx="11.25" ry="13.75" style="fill:none;stroke:#bcbcbc;stroke-width:0.3px;"/><path d="M627.754,183.984c-0.417,0.417 -0.833,1.25 -0.833,2.083c0,0.833 0.417,1.25 0.833,2.083c0.417,0.417 0.833,0.833 0.833,1.667c0,0.833 -0.417,1.667 -0.833,2.083c-0.417,0.417 -0.833,1.25 -0.833,2.083c0,0.833 0.417,1.667 0.833,2.083c0.417,0.417 0.833,1.25 0.833,2.083c0,0.833 -0.417,1.25 -0.833,1.667c-0.417,0.417 -0.833,1.25 -0.833,2.083c0,0.833 0.417,1.667 0.833,2.083c0.417,0.417 0.833,1.25 0.833,2.083c0,0.833 -0.417,1.25 -0.833,1.667c-0.417,0.417 -0.417,1.25 -0.417,1.667c0,0.417 0,1.25 0.417,1.25" style="fill:none;fill-rule:nonzero;stroke:#bcbcbc;stroke-width:0.3px;"/><path d="M589.421,243.15c-2.5,16.667 -2.5,33.75 0,50.417l3.333,0.417l0.833,10l65,0l0,-70.833l-65,0l-0.417,4.583l-1.25,0l0,2.917l1.25,0l-0.417,2.917l-3.333,-0.417Z" style="fill:#f7f7f7;stroke:#000;stroke-width:1.48px;"/><path d="M591.504,273.984l-2.083,0l0,-10.833l2.083,0" style="fill:none;fill-rule:nonzero;stroke:#18181b;stroke-width:0.3px;"/><path d="M593.171,240.65l0,-2.917" style="fill:none;fill-rule:nonzero;stroke:#18181b;stroke-width:0.3px;"/><path d="M595.671,303.984l0,-18.75l-3.75,0" style="fill:none;fill-rule:nonzero;stroke:#18181b;stroke-width:0.3px;"/><path d="M597.754,303.984l0,-70.833" style="fill:none;fill-rule:nonzero;stroke:#18181b;stroke-width:0.3px;"/><path d="M592.754,293.984c-1.25,-16.667 -1.25,-33.333 0,-50" style="fill:none;fill-rule:nonzero;stroke:#18181b;stroke-width:0.3px;"/><ellipse cx="627.754" cy="268.15" rx="11.25" ry="13.75" style="fill:none;stroke:#bcbcbc;stroke-width:0.3px;"/><path d="M627.754,254.817c-0.417,0.417 -0.833,1.25 -0.833,2.083c0,0.833 0.417,1.667 0.833,2.083c0.417,0.417 0.833,1.25 0.833,2.083c0,0.833 -0.417,1.25 -0.833,1.667c-0.417,0.417 -0.833,1.25 -0.833,2.083c0,0.833 0.417,1.667 0.833,2.083c0.417,0.417 0.833,1.25 0.833,2.083c0,0.833 -0.417,1.25 -0.833,2.083c-0.417,0.417 -0.833,0.833 -0.833,1.667c0,0.833 0.417,1.667 0.833,2.083c0.417,0.417 0.833,1.25 0.833,2.083c0,0.833 -0.417,1.667 -0.833,2.083c-0.417,0 -0.417,0.833 -0.417,1.25c0,0.417 0,1.25 0.417,1.667" style="fill:none;fill-rule:nonzero;stroke:#bcbcbc;stroke-width:0.3px;"/><path d="M593.587,410.234l65,0l0,-106.25l-65,0l0,106.25Z" style="fill:#ddb682;stroke:#000;stroke-width:0.77px;"/><path d="M593.587,410.234l65,-53.333l-65,-52.917" style="fill:none;fill-rule:nonzero;stroke:#000;stroke-width:0.3px;"/><path d="M463.587,439.817l-17.5,0" style="fill:none;fill-rule:nonzero;stroke:#000;stroke-width:0.3px;"/><path d="M463.587,534.4l-112.083,0" style="fill:none;fill-rule:nonzero;stroke:#000;stroke-width:0.3px;"/><path d="M351.504,534.4c0,-52.5 42.083,-94.583 94.583,-94.583" style="fill:none;fill-rule:nonzero;stroke:#000;stroke-width:0.3px;"/><rect x="446.087" y="433.984" width="17.5" height="106.25" style="fill:none;fill-rule:nonzero;stroke:#000;stroke-width:0.3px;"/><rect x="446.087" y="640.65" width="17.5" height="94.167" style="fill:none;fill-rule:nonzero;stroke:#000;stroke-width:0.3px;"/><path d="M463.587,646.484l-100.417,0" style="fill:none;fill-rule:nonzero;stroke:#000;stroke-width:0.3px;"/><path d="M446.087,728.984c-45.833,0 -82.917,-37.083 -82.917,-82.5" style="fill:none;fill-rule:nonzero;stroke:#000;stroke-width:0.3px;"/><path d="M446.087,728.984l17.5,0" style="fill:none;fill-rule:nonzero;stroke:#000;stroke-width:0.3px;"/><rect x="670.254" y="811.9" width="17.917" height="94.167" style="fill:none;fill-rule:nonzero;stroke:#000;stroke-width:0.3px;"/><path d="M670.254,817.734l100.417,0" style="fill:none;fill-rule:nonzero;stroke:#000;stroke-width:0.3px;"/><path d="M688.171,900.234c45.417,0 82.5,-37.083 82.5,-82.5" style="fill:none;fill-rule:nonzero;stroke:#000;stroke-width:0.3px;"/><path d="M688.171,900.234l-17.917,0" style="fill:none;fill-rule:nonzero;stroke:#000;stroke-width:0.3px;"/><path d="M670.254,575.65l17.917,0" style="fill:none;fill-rule:nonzero;stroke:#000;stroke-width:0.3px;"/><path d="M670.254,669.817l112.083,0" style="fill:none;fill-rule:nonzero;stroke:#000;stroke-width:0.3px;"/><path d="M782.337,669.817c0,-52.083 -42.083,-94.167 -94.167,-94.167" style="fill:none;fill-rule:nonzero;stroke:#000;stroke-width:0.3px;"/><rect x="670.254" y="569.4" width="17.917" height="106.667" style="fill:none;fill-rule:nonzero;stroke:#000;stroke-width:0.3px;"/></g><g id="topAll-L"><path d="M14.837,1048.15l0,-921.25l1104.167,0l0,921.25l-448.75,0l0,-35.417l-206.667,0l0,35.417l-448.75,0Z" style="fill:#fff;"/><path d="M670.254,410.234l-17.5,0l0,8.75l-106.25,0l0,-8.75l-71.25,0l0,-247.917l195,0l0,247.917Z" style="fill:#e0e0e0;fill-opacity:0.25;stroke:#a8a8a8;stroke-width:0.3px;"/><path d="M446.087,433.984l8.75,0l0,106.25l-8.75,0l0,5.833l-206.667,0l0,70.833l-189.167,0l0,-454.583l395.833,0l0,271.667Z" style="fill:#e0e0e0;fill-opacity:0.25;stroke:#a8a8a8;stroke-width:0.3px;"/><path d="M688.171,676.067l-9.167,0l0,-106.25l9.167,0l0,-407.5l395.417,0l0,598.75l-395.417,0l0,-85Z" style="fill:#e0e0e0;fill-opacity:0.25;stroke:#a8a8a8;stroke-width:0.3px;"/><path d="M256.921,634.4l0,-70.833l189.167,0l0,77.083l8.75,0l0,94.167l-8.75,0l0,277.917l-395.833,0l0,-378.333l206.667,0Z" style="fill:#e0e0e0;fill-opacity:0.25;stroke:#a8a8a8;stroke-width:0.3px;"/><path d="M463.587,1012.734l2.083,0m2.083,0l3.75,0m1.667,0l3.75,0m2.083,0l3.75,0m1.667,0l3.75,0m2.083,0l3.75,0m1.667,0l3.75,0m2.083,0l3.75,0m1.667,0l3.75,0m2.083,0l3.75,0m1.667,0l3.75,0m2.083,0l3.75,0m1.667,0l3.75,0m2.083,0l3.75,0m1.667,0l3.75,0m2.083,0l3.75,0m1.667,0l3.75,0m2.083,0l3.75,0m1.667,0l3.75,0m2.083,0l3.75,0m1.667,0l3.75,0m2.083,0l3.75,0m1.667,0l3.75,0m2.083,0l3.75,0m1.667,0l3.75,0m2.083,0l3.75,0m1.667,0l3.75,0m2.083,0l3.75,0m1.667,0l3.75,0m2.083,0l3.75,0m1.667,0l3.75,0m2.083,0l3.75,0m1.667,0l3.75,0m2.083,0l3.75,0m1.667,0l3.75,0m2.083,0l3.75,0m1.667,0l5.833,0" style="fill:none;fill-rule:nonzero;stroke:#a8a8a8;stroke-width:0.3px;stroke-linecap:round;"/><path d="M679.004,906.067l-8.75,0l0,106.667l-206.667,0l0,-277.917l-8.75,0l0,-94.167l8.75,0l0,-100.417l-8.75,0l0,-106.25l8.75,0l0,-6.25l82.917,0l0,-8.75l106.25,0l0,8.75l17.5,0l0,142.083l8.75,0l0,106.25l-8.75,0l0,135.833l8.75,0l0,94.167Z" style="fill:#e0e0e0;fill-opacity:0.25;stroke:#a8a8a8;stroke-width:0.3px;"/><path d="M1083.587,778.567l0,212.5l-395.417,0l0,-85l-9.167,0l0,-94.167l9.167,0l0,-33.333l395.417,0Z" style="fill:#e0e0e0;fill-opacity:0.25;stroke:#a8a8a8;stroke-width:0.3px;"/><path d="M1083.587,991.067l-395.417,0l0,21.667l395.417,0l0,-21.667Z" style="fill:#ddd;"/><path d="M688.171,991.067l395.417,0" style="fill:none;fill-rule:nonzero;stroke:#2b2b2b;stroke-width:2.95px;stroke-linecap:round;"/><g transform="matrix(1,0,0,1,-350.472019,301.336191)"><text x="569.383px" y="148.62px" style="font-family:'ArialMT', 'Arial', sans-serif;font-size:21.144px;fill:#2b2b2b;fill-opacity:0.99;">Pokoj</text><g transform="matrix(21.144211,0,0,21.144211,637.153103,172.24176)"></g><text x="555.281px" y="172.242px" style="font-family:'ArialMT', 'Arial', sans-serif;font-size:21.144px;fill:#2b2b2b;fill-opacity:0.99;">11.92 m²</text></g><g transform="matrix(1,0,0,1,144.582622,416.24797)"><text x="716.111px" y="184.908px" style="font-family:'ArialMT', 'Arial', sans-serif;font-size:21.144px;fill:#2b2b2b;fill-opacity:0.99;">Ložnice</text><g transform="matrix(21.144211,0,0,21.144211,794.278786,208.52969)"></g><text x="710.838px" y="208.53px" style="font-family:'ArialMT', 'Arial', sans-serif;font-size:21.144px;fill:#2b2b2b;fill-opacity:0.99;">17.05 m²</text></g><g transform="matrix(1,0,0,1,-341.367853,518.57855)"><text x="572.258px" y="217.223px" style="font-family:'ArialMT', 'Arial', sans-serif;font-size:21.144px;fill:#2b2b2b;fill-opacity:0.99;">Pokoj</text><g transform="matrix(21.144211,0,0,21.144211,640.028103,240.84461)"></g><text x="558.156px" y="240.845px" style="font-family:'ArialMT', 'Arial', sans-serif;font-size:21.144px;fill:#2b2b2b;fill-opacity:0.99;">11.74 m²</text></g><g transform="matrix(1,0,0,1,-108.536877,424.775784)"><text x="669.52px" y="187.601px" style="font-family:'ArialMT', 'Arial', sans-serif;font-size:21.144px;fill:#2b2b2b;fill-opacity:0.99;">Chodba</text><text x="660.13px" y="211.223px" style="font-family:'ArialMT', 'Arial', sans-serif;font-size:21.144px;fill:#2b2b2b;fill-opacity:0.99;">horní část</text><g transform="matrix(21.144211,0,0,21.144211,743.8463,234.844731)"></g><text x="672.165px" y="234.845px" style="font-family:'ArialMT', 'Arial', sans-serif;font-size:21.144px;fill:#2b2b2b;fill-opacity:0.99;">8.99 m²</text></g><g transform="matrix(1,0,0,1,123.524095,597.714531)"><text x="704.179px" y="242.213px" style="font-family:'ArialMT', 'Arial', sans-serif;font-size:21.144px;fill:#2b2b2b;fill-opacity:0.99;">Koupelna</text><g transform="matrix(21.144211,0,0,21.144211,784.698952,265.83492)"></g><text x="713.017px" y="265.835px" style="font-family:'ArialMT', 'Arial', sans-serif;font-size:21.144px;fill:#2b2b2b;fill-opacity:0.99;">6.09 m²</text></g><g transform="matrix(1,0,0,1,-79.203543,136.356246)"><text x="640.159px" y="96.521px" style="font-family:'ArialMT', 'Arial', sans-serif;font-size:21.144px;fill:#2b2b2b;fill-opacity:0.99;">Prádelna</text><g transform="matrix(21.144211,0,0,21.144211,718.320591,120.14283)"></g><text x="646.639px" y="120.143px" style="font-family:'ArialMT', 'Arial', sans-serif;font-size:21.144px;fill:#2b2b2b;fill-opacity:0.99;">3.36 m²</text></g><path d="M50.254,1012.734l88.75,0l0,-75l40.833,-31.667l-129.583,0l0,106.667Zm73.333,-18.75l-61.667,0l0,-65.833l61.667,0l0,65.833Z" style="fill:#e5fffe;fill-opacity:0.5;"/><path d="M179.837,937.734l-40.833,0l0,75l159.167,0l0,-106.667l-118.333,0l0,31.667Z" style="fill:#bedcff;"/><rect x="61.921" y="928.15" width="61.667" height="65.833" style="fill:#bedcff;"/><path d="M179.837,937.734l0,-31.667l-40.833,31.667l40.833,0Z" style="fill:#e5fffe;fill-opacity:0.5;"/><path d="M298.171,906.067l-247.917,0l0,106.667l247.917,0l0,-106.667Z" style="fill:none;stroke:#000;stroke-width:0.77px;"/><path d="M139.004,1012.734l0,-75l40.833,-31.667l0,31.667l-40.833,0" style="fill:none;fill-rule:nonzero;stroke:#000;stroke-width:0.77px;"/><path d="M123.587,928.15l-61.667,0l0,65.833l61.667,0l0,-65.833Z" style="fill:none;stroke:#000;stroke-width:0.77px;"/><path d="M131.504,850.234l23.75,-12.083l1.25,2.5c0.417,0.833 0.833,1.25 1.667,1.667c0.833,0 1.667,0 2.5,-0.417c14.167,-9.167 19.167,-27.083 11.667,-42.083c-7.5,-15 -25,-21.667 -40.417,-15.833c-0.833,0.417 -1.667,0.833 -1.667,1.667c-0.417,0.833 -0.417,1.667 0,2.5l1.25,2.5l-23.75,11.667l23.75,47.917Z" style="fill:#cfd4a2;"/><path d="M131.504,790.65l-23.75,11.667" style="fill:none;fill-rule:nonzero;stroke:#000;stroke-width:0.77px;"/><path d="M131.921,783.984c-0.833,0.417 -1.667,0.833 -1.667,1.667c-0.417,0.833 -0.417,1.667 0,2.5" style="fill:none;fill-rule:nonzero;stroke:#000;stroke-width:0.77px;"/><path d="M155.254,838.15l1.25,2.5" style="fill:none;fill-rule:nonzero;stroke:#000;stroke-width:0.77px;"/><path d="M130.254,788.15l1.25,2.5" style="fill:none;fill-rule:nonzero;stroke:#000;stroke-width:0.77px;"/><path d="M155.254,838.15c12.917,-6.667 18.333,-22.5 11.667,-35.833c-6.25,-12.917 -22.5,-18.333 -35.417,-11.667" style="fill:none;fill-rule:nonzero;stroke:#000;stroke-width:0.77px;"/><path d="M160.671,841.9c14.167,-9.167 19.167,-27.083 11.667,-42.083c-7.5,-15 -25,-21.667 -40.417,-15.833" style="fill:none;fill-rule:nonzero;stroke:#000;stroke-width:0.77px;"/><path d="M131.504,850.234l23.75,-12.083" style="fill:none;fill-rule:nonzero;stroke:#000;stroke-width:0.77px;"/><path d="M107.754,802.317l23.75,47.917" style="fill:none;fill-rule:nonzero;stroke:#000;stroke-width:0.77px;"/><path d="M156.504,840.65c0.417,0.833 0.833,1.25 1.667,1.667c0.833,0 1.667,0 2.5,-0.417" style="fill:none;fill-rule:nonzero;stroke:#000;stroke-width:0.77px;"/><path d="M121.087,758.567l-70.833,0l0,147.5l70.833,0l0,-147.5Z" style="fill:#ddb682;stroke:#000;stroke-width:0.77px;"/><path d="M304.004,1012.734l71.25,0l0,-35.833l-71.25,0l0,35.833Z" style="fill:#ddb682;stroke:#000;stroke-width:0.77px;"/><path d="M375.254,976.9l-71.25,35.833" style="fill:none;fill-rule:nonzero;stroke:#000;stroke-width:0.3px;"/><path d="M375.254,1012.734l70.833,0l0,-35.833l-70.833,0l0,35.833Z" style="fill:#ddb682;stroke:#000;stroke-width:0.77px;"/><path d="M446.087,976.9l-70.833,35.833" style="fill:none;fill-rule:nonzero;stroke:#000;stroke-width:0.3px;"/><path d="M50.254,268.567l88.75,0l0,-75l40.833,-31.25l-129.583,0l0,106.25Zm73.333,-18.75l-61.667,0l0,-65.417l61.667,0l0,65.417Z" style="fill:#e5fffe;fill-opacity:0.5;"/><path d="M179.837,193.567l-40.833,0l0,75l159.167,0l0,-106.25l-118.333,0l0,31.25Z" style="fill:#bedcff;"/><rect x="61.921" y="184.4" width="61.667" height="65.417" style="fill:#bedcff;"/><path d="M179.837,193.567l0,-31.25l-40.833,31.25l40.833,0Z" style="fill:#e5fffe;fill-opacity:0.5;"/><path d="M298.171,162.317l-247.917,0l0,106.25l247.917,0l0,-106.25Z" style="fill:none;stroke:#000;stroke-width:0.77px;"/><path d="M139.004,268.567l0,-75l40.833,-31.25l0,31.25l-40.833,0" style="fill:none;fill-rule:nonzero;stroke:#000;stroke-width:0.77px;"/><path d="M123.587,184.4l-61.667,0l0,65.417l61.667,0l0,-65.417Z" style="fill:none;stroke:#000;stroke-width:0.77px;"/><rect x="688.171" y="690.234" width="141.667" height="70.833" style="fill:#ddb682;stroke:#000;stroke-width:0.77px;"/><path d="M829.837,690.234l-70.833,70.833l-70.833,-70.833" style="fill:none;fill-rule:nonzero;stroke:#000;stroke-width:0.3px;"/><rect x="688.171" y="520.65" width="47.083" height="47.5" style="fill:#ddb682;stroke:#000;stroke-width:0.77px;"/><rect x="688.171" y="261.067" width="47.083" height="47.083" style="fill:#ddb682;stroke:#000;stroke-width:0.77px;"/><rect x="696.087" y="326.9" width="59.167" height="70.833" style="fill:#69b2ff;fill-opacity:0.5;"/><path d="M936.087,520.65l-100.833,0l0,-64.583l-75.833,0l0,-147.917l176.667,0l0,212.5Z" style="fill:#69b2ff;fill-opacity:0.5;"/><path d="M759.421,456.067l75.833,64.583l-147.083,0l0,-212.5l71.25,0l0,147.917Zm-4.167,-58.333l0,-70.833l-59.167,0l0,70.833l59.167,0Zm0,104.583l0,-70.833l-59.167,0l0,70.833l59.167,0Z" style="fill:#e5fcff;fill-opacity:0.5;"/><rect x="696.087" y="431.484" width="59.167" height="70.833" style="fill:#69b2ff;fill-opacity:0.5;"/><path d="M835.254,520.65l-75.833,-64.583l75.833,0l0,64.583Z" style="fill:#e5fcff;fill-opacity:0.5;"/><path d="M735.254,568.15l-47.083,0l0,-307.083l47.083,0l0,47.083l200.833,0l0,212.5l-200.833,0l0,47.5Z" style="fill:none;fill-rule:nonzero;stroke:#000;stroke-width:0.77px;"/><rect x="696.087" y="431.484" width="59.167" height="70.833" style="fill:none;stroke:#000;stroke-width:0.77px;"/><path d="M755.254,326.9l-59.167,0l0,70.833l59.167,0l0,-70.833Z" style="fill:none;stroke:#000;stroke-width:0.77px;"/><path d="M759.421,308.15l0,147.917l75.833,64.583l0,-64.583l-75.833,0" style="fill:none;fill-rule:nonzero;stroke:#000;stroke-width:0.77px;"/><path d="M735.254,520.65l-47.083,0" style="fill:none;fill-rule:nonzero;stroke:#000;stroke-width:0.77px;"/><path d="M735.254,308.15l-47.083,0" style="fill:none;fill-rule:nonzero;stroke:#000;stroke-width:0.77px;"/><path d="M103.171,349.817l12.083,-24.167l-2.5,-1.25c-0.833,0 -1.25,-0.833 -1.667,-1.667c0,-0.833 0,-1.667 0.417,-2.5c8.75,-14.167 27.083,-19.167 42.083,-11.667c14.583,7.5 21.667,25 15.833,40.417c-0.417,0.833 -0.833,1.667 -1.667,2.083c-0.833,0 -1.667,0 -2.5,-0.417l-2.5,-1.25l-12.083,24.167l-47.5,-23.75Z" style="fill:#cfd4a2;"/><path d="M162.754,349.4l-12.083,24.167" style="fill:none;fill-rule:nonzero;stroke:#000;stroke-width:0.77px;"/><path d="M169.421,348.984c-0.417,0.833 -0.833,1.667 -1.667,2.083c-0.833,0 -1.667,0 -2.5,-0.417" style="fill:none;fill-rule:nonzero;stroke:#000;stroke-width:0.77px;"/><path d="M115.254,325.65l-2.5,-1.25" style="fill:none;fill-rule:nonzero;stroke:#000;stroke-width:0.77px;"/><path d="M165.254,350.65l-2.5,-1.25" style="fill:none;fill-rule:nonzero;stroke:#000;stroke-width:0.77px;"/><path d="M115.254,325.65c6.667,-12.917 22.5,-18.333 35.417,-11.667c13.333,6.667 18.75,22.5 12.083,35.417" style="fill:none;fill-rule:nonzero;stroke:#000;stroke-width:0.77px;"/><path d="M111.504,320.234c8.75,-14.167 27.083,-19.167 42.083,-11.667c14.583,7.5 21.667,25 15.833,40.417" style="fill:none;fill-rule:nonzero;stroke:#000;stroke-width:0.77px;"/><path d="M103.171,349.817l12.083,-24.167" style="fill:none;fill-rule:nonzero;stroke:#000;stroke-width:0.77px;"/><path d="M150.671,373.567l-47.5,-23.75" style="fill:none;fill-rule:nonzero;stroke:#000;stroke-width:0.77px;"/><path d="M112.754,324.4c-0.833,0 -1.25,-0.833 -1.667,-1.667c0,-0.833 0,-1.667 0.417,-2.5" style="fill:none;fill-rule:nonzero;stroke:#000;stroke-width:0.77px;"/><path d="M50.254,410.234l70.833,0l0,-141.667l-70.833,0l0,141.667Z" style="fill:#ddb682;stroke:#000;stroke-width:0.77px;"/><rect x="829.837" y="690.234" width="141.667" height="70.833" style="fill:#ddb682;stroke:#000;stroke-width:0.77px;"/><path d="M971.504,690.234l-70.833,70.833l-70.833,-70.833" style="fill:none;fill-rule:nonzero;stroke:#000;stroke-width:0.3px;"/><rect x="971.504" y="690.234" width="112.083" height="70.833" style="fill:#ddb682;stroke:#000;stroke-width:0.77px;"/><path d="M1083.587,690.234l-55.833,70.833l-56.25,-70.833" style="fill:none;fill-rule:nonzero;stroke:#000;stroke-width:0.3px;"/><path d="M998.171,242.317l12.083,23.75l-2.5,1.25c-0.833,0.417 -1.25,1.25 -1.667,2.083c-0.417,0.833 0,1.667 0.417,2.083c8.75,14.167 27.083,19.167 42.083,11.667c14.583,-7.5 21.667,-25 15.833,-40.417c-0.417,-0.833 -1.25,-1.25 -2.083,-1.667c-0.417,-0.417 -1.667,-0.417 -2.083,0l-2.5,1.25l-12.083,-23.75l-47.5,23.75Z" style="fill:#cfd4a2;"/><path d="M1057.754,242.317l-12.083,-23.75" style="fill:none;fill-rule:nonzero;stroke:#000;stroke-width:0.77px;"/><path d="M1064.421,242.734c-0.417,-0.833 -1.25,-1.25 -2.083,-1.667c-0.417,-0.417 -1.667,-0.417 -2.083,0" style="fill:none;fill-rule:nonzero;stroke:#000;stroke-width:0.77px;"/><path d="M1010.254,266.067l-2.5,1.25" style="fill:none;fill-rule:nonzero;stroke:#000;stroke-width:0.77px;"/><path d="M1060.254,241.067l-2.5,1.25" style="fill:none;fill-rule:nonzero;stroke:#000;stroke-width:0.77px;"/><path d="M1010.254,266.067c6.25,13.333 22.5,18.333 35.417,12.083c13.333,-6.667 18.333,-22.5 12.083,-35.833" style="fill:none;fill-rule:nonzero;stroke:#000;stroke-width:0.77px;"/><path d="M1006.504,271.484c8.75,14.167 27.083,19.167 42.083,11.667c14.583,-7.5 21.667,-25 15.833,-40.417" style="fill:none;fill-rule:nonzero;stroke:#000;stroke-width:0.77px;"/><path d="M998.171,242.317l12.083,23.75" style="fill:none;fill-rule:nonzero;stroke:#000;stroke-width:0.77px;"/><path d="M1045.671,218.567l-47.5,23.75" style="fill:none;fill-rule:nonzero;stroke:#000;stroke-width:0.77px;"/><path d="M1007.754,267.317c-0.833,0.417 -1.25,1.25 -1.667,2.083c-0.417,0.833 0,1.667 0.417,2.083" style="fill:none;fill-rule:nonzero;stroke:#000;stroke-width:0.77px;"/><rect x="941.921" y="162.317" width="141.667" height="70.833" style="fill:#ddb682;stroke:#000;stroke-width:0.77px;"/><path d="M767.754,991.067l-40.417,0l-0.833,-42.083c0.417,-11.25 9.583,-20.417 21.25,-20.417c11.25,0 20.833,9.167 21.25,20.417l-1.25,42.083Z" style="fill:#e0e0e0;stroke:#000;stroke-width:0.3px;"/><path d="M747.754,932.734c-3.75,0 -7.083,0.833 -10,2.917c-5,3.75 -7.917,9.583 -7.917,15.833c0.417,6.25 3.333,11.667 8.333,15.417c2.917,1.667 6.25,2.917 9.583,2.917c3.333,0 6.667,-1.25 9.583,-2.917c5,-3.75 7.917,-9.167 7.917,-15.417c0.417,-6.25 -2.5,-12.083 -7.5,-15.833c-2.917,-2.083 -6.25,-2.917 -10,-2.917Z" style="fill:#b4b4b4;stroke:#000;stroke-width:0.3px;"/><path d="M747.754,991.067l0,-2.5" style="fill:none;fill-rule:nonzero;stroke:#000;stroke-width:0.3px;"/><path d="M737.754,966.9c0.417,-1.667 0.417,-2.917 0.833,-4.583c0,-1.25 0.417,-2.5 1.25,-3.75c0.417,-1.25 1.667,-2.083 2.5,-2.917c0.833,-0.833 1.667,-1.25 2.5,-1.25c0.833,-0.417 1.667,-0.417 2.083,-0.417l0.833,0" style="fill:none;fill-rule:nonzero;stroke:#000;stroke-width:0.3px;"/><path d="M738.587,961.9c0.417,0.417 1.25,0.833 2.083,1.25c0.833,0.417 1.667,0.833 2.5,1.25c0.833,-0 1.667,-0 2.5,0.417l2.083,0" style="fill:none;fill-rule:nonzero;stroke:#000;stroke-width:0.3px;"/><path d="M740.254,977.317c0,-0.69 -0.653,-1.25 -1.458,-1.25c-0.805,0 -1.458,0.56 -1.458,1.25c0,0.69 0.653,1.25 1.458,1.25c0.805,0 1.458,-0.56 1.458,-1.25Z" style="fill:none;stroke:#000;stroke-width:0.3px;"/><path d="M757.337,966.9c0,-1.667 0,-2.917 -0.417,-4.583c-0.417,-1.25 -0.833,-2.5 -1.25,-3.75c-0.833,-1.25 -1.667,-2.083 -2.5,-2.917c-0.833,-0.833 -1.667,-1.25 -2.917,-1.25c-0.417,-0.417 -1.25,-0.417 -1.667,-0.417l-0.833,0" style="fill:none;fill-rule:nonzero;stroke:#000;stroke-width:0.3px;"/><path d="M756.921,961.9c-0.833,0.417 -1.25,0.833 -2.083,1.25c-0.833,0.417 -1.667,0.833 -2.5,1.25c-0.833,-0 -1.667,-0 -2.5,0.417l-2.083,0" style="fill:none;fill-rule:nonzero;stroke:#000;stroke-width:0.3px;"/><path d="M755.254,977.317c0,0.69 0.56,1.25 1.25,1.25c0.69,0 1.25,-0.56 1.25,-1.25c0,-0.69 -0.56,-1.25 -1.25,-1.25c-0.69,0 -1.25,0.56 -1.25,1.25Z" style="fill:none;stroke:#000;stroke-width:0.3px;"/><path d="M860.671,975.234l-25.833,0c-3.333,0 -5,-1.667 -5,-5l0,-24.583c0,-3.333 1.667,-5 5,-5l54.583,0c3.333,0 5,1.667 5,5l0,24.583c0,3.333 -1.667,5 -5,5l-19.583,0" style="fill:none;fill-rule:nonzero;stroke:#000;stroke-width:0.3px;"/><path d="M816.921,933.567l164.583,0c1.25,0 1.667,0.417 1.667,1.667l0,55.417c0,0.417 0,0.417 -0.417,0.417l-166.667,0c0,0 -0.417,0 -0.417,-0.417l0,-55.417c0,-1.25 0.417,-1.667 1.25,-1.667Z" style="fill:#f7f7f7;stroke:#000;stroke-width:1.48px;"/><path d="M942.337,979.817l-0.417,0" style="fill:none;fill-rule:nonzero;stroke:#000;stroke-width:0.3px;"/><path d="M935.671,975.234l-26.25,0c-2.917,0 -4.583,-1.667 -4.583,-5l0,-24.583c0,-3.333 1.667,-5 4.583,-5l55,0c2.917,0 4.583,1.667 4.583,5l0,24.583c0,3.333 -1.667,5 -4.583,5l-20,0" style="fill:none;fill-rule:nonzero;stroke:#000;stroke-width:0.3px;"/><path d="M869.837,979.4l0.417,0c0,0 0.417,0 0.417,0.417l0,4.167l-3.333,0l0,-4.167c0,-0.417 0,-0.417 0.417,-0.417l1.25,0" style="fill:none;fill-rule:nonzero;stroke:#000;stroke-width:0.3px;"/><path d="M944.421,979.4l0.833,0l0,4.583l-2.917,0l0,-4.583l1.25,0" style="fill:none;fill-rule:nonzero;stroke:#000;stroke-width:0.3px;"/><path d="M863.171,981.9l0,-25.417c0,-0.833 -0.417,-1.25 -1.25,-1.25c-0.417,0 -0.833,0.417 -0.833,1.25c0,8.75 -0.417,17.083 -0.417,25.417c0,0.417 0.417,0.417 0.417,0.833c0.417,0 0.417,0.417 0.833,0.417c0.417,0 0.833,-0.417 0.833,-0.417c0.417,-0.417 0.417,-0.417 0.417,-0.833Z" style="fill:none;fill-rule:nonzero;stroke:#000;stroke-width:0.3px;"/><path d="M938.171,981.9l0,-25.417c0,-0.833 -0.417,-1.25 -1.25,-1.25c-0.833,0 -1.25,0.417 -1.25,1.25l0,25.417c0,0.417 0,0.417 0.417,0.833c0,0 0.417,0.417 0.833,0.417c0.417,0 0.417,-0.417 0.833,-0.417c0,-0.417 0.417,-0.417 0.417,-0.833Z" style="fill:none;fill-rule:nonzero;stroke:#000;stroke-width:0.3px;"/><path d="M942.337,983.567l-0.417,0" style="fill:none;fill-rule:nonzero;stroke:#000;stroke-width:0.3px;"/><path d="M863.171,963.567c1.25,0.417 1.667,1.25 1.667,2.5c0,1.25 -0.833,2.083 -1.667,2.5" style="fill:none;fill-rule:nonzero;stroke:#000;stroke-width:0.3px;"/><path d="M938.171,963.567c0.833,0.417 1.667,1.25 1.667,2.5c0,1.25 -0.833,2.083 -1.667,2.5" style="fill:none;fill-rule:nonzero;stroke:#000;stroke-width:0.3px;"/><path d="M863.171,978.984c1.25,0.417 2.083,1.667 1.667,3.333c-0.417,1.667 -1.25,2.5 -2.917,2.5c-1.25,0 -2.5,-0.833 -2.917,-2.5c0,-1.667 0.417,-2.917 1.667,-3.333" style="fill:none;fill-rule:nonzero;stroke:#000;stroke-width:0.3px;"/><path d="M938.171,978.984c1.25,0.417 1.667,1.667 1.667,3.333c-0.417,1.667 -1.667,2.5 -2.917,2.5c-1.667,0 -2.5,-0.833 -2.917,-2.5c-0.417,-1.667 0.417,-2.917 1.667,-3.333" style="fill:none;fill-rule:nonzero;stroke:#000;stroke-width:0.3px;"/><path d="M860.671,968.567c-0.833,-0.417 -1.25,-1.667 -1.25,-2.5c0,-1.25 0.417,-2.083 1.667,-2.5" style="fill:none;fill-rule:nonzero;stroke:#000;stroke-width:0.3px;"/><path d="M935.671,968.567c-0.833,-0.417 -1.25,-1.667 -1.25,-2.5c0,-1.25 0.417,-2.083 1.25,-2.5" style="fill:none;fill-rule:nonzero;stroke:#000;stroke-width:0.3px;"/><path d="M863.587,984.4l3.75,0l0,-5l-3.333,0" style="fill:none;fill-rule:nonzero;stroke:#000;stroke-width:0.3px;"/><path d="M938.587,984.4l3.333,0l0,-5l-2.917,0" style="fill:none;fill-rule:nonzero;stroke:#000;stroke-width:0.3px;"/><path d="M869.004,980.65l0,-7.083c0,-0.417 0,-0.417 0.417,-0.417c0,0 0.417,0 0.417,0.417l0,7.083" style="fill:none;fill-rule:nonzero;stroke:#000;stroke-width:0.3px;"/><path d="M943.587,980.65l0,-7.083c0,-0.417 0.417,-0.417 0.417,-0.417l0.417,0l0,7.5" style="fill:none;fill-rule:nonzero;stroke:#000;stroke-width:0.3px;"/><path d="M869.004,975.234l-5.833,0" style="fill:none;fill-rule:nonzero;stroke:#000;stroke-width:0.3px;"/><path d="M943.587,975.234l-5.417,0" style="fill:none;fill-rule:nonzero;stroke:#000;stroke-width:0.3px;"/><path d="M860.671,975.234l-25.833,0c-3.333,0 -5,-1.667 -5,-5l0,-24.583c0,-3.333 1.667,-5 5,-5l54.583,0c3.333,0 5,1.667 5,5l0,24.583c0,3.333 -1.667,5 -5,5l-19.583,0" style="fill:none;fill-rule:nonzero;stroke:#000;stroke-width:0.3px;"/><path d="M988.587,778.567c-3.333,0 -5.417,1.667 -5.417,5.417l0,201.667c0,3.75 2.083,5.417 5.417,5.417l89.583,0c3.75,0 5.417,-1.667 5.417,-5.417l0,-201.667c0,-3.75 -1.667,-5.417 -5.417,-5.417l-89.583,0Z" style="fill:#f7f7f7;stroke:#000;stroke-width:1.48px;"/><path d="M1031.504,969.4c-12.083,-0.417 -20,-5.833 -23.333,-15.417c0,-0.417 -0.417,-1.25 -0.417,-2.083c-6.667,-45.417 -9.167,-83.75 -7.5,-114.583l0,-0.417c2.083,-17.5 12.917,-26.667 33.333,-27.083c20,0.417 31.25,9.583 32.917,27.083l0,0.417c2.083,30.833 -0.417,69.167 -7.083,114.583c-0.417,0.833 -0.417,1.667 -0.833,2.083c-3.333,9.583 -10.833,15 -23.333,15.417" style="fill:none;fill-rule:nonzero;stroke:#000;stroke-width:0.3px;"/><path d="M1035.671,971.484c0,-2.083 -0.417,-2.917 -2.083,-2.917c-1.667,0 -2.5,0.833 -2.5,2.917c0,3.75 -0.417,7.083 -0.417,10.833c-0.417,1.25 0,2.083 0.417,2.917c0.833,0.833 1.667,1.25 2.5,1.25c0.833,0 1.667,-0.417 2.083,-1.25c0.833,-0.833 0.833,-1.667 0.833,-2.917c0,-3.75 -0.417,-7.083 -0.833,-10.833Z" style="fill:none;fill-rule:nonzero;stroke:#000;stroke-width:0.3px;"/><path d="M1031.504,974.817c-0.417,2.917 -0.417,5.417 -0.833,8.333c0,0.833 0.417,1.667 0.833,2.083c0.417,0.833 1.25,0.833 2.083,0.833c0.833,0 1.25,0 2.083,-0.833c0.417,-0.417 0.417,-1.25 0.417,-2.083c0,-2.917 -0.417,-5.417 -0.417,-8.333c0,-1.667 -0.833,-2.083 -2.083,-2.083c-1.667,0 -2.083,0.417 -2.083,2.083Z" style="fill:none;fill-rule:nonzero;stroke:#000;stroke-width:0.3px;"/><path d="M1033.587,956.484c2.083,0 3.75,-1.25 3.75,-3.333c0,-2.083 -1.667,-3.75 -3.75,-3.75c-2.5,0 -4.167,1.667 -4.167,3.75c0,2.083 1.667,3.333 4.167,3.333" style="fill:none;fill-rule:nonzero;stroke:#000;stroke-width:0.3px;"/><path d="M1030.671,979.4c-17.083,-0.833 -28.333,-7.083 -33.75,-18.75c-0.417,-0.833 -0.833,-1.667 -1.25,-2.5c-6.25,-52.5 -8.75,-97.917 -7.5,-135.417l0,-1.25c3.333,-23.75 18.333,-35.833 45.417,-36.667c27.083,0.833 42.083,12.917 45,36.667c0.417,0.417 0.417,0.833 0.417,1.25c1.25,37.5 -1.25,82.917 -7.917,135.417c0,0.833 -0.417,1.667 -0.833,2.5c-5.417,11.667 -16.667,17.917 -33.75,18.75" style="fill:none;fill-rule:nonzero;stroke:#000;stroke-width:0.3px;"/><rect x="50.254" y="546.067" width="141.667" height="70.833" style="fill:#ddb682;stroke:#000;stroke-width:0.77px;"/><path d="M50.254,546.067l70.833,70.833l70.833,-70.833" style="fill:none;fill-rule:nonzero;stroke:#000;stroke-width:0.3px;"/><rect x="191.921" y="546.067" width="47.5" height="70.833" style="fill:#ddb682;stroke:#000;stroke-width:0.77px;"/><path d="M191.921,546.067l23.75,70.833l23.75,-70.833" style="fill:none;fill-rule:nonzero;stroke:#000;stroke-width:0.3px;"/><rect x="304.004" y="563.984" width="142.083" height="70.833" style="fill:#ddb682;stroke:#000;stroke-width:0.77px;"/><path d="M446.087,634.817l-70.833,-70.833l-71.25,70.833" style="fill:none;fill-rule:nonzero;stroke:#000;stroke-width:0.3px;"/><rect x="256.921" y="563.567" width="47.083" height="70.833" style="fill:#ddb682;stroke:#000;stroke-width:0.77px;"/><path d="M304.004,634.4l-23.333,-70.833l-23.75,70.833" style="fill:none;fill-rule:nonzero;stroke:#000;stroke-width:0.3px;"/><rect x="410.671" y="162.317" width="35.417" height="70.833" style="fill:#ddb682;stroke:#000;stroke-width:0.77px;"/><path d="M410.671,233.15l35.417,-70.833" style="fill:none;fill-rule:nonzero;stroke:#000;stroke-width:0.3px;"/><rect x="410.671" y="233.15" width="35.417" height="70.833" style="fill:#ddb682;stroke:#000;stroke-width:0.77px;"/><path d="M410.671,303.984l35.417,-70.833" style="fill:none;fill-rule:nonzero;stroke:#000;stroke-width:0.3px;"/><rect x="410.671" y="303.984" width="35.417" height="65" style="fill:#ddb682;stroke:#000;stroke-width:0.77px;"/><path d="M410.671,368.984l35.417,-65" style="fill:none;fill-rule:nonzero;stroke:#000;stroke-width:0.3px;"/><path d="M444.837,563.567l1.25,-0.833m-22.083,0.833l17.5,-17.5m-38.333,17.5l17.5,-17.5m-38.333,17.5l17.5,-17.5m-38.333,17.5l17.5,-17.5m-38.75,17.5l17.917,-17.5m-38.75,17.5l17.917,-17.5m-38.75,17.5l17.917,-17.5m-38.75,17.5l17.917,-17.5m-38.75,17.5l17.917,-17.5" style="fill:none;fill-rule:nonzero;stroke:#000;stroke-opacity:0.31;stroke-width:1.48px;"/><path d="M256.921,546.067l189.167,0m0,17.5l-189.167,0" style="fill:none;fill-rule:nonzero;stroke:#2b2b2b;stroke-width:2.95px;stroke-linecap:round;"/><path d="M248.171,625.65l8.75,-8.75m-17.5,-3.333l17.5,-17.5m-17.5,-3.333l17.5,-17.5m-17.5,-3.333l17.5,-17.5m-17.5,-3.333l5,-5" style="fill:none;fill-rule:nonzero;stroke:#000;stroke-opacity:0.31;stroke-width:1.48px;"/><path d="M239.421,546.067l17.5,0m0,17.5l0,70.833l-8.75,0m-8.75,-17.5l0,-70.833" style="fill:none;fill-rule:nonzero;stroke:#2b2b2b;stroke-width:2.95px;stroke-linecap:round;"/><path d="M670.254,761.067l17.917,-17.917m-17.917,-2.917l17.917,-17.917m-17.917,-3.333l17.917,-17.5m-17.917,-3.333l17.917,-17.5m-17.917,-3.333l1.667,-1.25m1.667,-106.25l14.583,-14.583m-17.917,-2.917l17.917,-17.917m-17.917,-2.917l17.917,-17.917m-17.917,-3.333l17.917,-17.5m-17.917,-3.333l17.917,-17.5m-17.917,-3.333l17.917,-17.5m-17.917,-3.333l17.917,-17.5m-17.917,-3.333l17.917,-17.917m-17.917,-2.917l17.917,-17.917m-17.917,-2.917l17.917,-17.917m-17.917,-2.917l17.917,-17.917m-17.917,-2.917l17.917,-17.917m-17.917,-3.333l17.917,-17.5m-17.917,-3.333l17.917,-17.5m-17.917,-3.333l17.917,-17.5m-17.917,-3.333l17.917,-17.5m-17.917,-3.333l17.917,-17.917m-17.917,-2.917l17.917,-17.917m-17.917,-2.917l17.917,-17.917m-17.917,-2.917l14.167,-14.167" style="fill:none;fill-rule:nonzero;stroke:#000;stroke-opacity:0.31;stroke-width:1.48px;"/><path d="M670.254,569.817l0,-142.083m0,-17.5l0,-247.917m17.917,0l0,407.5l-17.917,0m17.917,106.25l0,85m-17.917,0l0,-85l17.917,0" style="fill:none;fill-rule:nonzero;stroke:#2b2b2b;stroke-width:2.95px;stroke-linecap:round;"/><path d="M652.754,426.9l16.667,-16.667m-143.333,17.5l17.917,-17.5m-38.75,17.5l17.917,-17.5m-38.75,17.5l17.917,-17.5m-38.75,17.5l17.917,-17.5" style="fill:none;fill-rule:nonzero;stroke:#000;stroke-opacity:0.31;stroke-width:1.48px;"/><path d="M670.254,427.734l-17.5,0l0,-17.5l17.5,0m-123.75,17.5l-82.917,0m11.667,-17.5l71.25,0l0,17.5" style="fill:none;fill-rule:nonzero;stroke:#2b2b2b;stroke-width:2.95px;stroke-linecap:round;"/><path d="M446.087,1012.317l17.5,-17.5m-17.5,-3.333l17.5,-17.5m-17.5,-3.333l17.5,-17.5m-17.5,-3.333l17.5,-17.5m-17.5,-3.333l17.5,-17.5m-17.5,-3.333l17.5,-17.917m-17.5,-2.917l17.5,-17.917m-17.5,-2.917l17.5,-17.917m-17.5,-2.917l17.5,-17.917m-17.5,-2.917l17.5,-17.917m-17.5,-3.333l17.5,-17.5m-17.5,-3.333l17.5,-17.5m-17.5,-3.333l17.5,-17.5m-17.5,-3.333l5.833,-6.25m11.25,-94.167l0.417,-0.833m-17.5,-2.917l17.5,-17.917m-17.5,-3.333l17.5,-17.5m-17.5,-3.333l17.5,-17.5m-17.5,-3.333l17.5,-17.5m-17.5,-3.333l12.917,-12.917m2.083,-106.25l2.5,-2.917m-17.5,-3.333l17.5,-17.5m-17.5,-3.333l17.5,-17.5m-17.5,-3.333l17.5,-17.5m-17.5,-3.333l17.5,-17.5m-17.5,-3.333l17.5,-17.917m-17.5,-2.917l17.5,-17.917m-17.5,-2.917l17.5,-17.917m-17.5,-2.917l17.5,-17.917m-17.5,-2.917l17.5,-17.917m-17.5,-3.333l17.5,-17.5m-17.5,-3.333l17.5,-17.5m-17.5,-3.333l17.5,-17.5m-17.5,-3.333l15,-15" style="fill:none;fill-rule:nonzero;stroke:#000;stroke-opacity:0.31;stroke-width:1.48px;"/><path d="M463.587,427.734l0,6.25l-17.5,0l0,-271.667m0,377.917l17.5,0l0,100.417l-17.5,0l0,-77.083m0,-17.5l0,-5.833m0,472.5l0,-277.917l17.5,0l0,277.917" style="fill:none;fill-rule:nonzero;stroke:#2b2b2b;stroke-width:2.95px;stroke-linecap:round;"/><path d="M670.254,1012.317l17.917,-17.5m-17.917,-3.333l17.917,-17.5m-17.917,-3.333l17.917,-17.5m-17.917,-3.333l17.917,-17.5m-17.917,-3.333l17.917,-17.5m-17.917,-3.333l2.083,-2.083m10.833,-94.167l5,-5m-17.917,-3.333l17.917,-17.5m-17.917,-3.333l4.167,-4.167" style="fill:none;fill-rule:nonzero;stroke:#000;stroke-opacity:0.31;stroke-width:1.48px;"/><path d="M688.171,811.9l-17.917,0l0,-33.333m17.917,0l0,33.333m-17.917,200.833l0,-106.667l17.917,0l0,85" style="fill:none;fill-rule:nonzero;stroke:#2b2b2b;stroke-width:2.95px;stroke-linecap:round;"/><path d="M238.171,634.4l10,-9.583m-30.833,9.583l17.5,-17.5m-38.333,17.5l17.5,-17.5m-38.333,17.5l17.5,-17.5m-38.333,17.5l17.5,-17.5m-38.75,17.5l17.917,-17.5m-38.75,17.5l17.917,-17.5m-38.75,17.5l17.917,-17.5m-38.75,17.5l17.917,-17.5m-38.75,17.5l17.917,-17.5" style="fill:none;fill-rule:nonzero;stroke:#000;stroke-opacity:0.31;stroke-width:1.48px;"/><path d="M239.421,634.4l-189.167,0m0,-17.5l189.167,0m8.75,17.5l-8.75,0" style="fill:none;fill-rule:nonzero;stroke:#2b2b2b;stroke-width:2.95px;stroke-linecap:round;"/><path d="M1066.921,778.567l16.667,-16.667m-37.5,16.667l17.917,-17.5m-38.75,17.5l17.917,-17.5m-38.75,17.5l17.5,-17.5m-38.333,17.5l17.5,-17.5m-38.333,17.5l17.5,-17.5m-38.333,17.5l17.5,-17.5m-38.333,17.5l17.5,-17.5m-38.75,17.5l17.917,-17.5m-38.75,17.5l17.917,-17.5m-38.75,17.5l17.917,-17.5m-38.75,17.5l17.917,-17.5m-38.75,17.5l17.5,-17.5m-38.333,17.5l17.5,-17.5m-38.333,17.5l17.5,-17.5m-38.333,17.5l17.5,-17.5m-38.333,17.5l17.5,-17.5m-38.75,17.5l17.917,-17.5m-38.75,17.5l17.917,-17.5m-38.75,17.5l17.917,-17.5" style="fill:none;fill-rule:nonzero;stroke:#000;stroke-opacity:0.31;stroke-width:1.48px;"/><path d="M688.171,761.067l395.417,0m0,17.5l-395.417,0m-17.917,0l0,-17.5" style="fill:none;fill-rule:nonzero;stroke:#2b2b2b;stroke-width:2.95px;stroke-linecap:round;"/><rect x="50.254" y="1012.734" width="413.333" height="35.417" style="fill:#fff;fill-opacity:0.1;"/><path d="M446.921,1048.15l16.667,-16.667m-37.5,16.667l35.417,-35.417m-56.25,35.417l35.417,-35.417m-56.25,35.417l35.417,-35.417m-56.25,35.417l35.417,-35.417m-56.25,35.417l35.417,-35.417m-56.667,35.417l35.417,-35.417m-56.25,35.417l35.417,-35.417m-56.25,35.417l35.417,-35.417m-56.25,35.417l35.417,-35.417m-56.25,35.417l35.417,-35.417m-56.25,35.417l35.417,-35.417m-56.25,35.417l35.417,-35.417m-56.25,35.417l35.417,-35.417m-56.25,35.417l35.417,-35.417m-56.667,35.417l35.417,-35.417m-56.25,35.417l35.417,-35.417m-56.25,35.417l35.417,-35.417m-56.25,35.417l35.417,-35.417m-56.25,35.417l35.417,-35.417m-35.417,14.167l14.583,-14.167m398.75,10l-10.417,-10m10.417,30.833l-31.25,-30.833m14.583,35.417l-35.417,-35.417m14.583,35.417l-35.417,-35.417m14.583,35.417l-35.417,-35.417m14.583,35.417l-35.417,-35.417m14.583,35.417l-35.417,-35.417m14.583,35.417l-35.833,-35.417m14.583,35.417l-35.417,-35.417m14.583,35.417l-35.417,-35.417m14.583,35.417l-35.417,-35.417m14.583,35.417l-35.417,-35.417m14.583,35.417l-35.417,-35.417m14.583,35.417l-35.417,-35.417m14.583,35.417l-35.417,-35.417m14.583,35.417l-35.417,-35.417m14.583,35.417l-35.833,-35.417m14.583,35.417l-35.417,-35.417m14.583,35.417l-35.417,-35.417m14.583,35.417l-35.417,-35.417m14.583,35.417l-20.833,-21.25" style="fill:none;fill-rule:nonzero;stroke:#000;stroke-opacity:0.31;stroke-width:1.48px;"/><path d="M50.254,1012.734l395.833,0m17.5,0l0,35.417l-413.333,0" style="fill:none;fill-rule:nonzero;stroke:#2b2b2b;stroke-width:2.95px;stroke-linecap:round;"/><rect x="14.837" y="162.317" width="35.417" height="885.833" style="fill:#fff;fill-opacity:0.1;"/><path d="M35.671,1048.15l14.583,-14.583m-35.417,14.583l35.417,-35.417m-35.417,14.167l35.417,-35.417m-35.417,14.583l35.417,-35.417m-35.417,14.583l35.417,-35.417m-35.417,14.583l35.417,-35.417m-35.417,14.583l35.417,-35.417m-35.417,14.583l35.417,-35.417m-35.417,14.583l35.417,-35.417m-35.417,14.583l35.417,-35.417m-35.417,14.583l35.417,-35.417m-35.417,14.167l35.417,-35.417m-35.417,14.583l35.417,-35.417m-35.417,14.583l35.417,-35.417m-35.417,14.583l35.417,-35.417m-35.417,14.583l35.417,-35.417m-35.417,14.583l35.417,-35.417m-35.417,14.583l35.417,-35.417m-35.417,14.583l35.417,-35.417m-35.417,14.583l35.417,-35.417m-35.417,14.167l35.417,-35.417m-35.417,14.583l35.417,-35.417m-35.417,14.583l35.417,-35.417m-35.417,14.583l35.417,-35.417m-35.417,14.583l35.417,-35.417m-35.417,14.583l35.417,-35.417m-35.417,14.583l35.417,-35.417m-35.417,14.583l35.417,-35.417m-35.417,14.583l35.417,-35.417m-35.417,14.167l35.417,-35.417m-35.417,14.583l35.417,-35.417m-35.417,14.583l35.417,-35.417m-35.417,14.583l35.417,-35.417m-35.417,14.583l35.417,-35.417m-35.417,14.583l35.417,-35.417m-35.417,14.583l35.417,-35.417m-35.417,14.583l35.417,-35.417m-35.417,14.583l35.417,-35.417m-35.417,14.167l35.417,-35.417m-35.417,14.583l35.417,-35.417m-35.417,14.583l35.417,-35.417m-35.417,14.583l35.417,-35.417m-35.417,14.583l29.583,-29.583m-29.583,8.75l8.75,-8.75m26.667,2.5l-2.5,-2.5m2.5,23.333l-23.333,-23.333m23.333,44.167l-35.417,-35.417m35.417,56.25l-35.417,-35.417m35.417,56.25l-35.417,-35.417m35.417,56.25l-35.417,-35.417m35.417,56.25l-35.417,-35.417m35.417,56.667l-35.417,-35.833m35.417,56.667l-35.417,-35.417m35.417,56.25l-35.417,-35.417m35.417,56.25l-35.417,-35.417m35.417,56.25l-35.417,-35.417m35.417,56.25l-35.417,-35.417m35.417,56.25l-35.417,-35.417m35.417,56.25l-35.417,-35.417m35.417,56.25l-35.417,-35.417m35.417,56.667l-35.417,-35.833m35.417,56.667l-35.417,-35.417m35.417,56.25l-35.417,-35.417m35.417,56.25l-35.417,-35.417m35.417,56.25l-35.417,-35.417m35.417,56.25l-35.417,-35.417m35.417,56.25l-35.417,-35.417m35.417,56.25l-35.417,-35.417m35.417,56.25l-35.417,-35.417m35.417,56.25l-35.417,-35.417m35.417,56.667l-35.417,-35.417m35.417,56.25l-35.417,-35.417m35.417,56.25l-35.417,-35.417m35.417,56.25l-35.417,-35.417m35.417,56.25l-35.417,-35.417m35.417,56.25l-35.417,-35.417m35.417,56.25l-35.417,-35.417m35.417,56.25l-35.417,-35.417m35.417,56.25l-35.417,-35.417m35.417,56.667l-35.417,-35.417m35.417,56.25l-35.417,-35.417m35.417,56.25l-35.417,-35.417m35.417,56.25l-35.417,-35.417m35.417,56.25l-35.417,-35.417m35.417,56.25l-35.417,-35.417m35.417,56.25l-35.417,-35.417m35.417,56.25l-35.417,-35.417m20.833,42.083l-20.833,-21.25" style="fill:none;fill-rule:nonzero;stroke:#000;stroke-opacity:0.31;stroke-width:1.48px;"/><path d="M14.837,1048.15l0,-885.833m35.417,0l0,454.583m0,17.5l0,378.333m0,35.417l-35.417,0" style="fill:none;fill-rule:nonzero;stroke:#2b2b2b;stroke-width:2.95px;stroke-linecap:round;"/><path d="M670.254,1048.15l413.333,0l0,-35.417l-413.333,0l0,35.417Z" style="fill:#fff;fill-opacity:0.1;"/><path d="M1066.921,1048.15l16.667,-16.667m-37.5,16.667l35.417,-35.417m-56.25,35.417l35.417,-35.417m-56.25,35.417l35.417,-35.417m-56.25,35.417l35.417,-35.417m-56.25,35.417l35.417,-35.417m-56.25,35.417l35.417,-35.417m-56.25,35.417l35.417,-35.417m-56.667,35.417l35.417,-35.417m-56.25,35.417l35.417,-35.417m-56.25,35.417l35.417,-35.417m-56.25,35.417l35.417,-35.417m-56.25,35.417l35.417,-35.417m-56.25,35.417l35.417,-35.417m-56.25,35.417l35.417,-35.417m-56.25,35.417l35.417,-35.417m-56.25,35.417l35.417,-35.417m-56.667,35.417l35.417,-35.417m-56.25,35.417l35.417,-35.417m-56.25,35.417l35.417,-35.417m-35.417,14.167l14.583,-14.167m398.75,10l-10.417,-10m10.417,30.833l-31.25,-30.833m14.583,35.417l-35.417,-35.417m14.583,35.417l-35.417,-35.417m14.583,35.417l-35.417,-35.417m14.583,35.417l-35.417,-35.417m14.583,35.417l-35.417,-35.417m14.583,35.417l-35.417,-35.417m14.583,35.417l-35.417,-35.417m14.583,35.417l-35.833,-35.417m14.583,35.417l-35.417,-35.417m14.583,35.417l-35.417,-35.417m14.583,35.417l-35.417,-35.417m14.583,35.417l-35.417,-35.417m14.583,35.417l-35.417,-35.417m14.583,35.417l-35.417,-35.417m14.583,35.417l-35.417,-35.417m14.583,35.417l-35.417,-35.417m14.583,35.417l-35.833,-35.417m14.583,35.417l-35.417,-35.417m14.583,35.417l-20.833,-21.25" style="fill:none;fill-rule:nonzero;stroke:#000;stroke-opacity:0.31;stroke-width:1.48px;"/><path d="M1083.587,1048.15l-413.333,0l0,-35.417" style="fill:none;fill-rule:nonzero;stroke:#2b2b2b;stroke-width:2.95px;stroke-linecap:round;"/><rect x="1083.587" y="162.317" width="35.417" height="885.833" style="fill:#fff;fill-opacity:0.1;"/><path d="M1104.421,1048.15l14.583,-14.583m-35.417,14.167l35.417,-35.417m-35.417,14.583l35.417,-35.417m-35.417,14.583l35.417,-35.417m-35.417,14.583l35.417,-35.417m-35.417,14.583l35.417,-35.417m-35.417,14.583l35.417,-35.417m-35.417,14.583l35.417,-35.417m-35.417,14.583l35.417,-35.417m-35.417,14.583l35.417,-35.417m-35.417,14.583l35.417,-35.833m-35.417,14.583l35.417,-35.417m-35.417,14.583l35.417,-35.417m-35.417,14.583l35.417,-35.417m-35.417,14.583l35.417,-35.417m-35.417,14.583l35.417,-35.417m-35.417,14.583l35.417,-35.417m-35.417,14.583l35.417,-35.417m-35.417,14.583l35.417,-35.417m-35.417,14.583l35.417,-35.833m-35.417,14.583l35.417,-35.417m-35.417,14.583l35.417,-35.417m-35.417,14.583l35.417,-35.417m-35.417,14.583l35.417,-35.417m-35.417,14.583l35.417,-35.417m-35.417,14.583l35.417,-35.417m-35.417,14.583l35.417,-35.417m-35.417,14.583l35.417,-35.417m-35.417,14.583l35.417,-35.833m-35.417,14.583l35.417,-35.417m-35.417,14.583l35.417,-35.417m-35.417,14.583l35.417,-35.417m-35.417,14.583l35.417,-35.417m-35.417,14.583l35.417,-35.417m-35.417,14.583l35.417,-35.417m-35.417,14.583l35.417,-35.417m-35.417,14.583l35.417,-35.417m-35.417,14.583l35.417,-35.417m-35.417,14.167l35.417,-35.417m-35.417,14.583l35.417,-35.417m-35.417,14.583l35.417,-35.417m-35.417,14.583l35.417,-35.417m-35.417,14.583l30,-29.583m-30,8.75l9.167,-8.75m26.25,2.5l-2.5,-2.5m2.5,23.333l-23.333,-23.333m23.333,44.167l-35.417,-35.417m35.417,56.25l-35.417,-35.417m35.417,56.25l-35.417,-35.417m35.417,56.25l-35.417,-35.417m35.417,56.25l-35.417,-35.417m35.417,56.667l-35.417,-35.417m35.417,56.25l-35.417,-35.417m35.417,56.25l-35.417,-35.417m35.417,56.25l-35.417,-35.417m35.417,56.25l-35.417,-35.417m35.417,56.25l-35.417,-35.417m35.417,56.25l-35.417,-35.417m35.417,56.25l-35.417,-35.417m35.417,56.25l-35.417,-35.417m35.417,56.667l-35.417,-35.833m35.417,56.667l-35.417,-35.417m35.417,56.25l-35.417,-35.417m35.417,56.25l-35.417,-35.417m35.417,56.25l-35.417,-35.417m35.417,56.25l-35.417,-35.417m35.417,56.25l-35.417,-35.417m35.417,56.25l-35.417,-35.417m35.417,56.25l-35.417,-35.417m35.417,56.667l-35.417,-35.833m35.417,56.667l-35.417,-35.417m35.417,56.25l-35.417,-35.417m35.417,56.25l-35.417,-35.417m35.417,56.25l-35.417,-35.417m35.417,56.25l-35.417,-35.417m35.417,56.25l-35.417,-35.417m35.417,56.25l-35.417,-35.417m35.417,56.25l-35.417,-35.417m35.417,56.667l-35.417,-35.833m35.417,56.667l-35.417,-35.417m35.417,56.25l-35.417,-35.417m35.417,56.25l-35.417,-35.417m35.417,56.25l-35.417,-35.417m35.417,56.25l-35.417,-35.417m35.417,56.25l-35.417,-35.417m35.417,56.25l-35.417,-35.417m35.417,56.25l-35.417,-35.417m20.833,42.083l-20.833,-21.25" style="fill:none;fill-rule:nonzero;stroke:#000;stroke-opacity:0.31;stroke-width:1.48px;"/><path d="M1119.004,162.317l0,885.833l-35.417,0m0,-57.083l0,-212.5m0,-17.5l0,-598.75" style="fill:none;fill-rule:nonzero;stroke:#2b2b2b;stroke-width:2.95px;stroke-linecap:round;"/><rect x="14.837" y="126.9" width="1104.167" height="35.417" style="fill:#fff;fill-opacity:0.1;"/><path d="M1100.671,162.317l18.333,-18.75m-39.167,18.75l35.417,-35.417m-56.667,35.417l35.417,-35.417m-56.25,35.417l35.417,-35.417m-56.25,35.417l35.417,-35.417m-56.25,35.417l35.417,-35.417m-56.25,35.417l35.417,-35.417m-56.25,35.417l35.417,-35.417m-56.25,35.417l35.417,-35.417m-56.25,35.417l35.417,-35.417m-56.25,35.417l35.417,-35.417m-56.667,35.417l35.417,-35.417m-56.25,35.417l35.417,-35.417m-56.25,35.417l35.417,-35.417m-56.25,35.417l35.417,-35.417m-56.25,35.417l35.417,-35.417m-56.25,35.417l35.417,-35.417m-56.25,35.417l35.417,-35.417m-56.25,35.417l35.417,-35.417m-56.25,35.417l35.417,-35.417m-56.667,35.417l35.833,-35.417m-56.667,35.417l35.417,-35.417m-56.25,35.417l35.417,-35.417m-56.25,35.417l35.417,-35.417m-56.25,35.417l35.417,-35.417m-56.25,35.417l35.417,-35.417m-56.25,35.417l35.417,-35.417m-56.25,35.417l35.417,-35.417m-56.25,35.417l35.417,-35.417m-56.667,35.417l35.833,-35.417m-56.667,35.417l35.417,-35.417m-56.25,35.417l35.417,-35.417m-56.25,35.417l35.417,-35.417m-56.25,35.417l35.417,-35.417m-56.25,35.417l35.417,-35.417m-56.25,35.417l35.417,-35.417m-56.25,35.417l35.417,-35.417m-56.25,35.417l35.417,-35.417m-56.667,35.417l35.833,-35.417m-56.667,35.417l35.417,-35.417m-56.25,35.417l35.417,-35.417m-56.25,35.417l35.417,-35.417m-56.25,35.417l35.417,-35.417m-56.25,35.417l35.417,-35.417m-56.25,35.417l35.417,-35.417m-56.25,35.417l35.417,-35.417m-56.25,35.417l35.417,-35.417m-56.667,35.417l35.833,-35.417m-56.667,35.417l35.417,-35.417m-56.25,35.417l35.417,-35.417m-56.25,35.417l35.417,-35.417m-56.25,35.417l35.417,-35.417m-56.25,35.417l35.417,-35.417m-35.417,14.167l14.583,-14.167m1089.583,12.083l-12.083,-12.083m12.083,32.917l-32.917,-32.917m14.583,35.417l-35.417,-35.417m14.583,35.417l-35.417,-35.417m14.167,35.417l-35.417,-35.417m14.583,35.417l-35.417,-35.417m14.583,35.417l-35.417,-35.417m14.583,35.417l-35.417,-35.417m14.583,35.417l-35.417,-35.417m14.583,35.417l-35.417,-35.417m14.583,35.417l-35.417,-35.417m14.583,35.417l-35.417,-35.417m14.583,35.417l-35.417,-35.417m14.167,35.417l-35.417,-35.417m14.583,35.417l-35.417,-35.417m14.583,35.417l-35.417,-35.417m14.583,35.417l-35.417,-35.417m14.583,35.417l-35.417,-35.417m14.583,35.417l-35.417,-35.417m14.583,35.417l-35.417,-35.417m14.583,35.417l-35.417,-35.417m14.583,35.417l-35.417,-35.417m14.167,35.417l-35.417,-35.417m14.583,35.417l-35.417,-35.417m14.583,35.417l-35.417,-35.417m14.583,35.417l-35.417,-35.417m14.583,35.417l-35.417,-35.417m14.583,35.417l-35.417,-35.417m14.583,35.417l-35.417,-35.417m14.583,35.417l-35.417,-35.417m14.583,35.417l-35.417,-35.417m14.167,35.417l-35.417,-35.417m14.583,35.417l-35.417,-35.417m14.583,35.417l-35.417,-35.417m14.583,35.417l-35.417,-35.417m14.583,35.417l-35.417,-35.417m14.583,35.417l-35.417,-35.417m14.583,35.417l-35.417,-35.417m14.583,35.417l-35.417,-35.417m14.583,35.417l-35.417,-35.417m14.167,35.417l-35.417,-35.417m14.583,35.417l-35.417,-35.417m14.583,35.417l-35.417,-35.417m14.583,35.417l-35.417,-35.417m14.583,35.417l-35.417,-35.417m14.583,35.417l-35.417,-35.417m14.583,35.417l-35.417,-35.417m14.583,35.417l-35.417,-35.417m14.583,35.417l-35.417,-35.417m14.167,35.417l-35.417,-35.417m14.583,35.417l-35.417,-35.417m14.583,35.417l-35.417,-35.417m14.583,35.417l-35.417,-35.417m14.583,35.417l-20.833,-21.25" style="fill:none;fill-rule:nonzero;stroke:#000;stroke-opacity:0.31;stroke-width:1.48px;"/><path d="M1083.587,126.9l35.417,0l0,35.417m-35.417,0l-395.417,0m-17.917,0l-195,0m-29.167,0l-395.833,0m-35.417,0l0,-35.417l1068.75,0" style="fill:none;fill-rule:nonzero;stroke:#2b2b2b;stroke-width:2.95px;stroke-linecap:round;"/><path d="M534.421,870.65l-70.833,0l0,142.083l70.833,0l0,-142.083Z" style="fill:#ddb682;stroke:#000;stroke-width:0.77px;"/><path d="M534.421,870.65l-70.833,70.833l70.833,71.25" style="fill:none;fill-rule:nonzero;stroke:#000;stroke-width:0.3px;"/><path d="M534.421,734.817l-70.833,0l0,135.833l70.833,0l0,-135.833Z" style="fill:#ddb682;stroke:#000;stroke-width:0.77px;"/><path d="M534.421,734.817l-70.833,67.917l70.833,67.917" style="fill:none;fill-rule:nonzero;stroke:#000;stroke-width:0.3px;"/><path d="M534.421,569.817l-70.833,0l0,70.833l70.833,0l0,-70.833Z" style="fill:#ddb682;stroke:#000;stroke-width:0.77px;"/><path d="M534.421,569.817l-70.833,35.417l70.833,35.417" style="fill:none;fill-rule:nonzero;stroke:#000;stroke-width:0.3px;"/><rect x="463.587" y="162.317" width="11.667" height="247.917" style="fill:#ddd;"/><path d="M475.254,162.317l0,247.917" style="fill:none;fill-rule:nonzero;stroke:#2b2b2b;stroke-width:2.95px;stroke-linecap:round;"/><path d="M552.337,427.734l0,-17.5" style="fill:none;fill-rule:nonzero;stroke:#000;stroke-width:0.3px;"/><path d="M646.921,427.734l0,-112.083" style="fill:none;fill-rule:nonzero;stroke:#000;stroke-width:0.3px;"/><path d="M646.921,315.65c-52.5,0 -94.583,42.5 -94.583,94.583" style="fill:none;fill-rule:nonzero;stroke:#000;stroke-width:0.3px;"/><rect x="546.504" y="410.234" width="106.25" height="17.5" style="fill:none;fill-rule:nonzero;stroke:#000;stroke-width:0.3px;"/><path d="M544.837,172.317c2.083,16.667 2.083,33.75 -0.417,50.417l-3.333,0.417l-0.833,10l-65,0l0,-70.833l65,0l0.417,4.583l1.25,0l0,2.917l-0.833,0l0,2.5l3.75,0Z" style="fill:#f7f7f7;stroke:#000;stroke-width:1.48px;"/><path d="M542.337,203.15l2.083,0l0,-10.833l-2.083,0" style="fill:none;fill-rule:nonzero;stroke:#18181b;stroke-width:0.3px;"/><path d="M541.087,169.817l-0.417,-2.917" style="fill:none;fill-rule:nonzero;stroke:#18181b;stroke-width:0.3px;"/><path d="M538.171,233.15l0,-18.75l3.75,0" style="fill:none;fill-rule:nonzero;stroke:#18181b;stroke-width:0.3px;"/><path d="M536.087,233.15l0,-70.833" style="fill:none;fill-rule:nonzero;stroke:#18181b;stroke-width:0.3px;"/><path d="M541.087,223.15c1.667,-16.667 1.667,-33.333 0,-50" style="fill:none;fill-rule:nonzero;stroke:#18181b;stroke-width:0.3px;"/><ellipse cx="506.087" cy="197.317" rx="11.25" ry="13.75" style="fill:none;stroke:#bcbcbc;stroke-width:0.3px;"/><path d="M506.087,183.984c0.417,0.417 0.833,1.25 0.833,2.083c0,0.833 -0.417,1.25 -0.833,2.083c-0.417,0.417 -0.833,0.833 -0.833,1.667c0,0.833 0.417,1.667 0.833,2.083c0.833,0.417 0.833,1.25 0.833,2.083c0,0.833 0,1.667 -0.833,2.083c-0.417,0.417 -0.833,1.25 -0.833,2.083c0,0.833 0.417,1.25 0.833,1.667c0.833,0.417 0.833,1.25 0.833,2.083c0,0.833 0,1.667 -0.833,2.083c-0.417,0.417 -0.833,1.25 -0.833,2.083c0,0.833 0.417,1.25 0.833,1.667c0.417,0.417 0.833,1.25 0.833,1.667c0,0.417 -0.417,1.25 -0.833,1.25" style="fill:none;fill-rule:nonzero;stroke:#bcbcbc;stroke-width:0.3px;"/><path d="M544.837,243.15c2.083,16.667 2.083,33.75 -0.417,50.417l-3.333,0.417l-0.833,10l-65,0l0,-70.833l65,0l0.417,4.583l1.25,0l0,2.917l-0.833,0l0,2.917l3.75,-0.417Z" style="fill:#f7f7f7;stroke:#000;stroke-width:1.48px;"/><path d="M542.337,273.984l2.083,0l0,-10.833l-2.083,0" style="fill:none;fill-rule:nonzero;stroke:#18181b;stroke-width:0.3px;"/><path d="M541.087,240.65l-0.417,-2.917" style="fill:none;fill-rule:nonzero;stroke:#18181b;stroke-width:0.3px;"/><path d="M538.171,303.984l0,-18.75l3.75,0" style="fill:none;fill-rule:nonzero;stroke:#18181b;stroke-width:0.3px;"/><path d="M536.087,303.984l0,-70.833" style="fill:none;fill-rule:nonzero;stroke:#18181b;stroke-width:0.3px;"/><path d="M541.087,293.984c1.667,-16.667 1.667,-33.333 0,-50" style="fill:none;fill-rule:nonzero;stroke:#18181b;stroke-width:0.3px;"/><ellipse cx="506.087" cy="268.15" rx="11.25" ry="13.75" style="fill:none;stroke:#bcbcbc;stroke-width:0.3px;"/><path d="M506.087,254.817c0.417,0.417 0.833,1.25 0.833,2.083c0,0.833 -0.417,1.667 -0.833,2.083c-0.417,0.417 -0.833,1.25 -0.833,2.083c0,0.833 0.417,1.25 0.833,1.667c0.833,0.417 0.833,1.25 0.833,2.083c0,0.833 0,1.667 -0.833,2.083c-0.417,0.417 -0.833,1.25 -0.833,2.083c0,0.833 0.417,1.25 0.833,2.083c0.833,0.417 0.833,0.833 0.833,1.667c0,0.833 0,1.667 -0.833,2.083c-0.417,0.417 -0.833,1.25 -0.833,2.083c0,0.833 0.417,1.667 0.833,2.083c0.417,0 0.833,0.833 0.833,1.25c0,0.417 -0.417,1.25 -0.833,1.667" style="fill:none;fill-rule:nonzero;stroke:#bcbcbc;stroke-width:0.3px;"/><path d="M475.254,410.234l65,0l0,-106.25l-65,0l0,106.25Z" style="fill:#ddb682;stroke:#000;stroke-width:0.77px;"/><path d="M540.254,410.234l-65,-53.333l65,-52.917" style="fill:none;fill-rule:nonzero;stroke:#000;stroke-width:0.3px;"/><path d="M463.587,439.817l-17.5,0" style="fill:none;fill-rule:nonzero;stroke:#000;stroke-width:0.3px;"/><path d="M463.587,534.4l-112.083,0" style="fill:none;fill-rule:nonzero;stroke:#000;stroke-width:0.3px;"/><path d="M351.504,534.4c0,-52.5 42.083,-94.583 94.583,-94.583" style="fill:none;fill-rule:nonzero;stroke:#000;stroke-width:0.3px;"/><rect x="446.087" y="433.984" width="17.5" height="106.25" style="fill:none;fill-rule:nonzero;stroke:#000;stroke-width:0.3px;"/><rect x="446.087" y="640.65" width="17.5" height="94.167" style="fill:none;fill-rule:nonzero;stroke:#000;stroke-width:0.3px;"/><path d="M463.587,646.484l-100.417,0" style="fill:none;fill-rule:nonzero;stroke:#000;stroke-width:0.3px;"/><path d="M446.087,728.984c-45.833,0 -82.917,-37.083 -82.917,-82.5" style="fill:none;fill-rule:nonzero;stroke:#000;stroke-width:0.3px;"/><path d="M446.087,728.984l17.5,0" style="fill:none;fill-rule:nonzero;stroke:#000;stroke-width:0.3px;"/><rect x="670.254" y="811.9" width="17.917" height="94.167" style="fill:none;fill-rule:nonzero;stroke:#000;stroke-width:0.3px;"/><path d="M670.254,817.734l100.417,0" style="fill:none;fill-rule:nonzero;stroke:#000;stroke-width:0.3px;"/><path d="M688.171,900.234c45.417,0 82.5,-37.083 82.5,-82.5" style="fill:none;fill-rule:nonzero;stroke:#000;stroke-width:0.3px;"/><path d="M688.171,900.234l-17.917,0" style="fill:none;fill-rule:nonzero;stroke:#000;stroke-width:0.3px;"/><path d="M670.254,575.65l17.917,0" style="fill:none;fill-rule:nonzero;stroke:#000;stroke-width:0.3px;"/><path d="M670.254,669.817l112.083,0" style="fill:none;fill-rule:nonzero;stroke:#000;stroke-width:0.3px;"/><path d="M782.337,669.817c0,-52.083 -42.083,-94.167 -94.167,-94.167" style="fill:none;fill-rule:nonzero;stroke:#000;stroke-width:0.3px;"/><rect x="670.254" y="569.4" width="17.917" height="106.667" style="fill:none;fill-rule:nonzero;stroke:#000;stroke-width:0.3px;"/></g><g id="anchorTop"><path d="M1244.004,126.9l-250,0" style="fill:none;fill-rule:nonzero;stroke:#f00;stroke-width:0.3px;"/><path d="M1119.004,1.484l0,250.417" style="fill:none;fill-rule:nonzero;stroke:#f00;stroke-width:0.3px;"/></g></svg>