<?xml version="1.0" encoding="UTF-8" standalone="no"?><!DOCTYPE svg PUBLIC "-//W3C//DTD SVG 1.1//EN" "http://www.w3.org/Graphics/SVG/1.1/DTD/svg11.dtd"><svg width="100%" height="100%" viewBox="0 0 1246 1063" version="1.1" xmlns="http://www.w3.org/2000/svg" xmlns:xlink="http://www.w3.org/1999/xlink" xml:space="preserve" xmlns:serif="http://www.serif.com/" style="fill-rule:evenodd;clip-rule:evenodd;stroke-miterlimit:10;"><g id="top"><path d="M14.837,1048.15l0,-921.25l1104.167,0l0,921.25l-448.75,0l0,-35.417l-206.667,0l0,35.417l-448.75,0Z" style="fill:#fff;"/><path d="M688.171,991.067l0,-85l-9.167,0l0,-94.167l9.167,0l0,-33.333l395.417,0l0,212.5l-395.417,0Z" style="fill:#e0e0e0;fill-opacity:0.25;stroke:#a8a8a8;stroke-width:0.3px;"/><path d="M50.254,162.317l247.917,0l0,283.333l9.167,0l0,94.583l-9.167,0l0,76.667l-76.667,0l0,8.75l-94.583,0l0,-8.75l-76.667,0l0,-454.583Z" style="fill:#e0e0e0;fill-opacity:0.25;stroke:#a8a8a8;stroke-width:0.3px;"/><path d="M1083.587,162.317l0,598.75l-395.417,0l0,-85l-9.167,0l0,-106.25l9.167,0l0,-407.5l395.417,0Z" style="fill:#e0e0e0;fill-opacity:0.25;stroke:#a8a8a8;stroke-width:0.3px;"/><path d="M221.504,625.65l0,8.75l224.583,0l0,165.417l8.75,0l0,106.25l-8.75,0l0,106.667l-395.833,0l0,-378.333l76.667,0l0,-8.75l94.583,0Z" style="fill:#e0e0e0;fill-opacity:0.25;stroke:#a8a8a8;stroke-width:0.3px;"/><path d="M463.587,1012.734l2.083,0m2.083,0l3.75,0m1.667,0l3.75,0m2.083,0l3.75,0m1.667,0l3.75,0m2.083,0l3.75,0m1.667,0l3.75,0m2.083,0l3.75,0m1.667,0l3.75,0m2.083,0l3.75,0m1.667,0l3.75,0m2.083,0l3.75,0m1.667,0l3.75,0m2.083,0l3.75,0m1.667,0l3.75,0m2.083,0l3.75,0m1.667,0l3.75,0m2.083,0l3.75,0m1.667,0l3.75,0m2.083,0l3.75,0m1.667,0l3.75,0m2.083,0l3.75,0m1.667,0l3.75,0m2.083,0l3.75,0m1.667,0l3.75,0m2.083,0l3.75,0m1.667,0l3.75,0m2.083,0l3.75,0m1.667,0l3.75,0m2.083,0l3.75,0m1.667,0l3.75,0m2.083,0l3.75,0m1.667,0l3.75,0m2.083,0l3.75,0m1.667,0l3.75,0m2.083,0l3.75,0m1.667,0l5.833,0" style="fill:none;fill-rule:nonzero;stroke:#a8a8a8;stroke-width:0.3px;stroke-linecap:round;"/><path d="M679.004,676.067l-8.75,0l0,135.833l8.75,0l0,94.167l-8.75,0l0,106.667l-206.667,0l0,-106.667l-8.75,0l0,-106.25l8.75,0l0,-236.25l29.583,0l0,-8.75l106.25,0l0,8.75l70.833,0l0,6.25l8.75,0l0,106.25Z" style="fill:#e0e0e0;fill-opacity:0.25;stroke:#a8a8a8;stroke-width:0.3px;"/><g transform="matrix(1,0,0,1,-388.989034,323.342625)"><text x="550.546px" y="155.569px" style="font-family:'ArialMT', 'Arial', sans-serif;font-size:21.144px;fill:#2b2b2b;fill-opacity:0.99;">Šatna</text><g transform="matrix(21.144211,0,0,21.144211,614.015081,179.19116)"></g><text x="542.333px" y="179.191px" style="font-family:'ArialMT', 'Arial', sans-serif;font-size:21.144px;fill:#2b2b2b;fill-opacity:0.99;">8.21 m²</text></g><g transform="matrix(1,0,0,1,144.582622,416.24797)"><text x="716.111px" y="184.908px" style="font-family:'ArialMT', 'Arial', sans-serif;font-size:21.144px;fill:#2b2b2b;fill-opacity:0.99;">Ložnice</text><g transform="matrix(21.144211,0,0,21.144211,794.278786,208.52969)"></g><text x="710.838px" y="208.53px" style="font-family:'ArialMT', 'Arial', sans-serif;font-size:21.144px;fill:#2b2b2b;fill-opacity:0.99;">17.05 m²</text></g><g transform="matrix(1,0,0,1,-342.525002,593.077233)"><text x="572.281px" y="240.748px" style="font-family:'ArialMT', 'Arial', sans-serif;font-size:21.144px;fill:#2b2b2b;fill-opacity:0.99;">Pokoj</text><g transform="matrix(21.144211,0,0,21.144211,640.451692,264.37051)"></g><text x="557.011px" y="264.371px" style="font-family:'ArialMT', 'Arial', sans-serif;font-size:21.144px;fill:#2b2b2b;fill-opacity:0.99;">10.85 m²</text></g><g transform="matrix(1,0,0,1,-145.833474,435.572629)"><text x="658.25px" y="191.01px" style="font-family:'ArialMT', 'Arial', sans-serif;font-size:21.144px;fill:#2b2b2b;fill-opacity:0.99;">Chodba</text><text x="648.86px" y="214.632px" style="font-family:'ArialMT', 'Arial', sans-serif;font-size:21.144px;fill:#2b2b2b;fill-opacity:0.99;">horní část</text><g transform="matrix(21.144211,0,0,21.144211,732.576355,238.254261)"></g><text x="660.895px" y="238.254px" style="font-family:'ArialMT', 'Arial', sans-serif;font-size:21.144px;fill:#2b2b2b;fill-opacity:0.99;">6.91 m²</text></g><g transform="matrix(1,0,0,1,106.122967,601.894026)"><text x="697.643px" y="244.657px" style="font-family:'ArialMT', 'Arial', sans-serif;font-size:22.714px;fill:#2b2b2b;fill-opacity:0.99;">Koupelna</text><g transform="matrix(21.144211,0,0,21.144211,777.172089,274.184374)"></g><text x="705.49px" y="274.184px" style="font-family:'ArialMT', 'Arial', sans-serif;font-size:21.144px;fill:#2b2b2b;fill-opacity:0.99;">6.09 m²</text></g><path d="M599.421,546.067l0,8.75l-106.25,0l0,-8.75l-47.083,0l0,70.833l-130,0l0,-76.667l-8.75,0l0,-94.583l8.75,0l0,-283.333l354.167,0l0,383.75l-70.833,0Z" style="fill:#e0e0e0;fill-opacity:0.25;stroke:#a8a8a8;stroke-width:0.3px;"/><path d="M688.171,1012.734l395.417,0l0,-21.667l-395.417,0l0,21.667Z" style="fill:#ddd;"/><path d="M688.171,991.067l395.417,0" style="fill:none;fill-rule:nonzero;stroke:#2b2b2b;stroke-width:2.95px;stroke-linecap:round;"/><rect x="688.171" y="522.317" width="47.083" height="47.083" style="fill:#ddb682;stroke:#000;stroke-width:0.77px;"/><rect x="688.171" y="262.317" width="47.083" height="47.5" style="fill:#ddb682;stroke:#000;stroke-width:0.77px;"/><rect x="696.087" y="328.15" width="59.167" height="71.25" style="fill:#69b2ff;fill-opacity:0.5;"/><path d="M936.087,522.317l-100.833,0l0,-65l-75.833,0l0,-147.5l176.667,0l0,212.5Z" style="fill:#69b2ff;fill-opacity:0.5;"/><path d="M759.421,457.317l75.833,65l-147.083,0l0,-212.5l71.25,0l0,147.5Zm-4.167,-57.917l0,-71.25l-59.167,0l0,71.25l59.167,0Zm0,104.583l0,-71.25l-59.167,0l0,71.25l59.167,0Z" style="fill:#e5fcff;fill-opacity:0.5;"/><rect x="696.087" y="432.734" width="59.167" height="71.25" style="fill:#69b2ff;fill-opacity:0.5;"/><path d="M835.254,522.317l-75.833,-65l75.833,0l0,65Z" style="fill:#e5fcff;fill-opacity:0.5;"/><path d="M735.254,569.4l-47.083,0l0,-307.083l47.083,0l0,47.5l200.833,0l0,212.5l-200.833,0l0,47.083Z" style="fill:none;fill-rule:nonzero;stroke:#000;stroke-width:0.77px;"/><rect x="696.087" y="432.734" width="59.167" height="71.25" style="fill:none;stroke:#000;stroke-width:0.77px;"/><path d="M755.254,328.15l-59.167,0l0,71.25l59.167,0l0,-71.25Z" style="fill:none;stroke:#000;stroke-width:0.77px;"/><path d="M759.421,309.817l0,147.5l75.833,65l0,-65l-75.833,0" style="fill:none;fill-rule:nonzero;stroke:#000;stroke-width:0.77px;"/><path d="M735.254,522.317l-47.083,0" style="fill:none;fill-rule:nonzero;stroke:#000;stroke-width:0.77px;"/><path d="M735.254,309.817l-47.083,0" style="fill:none;fill-rule:nonzero;stroke:#000;stroke-width:0.77px;"/><path d="M998.171,242.317l12.083,23.75l-2.5,1.25c-0.833,0.417 -1.25,1.25 -1.667,2.083c-0.417,0.833 0,1.667 0.417,2.083c8.75,14.167 27.083,19.167 42.083,11.667c14.583,-7.5 21.667,-25 15.833,-40.417c-0.417,-0.833 -1.25,-1.25 -2.083,-1.667c-0.417,-0.417 -1.667,-0.417 -2.083,0l-2.5,1.25l-12.083,-23.75l-47.5,23.75Z" style="fill:#cfd4a2;"/><path d="M1057.754,242.317l-12.083,-23.75" style="fill:none;fill-rule:nonzero;stroke:#000;stroke-width:0.77px;"/><path d="M1064.421,242.734c-0.417,-0.833 -1.25,-1.25 -2.083,-1.667c-0.417,-0.417 -1.667,-0.417 -2.083,0" style="fill:none;fill-rule:nonzero;stroke:#000;stroke-width:0.77px;"/><path d="M1010.254,266.067l-2.5,1.25" style="fill:none;fill-rule:nonzero;stroke:#000;stroke-width:0.77px;"/><path d="M1060.254,241.067l-2.5,1.25" style="fill:none;fill-rule:nonzero;stroke:#000;stroke-width:0.77px;"/><path d="M1010.254,266.067c6.25,13.333 22.5,18.333 35.417,12.083c13.333,-6.667 18.333,-22.5 12.083,-35.833" style="fill:none;fill-rule:nonzero;stroke:#000;stroke-width:0.77px;"/><path d="M1006.504,271.484c8.75,14.167 27.083,19.167 42.083,11.667c14.583,-7.5 21.667,-25 15.833,-40.417" style="fill:none;fill-rule:nonzero;stroke:#000;stroke-width:0.77px;"/><path d="M998.171,242.317l12.083,23.75" style="fill:none;fill-rule:nonzero;stroke:#000;stroke-width:0.77px;"/><path d="M1045.671,218.567l-47.5,23.75" style="fill:none;fill-rule:nonzero;stroke:#000;stroke-width:0.77px;"/><path d="M1007.754,267.317c-0.833,0.417 -1.25,1.25 -1.667,2.083c-0.417,0.833 0,1.667 0.417,2.083" style="fill:none;fill-rule:nonzero;stroke:#000;stroke-width:0.77px;"/><rect x="941.921" y="162.317" width="141.667" height="70.833" style="fill:#ddb682;stroke:#000;stroke-width:0.77px;"/><path d="M50.254,345.234l70.833,0l0,-141.667l-70.833,0l0,141.667Z" style="fill:#ddb682;stroke:#000;stroke-width:0.77px;"/><path d="M121.087,203.567l-70.833,70.833l70.833,70.833" style="fill:none;fill-rule:nonzero;stroke:#000;stroke-width:0.3px;"/><path d="M50.254,486.9l70.833,0l0,-141.667l-70.833,0l0,141.667Z" style="fill:#ddb682;stroke:#000;stroke-width:0.77px;"/><path d="M121.087,345.234l-70.833,70.833l70.833,70.833" style="fill:none;fill-rule:nonzero;stroke:#000;stroke-width:0.3px;"/><path d="M50.254,616.9l70.833,0l0,-130l-70.833,0l0,130Z" style="fill:#ddb682;stroke:#000;stroke-width:0.77px;"/><path d="M121.087,486.9l-70.833,65l70.833,65" style="fill:none;fill-rule:nonzero;stroke:#000;stroke-width:0.3px;"/><path d="M227.337,303.984l70.833,0l0,-141.667l-70.833,0l0,141.667Z" style="fill:#ddb682;stroke:#000;stroke-width:0.77px;"/><path d="M227.337,162.317l70.833,70.833l-70.833,70.833" style="fill:none;fill-rule:nonzero;stroke:#000;stroke-width:0.3px;"/><path d="M227.337,445.65l70.833,0l0,-141.667l-70.833,0l0,141.667Z" style="fill:#ddb682;stroke:#000;stroke-width:0.77px;"/><path d="M227.337,303.984l70.833,70.833l-70.833,70.833" style="fill:none;fill-rule:nonzero;stroke:#000;stroke-width:0.3px;"/><path d="M110.671,959.4l23.75,-11.667l1.25,2.5c0.417,0.417 1.25,1.25 2.083,1.25c0.833,0.417 1.667,0.417 2.5,-0.417c13.75,-8.75 19.167,-26.667 11.667,-41.667c-7.5,-15 -25,-21.667 -40.833,-15.833c-0.833,0 -1.25,0.833 -1.667,1.667c-0.417,0.833 0,1.667 0,2.5l1.25,2.5l-23.75,11.667l23.75,47.5Z" style="fill:#cfd4a2;"/><path d="M110.671,900.234l-23.75,11.667" style="fill:none;fill-rule:nonzero;stroke:#000;stroke-width:0.77px;"/><path d="M111.087,893.567c-0.833,0 -1.25,0.833 -1.667,1.667c-0.417,0.833 0,1.667 0,2.5" style="fill:none;fill-rule:nonzero;stroke:#000;stroke-width:0.77px;"/><path d="M134.421,947.734l1.25,2.5" style="fill:none;fill-rule:nonzero;stroke:#000;stroke-width:0.77px;"/><path d="M109.421,897.734l1.25,2.5" style="fill:none;fill-rule:nonzero;stroke:#000;stroke-width:0.77px;"/><path d="M134.421,947.734c13.333,-6.667 18.75,-22.5 12.083,-35.833c-6.667,-12.917 -22.5,-18.333 -35.833,-11.667" style="fill:none;fill-rule:nonzero;stroke:#000;stroke-width:0.77px;"/><path d="M140.254,951.067c13.75,-8.75 19.167,-26.667 11.667,-41.667c-7.5,-15 -25,-21.667 -40.833,-15.833" style="fill:none;fill-rule:nonzero;stroke:#000;stroke-width:0.77px;"/><path d="M110.671,959.4l23.75,-11.667" style="fill:none;fill-rule:nonzero;stroke:#000;stroke-width:0.77px;"/><path d="M86.921,911.9l23.75,47.5" style="fill:none;fill-rule:nonzero;stroke:#000;stroke-width:0.77px;"/><path d="M135.671,950.234c0.417,0.417 1.25,1.25 2.083,1.25c0.833,0.417 1.667,0.417 2.5,-0.417" style="fill:none;fill-rule:nonzero;stroke:#000;stroke-width:0.77px;"/><rect x="50.254" y="941.484" width="141.667" height="71.25" style="fill:#ddb682;stroke:#000;stroke-width:0.77px;"/><path d="M221.504,669.817l82.5,0l0,-35.417l-82.5,0l0,35.417Z" style="fill:#ddb682;stroke:#000;stroke-width:0.77px;"/><path d="M304.004,634.4l-82.5,35.417" style="fill:none;fill-rule:nonzero;stroke:#000;stroke-width:0.3px;"/><path d="M304.004,669.817l71.25,0l0,-35.417l-71.25,0l0,35.417Z" style="fill:#ddb682;stroke:#000;stroke-width:0.77px;"/><path d="M375.254,634.4l-71.25,35.417" style="fill:none;fill-rule:nonzero;stroke:#000;stroke-width:0.3px;"/><path d="M375.254,669.817l70.833,0l0,-35.417l-70.833,0l0,35.417Z" style="fill:#ddb682;stroke:#000;stroke-width:0.77px;"/><path d="M446.087,634.4l-70.833,35.417" style="fill:none;fill-rule:nonzero;stroke:#000;stroke-width:0.3px;"/><path d="M50.254,669.817l70.833,0l0,-35.417l-70.833,0l0,35.417Z" style="fill:#ddb682;stroke:#000;stroke-width:0.77px;"/><path d="M121.087,634.4l-70.833,35.417" style="fill:none;fill-rule:nonzero;stroke:#000;stroke-width:0.3px;"/><path d="M50.254,203.567l70.833,0l0,-41.25l-70.833,0l0,41.25Z" style="fill:#ddb682;stroke:#000;stroke-width:0.77px;"/><path d="M121.087,162.317l-70.833,20.417l70.833,20.833" style="fill:none;fill-rule:nonzero;stroke:#000;stroke-width:0.3px;"/><path d="M478.171,242.317l12.083,23.75l-2.5,1.25c-0.833,0.417 -1.25,1.25 -1.667,2.083c0,0.833 0,1.667 0.417,2.083c9.167,14.167 27.083,19.167 42.083,11.667c15,-7.5 21.667,-25 15.833,-40.417c-0.417,-0.833 -0.833,-1.25 -1.667,-1.667c-0.833,-0.417 -1.667,-0.417 -2.5,0l-2.5,1.25l-11.667,-23.75l-47.917,23.75Z" style="fill:#cfd4a2;"/><path d="M537.754,242.317l-11.667,-23.75" style="fill:none;fill-rule:nonzero;stroke:#000;stroke-width:0.77px;"/><path d="M544.421,242.734c-0.417,-0.833 -0.833,-1.25 -1.667,-1.667c-0.833,-0.417 -1.667,-0.417 -2.5,0" style="fill:none;fill-rule:nonzero;stroke:#000;stroke-width:0.77px;"/><path d="M490.254,266.067l-2.5,1.25" style="fill:none;fill-rule:nonzero;stroke:#000;stroke-width:0.77px;"/><path d="M540.254,241.067l-2.5,1.25" style="fill:none;fill-rule:nonzero;stroke:#000;stroke-width:0.77px;"/><path d="M490.254,266.067c6.667,13.333 22.5,18.333 35.833,12.083c12.917,-6.667 18.333,-22.5 11.667,-35.833" style="fill:none;fill-rule:nonzero;stroke:#000;stroke-width:0.77px;"/><path d="M486.504,271.484c9.167,14.167 27.083,19.167 42.083,11.667c15,-7.5 21.667,-25 15.833,-40.417" style="fill:none;fill-rule:nonzero;stroke:#000;stroke-width:0.77px;"/><path d="M478.171,242.317l12.083,23.75" style="fill:none;fill-rule:nonzero;stroke:#000;stroke-width:0.77px;"/><path d="M526.087,218.567l-47.917,23.75" style="fill:none;fill-rule:nonzero;stroke:#000;stroke-width:0.77px;"/><path d="M487.754,267.317c-0.833,0.417 -1.25,1.25 -1.667,2.083c0,0.833 0,1.667 0.417,2.083" style="fill:none;fill-rule:nonzero;stroke:#000;stroke-width:0.77px;"/><rect x="422.337" y="162.317" width="141.667" height="70.833" style="fill:#ddb682;stroke:#000;stroke-width:0.77px;"/><rect x="688.171" y="690.234" width="141.667" height="70.833" style="fill:#ddb682;stroke:#000;stroke-width:0.77px;"/><path d="M829.837,690.234l-70.833,70.833l-70.833,-70.833" style="fill:none;fill-rule:nonzero;stroke:#000;stroke-width:0.3px;"/><rect x="971.504" y="690.234" width="112.083" height="70.833" style="fill:#ddb682;stroke:#000;stroke-width:0.77px;"/><path d="M1083.587,690.234l-55.833,70.833l-56.25,-70.833" style="fill:none;fill-rule:nonzero;stroke:#000;stroke-width:0.3px;"/><path d="M197.754,1012.734l88.75,0l0,-75l41.25,-31.667l-130,0l0,106.667Zm73.75,-18.75l-61.667,0l0,-65.833l61.667,0l0,65.833Z" style="fill:#e5fffe;fill-opacity:0.5;"/><path d="M327.754,937.734l-41.25,0l0,75l159.583,0l0,-106.667l-118.333,0l0,31.667Z" style="fill:#bedcff;"/><rect x="209.837" y="928.15" width="61.667" height="65.833" style="fill:#bedcff;"/><path d="M327.754,937.734l0,-31.667l-41.25,31.667l41.25,0Z" style="fill:#e5fffe;fill-opacity:0.5;"/><path d="M446.087,906.067l-248.333,0l0,106.667l248.333,0l0,-106.667Z" style="fill:none;stroke:#000;stroke-width:0.77px;"/><path d="M286.504,1012.734l0,-75l41.25,-31.667l0,31.667l-41.25,0" style="fill:none;fill-rule:nonzero;stroke:#000;stroke-width:0.77px;"/><path d="M271.504,928.15l-61.667,0l0,65.833l61.667,0l0,-65.833Z" style="fill:none;stroke:#000;stroke-width:0.77px;"/><rect x="634.837" y="162.317" width="35.417" height="70.833" style="fill:#ddb682;stroke:#000;stroke-width:0.77px;"/><path d="M670.254,233.15l-35.417,-70.833" style="fill:none;fill-rule:nonzero;stroke:#000;stroke-width:0.3px;"/><rect x="634.837" y="233.15" width="35.417" height="70.833" style="fill:#ddb682;stroke:#000;stroke-width:0.77px;"/><path d="M670.254,303.984l-35.417,-70.833" style="fill:none;fill-rule:nonzero;stroke:#000;stroke-width:0.3px;"/><rect x="634.837" y="303.984" width="35.417" height="70.833" style="fill:#ddb682;stroke:#000;stroke-width:0.77px;"/><path d="M670.254,374.817l-35.417,-70.833" style="fill:none;fill-rule:nonzero;stroke:#000;stroke-width:0.3px;"/><rect x="634.837" y="374.817" width="35.417" height="70.833" style="fill:#ddb682;stroke:#000;stroke-width:0.77px;"/><path d="M670.254,445.65l-35.417,-70.833" style="fill:none;fill-rule:nonzero;stroke:#000;stroke-width:0.3px;"/><rect x="634.837" y="445.65" width="35.417" height="70.833" style="fill:#ddb682;stroke:#000;stroke-width:0.77px;"/><path d="M670.254,516.484l-35.417,-70.833" style="fill:none;fill-rule:nonzero;stroke:#000;stroke-width:0.3px;"/><rect x="634.837" y="516.484" width="35.417" height="29.583" style="fill:#ddb682;stroke:#000;stroke-width:0.77px;"/><path d="M670.254,546.067l-35.417,-29.583" style="fill:none;fill-rule:nonzero;stroke:#000;stroke-width:0.3px;"/><path d="M315.671,162.317l0,88.333l75,0l31.667,41.25l0,-129.583l-106.667,0Zm18.75,73.333l0,-61.667l65.833,0l0,61.667l-65.833,0Z" style="fill:#e5fffe;fill-opacity:0.5;"/><path d="M390.671,291.9l0,-41.25l-75,0l0,159.583l106.667,0l0,-118.333l-31.667,0Z" style="fill:#bedcff;"/><path d="M334.421,235.65l65.833,0l0,-61.667l-65.833,0l0,61.667Z" style="fill:#bedcff;"/><path d="M390.671,291.9l31.667,0l-31.667,-41.25l0,41.25Z" style="fill:#e5fffe;fill-opacity:0.5;"/><rect x="315.671" y="162.317" width="106.667" height="247.917" style="fill:none;stroke:#000;stroke-width:0.77px;"/><path d="M315.671,250.65l75,0l31.667,41.25l-31.667,0l0,-41.25" style="fill:none;fill-rule:nonzero;stroke:#000;stroke-width:0.77px;"/><rect x="334.421" y="173.984" width="65.833" height="61.667" style="fill:none;stroke:#000;stroke-width:0.77px;"/><path d="M227.337,616.9l70.833,0l0,-70.833l-70.833,0l0,70.833Z" style="fill:#ddb682;stroke:#000;stroke-width:0.77px;"/><path d="M227.337,546.067l70.833,35.417l-70.833,35.417" style="fill:none;fill-rule:nonzero;stroke:#000;stroke-width:0.3px;"/><path d="M767.754,991.067l-40.417,0l-0.833,-42.083c0.417,-11.25 9.583,-20.417 21.25,-20.417c11.25,0 20.833,9.167 21.25,20.417l-1.25,42.083Z" style="fill:#e0e0e0;stroke:#000;stroke-width:0.3px;"/><path d="M747.754,932.734c-3.75,0 -7.083,0.833 -10,2.917c-5,3.75 -7.917,9.583 -7.917,15.833c0.417,6.25 3.333,11.667 8.333,15.417c2.917,1.667 6.25,2.917 9.583,2.917c3.333,0 6.667,-1.25 9.583,-2.917c5,-3.75 7.917,-9.167 7.917,-15.417c0.417,-6.25 -2.5,-12.083 -7.5,-15.833c-2.917,-2.083 -6.25,-2.917 -10,-2.917Z" style="fill:#b4b4b4;stroke:#000;stroke-width:0.3px;"/><path d="M747.754,991.067l0,-2.5" style="fill:none;fill-rule:nonzero;stroke:#000;stroke-width:0.3px;"/><path d="M737.754,966.9c0.417,-1.667 0.417,-2.917 0.833,-4.583c0,-1.25 0.417,-2.5 1.25,-3.75c0.417,-1.25 1.667,-2.083 2.5,-2.917c0.833,-0.833 1.667,-1.25 2.5,-1.25c0.833,-0.417 1.667,-0.417 2.083,-0.417l0.833,0" style="fill:none;fill-rule:nonzero;stroke:#000;stroke-width:0.3px;"/><path d="M738.587,961.9c0.417,0.417 1.25,0.833 2.083,1.25c0.833,0.417 1.667,0.833 2.5,1.25c0.833,-0 1.667,-0 2.5,0.417l2.083,0" style="fill:none;fill-rule:nonzero;stroke:#000;stroke-width:0.3px;"/><path d="M740.254,977.317c0,-0.69 -0.653,-1.25 -1.458,-1.25c-0.805,0 -1.458,0.56 -1.458,1.25c0,0.69 0.653,1.25 1.458,1.25c0.805,0 1.458,-0.56 1.458,-1.25Z" style="fill:none;stroke:#000;stroke-width:0.3px;"/><path d="M757.337,966.9c0,-1.667 0,-2.917 -0.417,-4.583c-0.417,-1.25 -0.833,-2.5 -1.25,-3.75c-0.833,-1.25 -1.667,-2.083 -2.5,-2.917c-0.833,-0.833 -1.667,-1.25 -2.917,-1.25c-0.417,-0.417 -1.25,-0.417 -1.667,-0.417l-0.833,0" style="fill:none;fill-rule:nonzero;stroke:#000;stroke-width:0.3px;"/><path d="M756.921,961.9c-0.833,0.417 -1.25,0.833 -2.083,1.25c-0.833,0.417 -1.667,0.833 -2.5,1.25c-0.833,-0 -1.667,-0 -2.5,0.417l-2.083,0" style="fill:none;fill-rule:nonzero;stroke:#000;stroke-width:0.3px;"/><path d="M755.254,977.317c0,0.69 0.56,1.25 1.25,1.25c0.69,0 1.25,-0.56 1.25,-1.25c0,-0.69 -0.56,-1.25 -1.25,-1.25c-0.69,0 -1.25,0.56 -1.25,1.25Z" style="fill:none;stroke:#000;stroke-width:0.3px;"/><path d="M860.671,975.234l-25.833,0c-3.333,0 -5,-1.667 -5,-5l0,-24.583c0,-3.333 1.667,-5 5,-5l54.583,0c3.333,0 5,1.667 5,5l0,24.583c0,3.333 -1.667,5 -5,5l-19.583,0" style="fill:none;fill-rule:nonzero;stroke:#000;stroke-width:0.3px;"/><path d="M816.921,933.567l164.583,0c1.25,0 1.667,0.417 1.667,1.667l0,55.417c0,0.417 0,0.417 -0.417,0.417l-166.667,0c0,0 -0.417,0 -0.417,-0.417l0,-55.417c0,-1.25 0.417,-1.667 1.25,-1.667Z" style="fill:#f7f7f7;stroke:#000;stroke-width:1.48px;"/><path d="M942.337,979.817l-0.417,0" style="fill:none;fill-rule:nonzero;stroke:#000;stroke-width:0.3px;"/><path d="M935.671,975.234l-26.25,0c-2.917,0 -4.583,-1.667 -4.583,-5l0,-24.583c0,-3.333 1.667,-5 4.583,-5l55,0c2.917,0 4.583,1.667 4.583,5l0,24.583c0,3.333 -1.667,5 -4.583,5l-20,0" style="fill:none;fill-rule:nonzero;stroke:#000;stroke-width:0.3px;"/><path d="M869.837,979.4l0.417,0c0,0 0.417,0 0.417,0.417l0,4.167l-3.333,0l0,-4.167c0,-0.417 0,-0.417 0.417,-0.417l1.25,0" style="fill:none;fill-rule:nonzero;stroke:#000;stroke-width:0.3px;"/><path d="M944.421,979.4l0.833,0l0,4.583l-2.917,0l0,-4.583l1.25,0" style="fill:none;fill-rule:nonzero;stroke:#000;stroke-width:0.3px;"/><path d="M863.171,981.9l0,-25.417c0,-0.833 -0.417,-1.25 -1.25,-1.25c-0.417,0 -0.833,0.417 -0.833,1.25c0,8.75 -0.417,17.083 -0.417,25.417c0,0.417 0.417,0.417 0.417,0.833c0.417,0 0.417,0.417 0.833,0.417c0.417,0 0.833,-0.417 0.833,-0.417c0.417,-0.417 0.417,-0.417 0.417,-0.833Z" style="fill:none;fill-rule:nonzero;stroke:#000;stroke-width:0.3px;"/><path d="M938.171,981.9l0,-25.417c0,-0.833 -0.417,-1.25 -1.25,-1.25c-0.833,0 -1.25,0.417 -1.25,1.25l0,25.417c0,0.417 0,0.417 0.417,0.833c0,0 0.417,0.417 0.833,0.417c0.417,0 0.417,-0.417 0.833,-0.417c0,-0.417 0.417,-0.417 0.417,-0.833Z" style="fill:none;fill-rule:nonzero;stroke:#000;stroke-width:0.3px;"/><path d="M942.337,983.567l-0.417,0" style="fill:none;fill-rule:nonzero;stroke:#000;stroke-width:0.3px;"/><path d="M863.171,963.567c1.25,0.417 1.667,1.25 1.667,2.5c0,1.25 -0.833,2.083 -1.667,2.5" style="fill:none;fill-rule:nonzero;stroke:#000;stroke-width:0.3px;"/><path d="M938.171,963.567c0.833,0.417 1.667,1.25 1.667,2.5c0,1.25 -0.833,2.083 -1.667,2.5" style="fill:none;fill-rule:nonzero;stroke:#000;stroke-width:0.3px;"/><path d="M863.171,978.984c1.25,0.417 2.083,1.667 1.667,3.333c-0.417,1.667 -1.25,2.5 -2.917,2.5c-1.25,0 -2.5,-0.833 -2.917,-2.5c0,-1.667 0.417,-2.917 1.667,-3.333" style="fill:none;fill-rule:nonzero;stroke:#000;stroke-width:0.3px;"/><path d="M938.171,978.984c1.25,0.417 1.667,1.667 1.667,3.333c-0.417,1.667 -1.667,2.5 -2.917,2.5c-1.667,0 -2.5,-0.833 -2.917,-2.5c-0.417,-1.667 0.417,-2.917 1.667,-3.333" style="fill:none;fill-rule:nonzero;stroke:#000;stroke-width:0.3px;"/><path d="M860.671,968.567c-0.833,-0.417 -1.25,-1.667 -1.25,-2.5c0,-1.25 0.417,-2.083 1.667,-2.5" style="fill:none;fill-rule:nonzero;stroke:#000;stroke-width:0.3px;"/><path d="M935.671,968.567c-0.833,-0.417 -1.25,-1.667 -1.25,-2.5c0,-1.25 0.417,-2.083 1.25,-2.5" style="fill:none;fill-rule:nonzero;stroke:#000;stroke-width:0.3px;"/><path d="M863.587,984.4l3.75,0l0,-5l-3.333,0" style="fill:none;fill-rule:nonzero;stroke:#000;stroke-width:0.3px;"/><path d="M938.587,984.4l3.333,0l0,-5l-2.917,0" style="fill:none;fill-rule:nonzero;stroke:#000;stroke-width:0.3px;"/><path d="M869.004,980.65l0,-7.083c0,-0.417 0,-0.417 0.417,-0.417c0,0 0.417,0 0.417,0.417l0,7.083" style="fill:none;fill-rule:nonzero;stroke:#000;stroke-width:0.3px;"/><path d="M943.587,980.65l0,-7.083c0,-0.417 0.417,-0.417 0.417,-0.417l0.417,0l0,7.5" style="fill:none;fill-rule:nonzero;stroke:#000;stroke-width:0.3px;"/><path d="M869.004,975.234l-5.833,0" style="fill:none;fill-rule:nonzero;stroke:#000;stroke-width:0.3px;"/><path d="M943.587,975.234l-5.417,0" style="fill:none;fill-rule:nonzero;stroke:#000;stroke-width:0.3px;"/><path d="M860.671,975.234l-25.833,0c-3.333,0 -5,-1.667 -5,-5l0,-24.583c0,-3.333 1.667,-5 5,-5l54.583,0c3.333,0 5,1.667 5,5l0,24.583c0,3.333 -1.667,5 -5,5l-19.583,0" style="fill:none;fill-rule:nonzero;stroke:#000;stroke-width:0.3px;"/><path d="M988.587,778.567c-3.333,0 -5.417,1.667 -5.417,5.417l0,201.667c0,3.75 2.083,5.417 5.417,5.417l89.583,0c3.75,0 5.417,-1.667 5.417,-5.417l0,-201.667c0,-3.75 -1.667,-5.417 -5.417,-5.417l-89.583,0Z" style="fill:#f7f7f7;stroke:#000;stroke-width:1.48px;"/><path d="M1031.504,969.4c-12.083,-0.417 -20,-5.833 -23.333,-15.417c0,-0.417 -0.417,-1.25 -0.417,-2.083c-6.667,-45.417 -9.167,-83.75 -7.5,-114.583l0,-0.417c2.083,-17.5 12.917,-26.667 33.333,-27.083c20,0.417 31.25,9.583 32.917,27.083l0,0.417c2.083,30.833 -0.417,69.167 -7.083,114.583c-0.417,0.833 -0.417,1.667 -0.833,2.083c-3.333,9.583 -10.833,15 -23.333,15.417" style="fill:none;fill-rule:nonzero;stroke:#000;stroke-width:0.3px;"/><path d="M1035.671,971.484c0,-2.083 -0.417,-2.917 -2.083,-2.917c-1.667,0 -2.5,0.833 -2.5,2.917c0,3.75 -0.417,7.083 -0.417,10.833c-0.417,1.25 0,2.083 0.417,2.917c0.833,0.833 1.667,1.25 2.5,1.25c0.833,0 1.667,-0.417 2.083,-1.25c0.833,-0.833 0.833,-1.667 0.833,-2.917c0,-3.75 -0.417,-7.083 -0.833,-10.833Z" style="fill:none;fill-rule:nonzero;stroke:#000;stroke-width:0.3px;"/><path d="M1031.504,974.817c-0.417,2.917 -0.417,5.417 -0.833,8.333c0,0.833 0.417,1.667 0.833,2.083c0.417,0.833 1.25,0.833 2.083,0.833c0.833,0 1.25,0 2.083,-0.833c0.417,-0.417 0.417,-1.25 0.417,-2.083c0,-2.917 -0.417,-5.417 -0.417,-8.333c0,-1.667 -0.833,-2.083 -2.083,-2.083c-1.667,0 -2.083,0.417 -2.083,2.083Z" style="fill:none;fill-rule:nonzero;stroke:#000;stroke-width:0.3px;"/><path d="M1033.587,956.484c2.083,0 3.75,-1.25 3.75,-3.333c0,-2.083 -1.667,-3.75 -3.75,-3.75c-2.5,0 -4.167,1.667 -4.167,3.75c0,2.083 1.667,3.333 4.167,3.333" style="fill:none;fill-rule:nonzero;stroke:#000;stroke-width:0.3px;"/><path d="M1030.671,979.4c-17.083,-0.833 -28.333,-7.083 -33.75,-18.75c-0.417,-0.833 -0.833,-1.667 -1.25,-2.5c-6.25,-52.5 -8.75,-97.917 -7.5,-135.417l0,-1.25c3.333,-23.75 18.333,-35.833 45.417,-36.667c27.083,0.833 42.083,12.917 45,36.667c0.417,0.417 0.417,0.833 0.417,1.25c1.25,37.5 -1.25,82.917 -7.917,135.417c0,0.833 -0.417,1.667 -0.833,2.5c-5.417,11.667 -16.667,17.917 -33.75,18.75" style="fill:none;fill-rule:nonzero;stroke:#000;stroke-width:0.3px;"/><rect x="829.837" y="690.234" width="141.667" height="70.833" style="fill:#ddb682;stroke:#000;stroke-width:0.77px;"/><path d="M971.504,690.234l-70.833,70.833l-70.833,-70.833" style="fill:none;fill-rule:nonzero;stroke:#000;stroke-width:0.3px;"/><path d="M298.171,616.9l17.917,-17.917m-17.917,-2.917l17.917,-17.917m-17.917,-2.917l17.917,-17.917m-17.917,-2.917l14.167,-14.167m-10,-94.583l13.75,-13.333m-17.917,-3.333l17.917,-17.917m-17.917,-2.917l17.917,-17.917m-17.917,-2.917l17.917,-17.917m-17.917,-2.917l17.917,-17.917m-17.917,-2.917l17.917,-17.917m-17.917,-3.333l17.917,-17.5m-17.917,-3.333l17.917,-17.5m-17.917,-3.333l17.917,-17.5m-17.917,-3.333l17.917,-17.5m-17.917,-3.333l17.917,-17.917m-17.917,-2.917l17.917,-17.917m-17.917,-2.917l17.917,-17.917m-17.917,-2.917l16.25,-16.25" style="fill:none;fill-rule:nonzero;stroke:#000;stroke-opacity:0.31;stroke-width:1.48px;"/><path d="M298.171,445.65l0,-283.333m17.917,0l0,283.333l-17.917,0m0,171.25l0,-76.667l17.917,0l0,76.667" style="fill:none;fill-rule:nonzero;stroke:#2b2b2b;stroke-width:2.95px;stroke-linecap:round;"/><path d="M670.254,162.317l17.917,17.5m-17.917,3.333l17.917,17.5m-17.917,3.333l17.917,17.5m-17.917,3.333l17.917,17.5m-17.917,3.333l17.917,17.917m-17.917,2.917l17.917,17.917m-17.917,2.917l17.917,17.917m-17.917,2.917l17.917,17.917m-17.917,2.917l17.917,17.917m-17.917,3.333l17.917,17.5m-17.917,3.333l17.917,17.5m-17.917,3.333l17.917,17.5m-17.917,3.333l17.917,17.5m-17.917,3.333l17.917,17.917m-17.917,2.917l17.917,17.917m-17.917,2.917l17.917,17.917m-17.917,2.917l17.917,17.917m-17.917,2.917l17.917,17.917m-17.917,3.333l17.917,17.5m-17.917,3.333l10.833,10.833m2.083,106.25l5,5m-17.917,2.917l17.917,17.917m-17.917,2.917l17.917,17.917m-17.917,3.333l17.917,17.5m-17.917,3.333l14.167,14.167" style="fill:none;fill-rule:nonzero;stroke:#000;stroke-opacity:0.31;stroke-width:1.48px;"/><path d="M670.254,546.067l0,-383.75m17.917,0l0,407.5l-17.917,0l0,-6.25m17.917,112.5l0,85m-17.917,0l0,-85l17.917,0" style="fill:none;fill-rule:nonzero;stroke:#2b2b2b;stroke-width:2.95px;stroke-linecap:round;"/><path d="M654.837,563.567l15.417,-15.417m-36.25,15.417l17.5,-17.5m-38.75,17.5l17.917,-17.5m-31.25,10.417l10.417,-10.417m-122.083,17.5l5.417,-5.417m-26.25,5.417l17.5,-17.5m-38.333,17.5l17.5,-17.5" style="fill:none;fill-rule:nonzero;stroke:#000;stroke-opacity:0.31;stroke-width:1.48px;"/><path d="M599.421,563.567l0,-17.5l70.833,0m0,17.5l-70.833,0m-106.25,0l-29.583,0m-17.5,0l0,-17.5l47.083,0l0,17.5" style="fill:none;fill-rule:nonzero;stroke:#2b2b2b;stroke-width:2.95px;stroke-linecap:round;"/><path d="M446.087,563.567l17.5,17.917m-17.5,2.917l17.5,17.917m-17.5,3.333l17.5,17.5m-17.5,3.333l17.5,17.5m-17.5,3.333l17.5,17.5m-17.5,3.333l17.5,17.5m-17.5,3.333l17.5,17.917m-17.5,2.917l17.5,17.917m-17.5,2.917l17.5,17.917m-17.5,2.917l17.5,17.917m-17.5,2.917l17.5,17.917m-17.5,3.333l6.25,6.25m2.083,106.25l9.167,9.583m-17.5,2.917l17.5,17.917m-17.5,2.917l17.5,17.917m-17.5,2.917l17.5,17.917m-17.5,3.333l17.5,17.5m-17.5,3.333l10,10" style="fill:none;fill-rule:nonzero;stroke:#000;stroke-opacity:0.31;stroke-width:1.48px;"/><path d="M446.087,616.9l0,-53.333m17.5,0l0,236.25l-17.5,0l0,-165.417m17.5,271.667l0,106.667m-17.5,0l0,-106.667l17.5,0" style="fill:none;fill-rule:nonzero;stroke:#2b2b2b;stroke-width:2.95px;stroke-linecap:round;"/><path d="M670.254,1012.317l17.917,-17.5m-17.917,-3.333l17.917,-17.5m-17.917,-3.333l17.917,-17.5m-17.917,-3.333l17.917,-17.5m-17.917,-3.333l17.917,-17.5m-17.917,-3.333l2.083,-2.083m10.833,-94.167l5,-5m-17.917,-3.333l17.917,-17.5m-17.917,-3.333l4.167,-4.167" style="fill:none;fill-rule:nonzero;stroke:#000;stroke-opacity:0.31;stroke-width:1.48px;"/><path d="M670.254,811.9l0,-33.333m17.917,0l0,33.333l-17.917,0m0,94.167l17.917,0l0,85m-17.917,21.667l0,-106.667" style="fill:none;fill-rule:nonzero;stroke:#2b2b2b;stroke-width:2.95px;stroke-linecap:round;"/><path d="M426.087,634.4l17.5,-17.5m-38.333,17.5l17.5,-17.5m-38.333,17.5l17.5,-17.5m-38.333,17.5l17.5,-17.5m-38.333,17.5l17.5,-17.5m-38.75,17.5l17.917,-17.5m-38.75,17.5l17.917,-17.5m-38.75,17.5l17.917,-17.5m-38.75,17.5l17.917,-17.5m-38.75,17.5l17.5,-17.5m-34.167,13.333l13.333,-13.333m-122.083,17.5l14.167,-13.75m-35,13.75l17.917,-17.5m-38.75,17.5l17.917,-17.5m-38.75,17.5l17.917,-17.5" style="fill:none;fill-rule:nonzero;stroke:#000;stroke-opacity:0.31;stroke-width:1.48px;"/><path d="M221.504,616.9l76.667,0m17.917,0l130,0m0,17.5l-224.583,0l0,-17.5m-94.583,17.5l-76.667,0m0,-17.5l76.667,0l0,17.5" style="fill:none;fill-rule:nonzero;stroke:#2b2b2b;stroke-width:2.95px;stroke-linecap:round;"/><path d="M1066.921,778.567l16.667,-16.667m-37.5,16.667l17.917,-17.5m-38.75,17.5l17.917,-17.5m-38.75,17.5l17.5,-17.5m-38.333,17.5l17.5,-17.5m-38.333,17.5l17.5,-17.5m-38.333,17.5l17.5,-17.5m-38.333,17.5l17.5,-17.5m-38.75,17.5l17.917,-17.5m-38.75,17.5l17.917,-17.5m-38.75,17.5l17.917,-17.5m-38.75,17.5l17.917,-17.5m-38.75,17.5l17.5,-17.5m-38.333,17.5l17.5,-17.5m-38.333,17.5l17.5,-17.5m-38.333,17.5l17.5,-17.5m-38.333,17.5l17.5,-17.5m-38.75,17.5l17.917,-17.5m-38.75,17.5l17.917,-17.5m-38.75,17.5l17.917,-17.5" style="fill:none;fill-rule:nonzero;stroke:#000;stroke-opacity:0.31;stroke-width:1.48px;"/><path d="M670.254,778.567l0,-17.5m17.917,0l395.417,0m0,17.5l-395.417,0" style="fill:none;fill-rule:nonzero;stroke:#2b2b2b;stroke-width:2.95px;stroke-linecap:round;"/><rect x="50.254" y="1012.734" width="413.333" height="35.417" style="fill:#fff;fill-opacity:0.1;"/><path d="M446.921,1048.15l16.667,-16.667m-37.5,16.667l35.417,-35.417m-56.25,35.417l35.417,-35.417m-56.25,35.417l35.417,-35.417m-56.25,35.417l35.417,-35.417m-56.25,35.417l35.417,-35.417m-56.667,35.417l35.417,-35.417m-56.25,35.417l35.417,-35.417m-56.25,35.417l35.417,-35.417m-56.25,35.417l35.417,-35.417m-56.25,35.417l35.417,-35.417m-56.25,35.417l35.417,-35.417m-56.25,35.417l35.417,-35.417m-56.25,35.417l35.417,-35.417m-56.25,35.417l35.417,-35.417m-56.667,35.417l35.417,-35.417m-56.25,35.417l35.417,-35.417m-56.25,35.417l35.417,-35.417m-56.25,35.417l35.417,-35.417m-56.25,35.417l35.417,-35.417m-35.417,14.167l14.583,-14.167m398.75,10l-10.417,-10m10.417,30.833l-31.25,-30.833m14.583,35.417l-35.417,-35.417m14.583,35.417l-35.417,-35.417m14.583,35.417l-35.417,-35.417m14.583,35.417l-35.417,-35.417m14.583,35.417l-35.417,-35.417m14.583,35.417l-35.833,-35.417m14.583,35.417l-35.417,-35.417m14.583,35.417l-35.417,-35.417m14.583,35.417l-35.417,-35.417m14.583,35.417l-35.417,-35.417m14.583,35.417l-35.417,-35.417m14.583,35.417l-35.417,-35.417m14.583,35.417l-35.417,-35.417m14.583,35.417l-35.417,-35.417m14.583,35.417l-35.833,-35.417m14.583,35.417l-35.417,-35.417m14.583,35.417l-35.417,-35.417m14.583,35.417l-35.417,-35.417m14.583,35.417l-20.833,-21.25" style="fill:none;fill-rule:nonzero;stroke:#000;stroke-opacity:0.31;stroke-width:1.48px;"/><path d="M50.254,1012.734l395.833,0m17.5,0l0,35.417l-413.333,0" style="fill:none;fill-rule:nonzero;stroke:#2b2b2b;stroke-width:2.95px;stroke-linecap:round;"/><rect x="14.837" y="162.317" width="35.417" height="885.833" style="fill:#fff;fill-opacity:0.1;"/><path d="M35.671,1048.15l14.583,-14.583m-35.417,14.583l35.417,-35.417m-35.417,14.167l35.417,-35.417m-35.417,14.583l35.417,-35.417m-35.417,14.583l35.417,-35.417m-35.417,14.583l35.417,-35.417m-35.417,14.583l35.417,-35.417m-35.417,14.583l35.417,-35.417m-35.417,14.583l35.417,-35.417m-35.417,14.583l35.417,-35.417m-35.417,14.583l35.417,-35.417m-35.417,14.167l35.417,-35.417m-35.417,14.583l35.417,-35.417m-35.417,14.583l35.417,-35.417m-35.417,14.583l35.417,-35.417m-35.417,14.583l35.417,-35.417m-35.417,14.583l35.417,-35.417m-35.417,14.583l35.417,-35.417m-35.417,14.583l35.417,-35.417m-35.417,14.583l35.417,-35.417m-35.417,14.167l35.417,-35.417m-35.417,14.583l35.417,-35.417m-35.417,14.583l35.417,-35.417m-35.417,14.583l35.417,-35.417m-35.417,14.583l35.417,-35.417m-35.417,14.583l35.417,-35.417m-35.417,14.583l35.417,-35.417m-35.417,14.583l35.417,-35.417m-35.417,14.583l35.417,-35.417m-35.417,14.167l35.417,-35.417m-35.417,14.583l35.417,-35.417m-35.417,14.583l35.417,-35.417m-35.417,14.583l35.417,-35.417m-35.417,14.583l35.417,-35.417m-35.417,14.583l35.417,-35.417m-35.417,14.583l35.417,-35.417m-35.417,14.583l35.417,-35.417m-35.417,14.583l35.417,-35.417m-35.417,14.167l35.417,-35.417m-35.417,14.583l35.417,-35.417m-35.417,14.583l35.417,-35.417m-35.417,14.583l35.417,-35.417m-35.417,14.583l29.583,-29.583m-29.583,8.75l8.75,-8.75m26.667,2.5l-2.5,-2.5m2.5,23.333l-23.333,-23.333m23.333,44.167l-35.417,-35.417m35.417,56.25l-35.417,-35.417m35.417,56.25l-35.417,-35.417m35.417,56.25l-35.417,-35.417m35.417,56.25l-35.417,-35.417m35.417,56.667l-35.417,-35.833m35.417,56.667l-35.417,-35.417m35.417,56.25l-35.417,-35.417m35.417,56.25l-35.417,-35.417m35.417,56.25l-35.417,-35.417m35.417,56.25l-35.417,-35.417m35.417,56.25l-35.417,-35.417m35.417,56.25l-35.417,-35.417m35.417,56.25l-35.417,-35.417m35.417,56.667l-35.417,-35.833m35.417,56.667l-35.417,-35.417m35.417,56.25l-35.417,-35.417m35.417,56.25l-35.417,-35.417m35.417,56.25l-35.417,-35.417m35.417,56.25l-35.417,-35.417m35.417,56.25l-35.417,-35.417m35.417,56.25l-35.417,-35.417m35.417,56.25l-35.417,-35.417m35.417,56.25l-35.417,-35.417m35.417,56.667l-35.417,-35.417m35.417,56.25l-35.417,-35.417m35.417,56.25l-35.417,-35.417m35.417,56.25l-35.417,-35.417m35.417,56.25l-35.417,-35.417m35.417,56.25l-35.417,-35.417m35.417,56.25l-35.417,-35.417m35.417,56.25l-35.417,-35.417m35.417,56.25l-35.417,-35.417m35.417,56.667l-35.417,-35.417m35.417,56.25l-35.417,-35.417m35.417,56.25l-35.417,-35.417m35.417,56.25l-35.417,-35.417m35.417,56.25l-35.417,-35.417m35.417,56.25l-35.417,-35.417m35.417,56.25l-35.417,-35.417m35.417,56.25l-35.417,-35.417m20.833,42.083l-20.833,-21.25" style="fill:none;fill-rule:nonzero;stroke:#000;stroke-opacity:0.31;stroke-width:1.48px;"/><path d="M50.254,162.317l0,454.583m0,17.5l0,378.333m0,35.417l-35.417,0m0,0l-0,-885.833" style="fill:none;fill-rule:nonzero;stroke:#2b2b2b;stroke-width:2.95px;stroke-linecap:round;"/><rect x="670.254" y="1012.734" width="413.333" height="35.417" style="fill:#fff;fill-opacity:0.1;"/><path d="M1066.921,1048.15l16.667,-16.667m-37.5,16.667l35.417,-35.417m-56.25,35.417l35.417,-35.417m-56.25,35.417l35.417,-35.417m-56.25,35.417l35.417,-35.417m-56.25,35.417l35.417,-35.417m-56.25,35.417l35.417,-35.417m-56.25,35.417l35.417,-35.417m-56.667,35.417l35.417,-35.417m-56.25,35.417l35.417,-35.417m-56.25,35.417l35.417,-35.417m-56.25,35.417l35.417,-35.417m-56.25,35.417l35.417,-35.417m-56.25,35.417l35.417,-35.417m-56.25,35.417l35.417,-35.417m-56.25,35.417l35.417,-35.417m-56.25,35.417l35.417,-35.417m-56.667,35.417l35.417,-35.417m-56.25,35.417l35.417,-35.417m-56.25,35.417l35.417,-35.417m-35.417,14.167l14.583,-14.167m398.75,10l-10.417,-10m10.417,30.833l-31.25,-30.833m14.583,35.417l-35.417,-35.417m14.583,35.417l-35.417,-35.417m14.583,35.417l-35.417,-35.417m14.583,35.417l-35.417,-35.417m14.583,35.417l-35.417,-35.417m14.583,35.417l-35.417,-35.417m14.583,35.417l-35.417,-35.417m14.583,35.417l-35.833,-35.417m14.583,35.417l-35.417,-35.417m14.583,35.417l-35.417,-35.417m14.583,35.417l-35.417,-35.417m14.583,35.417l-35.417,-35.417m14.583,35.417l-35.417,-35.417m14.583,35.417l-35.417,-35.417m14.583,35.417l-35.417,-35.417m14.583,35.417l-35.417,-35.417m14.583,35.417l-35.833,-35.417m14.583,35.417l-35.417,-35.417m14.583,35.417l-20.833,-21.25" style="fill:none;fill-rule:nonzero;stroke:#000;stroke-opacity:0.31;stroke-width:1.48px;"/><path d="M1083.587,1048.15l-413.333,0l0,-35.417" style="fill:none;fill-rule:nonzero;stroke:#2b2b2b;stroke-width:2.95px;stroke-linecap:round;"/><rect x="1083.587" y="162.317" width="35.417" height="885.833" style="fill:#fff;fill-opacity:0.1;"/><path d="M1104.421,1048.15l14.583,-14.583m-35.417,14.167l35.417,-35.417m-35.417,14.583l35.417,-35.417m-35.417,14.583l35.417,-35.417m-35.417,14.583l35.417,-35.417m-35.417,14.583l35.417,-35.417m-35.417,14.583l35.417,-35.417m-35.417,14.583l35.417,-35.417m-35.417,14.583l35.417,-35.417m-35.417,14.583l35.417,-35.417m-35.417,14.583l35.417,-35.833m-35.417,14.583l35.417,-35.417m-35.417,14.583l35.417,-35.417m-35.417,14.583l35.417,-35.417m-35.417,14.583l35.417,-35.417m-35.417,14.583l35.417,-35.417m-35.417,14.583l35.417,-35.417m-35.417,14.583l35.417,-35.417m-35.417,14.583l35.417,-35.417m-35.417,14.583l35.417,-35.833m-35.417,14.583l35.417,-35.417m-35.417,14.583l35.417,-35.417m-35.417,14.583l35.417,-35.417m-35.417,14.583l35.417,-35.417m-35.417,14.583l35.417,-35.417m-35.417,14.583l35.417,-35.417m-35.417,14.583l35.417,-35.417m-35.417,14.583l35.417,-35.417m-35.417,14.583l35.417,-35.833m-35.417,14.583l35.417,-35.417m-35.417,14.583l35.417,-35.417m-35.417,14.583l35.417,-35.417m-35.417,14.583l35.417,-35.417m-35.417,14.583l35.417,-35.417m-35.417,14.583l35.417,-35.417m-35.417,14.583l35.417,-35.417m-35.417,14.583l35.417,-35.417m-35.417,14.583l35.417,-35.833m-35.417,14.583l35.417,-35.417m-35.417,14.583l35.417,-35.417m-35.417,14.583l35.417,-35.417m-35.417,14.583l35.417,-35.417m-35.417,14.583l30,-29.583m-30,8.75l9.167,-8.75m26.25,2.5l-2.5,-2.5m2.5,23.333l-23.333,-23.333m23.333,44.167l-35.417,-35.417m35.417,56.25l-35.417,-35.417m35.417,56.25l-35.417,-35.417m35.417,56.25l-35.417,-35.417m35.417,56.25l-35.417,-35.417m35.417,56.667l-35.417,-35.417m35.417,56.25l-35.417,-35.417m35.417,56.25l-35.417,-35.417m35.417,56.25l-35.417,-35.417m35.417,56.25l-35.417,-35.417m35.417,56.25l-35.417,-35.417m35.417,56.25l-35.417,-35.417m35.417,56.25l-35.417,-35.417m35.417,56.25l-35.417,-35.417m35.417,56.667l-35.417,-35.833m35.417,56.667l-35.417,-35.417m35.417,56.25l-35.417,-35.417m35.417,56.25l-35.417,-35.417m35.417,56.25l-35.417,-35.417m35.417,56.25l-35.417,-35.417m35.417,56.25l-35.417,-35.417m35.417,56.25l-35.417,-35.417m35.417,56.25l-35.417,-35.417m35.417,56.667l-35.417,-35.833m35.417,56.667l-35.417,-35.417m35.417,56.25l-35.417,-35.417m35.417,56.25l-35.417,-35.417m35.417,56.25l-35.417,-35.417m35.417,56.25l-35.417,-35.417m35.417,56.25l-35.417,-35.417m35.417,56.25l-35.417,-35.417m35.417,56.25l-35.417,-35.417m35.417,56.667l-35.417,-35.833m35.417,56.667l-35.417,-35.417m35.417,56.25l-35.417,-35.417m35.417,56.25l-35.417,-35.417m35.417,56.25l-35.417,-35.417m35.417,56.25l-35.417,-35.417m35.417,56.25l-35.417,-35.417m35.417,56.25l-35.417,-35.417m35.417,56.25l-35.417,-35.417m20.833,42.083l-20.833,-21.25" style="fill:none;fill-rule:nonzero;stroke:#000;stroke-opacity:0.31;stroke-width:1.48px;"/><path d="M1083.587,761.067l0,-598.75m35.417,0l0,885.833l-35.417,0m0,-57.083l0,-212.5" style="fill:none;fill-rule:nonzero;stroke:#2b2b2b;stroke-width:2.95px;stroke-linecap:round;"/><rect x="14.837" y="126.9" width="1104.167" height="35.417" style="fill:#fff;fill-opacity:0.1;"/><path d="M1100.671,162.317l18.333,-18.75m-39.167,18.75l35.417,-35.417m-56.667,35.417l35.417,-35.417m-56.25,35.417l35.417,-35.417m-56.25,35.417l35.417,-35.417m-56.25,35.417l35.417,-35.417m-56.25,35.417l35.417,-35.417m-56.25,35.417l35.417,-35.417m-56.25,35.417l35.417,-35.417m-56.25,35.417l35.417,-35.417m-56.25,35.417l35.417,-35.417m-56.667,35.417l35.417,-35.417m-56.25,35.417l35.417,-35.417m-56.25,35.417l35.417,-35.417m-56.25,35.417l35.417,-35.417m-56.25,35.417l35.417,-35.417m-56.25,35.417l35.417,-35.417m-56.25,35.417l35.417,-35.417m-56.25,35.417l35.417,-35.417m-56.25,35.417l35.417,-35.417m-56.667,35.417l35.833,-35.417m-56.667,35.417l35.417,-35.417m-56.25,35.417l35.417,-35.417m-56.25,35.417l35.417,-35.417m-56.25,35.417l35.417,-35.417m-56.25,35.417l35.417,-35.417m-56.25,35.417l35.417,-35.417m-56.25,35.417l35.417,-35.417m-56.25,35.417l35.417,-35.417m-56.667,35.417l35.833,-35.417m-56.667,35.417l35.417,-35.417m-56.25,35.417l35.417,-35.417m-56.25,35.417l35.417,-35.417m-56.25,35.417l35.417,-35.417m-56.25,35.417l35.417,-35.417m-56.25,35.417l35.417,-35.417m-56.25,35.417l35.417,-35.417m-56.25,35.417l35.417,-35.417m-56.667,35.417l35.833,-35.417m-56.667,35.417l35.417,-35.417m-56.25,35.417l35.417,-35.417m-56.25,35.417l35.417,-35.417m-56.25,35.417l35.417,-35.417m-56.25,35.417l35.417,-35.417m-56.25,35.417l35.417,-35.417m-56.25,35.417l35.417,-35.417m-56.25,35.417l35.417,-35.417m-56.667,35.417l35.833,-35.417m-56.667,35.417l35.417,-35.417m-56.25,35.417l35.417,-35.417m-56.25,35.417l35.417,-35.417m-56.25,35.417l35.417,-35.417m-56.25,35.417l35.417,-35.417m-35.417,14.167l14.583,-14.167m1089.583,12.083l-12.083,-12.083m12.083,32.917l-32.917,-32.917m14.583,35.417l-35.417,-35.417m14.583,35.417l-35.417,-35.417m14.167,35.417l-35.417,-35.417m14.583,35.417l-35.417,-35.417m14.583,35.417l-35.417,-35.417m14.583,35.417l-35.417,-35.417m14.583,35.417l-35.417,-35.417m14.583,35.417l-35.417,-35.417m14.583,35.417l-35.417,-35.417m14.583,35.417l-35.417,-35.417m14.583,35.417l-35.417,-35.417m14.167,35.417l-35.417,-35.417m14.583,35.417l-35.417,-35.417m14.583,35.417l-35.417,-35.417m14.583,35.417l-35.417,-35.417m14.583,35.417l-35.417,-35.417m14.583,35.417l-35.417,-35.417m14.583,35.417l-35.417,-35.417m14.583,35.417l-35.417,-35.417m14.583,35.417l-35.417,-35.417m14.167,35.417l-35.417,-35.417m14.583,35.417l-35.417,-35.417m14.583,35.417l-35.417,-35.417m14.583,35.417l-35.417,-35.417m14.583,35.417l-35.417,-35.417m14.583,35.417l-35.417,-35.417m14.583,35.417l-35.417,-35.417m14.583,35.417l-35.417,-35.417m14.583,35.417l-35.417,-35.417m14.167,35.417l-35.417,-35.417m14.583,35.417l-35.417,-35.417m14.583,35.417l-35.417,-35.417m14.583,35.417l-35.417,-35.417m14.583,35.417l-35.417,-35.417m14.583,35.417l-35.417,-35.417m14.583,35.417l-35.417,-35.417m14.583,35.417l-35.417,-35.417m14.583,35.417l-35.417,-35.417m14.167,35.417l-35.417,-35.417m14.583,35.417l-35.417,-35.417m14.583,35.417l-35.417,-35.417m14.583,35.417l-35.417,-35.417m14.583,35.417l-35.417,-35.417m14.583,35.417l-35.417,-35.417m14.583,35.417l-35.417,-35.417m14.583,35.417l-35.417,-35.417m14.583,35.417l-35.417,-35.417m14.167,35.417l-35.417,-35.417m14.583,35.417l-35.417,-35.417m14.583,35.417l-35.417,-35.417m14.583,35.417l-35.417,-35.417m14.583,35.417l-20.833,-21.25" style="fill:none;fill-rule:nonzero;stroke:#000;stroke-opacity:0.31;stroke-width:1.48px;"/><path d="M14.837,126.9l1104.167,0l0,35.417m-35.417,0l-395.417,0m-17.917,0l-354.167,0m-17.917,0l-247.917,0m-35.417,0l0,-35.417" style="fill:none;fill-rule:nonzero;stroke:#2b2b2b;stroke-width:2.95px;stroke-linecap:round;"/><path d="M463.587,806.067l-17.5,0" style="fill:none;fill-rule:nonzero;stroke:#000;stroke-width:0.3px;"/><path d="M463.587,900.234l-112.083,0" style="fill:none;fill-rule:nonzero;stroke:#000;stroke-width:0.3px;"/><path d="M351.504,900.234c-0,-52.083 42.083,-94.167 94.583,-94.167" style="fill:none;fill-rule:nonzero;stroke:#000;stroke-width:0.3px;"/><rect x="446.087" y="799.817" width="17.5" height="106.25" style="fill:none;fill-rule:nonzero;stroke:#000;stroke-width:0.3px;"/><path d="M670.254,575.65l17.917,0" style="fill:none;fill-rule:nonzero;stroke:#000;stroke-width:0.3px;"/><path d="M670.254,669.817l112.083,0" style="fill:none;fill-rule:nonzero;stroke:#000;stroke-width:0.3px;"/><path d="M782.337,669.817c0,-52.083 -42.083,-94.167 -94.167,-94.167" style="fill:none;fill-rule:nonzero;stroke:#000;stroke-width:0.3px;"/><rect x="670.254" y="569.4" width="17.917" height="106.667" style="fill:none;fill-rule:nonzero;stroke:#000;stroke-width:0.3px;"/><rect x="316.087" y="546.067" width="130" height="70.833" style="fill:#ddb682;stroke:#000;stroke-width:0.77px;"/><path d="M316.087,546.067l65,70.833l65,-70.833" style="fill:none;fill-rule:nonzero;stroke:#000;stroke-width:0.3px;"/><rect x="126.921" y="616.9" width="94.583" height="17.5" style="fill:none;fill-rule:nonzero;stroke:#000;stroke-width:0.3px;"/><path d="M132.754,634.4l0,-100" style="fill:none;fill-rule:nonzero;stroke:#000;stroke-width:0.3px;"/><path d="M215.671,616.9c0,-45.833 -37.083,-82.5 -82.917,-82.5" style="fill:none;fill-rule:nonzero;stroke:#000;stroke-width:0.3px;"/><path d="M215.671,616.9l0,17.5" style="fill:none;fill-rule:nonzero;stroke:#000;stroke-width:0.3px;"/><rect x="298.171" y="445.65" width="17.917" height="94.583" style="fill:none;fill-rule:nonzero;stroke:#000;stroke-width:0.3px;"/><path d="M316.087,533.984l-100.417,0" style="fill:none;fill-rule:nonzero;stroke:#000;stroke-width:0.3px;"/><path d="M298.171,451.484c-45.417,0 -82.5,37.083 -82.5,82.5" style="fill:none;fill-rule:nonzero;stroke:#000;stroke-width:0.3px;"/><path d="M298.171,451.484l17.917,0" style="fill:none;fill-rule:nonzero;stroke:#000;stroke-width:0.3px;"/><path d="M499.004,563.567l0,-17.5" style="fill:none;fill-rule:nonzero;stroke:#000;stroke-width:0.3px;"/><path d="M593.587,563.567l0,-112.083" style="fill:none;fill-rule:nonzero;stroke:#000;stroke-width:0.3px;"/><path d="M593.587,451.484c-52.083,0 -94.583,42.5 -94.583,94.583" style="fill:none;fill-rule:nonzero;stroke:#000;stroke-width:0.3px;"/><rect x="493.171" y="546.067" width="106.25" height="17.5" style="fill:none;fill-rule:nonzero;stroke:#000;stroke-width:0.3px;"/><rect x="670.254" y="811.9" width="17.917" height="94.167" style="fill:none;fill-rule:nonzero;stroke:#000;stroke-width:0.3px;"/><path d="M670.254,817.734l100.417,0" style="fill:none;fill-rule:nonzero;stroke:#000;stroke-width:0.3px;"/><path d="M688.171,900.234c45.417,0 82.5,-37.083 82.5,-82.5" style="fill:none;fill-rule:nonzero;stroke:#000;stroke-width:0.3px;"/><path d="M688.171,900.234l-17.917,0" style="fill:none;fill-rule:nonzero;stroke:#000;stroke-width:0.3px;"/><g transform="matrix(1,0,0,1,-144.192678,235.525765)"><text x="634.912px" y="127.837px" style="font-family:'ArialMT', 'Arial', sans-serif;font-size:21.144px;fill:#2b2b2b;fill-opacity:0.99;">Pokoj</text><g transform="matrix(21.144211,0,0,21.144211,703.082952,151.45952)"></g><text x="619.642px" y="151.46px" style="font-family:'ArialMT', 'Arial', sans-serif;font-size:21.144px;fill:#2b2b2b;fill-opacity:0.99;">10.54 m²</text></g></g><g id="topR"><path d="M670.254,906.067l-70.833,0l0,106.667l70.833,0l0,-106.667Z" style="fill:#ddb682;stroke:#000;stroke-width:0.77px;"/><path d="M599.421,906.067l70.833,53.333l-70.833,53.333" style="fill:none;fill-rule:nonzero;stroke:#000;stroke-width:0.3px;"/><path d="M670.254,687.734l-70.833,0l0,124.167l70.833,0l0,-124.167Z" style="fill:#ddb682;stroke:#000;stroke-width:0.77px;"/><path d="M599.421,687.734l70.833,62.083l-70.833,62.083" style="fill:none;fill-rule:nonzero;stroke:#000;stroke-width:0.3px;"/></g><g id="topL"><path d="M534.421,906.067l-70.833,0l0,106.667l70.833,0l0,-106.667Z" style="fill:#ddb682;stroke:#000;stroke-width:0.77px;"/><path d="M534.421,906.067l-70.833,53.333l70.833,53.333" style="fill:none;fill-rule:nonzero;stroke:#000;stroke-width:0.3px;"/><path d="M534.421,728.984l-70.833,0l0,70.833l70.833,0l0,-70.833Z" style="fill:#ddb682;stroke:#000;stroke-width:0.77px;"/><path d="M534.421,728.984l-70.833,35.417l70.833,35.417" style="fill:none;fill-rule:nonzero;stroke:#000;stroke-width:0.3px;"/></g><g id="anchorTop"><path d="M1244.004,126.9l-250,0" style="fill:none;fill-rule:nonzero;stroke:#f00;stroke-width:0.3px;"/><path d="M1119.004,1.484l0,250.417" style="fill:none;fill-rule:nonzero;stroke:#f00;stroke-width:0.3px;"/></g></svg>