<?xml version="1.0" encoding="UTF-8" standalone="no"?><!DOCTYPE svg PUBLIC "-//W3C//DTD SVG 1.1//EN" "http://www.w3.org/Graphics/SVG/1.1/DTD/svg11.dtd"><svg width="100%" height="100%" viewBox="0 0 1246 1063" version="1.1" xmlns="http://www.w3.org/2000/svg" xmlns:xlink="http://www.w3.org/1999/xlink" xml:space="preserve" xmlns:serif="http://www.serif.com/" style="fill-rule:evenodd;clip-rule:evenodd;stroke-miterlimit:10;"><g><path d="M14.84,1048.15l0,-921.25l1104.17,0l0,921.25l-448.75,0l0,-35.42l-206.67,0l0,35.42l-448.75,0Z" style="fill:#fff;"/><path d="M581.5,563.57l0,9.17l-106.25,0l0,-9.17l-425,0l0,-401.25l620,0l0,401.25l-88.75,0Z" style="fill:#e0e0e0;fill-opacity:0.25;stroke:#a8a8a8;stroke-width:0.3px;"/><path d="M1083.59,162.32l0,607.92l-159.17,0l0,9.17l-94.58,0l0,-9.17l-141.67,0l0,-76.67l-9.17,0l0,-106.25l9.17,0l0,-425l395.42,0Z" style="fill:#e0e0e0;fill-opacity:0.25;stroke:#a8a8a8;stroke-width:0.3px;"/><path d="M446.09,799.82l8.75,0l0,106.25l-8.75,0l0,106.25l-395.83,0l0,-430.83l395.83,0l0,218.33Z" style="fill:#e0e0e0;fill-opacity:0.25;stroke:#a8a8a8;stroke-width:0.3px;"/><path d="M463.59,1012.32l2.08,0m2.08,0l3.75,0m1.67,0l3.75,0m2.08,0l3.75,0m1.67,0l3.75,0m2.08,0l3.75,0m1.67,0l3.75,0m2.08,0l3.75,0m1.67,0l3.75,0m2.08,0l3.75,0m1.67,0l3.75,0m2.08,0l3.75,0m1.67,0l3.75,0m2.08,0.42l3.75,0m1.67,0l3.75,0m2.08,0l3.75,0m1.67,0l3.75,0m2.08,0l3.75,0m1.67,0l3.75,0m2.08,0l3.75,0m1.67,0l3.75,0m2.08,0l3.75,0m1.67,0l3.75,0m2.08,0l3.75,0m1.67,0l3.75,0m2.08,0l3.75,0m1.67,0l3.75,0m2.08,0l3.75,0m1.67,0l3.75,0m2.08,0l3.75,0m1.67,0l3.75,0m2.08,0l3.75,0m1.67,0l3.75,0m2.08,0l3.75,0m1.67,0l3.75,0m2.08,0l3.75,0m1.67,0l5.83,0" style="fill:none;fill-rule:nonzero;stroke:#a8a8a8;stroke-width:0.3px;stroke-linecap:round;"/><path d="M679,693.57l-8.75,0l0,319.17l-206.67,-0.42l0,-106.25l-8.75,0l0,-106.25l8.75,0l0,-218.33l11.67,0l0,-8.75l106.25,0l0,8.75l88.75,0l0,5.83l8.75,0l0,106.25Z" style="fill:#e0e0e0;fill-opacity:0.25;stroke:#a8a8a8;stroke-width:0.3px;"/><path d="M709.42,1000.65l0,-212.5l120.42,0l0,-8.75l94.58,0l0,8.75l159.17,0l0,212.5l-374.17,0Z" style="fill:#e0e0e0;fill-opacity:0.25;stroke:#a8a8a8;stroke-width:0.3px;"/><g transform="matrix(1,0,0,1,144.582622,416.247558)"><text x="716.11px" y="184.91px" style="font-family:'ArialMT', 'Arial', sans-serif;font-size:21.14px;fill:#2b2b2b;fill-opacity:0.99;">Ložnice</text><g transform="matrix(21.144211,0,0,21.144211,794.278786,208.52956)"></g><text x="710.84px" y="208.53px" style="font-family:'ArialMT', 'Arial', sans-serif;font-size:21.14px;fill:#2b2b2b;fill-opacity:0.99;">17.38 m²</text></g><g transform="matrix(1,0,0,1,-342.525002,593.076758)"><text x="572.28px" y="240.75px" style="font-family:'ArialMT', 'Arial', sans-serif;font-size:21.14px;fill:#2b2b2b;fill-opacity:0.99;">Pokoj</text><g transform="matrix(21.144211,0,0,21.144211,640.451692,264.37036)"></g><text x="557.01px" y="264.37px" style="font-family:'ArialMT', 'Arial', sans-serif;font-size:21.14px;fill:#2b2b2b;fill-opacity:0.99;">12.29 m²</text></g><g transform="matrix(1,0,0,1,-134.22389,438.239818)"><text x="660.49px" y="191.85px" style="font-family:'ArialMT', 'Arial', sans-serif;font-size:21.14px;fill:#2b2b2b;fill-opacity:0.99;">Chodba</text><text x="651.1px" y="215.47px" style="font-family:'ArialMT', 'Arial', sans-serif;font-size:21.14px;fill:#2b2b2b;fill-opacity:0.99;">horní část</text><g transform="matrix(21.144211,0,0,21.144211,734.815313,239.096531)"></g><text x="663.13px" y="239.1px" style="font-family:'ArialMT', 'Arial', sans-serif;font-size:21.14px;fill:#2b2b2b;fill-opacity:0.99;">6.59 m²</text></g><g transform="matrix(1,0,0,1,-297.808185,217.250108)"><text x="586.4px" y="122.07px" style="font-family:'ArialMT', 'Arial', sans-serif;font-size:21.14px;fill:#2b2b2b;fill-opacity:0.99;">Pokoj</text><g transform="matrix(21.144211,0,0,21.144211,654.572792,145.68826)"></g><text x="571.13px" y="145.69px" style="font-family:'ArialMT', 'Arial', sans-serif;font-size:21.14px;fill:#2b2b2b;fill-opacity:0.99;">17.92 m²</text></g><g transform="matrix(1,0,0,1,123.524285,597.714025)"><text x="704.18px" y="242.21px" style="font-family:'ArialMT', 'Arial', sans-serif;font-size:21.14px;fill:#2b2b2b;fill-opacity:0.99;">Koupelna</text><g transform="matrix(21.144211,0,0,21.144211,784.699012,265.83476)"></g><text x="713.02px" y="265.83px" style="font-family:'ArialMT', 'Arial', sans-serif;font-size:21.14px;fill:#2b2b2b;fill-opacity:0.99;">5.77 m²</text></g><path d="M688.17,1012.73l0,-12.08l395.42,0l0,11.67l-395.42,0.42Z" style="fill:#ddd;"/><path d="M709.42,1000.65l374.17,0" style="fill:none;fill-rule:nonzero;stroke:#2b2b2b;stroke-width:2.95px;stroke-linecap:round;"/><path d="M709.42,788.15l-21.25,0l0,212.5l21.25,0l0,-212.5Z" style="fill:#ddd;"/><path d="M709.42,788.15l0,212.5" style="fill:none;fill-rule:nonzero;stroke:#2b2b2b;stroke-width:2.95px;stroke-linecap:round;"/><rect x="688.17" y="540.23" width="47.08" height="47.08" style="fill:#ddb682;stroke:#000;stroke-width:0.77px;"/><rect x="688.17" y="280.23" width="47.08" height="47.08" style="fill:#ddb682;stroke:#000;stroke-width:0.77px;"/><rect x="696.09" y="346.07" width="59.17" height="70.83" style="fill:#69b2ff;fill-opacity:0.5;"/><path d="M936.09,540.23l-100.83,0l0,-65l-75.83,0l0,-147.92l176.67,0l0,212.92Z" style="fill:#69b2ff;fill-opacity:0.5;"/><path d="M759.42,475.23l75.83,65l-147.08,0l0,-212.92l71.25,0l0,147.92Zm-4.17,-58.33l0,-70.83l-59.17,0l0,70.83l59.17,0Zm0,104.58l0,-70.83l-59.17,0l0,70.83l59.17,0Z" style="fill:#e5fcff;fill-opacity:0.5;"/><rect x="696.09" y="450.65" width="59.17" height="70.83" style="fill:#69b2ff;fill-opacity:0.5;"/><path d="M835.25,540.23l-75.83,-65l75.83,0l0,65Z" style="fill:#e5fcff;fill-opacity:0.5;"/><path d="M735.25,587.32l-47.08,0l0,-307.08l47.08,0l0,47.08l200.83,0l0,212.92l-200.83,0l0,47.08Z" style="fill:none;fill-rule:nonzero;stroke:#000;stroke-width:0.77px;"/><rect x="696.09" y="450.65" width="59.17" height="70.83" style="fill:none;stroke:#000;stroke-width:0.77px;"/><path d="M755.25,346.07l-59.17,0l0,70.83l59.17,0l0,-70.83Z" style="fill:none;stroke:#000;stroke-width:0.77px;"/><path d="M759.42,327.32l0,147.92l75.83,65l0,-65l-75.83,0" style="fill:none;fill-rule:nonzero;stroke:#000;stroke-width:0.77px;"/><path d="M735.25,540.23l-47.08,0" style="fill:none;fill-rule:nonzero;stroke:#000;stroke-width:0.77px;"/><path d="M735.25,327.32l-47.08,0" style="fill:none;fill-rule:nonzero;stroke:#000;stroke-width:0.77px;"/><path d="M264.42,215.23l23.75,11.67l1.25,-2.5c0.42,-0.42 0.83,-1.25 1.67,-1.25c0.83,-0.42 2.08,-0.42 2.5,0.42c14.17,8.75 19.17,27.08 11.67,41.67c-7.5,15 -25,21.67 -40.42,15.83c-0.83,0 -1.67,-0.83 -1.67,-1.67c-0.42,-0.83 -0.42,-1.67 0,-2.5l1.25,-2.5l-23.75,-11.67l23.75,-47.5Z" style="fill:#cfd4a2;"/><path d="M264.42,274.4l-23.75,-11.67" style="fill:none;fill-rule:nonzero;stroke:#000;stroke-width:0.77px;"/><path d="M264.84,281.07c-0.83,0 -1.67,-0.83 -1.67,-1.67c-0.42,-0.83 -0.42,-1.67 0,-2.5" style="fill:none;fill-rule:nonzero;stroke:#000;stroke-width:0.77px;"/><path d="M288.17,226.9l1.25,-2.5" style="fill:none;fill-rule:nonzero;stroke:#000;stroke-width:0.77px;"/><path d="M263.17,276.9l1.25,-2.5" style="fill:none;fill-rule:nonzero;stroke:#000;stroke-width:0.77px;"/><path d="M288.17,226.9c12.92,6.67 18.33,22.5 11.67,35.83c-6.25,12.92 -22.5,18.33 -35.42,11.67" style="fill:none;fill-rule:nonzero;stroke:#000;stroke-width:0.77px;"/><path d="M293.59,223.57c14.17,8.75 19.17,27.08 11.67,41.67c-7.5,15 -25,21.67 -40.42,15.83" style="fill:none;fill-rule:nonzero;stroke:#000;stroke-width:0.77px;"/><path d="M264.42,215.23l23.75,11.67" style="fill:none;fill-rule:nonzero;stroke:#000;stroke-width:0.77px;"/><path d="M240.67,262.73l23.75,-47.5" style="fill:none;fill-rule:nonzero;stroke:#000;stroke-width:0.77px;"/><path d="M289.42,224.4c0.42,-0.42 0.83,-1.25 1.67,-1.25c0.83,-0.42 2.08,-0.42 2.5,0.42" style="fill:none;fill-rule:nonzero;stroke:#000;stroke-width:0.77px;"/><rect x="203.59" y="162.32" width="142.08" height="70.83" style="fill:#ddb682;stroke:#000;stroke-width:0.77px;"/><path d="M998.17,242.32l12.08,23.75l-2.5,1.25c-0.83,0.42 -1.25,1.25 -1.67,2.08c-0.42,0.83 0,1.67 0.42,2.08c8.75,14.17 27.08,19.17 42.08,11.67c14.58,-7.5 21.67,-25 15.83,-40.42c-0.42,-0.83 -1.25,-1.25 -2.08,-1.67c-0.42,-0.42 -1.67,-0.42 -2.08,0l-2.5,1.25l-12.08,-23.75l-47.5,23.75Z" style="fill:#cfd4a2;"/><path d="M1057.75,242.32l-12.08,-23.75" style="fill:none;fill-rule:nonzero;stroke:#000;stroke-width:0.77px;"/><path d="M1064.42,242.73c-0.42,-0.83 -1.25,-1.25 -2.08,-1.67c-0.42,-0.42 -1.67,-0.42 -2.08,0" style="fill:none;fill-rule:nonzero;stroke:#000;stroke-width:0.77px;"/><path d="M1010.25,266.07l-2.5,1.25" style="fill:none;fill-rule:nonzero;stroke:#000;stroke-width:0.77px;"/><path d="M1060.25,241.07l-2.5,1.25" style="fill:none;fill-rule:nonzero;stroke:#000;stroke-width:0.77px;"/><path d="M1010.25,266.07c6.25,13.33 22.5,18.33 35.42,12.08c13.33,-6.67 18.33,-22.5 12.08,-35.83" style="fill:none;fill-rule:nonzero;stroke:#000;stroke-width:0.77px;"/><path d="M1006.5,271.48c8.75,14.17 27.08,19.17 42.08,11.67c14.58,-7.5 21.67,-25 15.83,-40.42" style="fill:none;fill-rule:nonzero;stroke:#000;stroke-width:0.77px;"/><path d="M998.17,242.32l12.08,23.75" style="fill:none;fill-rule:nonzero;stroke:#000;stroke-width:0.77px;"/><path d="M1045.67,218.57l-47.5,23.75" style="fill:none;fill-rule:nonzero;stroke:#000;stroke-width:0.77px;"/><path d="M1007.75,267.32c-0.83,0.42 -1.25,1.25 -1.67,2.08c-0.42,0.83 0,1.67 0.42,2.08" style="fill:none;fill-rule:nonzero;stroke:#000;stroke-width:0.77px;"/><rect x="941.92" y="162.32" width="141.67" height="70.83" style="fill:#ddb682;stroke:#000;stroke-width:0.77px;"/><rect x="304" y="581.48" width="142.08" height="70.83" style="fill:#ddb682;stroke:#000;stroke-width:0.77px;"/><path d="M446.09,652.32l-70.83,-70.83l-71.25,70.83" style="fill:none;fill-rule:nonzero;stroke:#000;stroke-width:0.3px;"/><rect x="162.34" y="581.48" width="141.67" height="70.83" style="fill:#ddb682;stroke:#000;stroke-width:0.77px;"/><path d="M304,652.32l-70.83,-70.83l-70.83,70.83" style="fill:none;fill-rule:nonzero;stroke:#000;stroke-width:0.3px;"/><rect x="50.25" y="581.48" width="112.08" height="70.83" style="fill:#ddb682;stroke:#000;stroke-width:0.77px;"/><path d="M162.34,652.32l-55.83,-70.83l-56.25,70.83" style="fill:none;fill-rule:nonzero;stroke:#000;stroke-width:0.3px;"/><path d="M599.42,421.9l70.83,0l0,-141.67l-70.83,0l0,141.67Z" style="fill:#ddb682;stroke:#000;stroke-width:0.77px;"/><path d="M599.42,280.23l70.83,70.83l-70.83,70.83" style="fill:none;fill-rule:nonzero;stroke:#000;stroke-width:0.3px;"/><path d="M599.42,563.57l70.83,0l0,-141.67l-70.83,0l0,141.67Z" style="fill:#ddb682;stroke:#000;stroke-width:0.77px;"/><path d="M599.42,421.9l70.83,70.83l-70.83,70.83" style="fill:none;fill-rule:nonzero;stroke:#000;stroke-width:0.3px;"/><path d="M103.17,825.23l12.08,23.75l-2.5,1.25c-0.83,0.42 -1.25,0.83 -1.67,1.67c0,0.83 0,1.67 0.42,2.5c8.75,14.17 27.08,19.17 42.08,11.67c14.58,-7.5 21.67,-25 15.83,-40.42c-0.42,-0.83 -0.83,-1.67 -1.67,-2.08c-0.83,0 -1.67,0 -2.5,0.42l-2.5,1.25l-12.08,-24.17l-47.5,24.17Z" style="fill:#cfd4a2;"/><path d="M162.75,825.23l-12.08,-24.17" style="fill:none;fill-rule:nonzero;stroke:#000;stroke-width:0.77px;"/><path d="M169.42,825.65c-0.42,-0.83 -0.83,-1.67 -1.67,-2.08c-0.83,0 -1.67,0 -2.5,0.42" style="fill:none;fill-rule:nonzero;stroke:#000;stroke-width:0.77px;"/><path d="M115.25,848.98l-2.5,1.25" style="fill:none;fill-rule:nonzero;stroke:#000;stroke-width:0.77px;"/><path d="M165.25,823.98l-2.5,1.25" style="fill:none;fill-rule:nonzero;stroke:#000;stroke-width:0.77px;"/><path d="M115.25,848.98c6.67,12.92 22.5,18.33 35.42,11.67c13.33,-6.67 18.75,-22.5 12.08,-35.42" style="fill:none;fill-rule:nonzero;stroke:#000;stroke-width:0.77px;"/><path d="M111.5,854.4c8.75,14.17 27.08,19.17 42.08,11.67c14.58,-7.5 21.67,-25 15.83,-40.42" style="fill:none;fill-rule:nonzero;stroke:#000;stroke-width:0.77px;"/><path d="M103.17,825.23l12.08,23.75" style="fill:none;fill-rule:nonzero;stroke:#000;stroke-width:0.77px;"/><path d="M150.67,801.07l-47.5,24.17" style="fill:none;fill-rule:nonzero;stroke:#000;stroke-width:0.77px;"/><path d="M112.75,850.23c-0.83,0.42 -1.25,0.83 -1.67,1.67c0,0.83 0,1.67 0.42,2.5" style="fill:none;fill-rule:nonzero;stroke:#000;stroke-width:0.77px;"/><path d="M50.25,906.07l70.83,0l0,-141.67l-70.83,0l0,141.67Z" style="fill:#ddb682;stroke:#000;stroke-width:0.77px;"/><rect x="688.17" y="699.4" width="141.67" height="70.83" style="fill:#ddb682;stroke:#000;stroke-width:0.77px;"/><path d="M829.84,699.4l-70.83,70.83l-70.83,-70.83" style="fill:none;fill-rule:nonzero;stroke:#000;stroke-width:0.3px;"/><rect x="930.25" y="699.4" width="153.33" height="70.83" style="fill:#ddb682;stroke:#000;stroke-width:0.77px;"/><path d="M1083.59,699.4l-76.67,70.83l-76.67,-70.83" style="fill:none;fill-rule:nonzero;stroke:#000;stroke-width:0.3px;"/><path d="M860.67,984.82l-25.83,0c-3.33,0 -5,-1.67 -5,-5.42l0,-24.58c0,-3.33 1.67,-5 5,-5l54.58,0c3.33,0 5,1.67 5,5l0,24.58c0,3.75 -1.67,5.42 -5,5.42l-19.58,0" style="fill:none;fill-rule:nonzero;stroke:#000;stroke-width:0.3px;"/><path d="M816.92,942.73l164.58,0c1.25,0 1.67,0.83 1.67,2.08l0,55.42c0,0.42 0,0.42 -0.42,0.42l-166.67,0c0,0 -0.42,0 -0.42,-0.42l0,-55.42c0,-1.25 0.42,-2.08 1.25,-2.08Z" style="fill:#f7f7f7;stroke:#000;stroke-width:1.48px;"/><path d="M942.34,989.4l-0.42,0" style="fill:none;fill-rule:nonzero;stroke:#000;stroke-width:0.3px;"/><path d="M935.67,984.82l-26.25,0c-2.92,0 -4.58,-1.67 -4.58,-5.42l0,-24.58c0,-3.33 1.67,-5 4.58,-5l55,0c2.92,0 4.58,1.67 4.58,5l0,24.58c0,3.75 -1.67,5.42 -4.58,5.42l-20,0" style="fill:none;fill-rule:nonzero;stroke:#000;stroke-width:0.3px;"/><path d="M869.84,988.98l0.42,0c0,0 0.42,0 0.42,0.42l0,3.75c0,0.42 -0.42,0.42 -0.42,0.42l-2.5,0c-0.42,0 -0.42,0 -0.42,-0.42l0,-3.75c0,-0.42 0,-0.42 0.42,-0.42l1.25,0" style="fill:none;fill-rule:nonzero;stroke:#000;stroke-width:0.3px;"/><path d="M944.42,988.98l0.83,0l0,4.58l-2.92,0l0,-4.58l1.25,0" style="fill:none;fill-rule:nonzero;stroke:#000;stroke-width:0.3px;"/><path d="M863.17,991.07l0,-25c0,-0.83 -0.42,-1.25 -1.25,-1.25c-0.42,0 -0.83,0.42 -0.83,1.25c0,8.33 -0.42,16.67 -0.42,25c0,0.42 0.42,0.83 0.42,1.25l1.67,0c0.42,-0.42 0.42,-0.83 0.42,-1.25Z" style="fill:none;fill-rule:nonzero;stroke:#000;stroke-width:0.3px;"/><path d="M938.17,991.07l0,-25c0,-0.83 -0.42,-1.25 -1.25,-1.25c-0.83,0 -1.25,0.42 -1.25,1.25l0,25c0,0.42 0,0.83 0.42,1.25l1.67,0c0,-0.42 0.42,-0.83 0.42,-1.25Z" style="fill:none;fill-rule:nonzero;stroke:#000;stroke-width:0.3px;"/><path d="M942.34,993.15l-0.42,0" style="fill:none;fill-rule:nonzero;stroke:#000;stroke-width:0.3px;"/><path d="M863.17,972.73c1.25,0.42 1.67,1.67 1.67,2.92c0,0.83 -0.42,2.08 -1.67,2.5" style="fill:none;fill-rule:nonzero;stroke:#000;stroke-width:0.3px;"/><path d="M938.17,972.73c0.83,0.42 1.67,1.67 1.67,2.92c0,0.83 -0.83,2.08 -1.67,2.5" style="fill:none;fill-rule:nonzero;stroke:#000;stroke-width:0.3px;"/><path d="M863.17,988.15c1.25,0.83 2.08,2.08 1.67,3.75c-0.42,1.25 -1.25,2.5 -2.92,2.5c-1.25,0 -2.5,-1.25 -2.92,-2.5c0,-1.67 0.42,-2.92 1.67,-3.75" style="fill:none;fill-rule:nonzero;stroke:#000;stroke-width:0.3px;"/><path d="M938.17,988.15c1.25,0.83 1.67,2.08 1.67,3.75c-0.42,1.25 -1.67,2.5 -2.92,2.5c-1.67,0 -2.5,-1.25 -2.92,-2.5c-0.42,-1.67 0.42,-2.92 1.67,-3.75" style="fill:none;fill-rule:nonzero;stroke:#000;stroke-width:0.3px;"/><path d="M860.67,978.15c-0.83,-0.83 -1.25,-1.67 -1.25,-2.92c0,-0.83 0.42,-1.67 1.67,-2.5" style="fill:none;fill-rule:nonzero;stroke:#000;stroke-width:0.3px;"/><path d="M935.67,978.15c-0.83,-0.83 -1.25,-1.67 -1.25,-2.92c0,-0.83 0.42,-1.67 1.25,-2.5" style="fill:none;fill-rule:nonzero;stroke:#000;stroke-width:0.3px;"/><path d="M863.59,993.57l3.75,0l0,-4.58l-3.33,0" style="fill:none;fill-rule:nonzero;stroke:#000;stroke-width:0.3px;"/><path d="M938.59,993.57l3.33,0l0,-4.58l-2.92,0" style="fill:none;fill-rule:nonzero;stroke:#000;stroke-width:0.3px;"/><path d="M869,990.23l0,-7.08c0,-0.42 0,-0.42 0.42,-0.42c0,0 0.42,0 0.42,0.42l0,7.08" style="fill:none;fill-rule:nonzero;stroke:#000;stroke-width:0.3px;"/><path d="M943.59,990.23l0,-7.08c0,-0.42 0.42,-0.42 0.42,-0.42l0.42,0l0,7.5" style="fill:none;fill-rule:nonzero;stroke:#000;stroke-width:0.3px;"/><path d="M869,984.82l-5.83,0" style="fill:none;fill-rule:nonzero;stroke:#000;stroke-width:0.3px;"/><path d="M943.59,984.82l-5.42,0" style="fill:none;fill-rule:nonzero;stroke:#000;stroke-width:0.3px;"/><path d="M860.67,984.82l-25.83,0c-3.33,0 -5,-1.67 -5,-5.42l0,-24.58c0,-3.33 1.67,-5 5,-5l54.58,0c3.33,0 5,1.67 5,5l0,24.58c0,3.75 -1.67,5.42 -5,5.42l-19.58,0" style="fill:none;fill-rule:nonzero;stroke:#000;stroke-width:0.3px;"/><path d="M988.59,788.15c-3.33,0 -5.42,1.67 -5.42,5.42l0,201.67c0,3.75 2.08,5.42 5.42,5.42l89.58,0c3.75,0 5.42,-1.67 5.42,-5.42l0,-201.67c0,-3.75 -1.67,-5.42 -5.42,-5.42l-89.58,0Z" style="fill:#f7f7f7;stroke:#000;stroke-width:1.48px;"/><path d="M1031.5,978.98c-12.08,-0.83 -20,-5.83 -23.33,-15.42c0,-0.83 -0.42,-1.25 -0.42,-2.08c-6.67,-45.83 -9.17,-83.75 -7.5,-114.58l0,-0.83c2.08,-17.08 12.92,-26.25 33.33,-26.67c20,0.42 31.25,9.58 32.92,26.67l0,0.83c2.08,30.83 -0.42,68.75 -7.08,114.58c-0.42,0.83 -0.42,1.25 -0.83,2.08c-3.33,9.58 -10.83,14.58 -23.33,15.42" style="fill:none;fill-rule:nonzero;stroke:#000;stroke-width:0.3px;"/><path d="M1035.67,980.65c0,-1.67 -0.42,-2.92 -2.08,-2.92c-1.67,0 -2.5,1.25 -2.5,2.92c0,3.75 -0.42,7.5 -0.42,11.25c-0.42,1.25 0,2.08 0.42,2.92c0.83,0.83 1.67,1.25 2.5,1.25c0.83,0 1.67,-0.42 2.08,-1.25c0.83,-0.83 0.83,-1.67 0.83,-2.92c0,-3.75 -0.42,-7.5 -0.83,-11.25Z" style="fill:none;fill-rule:nonzero;stroke:#000;stroke-width:0.3px;"/><path d="M1031.5,983.98c-0.42,2.92 -0.42,5.83 -0.83,8.75c0,0.83 0.42,1.25 0.83,2.08c0.42,0.42 1.25,0.83 2.08,0.83c0.83,0 1.25,-0.42 2.08,-0.83c0.42,-0.83 0.42,-1.25 0.42,-2.08c0,-2.92 -0.42,-5.83 -0.42,-8.75c0,-1.25 -0.83,-2.08 -2.08,-2.08c-1.67,0 -2.08,0.83 -2.08,2.08Z" style="fill:none;fill-rule:nonzero;stroke:#000;stroke-width:0.3px;"/><path d="M1033.59,966.07c2.08,0 3.75,-1.67 3.75,-3.75c0,-1.67 -1.67,-3.33 -3.75,-3.33c-2.5,0 -4.17,1.67 -4.17,3.33c0,2.08 1.67,3.75 4.17,3.75" style="fill:none;fill-rule:nonzero;stroke:#000;stroke-width:0.3px;"/><path d="M1030.67,988.98c-17.08,-0.83 -28.33,-7.08 -33.75,-18.75c-0.42,-0.83 -0.83,-1.67 -1.25,-2.5c-6.25,-52.92 -8.75,-97.92 -7.5,-135.83l0,-0.83c3.33,-23.75 18.33,-36.25 45.42,-36.67c27.08,0.42 42.08,12.92 45,36.67c0.42,0.42 0.42,0.83 0.42,0.83c1.25,37.92 -1.25,82.92 -7.92,135.83c0,0.83 -0.42,1.67 -0.83,2.5c-5.42,11.67 -16.67,17.92 -33.75,18.75" style="fill:none;fill-rule:nonzero;stroke:#000;stroke-width:0.3px;"/><path d="M599.42,280.65l70.83,0l0,-118.33l-70.83,0l0,118.33Z" style="fill:#ddb682;stroke:#000;stroke-width:0.77px;"/><path d="M599.42,162.32l70.83,59.17l-70.83,59.17" style="fill:none;fill-rule:nonzero;stroke:#000;stroke-width:0.3px;"/><path d="M50.25,457.32l47.08,0l0,-47.08l-47.08,0l0,47.08Z" style="fill:#ddb682;stroke:#000;stroke-width:0.77px;"/><path d="M156.5,209.4l47.08,0l0,-47.08l-47.08,0l0,47.08Z" style="fill:#ddb682;stroke:#000;stroke-width:0.77px;"/><path d="M406.09,215.23l23.75,11.67l1.25,-2.5c0.42,-0.42 1.25,-1.25 2.08,-1.25c0.83,-0.42 1.67,-0.42 2.08,0.42c14.17,8.75 19.17,27.08 11.67,41.67c-7.5,15 -25,21.67 -40.42,15.83c-0.83,0 -1.25,-0.83 -1.67,-1.67c-0.42,-0.83 -0.42,-1.67 0,-2.5l1.25,-2.5l-23.75,-11.67l23.75,-47.5Z" style="fill:#cfd4a2;"/><path d="M406.09,274.4l-23.75,-11.67" style="fill:none;fill-rule:nonzero;stroke:#000;stroke-width:0.77px;"/><path d="M406.5,281.07c-0.83,0 -1.25,-0.83 -1.67,-1.67c-0.42,-0.83 -0.42,-1.67 0,-2.5" style="fill:none;fill-rule:nonzero;stroke:#000;stroke-width:0.77px;"/><path d="M429.84,226.9l1.25,-2.5" style="fill:none;fill-rule:nonzero;stroke:#000;stroke-width:0.77px;"/><path d="M404.84,276.9l1.25,-2.5" style="fill:none;fill-rule:nonzero;stroke:#000;stroke-width:0.77px;"/><path d="M429.84,226.9c13.33,6.67 18.33,22.5 12.08,35.83c-6.67,12.92 -22.5,18.33 -35.83,11.67" style="fill:none;fill-rule:nonzero;stroke:#000;stroke-width:0.77px;"/><path d="M435.25,223.57c14.17,8.75 19.17,27.08 11.67,41.67c-7.5,15 -25,21.67 -40.42,15.83" style="fill:none;fill-rule:nonzero;stroke:#000;stroke-width:0.77px;"/><path d="M406.09,215.23l23.75,11.67" style="fill:none;fill-rule:nonzero;stroke:#000;stroke-width:0.77px;"/><path d="M382.34,262.73l23.75,-47.5" style="fill:none;fill-rule:nonzero;stroke:#000;stroke-width:0.77px;"/><path d="M431.09,224.4c0.42,-0.42 1.25,-1.25 2.08,-1.25c0.83,-0.42 1.67,-0.42 2.08,0.42" style="fill:none;fill-rule:nonzero;stroke:#000;stroke-width:0.77px;"/><rect x="345.67" y="162.32" width="141.67" height="70.83" style="fill:#ddb682;stroke:#000;stroke-width:0.77px;"/><path d="M50.25,1012.73l88.75,0l0,-75l40.83,-31.67l-129.58,0l0,106.67Zm73.33,-18.75l-61.67,0l0,-65.83l61.67,0l0,65.83Z" style="fill:#e5fffe;fill-opacity:0.5;"/><path d="M179.84,937.73l-40.83,0l0,75l159.17,0l0,-106.67l-118.33,0l0,31.67Z" style="fill:#bedcff;"/><rect x="61.92" y="928.15" width="61.67" height="65.83" style="fill:#bedcff;"/><path d="M179.84,937.73l0,-31.67l-40.83,31.67l40.83,0Z" style="fill:#e5fffe;fill-opacity:0.5;"/><path d="M298.17,906.07l-247.92,0l0,106.67l247.92,0l0,-106.67Z" style="fill:none;stroke:#000;stroke-width:0.77px;"/><path d="M139,1012.73l0,-75l40.83,-31.67l0,31.67l-40.83,0" style="fill:none;fill-rule:nonzero;stroke:#000;stroke-width:0.77px;"/><path d="M123.59,928.15l-61.67,0l0,65.83l61.67,0l0,-65.83Z" style="fill:none;stroke:#000;stroke-width:0.77px;"/><path d="M50.25,563.57l88.75,0l0,-74.58l40.83,-31.67l-129.58,0l0,106.25Zm73.33,-18.33l-61.67,0l0,-65.83l61.67,0l0,65.83Z" style="fill:#e5fffe;fill-opacity:0.5;"/><path d="M179.84,488.98l-40.83,0l0,74.58l159.17,0l0,-106.25l-118.33,0l0,31.67Z" style="fill:#bedcff;"/><rect x="61.92" y="479.4" width="61.67" height="65.83" style="fill:#bedcff;"/><path d="M179.84,488.98l0,-31.67l-40.83,31.67l40.83,0Z" style="fill:#e5fffe;fill-opacity:0.5;"/><path d="M298.17,457.32l-247.92,0l0,106.25l247.92,0l0,-106.25Z" style="fill:none;stroke:#000;stroke-width:0.77px;"/><path d="M139,563.57l0,-74.58l40.83,-31.67l0,31.67l-40.83,0" style="fill:none;fill-rule:nonzero;stroke:#000;stroke-width:0.77px;"/><path d="M123.59,479.4l-61.67,0l0,65.83l61.67,0l0,-65.83Z" style="fill:none;stroke:#000;stroke-width:0.77px;"/><path d="M439.84,528.15l-70.83,0l0,35.42l70.83,0l0,-35.42Z" style="fill:#ddb682;stroke:#000;stroke-width:0.77px;"/><path d="M369,563.57l70.83,-35.42" style="fill:none;fill-rule:nonzero;stroke:#000;stroke-width:0.3px;"/><path d="M369,528.15l-70.83,0l0,35.42l70.83,0l0,-35.42Z" style="fill:#ddb682;stroke:#000;stroke-width:0.77px;"/><path d="M298.17,563.57l70.83,-35.42" style="fill:none;fill-rule:nonzero;stroke:#000;stroke-width:0.3px;"/><path d="M709.42,853.15l0,40l42.08,1.25c11.25,-0.42 20.42,-9.58 20.42,-21.25c0,-11.67 -9.17,-20.83 -20.42,-21.25l-42.08,1.25Z" style="fill:#e0e0e0;stroke:#000;stroke-width:0.3px;"/><path d="M767.75,873.15c0,3.75 -0.83,7.08 -2.92,10c-3.75,5 -9.58,7.92 -15.83,7.92c-6.25,-0.42 -11.67,-3.33 -15.42,-8.33c-1.67,-2.92 -2.92,-6.25 -2.92,-9.58c0,-3.33 1.25,-6.67 2.92,-9.58c3.75,-5 9.17,-7.92 15.42,-8.33c6.25,0 12.08,2.92 15.83,7.92c2.08,2.92 2.92,6.25 2.92,10Z" style="fill:#b4b4b4;stroke:#000;stroke-width:0.3px;"/><path d="M709.42,873.15l2.5,0" style="fill:none;fill-rule:nonzero;stroke:#000;stroke-width:0.3px;"/><path d="M733.59,882.73c1.67,0 2.92,0 4.58,-0.42c1.25,0 2.5,-0.42 3.75,-1.25c1.25,-0.83 2.08,-1.67 2.92,-2.5c0.83,-0.83 1.25,-1.67 1.25,-2.5c0.42,-0.83 0.42,-1.67 0.42,-2.08l0,-0.83" style="fill:none;fill-rule:nonzero;stroke:#000;stroke-width:0.3px;"/><path d="M738.59,882.32c-0.42,-0.83 -0.83,-1.25 -1.25,-2.08c-0.42,-0.83 -0.83,-1.67 -1.25,-2.5c-0,-0.83 -0,-1.67 -0.42,-2.5l-0,-2.08" style="fill:none;fill-rule:nonzero;stroke:#000;stroke-width:0.3px;"/><ellipse cx="723.17" cy="882.11" rx="1.25" ry="1.46" style="fill:none;stroke:#000;stroke-width:0.3px;"/><path d="M733.59,863.57c1.67,0 2.92,0 4.58,0.42c1.25,0 2.5,0.42 3.75,1.25c1.25,0.83 2.08,1.67 2.92,2.5c0.83,0.83 1.25,1.67 1.25,2.5c0.42,0.83 0.42,1.67 0.42,2.08l0,0.83" style="fill:none;fill-rule:nonzero;stroke:#000;stroke-width:0.3px;"/><path d="M738.59,863.98c-0.42,0.83 -0.83,1.25 -1.25,2.08c-0.42,0.83 -0.83,1.67 -1.25,2.5c0,0.83 0,1.67 -0.42,2.5l0,2.08" style="fill:none;fill-rule:nonzero;stroke:#000;stroke-width:0.3px;"/><path d="M723.17,865.65c-0.83,0 -1.25,-0.83 -1.25,-1.25c0,-0.83 0.42,-1.67 1.25,-1.67c0.83,0 1.25,0.83 1.25,1.67c0,0.42 -0.42,1.25 -1.25,1.25Z" style="fill:none;fill-rule:nonzero;stroke:#000;stroke-width:0.3px;"/><path d="M50.25,162.32l0,88.33l74.58,0l31.67,41.25l0,-129.58l-106.25,0Zm18.33,73.33l0,-61.67l65.83,0l0,61.67l-65.83,0Z" style="fill:#e5fffe;fill-opacity:0.5;"/><path d="M124.84,291.9l0,-41.25l-74.58,0l0,159.58l106.25,0l0,-118.33l-31.67,0Z" style="fill:#bedcff;"/><path d="M68.59,235.65l65.83,0l0,-61.67l-65.83,0l0,61.67Z" style="fill:#bedcff;"/><path d="M124.84,291.9l31.67,0l-31.67,-41.25l0,41.25Z" style="fill:#e5fffe;fill-opacity:0.5;"/><rect x="50.25" y="162.32" width="106.25" height="247.92" style="fill:none;stroke:#000;stroke-width:0.77px;"/><path d="M50.25,250.65l74.58,0l31.67,41.25l-31.67,0l0,-41.25" style="fill:none;fill-rule:nonzero;stroke:#000;stroke-width:0.77px;"/><rect x="68.59" y="173.98" width="65.83" height="61.67" style="fill:none;stroke:#000;stroke-width:0.77px;"/><path d="M446.09,976.9l-77.08,0l0,35.83l77.08,0l0,-35.83Z" style="fill:#ddb682;stroke:#000;stroke-width:0.77px;"/><path d="M369,1012.73l77.08,-35.83" style="fill:none;fill-rule:nonzero;stroke:#000;stroke-width:0.3px;"/><path d="M369,976.9l-70.83,0l0,35.83l70.83,0l0,-35.83Z" style="fill:#ddb682;stroke:#000;stroke-width:0.77px;"/><path d="M298.17,1012.73l70.83,-35.83" style="fill:none;fill-rule:nonzero;stroke:#000;stroke-width:0.3px;"/><path d="M670.25,162.32l17.92,17.5m-17.92,3.33l17.92,17.5m-17.92,3.33l17.92,17.5m-17.92,3.33l17.92,17.5m-17.92,3.33l17.92,17.92m-17.92,2.92l17.92,17.92m-17.92,2.92l17.92,17.92m-17.92,2.92l17.92,17.92m-17.92,2.92l17.92,17.92m-17.92,3.33l17.92,17.5m-17.92,3.33l17.92,17.5m-17.92,3.33l17.92,17.5m-17.92,3.33l17.92,17.5m-17.92,3.33l17.92,17.92m-17.92,2.92l17.92,17.92m-17.92,2.92l17.92,17.92m-17.92,2.92l17.92,17.92m-17.92,2.92l17.92,17.92m-17.92,3.33l17.92,17.5m-17.92,3.33l5,4.58m-3.33,17.92l5.83,5.83m2.08,106.25l8.33,8.33m-17.92,2.92l17.92,17.92m-17.92,3.33l17.92,17.5m-17.92,3.33l17.92,17.5m-17.92,3.33l2.92,2.5" style="fill:none;fill-rule:nonzero;stroke:#000;stroke-opacity:0.31;stroke-width:1.48px;"/><path d="M688.17,162.32l0,401.25m-17.92,0l0,-401.25m17.92,531.25l0,76.67m-17.92,0l0,-76.67l17.92,0m0,-112.08l0,5.83l-17.92,0l0,-5.83" style="fill:none;fill-rule:nonzero;stroke:#2b2b2b;stroke-width:2.95px;stroke-linecap:round;"/><path d="M676.5,581.48l11.67,-11.67m-32.5,11.67l17.92,-17.92m-38.75,17.92l17.92,-17.92m-38.75,17.92l17.5,-17.92m-38.33,17.92l17.5,-17.92m-29.17,8.33l8.33,-8.33m-122.08,17.92l7.5,-7.5m-28.33,7.5l17.92,-17.92m-38.75,17.92l17.5,-17.92m-38.33,17.92l17.5,-17.92m-38.33,17.92l17.5,-17.92m-38.33,17.92l17.5,-17.92m-38.33,17.92l17.5,-17.92m-38.75,17.92l17.92,-17.92m-38.75,17.92l17.92,-17.92m-38.75,17.92l17.92,-17.92m-38.75,17.92l17.92,-17.92m-38.75,17.92l17.5,-17.92m-38.33,17.92l17.5,-17.92m-38.33,17.92l17.5,-17.92m-38.33,17.92l17.5,-17.92m-38.33,17.92l17.5,-17.92m-38.75,17.92l17.92,-17.92m-38.75,17.92l17.92,-17.92m-38.75,17.92l17.92,-17.92m-38.75,17.92l17.92,-17.92m-38.75,17.92l17.5,-17.92" style="fill:none;fill-rule:nonzero;stroke:#000;stroke-opacity:0.31;stroke-width:1.48px;"/><path d="M581.5,563.57l88.75,0m17.92,0l0,17.92m-17.92,0l-88.75,0l0,-17.92m-135.42,17.92l-395.83,0m0,-17.92l425,0l0,17.92l-11.67,0" style="fill:none;fill-rule:nonzero;stroke:#2b2b2b;stroke-width:2.95px;stroke-linecap:round;"/><path d="M446.09,581.48l17.5,17.5m-17.5,3.33l17.5,17.5m-17.5,3.33l17.5,17.92m-17.5,2.92l17.5,17.92m-17.5,2.92l17.5,17.92m-17.5,2.92l17.5,17.92m-17.5,3.33l17.5,17.5m-17.5,3.33l17.5,17.5m-17.5,3.33l17.5,17.5m-17.5,3.33l17.5,17.5m-17.5,3.33l9.58,9.58m1.67,106.25l6.25,6.25m-17.5,3.33l17.5,17.5m-17.5,3.33l17.5,17.5m-17.5,3.33l17.5,17.5m-17.5,3.33l17.5,17.5m-17.5,3.33l13.33,13.75" style="fill:none;fill-rule:nonzero;stroke:#000;stroke-opacity:0.31;stroke-width:1.48px;"/><path d="M463.59,906.07l0,106.25m-17.5,0l0,-106.25l17.5,0m0,-324.58l0,218.33l-17.5,0l0,-218.33" style="fill:none;fill-rule:nonzero;stroke:#2b2b2b;stroke-width:2.95px;stroke-linecap:round;"/><path d="M670.25,1012.32l17.92,-17.5m-17.92,-3.33l17.92,-17.5m-17.92,-3.33l17.92,-17.5m-17.92,-3.33l17.92,-17.5m-17.92,-3.33l17.92,-17.5m-17.92,-3.33l17.92,-17.92m-17.92,-2.92l17.92,-17.92m-17.92,-2.92l17.92,-17.92m-17.92,-2.92l17.92,-17.92m-17.92,-2.92l17.92,-17.92m-17.92,-3.33l15.83,-15.42" style="fill:none;fill-rule:nonzero;stroke:#000;stroke-opacity:0.31;stroke-width:1.48px;"/><path d="M670.25,1012.73l0,-224.58" style="fill:none;fill-rule:nonzero;stroke:#2b2b2b;stroke-width:2.95px;stroke-linecap:round;"/><path d="M1066.92,788.15l16.67,-16.67m-37.5,16.67l17.92,-17.92m-38.75,17.92l17.92,-17.92m-38.75,17.92l17.5,-17.92m-38.33,17.92l17.5,-17.92m-38.33,17.92l17.5,-17.92m-38.33,17.92l17.5,-17.92m-35,14.58l14.17,-14.58m-122.08,17.92l13.33,-13.33m-34.17,13.33l17.5,-17.92m-38.33,17.92l17.5,-17.92m-38.33,17.92l17.5,-17.92m-38.33,17.92l17.5,-17.92m-38.75,17.92l17.92,-17.92m-38.75,17.92l17.92,-17.92m-38.75,17.92l17.92,-17.92" style="fill:none;fill-rule:nonzero;stroke:#000;stroke-opacity:0.31;stroke-width:1.48px;"/><path d="M1083.59,788.15l-159.17,0l0,-17.92l159.17,0m-413.33,17.92l0,-17.92m17.92,0l141.67,0l0,17.92l-120.42,0" style="fill:none;fill-rule:nonzero;stroke:#2b2b2b;stroke-width:2.95px;stroke-linecap:round;"/><rect x="50.25" y="1012.32" width="413.33" height="35.83" style="fill:#fff;fill-opacity:0.1;"/><path d="M446.92,1048.15l16.67,-16.67m-37.5,16.67l35.42,-35.83m-56.25,35.83l35.42,-35.83m-56.25,35.83l35.42,-35.83m-56.25,35.83l35.42,-35.83m-56.25,35.83l35.42,-35.83m-56.67,35.83l35.42,-35.83m-56.25,35.83l35.42,-35.83m-56.25,35.83l35.42,-35.83m-56.25,35.83l35.42,-35.83m-56.25,35.83l35.42,-35.83m-56.25,35.83l35.42,-35.83m-56.25,35.83l35.42,-35.83m-56.25,35.83l35.42,-35.83m-56.25,35.83l35.42,-35.83m-56.67,35.83l35.42,-35.83m-56.25,35.83l35.42,-35.83m-56.25,35.83l35.42,-35.83m-56.25,35.83l35.42,-35.83m-56.25,35.83l35.42,-35.83m-35.42,14.58l14.58,-14.58m398.75,10.42l-10.42,-10.42m10.42,31.25l-31.25,-31.25m14.58,35.83l-35.42,-35.83m14.58,35.83l-35.42,-35.83m14.58,35.83l-35.42,-35.83m14.58,35.83l-35.42,-35.83m14.58,35.83l-35.42,-35.83m14.58,35.83l-35.83,-35.83m14.58,35.83l-35.42,-35.83m14.58,35.83l-35.42,-35.83m14.58,35.83l-35.42,-35.83m14.58,35.83l-35.42,-35.83m14.58,35.83l-35.42,-35.83m14.58,35.83l-35.42,-35.83m14.58,35.83l-35.42,-35.83m14.58,35.83l-35.42,-35.83m14.58,35.83l-35.83,-35.83m14.58,35.83l-35.42,-35.83m14.58,35.83l-35.42,-35.83m14.58,35.83l-35.42,-35.83m14.58,35.83l-20.83,-21.25" style="fill:none;fill-rule:nonzero;stroke:#000;stroke-opacity:0.31;stroke-width:1.48px;"/><path d="M446.09,1048.15l-395.83,0m0,-35.83l395.83,0m17.5,0l0,35.83l-17.5,0" style="fill:none;fill-rule:nonzero;stroke:#2b2b2b;stroke-width:2.95px;stroke-linecap:round;"/><rect x="14.84" y="162.32" width="35.42" height="885.83" style="fill:#fff;fill-opacity:0.1;"/><path d="M35.67,1048.15l14.58,-14.58m-35.42,14.58l35.42,-35.83m-35.42,14.58l35.42,-35.42m-35.42,14.58l35.42,-35.42m-35.42,14.58l35.42,-35.42m-35.42,14.58l35.42,-35.42m-35.42,14.58l35.42,-35.42m-35.42,14.58l35.42,-35.42m-35.42,14.58l35.42,-35.42m-35.42,14.58l35.42,-35.42m-35.42,14.58l35.42,-35.42m-35.42,14.17l35.42,-35.42m-35.42,14.58l35.42,-35.42m-35.42,14.58l35.42,-35.42m-35.42,14.58l35.42,-35.42m-35.42,14.58l35.42,-35.42m-35.42,14.58l35.42,-35.42m-35.42,14.58l35.42,-35.42m-35.42,14.58l35.42,-35.42m-35.42,14.58l35.42,-35.42m-35.42,14.17l35.42,-35.42m-35.42,14.58l35.42,-35.42m-35.42,14.58l35.42,-35.42m-35.42,14.58l35.42,-35.42m-35.42,14.58l35.42,-35.42m-35.42,14.58l35.42,-35.42m-35.42,14.58l35.42,-35.42m-35.42,14.58l35.42,-35.42m-35.42,14.58l35.42,-35.42m-35.42,14.17l35.42,-35.42m-35.42,14.58l35.42,-35.42m-35.42,14.58l35.42,-35.42m-35.42,14.58l35.42,-35.42m-35.42,14.58l35.42,-35.42m-35.42,14.58l35.42,-35.42m-35.42,14.58l35.42,-35.42m-35.42,14.58l35.42,-35.42m-35.42,14.58l35.42,-35.42m-35.42,14.17l35.42,-35.42m-35.42,14.58l35.42,-35.42m-35.42,14.58l35.42,-35.42m-35.42,14.58l35.42,-35.42m-35.42,14.58l29.58,-29.58m-29.58,8.75l8.75,-8.75m26.67,2.5l-2.5,-2.5m2.5,23.33l-23.33,-23.33m23.33,44.17l-35.42,-35.42m35.42,56.25l-35.42,-35.42m35.42,56.25l-35.42,-35.42m35.42,56.25l-35.42,-35.42m35.42,56.25l-35.42,-35.42m35.42,56.67l-35.42,-35.83m35.42,56.67l-35.42,-35.42m35.42,56.25l-35.42,-35.42m35.42,56.25l-35.42,-35.42m35.42,56.25l-35.42,-35.42m35.42,56.25l-35.42,-35.42m35.42,56.25l-35.42,-35.42m35.42,56.25l-35.42,-35.42m35.42,56.25l-35.42,-35.42m35.42,56.67l-35.42,-35.83m35.42,56.67l-35.42,-35.42m35.42,56.25l-35.42,-35.42m35.42,56.25l-35.42,-35.42m35.42,56.25l-35.42,-35.42m35.42,56.25l-35.42,-35.42m35.42,56.25l-35.42,-35.42m35.42,56.25l-35.42,-35.42m35.42,56.25l-35.42,-35.42m35.42,56.25l-35.42,-35.42m35.42,56.67l-35.42,-35.42m35.42,56.25l-35.42,-35.42m35.42,56.25l-35.42,-35.42m35.42,56.25l-35.42,-35.42m35.42,56.25l-35.42,-35.42m35.42,56.25l-35.42,-35.42m35.42,56.25l-35.42,-35.42m35.42,56.25l-35.42,-35.42m35.42,56.25l-35.42,-35.42m35.42,56.67l-35.42,-35.42m35.42,56.25l-35.42,-35.42m35.42,56.25l-35.42,-35.42m35.42,56.25l-35.42,-35.42m35.42,56.25l-35.42,-35.42m35.42,56.25l-35.42,-35.42m35.42,56.25l-35.42,-35.42m35.42,56.25l-35.42,-35.42m20.83,42.08l-20.83,-21.25" style="fill:none;fill-rule:nonzero;stroke:#000;stroke-opacity:0.31;stroke-width:1.48px;"/><path d="M14.84,1048.15l-0,-885.83m35.42,0l0,401.25m0,17.92l0,430.83m0,35.83l-35.42,0" style="fill:none;fill-rule:nonzero;stroke:#2b2b2b;stroke-width:2.95px;stroke-linecap:round;"/><path d="M1083.59,1048.15l-413.33,0l0,-35.42l17.92,0l395.42,-0.42l0,35.83Z" style="fill:#fff;fill-opacity:0.1;"/><path d="M1066.92,1048.15l16.67,-16.67m-37.5,16.67l35.42,-35.83m-56.25,35.83l35.42,-35.83m-56.25,35.83l35.42,-35.83m-56.25,35.83l35.42,-35.83m-56.25,35.83l35.42,-35.83m-56.25,35.83l35.42,-35.83m-56.25,35.83l35.42,-35.83m-56.67,35.83l35.42,-35.83m-56.25,35.83l35.42,-35.83m-56.25,35.83l35.42,-35.83m-56.25,35.83l35.42,-35.83m-56.25,35.83l35.42,-35.83m-56.25,35.83l35.42,-35.83m-56.25,35.83l35.42,-35.83m-56.25,35.83l35.42,-35.83m-56.25,35.83l35.42,-35.83m-56.67,35.83l35.42,-35.83m-56.25,35.83l35.42,-35.83m-56.25,35.83l35.42,-35.83m-35.42,14.58l14.58,-14.58m398.75,10.42l-10.42,-10.42m10.42,31.25l-31.25,-31.25m14.58,35.83l-35.42,-35.83m14.58,35.83l-35.42,-35.83m14.58,35.83l-35.42,-35.83m14.58,35.83l-35.42,-35.83m14.58,35.83l-35.42,-35.83m14.58,35.83l-35.42,-35.83m14.58,35.83l-35.42,-35.83m14.58,35.83l-35.83,-35.83m14.58,35.83l-35.42,-35.83m14.58,35.83l-35.42,-35.83m14.58,35.83l-35.42,-35.83m14.58,35.83l-35.42,-35.83m14.58,35.83l-35.42,-35.83m14.58,35.83l-35.42,-35.83m14.58,35.83l-35.42,-35.83m14.58,35.83l-35.42,-35.83m14.58,35.83l-35.83,-35.83m14.58,35.83l-35.42,-35.83m14.58,35.83l-20.83,-21.25" style="fill:none;fill-rule:nonzero;stroke:#000;stroke-opacity:0.31;stroke-width:1.48px;"/><path d="M1083.59,1048.15l-413.33,0l0,-35.42" style="fill:none;fill-rule:nonzero;stroke:#2b2b2b;stroke-width:2.95px;stroke-linecap:round;"/><rect x="1083.59" y="162.32" width="35.42" height="885.83" style="fill:#fff;fill-opacity:0.1;"/><path d="M1104.42,1048.15l14.58,-14.58m-35.42,14.17l35.42,-35.42m-35.42,14.58l35.42,-35.42m-35.42,14.58l35.42,-35.42m-35.42,14.58l35.42,-35.42m-35.42,14.58l35.42,-35.42m-35.42,14.58l35.42,-35.42m-35.42,14.58l35.42,-35.42m-35.42,14.58l35.42,-35.42m-35.42,14.58l35.42,-35.42m-35.42,14.58l35.42,-35.83m-35.42,14.58l35.42,-35.42m-35.42,14.58l35.42,-35.42m-35.42,14.58l35.42,-35.42m-35.42,14.58l35.42,-35.42m-35.42,14.58l35.42,-35.42m-35.42,14.58l35.42,-35.42m-35.42,14.58l35.42,-35.42m-35.42,14.58l35.42,-35.42m-35.42,14.58l35.42,-35.83m-35.42,14.58l35.42,-35.42m-35.42,14.58l35.42,-35.42m-35.42,14.58l35.42,-35.42m-35.42,14.58l35.42,-35.42m-35.42,14.58l35.42,-35.42m-35.42,14.58l35.42,-35.42m-35.42,14.58l35.42,-35.42m-35.42,14.58l35.42,-35.42m-35.42,14.58l35.42,-35.83m-35.42,14.58l35.42,-35.42m-35.42,14.58l35.42,-35.42m-35.42,14.58l35.42,-35.42m-35.42,14.58l35.42,-35.42m-35.42,14.58l35.42,-35.42m-35.42,14.58l35.42,-35.42m-35.42,14.58l35.42,-35.42m-35.42,14.58l35.42,-35.42m-35.42,14.58l35.42,-35.42m-35.42,14.17l35.42,-35.42m-35.42,14.58l35.42,-35.42m-35.42,14.58l35.42,-35.42m-35.42,14.58l35.42,-35.42m-35.42,14.58l30,-29.58m-30,8.75l9.17,-8.75m26.25,2.5l-2.5,-2.5m2.5,23.33l-23.33,-23.33m23.33,44.17l-35.42,-35.42m35.42,56.25l-35.42,-35.42m35.42,56.25l-35.42,-35.42m35.42,56.25l-35.42,-35.42m35.42,56.25l-35.42,-35.42m35.42,56.67l-35.42,-35.42m35.42,56.25l-35.42,-35.42m35.42,56.25l-35.42,-35.42m35.42,56.25l-35.42,-35.42m35.42,56.25l-35.42,-35.42m35.42,56.25l-35.42,-35.42m35.42,56.25l-35.42,-35.42m35.42,56.25l-35.42,-35.42m35.42,56.25l-35.42,-35.42m35.42,56.67l-35.42,-35.83m35.42,56.67l-35.42,-35.42m35.42,56.25l-35.42,-35.42m35.42,56.25l-35.42,-35.42m35.42,56.25l-35.42,-35.42m35.42,56.25l-35.42,-35.42m35.42,56.25l-35.42,-35.42m35.42,56.25l-35.42,-35.42m35.42,56.25l-35.42,-35.42m35.42,56.67l-35.42,-35.83m35.42,56.67l-35.42,-35.42m35.42,56.25l-35.42,-35.42m35.42,56.25l-35.42,-35.42m35.42,56.25l-35.42,-35.42m35.42,56.25l-35.42,-35.42m35.42,56.25l-35.42,-35.42m35.42,56.25l-35.42,-35.42m35.42,56.25l-35.42,-35.42m35.42,56.67l-35.42,-35.83m35.42,56.67l-35.42,-35.42m35.42,56.25l-35.42,-35.42m35.42,56.25l-35.42,-35.42m35.42,56.25l-35.42,-35.42m35.42,56.25l-35.42,-35.42m35.42,56.25l-35.42,-35.42m35.42,56.25l-35.42,-35.42m35.42,56.25l-35.42,-35.42m20.83,42.08l-20.83,-21.25" style="fill:none;fill-rule:nonzero;stroke:#000;stroke-opacity:0.31;stroke-width:1.48px;"/><path d="M1083.59,770.23l0,-607.92m35.42,0l0,885.83l-35.42,0m0,-47.5l0,-212.5" style="fill:none;fill-rule:nonzero;stroke:#2b2b2b;stroke-width:2.95px;stroke-linecap:round;"/><rect x="14.84" y="126.9" width="1104.17" height="35.42" style="fill:#fff;fill-opacity:0.1;"/><path d="M1100.67,162.32l18.33,-18.75m-39.17,18.75l35.42,-35.42m-56.67,35.42l35.42,-35.42m-56.25,35.42l35.42,-35.42m-56.25,35.42l35.42,-35.42m-56.25,35.42l35.42,-35.42m-56.25,35.42l35.42,-35.42m-56.25,35.42l35.42,-35.42m-56.25,35.42l35.42,-35.42m-56.25,35.42l35.42,-35.42m-56.25,35.42l35.42,-35.42m-56.67,35.42l35.42,-35.42m-56.25,35.42l35.42,-35.42m-56.25,35.42l35.42,-35.42m-56.25,35.42l35.42,-35.42m-56.25,35.42l35.42,-35.42m-56.25,35.42l35.42,-35.42m-56.25,35.42l35.42,-35.42m-56.25,35.42l35.42,-35.42m-56.25,35.42l35.42,-35.42m-56.67,35.42l35.83,-35.42m-56.67,35.42l35.42,-35.42m-56.25,35.42l35.42,-35.42m-56.25,35.42l35.42,-35.42m-56.25,35.42l35.42,-35.42m-56.25,35.42l35.42,-35.42m-56.25,35.42l35.42,-35.42m-56.25,35.42l35.42,-35.42m-56.25,35.42l35.42,-35.42m-56.67,35.42l35.83,-35.42m-56.67,35.42l35.42,-35.42m-56.25,35.42l35.42,-35.42m-56.25,35.42l35.42,-35.42m-56.25,35.42l35.42,-35.42m-56.25,35.42l35.42,-35.42m-56.25,35.42l35.42,-35.42m-56.25,35.42l35.42,-35.42m-56.25,35.42l35.42,-35.42m-56.67,35.42l35.83,-35.42m-56.67,35.42l35.42,-35.42m-56.25,35.42l35.42,-35.42m-56.25,35.42l35.42,-35.42m-56.25,35.42l35.42,-35.42m-56.25,35.42l35.42,-35.42m-56.25,35.42l35.42,-35.42m-56.25,35.42l35.42,-35.42m-56.25,35.42l35.42,-35.42m-56.67,35.42l35.83,-35.42m-56.67,35.42l35.42,-35.42m-56.25,35.42l35.42,-35.42m-56.25,35.42l35.42,-35.42m-56.25,35.42l35.42,-35.42m-56.25,35.42l35.42,-35.42m-35.42,14.17l14.58,-14.17m1089.58,12.08l-12.08,-12.08m12.08,32.92l-32.92,-32.92m14.58,35.42l-35.42,-35.42m14.58,35.42l-35.42,-35.42m14.17,35.42l-35.42,-35.42m14.58,35.42l-35.42,-35.42m14.58,35.42l-35.42,-35.42m14.58,35.42l-35.42,-35.42m14.58,35.42l-35.42,-35.42m14.58,35.42l-35.42,-35.42m14.58,35.42l-35.42,-35.42m14.58,35.42l-35.42,-35.42m14.58,35.42l-35.42,-35.42m14.17,35.42l-35.42,-35.42m14.58,35.42l-35.42,-35.42m14.58,35.42l-35.42,-35.42m14.58,35.42l-35.42,-35.42m14.58,35.42l-35.42,-35.42m14.58,35.42l-35.42,-35.42m14.58,35.42l-35.42,-35.42m14.58,35.42l-35.42,-35.42m14.58,35.42l-35.42,-35.42m14.17,35.42l-35.42,-35.42m14.58,35.42l-35.42,-35.42m14.58,35.42l-35.42,-35.42m14.58,35.42l-35.42,-35.42m14.58,35.42l-35.42,-35.42m14.58,35.42l-35.42,-35.42m14.58,35.42l-35.42,-35.42m14.58,35.42l-35.42,-35.42m14.58,35.42l-35.42,-35.42m14.17,35.42l-35.42,-35.42m14.58,35.42l-35.42,-35.42m14.58,35.42l-35.42,-35.42m14.58,35.42l-35.42,-35.42m14.58,35.42l-35.42,-35.42m14.58,35.42l-35.42,-35.42m14.58,35.42l-35.42,-35.42m14.58,35.42l-35.42,-35.42m14.58,35.42l-35.42,-35.42m14.17,35.42l-35.42,-35.42m14.58,35.42l-35.42,-35.42m14.58,35.42l-35.42,-35.42m14.58,35.42l-35.42,-35.42m14.58,35.42l-35.42,-35.42m14.58,35.42l-35.42,-35.42m14.58,35.42l-35.42,-35.42m14.58,35.42l-35.42,-35.42m14.58,35.42l-35.42,-35.42m14.17,35.42l-35.42,-35.42m14.58,35.42l-35.42,-35.42m14.58,35.42l-35.42,-35.42m14.58,35.42l-35.42,-35.42m14.58,35.42l-20.83,-21.25" style="fill:none;fill-rule:nonzero;stroke:#000;stroke-opacity:0.31;stroke-width:1.48px;"/><path d="M670.25,162.32l-620,0m-35.42,0l0,-35.42l1104.17,0l0,35.42m-35.42,0l-395.42,0" style="fill:none;fill-rule:nonzero;stroke:#2b2b2b;stroke-width:2.95px;stroke-linecap:round;"/><path d="M463.59,806.07l-17.5,0" style="fill:none;fill-rule:nonzero;stroke:#000;stroke-width:0.3px;"/><path d="M463.59,900.23l-112.08,0" style="fill:none;fill-rule:nonzero;stroke:#000;stroke-width:0.3px;"/><path d="M351.5,900.23c-0,-52.08 42.08,-94.17 94.58,-94.17" style="fill:none;fill-rule:nonzero;stroke:#000;stroke-width:0.3px;"/><rect x="446.09" y="799.82" width="17.5" height="106.25" style="fill:none;fill-rule:nonzero;stroke:#000;stroke-width:0.3px;"/><path d="M670.25,593.15l17.92,0" style="fill:none;fill-rule:nonzero;stroke:#000;stroke-width:0.3px;"/><path d="M670.25,687.73l112.5,0" style="fill:none;fill-rule:nonzero;stroke:#000;stroke-width:0.3px;"/><path d="M782.75,687.73c0,-52.08 -42.5,-94.58 -94.58,-94.58" style="fill:none;fill-rule:nonzero;stroke:#000;stroke-width:0.3px;"/><rect x="670.25" y="587.32" width="17.92" height="106.25" style="fill:none;fill-rule:nonzero;stroke:#000;stroke-width:0.3px;"/><path d="M481.5,581.48l0,-17.92" style="fill:none;fill-rule:nonzero;stroke:#000;stroke-width:0.3px;"/><path d="M575.67,581.48l0,-112.08" style="fill:none;fill-rule:nonzero;stroke:#000;stroke-width:0.3px;"/><path d="M575.67,469.4c-52.08,0 -94.17,42.08 -94.17,94.17" style="fill:none;fill-rule:nonzero;stroke:#000;stroke-width:0.3px;"/><rect x="475.25" y="563.57" width="106.67" height="17.92" style="fill:none;fill-rule:nonzero;stroke:#000;stroke-width:0.3px;"/><rect x="829.84" y="770.23" width="94.58" height="17.92" style="fill:none;fill-rule:nonzero;stroke:#000;stroke-width:0.3px;"/><path d="M918.17,788.15l0,-100.42" style="fill:none;fill-rule:nonzero;stroke:#000;stroke-width:0.3px;"/><path d="M835.67,770.23c0,-45.42 37.08,-82.5 82.5,-82.5" style="fill:none;fill-rule:nonzero;stroke:#000;stroke-width:0.3px;"/><path d="M835.67,770.23l0,17.92" style="fill:none;fill-rule:nonzero;stroke:#000;stroke-width:0.3px;"/><rect x="709.42" y="942.73" width="106.25" height="57.92" style="fill:#ddb682;stroke:#000;stroke-width:0.77px;"/></g><g id="topR"><path d="M670.25,906.07l-70.83,0l0,106.67l70.83,0l0,-106.67Z" style="fill:#ddb682;stroke:#000;stroke-width:0.77px;"/><path d="M599.42,906.07l70.83,53.33l-70.83,53.33" style="fill:none;fill-rule:nonzero;stroke:#000;stroke-width:0.3px;"/><path d="M670.25,699.4l-70.83,0l0,65l70.83,0l0,-65Z" style="fill:#ddb682;stroke:#000;stroke-width:0.77px;"/><path d="M599.42,699.4l70.83,32.5l-70.83,32.5" style="fill:none;fill-rule:nonzero;stroke:#000;stroke-width:0.3px;"/><path d="M670.25,764.4l-70.42,0l0,141.67l70.42,0l0,-141.67Z" style="fill:#ddb682;stroke:#000;stroke-width:0.77px;"/><path d="M599.84,764.4l70.42,70.83l-70.42,70.83" style="fill:none;fill-rule:nonzero;stroke:#000;stroke-width:0.3px;"/></g><g id="topL"><path d="M534.42,906.07l-70.83,0l0,106.67l70.83,0l0,-106.67Z" style="fill:#ddb682;stroke:#000;stroke-width:0.77px;"/><path d="M534.42,906.07l-70.83,53.33l70.83,53.33" style="fill:none;fill-rule:nonzero;stroke:#000;stroke-width:0.3px;"/><path d="M534.42,728.98l-70.83,0l0,70.83l70.83,0l0,-70.83Z" style="fill:#ddb682;stroke:#000;stroke-width:0.77px;"/><path d="M534.42,728.98l-70.83,35.42l70.83,35.42" style="fill:none;fill-rule:nonzero;stroke:#000;stroke-width:0.3px;"/></g><g id="anchorTop"><path d="M1244,126.9l-250,0" style="fill:none;fill-rule:nonzero;stroke:#f00;stroke-width:0.3px;"/><path d="M1119,1.48l0,250.42" style="fill:none;fill-rule:nonzero;stroke:#f00;stroke-width:0.3px;"/></g></svg>