<?xml version="1.0" encoding="UTF-8" standalone="no"?><!DOCTYPE svg PUBLIC "-//W3C//DTD SVG 1.1//EN" "http://www.w3.org/Graphics/SVG/1.1/DTD/svg11.dtd"><svg width="100%" height="100%" viewBox="0 0 1246 1063" version="1.1" xmlns="http://www.w3.org/2000/svg" xmlns:xlink="http://www.w3.org/1999/xlink" xml:space="preserve" xmlns:serif="http://www.serif.com/" style="fill-rule:evenodd;clip-rule:evenodd;stroke-miterlimit:10;"><g id="top"><rect x="14.837" y="1012.734" width="448.75" height="35.417" style="fill:#fff;"/><rect x="670.254" y="1012.734" width="448.75" height="35.417" style="fill:#fff;"/><path d="M14.837,1048.15l0,-921.25l1104.167,0l0,921.25l-448.75,0l0,-35.417l-206.667,0l0,35.417l-448.75,0Z" style="fill:#fff;"/><path d="M197.754,616.9l0,8.75l-94.167,0l0,-8.75l-53.333,0l0,-454.583l247.917,0l0,283.333l9.167,0l0,94.583l-9.167,0l0,76.667l-100.417,0Z" style="fill:#e0e0e0;fill-opacity:0.25;stroke:#a8a8a8;stroke-width:0.3px;"/><path d="M1083.587,770.234l-159.167,0l0,9.167l-94.583,0l0,-9.167l-141.667,0l0,-94.167l-9.167,0l0,-106.25l9.167,0l0,-407.5l395.417,0l0,607.917Z" style="fill:#e0e0e0;fill-opacity:0.25;stroke:#a8a8a8;stroke-width:0.3px;"/><path d="M50.254,1012.317l0,-377.917l53.333,0l0,-8.75l94.167,0l0,8.75l248.333,0l0,165.417l8.75,0l0,106.25l-8.75,0l0,106.25l-395.833,0Z" style="fill:#e0e0e0;fill-opacity:0.25;stroke:#a8a8a8;stroke-width:0.3px;"/><path d="M463.587,1012.317l2.083,0m2.083,0l3.75,0m1.667,0l3.75,0m2.083,0l3.75,0m1.667,0l3.75,0m2.083,0l3.75,0m1.667,0l3.75,0m2.083,0l3.75,0m1.667,0l3.75,0m2.083,0l3.75,0m1.667,0l3.75,0m2.083,0l3.75,0m1.667,0l3.75,0m2.083,0.417l3.75,0m1.667,0l3.75,0m2.083,0l3.75,0m1.667,0l3.75,0m2.083,0l3.75,0m1.667,0l3.75,0m2.083,0l3.75,0m1.667,0l3.75,0m2.083,0l3.75,0m1.667,0l3.75,0m2.083,0l3.75,0m1.667,0l3.75,0m2.083,0l3.75,0m1.667,0l3.75,0m2.083,0l3.75,0m1.667,0l3.75,0m2.083,0l3.75,0m1.667,0l3.75,0m2.083,0l3.75,0m1.667,0l3.75,0m2.083,0l3.75,0m1.667,0l3.75,0m2.083,0l3.75,0m1.667,0l5.833,0" style="fill:none;fill-rule:nonzero;stroke:#a8a8a8;stroke-width:0.3px;stroke-linecap:round;"/><path d="M454.837,799.817l8.75,0l0,-236.25l17.917,0l0,-8.75l106.25,0l0,8.75l82.5,0l0,6.25l8.75,0l0,106.25l-8.75,0l0,336.667l-206.667,-0.417l0,-106.25l-8.75,0l0,-106.25Z" style="fill:#e0e0e0;fill-opacity:0.25;stroke:#a8a8a8;stroke-width:0.3px;"/><path d="M709.421,788.15l120.417,0l0,-8.75l94.583,0l0,8.75l159.167,0l0,212.5l-374.167,0l0,-212.5Z" style="fill:#e0e0e0;fill-opacity:0.25;stroke:#a8a8a8;stroke-width:0.3px;"/><path d="M316.087,616.9l0,-76.667l-8.75,0l0,-94.583l8.75,0l0,-283.333l354.167,0l0,383.75l-82.5,0l0,8.75l-106.25,0l0,-8.75l-35.417,0l0,70.833l-130,0Z" style="fill:#e0e0e0;fill-opacity:0.25;stroke:#a8a8a8;stroke-width:0.3px;"/><rect x="688.171" y="1000.65" width="395.417" height="11.667" style="fill:#ddd;"/><path d="M709.421,1000.65l374.167,0" style="fill:none;fill-rule:nonzero;stroke:#2b2b2b;stroke-width:2.95px;stroke-linecap:round;"/><rect x="688.171" y="788.15" width="21.25" height="212.5" style="fill:#ddd;"/><path d="M709.421,788.15l0,212.5" style="fill:none;fill-rule:nonzero;stroke:#2b2b2b;stroke-width:2.95px;stroke-linecap:round;"/><rect x="688.171" y="699.4" width="141.667" height="70.833" style="fill:#ddb682;stroke:#000;stroke-width:0.77px;"/><path d="M829.837,699.4l-70.833,70.833l-70.833,-70.833" style="fill:none;fill-rule:nonzero;stroke:#000;stroke-width:0.3px;"/><rect x="688.171" y="522.317" width="47.083" height="47.083" style="fill:#ddb682;stroke:#000;stroke-width:0.77px;"/><rect x="688.171" y="262.317" width="47.083" height="47.5" style="fill:#ddb682;stroke:#000;stroke-width:0.77px;"/><rect x="696.087" y="328.15" width="59.167" height="70.833" style="fill:#69b2ff;fill-opacity:0.5;"/><path d="M936.087,522.317l-100.833,0l0,-65l-75.833,0l0,-147.5l176.667,0l0,212.5Z" style="fill:#69b2ff;fill-opacity:0.5;"/><path d="M759.421,457.317l75.833,65l-147.083,0l0,-212.5l71.25,0l0,147.5Zm-4.167,-58.333l0,-70.833l-59.167,0l0,70.833l59.167,0Zm0,105l0,-71.25l-59.167,0l0,71.25l59.167,0Z" style="fill:#e5fcff;fill-opacity:0.5;"/><rect x="696.087" y="432.734" width="59.167" height="71.25" style="fill:#69b2ff;fill-opacity:0.5;"/><path d="M835.254,522.317l-75.833,-65l75.833,0l0,65Z" style="fill:#e5fcff;fill-opacity:0.5;"/><path d="M735.254,569.4l-47.083,0l0,-307.083l47.083,0l0,47.5l200.833,0l0,212.5l-200.833,0l0,47.083Z" style="fill:none;fill-rule:nonzero;stroke:#000;stroke-width:0.77px;"/><rect x="696.087" y="432.734" width="59.167" height="71.25" style="fill:none;stroke:#000;stroke-width:0.77px;"/><path d="M755.254,328.15l-59.167,0l0,70.833l59.167,0l0,-70.833Z" style="fill:none;stroke:#000;stroke-width:0.77px;"/><path d="M759.421,309.817l0,147.5l75.833,65l0,-65l-75.833,0" style="fill:none;fill-rule:nonzero;stroke:#000;stroke-width:0.77px;"/><path d="M735.254,522.317l-47.083,0" style="fill:none;fill-rule:nonzero;stroke:#000;stroke-width:0.77px;"/><path d="M735.254,309.817l-47.083,0" style="fill:none;fill-rule:nonzero;stroke:#000;stroke-width:0.77px;"/><path d="M103.171,243.15l12.083,-23.75l-2.5,-1.25c-0.833,-0.417 -1.25,-0.833 -1.667,-1.667c0,-0.833 0,-1.667 0.417,-2.5c8.75,-14.167 27.083,-19.167 42.083,-11.667c14.583,7.5 21.667,25 15.833,40.417c-0.417,0.833 -0.833,1.667 -1.667,2.083c-0.833,0 -1.667,0 -2.5,-0.417l-2.5,-1.25l-12.083,23.75l-47.5,-23.75Z" style="fill:#cfd4a2;"/><path d="M162.754,243.15l-12.083,23.75" style="fill:none;fill-rule:nonzero;stroke:#000;stroke-width:0.77px;"/><path d="M169.421,242.734c-0.417,0.833 -0.833,1.667 -1.667,2.083c-0.833,0 -1.667,0 -2.5,-0.417" style="fill:none;fill-rule:nonzero;stroke:#000;stroke-width:0.77px;"/><path d="M115.254,219.4l-2.5,-1.25" style="fill:none;fill-rule:nonzero;stroke:#000;stroke-width:0.77px;"/><path d="M165.254,244.4l-2.5,-1.25" style="fill:none;fill-rule:nonzero;stroke:#000;stroke-width:0.77px;"/><path d="M115.254,219.4c6.667,-12.917 22.5,-18.333 35.417,-11.667c13.333,6.25 18.75,22.5 12.083,35.417" style="fill:none;fill-rule:nonzero;stroke:#000;stroke-width:0.77px;"/><path d="M111.504,213.984c8.75,-14.167 27.083,-19.167 42.083,-11.667c14.583,7.5 21.667,25 15.833,40.417" style="fill:none;fill-rule:nonzero;stroke:#000;stroke-width:0.77px;"/><path d="M103.171,243.15l12.083,-23.75" style="fill:none;fill-rule:nonzero;stroke:#000;stroke-width:0.77px;"/><path d="M150.671,266.9l-47.5,-23.75" style="fill:none;fill-rule:nonzero;stroke:#000;stroke-width:0.77px;"/><path d="M112.754,218.15c-0.833,-0.417 -1.25,-0.833 -1.667,-1.667c0,-0.833 0,-1.667 0.417,-2.5" style="fill:none;fill-rule:nonzero;stroke:#000;stroke-width:0.77px;"/><path d="M50.254,303.984l70.833,0l0,-141.667l-70.833,0l0,141.667Z" style="fill:#ddb682;stroke:#000;stroke-width:0.77px;"/><rect x="930.254" y="699.4" width="153.333" height="70.833" style="fill:#ddb682;stroke:#000;stroke-width:0.77px;"/><path d="M1083.587,699.4l-76.667,70.833l-76.667,-70.833" style="fill:none;fill-rule:nonzero;stroke:#000;stroke-width:0.3px;"/><path d="M998.171,242.317l12.083,23.75l-2.5,1.25c-0.833,0.417 -1.25,1.25 -1.667,2.083c-0.417,0.833 0,1.667 0.417,2.083c8.75,14.167 27.083,19.167 42.083,11.667c14.583,-7.5 21.667,-25 15.833,-40.417c-0.417,-0.833 -1.25,-1.25 -2.083,-1.667c-0.417,-0.417 -1.667,-0.417 -2.083,0l-2.5,1.25l-12.083,-23.75l-47.5,23.75Z" style="fill:#cfd4a2;"/><path d="M1057.754,242.317l-12.083,-23.75" style="fill:none;fill-rule:nonzero;stroke:#000;stroke-width:0.77px;"/><path d="M1064.421,242.734c-0.417,-0.833 -1.25,-1.25 -2.083,-1.667c-0.417,-0.417 -1.667,-0.417 -2.083,0" style="fill:none;fill-rule:nonzero;stroke:#000;stroke-width:0.77px;"/><path d="M1010.254,266.067l-2.5,1.25" style="fill:none;fill-rule:nonzero;stroke:#000;stroke-width:0.77px;"/><path d="M1060.254,241.067l-2.5,1.25" style="fill:none;fill-rule:nonzero;stroke:#000;stroke-width:0.77px;"/><path d="M1010.254,266.067c6.25,13.333 22.5,18.333 35.417,12.083c13.333,-6.667 18.333,-22.5 12.083,-35.833" style="fill:none;fill-rule:nonzero;stroke:#000;stroke-width:0.77px;"/><path d="M1006.504,271.484c8.75,14.167 27.083,19.167 42.083,11.667c14.583,-7.5 21.667,-25 15.833,-40.417" style="fill:none;fill-rule:nonzero;stroke:#000;stroke-width:0.77px;"/><path d="M998.171,242.317l12.083,23.75" style="fill:none;fill-rule:nonzero;stroke:#000;stroke-width:0.77px;"/><path d="M1045.671,218.567l-47.5,23.75" style="fill:none;fill-rule:nonzero;stroke:#000;stroke-width:0.77px;"/><path d="M1007.754,267.317c-0.833,0.417 -1.25,1.25 -1.667,2.083c-0.417,0.833 0,1.667 0.417,2.083" style="fill:none;fill-rule:nonzero;stroke:#000;stroke-width:0.77px;"/><rect x="941.921" y="162.317" width="141.667" height="70.833" style="fill:#ddb682;stroke:#000;stroke-width:0.77px;"/><path d="M860.671,984.817l-25.833,0c-3.333,0 -5,-1.667 -5,-5.417l0,-24.583c0,-3.333 1.667,-5 5,-5l54.583,0c3.333,0 5,1.667 5,5l0,24.583c0,3.75 -1.667,5.417 -5,5.417l-19.583,0" style="fill:none;fill-rule:nonzero;stroke:#000;stroke-width:0.3px;"/><path d="M816.921,942.734l164.583,0c1.25,0 1.667,0.833 1.667,2.083l0,55.417c0,0.417 0,0.417 -0.417,0.417l-166.667,0c0,0 -0.417,0 -0.417,-0.417l0,-55.417c0,-1.25 0.417,-2.083 1.25,-2.083Z" style="fill:#f7f7f7;stroke:#000;stroke-width:1.48px;"/><path d="M942.337,989.4l-0.417,0" style="fill:none;fill-rule:nonzero;stroke:#000;stroke-width:0.3px;"/><path d="M935.671,984.817l-26.25,0c-2.917,0 -4.583,-1.667 -4.583,-5.417l0,-24.583c0,-3.333 1.667,-5 4.583,-5l55,0c2.917,0 4.583,1.667 4.583,5l0,24.583c0,3.75 -1.667,5.417 -4.583,5.417l-20,0" style="fill:none;fill-rule:nonzero;stroke:#000;stroke-width:0.3px;"/><path d="M869.837,988.984l0.417,0c0,0 0.417,0 0.417,0.417l0,3.75c0,0.417 -0.417,0.417 -0.417,0.417l-2.5,0c-0.417,0 -0.417,0 -0.417,-0.417l0,-3.75c0,-0.417 0,-0.417 0.417,-0.417l1.25,0" style="fill:none;fill-rule:nonzero;stroke:#000;stroke-width:0.3px;"/><path d="M944.421,988.984l0.833,0l0,4.583l-2.917,0l0,-4.583l1.25,0" style="fill:none;fill-rule:nonzero;stroke:#000;stroke-width:0.3px;"/><path d="M863.171,991.067l0,-25c0,-0.833 -0.417,-1.25 -1.25,-1.25c-0.417,0 -0.833,0.417 -0.833,1.25c0,8.333 -0.417,16.667 -0.417,25c0,0.417 0.417,0.833 0.417,1.25l1.667,0c0.417,-0.417 0.417,-0.833 0.417,-1.25Z" style="fill:none;fill-rule:nonzero;stroke:#000;stroke-width:0.3px;"/><path d="M938.171,991.067l0,-25c0,-0.833 -0.417,-1.25 -1.25,-1.25c-0.833,0 -1.25,0.417 -1.25,1.25l0,25c0,0.417 0,0.833 0.417,1.25l1.667,0c0,-0.417 0.417,-0.833 0.417,-1.25Z" style="fill:none;fill-rule:nonzero;stroke:#000;stroke-width:0.3px;"/><path d="M942.337,993.15l-0.417,0" style="fill:none;fill-rule:nonzero;stroke:#000;stroke-width:0.3px;"/><path d="M863.171,972.734c1.25,0.417 1.667,1.667 1.667,2.917c0,0.833 -0.833,2.083 -1.667,2.5" style="fill:none;fill-rule:nonzero;stroke:#000;stroke-width:0.3px;"/><path d="M938.171,972.734c0.833,0.417 1.667,1.667 1.667,2.917c0,0.833 -0.833,2.083 -1.667,2.5" style="fill:none;fill-rule:nonzero;stroke:#000;stroke-width:0.3px;"/><path d="M863.171,988.15c1.25,0.833 2.083,2.083 1.667,3.75c-0.417,1.25 -1.25,2.5 -2.917,2.5c-1.25,0 -2.5,-1.25 -2.917,-2.5c0,-1.667 0.417,-2.917 1.667,-3.75" style="fill:none;fill-rule:nonzero;stroke:#000;stroke-width:0.3px;"/><path d="M938.171,988.15c1.25,0.833 1.667,2.083 1.667,3.75c-0.417,1.25 -1.667,2.5 -2.917,2.5c-1.667,0 -2.5,-1.25 -2.917,-2.5c-0.417,-1.667 0.417,-2.917 1.667,-3.75" style="fill:none;fill-rule:nonzero;stroke:#000;stroke-width:0.3px;"/><path d="M860.671,978.15c-0.833,-0.833 -1.25,-1.667 -1.25,-2.917c0,-0.833 0.417,-1.667 1.667,-2.5" style="fill:none;fill-rule:nonzero;stroke:#000;stroke-width:0.3px;"/><path d="M935.671,978.15c-0.833,-0.833 -1.25,-1.667 -1.25,-2.917c0,-0.833 0.417,-1.667 1.25,-2.5" style="fill:none;fill-rule:nonzero;stroke:#000;stroke-width:0.3px;"/><path d="M863.587,993.567l3.75,0l0,-4.583l-3.333,0" style="fill:none;fill-rule:nonzero;stroke:#000;stroke-width:0.3px;"/><path d="M938.587,993.567l3.333,0l0,-4.583l-2.917,0" style="fill:none;fill-rule:nonzero;stroke:#000;stroke-width:0.3px;"/><path d="M869.004,990.234l0,-7.083c0,-0.417 0,-0.417 0.417,-0.417c0,0 0.417,0 0.417,0.417l0,7.083" style="fill:none;fill-rule:nonzero;stroke:#000;stroke-width:0.3px;"/><path d="M943.587,990.234l0,-7.083c0,-0.417 0.417,-0.417 0.417,-0.417l0.417,0l0,7.5" style="fill:none;fill-rule:nonzero;stroke:#000;stroke-width:0.3px;"/><path d="M869.004,984.817l-5.833,0" style="fill:none;fill-rule:nonzero;stroke:#000;stroke-width:0.3px;"/><path d="M943.587,984.817l-5.417,0" style="fill:none;fill-rule:nonzero;stroke:#000;stroke-width:0.3px;"/><path d="M860.671,984.817l-25.833,0c-3.333,0 -5,-1.667 -5,-5.417l0,-24.583c0,-3.333 1.667,-5 5,-5l54.583,0c3.333,0 5,1.667 5,5l0,24.583c0,3.75 -1.667,5.417 -5,5.417l-19.583,0" style="fill:none;fill-rule:nonzero;stroke:#000;stroke-width:0.3px;"/><path d="M988.587,788.15c-3.333,0 -5.417,1.667 -5.417,5.417l0,201.667c0,3.75 2.083,5.417 5.417,5.417l89.583,0c3.75,0 5.417,-1.667 5.417,-5.417l0,-201.667c0,-3.75 -1.667,-5.417 -5.417,-5.417l-89.583,0Z" style="fill:#f7f7f7;stroke:#000;stroke-width:1.48px;"/><path d="M1031.504,978.984c-12.083,-0.833 -20,-5.833 -23.333,-15.417c0,-0.833 -0.417,-1.25 -0.417,-2.083c-6.667,-45.833 -9.167,-83.75 -7.5,-114.583l0,-0.833c2.083,-17.083 12.917,-26.25 33.333,-26.667c20,0.417 31.25,9.583 32.917,26.667l0,0.833c2.083,30.833 -0.417,68.75 -7.083,114.583c-0.417,0.833 -0.417,1.25 -0.833,2.083c-3.333,9.583 -10.833,14.583 -23.333,15.417" style="fill:none;fill-rule:nonzero;stroke:#000;stroke-width:0.3px;"/><path d="M1035.671,980.65c0,-1.667 -0.417,-2.917 -2.083,-2.917c-1.667,0 -2.5,1.25 -2.5,2.917c0,3.75 -0.417,7.5 -0.417,11.25c-0.417,1.25 0,2.083 0.417,2.917c0.833,0.833 1.667,1.25 2.5,1.25c0.833,0 1.667,-0.417 2.083,-1.25c0.833,-0.833 0.833,-1.667 0.833,-2.917c0,-3.75 -0.417,-7.5 -0.833,-11.25Z" style="fill:none;fill-rule:nonzero;stroke:#000;stroke-width:0.3px;"/><path d="M1031.504,983.984c-0.417,2.917 -0.417,5.833 -0.833,8.75c0,0.833 0.417,1.25 0.833,2.083c0.417,0.417 1.25,0.833 2.083,0.833c0.833,0 1.25,-0.417 2.083,-0.833c0.417,-0.833 0.417,-1.25 0.417,-2.083c0,-2.917 -0.417,-5.833 -0.417,-8.75c0,-1.25 -0.833,-2.083 -2.083,-2.083c-1.667,0 -2.083,0.833 -2.083,2.083Z" style="fill:none;fill-rule:nonzero;stroke:#000;stroke-width:0.3px;"/><path d="M1033.587,966.067c2.083,0 3.75,-1.667 3.75,-3.75c0,-1.667 -1.667,-3.333 -3.75,-3.333c-2.5,0 -4.167,1.667 -4.167,3.333c0,2.083 1.667,3.75 4.167,3.75" style="fill:none;fill-rule:nonzero;stroke:#000;stroke-width:0.3px;"/><path d="M1030.671,988.984c-17.083,-0.833 -28.333,-7.083 -33.75,-18.75c-0.417,-0.833 -0.833,-1.667 -1.25,-2.5c-6.25,-52.917 -8.75,-97.917 -7.5,-135.833l0,-0.833c3.333,-23.75 18.333,-36.25 45.417,-36.667c27.083,0.417 42.083,12.917 45,36.667c0.417,0.417 0.417,0.833 0.417,0.833c1.25,37.917 -1.25,82.917 -7.917,135.833c0,0.833 -0.417,1.667 -0.833,2.5c-5.417,11.667 -16.667,17.917 -33.75,18.75" style="fill:none;fill-rule:nonzero;stroke:#000;stroke-width:0.3px;"/><rect x="50.254" y="941.484" width="141.667" height="71.25" style="fill:#ddb682;stroke:#000;stroke-width:0.77px;"/><path d="M50.254,941.484l70.833,71.25l70.833,-71.25" style="fill:none;fill-rule:nonzero;stroke:#000;stroke-width:0.3px;"/><rect x="191.921" y="941.484" width="141.667" height="71.25" style="fill:#ddb682;stroke:#000;stroke-width:0.77px;"/><path d="M191.921,941.484l70.833,71.25l70.833,-71.25" style="fill:none;fill-rule:nonzero;stroke:#000;stroke-width:0.3px;"/><rect x="333.587" y="941.484" width="112.5" height="71.25" style="fill:#ddb682;stroke:#000;stroke-width:0.77px;"/><path d="M333.587,941.484l56.25,71.25l56.25,-71.25" style="fill:none;fill-rule:nonzero;stroke:#000;stroke-width:0.3px;"/><path d="M670.254,404.4l-70.833,0l0,141.667l70.833,0l0,-141.667Z" style="fill:#ddb682;stroke:#000;stroke-width:0.77px;"/><path d="M599.421,546.067l70.833,-70.833l-70.833,-70.833" style="fill:none;fill-rule:nonzero;stroke:#000;stroke-width:0.3px;"/><path d="M670.254,262.734l-70.833,0l0,141.667l70.833,0l0,-141.667Z" style="fill:#ddb682;stroke:#000;stroke-width:0.77px;"/><path d="M599.421,404.4l70.833,-70.833l-70.833,-70.833" style="fill:none;fill-rule:nonzero;stroke:#000;stroke-width:0.3px;"/><path d="M670.254,162.317l-70.833,0l0,100.417l70.833,0l0,-100.417Z" style="fill:#ddb682;stroke:#000;stroke-width:0.77px;"/><path d="M599.421,262.734l70.833,-50.417l-70.833,-50" style="fill:none;fill-rule:nonzero;stroke:#000;stroke-width:0.3px;"/><path d="M103.171,364.4l12.083,23.75l-2.5,1.25c-0.833,0.417 -1.25,1.25 -1.667,2.083c0,0.833 0,1.667 0.417,2.083c8.75,14.167 27.083,19.167 42.083,11.667c14.583,-7.083 21.667,-25 15.833,-40.417c-0.417,-0.833 -0.833,-1.25 -1.667,-1.667c-0.833,-0.417 -1.667,-0.417 -2.5,0l-2.5,1.25l-12.083,-23.75l-47.5,23.75Z" style="fill:#cfd4a2;"/><path d="M162.754,364.4l-12.083,-23.75" style="fill:none;fill-rule:nonzero;stroke:#000;stroke-width:0.77px;"/><path d="M169.421,364.817c-0.417,-0.833 -0.833,-1.25 -1.667,-1.667c-0.833,-0.417 -1.667,-0.417 -2.5,0" style="fill:none;fill-rule:nonzero;stroke:#000;stroke-width:0.77px;"/><path d="M115.254,388.15l-2.5,1.25" style="fill:none;fill-rule:nonzero;stroke:#000;stroke-width:0.77px;"/><path d="M165.254,363.15l-2.5,1.25" style="fill:none;fill-rule:nonzero;stroke:#000;stroke-width:0.77px;"/><path d="M115.254,388.15c6.667,13.333 22.5,18.333 35.417,12.083c13.333,-6.667 18.75,-22.5 12.083,-35.833" style="fill:none;fill-rule:nonzero;stroke:#000;stroke-width:0.77px;"/><path d="M111.504,393.567c8.75,14.167 27.083,19.167 42.083,11.667c14.583,-7.083 21.667,-25 15.833,-40.417" style="fill:none;fill-rule:nonzero;stroke:#000;stroke-width:0.77px;"/><path d="M103.171,364.4l12.083,23.75" style="fill:none;fill-rule:nonzero;stroke:#000;stroke-width:0.77px;"/><path d="M150.671,340.65l-47.5,23.75" style="fill:none;fill-rule:nonzero;stroke:#000;stroke-width:0.77px;"/><path d="M112.754,389.4c-0.833,0.417 -1.25,1.25 -1.667,2.083c0,0.833 0,1.667 0.417,2.083" style="fill:none;fill-rule:nonzero;stroke:#000;stroke-width:0.77px;"/><path d="M50.254,445.65l70.833,0l0,-141.667l-70.833,0l0,141.667Z" style="fill:#ddb682;stroke:#000;stroke-width:0.77px;"/><path d="M422.337,209.4l47.083,0l0,-47.083l-47.083,0l0,47.083Z" style="fill:#ddb682;stroke:#000;stroke-width:0.77px;"/><path d="M398.587,788.15l47.5,0l0,-47.083l-47.5,0l0,47.083Z" style="fill:#ddb682;stroke:#000;stroke-width:0.77px;"/><path d="M446.087,741.067l-88.75,0l0,-75l-41.25,-31.667l130,0l0,106.667Zm-73.75,-18.75l61.667,0l0,-65.833l-61.667,0l0,65.833Z" style="fill:#e5fffe;fill-opacity:0.5;"/><path d="M316.087,666.067l41.25,0l0,75l-159.583,0l0,-106.667l118.333,0l0,31.667Z" style="fill:#bedcff;"/><rect x="372.337" y="656.484" width="61.667" height="65.833" style="fill:#bedcff;"/><path d="M316.087,666.067l0,-31.667l41.25,31.667l-41.25,0Z" style="fill:#e5fffe;fill-opacity:0.5;"/><path d="M446.087,634.4l-248.333,0l0,106.667l248.333,0l0,-106.667Z" style="fill:none;stroke:#000;stroke-width:0.77px;"/><path d="M357.337,741.067l0,-75l-41.25,-31.667l0,31.667l41.25,0" style="fill:none;fill-rule:nonzero;stroke:#000;stroke-width:0.77px;"/><path d="M434.004,656.484l-61.667,0l0,65.833l61.667,0l0,-65.833Z" style="fill:none;stroke:#000;stroke-width:0.77px;"/><path d="M315.671,162.317l0,88.333l75,0l31.667,41.25l0,-129.583l-106.667,0Zm18.75,73.333l0,-61.667l65.833,0l0,61.667l-65.833,0Z" style="fill:#e5fffe;fill-opacity:0.5;"/><path d="M390.671,291.9l0,-41.25l-75,0l0,159.583l106.667,0l0,-118.333l-31.667,0Z" style="fill:#bedcff;"/><path d="M334.421,235.65l65.833,0l0,-61.667l-65.833,0l0,61.667Z" style="fill:#bedcff;"/><path d="M390.671,291.9l31.667,0l-31.667,-41.25l0,41.25Z" style="fill:#e5fffe;fill-opacity:0.5;"/><rect x="315.671" y="162.317" width="106.667" height="247.917" style="fill:none;stroke:#000;stroke-width:0.77px;"/><path d="M315.671,250.65l75,0l31.667,41.25l-31.667,0l0,-41.25" style="fill:none;fill-rule:nonzero;stroke:#000;stroke-width:0.77px;"/><rect x="334.421" y="173.984" width="65.833" height="61.667" style="fill:none;stroke:#000;stroke-width:0.77px;"/><rect x="262.754" y="162.317" width="35.417" height="70.833" style="fill:#ddb682;stroke:#000;stroke-width:0.77px;"/><path d="M298.171,233.15l-35.417,-70.833" style="fill:none;fill-rule:nonzero;stroke:#000;stroke-width:0.3px;"/><rect x="262.754" y="233.15" width="35.417" height="70.833" style="fill:#ddb682;stroke:#000;stroke-width:0.77px;"/><path d="M298.171,303.984l-35.417,-70.833" style="fill:none;fill-rule:nonzero;stroke:#000;stroke-width:0.3px;"/><rect x="262.754" y="303.984" width="35.417" height="70.833" style="fill:#ddb682;stroke:#000;stroke-width:0.77px;"/><path d="M298.171,374.817l-35.417,-70.833" style="fill:none;fill-rule:nonzero;stroke:#000;stroke-width:0.3px;"/><rect x="262.754" y="374.817" width="35.417" height="70.833" style="fill:#ddb682;stroke:#000;stroke-width:0.77px;"/><path d="M298.171,445.65l-35.417,-70.833" style="fill:none;fill-rule:nonzero;stroke:#000;stroke-width:0.3px;"/><rect x="262.754" y="546.067" width="35.417" height="70.833" style="fill:#ddb682;stroke:#000;stroke-width:0.77px;"/><path d="M298.171,616.9l-35.417,-70.833" style="fill:none;fill-rule:nonzero;stroke:#000;stroke-width:0.3px;"/><path d="M709.421,843.567l0,40.417l42.083,0.833c11.25,0 20.417,-9.583 20.417,-21.25c0,-11.25 -9.167,-20.833 -20.417,-21.25l-42.083,1.25Z" style="fill:#e0e0e0;stroke:#000;stroke-width:0.3px;"/><path d="M767.754,863.567c0,3.75 -0.833,7.083 -2.917,10.417c-3.75,4.583 -9.583,7.5 -15.833,7.5c-6.25,0 -11.667,-3.333 -15.417,-8.333c-1.667,-2.917 -2.917,-6.25 -2.917,-9.583c0,-3.333 1.25,-6.667 2.917,-9.167c3.75,-5.417 9.167,-8.333 15.417,-8.333c6.25,-0.417 12.083,2.5 15.833,7.5c2.083,2.917 2.917,6.667 2.917,10Z" style="fill:#b4b4b4;stroke:#000;stroke-width:0.3px;"/><path d="M709.421,863.567l2.5,0" style="fill:none;fill-rule:nonzero;stroke:#000;stroke-width:0.3px;"/><path d="M733.587,873.567c1.667,-0.417 2.917,-0.417 4.583,-0.417c1.25,-0.417 2.5,-0.833 3.75,-1.667c1.25,-0.417 2.083,-1.25 2.917,-2.5c0.833,-0.833 1.25,-1.667 1.25,-2.5c0.417,-0.833 0.417,-1.25 0.417,-2.083l0,-0.833" style="fill:none;fill-rule:nonzero;stroke:#000;stroke-width:0.3px;"/><path d="M738.587,872.734c-0.417,-0.417 -0.833,-1.25 -1.25,-2.083c-0.417,-0.417 -0.833,-1.667 -1.25,-2.5c-0,-0.833 -0,-1.667 -0.417,-2.5l0,-2.083" style="fill:none;fill-rule:nonzero;stroke:#000;stroke-width:0.3px;"/><ellipse cx="723.171" cy="872.525" rx="1.25" ry="1.458" style="fill:none;stroke:#000;stroke-width:0.3px;"/><path d="M733.587,853.984c1.667,0 2.917,0 4.583,0.417c1.25,0.417 2.5,0.833 3.75,1.25c1.25,0.833 2.083,1.667 2.917,2.5c0.833,0.833 1.25,2.083 1.25,2.917c0.417,0.417 0.417,1.25 0.417,1.667l0,0.833" style="fill:none;fill-rule:nonzero;stroke:#000;stroke-width:0.3px;"/><path d="M738.587,854.4c-0.417,0.833 -0.833,1.25 -1.25,2.083c-0.417,0.833 -0.833,1.667 -1.25,2.5c0,0.833 0,1.667 -0.417,2.5l0,2.083" style="fill:none;fill-rule:nonzero;stroke:#000;stroke-width:0.3px;"/><path d="M723.171,856.067c-0.833,0 -1.25,-0.417 -1.25,-1.25c0,-0.833 0.417,-1.25 1.25,-1.25c0.833,0 1.25,0.417 1.25,1.25c0,0.833 -0.417,1.25 -1.25,1.25Z" style="fill:none;fill-rule:nonzero;stroke:#000;stroke-width:0.3px;"/><path d="M298.171,616.9l17.917,-17.917m-17.917,-2.917l17.917,-17.917m-17.917,-2.917l17.917,-17.917m-17.917,-2.917l14.167,-14.167m-10,-94.583l13.75,-13.333m-17.917,-3.333l17.917,-17.917m-17.917,-2.917l17.917,-17.917m-17.917,-2.917l17.917,-17.917m-17.917,-2.917l17.917,-17.917m-17.917,-2.917l17.917,-17.917m-17.917,-3.333l17.917,-17.5m-17.917,-3.333l17.917,-17.5m-17.917,-3.333l17.917,-17.5m-17.917,-3.333l17.917,-17.5m-17.917,-3.333l17.917,-17.917m-17.917,-2.917l17.917,-17.917m-17.917,-2.917l17.917,-17.917m-17.917,-2.917l16.25,-16.25" style="fill:none;fill-rule:nonzero;stroke:#000;stroke-opacity:0.31;stroke-width:1.48px;"/><path d="M316.087,445.65l-17.917,0l0,-283.333m17.917,0l0,283.333m-17.917,171.25l0,-76.667l17.917,0l0,76.667" style="fill:none;fill-rule:nonzero;stroke:#2b2b2b;stroke-width:2.95px;stroke-linecap:round;"/><path d="M670.254,162.317l17.917,17.5m-17.917,3.333l17.917,17.5m-17.917,3.333l17.917,17.5m-17.917,3.333l17.917,17.5m-17.917,3.333l17.917,17.917m-17.917,2.917l17.917,17.917m-17.917,2.917l17.917,17.917m-17.917,2.917l17.917,17.917m-17.917,2.917l17.917,17.917m-17.917,3.333l17.917,17.5m-17.917,3.333l17.917,17.5m-17.917,3.333l17.917,17.5m-17.917,3.333l17.917,17.5m-17.917,3.333l17.917,17.917m-17.917,2.917l17.917,17.917m-17.917,2.917l17.917,17.917m-17.917,2.917l17.917,17.917m-17.917,2.917l17.917,17.917m-17.917,3.333l17.917,17.5m-17.917,3.333l10.833,10.833m2.083,106.25l5,5m-17.917,2.917l17.917,17.917m-17.917,2.917l17.917,17.917m-17.917,3.333l17.917,17.5m-17.917,3.333l17.917,17.5m-17.917,3.333l2.917,2.5" style="fill:none;fill-rule:nonzero;stroke:#000;stroke-opacity:0.31;stroke-width:1.48px;"/><path d="M670.254,676.067l17.917,0l0,94.167m-17.917,0l0,-94.167m17.917,-513.75l0,407.5l-17.917,0l0,-6.25m0,-17.5l0,-383.75" style="fill:none;fill-rule:nonzero;stroke:#2b2b2b;stroke-width:2.95px;stroke-linecap:round;"/><path d="M651.504,563.567l17.917,-17.5m-38.75,17.5l17.917,-17.5m-38.75,17.5l17.5,-17.5m-38.333,17.5l17.5,-17.5m-142.917,17.5l17.917,-17.5" style="fill:none;fill-rule:nonzero;stroke:#000;stroke-opacity:0.31;stroke-width:1.48px;"/><path d="M481.504,546.067l0,17.5l-17.917,0m0,-17.5l17.917,0m188.75,17.5l-82.5,0l0,-17.5l82.5,0" style="fill:none;fill-rule:nonzero;stroke:#2b2b2b;stroke-width:2.95px;stroke-linecap:round;"/><path d="M446.087,546.067l17.5,17.5m-17.5,3.333l17.5,17.5m-17.5,3.333l17.5,17.917m-17.5,2.917l7.917,8.333m-2.917,17.5l12.5,12.917m-17.5,2.917l17.5,17.917m-17.5,3.333l17.5,17.5m-17.5,3.333l17.5,17.5m-17.5,3.333l17.5,17.5m-17.5,3.333l17.5,17.5m-17.5,3.333l17.5,17.5m-17.5,3.333l17.5,17.917m-17.5,2.917l3.333,3.333m1.667,106.25l12.5,12.5m-17.5,3.333l17.5,17.5m-17.5,3.333l17.5,17.5m-17.5,3.333l17.5,17.917m-17.5,2.917l17.5,17.917m-17.5,2.917l7.083,7.083" style="fill:none;fill-rule:nonzero;stroke:#000;stroke-opacity:0.31;stroke-width:1.48px;"/><path d="M463.587,799.817l-17.5,0l0,-165.417m17.5,0l0,165.417m-17.5,106.25l17.5,0l0,106.25m-17.5,0l0,-106.25m17.5,-342.5l0,53.333m-17.5,0l0,-70.833l17.5,0" style="fill:none;fill-rule:nonzero;stroke:#2b2b2b;stroke-width:2.95px;stroke-linecap:round;"/><path d="M670.254,1012.317l17.917,-17.5m-17.917,-3.333l17.917,-17.5m-17.917,-3.333l17.917,-17.5m-17.917,-3.333l17.917,-17.5m-17.917,-3.333l17.917,-17.5m-17.917,-3.333l17.917,-17.917m-17.917,-2.917l17.917,-17.917m-17.917,-2.917l17.917,-17.917m-17.917,-2.917l17.917,-17.917m-17.917,-2.917l17.917,-17.917m-17.917,-3.333l15.833,-15.417" style="fill:none;fill-rule:nonzero;stroke:#000;stroke-opacity:0.31;stroke-width:1.48px;"/><path d="M670.254,1012.734l0,-224.583" style="fill:none;fill-rule:nonzero;stroke:#2b2b2b;stroke-width:2.95px;stroke-linecap:round;"/><path d="M446.921,634.4l16.667,-16.667m-37.5,16.667l17.5,-17.5m-38.333,17.5l17.5,-17.5m-38.333,17.5l17.5,-17.5m-38.333,17.5l17.5,-17.5m-38.333,17.5l17.5,-17.5m-38.75,17.5l17.917,-17.5m-38.75,17.5l17.917,-17.5m-38.75,17.5l17.917,-17.5m-38.75,17.5l17.917,-17.5m-38.75,17.5l17.5,-17.5m-38.333,17.5l17.5,-17.5m-37.083,16.25l16.25,-16.25m-122.083,17.5l11.667,-11.25m-32.5,11.25l17.917,-17.5m-38.75,17.5l17.917,-17.5" style="fill:none;fill-rule:nonzero;stroke:#000;stroke-opacity:0.31;stroke-width:1.48px;"/><path d="M197.754,616.9l100.417,0m17.917,0l130,0m17.5,0l0,17.5m-17.5,0l-248.333,0l0,-17.5m-94.167,0l0,17.5l-53.333,0m0,-17.5l53.333,0" style="fill:none;fill-rule:nonzero;stroke:#2b2b2b;stroke-width:2.95px;stroke-linecap:round;"/><path d="M1066.921,788.15l16.667,-16.667m-37.5,16.667l17.917,-17.917m-38.75,17.917l17.917,-17.917m-38.75,17.917l17.5,-17.917m-38.333,17.917l17.5,-17.917m-38.333,17.917l17.5,-17.917m-38.333,17.917l17.5,-17.917m-35,14.583l14.167,-14.583m-122.083,17.917l13.333,-13.333m-34.167,13.333l17.5,-17.917m-38.333,17.917l17.5,-17.917m-38.333,17.917l17.5,-17.917m-38.333,17.917l17.5,-17.917m-38.75,17.917l17.917,-17.917m-38.75,17.917l17.917,-17.917m-38.75,17.917l17.917,-17.917" style="fill:none;fill-rule:nonzero;stroke:#000;stroke-opacity:0.31;stroke-width:1.48px;"/><path d="M670.254,788.15l0,-17.917m17.917,0l141.667,0l0,17.917l-120.417,0m215,0l0,-17.917l159.167,0m0,17.917l-159.167,0" style="fill:none;fill-rule:nonzero;stroke:#2b2b2b;stroke-width:2.95px;stroke-linecap:round;"/><rect x="50.254" y="1012.317" width="413.333" height="35.833" style="fill:#fff;fill-opacity:0.1;"/><path d="M446.921,1048.15l16.667,-17.083m-37.5,17.083l35.417,-35.833m-56.25,35.833l35.417,-35.833m-56.25,35.833l35.417,-35.833m-56.25,35.833l35.417,-35.833m-56.25,35.833l35.417,-35.833m-56.667,35.833l35.417,-35.833m-56.25,35.833l35.417,-35.833m-56.25,35.833l35.417,-35.833m-56.25,35.833l35.417,-35.833m-56.25,35.833l35.417,-35.833m-56.25,35.833l35.417,-35.833m-56.25,35.833l35.417,-35.833m-56.25,35.833l35.417,-35.833m-56.25,35.833l35.417,-35.833m-56.667,35.833l35.417,-35.833m-56.25,35.833l35.417,-35.833m-56.25,35.833l35.417,-35.833m-56.25,35.833l35.417,-35.833m-56.25,35.833l35.417,-35.833m-35.417,14.583l14.583,-14.583m398.75,10.417l-10.417,-10.417m10.417,31.25l-31.25,-31.25m14.583,35.833l-35.417,-35.833m14.583,35.833l-35.417,-35.833m14.583,35.833l-35.417,-35.833m14.583,35.833l-35.417,-35.833m14.583,35.833l-35.417,-35.833m14.583,35.833l-35.833,-35.833m14.583,35.833l-35.417,-35.833m14.583,35.833l-35.417,-35.833m14.583,35.833l-35.417,-35.833m14.583,35.833l-35.417,-35.833m14.583,35.833l-35.417,-35.833m14.583,35.833l-35.417,-35.833m14.583,35.833l-35.417,-35.833m14.583,35.833l-35.417,-35.833m14.583,35.833l-35.833,-35.833m14.583,35.833l-35.417,-35.833m14.583,35.833l-35.417,-35.833m14.583,35.833l-35.417,-35.833m14.583,35.833l-20.833,-21.25" style="fill:none;fill-rule:nonzero;stroke:#000;stroke-opacity:0.31;stroke-width:1.48px;"/><path d="M50.254,1012.317l395.833,0m17.5,0l0,35.833l-413.333,0" style="fill:none;fill-rule:nonzero;stroke:#2b2b2b;stroke-width:2.95px;stroke-linecap:round;"/><rect x="14.837" y="162.317" width="35.417" height="885.833" style="fill:#fff;fill-opacity:0.1;"/><path d="M35.671,1048.15l14.583,-14.583m-35.417,14.583l35.417,-35.833m-35.417,14.583l35.417,-35.417m-35.417,14.583l35.417,-35.417m-35.417,14.583l35.417,-35.417m-35.417,14.583l35.417,-35.417m-35.417,14.583l35.417,-35.417m-35.417,14.583l35.417,-35.417m-35.417,14.583l35.417,-35.417m-35.417,14.583l35.417,-35.417m-35.417,14.583l35.417,-35.417m-35.417,14.167l35.417,-35.417m-35.417,14.583l35.417,-35.417m-35.417,14.583l35.417,-35.417m-35.417,14.583l35.417,-35.417m-35.417,14.583l35.417,-35.417m-35.417,14.583l35.417,-35.417m-35.417,14.583l35.417,-35.417m-35.417,14.583l35.417,-35.417m-35.417,14.583l35.417,-35.417m-35.417,14.167l35.417,-35.417m-35.417,14.583l35.417,-35.417m-35.417,14.583l35.417,-35.417m-35.417,14.583l35.417,-35.417m-35.417,14.583l35.417,-35.417m-35.417,14.583l35.417,-35.417m-35.417,14.583l35.417,-35.417m-35.417,14.583l35.417,-35.417m-35.417,14.583l35.417,-35.417m-35.417,14.167l35.417,-35.417m-35.417,14.583l35.417,-35.417m-35.417,14.583l35.417,-35.417m-35.417,14.583l35.417,-35.417m-35.417,14.583l35.417,-35.417m-35.417,14.583l35.417,-35.417m-35.417,14.583l35.417,-35.417m-35.417,14.583l35.417,-35.417m-35.417,14.583l35.417,-35.417m-35.417,14.167l35.417,-35.417m-35.417,14.583l35.417,-35.417m-35.417,14.583l35.417,-35.417m-35.417,14.583l35.417,-35.417m-35.417,14.583l29.583,-29.583m-29.583,8.75l8.75,-8.75m26.667,2.5l-2.5,-2.5m2.5,23.333l-23.333,-23.333m23.333,44.167l-35.417,-35.417m35.417,56.25l-35.417,-35.417m35.417,56.25l-35.417,-35.417m35.417,56.25l-35.417,-35.417m35.417,56.25l-35.417,-35.417m35.417,56.667l-35.417,-35.833m35.417,56.667l-35.417,-35.417m35.417,56.25l-35.417,-35.417m35.417,56.25l-35.417,-35.417m35.417,56.25l-35.417,-35.417m35.417,56.25l-35.417,-35.417m35.417,56.25l-35.417,-35.417m35.417,56.25l-35.417,-35.417m35.417,56.25l-35.417,-35.417m35.417,56.667l-35.417,-35.833m35.417,56.667l-35.417,-35.417m35.417,56.25l-35.417,-35.417m35.417,56.25l-35.417,-35.417m35.417,56.25l-35.417,-35.417m35.417,56.25l-35.417,-35.417m35.417,56.25l-35.417,-35.417m35.417,56.25l-35.417,-35.417m35.417,56.25l-35.417,-35.417m35.417,56.25l-35.417,-35.417m35.417,56.667l-35.417,-35.417m35.417,56.25l-35.417,-35.417m35.417,56.25l-35.417,-35.417m35.417,56.25l-35.417,-35.417m35.417,56.25l-35.417,-35.417m35.417,56.25l-35.417,-35.417m35.417,56.25l-35.417,-35.417m35.417,56.25l-35.417,-35.417m35.417,56.25l-35.417,-35.417m35.417,56.667l-35.417,-35.417m35.417,56.25l-35.417,-35.417m35.417,56.25l-35.417,-35.417m35.417,56.25l-35.417,-35.417m35.417,56.25l-35.417,-35.417m35.417,56.25l-35.417,-35.417m35.417,56.25l-35.417,-35.417m35.417,56.25l-35.417,-35.417m20.833,42.083l-20.833,-21.25" style="fill:none;fill-rule:nonzero;stroke:#000;stroke-opacity:0.31;stroke-width:1.48px;"/><path d="M14.837,1047.734l-0,-885.417m35.417,0l0,454.583m0,17.5l0,377.917m0,35.833l-35.417,0l0,-0.417" style="fill:none;fill-rule:nonzero;stroke:#2b2b2b;stroke-width:2.95px;stroke-linecap:round;"/><path d="M1083.587,1048.15l-413.333,0l0,-35.417l413.333,-0.417l0,35.833Z" style="fill:#fff;fill-opacity:0.1;"/><path d="M1066.921,1048.15l16.667,-16.667m-37.5,16.667l35.417,-35.833m-56.25,35.833l35.417,-35.833m-56.25,35.833l35.417,-35.833m-56.25,35.833l35.417,-35.833m-56.25,35.833l35.417,-35.833m-56.25,35.833l35.417,-35.833m-56.25,35.833l35.417,-35.833m-56.667,35.833l35.417,-35.833m-56.25,35.833l35.417,-35.833m-56.25,35.833l35.417,-35.833m-56.25,35.833l35.417,-35.833m-56.25,35.833l35.417,-35.833m-56.25,35.833l35.417,-35.833m-56.25,35.833l35.417,-35.833m-56.25,35.833l35.417,-35.833m-56.25,35.833l35.417,-35.833m-56.667,35.833l35.417,-35.833m-56.25,35.833l35.417,-35.833m-56.25,35.833l35.417,-35.833m-35.417,14.583l14.583,-14.583m398.75,10.417l-10.417,-10.417m10.417,31.25l-31.25,-31.25m14.583,35.833l-35.417,-35.833m14.583,35.833l-35.417,-35.833m14.583,35.833l-35.417,-35.833m14.583,35.833l-35.417,-35.833m14.583,35.833l-35.417,-35.833m14.583,35.833l-35.417,-35.833m14.583,35.833l-35.417,-35.833m14.583,35.833l-35.833,-35.833m14.583,35.833l-35.417,-35.833m14.583,35.833l-35.417,-35.833m14.583,35.833l-35.417,-35.833m14.583,35.833l-35.417,-35.833m14.583,35.833l-35.417,-35.833m14.583,35.833l-35.417,-35.833m14.583,35.833l-35.417,-35.833m14.583,35.833l-35.417,-35.833m14.583,35.833l-35.833,-35.833m14.583,35.833l-35.417,-35.833m14.583,35.833l-20.833,-21.25" style="fill:none;fill-rule:nonzero;stroke:#000;stroke-opacity:0.31;stroke-width:1.48px;"/><path d="M1083.587,1048.15l-413.333,0l0,-35.417" style="fill:none;fill-rule:nonzero;stroke:#2b2b2b;stroke-width:2.95px;stroke-linecap:round;"/><rect x="1083.587" y="162.317" width="35.417" height="885.833" style="fill:#fff;fill-opacity:0.1;"/><path d="M1104.421,1048.15l14.583,-14.583m-35.417,14.167l35.417,-35.417m-35.417,14.583l35.417,-35.417m-35.417,14.583l35.417,-35.417m-35.417,14.583l35.417,-35.417m-35.417,14.583l35.417,-35.417m-35.417,14.583l35.417,-35.417m-35.417,14.583l35.417,-35.417m-35.417,14.583l35.417,-35.417m-35.417,14.583l35.417,-35.417m-35.417,14.583l35.417,-35.833m-35.417,14.583l35.417,-35.417m-35.417,14.583l35.417,-35.417m-35.417,14.583l35.417,-35.417m-35.417,14.583l35.417,-35.417m-35.417,14.583l35.417,-35.417m-35.417,14.583l35.417,-35.417m-35.417,14.583l35.417,-35.417m-35.417,14.583l35.417,-35.417m-35.417,14.583l35.417,-35.833m-35.417,14.583l35.417,-35.417m-35.417,14.583l35.417,-35.417m-35.417,14.583l35.417,-35.417m-35.417,14.583l35.417,-35.417m-35.417,14.583l35.417,-35.417m-35.417,14.583l35.417,-35.417m-35.417,14.583l35.417,-35.417m-35.417,14.583l35.417,-35.417m-35.417,14.583l35.417,-35.833m-35.417,14.583l35.417,-35.417m-35.417,14.583l35.417,-35.417m-35.417,14.583l35.417,-35.417m-35.417,14.583l35.417,-35.417m-35.417,14.583l35.417,-35.417m-35.417,14.583l35.417,-35.417m-35.417,14.583l35.417,-35.417m-35.417,14.583l35.417,-35.417m-35.417,14.583l35.417,-35.417m-35.417,14.167l35.417,-35.417m-35.417,14.583l35.417,-35.417m-35.417,14.583l35.417,-35.417m-35.417,14.583l35.417,-35.417m-35.417,14.583l30,-29.583m-30,8.75l9.167,-8.75m26.25,2.5l-2.5,-2.5m2.5,23.333l-23.333,-23.333m23.333,44.167l-35.417,-35.417m35.417,56.25l-35.417,-35.417m35.417,56.25l-35.417,-35.417m35.417,56.25l-35.417,-35.417m35.417,56.25l-35.417,-35.417m35.417,56.667l-35.417,-35.417m35.417,56.25l-35.417,-35.417m35.417,56.25l-35.417,-35.417m35.417,56.25l-35.417,-35.417m35.417,56.25l-35.417,-35.417m35.417,56.25l-35.417,-35.417m35.417,56.25l-35.417,-35.417m35.417,56.25l-35.417,-35.417m35.417,56.25l-35.417,-35.417m35.417,56.667l-35.417,-35.833m35.417,56.667l-35.417,-35.417m35.417,56.25l-35.417,-35.417m35.417,56.25l-35.417,-35.417m35.417,56.25l-35.417,-35.417m35.417,56.25l-35.417,-35.417m35.417,56.25l-35.417,-35.417m35.417,56.25l-35.417,-35.417m35.417,56.25l-35.417,-35.417m35.417,56.667l-35.417,-35.833m35.417,56.667l-35.417,-35.417m35.417,56.25l-35.417,-35.417m35.417,56.25l-35.417,-35.417m35.417,56.25l-35.417,-35.417m35.417,56.25l-35.417,-35.417m35.417,56.25l-35.417,-35.417m35.417,56.25l-35.417,-35.417m35.417,56.25l-35.417,-35.417m35.417,56.667l-35.417,-35.833m35.417,56.667l-35.417,-35.417m35.417,56.25l-35.417,-35.417m35.417,56.25l-35.417,-35.417m35.417,56.25l-35.417,-35.417m35.417,56.25l-35.417,-35.417m35.417,56.25l-35.417,-35.417m35.417,56.25l-35.417,-35.417m35.417,56.25l-35.417,-35.417m20.833,42.083l-20.833,-21.25" style="fill:none;fill-rule:nonzero;stroke:#000;stroke-opacity:0.31;stroke-width:1.48px;"/><path d="M1083.587,770.234l0,-607.917m35.417,0l0,885.833l-35.417,0m0,-47.5l0,-212.5" style="fill:none;fill-rule:nonzero;stroke:#2b2b2b;stroke-width:2.95px;stroke-linecap:round;"/><rect x="14.837" y="126.9" width="1104.167" height="35.417" style="fill:#fff;fill-opacity:0.1;"/><path d="M1100.671,162.317l18.333,-18.75m-39.167,18.75l35.417,-35.417m-56.667,35.417l35.417,-35.417m-56.25,35.417l35.417,-35.417m-56.25,35.417l35.417,-35.417m-56.25,35.417l35.417,-35.417m-56.25,35.417l35.417,-35.417m-56.25,35.417l35.417,-35.417m-56.25,35.417l35.417,-35.417m-56.25,35.417l35.417,-35.417m-56.25,35.417l35.417,-35.417m-56.667,35.417l35.417,-35.417m-56.25,35.417l35.417,-35.417m-56.25,35.417l35.417,-35.417m-56.25,35.417l35.417,-35.417m-56.25,35.417l35.417,-35.417m-56.25,35.417l35.417,-35.417m-56.25,35.417l35.417,-35.417m-56.25,35.417l35.417,-35.417m-56.25,35.417l35.417,-35.417m-56.667,35.417l35.833,-35.417m-56.667,35.417l35.417,-35.417m-56.25,35.417l35.417,-35.417m-56.25,35.417l35.417,-35.417m-56.25,35.417l35.417,-35.417m-56.25,35.417l35.417,-35.417m-56.25,35.417l35.417,-35.417m-56.25,35.417l35.417,-35.417m-56.25,35.417l35.417,-35.417m-56.667,35.417l35.833,-35.417m-56.667,35.417l35.417,-35.417m-56.25,35.417l35.417,-35.417m-56.25,35.417l35.417,-35.417m-56.25,35.417l35.417,-35.417m-56.25,35.417l35.417,-35.417m-56.25,35.417l35.417,-35.417m-56.25,35.417l35.417,-35.417m-56.25,35.417l35.417,-35.417m-56.667,35.417l35.833,-35.417m-56.667,35.417l35.417,-35.417m-56.25,35.417l35.417,-35.417m-56.25,35.417l35.417,-35.417m-56.25,35.417l35.417,-35.417m-56.25,35.417l35.417,-35.417m-56.25,35.417l35.417,-35.417m-56.25,35.417l35.417,-35.417m-56.25,35.417l35.417,-35.417m-56.667,35.417l35.833,-35.417m-56.667,35.417l35.417,-35.417m-56.25,35.417l35.417,-35.417m-56.25,35.417l35.417,-35.417m-56.25,35.417l35.417,-35.417m-56.25,35.417l35.417,-35.417m-35.417,14.167l14.583,-14.167m1089.583,12.083l-12.083,-12.083m12.083,32.917l-32.917,-32.917m14.583,35.417l-35.417,-35.417m14.583,35.417l-35.417,-35.417m14.167,35.417l-35.417,-35.417m14.583,35.417l-35.417,-35.417m14.583,35.417l-35.417,-35.417m14.583,35.417l-35.417,-35.417m14.583,35.417l-35.417,-35.417m14.583,35.417l-35.417,-35.417m14.583,35.417l-35.417,-35.417m14.583,35.417l-35.417,-35.417m14.583,35.417l-35.417,-35.417m14.167,35.417l-35.417,-35.417m14.583,35.417l-35.417,-35.417m14.583,35.417l-35.417,-35.417m14.583,35.417l-35.417,-35.417m14.583,35.417l-35.417,-35.417m14.583,35.417l-35.417,-35.417m14.583,35.417l-35.417,-35.417m14.583,35.417l-35.417,-35.417m14.583,35.417l-35.417,-35.417m14.167,35.417l-35.417,-35.417m14.583,35.417l-35.417,-35.417m14.583,35.417l-35.417,-35.417m14.583,35.417l-35.417,-35.417m14.583,35.417l-35.417,-35.417m14.583,35.417l-35.417,-35.417m14.583,35.417l-35.417,-35.417m14.583,35.417l-35.417,-35.417m14.583,35.417l-35.417,-35.417m14.167,35.417l-35.417,-35.417m14.583,35.417l-35.417,-35.417m14.583,35.417l-35.417,-35.417m14.583,35.417l-35.417,-35.417m14.583,35.417l-35.417,-35.417m14.583,35.417l-35.417,-35.417m14.583,35.417l-35.417,-35.417m14.583,35.417l-35.417,-35.417m14.583,35.417l-35.417,-35.417m14.167,35.417l-35.417,-35.417m14.583,35.417l-35.417,-35.417m14.583,35.417l-35.417,-35.417m14.583,35.417l-35.417,-35.417m14.583,35.417l-35.417,-35.417m14.583,35.417l-35.417,-35.417m14.583,35.417l-35.417,-35.417m14.583,35.417l-35.417,-35.417m14.583,35.417l-35.417,-35.417m14.167,35.417l-35.417,-35.417m14.583,35.417l-35.417,-35.417m14.583,35.417l-35.417,-35.417m14.583,35.417l-35.417,-35.417m14.583,35.417l-20.833,-21.25" style="fill:none;fill-rule:nonzero;stroke:#000;stroke-opacity:0.31;stroke-width:1.48px;"/><path d="M1083.587,162.317l-395.417,0m-17.917,0l-354.167,0m-17.917,0l-247.917,0m-35.417,0l0,-35.417l1104.167,0l0,35.417" style="fill:none;fill-rule:nonzero;stroke:#2b2b2b;stroke-width:2.95px;stroke-linecap:round;"/><path d="M463.587,806.067l-17.5,0" style="fill:none;fill-rule:nonzero;stroke:#000;stroke-width:0.3px;"/><path d="M463.587,900.234l-112.083,0" style="fill:none;fill-rule:nonzero;stroke:#000;stroke-width:0.3px;"/><path d="M351.504,900.234c-0,-52.083 42.083,-94.167 94.583,-94.167" style="fill:none;fill-rule:nonzero;stroke:#000;stroke-width:0.3px;"/><rect x="446.087" y="799.817" width="17.5" height="106.25" style="fill:none;fill-rule:nonzero;stroke:#000;stroke-width:0.3px;"/><rect x="829.837" y="770.234" width="94.583" height="17.917" style="fill:none;fill-rule:nonzero;stroke:#000;stroke-width:0.3px;"/><path d="M918.171,788.15l0,-100.417" style="fill:none;fill-rule:nonzero;stroke:#000;stroke-width:0.3px;"/><path d="M835.671,770.234c0,-45.417 37.083,-82.5 82.5,-82.5" style="fill:none;fill-rule:nonzero;stroke:#000;stroke-width:0.3px;"/><path d="M835.671,770.234l0,17.917" style="fill:none;fill-rule:nonzero;stroke:#000;stroke-width:0.3px;"/><path d="M670.254,575.65l17.917,0" style="fill:none;fill-rule:nonzero;stroke:#000;stroke-width:0.3px;"/><path d="M670.254,669.817l112.083,0" style="fill:none;fill-rule:nonzero;stroke:#000;stroke-width:0.3px;"/><path d="M782.337,669.817c0,-52.083 -42.083,-94.167 -94.167,-94.167" style="fill:none;fill-rule:nonzero;stroke:#000;stroke-width:0.3px;"/><rect x="670.254" y="569.4" width="17.917" height="106.667" style="fill:none;fill-rule:nonzero;stroke:#000;stroke-width:0.3px;"/><rect x="316.087" y="546.067" width="130" height="70.833" style="fill:#ddb682;stroke:#000;stroke-width:0.77px;"/><path d="M316.087,546.067l65,70.833l65,-70.833" style="fill:none;fill-rule:nonzero;stroke:#000;stroke-width:0.3px;"/><rect x="103.587" y="616.9" width="94.167" height="17.5" style="fill:none;fill-rule:nonzero;stroke:#000;stroke-width:0.3px;"/><path d="M109.421,634.4l0,-100" style="fill:none;fill-rule:nonzero;stroke:#000;stroke-width:0.3px;"/><g transform="matrix(1,0,0,1,-416.250519,329.176891)"><text x="543.12px" y="157.412px" style="font-family:'ArialMT', 'Arial', sans-serif;font-size:21.144px;fill:#2b2b2b;fill-opacity:0.99;">Pokoj</text><g transform="matrix(21.144211,0,0,21.144211,605.409743,181.03356)"></g><text x="533.728px" y="181.034px" style="font-family:'ArialMT', 'Arial', sans-serif;font-size:21.144px;fill:#2b2b2b;fill-opacity:0.99;">8.21 m²</text></g><g transform="matrix(1,0,0,1,144.582622,416.247558)"><text x="716.111px" y="184.908px" style="font-family:'ArialMT', 'Arial', sans-serif;font-size:21.144px;fill:#2b2b2b;fill-opacity:0.99;">Ložnice</text><g transform="matrix(21.144211,0,0,21.144211,794.278786,208.52956)"></g><text x="710.838px" y="208.53px" style="font-family:'ArialMT', 'Arial', sans-serif;font-size:21.144px;fill:#2b2b2b;fill-opacity:0.99;">17.38 m²</text></g><g transform="matrix(1,0,0,1,-342.525002,593.076758)"><text x="572.281px" y="240.748px" style="font-family:'ArialMT', 'Arial', sans-serif;font-size:21.144px;fill:#2b2b2b;fill-opacity:0.99;">Pokoj</text><g transform="matrix(21.144211,0,0,21.144211,640.451692,264.37036)"></g><text x="557.011px" y="264.37px" style="font-family:'ArialMT', 'Arial', sans-serif;font-size:21.144px;fill:#2b2b2b;fill-opacity:0.99;">10.85 m²</text></g><g transform="matrix(1,0,0,1,-139.021396,444.523308)"><text x="651.379px" y="193.837px" style="font-family:'ArialMT', 'Arial', sans-serif;font-size:21.144px;fill:#2b2b2b;fill-opacity:0.99;">Chodba</text><text x="641.989px" y="217.459px" style="font-family:'ArialMT', 'Arial', sans-serif;font-size:21.144px;fill:#2b2b2b;fill-opacity:0.99;">horní část</text><g transform="matrix(21.144211,0,0,21.144211,725.705361,241.080791)"></g><text x="654.024px" y="241.081px" style="font-family:'ArialMT', 'Arial', sans-serif;font-size:21.144px;fill:#2b2b2b;fill-opacity:0.99;">6.85 m²</text></g><g transform="matrix(1,0,0,1,123.524095,597.714025)"><text x="704.179px" y="242.213px" style="font-family:'ArialMT', 'Arial', sans-serif;font-size:21.144px;fill:#2b2b2b;fill-opacity:0.99;">Koupelna</text><g transform="matrix(21.144211,0,0,21.144211,784.698952,265.83476)"></g><text x="713.017px" y="265.835px" style="font-family:'ArialMT', 'Arial', sans-serif;font-size:21.144px;fill:#2b2b2b;fill-opacity:0.99;">5.77 m²</text></g><path d="M191.921,616.9c0,-45.833 -37.083,-82.5 -82.5,-82.5" style="fill:none;fill-rule:nonzero;stroke:#000;stroke-width:0.3px;"/><path d="M191.921,616.9l0,17.5" style="fill:none;fill-rule:nonzero;stroke:#000;stroke-width:0.3px;"/><rect x="298.171" y="445.65" width="17.917" height="94.583" style="fill:none;fill-rule:nonzero;stroke:#000;stroke-width:0.3px;"/><path d="M316.087,533.984l-100.417,0" style="fill:none;fill-rule:nonzero;stroke:#000;stroke-width:0.3px;"/><path d="M298.171,451.484c-45.417,0 -82.5,37.083 -82.5,82.5" style="fill:none;fill-rule:nonzero;stroke:#000;stroke-width:0.3px;"/><path d="M298.171,451.484l17.917,0" style="fill:none;fill-rule:nonzero;stroke:#000;stroke-width:0.3px;"/><path d="M487.337,563.567l0,-17.5" style="fill:none;fill-rule:nonzero;stroke:#000;stroke-width:0.3px;"/><path d="M581.921,563.567l0,-112.083" style="fill:none;fill-rule:nonzero;stroke:#000;stroke-width:0.3px;"/><path d="M581.921,451.484c-52.5,0 -94.583,42.5 -94.583,94.583" style="fill:none;fill-rule:nonzero;stroke:#000;stroke-width:0.3px;"/><rect x="481.504" y="546.067" width="106.25" height="17.5" style="fill:none;fill-rule:nonzero;stroke:#000;stroke-width:0.3px;"/><rect x="709.421" y="942.734" width="106.25" height="57.917" style="fill:#ddb682;stroke:#000;stroke-width:0.77px;"/><g transform="matrix(1,0,0,1,-146.844128,245.247653)"><text x="634.075px" y="130.908px" style="font-family:'ArialMT', 'Arial', sans-serif;font-size:21.144px;fill:#2b2b2b;fill-opacity:0.99;">Pokoj</text><g transform="matrix(21.144211,0,0,21.144211,702.245652,154.52959)"></g><text x="618.804px" y="154.53px" style="font-family:'ArialMT', 'Arial', sans-serif;font-size:21.144px;fill:#2b2b2b;fill-opacity:0.99;">10.54 m²</text></g></g><g id="topR"><path d="M670.254,906.067l-70.833,0l0,106.667l70.833,0l0,-106.667Z" style="fill:#ddb682;stroke:#000;stroke-width:0.77px;"/><path d="M599.421,906.067l70.833,53.333l-70.833,53.333" style="fill:none;fill-rule:nonzero;stroke:#000;stroke-width:0.3px;"/><path d="M670.254,699.4l-70.833,0l0,65l70.833,0l0,-65Z" style="fill:#ddb682;stroke:#000;stroke-width:0.77px;"/><path d="M599.421,699.4l70.833,32.5l-70.833,32.5" style="fill:none;fill-rule:nonzero;stroke:#000;stroke-width:0.3px;"/><path d="M670.254,764.4l-70.833,0l0,141.667l70.833,0l0,-141.667Z" style="fill:#ddb682;stroke:#000;stroke-width:0.77px;"/><path d="M599.421,764.4l70.833,70.833l-70.833,70.833" style="fill:none;fill-rule:nonzero;stroke:#000;stroke-width:0.3px;"/></g><g id="topL"><path d="M534.421,906.067l-70.833,0l0,106.667l70.833,0l0,-106.667Z" style="fill:#ddb682;stroke:#000;stroke-width:0.77px;"/><path d="M534.421,906.067l-70.833,53.333l70.833,53.333" style="fill:none;fill-rule:nonzero;stroke:#000;stroke-width:0.3px;"/><path d="M534.421,728.984l-70.833,0l0,70.833l70.833,0l0,-70.833Z" style="fill:#ddb682;stroke:#000;stroke-width:0.77px;"/><path d="M534.421,728.984l-70.833,35.417l70.833,35.417" style="fill:none;fill-rule:nonzero;stroke:#000;stroke-width:0.3px;"/></g><g id="anchorTop"><path d="M1244.004,126.9l-250,0" style="fill:none;fill-rule:nonzero;stroke:#f00;stroke-width:0.3px;"/><path d="M1119.004,1.484l0,250.417" style="fill:none;fill-rule:nonzero;stroke:#f00;stroke-width:0.3px;"/></g></svg>