<?xml version="1.0" encoding="UTF-8" standalone="no"?><!DOCTYPE svg PUBLIC "-//W3C//DTD SVG 1.1//EN" "http://www.w3.org/Graphics/SVG/1.1/DTD/svg11.dtd"><svg width="100%" height="100%" viewBox="0 0 3512 359" version="1.1" xmlns="http://www.w3.org/2000/svg" xmlns:xlink="http://www.w3.org/1999/xlink" xml:space="preserve" xmlns:serif="http://www.serif.com/" style="fill-rule:evenodd;clip-rule:evenodd;stroke-linecap:round;stroke-linejoin:round;stroke-miterlimit:1.5;"><path d="M1201.158,344.318l0,-330.436" style="fill:none;stroke:#2a66d2;stroke-width:27.76px;"/><g><g><path d="M1367.037,204.4l28.518,-2.773c1.716,9.572 5.199,16.603 10.447,21.092c5.248,4.489 12.328,6.734 21.24,6.734c9.44,0 16.553,-1.997 21.339,-5.991c4.786,-3.994 7.179,-8.664 7.179,-14.012c0,-3.433 -1.007,-6.354 -3.02,-8.763c-2.013,-2.41 -5.529,-4.506 -10.546,-6.288c-3.433,-1.188 -11.256,-3.301 -23.468,-6.337c-15.712,-3.895 -26.736,-8.681 -33.073,-14.358c-8.912,-7.988 -13.368,-17.725 -13.368,-29.212c0,-7.394 2.096,-14.309 6.288,-20.745c4.192,-6.436 10.232,-11.338 18.121,-14.705c7.889,-3.367 17.411,-5.05 28.568,-5.05c18.22,0 31.935,3.994 41.144,11.982c9.209,7.988 14.045,18.649 14.507,31.984l-29.311,1.287c-1.254,-7.46 -3.944,-12.823 -8.07,-16.091c-4.126,-3.268 -10.315,-4.902 -18.567,-4.902c-8.516,0 -15.183,1.749 -20.002,5.248c-3.103,2.245 -4.654,5.248 -4.654,9.011c0,3.433 1.452,6.37 4.357,8.813c3.697,3.103 12.675,6.337 26.934,9.704c14.259,3.367 24.805,6.849 31.638,10.447c6.833,3.598 12.18,8.516 16.042,14.754c3.862,6.238 5.793,13.946 5.793,23.122c0,8.318 -2.311,16.108 -6.932,23.369c-4.621,7.262 -11.157,12.658 -19.606,16.19c-8.45,3.532 -18.979,5.298 -31.588,5.298c-18.352,0 -32.446,-4.241 -42.282,-12.724c-9.836,-8.483 -15.712,-20.844 -17.626,-37.084Z" style="fill:#2a66d2;fill-rule:nonzero;"/><path d="M1542.405,251.633l0,-120.609l-43.075,0l0,-24.558l115.361,0l0,24.558l-42.976,0l0,120.609l-29.311,0Z" style="fill:#2a66d2;fill-rule:nonzero;"/><path d="M1633.406,106.467l29.311,0l0,78.624c0,12.477 0.363,20.564 1.089,24.26c1.254,5.941 4.241,10.711 8.962,14.309c4.72,3.598 11.173,5.397 19.359,5.397c8.318,0 14.589,-1.7 18.814,-5.1c4.225,-3.4 6.767,-7.575 7.625,-12.526c0.858,-4.951 1.287,-13.17 1.287,-24.657l0,-80.307l29.311,0l0,76.247c0,17.428 -0.792,29.74 -2.377,36.935c-1.584,7.196 -4.506,13.269 -8.763,18.22c-4.258,4.951 -9.952,8.895 -17.081,11.833c-7.13,2.938 -16.438,4.406 -27.924,4.406c-13.863,0 -24.376,-1.601 -31.539,-4.803c-7.163,-3.202 -12.823,-7.361 -16.982,-12.477c-4.159,-5.116 -6.899,-10.48 -8.219,-16.091c-1.914,-8.318 -2.872,-20.597 -2.872,-36.836l0,-77.435Z" style="fill:#2a66d2;fill-rule:nonzero;"/><path d="M1779.959,106.467l53.571,0c12.081,0 21.29,0.924 27.627,2.773c8.516,2.509 15.811,6.965 21.884,13.368c6.073,6.403 10.694,14.243 13.863,23.518c3.169,9.275 4.753,20.712 4.753,34.311c0,11.949 -1.485,22.247 -4.456,30.895c-3.631,10.562 -8.813,19.111 -15.546,25.647c-5.083,4.951 -11.949,8.813 -20.597,11.586c-6.469,2.046 -15.117,3.07 -25.944,3.07l-55.155,0l0,-145.167Zm29.311,24.558l0,96.151l21.884,0c8.186,0 14.094,-0.462 17.725,-1.386c4.753,-1.188 8.697,-3.202 11.833,-6.04c3.136,-2.839 5.694,-7.509 7.674,-14.012c1.98,-6.502 2.971,-15.365 2.971,-26.587c0,-11.223 -0.99,-19.837 -2.971,-25.845c-1.98,-6.007 -4.753,-10.694 -8.318,-14.061c-3.565,-3.367 -8.087,-5.644 -13.566,-6.833c-4.093,-0.924 -12.114,-1.386 -24.062,-1.386l-13.17,0Z" style="fill:#2a66d2;fill-rule:nonzero;"/><rect x="1925.621" y="106.467" width="29.311" height="145.167" style="fill:#2a66d2;fill-rule:nonzero;"/><path d="M1982.856,251.633l0,-145.167l107.637,0l0,24.558l-78.327,0l0,32.182l72.88,0l0,24.458l-72.88,0l0,39.51l81.099,0l0,24.458l-110.41,0Z" style="fill:#2a66d2;fill-rule:nonzero;"/><path d="M2174.068,251.633l0,-145.167l43.867,0l26.34,99.022l26.043,-99.022l43.966,0l0,145.167l-27.231,0l0,-114.272l-28.815,114.272l-28.221,0l-28.716,-114.272l0,114.272l-27.231,0Z" style="fill:#2a66d2;fill-rule:nonzero;"/><path d="M2337.454,179.941c0,-14.787 2.211,-27.198 6.634,-37.232c3.301,-7.394 7.806,-14.028 13.517,-19.903c5.71,-5.875 11.965,-10.232 18.765,-13.071c9.044,-3.829 19.474,-5.743 31.291,-5.743c21.389,0 38.503,6.634 51.343,19.903c12.84,13.269 19.26,31.72 19.26,55.353c0,23.435 -6.37,41.771 -19.111,55.007c-12.741,13.236 -29.773,19.854 -51.095,19.854c-21.587,0 -38.751,-6.585 -51.492,-19.755c-12.741,-13.17 -19.111,-31.308 -19.111,-54.413Zm30.202,-0.99c0,16.438 3.796,28.898 11.388,37.381c7.592,8.483 17.23,12.724 28.914,12.724c11.685,0 21.273,-4.208 28.766,-12.625c7.493,-8.417 11.239,-21.042 11.239,-37.876c0,-16.636 -3.647,-29.047 -10.942,-37.232c-7.295,-8.186 -16.982,-12.279 -29.063,-12.279c-12.081,0 -21.818,4.142 -29.212,12.427c-7.394,8.285 -11.09,20.778 -11.09,37.48Z" style="fill:#2a66d2;fill-rule:nonzero;"/><path d="M2501.039,106.467l53.571,0c12.081,0 21.29,0.924 27.627,2.773c8.516,2.509 15.811,6.965 21.884,13.368c6.073,6.403 10.694,14.243 13.863,23.518c3.169,9.275 4.753,20.712 4.753,34.311c0,11.949 -1.485,22.247 -4.456,30.895c-3.631,10.562 -8.813,19.111 -15.546,25.647c-5.083,4.951 -11.949,8.813 -20.597,11.586c-6.469,2.046 -15.117,3.07 -25.944,3.07l-55.155,0l0,-145.167Zm29.311,24.558l0,96.151l21.884,0c8.186,0 14.094,-0.462 17.725,-1.386c4.753,-1.188 8.697,-3.202 11.833,-6.04c3.136,-2.839 5.694,-7.509 7.674,-14.012c1.98,-6.502 2.971,-15.365 2.971,-26.587c0,-11.223 -0.99,-19.837 -2.971,-25.845c-1.98,-6.007 -4.753,-10.694 -8.318,-14.061c-3.565,-3.367 -8.087,-5.644 -13.566,-6.833c-4.093,-0.924 -12.114,-1.386 -24.062,-1.386l-13.17,0Z" style="fill:#2a66d2;fill-rule:nonzero;"/><path d="M2647.394,106.467l29.311,0l0,78.624c0,12.477 0.363,20.564 1.089,24.26c1.254,5.941 4.241,10.711 8.962,14.309c4.72,3.598 11.173,5.397 19.359,5.397c8.318,0 14.589,-1.7 18.814,-5.1c4.225,-3.4 6.767,-7.575 7.625,-12.526c0.858,-4.951 1.287,-13.17 1.287,-24.657l0,-80.307l29.311,0l0,76.247c0,17.428 -0.792,29.74 -2.377,36.935c-1.584,7.196 -4.506,13.269 -8.763,18.22c-4.258,4.951 -9.952,8.895 -17.081,11.833c-7.13,2.938 -16.438,4.406 -27.924,4.406c-13.863,0 -24.376,-1.601 -31.539,-4.803c-7.163,-3.202 -12.823,-7.361 -16.982,-12.477c-4.159,-5.116 -6.899,-10.48 -8.219,-16.091c-1.914,-8.318 -2.872,-20.597 -2.872,-36.836l0,-77.435Z" style="fill:#2a66d2;fill-rule:nonzero;"/><path d="M2794.838,251.633l0,-143.978l29.311,0l0,119.52l72.88,0l0,24.458l-102.191,0Z" style="fill:#2a66d2;fill-rule:nonzero;"/><path d="M3048.83,251.633l-31.885,0l-12.675,-32.974l-58.027,0l-11.982,32.974l-31.093,0l56.542,-145.167l30.994,0l58.126,145.167Zm-53.967,-57.433l-20.002,-53.868l-19.606,53.868l39.609,0Z" style="fill:#2a66d2;fill-rule:nonzero;"/><path d="M3064.475,251.633l0,-145.167l61.691,0c15.513,0 26.786,1.304 33.816,3.911c7.031,2.608 12.658,7.245 16.883,13.913c4.225,6.667 6.337,14.292 6.337,22.874c0,10.892 -3.202,19.887 -9.605,26.984c-6.403,7.097 -15.976,11.569 -28.716,13.418c6.337,3.697 11.569,7.757 15.695,12.18c4.126,4.423 9.688,12.279 16.685,23.567l17.725,28.32l-35.054,0l-21.191,-31.588c-7.526,-11.289 -12.675,-18.402 -15.447,-21.339c-2.773,-2.938 -5.71,-4.951 -8.813,-6.04c-3.103,-1.089 -8.021,-1.634 -14.754,-1.634l-5.941,0l0,60.602l-29.311,0Zm29.311,-83.773l21.686,0c14.061,0 22.841,-0.594 26.34,-1.782c3.499,-1.188 6.238,-3.235 8.219,-6.139c1.98,-2.905 2.971,-6.535 2.971,-10.892c0,-4.885 -1.304,-8.829 -3.911,-11.833c-2.608,-3.004 -6.288,-4.902 -11.041,-5.694c-2.377,-0.33 -9.506,-0.495 -21.389,-0.495l-22.874,0l0,36.836Z" style="fill:#2a66d2;fill-rule:nonzero;"/><rect x="3209.939" y="106.467" width="29.311" height="145.167" style="fill:#2a66d2;fill-rule:nonzero;"/><path d="M3299.851,251.633l0,-120.609l-43.075,0l0,-24.558l115.361,0l0,24.558l-42.976,0l0,120.609l-29.311,0Z" style="fill:#2a66d2;fill-rule:nonzero;"/><path d="M3429.174,251.633l0,-61.097l-53.175,-84.07l34.361,0l34.163,57.433l33.47,-57.433l33.767,0l-53.373,84.268l0,60.899l-29.212,0Z" style="fill:#2a66d2;fill-rule:nonzero;"/></g></g><g><g><path d="M331.563,344.318l-72.579,0l-28.851,-75.058l-132.084,0l-27.273,75.058l-70.776,0l128.703,-330.436l70.55,0l132.31,330.436Zm-122.843,-130.732l-45.531,-122.618l-44.629,122.618l90.16,0Z" style="fill:#2a66d2;fill-rule:nonzero;"/><path d="M367.853,344.318l0,-330.436l66.718,0l0,146.735l134.789,-146.735l89.709,0l-124.421,128.703l131.183,201.733l-86.328,0l-90.836,-155.075l-54.096,55.223l0,99.852l-66.718,0Z" style="fill:#2a66d2;fill-rule:nonzero;"/><path d="M701.219,344.318l0,-330.436l66.718,0l0,146.735l134.789,-146.735l89.709,0l-124.421,128.703l131.183,201.733l-86.328,0l-90.836,-155.075l-54.096,55.223l0,99.852l-66.718,0Z" style="fill:#2a66d2;fill-rule:nonzero;"/></g></g></svg>