<?xml version="1.0" encoding="UTF-8" standalone="no"?><!DOCTYPE svg PUBLIC "-//W3C//DTD SVG 1.1//EN" "http://www.w3.org/Graphics/SVG/1.1/DTD/svg11.dtd"><svg width="100%" height="100%" viewBox="0 0 3195 2687" version="1.1" xmlns="http://www.w3.org/2000/svg" xmlns:xlink="http://www.w3.org/1999/xlink" xml:space="preserve" xmlns:serif="http://www.serif.com/" style="fill-rule:evenodd;clip-rule:evenodd;stroke-linecap:round;stroke-linejoin:round;stroke-miterlimit:1.5;"><g><path d="M246.678,1463.918l-50.959,0l-20.257,-52.7l-92.739,0l-19.149,52.7l-49.693,0l90.365,-232.006l49.535,0l92.897,232.006Zm-86.25,-91.789l-31.968,-86.092l-31.335,86.092l63.303,0Z" style="fill:#2a66d2;fill-rule:nonzero;"/><path d="M271.683,1463.918l0,-232.006l98.595,0c24.794,0 42.809,2.084 54.045,6.251c11.236,4.167 20.231,11.579 26.983,22.235c6.752,10.656 10.128,22.842 10.128,36.558c0,17.408 -5.117,31.783 -15.351,43.125c-10.234,11.342 -25.532,18.49 -45.895,21.444c10.128,5.908 18.49,12.397 25.084,19.466c6.594,7.069 15.483,19.624 26.666,37.665l28.328,45.262l-56.023,0l-33.867,-50.484c-12.028,-18.041 -20.257,-29.41 -24.688,-34.105c-4.431,-4.695 -9.126,-7.913 -14.085,-9.654c-4.959,-1.741 -12.819,-2.611 -23.58,-2.611l-9.495,0l0,96.854l-46.844,0Zm46.844,-133.886l34.658,0c22.473,0 36.505,-0.95 42.097,-2.849c5.592,-1.899 9.97,-5.17 13.135,-9.812c3.165,-4.642 4.748,-10.445 4.748,-17.408c0,-7.807 -2.084,-14.111 -6.251,-18.912c-4.167,-4.8 -10.049,-7.834 -17.646,-9.1c-3.798,-0.528 -15.193,-0.791 -34.184,-0.791l-36.558,0l0,58.872Z" style="fill:#2a66d2;fill-rule:nonzero;"/><path d="M654.034,1378.617l45.42,14.401c-6.963,25.321 -18.543,44.128 -34.738,56.419c-16.195,12.291 -36.742,18.437 -61.641,18.437c-30.807,0 -56.129,-10.524 -75.964,-31.572c-19.835,-21.048 -29.752,-49.825 -29.752,-86.33c0,-38.615 9.97,-68.605 29.911,-89.969c19.94,-21.365 46.158,-32.047 78.654,-32.047c28.381,0 51.434,8.388 69.159,25.163c10.551,9.917 18.463,24.161 23.739,42.73l-46.369,11.078c-2.743,-12.028 -8.467,-21.523 -17.171,-28.486c-8.704,-6.963 -19.281,-10.445 -31.731,-10.445c-17.197,0 -31.15,6.172 -41.859,18.516c-10.709,12.344 -16.063,32.337 -16.063,59.98c0,29.33 5.275,50.22 15.826,62.67c10.551,12.45 24.266,18.674 41.147,18.674c12.45,0 23.158,-3.956 32.126,-11.869c8.968,-7.913 15.404,-20.362 19.307,-37.349Z" style="fill:#2a66d2;fill-rule:nonzero;"/><path d="M739.809,1463.918l0,-232.006l46.844,0l0,91.315l91.789,0l0,-91.315l46.844,0l0,232.006l-46.844,0l0,-101.443l-91.789,0l0,101.443l-46.844,0Z" style="fill:#2a66d2;fill-rule:nonzero;"/><rect x="972.29" y="1231.912" width="46.844" height="232.006" style="fill:#2a66d2;fill-rule:nonzero;"/><path d="M1115.988,1463.918l0,-192.758l-68.842,0l0,-39.248l184.37,0l0,39.248l-68.684,0l0,192.758l-46.844,0Z" style="fill:#2a66d2;fill-rule:nonzero;"/><path d="M1261.743,1463.918l0,-232.006l172.026,0l0,39.248l-125.182,0l0,51.434l116.478,0l0,39.09l-116.478,0l0,63.145l129.613,0l0,39.09l-176.457,0Z" style="fill:#2a66d2;fill-rule:nonzero;"/><path d="M1478.556,1463.918l0,-232.006l46.844,0l0,103.026l94.638,-103.026l62.987,0l-87.358,90.365l92.106,141.641l-60.613,0l-63.778,-108.881l-37.982,38.773l0,70.108l-46.844,0Z" style="fill:#2a66d2;fill-rule:nonzero;"/><path d="M1764.211,1463.918l0,-192.758l-68.842,0l0,-39.248l184.37,0l0,39.248l-68.684,0l0,192.758l-46.844,0Z" style="fill:#2a66d2;fill-rule:nonzero;"/><path d="M1894.615,1349.34c0,-23.633 3.534,-43.468 10.603,-59.505c5.275,-11.817 12.476,-22.42 21.602,-31.81c9.126,-9.39 19.123,-16.353 29.99,-20.89c14.454,-6.119 31.124,-9.179 50.009,-9.179c34.184,0 61.536,10.603 82.057,31.81c20.521,21.207 30.781,50.695 30.781,88.466c0,37.454 -10.181,66.758 -30.544,87.912c-20.362,21.154 -47.583,31.731 -81.661,31.731c-34.5,0 -61.931,-10.524 -82.294,-31.572c-20.362,-21.048 -30.544,-50.036 -30.544,-86.963Zm48.269,-1.583c0,26.271 6.067,46.185 18.2,59.742c12.133,13.557 27.537,20.336 46.211,20.336c18.674,0 33.999,-6.726 45.974,-20.178c11.975,-13.452 17.962,-33.63 17.962,-60.534c0,-26.587 -5.829,-46.422 -17.487,-59.505c-11.658,-13.083 -27.141,-19.624 -46.449,-19.624c-19.307,0 -34.869,6.62 -46.686,19.861c-11.817,13.241 -17.725,33.208 -17.725,59.901Z" style="fill:#2a66d2;fill-rule:nonzero;"/><path d="M2156.69,1463.918l0,-232.006l45.578,0l94.955,154.934l0,-154.934l43.521,0l0,232.006l-47.003,0l-93.53,-151.294l0,151.294l-43.521,0Z" style="fill:#2a66d2;fill-rule:nonzero;"/><rect x="2388.854" y="1231.912" width="46.844" height="232.006" style="fill:#2a66d2;fill-rule:nonzero;"/><path d="M2628.773,1378.617l45.42,14.401c-6.963,25.321 -18.543,44.128 -34.738,56.419c-16.195,12.291 -36.742,18.437 -61.641,18.437c-30.807,0 -56.129,-10.524 -75.964,-31.572c-19.835,-21.048 -29.752,-49.825 -29.752,-86.33c0,-38.615 9.97,-68.605 29.911,-89.969c19.94,-21.365 46.158,-32.047 78.654,-32.047c28.381,0 51.434,8.388 69.159,25.163c10.551,9.917 18.463,24.161 23.739,42.73l-46.369,11.078c-2.743,-12.028 -8.467,-21.523 -17.171,-28.486c-8.704,-6.963 -19.281,-10.445 -31.731,-10.445c-17.197,0 -31.15,6.172 -41.859,18.516c-10.709,12.344 -16.063,32.337 -16.063,59.98c0,29.33 5.275,50.22 15.826,62.67c10.551,12.45 24.266,18.674 41.147,18.674c12.45,0 23.158,-3.956 32.126,-11.869c8.968,-7.913 15.404,-20.362 19.307,-37.349Z" style="fill:#2a66d2;fill-rule:nonzero;"/><path d="M2715.023,1463.918l0,-232.006l46.844,0l0,103.026l94.638,-103.026l62.987,0l-87.358,90.365l92.106,141.641l-60.613,0l-63.778,-108.881l-37.982,38.773l0,70.108l-46.844,0Z" style="fill:#2a66d2;fill-rule:nonzero;"/><path d="M3157.67,1463.918l-50.959,0l-20.257,-52.7l-92.739,0l-19.149,52.7l-49.693,0l90.365,-232.006l49.535,0l92.897,232.006Zm-86.25,-91.789l-31.968,-86.092l-31.335,86.092l63.303,0Zm-58.872,-153.51l21.84,-47.319l49.851,0l-43.521,47.319l-28.17,0Z" style="fill:#2a66d2;fill-rule:nonzero;"/><path d="M38.095,1896.451l0,-232.006l46.844,0l0,103.026l94.638,-103.026l62.987,0l-87.358,90.365l92.106,141.641l-60.613,0l-63.778,-108.881l-37.982,38.773l0,70.108l-46.844,0Z" style="fill:#2a66d2;fill-rule:nonzero;"/><path d="M480.741,1896.451l-50.959,0l-20.257,-52.7l-92.739,0l-19.149,52.7l-49.693,0l90.365,-232.006l49.535,0l92.897,232.006Zm-86.25,-91.789l-31.968,-86.092l-31.335,86.092l63.303,0Z" style="fill:#2a66d2;fill-rule:nonzero;"/><path d="M506.063,1896.451l0,-232.006l45.578,0l94.955,154.934l0,-154.934l43.521,0l0,232.006l-47.003,0l-93.53,-151.294l0,151.294l-43.521,0Z" style="fill:#2a66d2;fill-rule:nonzero;"/><path d="M888.097,1811.15l45.42,14.401c-6.963,25.321 -18.543,44.128 -34.738,56.419c-16.195,12.291 -36.742,18.437 -61.641,18.437c-30.807,0 -56.129,-10.524 -75.964,-31.572c-19.835,-21.048 -29.752,-49.825 -29.752,-86.33c0,-38.615 9.97,-68.605 29.911,-89.969c19.94,-21.365 46.158,-32.047 78.654,-32.047c28.381,0 51.434,8.388 69.159,25.163c10.551,9.917 18.463,24.161 23.739,42.73l-46.369,11.078c-2.743,-12.028 -8.467,-21.523 -17.171,-28.486c-8.704,-6.963 -19.281,-10.445 -31.731,-10.445c-17.197,0 -31.15,6.172 -41.859,18.516c-10.709,12.344 -16.063,32.337 -16.063,59.98c0,29.33 5.275,50.22 15.826,62.67c10.551,12.45 24.266,18.674 41.147,18.674c12.45,0 23.158,-3.956 32.126,-11.869c8.968,-7.913 15.404,-20.362 19.307,-37.349Z" style="fill:#2a66d2;fill-rule:nonzero;"/><path d="M973.714,1896.451l0,-232.006l172.026,0l0,39.248l-125.182,0l0,51.434l116.478,0l0,39.09l-116.478,0l0,63.145l129.613,0l0,39.09l-176.457,0Z" style="fill:#2a66d2;fill-rule:nonzero;"/><path d="M1191.16,1896.451l0,-230.107l46.844,0l0,191.017l116.478,0l0,39.09l-163.322,0Z" style="fill:#2a66d2;fill-rule:nonzero;"/><path d="M1597.091,1896.451l-50.959,0l-20.257,-52.7l-92.739,0l-19.149,52.7l-49.693,0l90.365,-232.006l49.535,0l92.897,232.006Zm-86.25,-91.789l-31.968,-86.092l-31.335,86.092l63.303,0Zm-58.872,-153.51l21.84,-47.319l49.851,0l-43.521,47.319l-28.17,0Z" style="fill:#2a66d2;fill-rule:nonzero;"/><path d="M1622.096,1896.451l0,-232.006l98.595,0c24.794,0 42.809,2.084 54.045,6.251c11.236,4.167 20.231,11.579 26.983,22.235c6.752,10.656 10.128,22.842 10.128,36.558c0,17.408 -5.117,31.783 -15.351,43.125c-10.234,11.342 -25.532,18.49 -45.895,21.444c10.128,5.908 18.49,12.397 25.084,19.466c6.594,7.069 15.483,19.624 26.666,37.665l28.328,45.262l-56.023,0l-33.867,-50.484c-12.028,-18.041 -20.257,-29.41 -24.688,-34.105c-4.431,-4.695 -9.126,-7.913 -14.085,-9.654c-4.959,-1.741 -12.819,-2.611 -23.58,-2.611l-9.495,0l0,96.854l-46.844,0Zm46.844,-133.886l34.658,0c22.473,0 36.505,-0.95 42.097,-2.849c5.592,-1.899 9.97,-5.17 13.135,-9.812c3.165,-4.642 4.748,-10.445 4.748,-17.408c0,-7.807 -2.084,-14.111 -6.251,-18.912c-4.167,-4.8 -10.049,-7.834 -17.646,-9.1c-3.798,-0.528 -15.193,-0.791 -34.184,-0.791l-36.558,0l0,58.872Zm-23.422,-159.049l35.924,0l17.092,23.58l18.358,-23.58l35.766,0l-32.759,46.686l-41.147,0l-33.234,-46.686Z" style="fill:#2a66d2;fill-rule:nonzero;"/><path d="M1946.682,1896.451l0,-232.006l46.844,0l0,103.026l94.638,-103.026l62.987,0l-87.358,90.365l92.106,141.641l-60.613,0l-63.778,-108.881l-37.982,38.773l0,70.108l-46.844,0Z" style="fill:#2a66d2;fill-rule:nonzero;"/><path d="M2180.271,1896.451l0,-232.006l98.595,0c24.794,0 42.809,2.084 54.045,6.251c11.236,4.167 20.231,11.579 26.983,22.235c6.752,10.656 10.128,22.842 10.128,36.558c0,17.408 -5.117,31.783 -15.351,43.125c-10.234,11.342 -25.532,18.49 -45.895,21.444c10.128,5.908 18.49,12.397 25.084,19.466c6.594,7.069 15.483,19.624 26.666,37.665l28.328,45.262l-56.023,0l-33.867,-50.484c-12.028,-18.041 -20.257,-29.41 -24.688,-34.105c-4.431,-4.695 -9.126,-7.913 -14.085,-9.654c-4.959,-1.741 -12.819,-2.611 -23.58,-2.611l-9.495,0l0,96.854l-46.844,0Zm46.844,-133.886l34.658,0c22.473,0 36.505,-0.95 42.097,-2.849c5.592,-1.899 9.97,-5.17 13.135,-9.812c3.165,-4.642 4.748,-10.445 4.748,-17.408c0,-7.807 -2.084,-14.111 -6.251,-18.912c-4.167,-4.8 -10.049,-7.834 -17.646,-9.1c-3.798,-0.528 -15.193,-0.791 -34.184,-0.791l-36.558,0l0,58.872Zm-23.422,-159.049l35.924,0l17.092,23.58l18.358,-23.58l35.766,0l-32.759,46.686l-41.147,0l-33.234,-46.686Z" style="fill:#2a66d2;fill-rule:nonzero;"/><rect x="2412.751" y="1664.445" width="46.844" height="232.006" style="fill:#2a66d2;fill-rule:nonzero;"/><path d="M2563.412,1896.451l-82.927,-232.006l50.801,0l58.714,171.71l56.815,-171.71l49.693,0l-83.085,232.006l-50.009,0Z" style="fill:#2a66d2;fill-rule:nonzero;"/><path d="M2721.037,1896.451l0,-232.006l46.844,0l0,103.026l94.638,-103.026l62.987,0l-87.358,90.365l92.106,141.641l-60.613,0l-63.778,-108.881l-37.982,38.773l0,70.108l-46.844,0Z" style="fill:#2a66d2;fill-rule:nonzero;"/><path d="M3163.684,1896.451l-50.959,0l-20.257,-52.7l-92.739,0l-19.149,52.7l-49.693,0l90.365,-232.006l49.535,0l92.897,232.006Zm-86.25,-91.789l-31.968,-86.092l-31.335,86.092l63.303,0Z" style="fill:#2a66d2;fill-rule:nonzero;"/></g><g><g><path d="M60.03,2613.511l41.684,-4.053c2.509,13.991 7.599,24.267 15.27,30.828c7.671,6.561 18.019,9.842 31.046,9.842c13.798,0 24.195,-2.919 31.19,-8.756c6.996,-5.838 10.493,-12.664 10.493,-20.48c0,-5.017 -1.471,-9.287 -4.414,-12.809c-2.943,-3.522 -8.081,-6.585 -15.414,-9.191c-5.017,-1.737 -16.452,-4.824 -34.302,-9.263c-22.965,-5.693 -39.078,-12.688 -48.341,-20.987c-13.026,-11.675 -19.539,-25.908 -19.539,-42.697c0,-10.807 3.064,-20.914 9.191,-30.322c6.127,-9.408 14.956,-16.572 26.486,-21.493c11.531,-4.921 25.449,-7.381 41.756,-7.381c26.631,0 46.677,5.838 60.137,17.513c13.46,11.675 20.528,27.258 21.204,46.749l-42.841,1.882c-1.833,-10.903 -5.765,-18.743 -11.796,-23.519c-6.031,-4.776 -15.077,-7.164 -27.138,-7.164c-12.447,0 -22.193,2.557 -29.236,7.671c-4.535,3.281 -6.803,7.671 -6.803,13.171c0,5.017 2.123,9.311 6.368,12.881c5.403,4.535 18.526,9.263 39.368,14.184c20.842,4.921 36.256,10.011 46.243,15.27c9.987,5.259 17.802,12.447 23.447,21.565c5.645,9.118 8.467,20.383 8.467,33.796c0,12.158 -3.377,23.544 -10.131,34.157c-6.754,10.614 -16.307,18.502 -28.657,23.664c-12.351,5.162 -27.741,7.743 -46.17,7.743c-26.824,0 -47.425,-6.199 -61.802,-18.598c-14.377,-12.399 -22.965,-30.467 -25.763,-54.203Z" style="fill:#2a66d2;fill-rule:nonzero;"/><path d="M316.356,2682.549l0,-176.287l-62.96,0l0,-35.894l168.616,0l0,35.894l-62.815,0l0,176.287l-42.841,0Z" style="fill:#2a66d2;fill-rule:nonzero;"/><path d="M449.367,2470.368l42.841,0l0,114.919c0,18.237 0.531,30.057 1.592,35.46c1.833,8.684 6.199,15.655 13.098,20.914c6.899,5.259 16.331,7.888 28.296,7.888c12.158,0 21.324,-2.485 27.5,-7.454c6.175,-4.969 9.89,-11.072 11.145,-18.309c1.254,-7.237 1.882,-19.25 1.882,-36.039l0,-117.38l42.841,0l0,111.446c0,25.473 -1.158,43.469 -3.474,53.986c-2.316,10.517 -6.585,19.394 -12.809,26.631c-6.224,7.237 -14.546,13.002 -24.967,17.296c-10.421,4.294 -24.026,6.441 -40.815,6.441c-20.263,0 -35.629,-2.34 -46.098,-7.02c-10.469,-4.68 -18.743,-10.759 -24.822,-18.237c-6.079,-7.478 -10.083,-15.318 -12.013,-23.519c-2.798,-12.158 -4.197,-30.105 -4.197,-53.841l0,-113.183Z" style="fill:#2a66d2;fill-rule:nonzero;"/><path d="M663.574,2470.368l78.301,0c17.658,0 31.118,1.351 40.381,4.053c12.447,3.667 23.109,10.18 31.986,19.539c8.877,9.36 15.631,20.818 20.263,34.374c4.632,13.557 6.947,30.274 6.947,50.151c0,17.465 -2.171,32.517 -6.513,45.157c-5.307,15.438 -12.881,27.934 -22.723,37.486c-7.43,7.237 -17.465,12.881 -30.105,16.934c-9.456,2.991 -22.096,4.487 -37.92,4.487l-80.617,0l0,-212.181Zm42.841,35.894l0,140.537l31.986,0c11.965,0 20.601,-0.675 25.908,-2.026c6.947,-1.737 12.713,-4.68 17.296,-8.829c4.583,-4.149 8.322,-10.976 11.217,-20.48c2.895,-9.504 4.342,-22.458 4.342,-38.861c0,-16.403 -1.447,-28.995 -4.342,-37.776c-2.895,-8.781 -6.947,-15.631 -12.158,-20.552c-5.21,-4.921 -11.82,-8.25 -19.829,-9.987c-5.982,-1.351 -17.706,-2.026 -35.171,-2.026l-19.25,0Z" style="fill:#2a66d2;fill-rule:nonzero;"/><rect x="876.479" y="2470.368" width="42.841" height="212.181" style="fill:#2a66d2;fill-rule:nonzero;"/><path d="M960.136,2682.549l0,-212.181l157.327,0l0,35.894l-114.485,0l0,47.039l106.525,0l0,35.749l-106.525,0l0,57.749l118.538,0l0,35.749l-161.379,0Z" style="fill:#2a66d2;fill-rule:nonzero;"/><path d="M1239.618,2682.549l0,-212.181l64.117,0l38.499,144.735l38.065,-144.735l64.262,0l0,212.181l-39.802,0l0,-167.024l-42.118,167.024l-41.249,0l-41.973,-167.024l0,167.024l-39.802,0Z" style="fill:#2a66d2;fill-rule:nonzero;"/><path d="M1478.431,2577.761c0,-21.614 3.232,-39.754 9.697,-54.42c4.824,-10.807 11.41,-20.504 19.756,-29.092c8.346,-8.588 17.489,-14.956 27.427,-19.105c13.219,-5.596 28.464,-8.395 45.736,-8.395c31.263,0 56.278,9.697 75.045,29.092c18.767,19.394 28.151,46.363 28.151,80.907c0,34.254 -9.311,61.054 -27.934,80.4c-18.623,19.346 -43.517,29.019 -74.683,29.019c-31.552,0 -56.64,-9.625 -75.262,-28.875c-18.623,-19.25 -27.934,-45.76 -27.934,-79.532Zm44.144,-1.447c0,24.026 5.548,42.238 16.644,54.637c11.096,12.399 25.184,18.598 42.263,18.598c17.079,0 31.094,-6.151 42.045,-18.454c10.952,-12.302 16.427,-30.756 16.427,-55.361c0,-24.315 -5.331,-42.456 -15.993,-54.42c-10.662,-11.965 -24.822,-17.947 -42.48,-17.947c-17.658,0 -31.89,6.055 -42.697,18.164c-10.807,12.109 -16.21,30.37 -16.21,54.782Z" style="fill:#2a66d2;fill-rule:nonzero;"/><path d="M1717.532,2470.368l78.301,0c17.658,0 31.118,1.351 40.381,4.053c12.447,3.667 23.109,10.18 31.986,19.539c8.877,9.36 15.631,20.818 20.263,34.374c4.632,13.557 6.947,30.274 6.947,50.151c0,17.465 -2.171,32.517 -6.513,45.157c-5.307,15.438 -12.881,27.934 -22.723,37.486c-7.43,7.237 -17.465,12.881 -30.105,16.934c-9.456,2.991 -22.096,4.487 -37.92,4.487l-80.617,0l0,-212.181Zm42.841,35.894l0,140.537l31.986,0c11.965,0 20.601,-0.675 25.908,-2.026c6.947,-1.737 12.713,-4.68 17.296,-8.829c4.583,-4.149 8.322,-10.976 11.217,-20.48c2.895,-9.504 4.342,-22.458 4.342,-38.861c0,-16.403 -1.447,-28.995 -4.342,-37.776c-2.895,-8.781 -6.947,-15.631 -12.158,-20.552c-5.21,-4.921 -11.82,-8.25 -19.829,-9.987c-5.982,-1.351 -17.706,-2.026 -35.171,-2.026l-19.25,0Z" style="fill:#2a66d2;fill-rule:nonzero;"/><path d="M1931.45,2470.368l42.841,0l0,114.919c0,18.237 0.531,30.057 1.592,35.46c1.833,8.684 6.199,15.655 13.098,20.914c6.899,5.259 16.331,7.888 28.296,7.888c12.158,0 21.324,-2.485 27.5,-7.454c6.175,-4.969 9.89,-11.072 11.145,-18.309c1.254,-7.237 1.882,-19.25 1.882,-36.039l0,-117.38l42.841,0l0,111.446c0,25.473 -1.158,43.469 -3.474,53.986c-2.316,10.517 -6.585,19.394 -12.809,26.631c-6.224,7.237 -14.546,13.002 -24.967,17.296c-10.421,4.294 -24.026,6.441 -40.815,6.441c-20.263,0 -35.629,-2.34 -46.098,-7.02c-10.469,-4.68 -18.743,-10.759 -24.822,-18.237c-6.079,-7.478 -10.083,-15.318 -12.013,-23.519c-2.798,-12.158 -4.197,-30.105 -4.197,-53.841l0,-113.183Z" style="fill:#2a66d2;fill-rule:nonzero;"/><path d="M2146.96,2682.549l0,-210.444l42.841,0l0,174.695l106.525,0l0,35.749l-149.366,0Z" style="fill:#2a66d2;fill-rule:nonzero;"/><path d="M2518.205,2682.549l-46.605,0l-18.526,-48.197l-84.815,0l-17.513,48.197l-45.447,0l82.644,-212.181l45.302,0l84.959,212.181Zm-78.88,-83.946l-29.236,-78.736l-28.657,78.736l57.894,0Z" style="fill:#2a66d2;fill-rule:nonzero;"/><path d="M2541.073,2682.549l0,-212.181l90.17,0c22.675,0 39.151,1.906 49.427,5.717c10.276,3.811 18.502,10.59 24.677,20.335c6.175,9.745 9.263,20.89 9.263,33.434c0,15.921 -4.68,29.068 -14.039,39.44c-9.36,10.373 -23.351,16.91 -41.973,19.612c9.263,5.403 16.91,11.338 22.94,17.802c6.031,6.465 14.16,17.947 24.388,34.447l25.908,41.394l-51.236,0l-30.973,-46.17c-11,-16.5 -18.526,-26.897 -22.579,-31.19c-4.053,-4.294 -8.346,-7.237 -12.881,-8.829c-4.535,-1.592 -11.724,-2.388 -21.565,-2.388l-8.684,0l0,88.578l-42.841,0Zm42.841,-122.446l31.697,0c20.552,0 33.385,-0.868 38.499,-2.605c5.114,-1.737 9.118,-4.728 12.013,-8.974c2.895,-4.246 4.342,-9.552 4.342,-15.921c0,-7.14 -1.906,-12.906 -5.717,-17.296c-3.811,-4.39 -9.191,-7.164 -16.138,-8.322c-3.474,-0.482 -13.895,-0.724 -31.263,-0.724l-33.434,0l0,53.841Z" style="fill:#2a66d2;fill-rule:nonzero;"/><rect x="2753.688" y="2470.368" width="42.841" height="212.181" style="fill:#2a66d2;fill-rule:nonzero;"/><path d="M2885.107,2682.549l0,-176.287l-62.96,0l0,-35.894l168.616,0l0,35.894l-62.815,0l0,176.287l-42.841,0Z" style="fill:#2a66d2;fill-rule:nonzero;"/><path d="M3074.131,2682.549l0,-89.301l-77.723,-122.88l50.223,0l49.933,83.946l48.92,-83.946l49.355,0l-78.012,123.169l0,89.012l-42.697,0Z" style="fill:#2a66d2;fill-rule:nonzero;"/></g></g><path d="M13.881,2224.206l3134.809,0" style="fill:none;stroke:#2a66d2;stroke-width:27.76px;"/><g><g><path d="M1064.874,1038.776l-228.162,0l-90.698,-235.957l-415.227,0l-85.738,235.957l-222.494,0l404.598,-1038.776l221.785,0l415.936,1038.776Zm-386.175,-410.976l-143.133,-385.467l-140.299,385.467l283.431,0Z" style="fill:#2a66d2;fill-rule:nonzero;"/><path d="M1178.955,1038.776l0,-1038.776l209.739,0l0,461.285l423.73,-461.285l282.014,0l-391.135,404.598l412.393,634.178l-271.386,0l-285.557,-487.502l-170.059,173.602l0,313.9l-209.739,0Z" style="fill:#2a66d2;fill-rule:nonzero;"/><path d="M2226.943,1038.776l0,-1038.776l209.739,0l0,461.285l423.73,-461.285l282.014,0l-391.135,404.598l412.393,634.178l-271.386,0l-285.557,-487.502l-170.059,173.602l0,313.9l-209.739,0Z" style="fill:#2a66d2;fill-rule:nonzero;"/></g></g></svg>